<svg id="svg103927" version="1.1" viewBox="0 0 84.777 85.35" xmlns="http://www.w3.org/2000/svg">
 <title id="title105161">img_54</title>
 <defs id="defs103921">
  <clipPath id="clipPath72434">
   <path id="path72432" d="M 0,6239.3 H 1117.24 V 0 H 0 Z"/>
  </clipPath>
  <clipPath id="clipPath72442">
   <path id="path72440" d="m258.13 2436.6h204.83v-204.83h-204.83z"/>
  </clipPath>
 </defs>
 <g id="layer1" transform="translate(-26 -64.936)">
  <g id="g72430" transform="matrix(.35278 0 0 -.35278 -58.876 931.5)" clip-path="url(#clipPath72434)">
   <path id="path88945" d="m300.94 2375.1c0-1.0195-0.82422-1.8398-1.8398-1.8398-1.0156 0-1.8398 0.8203-1.8398 1.8398 0 1.0156 0.82422 1.8399 1.8398 1.8399 1.0156 0 1.8398-0.8243 1.8398-1.8399" style="fill:#c21c19"/>
   <g id="g72520">
    <g id="g72518" clip-path="url(#clipPath72442)" opacity=".41">
     <path id="path72444" d="m258.26 2436.4h204.58v-204.58h-204.58z" style="fill:none;stroke-miterlimit:10;stroke-width:.25;stroke:#1d1d1b"/>
     <g id="g72448" transform="translate(258.26 2252.3)">
      <path id="path72446" d="m0 0h204.58" style="fill:none;stroke-miterlimit:10;stroke-width:.25;stroke:#1d1d1b"/>
     </g>
     <g id="g72452" transform="translate(258.26 2272.8)">
      <path id="path72450" d="m0 0h204.58" style="fill:none;stroke-miterlimit:10;stroke-width:.25;stroke:#1d1d1b"/>
     </g>
     <g id="g72456" transform="translate(258.26 2293.2)">
      <path id="path72454" d="m0 0h204.58" style="fill:none;stroke-miterlimit:10;stroke-width:.25;stroke:#1d1d1b"/>
     </g>
     <g id="g72460" transform="translate(258.26 2313.7)">
      <path id="path72458" d="m0 0h204.58" style="fill:none;stroke-miterlimit:10;stroke-width:.25;stroke:#1d1d1b"/>
     </g>
     <g id="g72464" transform="translate(258.26 2334.2)">
      <path id="path72462" d="m0 0h204.58" style="fill:none;stroke-miterlimit:10;stroke-width:.25;stroke:#1d1d1b"/>
     </g>
     <g id="g72468" transform="translate(258.26 2354.6)">
      <path id="path72466" d="m0 0h204.58" style="fill:none;stroke-miterlimit:10;stroke-width:.25;stroke:#1d1d1b"/>
     </g>
     <g id="g72472" transform="translate(258.26 2375.1)">
      <path id="path72470" d="m0 0h204.58" style="fill:none;stroke-miterlimit:10;stroke-width:.25;stroke:#1d1d1b"/>
     </g>
     <g id="g72476" transform="translate(258.26 2395.5)">
      <path id="path72474" d="m0 0h204.58" style="fill:none;stroke-miterlimit:10;stroke-width:.25;stroke:#1d1d1b"/>
     </g>
     <g id="g72480" transform="translate(258.26 2416)">
      <path id="path72478" d="m0 0h204.58" style="fill:none;stroke-miterlimit:10;stroke-width:.25;stroke:#1d1d1b"/>
     </g>
     <g id="g72484" transform="translate(442.38 2436.4)">
      <path id="path72482" d="m0 0v-204.58" style="fill:none;stroke-miterlimit:10;stroke-width:.25;stroke:#1d1d1b"/>
     </g>
     <g id="g72488" transform="translate(421.92 2436.4)">
      <path id="path72486" d="m0 0v-204.58" style="fill:none;stroke-miterlimit:10;stroke-width:.25;stroke:#1d1d1b"/>
     </g>
     <g id="g72492" transform="translate(401.46 2436.4)">
      <path id="path72490" d="m0 0v-204.58" style="fill:none;stroke-miterlimit:10;stroke-width:.25;stroke:#1d1d1b"/>
     </g>
     <g id="g72496" transform="translate(381 2436.4)">
      <path id="path72494" d="m0 0v-204.58" style="fill:none;stroke-miterlimit:10;stroke-width:.25;stroke:#1d1d1b"/>
     </g>
     <g id="g72500" transform="translate(360.55 2436.4)">
      <path id="path72498" d="m0 0v-204.58" style="fill:none;stroke-miterlimit:10;stroke-width:.25;stroke:#1d1d1b"/>
     </g>
     <g id="g72504" transform="translate(340.09 2436.4)">
      <path id="path72502" d="m0 0v-204.58" style="fill:none;stroke-miterlimit:10;stroke-width:.25;stroke:#1d1d1b"/>
     </g>
     <g id="g72508" transform="translate(319.63 2436.4)">
      <path id="path72506" d="m0 0v-204.58" style="fill:none;stroke-miterlimit:10;stroke-width:.25;stroke:#1d1d1b"/>
     </g>
     <g id="g72512" transform="translate(299.17 2436.4)">
      <path id="path72510" d="m0 0v-204.58" style="fill:none;stroke-miterlimit:10;stroke-width:.25;stroke:#1d1d1b"/>
     </g>
     <g id="g72516" transform="translate(278.72 2436.4)">
      <path id="path72514" d="m0 0v-204.58" style="fill:none;stroke-miterlimit:10;stroke-width:.25;stroke:#1d1d1b"/>
     </g>
    </g>
   </g>
   <g id="use88763" transform="matrix(1 0 0 -1 278.13 2381.3)" style="fill:#1c1c19">
    <path id="path102527" d="m1.9688-6.9844c-0.64062 0.84375-1.3125 2.1406-1.3281 4.1094 0 1.9688 0.6875 3.25 1.3281 4.0938h0.6875c-0.71875-1-1.2656-2.2969-1.2656-4.0938 0-1.8125 0.53125-3.125 1.2656-4.1094z"/>
   </g>
   <g id="use88765" transform="matrix(1 0 0 -1 281.04 2381.3)" style="fill:#1c1c19">
    <path id="path102531" d="m0.29688-3.0469v0.65625h2.4844v-0.65625z"/>
   </g>
   <g id="use88767" transform="matrix(1 0 0 -1 284.17 2381.3)" style="fill:#1c1c19">
    <path id="path102535" d="m0.42188-0.32812c0.32812 0.20312 0.96875 0.4375 1.7031 0.4375 1.5625 0 2.3906-0.92188 2.3906-1.9531 0-0.92188-0.65625-1.5312-1.4688-1.6875v-0.015625c0.8125-0.29688 1.2031-0.875 1.2031-1.5469 0-0.79688-0.57812-1.5625-1.8594-1.5625-0.70312 0-1.375 0.25-1.7188 0.51562l0.23438 0.64062c0.28125-0.20312 0.78125-0.4375 1.3125-0.4375 0.8125 0 1.1406 0.46875 1.1406 0.98438 0 0.78125-0.8125 1.1094-1.4531 1.1094h-0.5v0.65625h0.5c0.84375 0 1.6719 0.40625 1.6875 1.3125 0.015625 0.54688-0.34375 1.2656-1.4844 1.2656-0.60938 0-1.1875-0.25-1.4375-0.40625z"/>
   </g>
   <g id="use88769" transform="matrix(1 0 0 -1 289.38 2381.3)" style="fill:#1c1c19">
    <path id="path102539" d="m0.79688 1.1719c0.28125-0.46875 0.71875-1.5781 0.95312-2.4375l-0.98438 0.09375c-0.10938 0.73438-0.39062 1.8125-0.60938 2.4062z"/>
   </g>
   <g id="use88771" transform="matrix(1 0 0 -1 291.52 2381.3)" style="fill:#1c1c19">
    <path id="path102543" d="m4.625 0v-0.73438h-2.9375v-0.015625l0.53125-0.48438c1.375-1.3281 2.25-2.3125 2.25-3.5156 0-0.9375-0.59375-1.9062-2-1.9062-0.76562 0-1.4062 0.28125-1.8594 0.67188l0.28125 0.625c0.3125-0.25 0.79688-0.5625 1.3906-0.5625 0.98438 0 1.2969 0.625 1.2969 1.2812 0 0.98438-0.76562 1.8281-2.4375 3.4219l-0.6875 0.67188v0.54688z"/>
   </g>
   <g id="use88773" transform="matrix(1 0 0 -1 296.73 2381.3)" style="fill:#1c1c19">
    <path id="path102547" d="m0.89062 1.2188c0.64062-0.85938 1.3125-2.1406 1.3125-4.1094 0-1.9844-0.67188-3.2656-1.3125-4.0938h-0.6875c0.71875 1 1.2656 2.2812 1.2656 4.0938 0 1.7969-0.54688 3.1094-1.2656 4.1094z"/>
   </g>
   <path id="path88777" d="m360.87 2446.7v-225.55" style="fill:none;stroke-miterlimit:10;stroke-width:1.1;stroke:#1c1c19"/>
   <path id="path88779" d="m360.87 2453.3c-1.1602-3.125-3.1367-7-5.2344-9.4023l5.2344 1.8906 5.2305-1.8906c-2.0937 2.4023-4.0703 6.2773-5.2305 9.4023" style="fill:#1c1c19"/>
   <path id="path88781" d="m360.87 2214.5c-1.1602 3.125-3.1367 7-5.2344 9.4062l5.2344-1.8945 5.2305 1.8945c-2.0937-2.4062-4.0703-6.2812-5.2305-9.4062" style="fill:#1c1c19"/>
   <path id="path88783" d="m474.26 2334.5h-227.03" style="fill:none;stroke-miterlimit:10;stroke-width:1.1;stroke:#1c1c19"/>
   <path id="path88785" d="m480.9 2334.5c-3.125 1.1601-7 3.1367-9.4063 5.2343l1.8945-5.2343-1.8945-5.2305c2.4062 2.0937 6.2813 4.0703 9.4063 5.2305" style="fill:#1c1c19"/>
   <path id="path88787" d="m240.59 2334.5c3.125 1.1601 7 3.1367 9.4024 5.2343l-1.8906-5.2343 1.8906-5.2305c-2.4024 2.0937-6.2774 4.0703-9.4024 5.2305" style="fill:#1c1c19"/>
   <path id="path88789" d="m380.93 2337.3v-5.8008" style="fill:none;stroke-miterlimit:10;stroke-width:1.194;stroke:#1c1c19"/>
   <path id="path88791" d="m401.39 2337.3v-5.8008" style="fill:none;stroke-miterlimit:10;stroke-width:1.194;stroke:#1c1c19"/>
   <path id="path88793" d="m421.85 2337.3v-5.8008" style="fill:none;stroke-miterlimit:10;stroke-width:1.194;stroke:#1c1c19"/>
   <path id="path88795" d="m442.3 2337.3v-5.8008" style="fill:none;stroke-miterlimit:10;stroke-width:1.194;stroke:#1c1c19"/>
   <path id="path88797" d="m462.95 2337.3v-5.8008" style="fill:none;stroke-miterlimit:10;stroke-width:1.194;stroke:#1c1c19"/>
   <path id="path88799" d="m258.09 2337.3v-5.8008" style="fill:none;stroke-miterlimit:10;stroke-width:1.194;stroke:#1c1c19"/>
   <path id="path88801" d="m278.55 2337.3v-5.8008" style="fill:none;stroke-miterlimit:10;stroke-width:1.194;stroke:#1c1c19"/>
   <path id="path88803" d="m299.01 2337.3v-5.8008" style="fill:none;stroke-miterlimit:10;stroke-width:1.194;stroke:#1c1c19"/>
   <path id="path88805" d="m319.47 2337.3v-5.8008" style="fill:none;stroke-miterlimit:10;stroke-width:1.194;stroke:#1c1c19"/>
   <path id="path88807" d="m340.11 2337.3v-5.8008" style="fill:none;stroke-miterlimit:10;stroke-width:1.194;stroke:#1c1c19"/>
   <path id="path88809" d="m357.97 2354.8h5.8047" style="fill:none;stroke-miterlimit:10;stroke-width:1.194;stroke:#1c1c19"/>
   <path id="path88811" d="m357.97 2375.1h5.8047" style="fill:none;stroke-miterlimit:10;stroke-width:1.194;stroke:#1c1c19"/>
   <path id="path88813" d="m357.97 2395.6h5.8047" style="fill:none;stroke-miterlimit:10;stroke-width:1.194;stroke:#1c1c19"/>
   <path id="path88815" d="m357.97 2416h5.8047" style="fill:none;stroke-miterlimit:10;stroke-width:1.194;stroke:#1c1c19"/>
   <path id="path88817" d="m357.97 2436.5h5.8047" style="fill:none;stroke-miterlimit:10;stroke-width:1.194;stroke:#1c1c19"/>
   <path id="path88819" d="m357.97 2232h5.8047" style="fill:none;stroke-miterlimit:10;stroke-width:1.194;stroke:#1c1c19"/>
   <path id="path88821" d="m357.97 2252.3h5.8047" style="fill:none;stroke-miterlimit:10;stroke-width:1.194;stroke:#1c1c19"/>
   <path id="path88823" d="m357.97 2272.8h5.8047" style="fill:none;stroke-miterlimit:10;stroke-width:1.194;stroke:#1c1c19"/>
   <path id="path88825" d="m357.97 2293.2h5.8047" style="fill:none;stroke-miterlimit:10;stroke-width:1.194;stroke:#1c1c19"/>
   <path id="path88827" d="m357.97 2313.7h5.8047" style="fill:none;stroke-miterlimit:10;stroke-width:1.194;stroke:#1c1c19"/>
   <g id="use88829" transform="matrix(1 0 0 -1 369.31 2451.3)" style="fill:#1c1c19">
    <path id="path102551" d="m0.09375-5.0781 1.875 4.6719c0.046875 0.125 0.0625 0.20312 0.0625 0.25s-0.03125 0.125-0.0625 0.21875c-0.21875 0.46875-0.53125 0.82812-0.78125 1.0312-0.28125 0.23438-0.57812 0.375-0.8125 0.45312l0.23438 0.78125c0.23438-0.046875 0.6875-0.20312 1.1406-0.60938 0.625-0.54688 1.0781-1.4375 1.7344-3.1719l1.3906-3.625h-0.98438l-1 2.9844c-0.125 0.35938-0.23438 0.75-0.32812 1.0469h-0.015625c-0.09375-0.29688-0.21875-0.70312-0.32812-1.0312l-1.1094-3z"/>
   </g>
   <g id="use88833" transform="matrix(1 0 0 -1 473.63 2343.8)" style="fill:#1c1c19">
    <path id="path102555" d="m0.17188-5.0781 1.7188 2.4844-1.8125 2.5938h1.0312l0.73438-1.1406c0.1875-0.3125 0.35938-0.57812 0.53125-0.89062h0.015625c0.1875 0.3125 0.34375 0.59375 0.54688 0.89062l0.75 1.1406h1.0469l-1.7812-2.625 1.7344-2.4531h-1l-0.71875 1.0781c-0.17188 0.26562-0.32812 0.53125-0.5 0.84375h-0.03125c-0.17188-0.28125-0.32812-0.54688-0.51562-0.82812l-0.71875-1.0938z"/>
   </g>
   <g id="use88837" transform="matrix(1 0 0 -1 351.8 2324)" style="fill:#1c1c19">
    <path id="path102559" d="m2.75-6.9375c-1.3906 0-2.375 1.25-2.375 3.5469 0.03125 2.25 0.92188 3.5 2.2656 3.5 1.5 0 2.375-1.2812 2.375-3.5938 0-2.1719-0.82812-3.4531-2.2656-3.4531zm-0.046875 0.71875c0.95312 0 1.375 1.0938 1.375 2.7812 0 1.7344-0.4375 2.8438-1.3906 2.8438-0.84375 0-1.3906-1.0156-1.3906-2.7812 0-1.8594 0.59375-2.8438 1.4062-2.8438z"/>
   </g>
   <g id="use88841" transform="matrix(1 0 0 -1 378.34 2320.6)" style="fill:#1c1c19">
    <path id="path102563" d="m2.4844 0h0.89062v-6.8281h-0.79688l-1.4844 0.79688 0.17188 0.70312 1.1875-0.64062h0.03125z"/>
   </g>
   <g id="use88845" transform="matrix(1 0 0 -1 347.25 2351.7)" style="fill:#1c1c19">
    <path id="path102567" d="m2.4844 0h0.89062v-6.8281h-0.79688l-1.4844 0.79688 0.17188 0.70312 1.1875-0.64062h0.03125z"/>
   </g>
   <g id="use88849" transform="matrix(1 0 0 -1 344.81 2310.9)" style="fill:#1c1c19">
    <path id="path102571" d="m0.3125-3.1875v0.6875h2.5938v-0.6875z"/>
   </g>
   <g id="use88851" transform="matrix(1 0 0 -1 348.08 2310.9)" style="fill:#1c1c19">
    <path id="path102575" d="m2.4844 0h0.89062v-6.8281h-0.79688l-1.4844 0.79688 0.17188 0.70312 1.1875-0.64062h0.03125z"/>
   </g>
   <g id="use88855" transform="matrix(1 0 0 -1 334.08 2320.6)" style="fill:#1c1c19">
    <path id="path102579" d="m0.3125-3.1875v0.6875h2.5938v-0.6875z"/>
   </g>
   <g id="use88857" transform="matrix(1 0 0 -1 337.36 2320.6)" style="fill:#1c1c19">
    <path id="path102583" d="m2.4844 0h0.89062v-6.8281h-0.79688l-1.4844 0.79688 0.17188 0.70312 1.1875-0.64062h0.03125z"/>
   </g>
   <g id="use88861" transform="matrix(1 0 0 -1 397.83 2320.6)" style="fill:#1c1c19">
    <path id="path102587" d="m4.8281 0v-0.76562h-3.0625v-0.015625l0.54688-0.51562c1.4375-1.375 2.3438-2.4062 2.3438-3.6562 0-0.98438-0.60938-1.9844-2.0781-1.9844-0.79688 0-1.4688 0.29688-1.9375 0.6875l0.29688 0.65625c0.3125-0.26562 0.82812-0.57812 1.4531-0.57812 1.0156 0 1.3438 0.64062 1.3438 1.3281 0 1.0312-0.79688 1.9219-2.5312 3.5781l-0.73438 0.70312v0.5625z"/>
   </g>
   <g id="use88865" transform="matrix(1 0 0 -1 347.01 2371.4)" style="fill:#1c1c19">
    <path id="path102591" d="m4.8281 0v-0.76562h-3.0625v-0.015625l0.54688-0.51562c1.4375-1.375 2.3438-2.4062 2.3438-3.6562 0-0.98438-0.60938-1.9844-2.0781-1.9844-0.79688 0-1.4688 0.29688-1.9375 0.6875l0.29688 0.65625c0.3125-0.26562 0.82812-0.57812 1.4531-0.57812 1.0156 0 1.3438 0.64062 1.3438 1.3281 0 1.0312-0.79688 1.9219-2.5312 3.5781l-0.73438 0.70312v0.5625z"/>
   </g>
   <g id="use88869" transform="matrix(1 0 0 -1 344.56 2290.4)" style="fill:#1c1c19">
    <path id="path102595" d="m0.3125-3.1875v0.6875h2.5938v-0.6875z"/>
   </g>
   <g id="use88871" transform="matrix(1 0 0 -1 347.84 2290.4)" style="fill:#1c1c19">
    <path id="path102599" d="m4.8281 0v-0.76562h-3.0625v-0.015625l0.54688-0.51562c1.4375-1.375 2.3438-2.4062 2.3438-3.6562 0-0.98438-0.60938-1.9844-2.0781-1.9844-0.79688 0-1.4688 0.29688-1.9375 0.6875l0.29688 0.65625c0.3125-0.26562 0.82812-0.57812 1.4531-0.57812 1.0156 0 1.3438 0.64062 1.3438 1.3281 0 1.0312-0.79688 1.9219-2.5312 3.5781l-0.73438 0.70312v0.5625z"/>
   </g>
   <g id="use88875" transform="matrix(1 0 0 -1 314.08 2320.9)" style="fill:#1c1c19">
    <path id="path102603" d="m0.3125-3.1875v0.6875h2.5938v-0.6875z"/>
   </g>
   <g id="use88877" transform="matrix(1 0 0 -1 317.35 2320.9)" style="fill:#1c1c19">
    <path id="path102607" d="m4.8281 0v-0.76562h-3.0625v-0.015625l0.54688-0.51562c1.4375-1.375 2.3438-2.4062 2.3438-3.6562 0-0.98438-0.60938-1.9844-2.0781-1.9844-0.79688 0-1.4688 0.29688-1.9375 0.6875l0.29688 0.65625c0.3125-0.26562 0.82812-0.57812 1.4531-0.57812 1.0156 0 1.3438 0.64062 1.3438 1.3281 0 1.0312-0.79688 1.9219-2.5312 3.5781l-0.73438 0.70312v0.5625z"/>
   </g>
   <g id="use88881" transform="matrix(1 0 0 -1 418.29 2320.6)" style="fill:#1c1c19">
    <path id="path102611" d="m0.4375-0.34375c0.34375 0.21875 1.0156 0.45312 1.7812 0.45312 1.6406 0 2.4844-0.95312 2.4844-2.0469 0-0.95312-0.6875-1.5781-1.5156-1.75v-0.015625c0.82812-0.3125 1.25-0.90625 1.25-1.6094 0-0.82812-0.60938-1.625-1.9531-1.625-0.73438 0-1.4219 0.26562-1.7812 0.51562l0.23438 0.67188c0.29688-0.20312 0.82812-0.4375 1.375-0.4375 0.84375 0 1.1875 0.46875 1.1875 1.0156 0 0.8125-0.84375 1.1562-1.5156 1.1562h-0.51562v0.70312h0.51562c0.89062 0 1.75 0.40625 1.7656 1.3594 0.015625 0.5625-0.35938 1.3281-1.5469 1.3281-0.64062 0-1.25-0.26562-1.5156-0.4375z"/>
   </g>
   <g id="use88885" transform="matrix(1 0 0 -1 347.01 2391.1)" style="fill:#1c1c19">
    <path id="path102615" d="m0.4375-0.34375c0.34375 0.21875 1.0156 0.45312 1.7812 0.45312 1.6406 0 2.4844-0.95312 2.4844-2.0469 0-0.95312-0.6875-1.5781-1.5156-1.75v-0.015625c0.82812-0.3125 1.25-0.90625 1.25-1.6094 0-0.82812-0.60938-1.625-1.9531-1.625-0.73438 0-1.4219 0.26562-1.7812 0.51562l0.23438 0.67188c0.29688-0.20312 0.82812-0.4375 1.375-0.4375 0.84375 0 1.1875 0.46875 1.1875 1.0156 0 0.8125-0.84375 1.1562-1.5156 1.1562h-0.51562v0.70312h0.51562c0.89062 0 1.75 0.40625 1.7656 1.3594 0.015625 0.5625-0.35938 1.3281-1.5469 1.3281-0.64062 0-1.25-0.26562-1.5156-0.4375z"/>
   </g>
   <g id="use88889" transform="matrix(1 0 0 -1 344.56 2269.8)" style="fill:#1c1c19">
    <path id="path102619" d="m0.3125-3.1875v0.6875h2.5938v-0.6875z"/>
   </g>
   <g id="use88891" transform="matrix(1 0 0 -1 347.84 2269.8)" style="fill:#1c1c19">
    <path id="path102623" d="m0.4375-0.34375c0.34375 0.21875 1.0156 0.45312 1.7812 0.45312 1.6406 0 2.4844-0.95312 2.4844-2.0469 0-0.95312-0.6875-1.5781-1.5156-1.75v-0.015625c0.82812-0.3125 1.25-0.90625 1.25-1.6094 0-0.82812-0.60938-1.625-1.9531-1.625-0.73438 0-1.4219 0.26562-1.7812 0.51562l0.23438 0.67188c0.29688-0.20312 0.82812-0.4375 1.375-0.4375 0.84375 0 1.1875 0.46875 1.1875 1.0156 0 0.8125-0.84375 1.1562-1.5156 1.1562h-0.51562v0.70312h0.51562c0.89062 0 1.75 0.40625 1.7656 1.3594 0.015625 0.5625-0.35938 1.3281-1.5469 1.3281-0.64062 0-1.25-0.26562-1.5156-0.4375z"/>
   </g>
   <g id="use88895" transform="matrix(1 0 0 -1 293.5 2320.9)" style="fill:#1c1c19">
    <path id="path102627" d="m0.3125-3.1875v0.6875h2.5938v-0.6875z"/>
   </g>
   <g id="use88897" transform="matrix(1 0 0 -1 296.78 2320.9)" style="fill:#1c1c19">
    <path id="path102631" d="m0.4375-0.34375c0.34375 0.21875 1.0156 0.45312 1.7812 0.45312 1.6406 0 2.4844-0.95312 2.4844-2.0469 0-0.95312-0.6875-1.5781-1.5156-1.75v-0.015625c0.82812-0.3125 1.25-0.90625 1.25-1.6094 0-0.82812-0.60938-1.625-1.9531-1.625-0.73438 0-1.4219 0.26562-1.7812 0.51562l0.23438 0.67188c0.29688-0.20312 0.82812-0.4375 1.375-0.4375 0.84375 0 1.1875 0.46875 1.1875 1.0156 0 0.8125-0.84375 1.1562-1.5156 1.1562h-0.51562v0.70312h0.51562c0.89062 0 1.75 0.40625 1.7656 1.3594 0.015625 0.5625-0.35938 1.3281-1.5469 1.3281-0.64062 0-1.25-0.26562-1.5156-0.4375z"/>
   </g>
   <g id="use88901" transform="matrix(1 0 0 -1 438.75 2320.6)" style="fill:#1c1c19">
    <path id="path102635" d="m4.2031 0v-1.8594h0.95312v-0.71875h-0.95312v-4.25h-1l-3.0469 4.3594v0.60938h3.1719v1.8594zm-3.1094-2.5781v-0.03125l1.6719-2.3125c0.1875-0.3125 0.35938-0.60938 0.5625-1.0156h0.03125c-0.015625 0.35938-0.03125 0.71875-0.03125 1.0781v2.2812z"/>
   </g>
   <g id="use88905" transform="matrix(1 0 0 -1 347.01 2410.9)" style="fill:#1c1c19">
    <path id="path102639" d="m4.2031 0v-1.8594h0.95312v-0.71875h-0.95312v-4.25h-1l-3.0469 4.3594v0.60938h3.1719v1.8594zm-3.1094-2.5781v-0.03125l1.6719-2.3125c0.1875-0.3125 0.35938-0.60938 0.5625-1.0156h0.03125c-0.015625 0.35938-0.03125 0.71875-0.03125 1.0781v2.2812z"/>
   </g>
   <g id="use88909" transform="matrix(1 0 0 -1 344.56 2249.4)" style="fill:#1c1c19">
    <path id="path102643" d="m0.3125-3.1875v0.6875h2.5938v-0.6875z"/>
   </g>
   <g id="use88911" transform="matrix(1 0 0 -1 347.84 2249.4)" style="fill:#1c1c19">
    <path id="path102647" d="m4.2031 0v-1.8594h0.95312v-0.71875h-0.95312v-4.25h-1l-3.0469 4.3594v0.60938h3.1719v1.8594zm-3.1094-2.5781v-0.03125l1.6719-2.3125c0.1875-0.3125 0.35938-0.60938 0.5625-1.0156h0.03125c-0.015625 0.35938-0.03125 0.71875-0.03125 1.0781v2.2812z"/>
   </g>
   <g id="use88915" transform="matrix(1 0 0 -1 273.07 2320.9)" style="fill:#1c1c19">
    <path id="path102651" d="m0.3125-3.1875v0.6875h2.5938v-0.6875z"/>
   </g>
   <g id="use88917" transform="matrix(1 0 0 -1 276.35 2320.9)" style="fill:#1c1c19">
    <path id="path102655" d="m4.2031 0v-1.8594h0.95312v-0.71875h-0.95312v-4.25h-1l-3.0469 4.3594v0.60938h3.1719v1.8594zm-3.1094-2.5781v-0.03125l1.6719-2.3125c0.1875-0.3125 0.35938-0.60938 0.5625-1.0156h0.03125c-0.015625 0.35938-0.03125 0.71875-0.03125 1.0781v2.2812z"/>
   </g>
   <g id="use88921" transform="matrix(1 0 0 -1 459.39 2320.6)" style="fill:#1c1c19">
    <path id="path102659" d="m4.5469-6.8281h-3.2656l-0.4375 3.2812c0.25-0.03125 0.54688-0.078125 0.9375-0.078125 1.375 0 1.9531 0.625 1.9688 1.5156 0 0.90625-0.75 1.4844-1.625 1.4844-0.60938 0-1.1719-0.21875-1.4531-0.39062l-0.23438 0.71875c0.32812 0.20312 0.95312 0.40625 1.7031 0.40625 1.4844 0 2.5469-0.98438 2.5469-2.3281 0-0.85938-0.45312-1.4531-0.98438-1.75-0.42188-0.25-0.9375-0.375-1.4688-0.375-0.25 0-0.39062 0.03125-0.54688 0.046875l0.25-1.75h2.6094z"/>
   </g>
   <g id="use88925" transform="matrix(1 0 0 -1 347 2430.6)" style="fill:#1c1c19">
    <path id="path102663" d="m4.5469-6.8281h-3.2656l-0.4375 3.2812c0.25-0.03125 0.54688-0.078125 0.9375-0.078125 1.375 0 1.9531 0.625 1.9688 1.5156 0 0.90625-0.75 1.4844-1.625 1.4844-0.60938 0-1.1719-0.21875-1.4531-0.39062l-0.23438 0.71875c0.32812 0.20312 0.95312 0.40625 1.7031 0.40625 1.4844 0 2.5469-0.98438 2.5469-2.3281 0-0.85938-0.45312-1.4531-0.98438-1.75-0.42188-0.25-0.9375-0.375-1.4688-0.375-0.25 0-0.39062 0.03125-0.54688 0.046875l0.25-1.75h2.6094z"/>
   </g>
   <g id="use88929" transform="matrix(1 0 0 -1 344.55 2229.1)" style="fill:#1c1c19">
    <path id="path102667" d="m0.3125-3.1875v0.6875h2.5938v-0.6875z"/>
   </g>
   <g id="use88931" transform="matrix(1 0 0 -1 347.83 2229.1)" style="fill:#1c1c19">
    <path id="path102671" d="m4.5469-6.8281h-3.2656l-0.4375 3.2812c0.25-0.03125 0.54688-0.078125 0.9375-0.078125 1.375 0 1.9531 0.625 1.9688 1.5156 0 0.90625-0.75 1.4844-1.625 1.4844-0.60938 0-1.1719-0.21875-1.4531-0.39062l-0.23438 0.71875c0.32812 0.20312 0.95312 0.40625 1.7031 0.40625 1.4844 0 2.5469-0.98438 2.5469-2.3281 0-0.85938-0.45312-1.4531-0.98438-1.75-0.42188-0.25-0.9375-0.375-1.4688-0.375-0.25 0-0.39062 0.03125-0.54688 0.046875l0.25-1.75h2.6094z"/>
   </g>
   <g id="use88935" transform="matrix(1 0 0 -1 252.64 2321)" style="fill:#1c1c19">
    <path id="path102675" d="m0.3125-3.1875v0.6875h2.5938v-0.6875z"/>
   </g>
   <g id="use88937" transform="matrix(1 0 0 -1 255.91 2321)" style="fill:#1c1c19">
    <path id="path102679" d="m4.5469-6.8281h-3.2656l-0.4375 3.2812c0.25-0.03125 0.54688-0.078125 0.9375-0.078125 1.375 0 1.9531 0.625 1.9688 1.5156 0 0.90625-0.75 1.4844-1.625 1.4844-0.60938 0-1.1719-0.21875-1.4531-0.39062l-0.23438 0.71875c0.32812 0.20312 0.95312 0.40625 1.7031 0.40625 1.4844 0 2.5469-0.98438 2.5469-2.3281 0-0.85938-0.45312-1.4531-0.98438-1.75-0.42188-0.25-0.9375-0.375-1.4688-0.375-0.25 0-0.39062 0.03125-0.54688 0.046875l0.25-1.75h2.6094z"/>
   </g>
   <path id="path88943" d="m344.56 2375.1h-45.457l-0.12889-38.781" style="fill:none;stroke-dasharray:4, 4;stroke-miterlimit:10;stroke-width:.75;stroke:#1c1c19"/>
  </g>
 </g>
</svg>
