<svg xmlns="http://www.w3.org/2000/svg" xmlns:xlink="http://www.w3.org/1999/xlink" viewBox="0 0 68 33.66"><defs><clipPath id="clip-path" transform="translate(-339.04 -1997.93)"><rect width="930" height="4943.41" style="fill:none"/></clipPath></defs><title>img_3</title><g id="Layer_2" data-name="Layer 2"><g id="Layer_1-2" data-name="Layer 1"><g style="clip-path:url(#clip-path)"><line x1="0.5" y1="17.66" x2="67.5" y2="17.66" style="fill:none;stroke:#000;stroke-linecap:square;stroke-miterlimit:10"/><path d="M345.05,2009.58l-2.29-11.45h1.64l1.41,8.32c.12.66.2,1.29.25,1.87.3-.62.62-1.25,1-1.87l4.66-8.32h1.54l-6.63,11.45Z" transform="translate(-339.04 -1997.93)"/><path d="M353,2005.9l1.46-.13a2.73,2.73,0,0,0,.21,1.41,1.88,1.88,0,0,0,1,.89,3.86,3.86,0,0,0,1.69.34,4.64,4.64,0,0,0,1.58-.25,2.88,2.88,0,0,0,1.13-.71,2,2,0,0,0,.5-1,1.34,1.34,0,0,0-.13-.94,1.77,1.77,0,0,0-.91-.68,18.84,18.84,0,0,0-1.93-.56,8.84,8.84,0,0,1-2.08-.71,2.37,2.37,0,0,1-1-1.07,2.4,2.4,0,0,1-.14-1.42,3.53,3.53,0,0,1,.8-1.62,3.88,3.88,0,0,1,1.65-1.15,6.06,6.06,0,0,1,2.18-.39,5.25,5.25,0,0,1,2.17.41,2.5,2.5,0,0,1,1.27,1.21,3.15,3.15,0,0,1,.22,1.8l-1.47.11a2,2,0,0,0-.49-1.64,2.65,2.65,0,0,0-1.89-.55,3.62,3.62,0,0,0-2.1.5,1.94,1.94,0,0,0-.86,1.21,1.13,1.13,0,0,0,.26,1,4.92,4.92,0,0,0,2.13.82,13,13,0,0,1,2.4.73,2.37,2.37,0,0,1,1.43,2.79,3.84,3.84,0,0,1-.85,1.73,4.48,4.48,0,0,1-1.74,1.25,5.81,5.81,0,0,1-2.29.45,6,6,0,0,1-2.52-.45,2.79,2.79,0,0,1-1.39-1.36A3.45,3.45,0,0,1,353,2005.9Z" transform="translate(-339.04 -1997.93)"/><path d="M363,2012.76l2.15-11.48h1.28l-.2,1.08a4.15,4.15,0,0,1,1.2-.95,3.18,3.18,0,0,1,1.44-.32,2.83,2.83,0,0,1,1.77.55,2.59,2.59,0,0,1,.94,1.54,5.38,5.38,0,0,1,0,2.19,6.28,6.28,0,0,1-.88,2.29,4.47,4.47,0,0,1-1.62,1.56,4,4,0,0,1-1.94.55,2.27,2.27,0,0,1-1.2-.3,2.17,2.17,0,0,1-.78-.75l-.76,4Zm2.63-7.28a3.23,3.23,0,0,0,.21,2.36,1.62,1.62,0,0,0,1.43.77,2.47,2.47,0,0,0,1.75-.79,4.56,4.56,0,0,0,1.13-2.46,3.3,3.3,0,0,0-.21-2.38,1.58,1.58,0,0,0-1.41-.78,2.51,2.51,0,0,0-1.75.84A4.54,4.54,0,0,0,365.63,2005.48Z" transform="translate(-339.04 -1997.93)"/><path d="M372.59,2009.58l2.14-11.45h1.41l-.77,4.1a3.82,3.82,0,0,1,2.7-1.14,3,3,0,0,1,1.53.37,1.63,1.63,0,0,1,.79,1,4.6,4.6,0,0,1-.06,1.86l-1,5.26h-1.4l1-5.26a1.87,1.87,0,0,0-.17-1.53,1.38,1.38,0,0,0-1.2-.49,2.52,2.52,0,0,0-1.23.33,2.38,2.38,0,0,0-.95.88,4.68,4.68,0,0,0-.53,1.53l-.85,4.54Z" transform="translate(-339.04 -1997.93)"/><path d="M387.76,2006.91l1.42.18a4.57,4.57,0,0,1-1.64,2,4.45,4.45,0,0,1-2.51.71,3.18,3.18,0,0,1-2.68-1.12,3.85,3.85,0,0,1-.47-3.15,5.56,5.56,0,0,1,1.68-3.25,4.41,4.41,0,0,1,3-1.16,2.9,2.9,0,0,1,2.5,1.14,3.91,3.91,0,0,1,.46,3.18,3.8,3.8,0,0,1-.08.38h-6.18a2.72,2.72,0,0,0,.38,2.09,1.88,1.88,0,0,0,1.6.73,2.49,2.49,0,0,0,1.39-.41A3.43,3.43,0,0,0,387.76,2006.91Zm-4.19-2.28h4.63a2.51,2.51,0,0,0-.23-1.57,1.77,1.77,0,0,0-1.59-.81,2.67,2.67,0,0,0-1.75.65A3.19,3.19,0,0,0,383.57,2004.63Z" transform="translate(-339.04 -1997.93)"/><path d="M390.56,2009.58l1.56-8.3h1.26l-.23,1.26a4.27,4.27,0,0,1,1.11-1.16,1.81,1.81,0,0,1,.95-.29,2.34,2.34,0,0,1,1.36.46l-.73,1.3a1.73,1.73,0,0,0-1-.3,1.59,1.59,0,0,0-.88.27,2.09,2.09,0,0,0-.67.77,6.2,6.2,0,0,0-.54,1.64l-.81,4.35Z" transform="translate(-339.04 -1997.93)"/><path d="M401.77,2006.91l1.42.18a4.57,4.57,0,0,1-1.64,2,4.43,4.43,0,0,1-2.51.71,3.16,3.16,0,0,1-2.67-1.12,3.84,3.84,0,0,1-.48-3.15,5.52,5.52,0,0,1,1.69-3.25,4.37,4.37,0,0,1,3-1.16,2.93,2.93,0,0,1,2.51,1.14,4,4,0,0,1,.45,3.18,3.8,3.8,0,0,1-.08.38h-6.18a2.72,2.72,0,0,0,.38,2.09,1.88,1.88,0,0,0,1.6.73,2.49,2.49,0,0,0,1.39-.41A3.43,3.43,0,0,0,401.77,2006.91Zm-4.19-2.28h4.63a2.51,2.51,0,0,0-.23-1.57,1.77,1.77,0,0,0-1.59-.81,2.67,2.67,0,0,0-1.75.65A3.19,3.19,0,0,0,397.58,2004.63Z" transform="translate(-339.04 -1997.93)"/></g><path d="M376.6,2030.24v1.35H369a2.52,2.52,0,0,1,.16-1,5.07,5.07,0,0,1,.93-1.52,13.93,13.93,0,0,1,1.84-1.73,15.64,15.64,0,0,0,2.52-2.43,2.9,2.9,0,0,0,.66-1.69,1.87,1.87,0,0,0-.6-1.41,2.42,2.42,0,0,0-3.18,0,2.28,2.28,0,0,0-.62,1.69l-1.45-.15a3.54,3.54,0,0,1,1.12-2.46,3.79,3.79,0,0,1,2.6-.85,3.67,3.67,0,0,1,2.61.91,3,3,0,0,1,1,2.27,3.37,3.37,0,0,1-.28,1.35,5.47,5.47,0,0,1-.93,1.4,24.23,24.23,0,0,1-2.17,2c-.84.7-1.39,1.19-1.63,1.44a4.46,4.46,0,0,0-.59.76Z" transform="translate(-339.04 -1997.93)"/></g></g></svg>