<svg id="svg103435" version="1.1" viewBox="0 0 143.16 235.28" xmlns="http://www.w3.org/2000/svg">
 <title id="title104355">img_83</title>
 <g id="layer1" transform="translate(-31.231 -1.7984)">
  <path id="path86059" d="m50.908 13.623h86.012" style="fill:none;stroke-linecap:square;stroke-miterlimit:10;stroke-width:.40287;stroke:#000"/>
  <g id="g86081" transform="matrix(.35278 0 0 .35278 .62303 -2242.2)">
   <g id="use86061" transform="translate(144.12 6384.9)">
    <path id="path102587" d="m0.79688-5.4375v-2.2344h6.8438v2.2344z"/>
   </g>
   <g id="use86063" transform="translate(152.55 6384.9)">
    <path id="path102591" d="m9.4219 0h-2.2188v-14.172c-0.54297 0.51172-1.2461 1.0234-2.1094 1.5312-0.86719 0.51172-1.6484 0.89844-2.3438 1.1562v-2.1562c1.25-0.58203 2.3359-1.2891 3.2656-2.125 0.92578-0.83203 1.582-1.6406 1.9688-2.4219h1.4375z"/>
   </g>
   <g id="use86065" transform="translate(166.62 6384.9)">
    <path id="path102595" d="m12.734-2.1406v2.1406h-11.969c-0.023437-0.53125 0.066406-1.0469 0.26562-1.5469 0.30078-0.8125 0.78516-1.6133 1.4531-2.4062 0.67578-0.78906 1.6445-1.7031 2.9062-2.7344 1.9688-1.6133 3.2969-2.8906 3.9844-3.8281 0.69531-0.94531 1.0469-1.8438 1.0469-2.6875 0-0.88281-0.32031-1.6289-0.95312-2.2344-0.625-0.60156-1.4453-0.90625-2.4531-0.90625-1.0742 0-1.9336 0.32422-2.5781 0.96875-0.63672 0.63672-0.96094 1.5273-0.96875 2.6719l-2.2812-0.23438c0.15625-1.707 0.74219-3.0078 1.7656-3.9062 1.0195-0.89453 2.3906-1.3438 4.1094-1.3438 1.7383 0 3.1133 0.48438 4.125 1.4531 1.0078 0.96094 1.5156 2.1523 1.5156 3.5781 0 0.73047-0.14844 1.4453-0.4375 2.1406-0.29297 0.69922-0.78125 1.4375-1.4688 2.2188-0.6875 0.77344-1.8359 1.8281-3.4375 3.1719-1.3359 1.125-2.1953 1.8906-2.5781 2.2969-0.375 0.39844-0.68359 0.79297-0.92188 1.1875z"/>
   </g>
   <g id="use86067" transform="translate(180.69 6384.9)"></g>
   <g id="use86069" transform="translate(187.72 6384.9)">
    <path id="path102603" d="m5.8906-3.2188v-4.9688h-4.9219v-2.0625h4.9219v-4.9375h2.0938v4.9375h4.9375v2.0625h-4.9375v4.9688zm7.0312 3.2188h-11.953v-2.0781h11.953z"/>
   </g>
   <g id="use86071" transform="translate(201.61 6384.9)"></g>
   <g id="use86073" transform="translate(208.65 6384.9)">
    <path id="path102611" d="m12.969-23.078h0.92188l-3.8594 24.047-6.125-12.609-2.4531 1.1094-0.42188-0.78125 3.7188-1.8594 5.0156 10.156z"/>
   </g>
   <g id="use86075" transform="translate(222.54 6384.9)"></g>
   <g id="use86077" transform="translate(229.57 6384.9)">
    <path id="path102619" d="m9.4219 0h-2.2188v-14.172c-0.54297 0.51172-1.2461 1.0234-2.1094 1.5312-0.86719 0.51172-1.6484 0.89844-2.3438 1.1562v-2.1562c1.25-0.58203 2.3359-1.2891 3.2656-2.125 0.92578-0.83203 1.582-1.6406 1.9688-2.4219h1.4375z"/>
   </g>
   <g id="use86079" transform="translate(243.64 6384.9)">
    <path id="path102623" d="m12.734-2.1406v2.1406h-11.969c-0.023437-0.53125 0.066406-1.0469 0.26562-1.5469 0.30078-0.8125 0.78516-1.6133 1.4531-2.4062 0.67578-0.78906 1.6445-1.7031 2.9062-2.7344 1.9688-1.6133 3.2969-2.8906 3.9844-3.8281 0.69531-0.94531 1.0469-1.8438 1.0469-2.6875 0-0.88281-0.32031-1.6289-0.95312-2.2344-0.625-0.60156-1.4453-0.90625-2.4531-0.90625-1.0742 0-1.9336 0.32422-2.5781 0.96875-0.63672 0.63672-0.96094 1.5273-0.96875 2.6719l-2.2812-0.23438c0.15625-1.707 0.74219-3.0078 1.7656-3.9062 1.0195-0.89453 2.3906-1.3438 4.1094-1.3438 1.7383 0 3.1133 0.48438 4.125 1.4531 1.0078 0.96094 1.5156 2.1523 1.5156 3.5781 0 0.73047-0.14844 1.4453-0.4375 2.1406-0.29297 0.69922-0.78125 1.4375-1.4688 2.2188-0.6875 0.77344-1.8359 1.8281-3.4375 3.1719-1.3359 1.125-2.1953 1.8906-2.5781 2.2969-0.375 0.39844-0.68359 0.79297-0.92188 1.1875z"/>
   </g>
  </g>
  <g id="g86087" transform="matrix(.35278 0 0 .35278 .62303 -2242.2)">
   <g id="use86083" transform="translate(257.71 6376.5)">
    <path id="path102627" d="m7.4219-1.25v1.25h-6.9688c-0.011719-0.3125 0.035156-0.61328 0.14062-0.90625 0.17578-0.46875 0.45703-0.92969 0.84375-1.3906 0.39453-0.46875 0.96094-1.0039 1.7031-1.6094 1.1562-0.9375 1.9297-1.6797 2.3281-2.2344 0.40625-0.55078 0.60938-1.0703 0.60938-1.5625 0-0.50781-0.18359-0.94141-0.54688-1.2969-0.36719-0.35156-0.84375-0.53125-1.4375-0.53125-0.625 0-1.125 0.1875-1.5 0.5625s-0.5625 0.89844-0.5625 1.5625l-1.3438-0.14062c0.09375-0.98828 0.4375-1.7422 1.0312-2.2656 0.59375-0.53125 1.3945-0.79688 2.4062-0.79688 1.0078 0 1.8047 0.28125 2.3906 0.84375 0.59375 0.5625 0.89062 1.2617 0.89062 2.0938 0 0.42969-0.089844 0.84375-0.26562 1.25-0.16797 0.40625-0.45312 0.83984-0.85938 1.2969-0.39844 0.44922-1.0586 1.0625-1.9844 1.8438-0.78125 0.65625-1.2812 1.1055-1.5 1.3438-0.21875 0.23047-0.40234 0.46094-0.54688 0.6875z"/>
   </g>
   <g id="use86085" transform="translate(265.91 6376.5)"></g>
  </g>
  <g id="g86109" transform="matrix(.35278 0 0 .35278 .62303 -2242.2)">
   <g id="use86089" transform="translate(270.01 6384.9)">
    <path id="path102635" d="m0.79688-5.4375v-2.2344h6.8438v2.2344z"/>
   </g>
   <g id="use86091" transform="translate(278.44 6384.9)"></g>
   <g id="use86093" transform="translate(285.47 6384.9)">
    <path id="path102643" d="m8.1719 0v-4.3281h-7.8438v-2.0469l8.25-11.734h1.8281v11.734h2.4375v2.0469h-2.4375v4.3281zm0-6.375v-8.1562l-5.6719 8.1562z"/>
   </g>
   <g id="use86095" transform="translate(299.54 6384.9)">
    <path id="path102647" d="m5.9219 5.3281c-1.2305-1.5547-2.2734-3.3672-3.125-5.4375-0.84375-2.0703-1.2656-4.2227-1.2656-6.4531 0-1.957 0.31641-3.832 0.95312-5.625 0.73828-2.082 1.8828-4.1602 3.4375-6.2344h1.5938c-1 1.7188-1.6641 2.9453-1.9844 3.6719-0.5 1.1367-0.89844 2.3242-1.1875 3.5625-0.35547 1.543-0.53125 3.0898-0.53125 4.6406 0 3.9609 1.2344 7.9141 3.7031 11.875z"/>
   </g>
   <g id="use86097" transform="translate(307.97 6384.9)">
    <path id="path102651" d="m9.4219 0h-2.2188v-14.172c-0.54297 0.51172-1.2461 1.0234-2.1094 1.5312-0.86719 0.51172-1.6484 0.89844-2.3438 1.1562v-2.1562c1.25-0.58203 2.3359-1.2891 3.2656-2.125 0.92578-0.83203 1.582-1.6406 1.9688-2.4219h1.4375z"/>
   </g>
   <g id="use86099" transform="translate(322.04 6384.9)">
    <path id="path102655" d="m3.125 5.3281h-1.5938c2.457-3.9609 3.6875-7.9141 3.6875-11.875 0-1.5508-0.17969-3.0859-0.53125-4.6094-0.27344-1.2266-0.66406-2.4141-1.1719-3.5625-0.32422-0.73828-0.98438-1.9727-1.9844-3.7031h1.5938c1.5508 2.0742 2.6953 4.1523 3.4375 6.2344 0.63281 1.793 0.95312 3.668 0.95312 5.625 0 2.2305-0.42969 4.3828-1.2812 6.4531-0.85547 2.0703-1.8906 3.8828-3.1094 5.4375z"/>
   </g>
   <g id="use86101" transform="translate(330.46 6384.9)">
    <path id="path102659" d="m5.9219 5.3281c-1.2305-1.5547-2.2734-3.3672-3.125-5.4375-0.84375-2.0703-1.2656-4.2227-1.2656-6.4531 0-1.957 0.31641-3.832 0.95312-5.625 0.73828-2.082 1.8828-4.1602 3.4375-6.2344h1.5938c-1 1.7188-1.6641 2.9453-1.9844 3.6719-0.5 1.1367-0.89844 2.3242-1.1875 3.5625-0.35547 1.543-0.53125 3.0898-0.53125 4.6406 0 3.9609 1.2344 7.9141 3.7031 11.875z"/>
   </g>
   <g id="use86103" transform="translate(338.89 6384.9)">
    <path id="path102663" d="m1.0625-4.7812 2.2188-0.29688c0.25781 1.2617 0.69531 2.1719 1.3125 2.7344 0.61328 0.55469 1.3594 0.82812 2.2344 0.82812 1.0508 0 1.9375-0.35938 2.6562-1.0781 0.71875-0.72656 1.0781-1.6289 1.0781-2.7031 0-1.0195-0.33594-1.8594-1-2.5156-0.66797-0.66406-1.5156-1-2.5469-1-0.41797 0-0.9375 0.078125-1.5625 0.23438l0.23438-1.9531c0.15625 0.02344 0.27344 0.03125 0.35938 0.03125 0.94531 0 1.8008-0.24219 2.5625-0.73438 0.75781-0.5 1.1406-1.2656 1.1406-2.2969 0-0.8125-0.27734-1.4844-0.82812-2.0156-0.55469-0.53906-1.2656-0.8125-2.1406-0.8125-0.86719 0-1.5898 0.27734-2.1719 0.82812-0.57422 0.54297-0.9375 1.3555-1.0938 2.4375l-2.2344-0.39062c0.26953-1.4883 0.88281-2.6445 1.8438-3.4688 0.96875-0.82031 2.1719-1.2344 3.6094-1.2344 0.98828 0 1.8945 0.21484 2.7188 0.64062 0.83203 0.42969 1.4688 1.0078 1.9062 1.7344 0.44531 0.73047 0.67188 1.5117 0.67188 2.3438 0 0.78125-0.21484 1.4961-0.64062 2.1406-0.41797 0.63672-1.0391 1.1406-1.8594 1.5156 1.0703 0.25 1.9062 0.76562 2.5 1.5469 0.59375 0.77344 0.89062 1.7461 0.89062 2.9219 0 1.5742-0.57812 2.9141-1.7344 4.0156-1.1484 1.1055-2.6055 1.6562-4.375 1.6562-1.5859 0-2.9023-0.47266-3.9531-1.4219-1.0547-0.94531-1.6523-2.1758-1.7969-3.6875z"/>
   </g>
   <g id="use86105" transform="translate(352.96 6384.9)">
    <path id="path102667" d="m8.1719 0v-4.3281h-7.8438v-2.0469l8.25-11.734h1.8281v11.734h2.4375v2.0469h-2.4375v4.3281zm0-6.375v-8.1562l-5.6719 8.1562z"/>
   </g>
   <g id="use86107" transform="translate(367.03 6384.9)">
    <path id="path102671" d="m3.125 5.3281h-1.5938c2.457-3.9609 3.6875-7.9141 3.6875-11.875 0-1.5508-0.17969-3.0859-0.53125-4.6094-0.27344-1.2266-0.66406-2.4141-1.1719-3.5625-0.32422-0.73828-0.98438-1.9727-1.9844-3.7031h1.5938c1.5508 2.0742 2.6953 4.1523 3.4375 6.2344 0.63281 1.793 0.95312 3.668 0.95312 5.625 0 2.2305-0.42969 4.3828-1.2812 6.4531-0.85547 2.0703-1.8906 3.8828-3.1094 5.4375z"/>
   </g>
  </g>
  <g id="g86119" transform="matrix(.35278 0 0 .35278 .62303 -2242.2)">
   <g id="use86111" transform="translate(235.27 6419.7)">
    <path id="path102675" d="m12.734-2.1406v2.1406h-11.969c-0.023437-0.53125 0.066406-1.0469 0.26562-1.5469 0.30078-0.8125 0.78516-1.6133 1.4531-2.4062 0.67578-0.78906 1.6445-1.7031 2.9062-2.7344 1.9688-1.6133 3.2969-2.8906 3.9844-3.8281 0.69531-0.94531 1.0469-1.8438 1.0469-2.6875 0-0.88281-0.32031-1.6289-0.95312-2.2344-0.625-0.60156-1.4453-0.90625-2.4531-0.90625-1.0742 0-1.9336 0.32422-2.5781 0.96875-0.63672 0.63672-0.96094 1.5273-0.96875 2.6719l-2.2812-0.23438c0.15625-1.707 0.74219-3.0078 1.7656-3.9062 1.0195-0.89453 2.3906-1.3438 4.1094-1.3438 1.7383 0 3.1133 0.48438 4.125 1.4531 1.0078 0.96094 1.5156 2.1523 1.5156 3.5781 0 0.73047-0.14844 1.4453-0.4375 2.1406-0.29297 0.69922-0.78125 1.4375-1.4688 2.2188-0.6875 0.77344-1.8359 1.8281-3.4375 3.1719-1.3359 1.125-2.1953 1.8906-2.5781 2.2969-0.375 0.39844-0.68359 0.79297-0.92188 1.1875z"/>
   </g>
   <g id="use86113" transform="translate(249.34 6419.7)">
    <path id="path102679" d="m5.9219 5.3281c-1.2305-1.5547-2.2734-3.3672-3.125-5.4375-0.84375-2.0703-1.2656-4.2227-1.2656-6.4531 0-1.957 0.31641-3.832 0.95312-5.625 0.73828-2.082 1.8828-4.1602 3.4375-6.2344h1.5938c-1 1.7188-1.6641 2.9453-1.9844 3.6719-0.5 1.1367-0.89844 2.3242-1.1875 3.5625-0.35547 1.543-0.53125 3.0898-0.53125 4.6406 0 3.9609 1.2344 7.9141 3.7031 11.875z"/>
   </g>
   <g id="use86115" transform="translate(257.76 6419.7)">
    <path id="path102683" d="m9.4219 0h-2.2188v-14.172c-0.54297 0.51172-1.2461 1.0234-2.1094 1.5312-0.86719 0.51172-1.6484 0.89844-2.3438 1.1562v-2.1562c1.25-0.58203 2.3359-1.2891 3.2656-2.125 0.92578-0.83203 1.582-1.6406 1.9688-2.4219h1.4375z"/>
   </g>
   <g id="use86117" transform="translate(271.83 6419.7)">
    <path id="path102687" d="m3.125 5.3281h-1.5938c2.457-3.9609 3.6875-7.9141 3.6875-11.875 0-1.5508-0.17969-3.0859-0.53125-4.6094-0.27344-1.2266-0.66406-2.4141-1.1719-3.5625-0.32422-0.73828-0.98438-1.9727-1.9844-3.7031h1.5938c1.5508 2.0742 2.6953 4.1523 3.4375 6.2344 0.63281 1.793 0.95312 3.668 0.95312 5.625 0 2.2305-0.42969 4.3828-1.2812 6.4531-0.85547 2.0703-1.8906 3.8828-3.1094 5.4375z"/>
   </g>
  </g>
  <g id="g86129" transform="matrix(.35278 0 0 .35278 .62303 -2242.2)" style="fill:#1c1c19">
   <g id="use86121" transform="translate(88.696 6402.3)">
    <path id="path102691" d="m3.0469-13.781 3.4844 6.75-6.2969 7.0312h2.8125l2.6094-3.1094c0.67188-0.82812 1.3125-1.5625 1.9219-2.3906h0.0625c0.32812 0.82812 0.65625 1.5938 1.0469 2.3906l1.4844 3.1094h2.9062l-3.5938-7.125 6.0156-6.6562h-2.75l-2.5156 2.9219c-0.60938 0.75-1.1875 1.4531-1.8125 2.2812h-0.09375c-0.3125-0.76562-0.60938-1.4844-1-2.25l-1.4531-2.9531z"/>
   </g>
   <g id="use86123" transform="translate(102.26 6402.3)"></g>
   <g id="use86125" transform="translate(108.55 6402.3)">
    <path id="path102699" d="m17.906-9.5938 0.32812-1.7188h-14.953l-0.32812 1.7188zm-1.0469 5.5781 0.32812-1.7031h-14.953l-0.32812 1.7031z"/>
   </g>
   <g id="use86127" transform="translate(125.96 6402.3)"></g>
  </g>
  <path id="path86131" d="m78.839 1.9748h53.764" style="fill:none;stroke-miterlimit:10;stroke-width:.35278;stroke:#000"/>
  <path id="path86359" d="m79.396 41.775h42.109" style="fill:none;stroke-miterlimit:10;stroke-width:.35278;stroke:#000"/>
  <path id="path86361" d="m51.482 53.264h70.812" style="fill:none;stroke-linecap:square;stroke-miterlimit:10;stroke-width:.40287;stroke:#000"/>
  <g id="g86397" transform="matrix(.35278 0 0 .35278 .62303 -2242.2)">
   <g id="use86363" transform="translate(145.75 6497.2)">
    <path id="path102707" d="m0.79688-5.4375v-2.2344h6.8438v2.2344z"/>
   </g>
   <g id="use86365" transform="translate(154.18 6497.2)">
    <path id="path102711" d="m9.4219 0h-2.2188v-14.172c-0.54297 0.51172-1.2461 1.0234-2.1094 1.5312-0.86719 0.51172-1.6484 0.89844-2.3438 1.1562v-2.1562c1.25-0.58203 2.3359-1.2891 3.2656-2.125 0.92578-0.83203 1.582-1.6406 1.9688-2.4219h1.4375z"/>
   </g>
   <g id="use86367" transform="translate(168.25 6497.2)">
    <path id="path102715" d="m12.734-2.1406v2.1406h-11.969c-0.023437-0.53125 0.066406-1.0469 0.26562-1.5469 0.30078-0.8125 0.78516-1.6133 1.4531-2.4062 0.67578-0.78906 1.6445-1.7031 2.9062-2.7344 1.9688-1.6133 3.2969-2.8906 3.9844-3.8281 0.69531-0.94531 1.0469-1.8438 1.0469-2.6875 0-0.88281-0.32031-1.6289-0.95312-2.2344-0.625-0.60156-1.4453-0.90625-2.4531-0.90625-1.0742 0-1.9336 0.32422-2.5781 0.96875-0.63672 0.63672-0.96094 1.5273-0.96875 2.6719l-2.2812-0.23438c0.15625-1.707 0.74219-3.0078 1.7656-3.9062 1.0195-0.89453 2.3906-1.3438 4.1094-1.3438 1.7383 0 3.1133 0.48438 4.125 1.4531 1.0078 0.96094 1.5156 2.1523 1.5156 3.5781 0 0.73047-0.14844 1.4453-0.4375 2.1406-0.29297 0.69922-0.78125 1.4375-1.4688 2.2188-0.6875 0.77344-1.8359 1.8281-3.4375 3.1719-1.3359 1.125-2.1953 1.8906-2.5781 2.2969-0.375 0.39844-0.68359 0.79297-0.92188 1.1875z"/>
   </g>
   <g id="use86369" transform="translate(182.32 6497.2)"></g>
   <g id="use86371" transform="translate(189.35 6497.2)">
    <path id="path102723" d="m5.8906-3.2188v-4.9688h-4.9219v-2.0625h4.9219v-4.9375h2.0938v4.9375h4.9375v2.0625h-4.9375v4.9688zm7.0312 3.2188h-11.953v-2.0781h11.953z"/>
   </g>
   <g id="use86373" transform="translate(203.24 6497.2)"></g>
   <g id="use86375" transform="translate(210.28 6497.2)">
    <path id="path102731" d="m12.969-23.078h0.92188l-3.8594 24.047-6.125-12.609-2.4531 1.1094-0.42188-0.78125 3.7188-1.8594 5.0156 10.156z"/>
   </g>
   <g id="use86377" transform="translate(224.17 6497.2)"></g>
   <g id="use86379" transform="translate(231.2 6497.2)">
    <path id="path102739" d="m9.4219 0h-2.2188v-14.172c-0.54297 0.51172-1.2461 1.0234-2.1094 1.5312-0.86719 0.51172-1.6484 0.89844-2.3438 1.1562v-2.1562c1.25-0.58203 2.3359-1.2891 3.2656-2.125 0.92578-0.83203 1.582-1.6406 1.9688-2.4219h1.4375z"/>
   </g>
   <g id="use86381" transform="translate(245.27 6497.2)">
    <path id="path102743" d="m8.1719 0v-4.3281h-7.8438v-2.0469l8.25-11.734h1.8281v11.734h2.4375v2.0469h-2.4375v4.3281zm0-6.375v-8.1562l-5.6719 8.1562z"/>
   </g>
   <g id="use86383" transform="translate(259.34 6497.2)">
    <path id="path102747" d="m8.1719 0v-4.3281h-7.8438v-2.0469l8.25-11.734h1.8281v11.734h2.4375v2.0469h-2.4375v4.3281zm0-6.375v-8.1562l-5.6719 8.1562z"/>
   </g>
   <g id="use86385" transform="translate(273.41 6497.2)"></g>
   <g id="use86387" transform="translate(280.44 6497.2)">
    <path id="path102755" d="m0.79688-5.4375v-2.2344h6.8438v2.2344z"/>
   </g>
   <g id="use86389" transform="translate(288.87 6497.2)"></g>
   <g id="use86391" transform="translate(295.91 6497.2)">
    <path id="path102763" d="m9.4219 0h-2.2188v-14.172c-0.54297 0.51172-1.2461 1.0234-2.1094 1.5312-0.86719 0.51172-1.6484 0.89844-2.3438 1.1562v-2.1562c1.25-0.58203 2.3359-1.2891 3.2656-2.125 0.92578-0.83203 1.582-1.6406 1.9688-2.4219h1.4375z"/>
   </g>
   <g id="use86393" transform="translate(309.97 6497.2)">
    <path id="path102767" d="m1.0625-4.7812 2.2188-0.29688c0.25781 1.2617 0.69531 2.1719 1.3125 2.7344 0.61328 0.55469 1.3594 0.82812 2.2344 0.82812 1.0508 0 1.9375-0.35938 2.6562-1.0781 0.71875-0.72656 1.0781-1.6289 1.0781-2.7031 0-1.0195-0.33594-1.8594-1-2.5156-0.66797-0.66406-1.5156-1-2.5469-1-0.41797 0-0.9375 0.078125-1.5625 0.23438l0.23438-1.9531c0.15625 0.02344 0.27344 0.03125 0.35938 0.03125 0.94531 0 1.8008-0.24219 2.5625-0.73438 0.75781-0.5 1.1406-1.2656 1.1406-2.2969 0-0.8125-0.27734-1.4844-0.82812-2.0156-0.55469-0.53906-1.2656-0.8125-2.1406-0.8125-0.86719 0-1.5898 0.27734-2.1719 0.82812-0.57422 0.54297-0.9375 1.3555-1.0938 2.4375l-2.2344-0.39062c0.26953-1.4883 0.88281-2.6445 1.8438-3.4688 0.96875-0.82031 2.1719-1.2344 3.6094-1.2344 0.98828 0 1.8945 0.21484 2.7188 0.64062 0.83203 0.42969 1.4688 1.0078 1.9062 1.7344 0.44531 0.73047 0.67188 1.5117 0.67188 2.3438 0 0.78125-0.21484 1.4961-0.64062 2.1406-0.41797 0.63672-1.0391 1.1406-1.8594 1.5156 1.0703 0.25 1.9062 0.76562 2.5 1.5469 0.59375 0.77344 0.89062 1.7461 0.89062 2.9219 0 1.5742-0.57812 2.9141-1.7344 4.0156-1.1484 1.1055-2.6055 1.6562-4.375 1.6562-1.5859 0-2.9023-0.47266-3.9531-1.4219-1.0547-0.94531-1.6523-2.1758-1.7969-3.6875z"/>
   </g>
   <g id="use86395" transform="translate(324.04 6497.2)">
    <path id="path102771" d="m12.594-13.672-2.2188 0.17188c-0.19922-0.875-0.48047-1.5078-0.84375-1.9062-0.59375-0.63281-1.3359-0.95312-2.2188-0.95312-0.71094 0-1.3281 0.19922-1.8594 0.59375-0.71094 0.51172-1.2656 1.2578-1.6719 2.2344-0.39844 0.98047-0.60547 2.375-0.625 4.1875 0.53906-0.8125 1.1953-1.4141 1.9688-1.8125 0.76953-0.39453 1.582-0.59375 2.4375-0.59375 1.4766 0 2.7383 0.54688 3.7812 1.6406 1.0391 1.0938 1.5625 2.5078 1.5625 4.2344 0 1.1367-0.24609 2.1953-0.73438 3.1719-0.49219 0.96875-1.1641 1.7148-2.0156 2.2344-0.85547 0.51953-1.8281 0.78125-2.9219 0.78125-1.8555 0-3.3672-0.67969-4.5312-2.0469-1.168-1.3633-1.75-3.6094-1.75-6.7344 0-3.5 0.64453-6.0469 1.9375-7.6406 1.125-1.3828 2.6445-2.0781 4.5625-2.0781 1.4141 0 2.5781 0.40234 3.4844 1.2031 0.91406 0.80469 1.4688 1.9062 1.6562 3.3125zm-9.0781 7.7969c0 0.77344 0.16016 1.5078 0.48438 2.2031 0.32031 0.69922 0.77344 1.2344 1.3594 1.6094 0.58203 0.36719 1.1953 0.54688 1.8438 0.54688 0.9375 0 1.7422-0.37891 2.4219-1.1406 0.67578-0.75781 1.0156-1.7891 1.0156-3.0938 0-1.25-0.33594-2.2344-1-2.9531-0.66797-0.71875-1.5117-1.0781-2.5312-1.0781-1 0-1.8516 0.35938-2.5469 1.0781-0.69922 0.71875-1.0469 1.6641-1.0469 2.8281z"/>
   </g>
  </g>
  <g id="g86401" transform="matrix(.35278 0 0 .35278 .62303 -2242.2)">
   <g id="use86399" transform="translate(242.13 6532)">
    <path id="path102775" d="m12.734-2.1406v2.1406h-11.969c-0.023437-0.53125 0.066406-1.0469 0.26562-1.5469 0.30078-0.8125 0.78516-1.6133 1.4531-2.4062 0.67578-0.78906 1.6445-1.7031 2.9062-2.7344 1.9688-1.6133 3.2969-2.8906 3.9844-3.8281 0.69531-0.94531 1.0469-1.8438 1.0469-2.6875 0-0.88281-0.32031-1.6289-0.95312-2.2344-0.625-0.60156-1.4453-0.90625-2.4531-0.90625-1.0742 0-1.9336 0.32422-2.5781 0.96875-0.63672 0.63672-0.96094 1.5273-0.96875 2.6719l-2.2812-0.23438c0.15625-1.707 0.74219-3.0078 1.7656-3.9062 1.0195-0.89453 2.3906-1.3438 4.1094-1.3438 1.7383 0 3.1133 0.48438 4.125 1.4531 1.0078 0.96094 1.5156 2.1523 1.5156 3.5781 0 0.73047-0.14844 1.4453-0.4375 2.1406-0.29297 0.69922-0.78125 1.4375-1.4688 2.2188-0.6875 0.77344-1.8359 1.8281-3.4375 3.1719-1.3359 1.125-2.1953 1.8906-2.5781 2.2969-0.375 0.39844-0.68359 0.79297-0.92188 1.1875z"/>
   </g>
  </g>
  <g id="g86411" transform="matrix(.35278 0 0 .35278 .62303 -2242.2)" style="fill:#1c1c19">
   <g id="use86403" transform="translate(90.324 6514.6)">
    <path id="path102779" d="m3.0469-13.781 3.4844 6.75-6.2969 7.0312h2.8125l2.6094-3.1094c0.67188-0.82812 1.3125-1.5625 1.9219-2.3906h0.0625c0.32812 0.82812 0.65625 1.5938 1.0469 2.3906l1.4844 3.1094h2.9062l-3.5938-7.125 6.0156-6.6562h-2.75l-2.5156 2.9219c-0.60938 0.75-1.1875 1.4531-1.8125 2.2812h-0.09375c-0.3125-0.76562-0.60938-1.4844-1-2.25l-1.4531-2.9531z"/>
   </g>
   <g id="use86405" transform="translate(103.88 6514.6)"></g>
   <g id="use86407" transform="translate(110.17 6514.6)">
    <path id="path102787" d="m17.906-9.5938 0.32812-1.7188h-14.953l-0.32812 1.7188zm-1.0469 5.5781 0.32812-1.7031h-14.953l-0.32812 1.7031z"/>
   </g>
   <g id="use86409" transform="translate(127.59 6514.6)"></g>
  </g>
  <path id="path86537" d="m50.143 90.532h37.229" style="fill:none;stroke-linecap:square;stroke-miterlimit:10;stroke-width:.40287;stroke:#000"/>
  <g id="g86557" transform="matrix(.35278 0 0 .35278 .62303 -2242.2)">
   <g id="use86539" transform="translate(141.96 6602.9)">
    <path id="path102795" d="m0.79688-5.4375v-2.2344h6.8438v2.2344z"/>
   </g>
   <g id="use86541" transform="translate(150.38 6602.9)">
    <path id="path102799" d="m9.4219 0h-2.2188v-14.172c-0.54297 0.51172-1.2461 1.0234-2.1094 1.5312-0.86719 0.51172-1.6484 0.89844-2.3438 1.1562v-2.1562c1.25-0.58203 2.3359-1.2891 3.2656-2.125 0.92578-0.83203 1.582-1.6406 1.9688-2.4219h1.4375z"/>
   </g>
   <g id="use86543" transform="translate(164.45 6602.9)">
    <path id="path102803" d="m12.734-2.1406v2.1406h-11.969c-0.023437-0.53125 0.066406-1.0469 0.26562-1.5469 0.30078-0.8125 0.78516-1.6133 1.4531-2.4062 0.67578-0.78906 1.6445-1.7031 2.9062-2.7344 1.9688-1.6133 3.2969-2.8906 3.9844-3.8281 0.69531-0.94531 1.0469-1.8438 1.0469-2.6875 0-0.88281-0.32031-1.6289-0.95312-2.2344-0.625-0.60156-1.4453-0.90625-2.4531-0.90625-1.0742 0-1.9336 0.32422-2.5781 0.96875-0.63672 0.63672-0.96094 1.5273-0.96875 2.6719l-2.2812-0.23438c0.15625-1.707 0.74219-3.0078 1.7656-3.9062 1.0195-0.89453 2.3906-1.3438 4.1094-1.3438 1.7383 0 3.1133 0.48438 4.125 1.4531 1.0078 0.96094 1.5156 2.1523 1.5156 3.5781 0 0.73047-0.14844 1.4453-0.4375 2.1406-0.29297 0.69922-0.78125 1.4375-1.4688 2.2188-0.6875 0.77344-1.8359 1.8281-3.4375 3.1719-1.3359 1.125-2.1953 1.8906-2.5781 2.2969-0.375 0.39844-0.68359 0.79297-0.92188 1.1875z"/>
   </g>
   <g id="use86545" transform="translate(178.52 6602.9)"></g>
   <g id="use86547" transform="translate(185.55 6602.9)">
    <path id="path102811" d="m5.8906-3.2188v-4.9688h-4.9219v-2.0625h4.9219v-4.9375h2.0938v4.9375h4.9375v2.0625h-4.9375v4.9688zm7.0312 3.2188h-11.953v-2.0781h11.953z"/>
   </g>
   <g id="use86549" transform="translate(199.45 6602.9)"></g>
   <g id="use86551" transform="translate(206.48 6602.9)">
    <path id="path102819" d="m12.969-23.078h0.92188l-3.8594 24.047-6.125-12.609-2.4531 1.1094-0.42188-0.78125 3.7188-1.8594 5.0156 10.156z"/>
   </g>
   <g id="use86553" transform="translate(220.37 6602.9)"></g>
   <g id="use86555" transform="translate(227.41 6602.9)">
    <path id="path102827" d="m4.4688-9.8125c-0.91797-0.34375-1.6016-0.82812-2.0469-1.4531-0.44922-0.625-0.67188-1.375-0.67188-2.25 0-1.3125 0.47266-2.4141 1.4219-3.3125 0.94531-0.90625 2.207-1.3594 3.7812-1.3594 1.582 0 2.8516 0.46484 3.8125 1.3906 0.96875 0.91797 1.4531 2.0312 1.4531 3.3438 0 0.84375-0.22656 1.5781-0.67188 2.2031-0.4375 0.61719-1.1055 1.0938-2 1.4375 1.1133 0.35547 1.957 0.9375 2.5312 1.75 0.58203 0.80469 0.875 1.7656 0.875 2.8906 0 1.543-0.54688 2.8438-1.6406 3.9062-1.0938 1.0547-2.5391 1.5781-4.3281 1.5781-1.7812 0-3.2188-0.52344-4.3125-1.5781-1.0938-1.0625-1.6406-2.3828-1.6406-3.9688 0-1.1758 0.29688-2.1602 0.89062-2.9531 0.59375-0.80078 1.4414-1.3438 2.5469-1.625zm-0.4375-3.7812c0 0.86719 0.27344 1.5703 0.82812 2.1094 0.55078 0.54297 1.2656 0.8125 2.1406 0.8125 0.85156 0 1.5547-0.26953 2.1094-0.8125 0.55078-0.53906 0.82812-1.2031 0.82812-1.9844 0-0.8125-0.28906-1.4922-0.85938-2.0469-0.5625-0.5625-1.2617-0.84375-2.0938-0.84375-0.85547 0-1.5625 0.27734-2.125 0.82812-0.55469 0.54297-0.82812 1.1875-0.82812 1.9375zm-0.71875 8.375c0 0.625 0.14844 1.2344 0.45312 1.8281 0.30078 0.59375 0.74219 1.0586 1.3281 1.3906 0.59375 0.32422 1.2344 0.48438 1.9219 0.48438 1.0625 0 1.9375-0.33594 2.625-1.0156 0.69531-0.6875 1.0469-1.5625 1.0469-2.625s-0.35938-1.9414-1.0781-2.6406c-0.71094-0.70703-1.6016-1.0625-2.6719-1.0625-1.043 0-1.9062 0.35156-2.5938 1.0469-0.6875 0.6875-1.0312 1.5547-1.0312 2.5938z"/>
   </g>
  </g>
  <g id="g86561" transform="matrix(.35278 0 0 .35278 .62303 -2242.2)">
   <g id="use86559" transform="translate(186.85 6637.7)">
    <path id="path102831" d="m12.734-2.1406v2.1406h-11.969c-0.023437-0.53125 0.066406-1.0469 0.26562-1.5469 0.30078-0.8125 0.78516-1.6133 1.4531-2.4062 0.67578-0.78906 1.6445-1.7031 2.9062-2.7344 1.9688-1.6133 3.2969-2.8906 3.9844-3.8281 0.69531-0.94531 1.0469-1.8438 1.0469-2.6875 0-0.88281-0.32031-1.6289-0.95312-2.2344-0.625-0.60156-1.4453-0.90625-2.4531-0.90625-1.0742 0-1.9336 0.32422-2.5781 0.96875-0.63672 0.63672-0.96094 1.5273-0.96875 2.6719l-2.2812-0.23438c0.15625-1.707 0.74219-3.0078 1.7656-3.9062 1.0195-0.89453 2.3906-1.3438 4.1094-1.3438 1.7383 0 3.1133 0.48438 4.125 1.4531 1.0078 0.96094 1.5156 2.1523 1.5156 3.5781 0 0.73047-0.14844 1.4453-0.4375 2.1406-0.29297 0.69922-0.78125 1.4375-1.4688 2.2188-0.6875 0.77344-1.8359 1.8281-3.4375 3.1719-1.3359 1.125-2.1953 1.8906-2.5781 2.2969-0.375 0.39844-0.68359 0.79297-0.92188 1.1875z"/>
   </g>
  </g>
  <g id="g86571" transform="matrix(.35278 0 0 .35278 .62303 -2242.2)" style="fill:#1c1c19">
   <g id="use86563" transform="translate(86.528 6620.3)">
    <path id="path102835" d="m3.0469-13.781 3.4844 6.75-6.2969 7.0312h2.8125l2.6094-3.1094c0.67188-0.82812 1.3125-1.5625 1.9219-2.3906h0.0625c0.32812 0.82812 0.65625 1.5938 1.0469 2.3906l1.4844 3.1094h2.9062l-3.5938-7.125 6.0156-6.6562h-2.75l-2.5156 2.9219c-0.60938 0.75-1.1875 1.4531-1.8125 2.2812h-0.09375c-0.3125-0.76562-0.60938-1.4844-1-2.25l-1.4531-2.9531z"/>
   </g>
   <g id="use86565" transform="translate(100.09 6620.3)"></g>
   <g id="use86567" transform="translate(106.38 6620.3)">
    <path id="path102843" d="m17.906-9.5938 0.32812-1.7188h-14.953l-0.32812 1.7188zm-1.0469 5.5781 0.32812-1.7031h-14.953l-0.32812 1.7031z"/>
   </g>
   <g id="use86569" transform="translate(123.79 6620.3)"></g>
  </g>
  <path id="path86573" d="m78.047 78.978h9.3252" style="fill:none;stroke-miterlimit:10;stroke-width:.35278;stroke:#000"/>
  <path id="path86757" d="m50.143 127.8h43.445" style="fill:none;stroke-linecap:square;stroke-miterlimit:10;stroke-width:.40287;stroke:#000"/>
  <g id="g86779" transform="matrix(.35278 0 0 .35278 .62303 -2242.2)">
   <g id="use86759" transform="translate(141.96 6708.5)">
    <path id="path102851" d="m0.79688-5.4375v-2.2344h6.8438v2.2344z"/>
   </g>
   <g id="use86761" transform="translate(150.38 6708.5)">
    <path id="path102855" d="m9.4219 0h-2.2188v-14.172c-0.54297 0.51172-1.2461 1.0234-2.1094 1.5312-0.86719 0.51172-1.6484 0.89844-2.3438 1.1562v-2.1562c1.25-0.58203 2.3359-1.2891 3.2656-2.125 0.92578-0.83203 1.582-1.6406 1.9688-2.4219h1.4375z"/>
   </g>
   <g id="use86763" transform="translate(164.45 6708.5)">
    <path id="path102859" d="m12.734-2.1406v2.1406h-11.969c-0.023437-0.53125 0.066406-1.0469 0.26562-1.5469 0.30078-0.8125 0.78516-1.6133 1.4531-2.4062 0.67578-0.78906 1.6445-1.7031 2.9062-2.7344 1.9688-1.6133 3.2969-2.8906 3.9844-3.8281 0.69531-0.94531 1.0469-1.8438 1.0469-2.6875 0-0.88281-0.32031-1.6289-0.95312-2.2344-0.625-0.60156-1.4453-0.90625-2.4531-0.90625-1.0742 0-1.9336 0.32422-2.5781 0.96875-0.63672 0.63672-0.96094 1.5273-0.96875 2.6719l-2.2812-0.23438c0.15625-1.707 0.74219-3.0078 1.7656-3.9062 1.0195-0.89453 2.3906-1.3438 4.1094-1.3438 1.7383 0 3.1133 0.48438 4.125 1.4531 1.0078 0.96094 1.5156 2.1523 1.5156 3.5781 0 0.73047-0.14844 1.4453-0.4375 2.1406-0.29297 0.69922-0.78125 1.4375-1.4688 2.2188-0.6875 0.77344-1.8359 1.8281-3.4375 3.1719-1.3359 1.125-2.1953 1.8906-2.5781 2.2969-0.375 0.39844-0.68359 0.79297-0.92188 1.1875z"/>
   </g>
   <g id="use86765" transform="translate(178.52 6708.5)"></g>
   <g id="use86767" transform="translate(185.55 6708.5)">
    <path id="path102867" d="m5.8906-3.2188v-4.9688h-4.9219v-2.0625h4.9219v-4.9375h2.0938v4.9375h4.9375v2.0625h-4.9375v4.9688zm7.0312 3.2188h-11.953v-2.0781h11.953z"/>
   </g>
   <g id="use86769" transform="translate(199.45 6708.5)"></g>
   <g id="use86771" transform="translate(206.48 6708.5)">
    <path id="path102875" d="m12.734-2.1406v2.1406h-11.969c-0.023437-0.53125 0.066406-1.0469 0.26562-1.5469 0.30078-0.8125 0.78516-1.6133 1.4531-2.4062 0.67578-0.78906 1.6445-1.7031 2.9062-2.7344 1.9688-1.6133 3.2969-2.8906 3.9844-3.8281 0.69531-0.94531 1.0469-1.8438 1.0469-2.6875 0-0.88281-0.32031-1.6289-0.95312-2.2344-0.625-0.60156-1.4453-0.90625-2.4531-0.90625-1.0742 0-1.9336 0.32422-2.5781 0.96875-0.63672 0.63672-0.96094 1.5273-0.96875 2.6719l-2.2812-0.23438c0.15625-1.707 0.74219-3.0078 1.7656-3.9062 1.0195-0.89453 2.3906-1.3438 4.1094-1.3438 1.7383 0 3.1133 0.48438 4.125 1.4531 1.0078 0.96094 1.5156 2.1523 1.5156 3.5781 0 0.73047-0.14844 1.4453-0.4375 2.1406-0.29297 0.69922-0.78125 1.4375-1.4688 2.2188-0.6875 0.77344-1.8359 1.8281-3.4375 3.1719-1.3359 1.125-2.1953 1.8906-2.5781 2.2969-0.375 0.39844-0.68359 0.79297-0.92188 1.1875z"/>
   </g>
   <g id="use86773" transform="translate(220.55 6708.5)">
    <path id="path102879" d="m12.969-23.078h0.92188l-3.8594 24.047-6.125-12.609-2.4531 1.1094-0.42188-0.78125 3.7188-1.8594 5.0156 10.156z"/>
   </g>
   <g id="use86775" transform="translate(234.44 6708.5)"></g>
   <g id="use86777" transform="translate(241.48 6708.5)">
    <path id="path102887" d="m12.734-2.1406v2.1406h-11.969c-0.023437-0.53125 0.066406-1.0469 0.26562-1.5469 0.30078-0.8125 0.78516-1.6133 1.4531-2.4062 0.67578-0.78906 1.6445-1.7031 2.9062-2.7344 1.9688-1.6133 3.2969-2.8906 3.9844-3.8281 0.69531-0.94531 1.0469-1.8438 1.0469-2.6875 0-0.88281-0.32031-1.6289-0.95312-2.2344-0.625-0.60156-1.4453-0.90625-2.4531-0.90625-1.0742 0-1.9336 0.32422-2.5781 0.96875-0.63672 0.63672-0.96094 1.5273-0.96875 2.6719l-2.2812-0.23438c0.15625-1.707 0.74219-3.0078 1.7656-3.9062 1.0195-0.89453 2.3906-1.3438 4.1094-1.3438 1.7383 0 3.1133 0.48438 4.125 1.4531 1.0078 0.96094 1.5156 2.1523 1.5156 3.5781 0 0.73047-0.14844 1.4453-0.4375 2.1406-0.29297 0.69922-0.78125 1.4375-1.4688 2.2188-0.6875 0.77344-1.8359 1.8281-3.4375 3.1719-1.3359 1.125-2.1953 1.8906-2.5781 2.2969-0.375 0.39844-0.68359 0.79297-0.92188 1.1875z"/>
   </g>
  </g>
  <g id="g86783" transform="matrix(.35278 0 0 .35278 .62303 -2242.2)">
   <g id="use86781" transform="translate(193.15 6743.3)">
    <path id="path102891" d="m12.734-2.1406v2.1406h-11.969c-0.023437-0.53125 0.066406-1.0469 0.26562-1.5469 0.30078-0.8125 0.78516-1.6133 1.4531-2.4062 0.67578-0.78906 1.6445-1.7031 2.9062-2.7344 1.9688-1.6133 3.2969-2.8906 3.9844-3.8281 0.69531-0.94531 1.0469-1.8438 1.0469-2.6875 0-0.88281-0.32031-1.6289-0.95312-2.2344-0.625-0.60156-1.4453-0.90625-2.4531-0.90625-1.0742 0-1.9336 0.32422-2.5781 0.96875-0.63672 0.63672-0.96094 1.5273-0.96875 2.6719l-2.2812-0.23438c0.15625-1.707 0.74219-3.0078 1.7656-3.9062 1.0195-0.89453 2.3906-1.3438 4.1094-1.3438 1.7383 0 3.1133 0.48438 4.125 1.4531 1.0078 0.96094 1.5156 2.1523 1.5156 3.5781 0 0.73047-0.14844 1.4453-0.4375 2.1406-0.29297 0.69922-0.78125 1.4375-1.4688 2.2188-0.6875 0.77344-1.8359 1.8281-3.4375 3.1719-1.3359 1.125-2.1953 1.8906-2.5781 2.2969-0.375 0.39844-0.68359 0.79297-0.92188 1.1875z"/>
   </g>
  </g>
  <g id="g86793" transform="matrix(.35278 0 0 .35278 .62303 -2242.2)" style="fill:#1c1c19">
   <g id="use86785" transform="translate(86.528 6725.9)">
    <path id="path102895" d="m3.0469-13.781 3.4844 6.75-6.2969 7.0312h2.8125l2.6094-3.1094c0.67188-0.82812 1.3125-1.5625 1.9219-2.3906h0.0625c0.32812 0.82812 0.65625 1.5938 1.0469 2.3906l1.4844 3.1094h2.9062l-3.5938-7.125 6.0156-6.6562h-2.75l-2.5156 2.9219c-0.60938 0.75-1.1875 1.4531-1.8125 2.2812h-0.09375c-0.3125-0.76562-0.60938-1.4844-1-2.25l-1.4531-2.9531z"/>
   </g>
   <g id="use86787" transform="translate(100.09 6725.9)"></g>
   <g id="use86789" transform="translate(106.38 6725.9)">
    <path id="path102903" d="m17.906-9.5938 0.32812-1.7188h-14.953l-0.32812 1.7188zm-1.0469 5.5781 0.32812-1.7031h-14.953l-0.32812 1.7031z"/>
   </g>
   <g id="use86791" transform="translate(123.79 6725.9)"></g>
  </g>
  <path id="path86795" d="m83.037 116.24h9.3266" style="fill:none;stroke-miterlimit:10;stroke-width:.35278;stroke:#000"/>
  <path id="path86797" d="m50.143 165.06h17.115" style="fill:none;stroke-linecap:square;stroke-miterlimit:10;stroke-width:.40287;stroke:#000"/>
  <g id="g86807" transform="matrix(.35278 0 0 .35278 .62303 -2242.2)">
   <g id="use86799" transform="translate(141.96 6814.2)">
    <path id="path102911" d="m0.79688-5.4375v-2.2344h6.8438v2.2344z"/>
   </g>
   <g id="use86801" transform="translate(150.38 6814.2)">
    <path id="path102915" d="m9.4219 0h-2.2188v-14.172c-0.54297 0.51172-1.2461 1.0234-2.1094 1.5312-0.86719 0.51172-1.6484 0.89844-2.3438 1.1562v-2.1562c1.25-0.58203 2.3359-1.2891 3.2656-2.125 0.92578-0.83203 1.582-1.6406 1.9688-2.4219h1.4375z"/>
   </g>
   <g id="use86803" transform="translate(164.45 6814.2)">
    <path id="path102919" d="m12.734-2.1406v2.1406h-11.969c-0.023437-0.53125 0.066406-1.0469 0.26562-1.5469 0.30078-0.8125 0.78516-1.6133 1.4531-2.4062 0.67578-0.78906 1.6445-1.7031 2.9062-2.7344 1.9688-1.6133 3.2969-2.8906 3.9844-3.8281 0.69531-0.94531 1.0469-1.8438 1.0469-2.6875 0-0.88281-0.32031-1.6289-0.95312-2.2344-0.625-0.60156-1.4453-0.90625-2.4531-0.90625-1.0742 0-1.9336 0.32422-2.5781 0.96875-0.63672 0.63672-0.96094 1.5273-0.96875 2.6719l-2.2812-0.23438c0.15625-1.707 0.74219-3.0078 1.7656-3.9062 1.0195-0.89453 2.3906-1.3438 4.1094-1.3438 1.7383 0 3.1133 0.48438 4.125 1.4531 1.0078 0.96094 1.5156 2.1523 1.5156 3.5781 0 0.73047-0.14844 1.4453-0.4375 2.1406-0.29297 0.69922-0.78125 1.4375-1.4688 2.2188-0.6875 0.77344-1.8359 1.8281-3.4375 3.1719-1.3359 1.125-2.1953 1.8906-2.5781 2.2969-0.375 0.39844-0.68359 0.79297-0.92188 1.1875z"/>
   </g>
   <g id="use86805" transform="translate(178.52 6814.2)"></g>
  </g>
  <g id="g86811" transform="matrix(.35278 0 0 .35278 .62303 -2242.2)">
   <g id="use86809" transform="translate(157.39 6849)">
    <path id="path102927" d="m12.734-2.1406v2.1406h-11.969c-0.023437-0.53125 0.066406-1.0469 0.26562-1.5469 0.30078-0.8125 0.78516-1.6133 1.4531-2.4062 0.67578-0.78906 1.6445-1.7031 2.9062-2.7344 1.9688-1.6133 3.2969-2.8906 3.9844-3.8281 0.69531-0.94531 1.0469-1.8438 1.0469-2.6875 0-0.88281-0.32031-1.6289-0.95312-2.2344-0.625-0.60156-1.4453-0.90625-2.4531-0.90625-1.0742 0-1.9336 0.32422-2.5781 0.96875-0.63672 0.63672-0.96094 1.5273-0.96875 2.6719l-2.2812-0.23438c0.15625-1.707 0.74219-3.0078 1.7656-3.9062 1.0195-0.89453 2.3906-1.3438 4.1094-1.3438 1.7383 0 3.1133 0.48438 4.125 1.4531 1.0078 0.96094 1.5156 2.1523 1.5156 3.5781 0 0.73047-0.14844 1.4453-0.4375 2.1406-0.29297 0.69922-0.78125 1.4375-1.4688 2.2188-0.6875 0.77344-1.8359 1.8281-3.4375 3.1719-1.3359 1.125-2.1953 1.8906-2.5781 2.2969-0.375 0.39844-0.68359 0.79297-0.92188 1.1875z"/>
   </g>
  </g>
  <g id="g86821" transform="matrix(.35278 0 0 .35278 .62303 -2242.2)" style="fill:#1c1c19">
   <g id="use86813" transform="translate(86.528 6831.6)">
    <path id="path102931" d="m3.0469-13.781 3.4844 6.75-6.2969 7.0312h2.8125l2.6094-3.1094c0.67188-0.82812 1.3125-1.5625 1.9219-2.3906h0.0625c0.32812 0.82812 0.65625 1.5938 1.0469 2.3906l1.4844 3.1094h2.9062l-3.5938-7.125 6.0156-6.6562h-2.75l-2.5156 2.9219c-0.60938 0.75-1.1875 1.4531-1.8125 2.2812h-0.09375c-0.3125-0.76562-0.60938-1.4844-1-2.25l-1.4531-2.9531z"/>
   </g>
   <g id="use86815" transform="translate(100.09 6831.6)"></g>
   <g id="use86817" transform="translate(106.38 6831.6)">
    <path id="path102939" d="m17.906-9.5938 0.32812-1.7188h-14.953l-0.32812 1.7188zm-1.0469 5.5781 0.32812-1.7031h-14.953l-0.32812 1.7031z"/>
   </g>
   <g id="use86819" transform="translate(123.79 6831.6)"></g>
  </g>
  <g id="g86839" transform="matrix(.35278 0 0 .35278 .62303 -2242.2)">
   <g id="use86823" transform="translate(140.98 6942.6)">
    <path id="path102947" d="m0.79688-5.4375v-2.2344h6.8438v2.2344z"/>
   </g>
   <g id="use86825" transform="translate(149.41 6942.6)">
    <path id="path102951" d="m12.594-13.672-2.2188 0.17188c-0.19922-0.875-0.48047-1.5078-0.84375-1.9062-0.59375-0.63281-1.3359-0.95312-2.2188-0.95312-0.71094 0-1.3281 0.19922-1.8594 0.59375-0.71094 0.51172-1.2656 1.2578-1.6719 2.2344-0.39844 0.98047-0.60547 2.375-0.625 4.1875 0.53906-0.8125 1.1953-1.4141 1.9688-1.8125 0.76953-0.39453 1.582-0.59375 2.4375-0.59375 1.4766 0 2.7383 0.54688 3.7812 1.6406 1.0391 1.0938 1.5625 2.5078 1.5625 4.2344 0 1.1367-0.24609 2.1953-0.73438 3.1719-0.49219 0.96875-1.1641 1.7148-2.0156 2.2344-0.85547 0.51953-1.8281 0.78125-2.9219 0.78125-1.8555 0-3.3672-0.67969-4.5312-2.0469-1.168-1.3633-1.75-3.6094-1.75-6.7344 0-3.5 0.64453-6.0469 1.9375-7.6406 1.125-1.3828 2.6445-2.0781 4.5625-2.0781 1.4141 0 2.5781 0.40234 3.4844 1.2031 0.91406 0.80469 1.4688 1.9062 1.6562 3.3125zm-9.0781 7.7969c0 0.77344 0.16016 1.5078 0.48438 2.2031 0.32031 0.69922 0.77344 1.2344 1.3594 1.6094 0.58203 0.36719 1.1953 0.54688 1.8438 0.54688 0.9375 0 1.7422-0.37891 2.4219-1.1406 0.67578-0.75781 1.0156-1.7891 1.0156-3.0938 0-1.25-0.33594-2.2344-1-2.9531-0.66797-0.71875-1.5117-1.0781-2.5312-1.0781-1 0-1.8516 0.35938-2.5469 1.0781-0.69922 0.71875-1.0469 1.6641-1.0469 2.8281z"/>
   </g>
   <g id="use86827" transform="translate(163.48 6942.6)"></g>
   <g id="use86829" transform="translate(170.51 6942.6)">
    <path id="path102959" d="m5.8906-3.2188v-4.9688h-4.9219v-2.0625h4.9219v-4.9375h2.0938v4.9375h4.9375v2.0625h-4.9375v4.9688zm7.0312 3.2188h-11.953v-2.0781h11.953z"/>
   </g>
   <g id="use86831" transform="translate(184.4 6942.6)"></g>
   <g id="use86833" transform="translate(191.44 6942.6)">
    <path id="path102967" d="m12.969-23.078h0.92188l-3.8594 24.047-6.125-12.609-2.4531 1.1094-0.42188-0.78125 3.7188-1.8594 5.0156 10.156z"/>
   </g>
   <g id="use86835" transform="translate(205.33 6942.6)">
    <path id="path102971" d="m12.734-2.1406v2.1406h-11.969c-0.023437-0.53125 0.066406-1.0469 0.26562-1.5469 0.30078-0.8125 0.78516-1.6133 1.4531-2.4062 0.67578-0.78906 1.6445-1.7031 2.9062-2.7344 1.9688-1.6133 3.2969-2.8906 3.9844-3.8281 0.69531-0.94531 1.0469-1.8438 1.0469-2.6875 0-0.88281-0.32031-1.6289-0.95312-2.2344-0.625-0.60156-1.4453-0.90625-2.4531-0.90625-1.0742 0-1.9336 0.32422-2.5781 0.96875-0.63672 0.63672-0.96094 1.5273-0.96875 2.6719l-2.2812-0.23438c0.15625-1.707 0.74219-3.0078 1.7656-3.9062 1.0195-0.89453 2.3906-1.3438 4.1094-1.3438 1.7383 0 3.1133 0.48438 4.125 1.4531 1.0078 0.96094 1.5156 2.1523 1.5156 3.5781 0 0.73047-0.14844 1.4453-0.4375 2.1406-0.29297 0.69922-0.78125 1.4375-1.4688 2.2188-0.6875 0.77344-1.8359 1.8281-3.4375 3.1719-1.3359 1.125-2.1953 1.8906-2.5781 2.2969-0.375 0.39844-0.68359 0.79297-0.92188 1.1875z"/>
   </g>
   <g id="use86837" transform="translate(219.4 6942.6)"></g>
  </g>
  <g id="g86849" transform="matrix(.35278 0 0 .35278 .62303 -2242.2)" style="fill:#1c1c19">
   <g id="use86841" transform="translate(86.528 6941.7)">
    <path id="path102979" d="m3.0469-13.781 3.4844 6.75-6.2969 7.0312h2.8125l2.6094-3.1094c0.67188-0.82812 1.3125-1.5625 1.9219-2.3906h0.0625c0.32812 0.82812 0.65625 1.5938 1.0469 2.3906l1.4844 3.1094h2.9062l-3.5938-7.125 6.0156-6.6562h-2.75l-2.5156 2.9219c-0.60938 0.75-1.1875 1.4531-1.8125 2.2812h-0.09375c-0.3125-0.76562-0.60938-1.4844-1-2.25l-1.4531-2.9531z"/>
   </g>
   <g id="use86843" transform="translate(100.09 6941.7)"></g>
   <g id="use86845" transform="translate(106.38 6941.7)">
    <path id="path102987" d="m17.906-9.5938 0.32812-1.7188h-14.953l-0.32812 1.7188zm-1.0469 5.5781 0.32812-1.7031h-14.953l-0.32812 1.7031z"/>
   </g>
   <g id="use86847" transform="translate(123.79 6941.7)"></g>
  </g>
  <path id="path86851" d="m83.38 165.06h18.88" style="fill:none;stroke-linecap:square;stroke-miterlimit:10;stroke-width:.40287;stroke:#000"/>
  <g id="g86861" transform="matrix(.35278 0 0 .35278 .62303 -2242.2)">
   <g id="use86853" transform="translate(236.17 6814.2)">
    <path id="path102995" d="m12.734-2.1406v2.1406h-11.969c-0.023437-0.53125 0.066406-1.0469 0.26562-1.5469 0.30078-0.8125 0.78516-1.6133 1.4531-2.4062 0.67578-0.78906 1.6445-1.7031 2.9062-2.7344 1.9688-1.6133 3.2969-2.8906 3.9844-3.8281 0.69531-0.94531 1.0469-1.8438 1.0469-2.6875 0-0.88281-0.32031-1.6289-0.95312-2.2344-0.625-0.60156-1.4453-0.90625-2.4531-0.90625-1.0742 0-1.9336 0.32422-2.5781 0.96875-0.63672 0.63672-0.96094 1.5273-0.96875 2.6719l-2.2812-0.23438c0.15625-1.707 0.74219-3.0078 1.7656-3.9062 1.0195-0.89453 2.3906-1.3438 4.1094-1.3438 1.7383 0 3.1133 0.48438 4.125 1.4531 1.0078 0.96094 1.5156 2.1523 1.5156 3.5781 0 0.73047-0.14844 1.4453-0.4375 2.1406-0.29297 0.69922-0.78125 1.4375-1.4688 2.2188-0.6875 0.77344-1.8359 1.8281-3.4375 3.1719-1.3359 1.125-2.1953 1.8906-2.5781 2.2969-0.375 0.39844-0.68359 0.79297-0.92188 1.1875z"/>
   </g>
   <g id="use86855" transform="translate(250.24 6814.2)">
    <path id="path102999" d="m12.969-23.078h0.92188l-3.8594 24.047-6.125-12.609-2.4531 1.1094-0.42188-0.78125 3.7188-1.8594 5.0156 10.156z"/>
   </g>
   <g id="use86857" transform="translate(264.13 6814.2)"></g>
   <g id="use86859" transform="translate(271.16 6814.2)">
    <path id="path103007" d="m12.734-2.1406v2.1406h-11.969c-0.023437-0.53125 0.066406-1.0469 0.26562-1.5469 0.30078-0.8125 0.78516-1.6133 1.4531-2.4062 0.67578-0.78906 1.6445-1.7031 2.9062-2.7344 1.9688-1.6133 3.2969-2.8906 3.9844-3.8281 0.69531-0.94531 1.0469-1.8438 1.0469-2.6875 0-0.88281-0.32031-1.6289-0.95312-2.2344-0.625-0.60156-1.4453-0.90625-2.4531-0.90625-1.0742 0-1.9336 0.32422-2.5781 0.96875-0.63672 0.63672-0.96094 1.5273-0.96875 2.6719l-2.2812-0.23438c0.15625-1.707 0.74219-3.0078 1.7656-3.9062 1.0195-0.89453 2.3906-1.3438 4.1094-1.3438 1.7383 0 3.1133 0.48438 4.125 1.4531 1.0078 0.96094 1.5156 2.1523 1.5156 3.5781 0 0.73047-0.14844 1.4453-0.4375 2.1406-0.29297 0.69922-0.78125 1.4375-1.4688 2.2188-0.6875 0.77344-1.8359 1.8281-3.4375 3.1719-1.3359 1.125-2.1953 1.8906-2.5781 2.2969-0.375 0.39844-0.68359 0.79297-0.92188 1.1875z"/>
   </g>
  </g>
  <g id="g86865" transform="matrix(.35278 0 0 .35278 .62303 -2242.2)">
   <g id="use86863" transform="translate(251.6 6849)">
    <path id="path103011" d="m12.734-2.1406v2.1406h-11.969c-0.023437-0.53125 0.066406-1.0469 0.26562-1.5469 0.30078-0.8125 0.78516-1.6133 1.4531-2.4062 0.67578-0.78906 1.6445-1.7031 2.9062-2.7344 1.9688-1.6133 3.2969-2.8906 3.9844-3.8281 0.69531-0.94531 1.0469-1.8438 1.0469-2.6875 0-0.88281-0.32031-1.6289-0.95312-2.2344-0.625-0.60156-1.4453-0.90625-2.4531-0.90625-1.0742 0-1.9336 0.32422-2.5781 0.96875-0.63672 0.63672-0.96094 1.5273-0.96875 2.6719l-2.2812-0.23438c0.15625-1.707 0.74219-3.0078 1.7656-3.9062 1.0195-0.89453 2.3906-1.3438 4.1094-1.3438 1.7383 0 3.1133 0.48438 4.125 1.4531 1.0078 0.96094 1.5156 2.1523 1.5156 3.5781 0 0.73047-0.14844 1.4453-0.4375 2.1406-0.29297 0.69922-0.78125 1.4375-1.4688 2.2188-0.6875 0.77344-1.8359 1.8281-3.4375 3.1719-1.3359 1.125-2.1953 1.8906-2.5781 2.2969-0.375 0.39844-0.68359 0.79297-0.92188 1.1875z"/>
   </g>
  </g>
  <path id="path86867" d="m93.533 153.51h9.3266" style="fill:none;stroke-miterlimit:10;stroke-width:.35278;stroke:#000"/>
  <path id="path86869" d="m72.714 198.89h9.3266" style="fill:none;stroke-miterlimit:10;stroke-width:.35278;stroke:#000"/>
  <g id="g86887" transform="matrix(.35278 0 0 .35278 .62303 -2242.2)">
   <g id="use86871" transform="translate(140.98 7026.8)">
    <path id="path103015" d="m0.79688-5.4375v-2.2344h6.8438v2.2344z"/>
   </g>
   <g id="use86873" transform="translate(149.41 7026.8)">
    <path id="path103019" d="m12.594-13.672-2.2188 0.17188c-0.19922-0.875-0.48047-1.5078-0.84375-1.9062-0.59375-0.63281-1.3359-0.95312-2.2188-0.95312-0.71094 0-1.3281 0.19922-1.8594 0.59375-0.71094 0.51172-1.2656 1.2578-1.6719 2.2344-0.39844 0.98047-0.60547 2.375-0.625 4.1875 0.53906-0.8125 1.1953-1.4141 1.9688-1.8125 0.76953-0.39453 1.582-0.59375 2.4375-0.59375 1.4766 0 2.7383 0.54688 3.7812 1.6406 1.0391 1.0938 1.5625 2.5078 1.5625 4.2344 0 1.1367-0.24609 2.1953-0.73438 3.1719-0.49219 0.96875-1.1641 1.7148-2.0156 2.2344-0.85547 0.51953-1.8281 0.78125-2.9219 0.78125-1.8555 0-3.3672-0.67969-4.5312-2.0469-1.168-1.3633-1.75-3.6094-1.75-6.7344 0-3.5 0.64453-6.0469 1.9375-7.6406 1.125-1.3828 2.6445-2.0781 4.5625-2.0781 1.4141 0 2.5781 0.40234 3.4844 1.2031 0.91406 0.80469 1.4688 1.9062 1.6562 3.3125zm-9.0781 7.7969c0 0.77344 0.16016 1.5078 0.48438 2.2031 0.32031 0.69922 0.77344 1.2344 1.3594 1.6094 0.58203 0.36719 1.1953 0.54688 1.8438 0.54688 0.9375 0 1.7422-0.37891 2.4219-1.1406 0.67578-0.75781 1.0156-1.7891 1.0156-3.0938 0-1.25-0.33594-2.2344-1-2.9531-0.66797-0.71875-1.5117-1.0781-2.5312-1.0781-1 0-1.8516 0.35938-2.5469 1.0781-0.69922 0.71875-1.0469 1.6641-1.0469 2.8281z"/>
   </g>
   <g id="use86875" transform="translate(163.48 7026.8)"></g>
   <g id="use86877" transform="translate(170.51 7026.8)">
    <path id="path103027" d="m6.3438-2.9219v-4.9688h-4.9375v-2.0781h4.9375v-4.9219h2.0938v4.9219h4.9219v2.0781h-4.9219v4.9688z"/>
   </g>
   <g id="use86879" transform="translate(185.29 7026.8)"></g>
   <g id="use86881" transform="translate(192.32 7026.8)">
    <path id="path103035" d="m12.969-23.078h0.92188l-3.8594 24.047-6.125-12.609-2.4531 1.1094-0.42188-0.78125 3.7188-1.8594 5.0156 10.156z"/>
   </g>
   <g id="use86883" transform="translate(206.21 7026.8)">
    <path id="path103039" d="m12.734-2.1406v2.1406h-11.969c-0.023437-0.53125 0.066406-1.0469 0.26562-1.5469 0.30078-0.8125 0.78516-1.6133 1.4531-2.4062 0.67578-0.78906 1.6445-1.7031 2.9062-2.7344 1.9688-1.6133 3.2969-2.8906 3.9844-3.8281 0.69531-0.94531 1.0469-1.8438 1.0469-2.6875 0-0.88281-0.32031-1.6289-0.95312-2.2344-0.625-0.60156-1.4453-0.90625-2.4531-0.90625-1.0742 0-1.9336 0.32422-2.5781 0.96875-0.63672 0.63672-0.96094 1.5273-0.96875 2.6719l-2.2812-0.23438c0.15625-1.707 0.74219-3.0078 1.7656-3.9062 1.0195-0.89453 2.3906-1.3438 4.1094-1.3438 1.7383 0 3.1133 0.48438 4.125 1.4531 1.0078 0.96094 1.5156 2.1523 1.5156 3.5781 0 0.73047-0.14844 1.4453-0.4375 2.1406-0.29297 0.69922-0.78125 1.4375-1.4688 2.2188-0.6875 0.77344-1.8359 1.8281-3.4375 3.1719-1.3359 1.125-2.1953 1.8906-2.5781 2.2969-0.375 0.39844-0.68359 0.79297-0.92188 1.1875z"/>
   </g>
   <g id="use86885" transform="translate(220.28 7026.8)"></g>
  </g>
  <g id="g86897" transform="matrix(.35278 0 0 .35278 .62303 -2242.2)" style="fill:#1c1c19">
   <g id="use86889" transform="translate(86.528 7025.9)">
    <path id="path103047" d="m3.0469-13.781 3.4844 6.75-6.2969 7.0312h2.8125l2.6094-3.1094c0.67188-0.82812 1.3125-1.5625 1.9219-2.3906h0.0625c0.32812 0.82812 0.65625 1.5938 1.0469 2.3906l1.4844 3.1094h2.9062l-3.5938-7.125 6.0156-6.6562h-2.75l-2.5156 2.9219c-0.60938 0.75-1.1875 1.4531-1.8125 2.2812h-0.09375c-0.3125-0.76562-0.60938-1.4844-1-2.25l-1.4531-2.9531z"/>
   </g>
   <g id="use86891" transform="translate(100.09 7025.9)"></g>
   <g id="use86893" transform="translate(106.38 7025.9)">
    <path id="path103055" d="m17.906-9.5938 0.32812-1.7188h-14.953l-0.32812 1.7188zm-1.0469 5.5781 0.32812-1.7031h-14.953l-0.32812 1.7031z"/>
   </g>
   <g id="use86895" transform="translate(123.79 7025.9)"></g>
  </g>
  <path id="path86899" d="m73.076 228.59h7.7708" style="fill:none;stroke-miterlimit:10;stroke-width:.35278;stroke:#000"/>
  <g id="g86949" transform="matrix(.35278 0 0 .35278 .62303 -2242.2)">
   <g id="use86933" transform="translate(414.58 7026.8)">
    <path id="path103063" d="m0.79688-5.4375v-2.2344h6.8438v2.2344z"/>
   </g>
   <g id="use86935" transform="translate(423.01 7026.8)">
    <path id="path103067" d="m12.594-13.672-2.2188 0.17188c-0.19922-0.875-0.48047-1.5078-0.84375-1.9062-0.59375-0.63281-1.3359-0.95312-2.2188-0.95312-0.71094 0-1.3281 0.19922-1.8594 0.59375-0.71094 0.51172-1.2656 1.2578-1.6719 2.2344-0.39844 0.98047-0.60547 2.375-0.625 4.1875 0.53906-0.8125 1.1953-1.4141 1.9688-1.8125 0.76953-0.39453 1.582-0.59375 2.4375-0.59375 1.4766 0 2.7383 0.54688 3.7812 1.6406 1.0391 1.0938 1.5625 2.5078 1.5625 4.2344 0 1.1367-0.24609 2.1953-0.73438 3.1719-0.49219 0.96875-1.1641 1.7148-2.0156 2.2344-0.85547 0.51953-1.8281 0.78125-2.9219 0.78125-1.8555 0-3.3672-0.67969-4.5312-2.0469-1.168-1.3633-1.75-3.6094-1.75-6.7344 0-3.5 0.64453-6.0469 1.9375-7.6406 1.125-1.3828 2.6445-2.0781 4.5625-2.0781 1.4141 0 2.5781 0.40234 3.4844 1.2031 0.91406 0.80469 1.4688 1.9062 1.6562 3.3125zm-9.0781 7.7969c0 0.77344 0.16016 1.5078 0.48438 2.2031 0.32031 0.69922 0.77344 1.2344 1.3594 1.6094 0.58203 0.36719 1.1953 0.54688 1.8438 0.54688 0.9375 0 1.7422-0.37891 2.4219-1.1406 0.67578-0.75781 1.0156-1.7891 1.0156-3.0938 0-1.25-0.33594-2.2344-1-2.9531-0.66797-0.71875-1.5117-1.0781-2.5312-1.0781-1 0-1.8516 0.35938-2.5469 1.0781-0.69922 0.71875-1.0469 1.6641-1.0469 2.8281z"/>
   </g>
   <g id="use86937" transform="translate(437.07 7026.8)"></g>
   <g id="use86939" transform="translate(444.11 7026.8)">
    <path id="path103075" d="m0.79688-5.4375v-2.2344h6.8438v2.2344z"/>
   </g>
   <g id="use86941" transform="translate(452.54 7026.8)"></g>
   <g id="use86943" transform="translate(459.57 7026.8)">
    <path id="path103083" d="m12.969-23.078h0.92188l-3.8594 24.047-6.125-12.609-2.4531 1.1094-0.42188-0.78125 3.7188-1.8594 5.0156 10.156z"/>
   </g>
   <g id="use86945" transform="translate(473.46 7026.8)">
    <path id="path103087" d="m12.734-2.1406v2.1406h-11.969c-0.023437-0.53125 0.066406-1.0469 0.26562-1.5469 0.30078-0.8125 0.78516-1.6133 1.4531-2.4062 0.67578-0.78906 1.6445-1.7031 2.9062-2.7344 1.9688-1.6133 3.2969-2.8906 3.9844-3.8281 0.69531-0.94531 1.0469-1.8438 1.0469-2.6875 0-0.88281-0.32031-1.6289-0.95312-2.2344-0.625-0.60156-1.4453-0.90625-2.4531-0.90625-1.0742 0-1.9336 0.32422-2.5781 0.96875-0.63672 0.63672-0.96094 1.5273-0.96875 2.6719l-2.2812-0.23438c0.15625-1.707 0.74219-3.0078 1.7656-3.9062 1.0195-0.89453 2.3906-1.3438 4.1094-1.3438 1.7383 0 3.1133 0.48438 4.125 1.4531 1.0078 0.96094 1.5156 2.1523 1.5156 3.5781 0 0.73047-0.14844 1.4453-0.4375 2.1406-0.29297 0.69922-0.78125 1.4375-1.4688 2.2188-0.6875 0.77344-1.8359 1.8281-3.4375 3.1719-1.3359 1.125-2.1953 1.8906-2.5781 2.2969-0.375 0.39844-0.68359 0.79297-0.92188 1.1875z"/>
   </g>
   <g id="use86947" transform="translate(487.53 7026.8)"></g>
  </g>
  <g id="g86959" transform="matrix(.35278 0 0 .35278 .62303 -2242.2)" style="fill:#1c1c19">
   <g id="use86951" transform="translate(360.13 7025.9)">
    <path id="path103095" d="m3.0469-13.781 3.4844 6.75-6.2969 7.0312h2.8125l2.6094-3.1094c0.67188-0.82812 1.3125-1.5625 1.9219-2.3906h0.0625c0.32812 0.82812 0.65625 1.5938 1.0469 2.3906l1.4844 3.1094h2.9062l-3.5938-7.125 6.0156-6.6562h-2.75l-2.5156 2.9219c-0.60938 0.75-1.1875 1.4531-1.8125 2.2812h-0.09375c-0.3125-0.76562-0.60938-1.4844-1-2.25l-1.4531-2.9531z"/>
   </g>
   <g id="use86953" transform="translate(373.69 7025.9)"></g>
   <g id="use86955" transform="translate(379.98 7025.9)">
    <path id="path103103" d="m17.906-9.5938 0.32812-1.7188h-14.953l-0.32812 1.7188zm-1.0469 5.5781 0.32812-1.7031h-14.953l-0.32812 1.7031z"/>
   </g>
   <g id="use86957" transform="translate(397.39 7025.9)"></g>
  </g>
  <path id="path86961" d="m167.37 228.59h7.0225" style="fill:none;stroke-miterlimit:10;stroke-width:.35278;stroke:#000"/>
  <g id="g87949" transform="matrix(.35278 0 0 .35278 .62303 -2242.2)">
   <g id="use87947" transform="translate(204.22 6827.8)">
    <path id="path103111" d="m5.8906-3.2188v-4.9688h-4.9219v-2.0625h4.9219v-4.9375h2.0938v4.9375h4.9375v2.0625h-4.9375v4.9688zm7.0312 3.2188h-11.953v-2.0781h11.953z"/>
   </g>
  </g>
 </g>
</svg>
