<svg id="svg110730" version="1.1" viewBox="0 0 99.27 97.011" xmlns="http://www.w3.org/2000/svg">
 <title id="title113356">img_56</title>
 <defs id="defs110724">
  <clipPath id="clipPath71700">
   <path id="path71698" d="M 0,6239.3 H 1117.24 V 0 H 0 Z"/>
  </clipPath>
  <clipPath id="clipPath71708">
   <path id="path71706" d="m418.81 1300.5h229.52v-229.52h-229.52z"/>
  </clipPath>
 </defs>
 <g id="layer1" transform="translate(-46.9,-58.38)">
  <g id="g71696" transform="matrix(.35278 0 0 -.35278 -92.111 525.54)" clip-path="url(#clipPath71700)">
   <g id="g71702">
    <g id="g71818">
     <g id="g71816" clip-path="url(#clipPath71708)" opacity=".47">
      <path id="path71710" d="m418.94 1300.4h229.27v-229.27h-229.27z" style="fill:none;stroke-miterlimit:10;stroke-width:.25;stroke:#1d1d1b"/>
      <g id="g71714" transform="translate(418.94 1087.5)">
       <path id="path71712" d="m0 0h229.27" style="fill:none;stroke-miterlimit:10;stroke-width:.25;stroke:#1d1d1b"/>
      </g>
      <g id="g71718" transform="translate(418.94 1103.8)">
       <path id="path71716" d="m0 0h229.27" style="fill:none;stroke-miterlimit:10;stroke-width:.25;stroke:#1d1d1b"/>
      </g>
      <g id="g71722" transform="translate(418.94 1120.2)">
       <path id="path71720" d="m0 0h229.27" style="fill:none;stroke-miterlimit:10;stroke-width:.25;stroke:#1d1d1b"/>
      </g>
      <g id="g71726" transform="translate(418.94 1136.6)">
       <path id="path71724" d="m0 0h229.27" style="fill:none;stroke-miterlimit:10;stroke-width:.25;stroke:#1d1d1b"/>
      </g>
      <g id="g71730" transform="translate(418.94 1153)">
       <path id="path71728" d="m0 0h229.27" style="fill:none;stroke-miterlimit:10;stroke-width:.25;stroke:#1d1d1b"/>
      </g>
      <g id="g71734" transform="translate(418.94 1169.4)">
       <path id="path71732" d="m0 0h229.27" style="fill:none;stroke-miterlimit:10;stroke-width:.25;stroke:#1d1d1b"/>
      </g>
      <g id="g71738" transform="translate(418.94 1185.7)">
       <path id="path71736" d="m0 0h229.27" style="fill:none;stroke-miterlimit:10;stroke-width:.25;stroke:#1d1d1b"/>
      </g>
      <g id="g71742" transform="translate(418.94 1202.1)">
       <path id="path71740" d="m0 0h229.27" style="fill:none;stroke-miterlimit:10;stroke-width:.25;stroke:#1d1d1b"/>
      </g>
      <g id="g71746" transform="translate(418.94 1218.5)">
       <path id="path71744" d="m0 0h229.27" style="fill:none;stroke-miterlimit:10;stroke-width:.25;stroke:#1d1d1b"/>
      </g>
      <g id="g71750" transform="translate(418.94 1234.9)">
       <path id="path71748" d="m0 0h229.27" style="fill:none;stroke-miterlimit:10;stroke-width:.25;stroke:#1d1d1b"/>
      </g>
      <g id="g71754" transform="translate(418.94 1251.2)">
       <path id="path71752" d="m0 0h229.27" style="fill:none;stroke-miterlimit:10;stroke-width:.25;stroke:#1d1d1b"/>
      </g>
      <g id="g71758" transform="translate(418.94 1267.6)">
       <path id="path71756" d="m0 0h229.27" style="fill:none;stroke-miterlimit:10;stroke-width:.25;stroke:#1d1d1b"/>
      </g>
      <g id="g71762" transform="translate(418.94 1284)">
       <path id="path71760" d="m0 0h229.27" style="fill:none;stroke-miterlimit:10;stroke-width:.25;stroke:#1d1d1b"/>
      </g>
      <g id="g71766" transform="translate(631.83 1300.4)">
       <path id="path71764" d="m0 0v-229.27" style="fill:none;stroke-miterlimit:10;stroke-width:.25;stroke:#1d1d1b"/>
      </g>
      <g id="g71770" transform="translate(615.46 1300.4)">
       <path id="path71768" d="m0 0v-229.27" style="fill:none;stroke-miterlimit:10;stroke-width:.25;stroke:#1d1d1b"/>
      </g>
      <g id="g71774" transform="translate(599.08 1300.4)">
       <path id="path71772" d="m0 0v-229.27" style="fill:none;stroke-miterlimit:10;stroke-width:.25;stroke:#1d1d1b"/>
      </g>
      <g id="g71778" transform="translate(582.7 1300.4)">
       <path id="path71776" d="m0 0v-229.27" style="fill:none;stroke-miterlimit:10;stroke-width:.25;stroke:#1d1d1b"/>
      </g>
      <g id="g71782" transform="translate(566.33 1300.4)">
       <path id="path71780" d="m0 0v-229.27" style="fill:none;stroke-miterlimit:10;stroke-width:.25;stroke:#1d1d1b"/>
      </g>
      <g id="g71786" transform="translate(549.95 1300.4)">
       <path id="path71784" d="m0 0v-229.27" style="fill:none;stroke-miterlimit:10;stroke-width:.25;stroke:#1d1d1b"/>
      </g>
      <g id="g71790" transform="translate(533.57 1300.4)">
       <path id="path71788" d="m0 0v-229.27" style="fill:none;stroke-miterlimit:10;stroke-width:.25;stroke:#1d1d1b"/>
      </g>
      <g id="g71794" transform="translate(517.2 1300.4)">
       <path id="path71792" d="m0 0v-229.27" style="fill:none;stroke-miterlimit:10;stroke-width:.25;stroke:#1d1d1b"/>
      </g>
      <g id="g71798" transform="translate(500.82 1300.4)">
       <path id="path71796" d="m0 0v-229.27" style="fill:none;stroke-miterlimit:10;stroke-width:.25;stroke:#1d1d1b"/>
      </g>
      <g id="g71802" transform="translate(484.44 1300.4)">
       <path id="path71800" d="m0 0v-229.27" style="fill:none;stroke-miterlimit:10;stroke-width:.25;stroke:#1d1d1b"/>
      </g>
      <g id="g71806" transform="translate(468.07 1300.4)">
       <path id="path71804" d="m0 0v-229.27" style="fill:none;stroke-miterlimit:10;stroke-width:.25;stroke:#1d1d1b"/>
      </g>
      <g id="g71810" transform="translate(451.69 1300.4)">
       <path id="path71808" d="m0 0v-229.27" style="fill:none;stroke-miterlimit:10;stroke-width:.25;stroke:#1d1d1b"/>
      </g>
      <g id="g71814" transform="translate(435.31 1300.4)">
       <path id="path71812" d="m0 0v-229.27" style="fill:none;stroke-miterlimit:10;stroke-width:.25;stroke:#1d1d1b"/>
      </g>
     </g>
    </g>
   </g>
  </g>
  <path id="path88325" d="m96.166 60.725v92.322" style="fill:none;stroke-miterlimit:10;stroke-width:.38806;stroke:#1c1c19"/>
  <path id="path88327" d="m96.166 58.38c-0.40928 1.1024-1.1066 2.4708-1.8452 3.3183l1.8452-0.66834 1.8466 0.66834c-0.74001-0.84748-1.4373-2.2159-1.8466-3.3183" style="fill:#1c1c19"/>
  <path id="path88329" d="m96.166 155.39c-0.40928-1.1024-1.1066-2.4708-1.8452-3.3183l1.8452 0.66696 1.8466-0.66696c-0.74001 0.84751-1.4373 2.2159-1.8466 3.3183" style="fill:#1c1c19"/>
  <path id="path88331" d="m143.83 107.25h-94.583" style="fill:none;stroke-miterlimit:10;stroke-width:.38806;stroke:#1c1c19"/>
  <path id="path88333" d="m146.17 107.25c-1.1024-0.40926-2.4708-1.1066-3.3183-1.8452l0.66698 1.8452-0.66698 1.8466c0.8475-0.74002 2.2159-1.4373 3.3183-1.8466" style="fill:#1c1c19"/>
  <path id="path88335" d="m46.9 107.25c1.1024-0.40926 2.4695-1.1066 3.3183-1.8452l-0.66835 1.8452 0.66835 1.8466c-0.84887-0.74002-2.2159-1.4373-3.3183-1.8466" style="fill:#1c1c19"/>
  <path id="path88337" d="m101.92 106.33v1.9224" style="fill:none;stroke-miterlimit:10;stroke-width:.42122;stroke:#1c1c19"/>
  <path id="path88339" d="m107.69 106.33v1.9224" style="fill:none;stroke-miterlimit:10;stroke-width:.42122;stroke:#1c1c19"/>
  <path id="path88341" d="m113.47 106.33v1.9224" style="fill:none;stroke-miterlimit:10;stroke-width:.42122;stroke:#1c1c19"/>
  <path id="path88343" d="m119.25 106.33v1.9224" style="fill:none;stroke-miterlimit:10;stroke-width:.42122;stroke:#1c1c19"/>
  <path id="path88345" d="m125.03 106.33v1.9224" style="fill:none;stroke-miterlimit:10;stroke-width:.42122;stroke:#1c1c19"/>
  <path id="path88347" d="m130.8 106.33v1.9224" style="fill:none;stroke-miterlimit:10;stroke-width:.42122;stroke:#1c1c19"/>
  <path id="path88349" d="m136.56 106.33v1.9224" style="fill:none;stroke-miterlimit:10;stroke-width:.42122;stroke:#1c1c19"/>
  <path id="path88351" d="m67.252 106.28v1.9238" style="fill:none;stroke-miterlimit:10;stroke-width:.42122;stroke:#1c1c19"/>
  <path id="path88353" d="m61.476 106.28v1.9238" style="fill:none;stroke-miterlimit:10;stroke-width:.42122;stroke:#1c1c19"/>
  <path id="path88355" d="m55.699 106.28v1.9238" style="fill:none;stroke-miterlimit:10;stroke-width:.42122;stroke:#1c1c19"/>
  <path id="path88357" d="m73.03 106.28v1.9238" style="fill:none;stroke-miterlimit:10;stroke-width:.42122;stroke:#1c1c19"/>
  <path id="path88359" d="m78.807 106.28v1.9238" style="fill:none;stroke-miterlimit:10;stroke-width:.42122;stroke:#1c1c19"/>
  <path id="path88361" d="m84.585 106.28v1.9238" style="fill:none;stroke-miterlimit:10;stroke-width:.42122;stroke:#1c1c19"/>
  <path id="path88363" d="m90.362 106.28v1.9238" style="fill:none;stroke-miterlimit:10;stroke-width:.42122;stroke:#1c1c19"/>
  <path id="path88365" d="m95.206 101.52h1.9224" style="fill:none;stroke-miterlimit:10;stroke-width:.42122;stroke:#1c1c19"/>
  <path id="path88367" d="m95.206 95.739h1.9224" style="fill:none;stroke-miterlimit:10;stroke-width:.42122;stroke:#1c1c19"/>
  <path id="path88369" d="m95.206 89.96h1.9224" style="fill:none;stroke-miterlimit:10;stroke-width:.42122;stroke:#1c1c19"/>
  <path id="path88371" d="m95.257 84.185h1.9237" style="fill:none;stroke-miterlimit:10;stroke-width:.42122;stroke:#1c1c19"/>
  <path id="path88373" d="m95.231 78.407h1.9237" style="fill:none;stroke-miterlimit:10;stroke-width:.42122;stroke:#1c1c19"/>
  <path id="path88375" d="m95.231 72.629h1.9237" style="fill:none;stroke-miterlimit:10;stroke-width:.42122;stroke:#1c1c19"/>
  <path id="path88377" d="m95.231 66.811h1.9237" style="fill:none;stroke-miterlimit:10;stroke-width:.42122;stroke:#1c1c19"/>
  <path id="path88379" d="m95.206 136.18h1.9224" style="fill:none;stroke-miterlimit:10;stroke-width:.42122;stroke:#1c1c19"/>
  <path id="path88381" d="m95.206 141.96h1.9224" style="fill:none;stroke-miterlimit:10;stroke-width:.42122;stroke:#1c1c19"/>
  <path id="path88383" d="m95.206 147.73h1.9224" style="fill:none;stroke-miterlimit:10;stroke-width:.42122;stroke:#1c1c19"/>
  <path id="path88385" d="m95.206 130.4h1.9224" style="fill:none;stroke-miterlimit:10;stroke-width:.42122;stroke:#1c1c19"/>
  <path id="path88387" d="m95.206 124.63h1.9224" style="fill:none;stroke-miterlimit:10;stroke-width:.42122;stroke:#1c1c19"/>
  <path id="path88389" d="m95.206 118.85h1.9224" style="fill:none;stroke-miterlimit:10;stroke-width:.42122;stroke:#1c1c19"/>
  <path id="path88391" d="m95.206 113.07h1.9224" style="fill:none;stroke-miterlimit:10;stroke-width:.42122;stroke:#1c1c19"/>
  <g id="g88395" transform="matrix(.35278 0 0 .35278 -92.093 -1675.5)" style="fill:#1c1c19">
   <g id="use88393" transform="translate(541.58 4925.7)">
    <path id="path111262" d="m0.09375-4.7656 1.7656 4.3906c0.03125 0.10938 0.046875 0.17188 0.046875 0.23438 0 0.046875-0.015625 0.10938-0.0625 0.20312-0.20312 0.4375-0.5 0.78125-0.73438 0.96875-0.25 0.21875-0.53125 0.34375-0.75 0.42188l0.21875 0.71875c0.20312-0.03125 0.64062-0.1875 1.0625-0.5625 0.59375-0.5 1.0156-1.3438 1.625-2.9844l1.3125-3.3906h-0.92188l-0.9375 2.7969c-0.125 0.34375-0.21875 0.70312-0.3125 1h-0.015625c-0.078125-0.29688-0.20312-0.67188-0.3125-0.98438l-1.0469-2.8125z"/>
   </g>
  </g>
  <g id="g88399" transform="matrix(.35278 0 0 .35278 -92.093 -1675.5)" style="fill:#1c1c19">
   <g id="use88397" transform="translate(665.43 5044.7)">
    <path id="path111266" d="m0.15625-4.7656 1.625 2.3281-1.7031 2.4375h0.95312l0.6875-1.0781c0.1875-0.28125 0.35938-0.53125 0.51562-0.82812h0.015625c0.17188 0.29688 0.32812 0.5625 0.51562 0.82812l0.6875 1.0781h1l-1.6875-2.4688 1.625-2.2969h-0.9375l-0.65625 1.0156c-0.17188 0.25-0.32812 0.5-0.48438 0.78125h-0.03125c-0.15625-0.26562-0.29688-0.51562-0.48438-0.78125l-0.67188-1.0156z"/>
   </g>
  </g>
  <g id="g88403" transform="matrix(.35278 0 0 .35278 -92.093 -1675.5)" style="fill:#1c1c19">
   <g id="use88401" transform="translate(525.73 5062.8)">
    <path id="path111270" d="m2.5781-6.5156c-1.2969 0-2.2188 1.1875-2.2188 3.3281 0.015625 2.125 0.85938 3.2969 2.1094 3.2969 1.4219 0 2.2344-1.2031 2.2344-3.375 0-2.0469-0.76562-3.25-2.125-3.25zm-0.046875 0.67188c0.90625 0 1.2969 1.0312 1.2969 2.6094 0 1.6406-0.42188 2.6719-1.2969 2.6719-0.79688 0-1.3125-0.95312-1.3125-2.6094 0-1.75 0.5625-2.6719 1.3125-2.6719z"/>
   </g>
  </g>
  <g id="g88407" transform="matrix(.35278 0 0 .35278 -92.093 -1675.5)" style="fill:#1c1c19">
   <g id="use88405" transform="translate(547.19 5066.5)">
    <path id="path111274" d="m2.3281 0h0.84375v-6.4062h-0.75l-1.3906 0.75 0.15625 0.65625 1.125-0.59375h0.015625z"/>
   </g>
  </g>
  <g id="g88411" transform="matrix(.35278 0 0 .35278 -92.093 -1675.5)" style="fill:#1c1c19">
   <g id="use88409" transform="translate(520.85 5039.6)">
    <path id="path111278" d="m2.3281 0h0.84375v-6.4062h-0.75l-1.3906 0.75 0.15625 0.65625 1.125-0.59375h0.015625z"/>
   </g>
  </g>
  <g id="g88417" transform="matrix(.35278 0 0 .35278 -92.093 -1675.5)" style="fill:#1c1c19">
   <g id="use88413" transform="translate(518.55 5072.6)">
    <path id="path111282" d="m0.29688-2.9844v0.64062h2.4375v-0.64062z"/>
   </g>
   <g id="use88415" transform="translate(521.63 5072.6)">
    <path id="path111286" d="m2.3281 0h0.84375v-6.4062h-0.75l-1.3906 0.75 0.15625 0.65625 1.125-0.59375h0.015625z"/>
   </g>
  </g>
  <g id="g88423" transform="matrix(.35278 0 0 .35278 -92.093 -1675.5)" style="fill:#1c1c19">
   <g id="use88419" transform="translate(511.46 5066.5)">
    <path id="path111290" d="m0.29688-2.9844v0.64062h2.4375v-0.64062z"/>
   </g>
   <g id="use88421" transform="translate(514.54 5066.5)">
    <path id="path111294" d="m2.3281 0h0.84375v-6.4062h-0.75l-1.3906 0.75 0.15625 0.65625 1.125-0.59375h0.015625z"/>
   </g>
  </g>
  <g id="g88427" transform="matrix(.35278 0 0 .35278 -92.093 -1675.5)" style="fill:#1c1c19">
   <g id="use88425" transform="translate(563.81 5066.5)">
    <path id="path111298" d="m4.5312 0v-0.71875h-2.875v-0.015625l0.51562-0.48438c1.3438-1.2969 2.2031-2.25 2.2031-3.4375 0-0.92188-0.57812-1.8594-1.9531-1.8594-0.75 0-1.375 0.28125-1.8281 0.65625l0.28125 0.60938c0.29688-0.25 0.78125-0.54688 1.3594-0.54688 0.95312 0 1.2812 0.59375 1.2812 1.25-0.015625 0.96875-0.75 1.7969-2.3906 3.3594l-0.6875 0.65625v0.53125z"/>
   </g>
  </g>
  <g id="g88431" transform="matrix(.35278 0 0 .35278 -92.093 -1675.5)" style="fill:#1c1c19">
   <g id="use88429" transform="translate(520.37 5023.2)">
    <path id="path111302" d="m4.5312 0v-0.71875h-2.875v-0.015625l0.51562-0.48438c1.3438-1.2969 2.2031-2.25 2.2031-3.4375 0-0.92188-0.57812-1.8594-1.9531-1.8594-0.75 0-1.375 0.28125-1.8281 0.65625l0.28125 0.60938c0.29688-0.25 0.78125-0.54688 1.3594-0.54688 0.95312 0 1.2812 0.59375 1.2812 1.25-0.015625 0.96875-0.75 1.7969-2.3906 3.3594l-0.6875 0.65625v0.53125z"/>
   </g>
  </g>
  <g id="g88437" transform="matrix(.35278 0 0 .35278 -92.093 -1675.5)" style="fill:#1c1c19">
   <g id="use88433" transform="translate(518.31 5089)">
    <path id="path111306" d="m0.29688-2.9844v0.64062h2.4375v-0.64062z"/>
   </g>
   <g id="use88435" transform="translate(521.39 5089)">
    <path id="path111310" d="m4.5312 0v-0.71875h-2.875v-0.015625l0.51562-0.48438c1.3438-1.2969 2.2031-2.25 2.2031-3.4375 0-0.92188-0.57812-1.8594-1.9531-1.8594-0.75 0-1.375 0.28125-1.8281 0.65625l0.28125 0.60938c0.29688-0.25 0.78125-0.54688 1.3594-0.54688 0.95312 0 1.2812 0.59375 1.2812 1.25-0.015625 0.96875-0.75 1.7969-2.3906 3.3594l-0.6875 0.65625v0.53125z"/>
   </g>
  </g>
  <g id="g88443" transform="matrix(.35278 0 0 .35278 -92.093 -1675.5)" style="fill:#1c1c19">
   <g id="use88439" transform="translate(495.1 5066.2)">
    <path id="path111314" d="m0.29688-2.9844v0.64062h2.4375v-0.64062z"/>
   </g>
   <g id="use88441" transform="translate(498.17 5066.2)">
    <path id="path111318" d="m4.5312 0v-0.71875h-2.875v-0.015625l0.51562-0.48438c1.3438-1.2969 2.2031-2.25 2.2031-3.4375 0-0.92188-0.57812-1.8594-1.9531-1.8594-0.75 0-1.375 0.28125-1.8281 0.65625l0.28125 0.60938c0.29688-0.25 0.78125-0.54688 1.3594-0.54688 0.95312 0 1.2812 0.59375 1.2812 1.25-0.015625 0.96875-0.75 1.7969-2.3906 3.3594l-0.6875 0.65625v0.53125z"/>
   </g>
  </g>
  <g id="g88447" transform="matrix(.35278 0 0 .35278 -92.093 -1675.5)" style="fill:#1c1c19">
   <g id="use88445" transform="translate(580.03 5066.6)">
    <path id="path111322" d="m0.42188-0.32812c0.3125 0.20312 0.9375 0.4375 1.6562 0.4375 1.5469 0 2.3438-0.89062 2.3438-1.9219 0-0.90625-0.64062-1.4844-1.4375-1.6406v-0.03125c0.79688-0.28125 1.1875-0.84375 1.1875-1.5 0-0.78125-0.57812-1.5312-1.8281-1.5312-0.70312 0-1.3438 0.25-1.6875 0.48438l0.23438 0.64062c0.26562-0.20312 0.76562-0.42188 1.2812-0.42188 0.79688 0 1.125 0.45312 1.125 0.96875 0 0.75-0.79688 1.0781-1.4375 1.0781h-0.48438v0.65625h0.48438c0.84375 0 1.6562 0.375 1.6562 1.2812 0.015625 0.53125-0.32812 1.2344-1.4375 1.2344-0.60938 0-1.1875-0.25-1.4219-0.40625z"/>
   </g>
  </g>
  <g id="g88451" transform="matrix(.35278 0 0 .35278 -92.093 -1675.5)" style="fill:#1c1c19">
   <g id="use88449" transform="translate(520.37 5006.8)">
    <path id="path111326" d="m0.42188-0.32812c0.3125 0.20312 0.9375 0.4375 1.6562 0.4375 1.5469 0 2.3438-0.89062 2.3438-1.9219 0-0.90625-0.64062-1.4844-1.4375-1.6406v-0.03125c0.79688-0.28125 1.1875-0.84375 1.1875-1.5 0-0.78125-0.57812-1.5312-1.8281-1.5312-0.70312 0-1.3438 0.25-1.6875 0.48438l0.23438 0.64062c0.26562-0.20312 0.76562-0.42188 1.2812-0.42188 0.79688 0 1.125 0.45312 1.125 0.96875 0 0.75-0.79688 1.0781-1.4375 1.0781h-0.48438v0.65625h0.48438c0.84375 0 1.6562 0.375 1.6562 1.2812 0.015625 0.53125-0.32812 1.2344-1.4375 1.2344-0.60938 0-1.1875-0.25-1.4219-0.40625z"/>
   </g>
  </g>
  <g id="g88457" transform="matrix(.35278 0 0 .35278 -92.093 -1675.5)" style="fill:#1c1c19">
   <g id="use88453" transform="translate(518.31 5105.4)">
    <path id="path111330" d="m0.29688-2.9844v0.64062h2.4375v-0.64062z"/>
   </g>
   <g id="use88455" transform="translate(521.39 5105.4)">
    <path id="path111334" d="m0.42188-0.32812c0.3125 0.20312 0.9375 0.4375 1.6562 0.4375 1.5469 0 2.3438-0.89062 2.3438-1.9219 0-0.90625-0.64062-1.4844-1.4375-1.6406v-0.03125c0.79688-0.28125 1.1875-0.84375 1.1875-1.5 0-0.78125-0.57812-1.5312-1.8281-1.5312-0.70312 0-1.3438 0.25-1.6875 0.48438l0.23438 0.64062c0.26562-0.20312 0.76562-0.42188 1.2812-0.42188 0.79688 0 1.125 0.45312 1.125 0.96875 0 0.75-0.79688 1.0781-1.4375 1.0781h-0.48438v0.65625h0.48438c0.84375 0 1.6562 0.375 1.6562 1.2812 0.015625 0.53125-0.32812 1.2344-1.4375 1.2344-0.60938 0-1.1875-0.25-1.4219-0.40625z"/>
   </g>
  </g>
  <g id="g88463" transform="matrix(.35278 0 0 .35278 -92.093 -1675.5)" style="fill:#1c1c19">
   <g id="use88459" transform="translate(479.28 5066.2)">
    <path id="path111338" d="m0.29688-2.9844v0.64062h2.4375v-0.64062z"/>
   </g>
   <g id="use88461" transform="translate(482.36 5066.2)">
    <path id="path111342" d="m0.42188-0.32812c0.3125 0.20312 0.9375 0.4375 1.6562 0.4375 1.5469 0 2.3438-0.89062 2.3438-1.9219 0-0.90625-0.64062-1.4844-1.4375-1.6406v-0.03125c0.79688-0.28125 1.1875-0.84375 1.1875-1.5 0-0.78125-0.57812-1.5312-1.8281-1.5312-0.70312 0-1.3438 0.25-1.6875 0.48438l0.23438 0.64062c0.26562-0.20312 0.76562-0.42188 1.2812-0.42188 0.79688 0 1.125 0.45312 1.125 0.96875 0 0.75-0.79688 1.0781-1.4375 1.0781h-0.48438v0.65625h0.48438c0.84375 0 1.6562 0.375 1.6562 1.2812 0.015625 0.53125-0.32812 1.2344-1.4375 1.2344-0.60938 0-1.1875-0.25-1.4219-0.40625z"/>
   </g>
  </g>
  <g id="g88467" transform="matrix(.35278 0 0 .35278 -92.093 -1675.5)" style="fill:#1c1c19">
   <g id="use88465" transform="translate(595.86 5066.5)">
    <path id="path111346" d="m3.9375 0v-1.75h0.90625v-0.67188h-0.90625v-3.9844h-0.9375l-2.8594 4.0938v0.5625h2.9844v1.75zm-2.9062-2.4219v-0.015625l1.5625-2.1875c0.17188-0.29688 0.32812-0.57812 0.53125-0.95312h0.03125c-0.015625 0.34375-0.03125 0.67188-0.03125 1.0156v2.1406z"/>
   </g>
  </g>
  <g id="g88471" transform="matrix(.35278 0 0 .35278 -92.093 -1675.5)" style="fill:#1c1c19">
   <g id="use88469" transform="translate(520.36 4990.4)">
    <path id="path111350" d="m3.9375 0v-1.75h0.90625v-0.67188h-0.90625v-3.9844h-0.9375l-2.8594 4.0938v0.5625h2.9844v1.75zm-2.9062-2.4219v-0.015625l1.5625-2.1875c0.17188-0.29688 0.32812-0.57812 0.53125-0.95312h0.03125c-0.015625 0.34375-0.03125 0.67188-0.03125 1.0156v2.1406z"/>
   </g>
  </g>
  <g id="g88477" transform="matrix(.35278 0 0 .35278 -92.093 -1675.5)" style="fill:#1c1c19">
   <g id="use88473" transform="translate(518.3 5121.8)">
    <path id="path111354" d="m0.29688-2.9844v0.64062h2.4375v-0.64062z"/>
   </g>
   <g id="use88475" transform="translate(521.38 5121.8)">
    <path id="path111358" d="m3.9375 0v-1.75h0.90625v-0.67188h-0.90625v-3.9844h-0.9375l-2.8594 4.0938v0.5625h2.9844v1.75zm-2.9062-2.4219v-0.015625l1.5625-2.1875c0.17188-0.29688 0.32812-0.57812 0.53125-0.95312h0.03125c-0.015625 0.34375-0.03125 0.67188-0.03125 1.0156v2.1406z"/>
   </g>
  </g>
  <g id="g88483" transform="matrix(.35278 0 0 .35278 -92.093 -1675.5)" style="fill:#1c1c19">
   <g id="use88479" transform="translate(461.44 5066.2)">
    <path id="path111362" d="m0.29688-2.9844v0.64062h2.4375v-0.64062z"/>
   </g>
   <g id="use88481" transform="translate(464.52 5066.2)">
    <path id="path111366" d="m3.9375 0v-1.75h0.90625v-0.67188h-0.90625v-3.9844h-0.9375l-2.8594 4.0938v0.5625h2.9844v1.75zm-2.9062-2.4219v-0.015625l1.5625-2.1875c0.17188-0.29688 0.32812-0.57812 0.53125-0.95312h0.03125c-0.015625 0.34375-0.03125 0.67188-0.03125 1.0156v2.1406z"/>
   </g>
  </g>
  <g id="g88487" transform="matrix(.35278 0 0 .35278 -92.093 -1675.5)" style="fill:#1c1c19">
   <g id="use88485" transform="translate(612.96 5066.5)">
    <path id="path111370" d="m4.2656-6.4062h-3.0625l-0.42188 3.0781c0.25-0.03125 0.53125-0.078125 0.89062-0.078125 1.2812 0 1.8438 0.59375 1.8438 1.4219 0 0.85938-0.70312 1.3906-1.5156 1.3906-0.57812 0-1.1094-0.1875-1.375-0.35938l-0.20312 0.67188c0.29688 0.1875 0.89062 0.39062 1.5938 0.39062 1.3906 0 2.375-0.9375 2.375-2.1875 0-0.8125-0.40625-1.3594-0.90625-1.6562-0.39062-0.23438-0.89062-0.34375-1.3906-0.34375-0.23438 0-0.375 0.03125-0.51562 0.046875l0.25-1.6406h2.4375z"/>
   </g>
  </g>
  <g id="g88491" transform="matrix(.35278 0 0 .35278 -92.093 -1675.5)" style="fill:#1c1c19">
   <g id="use88489" transform="translate(628.6 5066.5)">
    <path id="path111374" d="m4.0938-6.5c-0.15625 0-0.35938 0-0.625 0.046875-0.8125 0.09375-1.5156 0.42188-2.0469 0.9375-0.64062 0.64062-1.0938 1.625-1.0938 2.8906 0 1.6719 0.90625 2.7344 2.2812 2.7344 1.3281 0 2.125-1.0781 2.125-2.2656 0-1.25-0.79688-2.0625-1.9375-2.0625-0.70312 0-1.2344 0.32812-1.5469 0.73438h-0.03125c0.15625-1.0469 0.875-2.0469 2.2344-2.2812 0.25-0.03125 0.46875-0.046875 0.64062-0.03125zm-1.4844 5.9375c-0.90625 0-1.3906-0.78125-1.4219-1.8281 0-0.15625 0.046875-0.29688 0.10938-0.39062 0.23438-0.46875 0.71875-0.78125 1.2344-0.78125 0.79688 0 1.3281 0.54688 1.3281 1.4688 0 0.90625-0.5 1.5312-1.25 1.5312z"/>
   </g>
  </g>
  <g id="g88495" transform="matrix(.35278 0 0 .35278 -92.093 -1675.5)" style="fill:#1c1c19">
   <g id="use88493" transform="translate(645.87 5066.5)">
    <path id="path111378" d="m0.5625-6.4062v0.71875h3.1406v0.015625l-2.7812 5.6719h0.89062l2.7969-5.8438v-0.5625z"/>
   </g>
  </g>
  <g id="g88499" transform="matrix(.35278 0 0 .35278 -92.093 -1675.5)" style="fill:#1c1c19">
   <g id="use88497" transform="translate(520.59 4974)">
    <path id="path111382" d="m4.2656-6.4062h-3.0625l-0.42188 3.0781c0.25-0.03125 0.53125-0.078125 0.89062-0.078125 1.2812 0 1.8438 0.59375 1.8438 1.4219 0 0.85938-0.70312 1.3906-1.5156 1.3906-0.57812 0-1.1094-0.1875-1.375-0.35938l-0.20312 0.67188c0.29688 0.1875 0.89062 0.39062 1.5938 0.39062 1.3906 0 2.375-0.9375 2.375-2.1875 0-0.8125-0.40625-1.3594-0.90625-1.6562-0.39062-0.23438-0.89062-0.34375-1.3906-0.34375-0.23438 0-0.375 0.03125-0.51562 0.046875l0.25-1.6406h2.4375z"/>
   </g>
  </g>
  <g id="g88503" transform="matrix(.35278 0 0 .35278 -92.093 -1675.5)" style="fill:#1c1c19">
   <g id="use88501" transform="translate(520.59 4957.7)">
    <path id="path111386" d="m4.0938-6.5c-0.15625 0-0.35938 0-0.625 0.046875-0.8125 0.09375-1.5156 0.42188-2.0469 0.9375-0.64062 0.64062-1.0938 1.625-1.0938 2.8906 0 1.6719 0.90625 2.7344 2.2812 2.7344 1.3281 0 2.125-1.0781 2.125-2.2656 0-1.25-0.79688-2.0625-1.9375-2.0625-0.70312 0-1.2344 0.32812-1.5469 0.73438h-0.03125c0.15625-1.0469 0.875-2.0469 2.2344-2.2812 0.25-0.03125 0.46875-0.046875 0.64062-0.03125zm-1.4844 5.9375c-0.90625 0-1.3906-0.78125-1.4219-1.8281 0-0.15625 0.046875-0.29688 0.10938-0.39062 0.23438-0.46875 0.71875-0.78125 1.2344-0.78125 0.79688 0 1.3281 0.54688 1.3281 1.4688 0 0.90625-0.5 1.5312-1.25 1.5312z"/>
   </g>
  </g>
  <g id="g88507" transform="matrix(.35278 0 0 .35278 -92.093 -1675.5)" style="fill:#1c1c19">
   <g id="use88505" transform="translate(520.59 4941.3)">
    <path id="path111390" d="m0.5625-6.4062v0.71875h3.1406v0.015625l-2.7812 5.6719h0.89062l2.7969-5.8438v-0.5625z"/>
   </g>
  </g>
  <g id="g88513" transform="matrix(.35278 0 0 .35278 -92.093 -1675.5)" style="fill:#1c1c19">
   <g id="use88509" transform="translate(518.29 5138.2)">
    <path id="path111394" d="m0.29688-2.9844v0.64062h2.4375v-0.64062z"/>
   </g>
   <g id="use88511" transform="translate(521.37 5138.2)">
    <path id="path111398" d="m4.2656-6.4062h-3.0625l-0.42188 3.0781c0.25-0.03125 0.53125-0.078125 0.89062-0.078125 1.2812 0 1.8438 0.59375 1.8438 1.4219 0 0.85938-0.70312 1.3906-1.5156 1.3906-0.57812 0-1.1094-0.1875-1.375-0.35938l-0.20312 0.67188c0.29688 0.1875 0.89062 0.39062 1.5938 0.39062 1.3906 0 2.375-0.9375 2.375-2.1875 0-0.8125-0.40625-1.3594-0.90625-1.6562-0.39062-0.23438-0.89062-0.34375-1.3906-0.34375-0.23438 0-0.375 0.03125-0.51562 0.046875l0.25-1.6406h2.4375z"/>
   </g>
  </g>
  <g id="g88519" transform="matrix(.35278 0 0 .35278 -92.093 -1675.5)" style="fill:#1c1c19">
   <g id="use88515" transform="translate(518.29 5154.5)">
    <path id="path111402" d="m0.29688-2.9844v0.64062h2.4375v-0.64062z"/>
   </g>
   <g id="use88517" transform="translate(521.37 5154.5)">
    <path id="path111406" d="m4.0938-6.5c-0.15625 0-0.35938 0-0.625 0.046875-0.8125 0.09375-1.5156 0.42188-2.0469 0.9375-0.64062 0.64062-1.0938 1.625-1.0938 2.8906 0 1.6719 0.90625 2.7344 2.2812 2.7344 1.3281 0 2.125-1.0781 2.125-2.2656 0-1.25-0.79688-2.0625-1.9375-2.0625-0.70312 0-1.2344 0.32812-1.5469 0.73438h-0.03125c0.15625-1.0469 0.875-2.0469 2.2344-2.2812 0.25-0.03125 0.46875-0.046875 0.64062-0.03125zm-1.4844 5.9375c-0.90625 0-1.3906-0.78125-1.4219-1.8281 0-0.15625 0.046875-0.29688 0.10938-0.39062 0.23438-0.46875 0.71875-0.78125 1.2344-0.78125 0.79688 0 1.3281 0.54688 1.3281 1.4688 0 0.90625-0.5 1.5312-1.25 1.5312z"/>
   </g>
  </g>
  <g id="g88525" transform="matrix(.35278 0 0 .35278 -92.093 -1675.5)" style="fill:#1c1c19">
   <g id="use88521" transform="translate(518.29 5170.9)">
    <path id="path111410" d="m0.29688-2.9844v0.64062h2.4375v-0.64062z"/>
   </g>
   <g id="use88523" transform="translate(521.37 5170.9)">
    <path id="path111414" d="m0.5625-6.4062v0.71875h3.1406v0.015625l-2.7812 5.6719h0.89062l2.7969-5.8438v-0.5625z"/>
   </g>
  </g>
  <g id="g88531" transform="matrix(.35278 0 0 .35278 -92.093 -1675.5)" style="fill:#1c1c19">
   <g id="use88527" transform="translate(446.51 5066.2)">
    <path id="path111418" d="m0.29688-2.9844v0.64062h2.4375v-0.64062z"/>
   </g>
   <g id="use88529" transform="translate(449.59 5066.2)">
    <path id="path111422" d="m4.2656-6.4062h-3.0625l-0.42188 3.0781c0.25-0.03125 0.53125-0.078125 0.89062-0.078125 1.2812 0 1.8438 0.59375 1.8438 1.4219 0 0.85938-0.70312 1.3906-1.5156 1.3906-0.57812 0-1.1094-0.1875-1.375-0.35938l-0.20312 0.67188c0.29688 0.1875 0.89062 0.39062 1.5938 0.39062 1.3906 0 2.375-0.9375 2.375-2.1875 0-0.8125-0.40625-1.3594-0.90625-1.6562-0.39062-0.23438-0.89062-0.34375-1.3906-0.34375-0.23438 0-0.375 0.03125-0.51562 0.046875l0.25-1.6406h2.4375z"/>
   </g>
  </g>
  <g id="g88537" transform="matrix(.35278 0 0 .35278 -92.093 -1675.5)" style="fill:#1c1c19">
   <g id="use88533" transform="translate(430.13 5066.2)">
    <path id="path111426" d="m0.29688-2.9844v0.64062h2.4375v-0.64062z"/>
   </g>
   <g id="use88535" transform="translate(433.21 5066.2)">
    <path id="path111430" d="m4.0938-6.5c-0.15625 0-0.35938 0-0.625 0.046875-0.8125 0.09375-1.5156 0.42188-2.0469 0.9375-0.64062 0.64062-1.0938 1.625-1.0938 2.8906 0 1.6719 0.90625 2.7344 2.2812 2.7344 1.3281 0 2.125-1.0781 2.125-2.2656 0-1.25-0.79688-2.0625-1.9375-2.0625-0.70312 0-1.2344 0.32812-1.5469 0.73438h-0.03125c0.15625-1.0469 0.875-2.0469 2.2344-2.2812 0.25-0.03125 0.46875-0.046875 0.64062-0.03125zm-1.4844 5.9375c-0.90625 0-1.3906-0.78125-1.4219-1.8281 0-0.15625 0.046875-0.29688 0.10938-0.39062 0.23438-0.46875 0.71875-0.78125 1.2344-0.78125 0.79688 0 1.3281 0.54688 1.3281 1.4688 0 0.90625-0.5 1.5312-1.25 1.5312z"/>
   </g>
  </g>
  <g id="g88543" transform="matrix(.35278 0 0 .35278 -92.093 -1675.5)" style="fill:#1c1c19">
   <g id="use88539" transform="translate(413.75 5066.2)">
    <path id="path111434" d="m0.29688-2.9844v0.64062h2.4375v-0.64062z"/>
   </g>
   <g id="use88541" transform="translate(416.83 5066.2)">
    <path id="path111438" d="m0.5625-6.4062v0.71875h3.1406v0.015625l-2.7812 5.6719h0.89062l2.7969-5.8438v-0.5625z"/>
   </g>
  </g>
 </g>
</svg>
