<svg id="svg68056" version="1.1" viewBox="0 0 65.045 78.759" xmlns="http://www.w3.org/2000/svg">
 <title id="title68571">img_48</title>
 <g id="layer1" transform="translate(-44.585 -52.091)">
  <g id="g58018" transform="matrix(.35278 0 0 .35278 20.974 -729.74)">
   <g id="use58014" transform="translate(65.819 2230.8)">
    <path id="path67547" d="m2.375-8.2188 0.53125-2.5c2.4141-1.0625 4.2812-2.2891 5.5938-3.6875h1.7188l-3.0156 14.406h-2.8281l2.0781-9.9219c-0.58594 0.375-1.2617 0.71875-2.0312 1.0312-0.76172 0.3125-1.4453 0.53906-2.0469 0.67188z"/>
   </g>
   <g id="use58016" transform="translate(77.039 2230.8)">
    <path id="path67551" d="m2.3594-14.562h1.9062c0.53125 1.2422 0.92188 2.5 1.1719 3.7812 0.25781 1.2734 0.39062 2.4336 0.39062 3.4844 0 1.3359-0.21484 2.668-0.64062 4-0.42969 1.3359-1.0781 2.6992-1.9531 4.0938-0.5625 0.88281-1.4531 2.0195-2.6719 3.4062h-2.125c1.2422-1.4609 2.1914-2.8281 2.8594-4.1094 0.67578-1.2695 1.1797-2.6602 1.5156-4.1719 0.33203-1.5078 0.5-2.9922 0.5-4.4531 0-0.97656-0.074219-1.9258-0.21875-2.8438-0.14844-0.92578-0.39062-1.9883-0.73438-3.1875z"/>
   </g>
  </g>
  <g id="g58068" transform="matrix(.35278 0 0 .35278 20.974 -729.74)">
   <g id="use58020" transform="translate(65.819 2265.5)"></g>
   <g id="use58022" transform="translate(71.479 2265.5)"></g>
   <g id="use58024" transform="translate(77.139 2265.5)"></g>
   <g id="use58026" transform="translate(82.799 2265.5)">
    <path id="path67567" d="m10.062-1.6875v1.6875h-9.4531c-0.011719-0.42578 0.054688-0.83203 0.20312-1.2188 0.23828-0.64453 0.625-1.2812 1.1562-1.9062s1.2969-1.3477 2.2969-2.1719c1.5625-1.2695 2.6133-2.2734 3.1562-3.0156 0.55078-0.75 0.82812-1.457 0.82812-2.125 0-0.69531-0.25-1.2852-0.75-1.7656-0.5-0.47656-1.1523-0.71875-1.9531-0.71875-0.84375 0-1.5234 0.25781-2.0312 0.76562-0.51172 0.51172-0.76562 1.2148-0.76562 2.1094l-1.8125-0.1875c0.125-1.3438 0.58594-2.3672 1.3906-3.0781 0.8125-0.70703 1.8984-1.0625 3.2656-1.0625 1.3633 0 2.4453 0.38281 3.25 1.1406 0.80078 0.76172 1.2031 1.7031 1.2031 2.8281 0 0.57422-0.12109 1.1406-0.35938 1.7031-0.23047 0.55469-0.61719 1.1367-1.1562 1.75-0.54297 0.60547-1.4453 1.4453-2.7031 2.5156-1.0625 0.88672-1.7461 1.4844-2.0469 1.7969-0.29297 0.3125-0.53906 0.63281-0.73438 0.95312z"/>
   </g>
   <g id="use58028" transform="translate(94.019 2265.5)"></g>
   <g id="use58030" transform="translate(99.679 2265.5)">
    <path id="path67575" d="m2.3281-6.2188v-2h2v2z"/>
   </g>
   <g id="use58032" transform="translate(106.44 2265.5)"></g>
   <g id="use58034" transform="translate(112.1 2265.5)">
    <path id="path67583" d="m4.6719 4.2031c-0.96875-1.2188-1.7891-2.6484-2.4531-4.2812-0.66797-1.6445-1-3.3477-1-5.1094 0-1.5508 0.25-3.0352 0.75-4.4531 0.58203-1.6445 1.4844-3.2852 2.7031-4.9219h1.2656c-0.79297 1.3555-1.3125 2.3242-1.5625 2.9062-0.39844 0.89844-0.71094 1.8359-0.9375 2.8125-0.28125 1.2188-0.42188 2.4453-0.42188 3.6719 0 3.125 0.97266 6.25 2.9219 9.375z"/>
   </g>
   <g id="use58036" transform="translate(118.86 2265.5)">
    <path id="path67587" d="m0.82812-3.75 1.8438-0.15625c0.13281 0.89844 0.45312 1.5742 0.95312 2.0312 0.5 0.44922 1.1016 0.67188 1.8125 0.67188 0.84375 0 1.5547-0.31641 2.1406-0.95312 0.58203-0.63281 0.875-1.4844 0.875-2.5469 0-1-0.28125-1.7852-0.84375-2.3594-0.5625-0.58203-1.2969-0.875-2.2031-0.875-0.57422 0-1.0898 0.13281-1.5469 0.39062-0.44922 0.25-0.80469 0.58594-1.0625 1l-1.6562-0.21875 1.3906-7.3594h7.125v1.6875h-5.7188l-0.76562 3.8438c0.85156-0.60156 1.7539-0.90625 2.7031-0.90625 1.25 0 2.3008 0.4375 3.1562 1.3125 0.86328 0.86719 1.2969 1.9766 1.2969 3.3281 0 1.3047-0.38281 2.4219-1.1406 3.3594-0.91797 1.168-2.168 1.75-3.75 1.75-1.3047 0-2.3711-0.36328-3.2031-1.0938-0.82422-0.72656-1.293-1.6953-1.4062-2.9062z"/>
   </g>
   <g id="use58038" transform="translate(130.08 2265.5)"></g>
   <g id="use58040" transform="translate(135.74 2265.5)">
    <path id="path67595" d="m5.0156-2.3125v-3.9219h-3.9062v-1.6406h3.9062v-3.9062h1.6562v3.9062h3.8906v1.6406h-3.8906v3.9219z"/>
   </g>
   <g id="use58042" transform="translate(147.52 2265.5)"></g>
   <g id="use58044" transform="translate(153.18 2265.5)">
    <path id="path67603" d="m0.84375-3.7812 1.75-0.23438c0.20703 1 0.55078 1.7188 1.0312 2.1562 0.48828 0.4375 1.082 0.65625 1.7812 0.65625 0.82031 0 1.5156-0.28516 2.0781-0.85938 0.57031-0.57031 0.85938-1.2812 0.85938-2.125 0-0.8125-0.26562-1.4766-0.79688-2-0.52344-0.51953-1.1875-0.78125-2-0.78125-0.33594 0-0.74609 0.0625-1.2344 0.1875l0.1875-1.5469c0.11328 0.023437 0.20703 0.03125 0.28125 0.03125 0.75 0 1.4219-0.19141 2.0156-0.57812 0.60156-0.39453 0.90625-1 0.90625-1.8125 0-0.64453-0.21875-1.1797-0.65625-1.6094-0.4375-0.42578-1-0.64062-1.6875-0.64062-0.67969 0-1.2461 0.21875-1.7031 0.65625-0.46094 0.42969-0.75 1.0703-0.875 1.9219l-1.7656-0.3125c0.21875-1.1758 0.70703-2.0859 1.4688-2.7344 0.75781-0.64453 1.707-0.96875 2.8438-0.96875 0.78125 0 1.5 0.16797 2.1562 0.5 0.65625 0.33594 1.1562 0.79297 1.5 1.375 0.35156 0.58594 0.53125 1.1992 0.53125 1.8438 0 0.61719-0.16797 1.1797-0.5 1.6875-0.33594 0.51172-0.82422 0.91797-1.4688 1.2188 0.84375 0.1875 1.5 0.59375 1.9688 1.2188 0.46875 0.61719 0.70312 1.3828 0.70312 2.2969 0 1.25-0.46094 2.3125-1.375 3.1875-0.90625 0.86719-2.0586 1.2969-3.4531 1.2969-1.2617 0-2.3086-0.375-3.1406-1.125-0.82422-0.75-1.293-1.7188-1.4062-2.9062z"/>
   </g>
   <g id="use58046" transform="translate(164.4 2265.5)"></g>
   <g id="use58048" transform="translate(170.06 2265.5)">
    <path id="path67611" d="m0.64062-4.2969v-1.7656h5.3906v1.7656z"/>
   </g>
   <g id="use58050" transform="translate(176.82 2265.5)"></g>
   <g id="use58052" transform="translate(182.48 2265.5)">
    <path id="path67619" d="m10.062-1.6875v1.6875h-9.4531c-0.011719-0.42578 0.054688-0.83203 0.20312-1.2188 0.23828-0.64453 0.625-1.2812 1.1562-1.9062s1.2969-1.3477 2.2969-2.1719c1.5625-1.2695 2.6133-2.2734 3.1562-3.0156 0.55078-0.75 0.82812-1.457 0.82812-2.125 0-0.69531-0.25-1.2852-0.75-1.7656-0.5-0.47656-1.1523-0.71875-1.9531-0.71875-0.84375 0-1.5234 0.25781-2.0312 0.76562-0.51172 0.51172-0.76562 1.2148-0.76562 2.1094l-1.8125-0.1875c0.125-1.3438 0.58594-2.3672 1.3906-3.0781 0.8125-0.70703 1.8984-1.0625 3.2656-1.0625 1.3633 0 2.4453 0.38281 3.25 1.1406 0.80078 0.76172 1.2031 1.7031 1.2031 2.8281 0 0.57422-0.12109 1.1406-0.35938 1.7031-0.23047 0.55469-0.61719 1.1367-1.1562 1.75-0.54297 0.60547-1.4453 1.4453-2.7031 2.5156-1.0625 0.88672-1.7461 1.4844-2.0469 1.7969-0.29297 0.3125-0.53906 0.63281-0.73438 0.95312z"/>
   </g>
   <g id="use58054" transform="translate(193.7 2265.5)">
    <path id="path67623" d="m2.4688 4.2031h-1.25c1.9375-3.125 2.9062-6.25 2.9062-9.375 0-1.2266-0.13672-2.4414-0.40625-3.6406-0.23047-0.97656-0.54297-1.9141-0.9375-2.8125-0.25-0.59375-0.77344-1.5703-1.5625-2.9375h1.25c1.2266 1.6367 2.1328 3.2773 2.7188 4.9219 0.5 1.418 0.75 2.9023 0.75 4.4531 0 1.7617-0.33984 3.4648-1.0156 5.1094-0.66797 1.6328-1.4844 3.0625-2.4531 4.2812z"/>
   </g>
   <g id="use58056" transform="translate(200.46 2265.5)"></g>
   <g id="use58058" transform="translate(206.12 2265.5)">
    <path id="path67631" d="m0.64062-4.2969v-1.7656h5.3906v1.7656z"/>
   </g>
   <g id="use58060" transform="translate(212.88 2265.5)"></g>
   <g id="use58062" transform="translate(218.54 2265.5)">
    <path id="path67639" d="m7.4531 0h-1.7656v-11.203c-0.41797 0.40625-0.96875 0.8125-1.6562 1.2188-0.6875 0.39844-1.3086 0.69922-1.8594 0.90625v-1.7031c0.98828-0.45703 1.8477-1.0156 2.5781-1.6719 0.73828-0.66406 1.2578-1.3047 1.5625-1.9219h1.1406z"/>
   </g>
   <g id="use58064" transform="translate(229.76 2265.5)">
    <path id="path67643" d="m0.82812-3.75 1.8438-0.15625c0.13281 0.89844 0.45312 1.5742 0.95312 2.0312 0.5 0.44922 1.1016 0.67188 1.8125 0.67188 0.84375 0 1.5547-0.31641 2.1406-0.95312 0.58203-0.63281 0.875-1.4844 0.875-2.5469 0-1-0.28125-1.7852-0.84375-2.3594-0.5625-0.58203-1.2969-0.875-2.2031-0.875-0.57422 0-1.0898 0.13281-1.5469 0.39062-0.44922 0.25-0.80469 0.58594-1.0625 1l-1.6562-0.21875 1.3906-7.3594h7.125v1.6875h-5.7188l-0.76562 3.8438c0.85156-0.60156 1.7539-0.90625 2.7031-0.90625 1.25 0 2.3008 0.4375 3.1562 1.3125 0.86328 0.86719 1.2969 1.9766 1.2969 3.3281 0 1.3047-0.38281 2.4219-1.1406 3.3594-0.91797 1.168-2.168 1.75-3.75 1.75-1.3047 0-2.3711-0.36328-3.2031-1.0938-0.82422-0.72656-1.293-1.6953-1.4062-2.9062z"/>
   </g>
   <g id="use58066" transform="translate(240.98 2265.5)">
    <path id="path67647" d="m0.82812-3.75 1.8438-0.15625c0.13281 0.89844 0.45312 1.5742 0.95312 2.0312 0.5 0.44922 1.1016 0.67188 1.8125 0.67188 0.84375 0 1.5547-0.31641 2.1406-0.95312 0.58203-0.63281 0.875-1.4844 0.875-2.5469 0-1-0.28125-1.7852-0.84375-2.3594-0.5625-0.58203-1.2969-0.875-2.2031-0.875-0.57422 0-1.0898 0.13281-1.5469 0.39062-0.44922 0.25-0.80469 0.58594-1.0625 1l-1.6562-0.21875 1.3906-7.3594h7.125v1.6875h-5.7188l-0.76562 3.8438c0.85156-0.60156 1.7539-0.90625 2.7031-0.90625 1.25 0 2.3008 0.4375 3.1562 1.3125 0.86328 0.86719 1.2969 1.9766 1.2969 3.3281 0 1.3047-0.38281 2.4219-1.1406 3.3594-0.91797 1.168-2.168 1.75-3.75 1.75-1.3047 0-2.3711-0.36328-3.2031-1.0938-0.82422-0.72656-1.293-1.6953-1.4062-2.9062z"/>
   </g>
  </g>
  <g id="g58108" transform="matrix(.35278 0 0 .35278 20.974 -729.74)">
   <g id="use58070" transform="translate(65.819 2300.3)">
    <path id="path67651" d="m10.562-8.4219h-9.4531v-1.6406h9.4531zm0 4.3438h-9.4531v-1.6406h9.4531z"/>
   </g>
   <g id="use58072" transform="translate(77.599 2300.3)"></g>
   <g id="use58074" transform="translate(83.259 2300.3)">
    <path id="path67659" d="m10.062-1.6875v1.6875h-9.4531c-0.011719-0.42578 0.054688-0.83203 0.20312-1.2188 0.23828-0.64453 0.625-1.2812 1.1562-1.9062s1.2969-1.3477 2.2969-2.1719c1.5625-1.2695 2.6133-2.2734 3.1562-3.0156 0.55078-0.75 0.82812-1.457 0.82812-2.125 0-0.69531-0.25-1.2852-0.75-1.7656-0.5-0.47656-1.1523-0.71875-1.9531-0.71875-0.84375 0-1.5234 0.25781-2.0312 0.76562-0.51172 0.51172-0.76562 1.2148-0.76562 2.1094l-1.8125-0.1875c0.125-1.3438 0.58594-2.3672 1.3906-3.0781 0.8125-0.70703 1.8984-1.0625 3.2656-1.0625 1.3633 0 2.4453 0.38281 3.25 1.1406 0.80078 0.76172 1.2031 1.7031 1.2031 2.8281 0 0.57422-0.12109 1.1406-0.35938 1.7031-0.23047 0.55469-0.61719 1.1367-1.1562 1.75-0.54297 0.60547-1.4453 1.4453-2.7031 2.5156-1.0625 0.88672-1.7461 1.4844-2.0469 1.7969-0.29297 0.3125-0.53906 0.63281-0.73438 0.95312z"/>
   </g>
   <g id="use58076" transform="translate(94.479 2300.3)"></g>
   <g id="use58078" transform="translate(100.14 2300.3)">
    <path id="path67667" d="m2.3281-6.2188v-2h2v2z"/>
   </g>
   <g id="use58080" transform="translate(106.9 2300.3)"></g>
   <g id="use58082" transform="translate(112.56 2300.3)">
    <path id="path67675" d="m4.6719 4.2031c-0.96875-1.2188-1.7891-2.6484-2.4531-4.2812-0.66797-1.6445-1-3.3477-1-5.1094 0-1.5508 0.25-3.0352 0.75-4.4531 0.58203-1.6445 1.4844-3.2852 2.7031-4.9219h1.2656c-0.79297 1.3555-1.3125 2.3242-1.5625 2.9062-0.39844 0.89844-0.71094 1.8359-0.9375 2.8125-0.28125 1.2188-0.42188 2.4453-0.42188 3.6719 0 3.125 0.97266 6.25 2.9219 9.375z"/>
   </g>
   <g id="use58084" transform="translate(119.32 2300.3)">
    <path id="path67679" d="m3.5312-7.7656c-0.73047-0.26953-1.2734-0.64844-1.625-1.1406-0.34375-0.5-0.51562-1.0938-0.51562-1.7812 0-1.0391 0.375-1.9141 1.125-2.625 0.75-0.70703 1.7422-1.0625 2.9844-1.0625 1.25 0 2.2539 0.36719 3.0156 1.0938 0.75781 0.71875 1.1406 1.6016 1.1406 2.6406 0 0.66797-0.17969 1.2461-0.53125 1.7344-0.34375 0.49219-0.87109 0.87109-1.5781 1.1406 0.88281 0.29297 1.5547 0.75781 2.0156 1.3906 0.45703 0.63672 0.6875 1.3984 0.6875 2.2812 0 1.2305-0.4375 2.2617-1.3125 3.0938-0.86719 0.83594-2 1.25-3.4062 1.25-1.418 0-2.5586-0.41406-3.4219-1.25-0.86719-0.84375-1.2969-1.8906-1.2969-3.1406 0-0.92578 0.23438-1.7031 0.70312-2.3281 0.47656-0.63281 1.1484-1.0664 2.0156-1.2969zm-0.34375-2.9844c0 0.67969 0.21875 1.2344 0.65625 1.6719 0.4375 0.42969 1 0.64062 1.6875 0.64062 0.67578 0 1.2344-0.21094 1.6719-0.64062 0.4375-0.42578 0.65625-0.94531 0.65625-1.5625 0-0.64453-0.22656-1.1875-0.67188-1.625-0.44922-0.44531-1.0078-0.67188-1.6719-0.67188-0.66797 0-1.2266 0.21875-1.6719 0.65625-0.4375 0.42969-0.65625 0.9375-0.65625 1.5312zm-0.5625 6.625c0 0.5 0.11328 0.98438 0.34375 1.4531 0.23828 0.46875 0.59375 0.83594 1.0625 1.0938 0.46875 0.25 0.97266 0.375 1.5156 0.375 0.84375 0 1.5352-0.26953 2.0781-0.8125 0.55078-0.53906 0.82812-1.2266 0.82812-2.0625 0-0.84375-0.28125-1.5391-0.84375-2.0938-0.5625-0.55078-1.2734-0.82812-2.125-0.82812-0.82422 0-1.5078 0.27734-2.0469 0.82812-0.54297 0.54297-0.8125 1.2266-0.8125 2.0469z"/>
   </g>
   <g id="use58086" transform="translate(130.54 2300.3)"></g>
   <g id="use58088" transform="translate(136.2 2300.3)">
    <path id="path67687" d="m0.64062-4.2969v-1.7656h5.3906v1.7656z"/>
   </g>
   <g id="use58090" transform="translate(142.96 2300.3)"></g>
   <g id="use58092" transform="translate(148.62 2300.3)">
    <path id="path67695" d="m10.062-1.6875v1.6875h-9.4531c-0.011719-0.42578 0.054688-0.83203 0.20312-1.2188 0.23828-0.64453 0.625-1.2812 1.1562-1.9062s1.2969-1.3477 2.2969-2.1719c1.5625-1.2695 2.6133-2.2734 3.1562-3.0156 0.55078-0.75 0.82812-1.457 0.82812-2.125 0-0.69531-0.25-1.2852-0.75-1.7656-0.5-0.47656-1.1523-0.71875-1.9531-0.71875-0.84375 0-1.5234 0.25781-2.0312 0.76562-0.51172 0.51172-0.76562 1.2148-0.76562 2.1094l-1.8125-0.1875c0.125-1.3438 0.58594-2.3672 1.3906-3.0781 0.8125-0.70703 1.8984-1.0625 3.2656-1.0625 1.3633 0 2.4453 0.38281 3.25 1.1406 0.80078 0.76172 1.2031 1.7031 1.2031 2.8281 0 0.57422-0.12109 1.1406-0.35938 1.7031-0.23047 0.55469-0.61719 1.1367-1.1562 1.75-0.54297 0.60547-1.4453 1.4453-2.7031 2.5156-1.0625 0.88672-1.7461 1.4844-2.0469 1.7969-0.29297 0.3125-0.53906 0.63281-0.73438 0.95312z"/>
   </g>
   <g id="use58094" transform="translate(159.84 2300.3)">
    <path id="path67699" d="m2.4688 4.2031h-1.25c1.9375-3.125 2.9062-6.25 2.9062-9.375 0-1.2266-0.13672-2.4414-0.40625-3.6406-0.23047-0.97656-0.54297-1.9141-0.9375-2.8125-0.25-0.59375-0.77344-1.5703-1.5625-2.9375h1.25c1.2266 1.6367 2.1328 3.2773 2.7188 4.9219 0.5 1.418 0.75 2.9023 0.75 4.4531 0 1.7617-0.33984 3.4648-1.0156 5.1094-0.66797 1.6328-1.4844 3.0625-2.4531 4.2812z"/>
   </g>
   <g id="use58096" transform="translate(166.6 2300.3)"></g>
   <g id="use58098" transform="translate(172.26 2300.3)">
    <path id="path67707" d="m0.64062-4.2969v-1.7656h5.3906v1.7656z"/>
   </g>
   <g id="use58100" transform="translate(179.02 2300.3)"></g>
   <g id="use58102" transform="translate(184.68 2300.3)">
    <path id="path67715" d="m7.4531 0h-1.7656v-11.203c-0.41797 0.40625-0.96875 0.8125-1.6562 1.2188-0.6875 0.39844-1.3086 0.69922-1.8594 0.90625v-1.7031c0.98828-0.45703 1.8477-1.0156 2.5781-1.6719 0.73828-0.66406 1.2578-1.3047 1.5625-1.9219h1.1406z"/>
   </g>
   <g id="use58104" transform="translate(195.9 2300.3)">
    <path id="path67719" d="m0.82812-3.75 1.8438-0.15625c0.13281 0.89844 0.45312 1.5742 0.95312 2.0312 0.5 0.44922 1.1016 0.67188 1.8125 0.67188 0.84375 0 1.5547-0.31641 2.1406-0.95312 0.58203-0.63281 0.875-1.4844 0.875-2.5469 0-1-0.28125-1.7852-0.84375-2.3594-0.5625-0.58203-1.2969-0.875-2.2031-0.875-0.57422 0-1.0898 0.13281-1.5469 0.39062-0.44922 0.25-0.80469 0.58594-1.0625 1l-1.6562-0.21875 1.3906-7.3594h7.125v1.6875h-5.7188l-0.76562 3.8438c0.85156-0.60156 1.7539-0.90625 2.7031-0.90625 1.25 0 2.3008 0.4375 3.1562 1.3125 0.86328 0.86719 1.2969 1.9766 1.2969 3.3281 0 1.3047-0.38281 2.4219-1.1406 3.3594-0.91797 1.168-2.168 1.75-3.75 1.75-1.3047 0-2.3711-0.36328-3.2031-1.0938-0.82422-0.72656-1.293-1.6953-1.4062-2.9062z"/>
   </g>
   <g id="use58106" transform="translate(207.12 2300.3)">
    <path id="path67723" d="m0.82812-3.75 1.8438-0.15625c0.13281 0.89844 0.45312 1.5742 0.95312 2.0312 0.5 0.44922 1.1016 0.67188 1.8125 0.67188 0.84375 0 1.5547-0.31641 2.1406-0.95312 0.58203-0.63281 0.875-1.4844 0.875-2.5469 0-1-0.28125-1.7852-0.84375-2.3594-0.5625-0.58203-1.2969-0.875-2.2031-0.875-0.57422 0-1.0898 0.13281-1.5469 0.39062-0.44922 0.25-0.80469 0.58594-1.0625 1l-1.6562-0.21875 1.3906-7.3594h7.125v1.6875h-5.7188l-0.76562 3.8438c0.85156-0.60156 1.7539-0.90625 2.7031-0.90625 1.25 0 2.3008 0.4375 3.1562 1.3125 0.86328 0.86719 1.2969 1.9766 1.2969 3.3281 0 1.3047-0.38281 2.4219-1.1406 3.3594-0.91797 1.168-2.168 1.75-3.75 1.75-1.3047 0-2.3711-0.36328-3.2031-1.0938-0.82422-0.72656-1.293-1.6953-1.4062-2.9062z"/>
   </g>
  </g>
  <g id="g58140" transform="matrix(.35278 0 0 .35278 20.974 -729.74)">
   <g id="use58110" transform="translate(65.819 2335)">
    <path id="path67727" d="m10.562-8.4219h-9.4531v-1.6406h9.4531zm0 4.3438h-9.4531v-1.6406h9.4531z"/>
   </g>
   <g id="use58112" transform="translate(77.599 2335)"></g>
   <g id="use58114" transform="translate(83.259 2335)">
    <path id="path67735" d="m10.062-1.6875v1.6875h-9.4531c-0.011719-0.42578 0.054688-0.83203 0.20312-1.2188 0.23828-0.64453 0.625-1.2812 1.1562-1.9062s1.2969-1.3477 2.2969-2.1719c1.5625-1.2695 2.6133-2.2734 3.1562-3.0156 0.55078-0.75 0.82812-1.457 0.82812-2.125 0-0.69531-0.25-1.2852-0.75-1.7656-0.5-0.47656-1.1523-0.71875-1.9531-0.71875-0.84375 0-1.5234 0.25781-2.0312 0.76562-0.51172 0.51172-0.76562 1.2148-0.76562 2.1094l-1.8125-0.1875c0.125-1.3438 0.58594-2.3672 1.3906-3.0781 0.8125-0.70703 1.8984-1.0625 3.2656-1.0625 1.3633 0 2.4453 0.38281 3.25 1.1406 0.80078 0.76172 1.2031 1.7031 1.2031 2.8281 0 0.57422-0.12109 1.1406-0.35938 1.7031-0.23047 0.55469-0.61719 1.1367-1.1562 1.75-0.54297 0.60547-1.4453 1.4453-2.7031 2.5156-1.0625 0.88672-1.7461 1.4844-2.0469 1.7969-0.29297 0.3125-0.53906 0.63281-0.73438 0.95312z"/>
   </g>
   <g id="use58116" transform="translate(94.479 2335)"></g>
   <g id="use58118" transform="translate(100.14 2335)">
    <path id="path67743" d="m2.3281-6.2188v-2h2v2z"/>
   </g>
   <g id="use58120" transform="translate(106.9 2335)"></g>
   <g id="use58122" transform="translate(112.56 2335)">
    <path id="path67751" d="m4.6719 4.2031c-0.96875-1.2188-1.7891-2.6484-2.4531-4.2812-0.66797-1.6445-1-3.3477-1-5.1094 0-1.5508 0.25-3.0352 0.75-4.4531 0.58203-1.6445 1.4844-3.2852 2.7031-4.9219h1.2656c-0.79297 1.3555-1.3125 2.3242-1.5625 2.9062-0.39844 0.89844-0.71094 1.8359-0.9375 2.8125-0.28125 1.2188-0.42188 2.4453-0.42188 3.6719 0 3.125 0.97266 6.25 2.9219 9.375z"/>
   </g>
   <g id="use58124" transform="translate(119.32 2335)">
    <path id="path67755" d="m9.9531-10.812-1.75 0.14062c-0.15625-0.6875-0.375-1.1875-0.65625-1.5-0.48047-0.50781-1.0703-0.76562-1.7656-0.76562-0.5625 0-1.0547 0.15625-1.4688 0.46875-0.55469 0.40625-0.99219 1-1.3125 1.7812-0.32422 0.77344-0.49219 1.8711-0.5 3.2969 0.42578-0.63281 0.94141-1.1094 1.5469-1.4219 0.61328-0.3125 1.2578-0.46875 1.9375-0.46875 1.1641 0 2.1602 0.43359 2.9844 1.2969 0.82031 0.85547 1.2344 1.9648 1.2344 3.3281 0 0.90625-0.19531 1.7461-0.57812 2.5156-0.38672 0.77344-0.91797 1.3672-1.5938 1.7812-0.67969 0.40625-1.4492 0.60938-2.3125 0.60938-1.4609 0-2.6523-0.53516-3.5781-1.6094-0.92969-1.082-1.3906-2.8633-1.3906-5.3438 0-2.7578 0.50781-4.7695 1.5312-6.0312 0.89453-1.0938 2.0977-1.6406 3.6094-1.6406 1.125 0 2.0469 0.32031 2.7656 0.95312 0.71875 0.625 1.1484 1.4961 1.2969 2.6094zm-7.1719 6.1719c0 0.60547 0.125 1.1836 0.375 1.7344 0.25781 0.55469 0.61719 0.97656 1.0781 1.2656 0.46875 0.29297 0.95312 0.4375 1.4531 0.4375 0.75 0 1.3906-0.29688 1.9219-0.89062 0.53125-0.60156 0.79688-1.4219 0.79688-2.4531 0-0.98828-0.26562-1.7656-0.79688-2.3281-0.52344-0.57031-1.1836-0.85938-1.9844-0.85938-0.79297 0-1.4648 0.28906-2.0156 0.85938-0.55469 0.5625-0.82812 1.3086-0.82812 2.2344z"/>
   </g>
   <g id="use58126" transform="translate(130.54 2335)">
    <path id="path67759" d="m2.4688 4.2031h-1.25c1.9375-3.125 2.9062-6.25 2.9062-9.375 0-1.2266-0.13672-2.4414-0.40625-3.6406-0.23047-0.97656-0.54297-1.9141-0.9375-2.8125-0.25-0.59375-0.77344-1.5703-1.5625-2.9375h1.25c1.2266 1.6367 2.1328 3.2773 2.7188 4.9219 0.5 1.418 0.75 2.9023 0.75 4.4531 0 1.7617-0.33984 3.4648-1.0156 5.1094-0.66797 1.6328-1.4844 3.0625-2.4531 4.2812z"/>
   </g>
   <g id="use58128" transform="translate(137.3 2335)"></g>
   <g id="use58130" transform="translate(142.96 2335)">
    <path id="path67767" d="m0.64062-4.2969v-1.7656h5.3906v1.7656z"/>
   </g>
   <g id="use58132" transform="translate(149.72 2335)"></g>
   <g id="use58134" transform="translate(155.38 2335)">
    <path id="path67775" d="m7.4531 0h-1.7656v-11.203c-0.41797 0.40625-0.96875 0.8125-1.6562 1.2188-0.6875 0.39844-1.3086 0.69922-1.8594 0.90625v-1.7031c0.98828-0.45703 1.8477-1.0156 2.5781-1.6719 0.73828-0.66406 1.2578-1.3047 1.5625-1.9219h1.1406z"/>
   </g>
   <g id="use58136" transform="translate(166.6 2335)">
    <path id="path67779" d="m0.82812-3.75 1.8438-0.15625c0.13281 0.89844 0.45312 1.5742 0.95312 2.0312 0.5 0.44922 1.1016 0.67188 1.8125 0.67188 0.84375 0 1.5547-0.31641 2.1406-0.95312 0.58203-0.63281 0.875-1.4844 0.875-2.5469 0-1-0.28125-1.7852-0.84375-2.3594-0.5625-0.58203-1.2969-0.875-2.2031-0.875-0.57422 0-1.0898 0.13281-1.5469 0.39062-0.44922 0.25-0.80469 0.58594-1.0625 1l-1.6562-0.21875 1.3906-7.3594h7.125v1.6875h-5.7188l-0.76562 3.8438c0.85156-0.60156 1.7539-0.90625 2.7031-0.90625 1.25 0 2.3008 0.4375 3.1562 1.3125 0.86328 0.86719 1.2969 1.9766 1.2969 3.3281 0 1.3047-0.38281 2.4219-1.1406 3.3594-0.91797 1.168-2.168 1.75-3.75 1.75-1.3047 0-2.3711-0.36328-3.2031-1.0938-0.82422-0.72656-1.293-1.6953-1.4062-2.9062z"/>
   </g>
   <g id="use58138" transform="translate(177.82 2335)">
    <path id="path67783" d="m0.82812-3.75 1.8438-0.15625c0.13281 0.89844 0.45312 1.5742 0.95312 2.0312 0.5 0.44922 1.1016 0.67188 1.8125 0.67188 0.84375 0 1.5547-0.31641 2.1406-0.95312 0.58203-0.63281 0.875-1.4844 0.875-2.5469 0-1-0.28125-1.7852-0.84375-2.3594-0.5625-0.58203-1.2969-0.875-2.2031-0.875-0.57422 0-1.0898 0.13281-1.5469 0.39062-0.44922 0.25-0.80469 0.58594-1.0625 1l-1.6562-0.21875 1.3906-7.3594h7.125v1.6875h-5.7188l-0.76562 3.8438c0.85156-0.60156 1.7539-0.90625 2.7031-0.90625 1.25 0 2.3008 0.4375 3.1562 1.3125 0.86328 0.86719 1.2969 1.9766 1.2969 3.3281 0 1.3047-0.38281 2.4219-1.1406 3.3594-0.91797 1.168-2.168 1.75-3.75 1.75-1.3047 0-2.3711-0.36328-3.2031-1.0938-0.82422-0.72656-1.293-1.6953-1.4062-2.9062z"/>
   </g>
  </g>
  <g id="g58162" transform="matrix(.35278 0 0 .35278 20.974 -729.74)">
   <g id="use58142" transform="translate(65.819 2369.7)">
    <path id="path67787" d="m10.562-8.4219h-9.4531v-1.6406h9.4531zm0 4.3438h-9.4531v-1.6406h9.4531z"/>
   </g>
   <g id="use58144" transform="translate(77.599 2369.7)"></g>
   <g id="use58146" transform="translate(83.259 2369.7)">
    <path id="path67795" d="m7.4531 0h-1.7656v-11.203c-0.41797 0.40625-0.96875 0.8125-1.6562 1.2188-0.6875 0.39844-1.3086 0.69922-1.8594 0.90625v-1.7031c0.98828-0.45703 1.8477-1.0156 2.5781-1.6719 0.73828-0.66406 1.2578-1.3047 1.5625-1.9219h1.1406z"/>
   </g>
   <g id="use58148" transform="translate(94.479 2369.7)">
    <path id="path67799" d="m10.062-1.6875v1.6875h-9.4531c-0.011719-0.42578 0.054688-0.83203 0.20312-1.2188 0.23828-0.64453 0.625-1.2812 1.1562-1.9062s1.2969-1.3477 2.2969-2.1719c1.5625-1.2695 2.6133-2.2734 3.1562-3.0156 0.55078-0.75 0.82812-1.457 0.82812-2.125 0-0.69531-0.25-1.2852-0.75-1.7656-0.5-0.47656-1.1523-0.71875-1.9531-0.71875-0.84375 0-1.5234 0.25781-2.0312 0.76562-0.51172 0.51172-0.76562 1.2148-0.76562 2.1094l-1.8125-0.1875c0.125-1.3438 0.58594-2.3672 1.3906-3.0781 0.8125-0.70703 1.8984-1.0625 3.2656-1.0625 1.3633 0 2.4453 0.38281 3.25 1.1406 0.80078 0.76172 1.2031 1.7031 1.2031 2.8281 0 0.57422-0.12109 1.1406-0.35938 1.7031-0.23047 0.55469-0.61719 1.1367-1.1562 1.75-0.54297 0.60547-1.4453 1.4453-2.7031 2.5156-1.0625 0.88672-1.7461 1.4844-2.0469 1.7969-0.29297 0.3125-0.53906 0.63281-0.73438 0.95312z"/>
   </g>
   <g id="use58150" transform="translate(105.7 2369.7)"></g>
   <g id="use58152" transform="translate(111.36 2369.7)">
    <path id="path67807" d="m0.64062-4.2969v-1.7656h5.3906v1.7656z"/>
   </g>
   <g id="use58154" transform="translate(118.12 2369.7)"></g>
   <g id="use58156" transform="translate(123.78 2369.7)">
    <path id="path67815" d="m7.4531 0h-1.7656v-11.203c-0.41797 0.40625-0.96875 0.8125-1.6562 1.2188-0.6875 0.39844-1.3086 0.69922-1.8594 0.90625v-1.7031c0.98828-0.45703 1.8477-1.0156 2.5781-1.6719 0.73828-0.66406 1.2578-1.3047 1.5625-1.9219h1.1406z"/>
   </g>
   <g id="use58158" transform="translate(135 2369.7)">
    <path id="path67819" d="m0.82812-3.75 1.8438-0.15625c0.13281 0.89844 0.45312 1.5742 0.95312 2.0312 0.5 0.44922 1.1016 0.67188 1.8125 0.67188 0.84375 0 1.5547-0.31641 2.1406-0.95312 0.58203-0.63281 0.875-1.4844 0.875-2.5469 0-1-0.28125-1.7852-0.84375-2.3594-0.5625-0.58203-1.2969-0.875-2.2031-0.875-0.57422 0-1.0898 0.13281-1.5469 0.39062-0.44922 0.25-0.80469 0.58594-1.0625 1l-1.6562-0.21875 1.3906-7.3594h7.125v1.6875h-5.7188l-0.76562 3.8438c0.85156-0.60156 1.7539-0.90625 2.7031-0.90625 1.25 0 2.3008 0.4375 3.1562 1.3125 0.86328 0.86719 1.2969 1.9766 1.2969 3.3281 0 1.3047-0.38281 2.4219-1.1406 3.3594-0.91797 1.168-2.168 1.75-3.75 1.75-1.3047 0-2.3711-0.36328-3.2031-1.0938-0.82422-0.72656-1.293-1.6953-1.4062-2.9062z"/>
   </g>
   <g id="use58160" transform="translate(146.22 2369.7)">
    <path id="path67823" d="m0.82812-3.75 1.8438-0.15625c0.13281 0.89844 0.45312 1.5742 0.95312 2.0312 0.5 0.44922 1.1016 0.67188 1.8125 0.67188 0.84375 0 1.5547-0.31641 2.1406-0.95312 0.58203-0.63281 0.875-1.4844 0.875-2.5469 0-1-0.28125-1.7852-0.84375-2.3594-0.5625-0.58203-1.2969-0.875-2.2031-0.875-0.57422 0-1.0898 0.13281-1.5469 0.39062-0.44922 0.25-0.80469 0.58594-1.0625 1l-1.6562-0.21875 1.3906-7.3594h7.125v1.6875h-5.7188l-0.76562 3.8438c0.85156-0.60156 1.7539-0.90625 2.7031-0.90625 1.25 0 2.3008 0.4375 3.1562 1.3125 0.86328 0.86719 1.2969 1.9766 1.2969 3.3281 0 1.3047-0.38281 2.4219-1.1406 3.3594-0.91797 1.168-2.168 1.75-3.75 1.75-1.3047 0-2.3711-0.36328-3.2031-1.0938-0.82422-0.72656-1.293-1.6953-1.4062-2.9062z"/>
   </g>
  </g>
  <g id="g58180" transform="matrix(.35278 0 0 .35278 20.974 -729.74)">
   <g id="use58164" transform="translate(65.819 2404.5)">
    <path id="path67827" d="m10.562-8.4219h-9.4531v-1.6406h9.4531zm0 4.3438h-9.4531v-1.6406h9.4531z"/>
   </g>
   <g id="use58166" transform="translate(77.599 2404.5)"></g>
   <g id="use58168" transform="translate(83.259 2404.5)">
    <path id="path67835" d="m7.4531 0h-1.7656v-11.203c-0.41797 0.40625-0.96875 0.8125-1.6562 1.2188-0.6875 0.39844-1.3086 0.69922-1.8594 0.90625v-1.7031c0.98828-0.45703 1.8477-1.0156 2.5781-1.6719 0.73828-0.66406 1.2578-1.3047 1.5625-1.9219h1.1406z"/>
   </g>
   <g id="use58170" transform="translate(94.479 2404.5)">
    <path id="path67839" d="m10.062-1.6875v1.6875h-9.4531c-0.011719-0.42578 0.054688-0.83203 0.20312-1.2188 0.23828-0.64453 0.625-1.2812 1.1562-1.9062s1.2969-1.3477 2.2969-2.1719c1.5625-1.2695 2.6133-2.2734 3.1562-3.0156 0.55078-0.75 0.82812-1.457 0.82812-2.125 0-0.69531-0.25-1.2852-0.75-1.7656-0.5-0.47656-1.1523-0.71875-1.9531-0.71875-0.84375 0-1.5234 0.25781-2.0312 0.76562-0.51172 0.51172-0.76562 1.2148-0.76562 2.1094l-1.8125-0.1875c0.125-1.3438 0.58594-2.3672 1.3906-3.0781 0.8125-0.70703 1.8984-1.0625 3.2656-1.0625 1.3633 0 2.4453 0.38281 3.25 1.1406 0.80078 0.76172 1.2031 1.7031 1.2031 2.8281 0 0.57422-0.12109 1.1406-0.35938 1.7031-0.23047 0.55469-0.61719 1.1367-1.1562 1.75-0.54297 0.60547-1.4453 1.4453-2.7031 2.5156-1.0625 0.88672-1.7461 1.4844-2.0469 1.7969-0.29297 0.3125-0.53906 0.63281-0.73438 0.95312z"/>
   </g>
   <g id="use58172" transform="translate(105.7 2404.5)"></g>
   <g id="use58174" transform="translate(111.36 2404.5)">
    <path id="path67847" d="m0.64062-4.2969v-1.7656h5.3906v1.7656z"/>
   </g>
   <g id="use58176" transform="translate(118.12 2404.5)"></g>
   <g id="use58178" transform="translate(123.78 2404.5)">
    <path id="path67855" d="m0.84375-3.7812 1.75-0.23438c0.20703 1 0.55078 1.7188 1.0312 2.1562 0.48828 0.4375 1.082 0.65625 1.7812 0.65625 0.82031 0 1.5156-0.28516 2.0781-0.85938 0.57031-0.57031 0.85938-1.2812 0.85938-2.125 0-0.8125-0.26562-1.4766-0.79688-2-0.52344-0.51953-1.1875-0.78125-2-0.78125-0.33594 0-0.74609 0.0625-1.2344 0.1875l0.1875-1.5469c0.11328 0.023437 0.20703 0.03125 0.28125 0.03125 0.75 0 1.4219-0.19141 2.0156-0.57812 0.60156-0.39453 0.90625-1 0.90625-1.8125 0-0.64453-0.21875-1.1797-0.65625-1.6094-0.4375-0.42578-1-0.64062-1.6875-0.64062-0.67969 0-1.2461 0.21875-1.7031 0.65625-0.46094 0.42969-0.75 1.0703-0.875 1.9219l-1.7656-0.3125c0.21875-1.1758 0.70703-2.0859 1.4688-2.7344 0.75781-0.64453 1.707-0.96875 2.8438-0.96875 0.78125 0 1.5 0.16797 2.1562 0.5 0.65625 0.33594 1.1562 0.79297 1.5 1.375 0.35156 0.58594 0.53125 1.1992 0.53125 1.8438 0 0.61719-0.16797 1.1797-0.5 1.6875-0.33594 0.51172-0.82422 0.91797-1.4688 1.2188 0.84375 0.1875 1.5 0.59375 1.9688 1.2188 0.46875 0.61719 0.70312 1.3828 0.70312 2.2969 0 1.25-0.46094 2.3125-1.375 3.1875-0.90625 0.86719-2.0586 1.2969-3.4531 1.2969-1.2617 0-2.3086-0.375-3.1406-1.125-0.82422-0.75-1.293-1.7188-1.4062-2.9062z"/>
   </g>
  </g>
  <g id="g58188" transform="matrix(.35278 0 0 .35278 20.974 -729.74)">
   <g id="use58182" transform="translate(65.819 2439.2)">
    <path id="path67859" d="m10.562-8.4219h-9.4531v-1.6406h9.4531zm0 4.3438h-9.4531v-1.6406h9.4531z"/>
   </g>
   <g id="use58184" transform="translate(77.599 2439.2)"></g>
   <g id="use58186" transform="translate(83.259 2439.2)">
    <path id="path67867" d="m1.0938-3.3125 1.6875-0.15625c0.14453 0.79297 0.41406 1.3711 0.8125 1.7344 0.40625 0.35547 0.92578 0.53125 1.5625 0.53125 0.53906 0 1.0156-0.11719 1.4219-0.35938 0.40625-0.25 0.73828-0.58203 1-1 0.25781-0.41406 0.47656-0.97266 0.65625-1.6719 0.17578-0.70703 0.26562-1.4258 0.26562-2.1562 0-0.070313-0.00781-0.1875-0.015625-0.34375-0.35547 0.55469-0.83594 1.0078-1.4375 1.3594-0.60547 0.34375-1.2656 0.51562-1.9844 0.51562-1.1797 0-2.1797-0.42578-3-1.2812-0.82422-0.86328-1.2344-2-1.2344-3.4062 0-1.4453 0.42578-2.6133 1.2812-3.5 0.86328-0.88281 1.9375-1.3281 3.2188-1.3281 0.9375 0 1.7891 0.25 2.5625 0.75 0.76953 0.5 1.3516 1.2148 1.75 2.1406 0.40625 0.92969 0.60938 2.2734 0.60938 4.0312 0 1.8359-0.20312 3.293-0.60938 4.375-0.39844 1.0859-0.98438 1.9141-1.7656 2.4844-0.78125 0.5625-1.6992 0.84375-2.75 0.84375-1.125 0-2.043-0.3125-2.75-0.9375-0.71094-0.625-1.1367-1.5-1.2812-2.625zm7.2031-6.3125c0-1.0078-0.27344-1.8125-0.8125-2.4062-0.53125-0.59375-1.1797-0.89062-1.9375-0.89062-0.78125 0-1.4648 0.32422-2.0469 0.96875-0.57422 0.63672-0.85938 1.4609-0.85938 2.4688 0 0.91797 0.26953 1.6641 0.8125 2.2344 0.55078 0.5625 1.2344 0.84375 2.0469 0.84375s1.4766-0.28125 2-0.84375c0.53125-0.57031 0.79688-1.3633 0.79688-2.375z"/>
   </g>
  </g>
 </g>
</svg>
