<svg id="svg77024" version="1.1" viewBox="0 0 20.635 5.2255" xmlns="http://www.w3.org/2000/svg">
 <title id="title77068">img_74</title>
 <g id="layer1" transform="translate(-40.331 -131.95)">
  <g id="g56388" transform="matrix(.35278 0 0 .35278 1.1768 -1451.6)" style="fill:#7d7878">
   <g id="use56384" transform="translate(110.74 4503.2)">
    <path id="path76923" d="m11.969 0h-11.719l6.1406-13.547zm-2.2969-0.79688-3.9062-9.4531-4.2969 9.4531z"/>
   </g>
   <g id="use56386" transform="translate(123.08 4503.2)"></g>
  </g>
  <g id="g56396" transform="matrix(.35278 0 0 .35278 1.1768 -1451.6)" style="fill:#7d7878">
   <g id="use56390" transform="translate(127.99 4503.2)">
    <path id="path76931" d="m-0.40625 0 8.125-14.312h2.25l2.3594 14.312h-1.8438l-0.70312-4.125h-5.7812l-2.2969 4.125zm5.2188-5.5938h4.7344l-0.54688-3.5938c-0.21875-1.4258-0.35547-2.6133-0.40625-3.5625-0.32422 0.8125-0.79688 1.7891-1.4219 2.9219z"/>
   </g>
   <g id="use56392" transform="translate(141.43 4503.2)">
    <path id="path76935" d="m0.875 0 3-14.312h4.4219c0.8125 0 1.4102 0.03125 1.7969 0.09375 0.64453 0.11719 1.1875 0.3125 1.625 0.59375 0.4375 0.27344 0.77344 0.64844 1.0156 1.125 0.23828 0.48047 0.35938 1.0078 0.35938 1.5781 0 0.79297-0.21875 1.4922-0.65625 2.0938-0.42969 0.59375-1.0898 1.0469-1.9844 1.3594 0.78125 0.25 1.3633 0.63281 1.75 1.1406 0.38281 0.51172 0.57812 1.1094 0.57812 1.7969 0 0.79297-0.23047 1.5469-0.6875 2.2656-0.44922 0.71875-1.0469 1.2773-1.7969 1.6719-0.74219 0.39844-1.5742 0.59375-2.5 0.59375zm3.625-8.2031h2.9062c1.3828 0 2.3789-0.21875 2.9844-0.65625 0.61328-0.44531 0.92188-1.0938 0.92188-1.9375 0-0.40625-0.09375-0.75391-0.28125-1.0469-0.1875-0.28906-0.44531-0.50391-0.76562-0.64062-0.3125-0.13281-0.90625-0.20312-1.7812-0.20312h-3.0469zm-1.375 6.5781h3.2656c0.86328 0 1.4453-0.023438 1.75-0.078125 0.60156-0.10156 1.0938-0.28125 1.4688-0.53125 0.375-0.25781 0.67188-0.59375 0.89062-1s0.32812-0.83203 0.32812-1.2812c0-0.67578-0.21484-1.1875-0.64062-1.5312-0.41797-0.35156-1.2148-0.53125-2.3906-0.53125h-3.6406z"/>
   </g>
   <g id="use56394" transform="translate(154.87 4503.2)">
    <path id="path76939" d="m12.062-5.0469 1.8906 0.26562c-0.59375 1.6562-1.4648 2.9141-2.6094 3.7656-1.1484 0.84375-2.4336 1.2656-3.8594 1.2656-1.7422 0-3.1211-0.53125-4.1406-1.5938-1.0234-1.0625-1.5312-2.582-1.5312-4.5625 0-2.582 0.77344-4.7188 2.3281-6.4062 1.3828-1.5 3.0977-2.25 5.1406-2.25 1.5195 0 2.75 0.40625 3.6875 1.2188 0.94531 0.8125 1.4922 1.9062 1.6406 3.2812l-1.7812 0.17188c-0.1875-1.0391-0.57812-1.8164-1.1719-2.3281-0.59375-0.50781-1.3555-0.76562-2.2812-0.76562-1.75 0-3.168 0.78125-4.25 2.3438-0.9375 1.3359-1.4062 2.9219-1.4062 4.7656 0 1.4805 0.35938 2.6055 1.0781 3.375 0.72656 0.77344 1.6719 1.1562 2.8281 1.1562 0.98828 0 1.8828-0.31641 2.6875-0.95312 0.80078-0.64453 1.3828-1.5625 1.75-2.75z"/>
   </g>
  </g>
 </g>
</svg>
