<svg id="svg100216" version="1.1" viewBox="0 0 37.994 15.056" xmlns="http://www.w3.org/2000/svg">
 <title id="title100281">img_81</title>
 <g id="layer1" transform="translate(-42.991 -132.32)">
  <g id="use87857" transform="matrix(.35278 0 0 .35278 42.936 142.54)" style="fill:#7d7878">
   <path id="path100149" d="m0.3125-9.6875 3.2812 4.75-3.4375 4.9375h1.9375l1.4062-2.1875c0.35938-0.57812 0.70312-1.0938 1.0156-1.6719h0.046875c0.34375 0.57812 0.65625 1.125 1.0312 1.6719l1.4219 2.1875h2l-3.3906-5 3.2969-4.6875h-1.9062l-1.3594 2.0625c-0.3125 0.53125-0.64062 1.0312-0.95312 1.6094h-0.0625c-0.32812-0.54688-0.625-1.0469-0.98438-1.5781l-1.375-2.0938z"/>
  </g>
  <g id="use87861" transform="matrix(.35278 0 0 .35278 47.769 142.54)" style="fill:#7d7878">
   <path id="path100153" d="m11.125-6.7344v-1.2031h-10.328v1.2031zm0 3.9219v-1.2031h-10.328v1.2031z"/>
  </g>
  <g id="use87881" transform="matrix(.35278 0 0 .35278 65.789 142.54)" style="fill:#7d7878">
   <path id="path100157" d="m0.59375-6.0625v1.2969h4.9531v-1.2969z"/>
  </g>
  <path id="path87917" d="m54.634 140.7h8.7809" style="fill:none;stroke-miterlimit:10;stroke-width:.35278;stroke:#7d7878"/>
  <g id="use87921" transform="matrix(.35278 0 0 .35278 56.584 138.2)" style="fill:#7d7878">
   <path id="path100161" d="m0.84375-0.65625c0.64062 0.42188 1.9219 0.875 3.375 0.875 3.125 0 4.7344-1.8125 4.7344-3.9062 0-1.8125-1.2969-3.0156-2.8906-3.3281v-0.046875c1.5938-0.57812 2.3906-1.7188 2.3906-3.0625 0-1.5781-1.1562-3.0938-3.7188-3.0938-1.3906 0-2.7188 0.5-3.3906 1l0.45312 1.2812c0.5625-0.40625 1.5625-0.85938 2.6094-0.85938 1.6094 0 2.2812 0.92188 2.2812 1.9531 0 1.5469-1.625 2.2031-2.9062 2.2031h-0.98438v1.3281h0.98438c1.7031 0 3.3438 0.76562 3.3594 2.5938 0.015625 1.0781-0.6875 2.5156-2.9375 2.5156-1.2188 0-2.3906-0.5-2.8906-0.8125z"/>
  </g>
  <g id="use87925" transform="matrix(.35278 0 0 .35278 56.88 147.38)" style="fill:#7d7878">
   <path id="path100165" d="m9.2031 0v-1.4531h-5.8438v-0.046875l1.0469-0.95312c2.7344-2.6406 4.4688-4.5938 4.4688-6.9844 0-1.8594-1.1719-3.7812-3.9688-3.7812-1.5 0-2.7812 0.5625-3.6875 1.3125l0.5625 1.25c0.59375-0.5 1.5781-1.1094 2.7656-1.1094 1.9375 0 2.5781 1.2188 2.5781 2.5469-0.03125 1.9531-1.5312 3.6406-4.8438 6.7969l-1.375 1.3438v1.0781z"/>
  </g>
  <path id="path87929" d="m70.318 140.7h10.667" style="fill:none;stroke-miterlimit:10;stroke-width:.35278;stroke:#7d7878"/>
  <g id="use87933" transform="matrix(.35278 0 0 .35278 70.072 138.2)" style="fill:#7d7878">
   <path id="path100169" d="m11.578-16.547h-1.3125l-3.7188 15.328c-0.10938 0.4375-0.20312 0.95312-0.26562 1.2969h-0.046875c-0.078125-0.375-0.21875-0.85938-0.375-1.2812l-2.4531-6.9219-2.7656 1.1719 0.375 0.9375 1.5-0.64062 3.1875 8.5625h1.2812z"/>
  </g>
  <g id="use87937" transform="matrix(.35278 0 0 .35278 75.603 138.2)" style="fill:#7d7878">
   <path id="path100173" d="m8.6562-13h-6.2188l-0.84375 6.2344c0.48438-0.046875 1.0625-0.14062 1.8125-0.14062 2.5938 0 3.7188 1.2031 3.7344 2.8906 0 1.7344-1.4219 2.8125-3.0781 2.8125-1.1875 0-2.25-0.39062-2.7812-0.71875l-0.4375 1.3438c0.60938 0.39062 1.8125 0.79688 3.2344 0.79688 2.8281 0 4.8438-1.9062 4.8438-4.4375 0-1.6406-0.84375-2.7656-1.8594-3.3438-0.79688-0.48438-1.7969-0.70312-2.7969-0.70312-0.48438 0-0.76562 0.046875-1.0625 0.078125l0.5-3.3281h4.9531z"/>
  </g>
  <g id="use87941" transform="matrix(.35278 0 0 .35278 73.331 147.38)" style="fill:#7d7878">
   <path id="path100177" d="m9.2031 0v-1.4531h-5.8438v-0.046875l1.0469-0.95312c2.7344-2.6406 4.4688-4.5938 4.4688-6.9844 0-1.8594-1.1719-3.7812-3.9688-3.7812-1.5 0-2.7812 0.5625-3.6875 1.3125l0.5625 1.25c0.59375-0.5 1.5781-1.1094 2.7656-1.1094 1.9375 0 2.5781 1.2188 2.5781 2.5469-0.03125 1.9531-1.5312 3.6406-4.8438 6.7969l-1.375 1.3438v1.0781z"/>
  </g>
  <path id="path87945" d="m73.708 132.5h7.1438" style="fill:none;stroke-miterlimit:10;stroke-width:.35278;stroke:#7d7878"/>
 </g>
</svg>
