<svg id="svg12317" version="1.1" viewBox="0 0 223.91 67.541" xmlns="http://www.w3.org/2000/svg">
 <title id="title13549">img_51</title>
 <g id="layer1" transform="translate(26.532 -78.111)">
  <g id="g2851" transform="matrix(.35278 0 0 .35278 -50.404 -1443)" style="fill:#0000bd">
   <g id="use2847" transform="translate(66.839 4330.5)">
    <path id="path11173" d="m7.4531 0h-1.7656v-11.203c-0.41797 0.40625-0.96875 0.8125-1.6562 1.2188-0.6875 0.39844-1.3086 0.69922-1.8594 0.90625v-1.7031c0.98828-0.45703 1.8477-1.0156 2.5781-1.6719 0.73828-0.66406 1.2578-1.3047 1.5625-1.9219h1.1406z"/>
   </g>
   <g id="use2849" transform="translate(78.059 4330.5)">
    <path id="path11177" d="m2.4688 4.2031h-1.25c1.9375-3.125 2.9062-6.25 2.9062-9.375 0-1.2266-0.13672-2.4414-0.40625-3.6406-0.23047-0.97656-0.54297-1.9141-0.9375-2.8125-0.25-0.59375-0.77344-1.5703-1.5625-2.9375h1.25c1.2266 1.6367 2.1328 3.2773 2.7188 4.9219 0.5 1.418 0.75 2.9023 0.75 4.4531 0 1.7617-0.33984 3.4648-1.0156 5.1094-0.66797 1.6328-1.4844 3.0625-2.4531 4.2812z"/>
   </g>
  </g>
  <g id="g2859" transform="matrix(.35278 0 0 .35278 -50.404 -1443)">
   <g id="use2857" transform="translate(90.478 4330.5)">
    <path id="path11181" d="m1.7656 5.1719v-23.781h5.0469v1.8906h-2.7656v20h2.7656v1.8906z"/>
   </g>
  </g>
  <g id="g2883" transform="matrix(.35278 0 0 .35278 -50.404 -1443)">
   <g id="use2861" transform="translate(97.832 4330.5)">
    <path id="path11185" d="m9.9531-10.812-1.75 0.14062c-0.15625-0.6875-0.375-1.1875-0.65625-1.5-0.48047-0.50781-1.0703-0.76562-1.7656-0.76562-0.5625 0-1.0547 0.15625-1.4688 0.46875-0.55469 0.40625-0.99219 1-1.3125 1.7812-0.32422 0.77344-0.49219 1.8711-0.5 3.2969 0.42578-0.63281 0.94141-1.1094 1.5469-1.4219 0.61328-0.3125 1.2578-0.46875 1.9375-0.46875 1.1641 0 2.1602 0.43359 2.9844 1.2969 0.82031 0.85547 1.2344 1.9648 1.2344 3.3281 0 0.90625-0.19531 1.7461-0.57812 2.5156-0.38672 0.77344-0.91797 1.3672-1.5938 1.7812-0.67969 0.40625-1.4492 0.60938-2.3125 0.60938-1.4609 0-2.6523-0.53516-3.5781-1.6094-0.92969-1.082-1.3906-2.8633-1.3906-5.3438 0-2.7578 0.50781-4.7695 1.5312-6.0312 0.89453-1.0938 2.0977-1.6406 3.6094-1.6406 1.125 0 2.0469 0.32031 2.7656 0.95312 0.71875 0.625 1.1484 1.4961 1.2969 2.6094zm-7.1719 6.1719c0 0.60547 0.125 1.1836 0.375 1.7344 0.25781 0.55469 0.61719 0.97656 1.0781 1.2656 0.46875 0.29297 0.95312 0.4375 1.4531 0.4375 0.75 0 1.3906-0.29688 1.9219-0.89062 0.53125-0.60156 0.79688-1.4219 0.79688-2.4531 0-0.98828-0.26562-1.7656-0.79688-2.3281-0.52344-0.57031-1.1836-0.85938-1.9844-0.85938-0.79297 0-1.4648 0.28906-2.0156 0.85938-0.55469 0.5625-0.82812 1.3086-0.82812 2.2344z"/>
   </g>
   <g id="use2863" transform="translate(109.05 4330.5)"></g>
   <g id="use2865" transform="translate(114.71 4330.5)">
    <path id="path11193" d="m5.0156-2.3125v-3.9219h-3.9062v-1.6406h3.9062v-3.9062h1.6562v3.9062h3.8906v1.6406h-3.8906v3.9219z"/>
   </g>
   <g id="use2867" transform="translate(126.49 4330.5)"></g>
   <g id="use2869" transform="translate(132.15 4330.5)">
    <path id="path11201" d="m0.5625-5.9844c0.5-0.00781 0.90625-0.14062 1.2188-0.39062 0.3125-0.25781 0.51953-0.61328 0.625-1.0625 0.10156-0.44531 0.16016-1.2109 0.17188-2.2969 0.00781-1.0938 0.03125-1.8125 0.0625-2.1562 0.050781-0.55078 0.15625-0.99219 0.3125-1.3281 0.16406-0.33203 0.36328-0.59766 0.59375-0.79688 0.23828-0.19531 0.53906-0.34766 0.90625-0.45312 0.25-0.0625 0.65625-0.09375 1.2188-0.09375h0.54688v1.5312h-0.3125c-0.67969 0-1.125 0.125-1.3438 0.375-0.21875 0.24219-0.32812 0.78125-0.32812 1.625 0 1.7109-0.039062 2.7891-0.10938 3.2344-0.11719 0.69922-0.32031 1.2422-0.60938 1.625-0.28125 0.375-0.72656 0.71094-1.3281 1 0.71875 0.29297 1.2383 0.75 1.5625 1.375 0.32031 0.61719 0.48438 1.6211 0.48438 3.0156 0 1.2695 0.00781 2.0234 0.03125 2.2656 0.050781 0.44531 0.17969 0.75391 0.39062 0.92188 0.21875 0.17578 0.63281 0.26562 1.25 0.26562h0.3125v1.5312h-0.54688c-0.64844 0-1.1094-0.054687-1.3906-0.15625-0.41797-0.14844-0.76562-0.38672-1.0469-0.71875-0.27344-0.33594-0.44922-0.76172-0.53125-1.2812-0.074219-0.51172-0.11719-1.3516-0.125-2.5156-0.011719-1.1758-0.070312-1.9883-0.17188-2.4375-0.10547-0.44531-0.3125-0.80078-0.625-1.0625-0.3125-0.25781-0.71875-0.39844-1.2188-0.42188z"/>
   </g>
   <g id="use2871" transform="translate(138.93 4330.5)">
    <path id="path11205" d="m9.9531-10.812-1.75 0.14062c-0.15625-0.6875-0.375-1.1875-0.65625-1.5-0.48047-0.50781-1.0703-0.76562-1.7656-0.76562-0.5625 0-1.0547 0.15625-1.4688 0.46875-0.55469 0.40625-0.99219 1-1.3125 1.7812-0.32422 0.77344-0.49219 1.8711-0.5 3.2969 0.42578-0.63281 0.94141-1.1094 1.5469-1.4219 0.61328-0.3125 1.2578-0.46875 1.9375-0.46875 1.1641 0 2.1602 0.43359 2.9844 1.2969 0.82031 0.85547 1.2344 1.9648 1.2344 3.3281 0 0.90625-0.19531 1.7461-0.57812 2.5156-0.38672 0.77344-0.91797 1.3672-1.5938 1.7812-0.67969 0.40625-1.4492 0.60938-2.3125 0.60938-1.4609 0-2.6523-0.53516-3.5781-1.6094-0.92969-1.082-1.3906-2.8633-1.3906-5.3438 0-2.7578 0.50781-4.7695 1.5312-6.0312 0.89453-1.0938 2.0977-1.6406 3.6094-1.6406 1.125 0 2.0469 0.32031 2.7656 0.95312 0.71875 0.625 1.1484 1.4961 1.2969 2.6094zm-7.1719 6.1719c0 0.60547 0.125 1.1836 0.375 1.7344 0.25781 0.55469 0.61719 0.97656 1.0781 1.2656 0.46875 0.29297 0.95312 0.4375 1.4531 0.4375 0.75 0 1.3906-0.29688 1.9219-0.89062 0.53125-0.60156 0.79688-1.4219 0.79688-2.4531 0-0.98828-0.26562-1.7656-0.79688-2.3281-0.52344-0.57031-1.1836-0.85938-1.9844-0.85938-0.79297 0-1.4648 0.28906-2.0156 0.85938-0.55469 0.5625-0.82812 1.3086-0.82812 2.2344z"/>
   </g>
   <g id="use2873" transform="translate(150.15 4330.5)">
    <path id="path11209" d="m9.9531-10.812-1.75 0.14062c-0.15625-0.6875-0.375-1.1875-0.65625-1.5-0.48047-0.50781-1.0703-0.76562-1.7656-0.76562-0.5625 0-1.0547 0.15625-1.4688 0.46875-0.55469 0.40625-0.99219 1-1.3125 1.7812-0.32422 0.77344-0.49219 1.8711-0.5 3.2969 0.42578-0.63281 0.94141-1.1094 1.5469-1.4219 0.61328-0.3125 1.2578-0.46875 1.9375-0.46875 1.1641 0 2.1602 0.43359 2.9844 1.2969 0.82031 0.85547 1.2344 1.9648 1.2344 3.3281 0 0.90625-0.19531 1.7461-0.57812 2.5156-0.38672 0.77344-0.91797 1.3672-1.5938 1.7812-0.67969 0.40625-1.4492 0.60938-2.3125 0.60938-1.4609 0-2.6523-0.53516-3.5781-1.6094-0.92969-1.082-1.3906-2.8633-1.3906-5.3438 0-2.7578 0.50781-4.7695 1.5312-6.0312 0.89453-1.0938 2.0977-1.6406 3.6094-1.6406 1.125 0 2.0469 0.32031 2.7656 0.95312 0.71875 0.625 1.1484 1.4961 1.2969 2.6094zm-7.1719 6.1719c0 0.60547 0.125 1.1836 0.375 1.7344 0.25781 0.55469 0.61719 0.97656 1.0781 1.2656 0.46875 0.29297 0.95312 0.4375 1.4531 0.4375 0.75 0 1.3906-0.29688 1.9219-0.89062 0.53125-0.60156 0.79688-1.4219 0.79688-2.4531 0-0.98828-0.26562-1.7656-0.79688-2.3281-0.52344-0.57031-1.1836-0.85938-1.9844-0.85938-0.79297 0-1.4648 0.28906-2.0156 0.85938-0.55469 0.5625-0.82812 1.3086-0.82812 2.2344z"/>
   </g>
   <g id="use2875" transform="translate(161.37 4330.5)"></g>
   <g id="use2877" transform="translate(167.03 4330.5)">
    <path id="path11217" d="m4.4844-9v-2h2v2zm5.7344 2.7656h-9.4531v-1.6406h9.4531zm-5.7344 3.125v-2.0156h2v2.0156z"/>
   </g>
   <g id="use2879" transform="translate(178.11 4330.5)"></g>
   <g id="use2881" transform="translate(183.77 4330.5)">
    <path id="path11225" d="m7.4531 0h-1.7656v-11.203c-0.41797 0.40625-0.96875 0.8125-1.6562 1.2188-0.6875 0.39844-1.3086 0.69922-1.8594 0.90625v-1.7031c0.98828-0.45703 1.8477-1.0156 2.5781-1.6719 0.73828-0.66406 1.2578-1.3047 1.5625-1.9219h1.1406z"/>
   </g>
  </g>
  <g id="g2889" transform="matrix(.35278 0 0 .35278 -50.404 -1443)">
   <g id="use2885" transform="translate(193.51 4330.5)">
    <path id="path11229" d="m7.4531 0h-1.7656v-11.203c-0.41797 0.40625-0.96875 0.8125-1.6562 1.2188-0.6875 0.39844-1.3086 0.69922-1.8594 0.90625v-1.7031c0.98828-0.45703 1.8477-1.0156 2.5781-1.6719 0.73828-0.66406 1.2578-1.3047 1.5625-1.9219h1.1406z"/>
   </g>
   <g id="use2887" transform="translate(204.73 4330.5)">
    <path id="path11233" d="m6.1094-5.9844v1.5938c-0.5 0.023437-0.90625 0.16406-1.2188 0.42188-0.3125 0.26172-0.52344 0.61719-0.625 1.0625-0.10547 0.4375-0.16406 1.2031-0.17188 2.2969-0.011719 1.082-0.03125 1.7969-0.0625 2.1406-0.054687 0.55078-0.16406 0.98828-0.32812 1.3125-0.15625 0.33203-0.35547 0.59766-0.59375 0.79688-0.23047 0.20703-0.52734 0.36328-0.89062 0.46875-0.25 0.0625-0.65625 0.09375-1.2188 0.09375h-0.54688v-1.5312h0.3125c0.67578 0 1.125-0.125 1.3438-0.375 0.21875-0.24219 0.32812-0.78125 0.32812-1.625 0-1.6328 0.03125-2.6719 0.09375-3.1094 0.10156-0.71875 0.3125-1.2891 0.625-1.7188 0.3125-0.4375 0.75391-0.77344 1.3281-1.0156-0.75-0.36328-1.2812-0.83594-1.5938-1.4219-0.30469-0.59375-0.45312-1.5859-0.45312-2.9844 0-1.2695-0.015625-2.0312-0.046875-2.2812-0.042969-0.4375-0.17188-0.73828-0.39062-0.90625-0.21094-0.17578-0.62109-0.26562-1.2344-0.26562h-0.3125v-1.5312h0.54688c0.64453 0 1.1094 0.05469 1.3906 0.15625 0.41406 0.14844 0.75781 0.39062 1.0312 0.73438 0.28125 0.33594 0.45703 0.76172 0.53125 1.2812 0.082031 0.51172 0.12891 1.3555 0.14062 2.5312 0.00781 1.168 0.066406 1.9766 0.17188 2.4219 0.10156 0.4375 0.3125 0.78906 0.625 1.0469 0.3125 0.26172 0.71875 0.39844 1.2188 0.40625z"/>
   </g>
  </g>
  <g id="g2893" transform="matrix(.35278 0 0 .35278 -50.404 -1443)">
   <g id="use2891" transform="translate(211.5 4330.5)">
    <path id="path11237" d="m5.5312 5.1719h-5.0312v-1.8906h2.75v-20h-2.75v-1.8906h5.0312z"/>
   </g>
  </g>
  <g id="g2903" transform="matrix(.35278 0 0 .35278 -50.404 -1443)">
   <g id="use2899" transform="translate(224.52 4330.5)">
    <path id="path11241" d="m2.3281-6.2188v-2h2v2z"/>
   </g>
   <g id="use2901" transform="translate(231.28 4330.5)"></g>
  </g>
  <g id="g2907" transform="matrix(.35278 0 0 .35278 -50.404 -1443)">
   <g id="use2905" transform="translate(236.94 4330.5)">
    <path id="path11249" d="m0.84375-3.7812 1.75-0.23438c0.20703 1 0.55078 1.7188 1.0312 2.1562 0.48828 0.4375 1.082 0.65625 1.7812 0.65625 0.82031 0 1.5156-0.28516 2.0781-0.85938 0.57031-0.57031 0.85938-1.2812 0.85938-2.125 0-0.8125-0.26562-1.4766-0.79688-2-0.52344-0.51953-1.1875-0.78125-2-0.78125-0.33594 0-0.74609 0.0625-1.2344 0.1875l0.1875-1.5469c0.11328 0.023437 0.20703 0.03125 0.28125 0.03125 0.75 0 1.4219-0.19141 2.0156-0.57812 0.60156-0.39453 0.90625-1 0.90625-1.8125 0-0.64453-0.21875-1.1797-0.65625-1.6094-0.4375-0.42578-1-0.64062-1.6875-0.64062-0.67969 0-1.2461 0.21875-1.7031 0.65625-0.46094 0.42969-0.75 1.0703-0.875 1.9219l-1.7656-0.3125c0.21875-1.1758 0.70703-2.0859 1.4688-2.7344 0.75781-0.64453 1.707-0.96875 2.8438-0.96875 0.78125 0 1.5 0.16797 2.1562 0.5 0.65625 0.33594 1.1562 0.79297 1.5 1.375 0.35156 0.58594 0.53125 1.1992 0.53125 1.8438 0 0.61719-0.16797 1.1797-0.5 1.6875-0.33594 0.51172-0.82422 0.91797-1.4688 1.2188 0.84375 0.1875 1.5 0.59375 1.9688 1.2188 0.46875 0.61719 0.70312 1.3828 0.70312 2.2969 0 1.25-0.46094 2.3125-1.375 3.1875-0.90625 0.86719-2.0586 1.2969-3.4531 1.2969-1.2617 0-2.3086-0.375-3.1406-1.125-0.82422-0.75-1.293-1.7188-1.4062-2.9062z"/>
   </g>
  </g>
  <g id="g2911" transform="matrix(.35278 0 0 .35278 -50.404 -1443)">
   <g id="use2909" transform="translate(248.16 4323.8)">
    <path id="path11253" d="m5.875-0.98438v0.98438h-5.5156c-0.011719-0.25 0.023438-0.48828 0.10938-0.71875 0.14453-0.375 0.36719-0.74219 0.67188-1.1094 0.3125-0.36328 0.75781-0.78125 1.3438-1.25 0.90625-0.75 1.5156-1.3359 1.8281-1.7656 0.32031-0.4375 0.48438-0.84766 0.48438-1.2344 0-0.40625-0.14844-0.75-0.4375-1.0312-0.28125-0.28125-0.65625-0.42188-1.125-0.42188-0.49219 0-0.88672 0.15234-1.1875 0.45312-0.29297 0.29297-0.44531 0.69922-0.45312 1.2188l-1.0469-0.10938c0.070313-0.78125 0.34375-1.375 0.8125-1.7812 0.46875-0.41406 1.0977-0.625 1.8906-0.625 0.80078 0 1.4375 0.22656 1.9062 0.67188 0.46875 0.4375 0.70312 0.98438 0.70312 1.6406 0 0.33594-0.070312 0.66406-0.20312 0.98438-0.13672 0.32422-0.36719 0.66797-0.6875 1.0312-0.3125 0.35547-0.83984 0.83984-1.5781 1.4531-0.61719 0.52344-1.0117 0.875-1.1875 1.0625-0.16797 0.17969-0.30859 0.35938-0.42188 0.54688z"/>
   </g>
  </g>
  <g id="g3497" transform="matrix(.35278 0 0 .35278 -50.404 -1443)" style="fill:#0000bd">
   <g id="use3493" transform="translate(66.841 4416.2)">
    <path id="path11257" d="m0.84375-3.7812 1.75-0.23438c0.20703 1 0.55078 1.7188 1.0312 2.1562 0.48828 0.4375 1.082 0.65625 1.7812 0.65625 0.82031 0 1.5156-0.28516 2.0781-0.85938 0.57031-0.57031 0.85938-1.2812 0.85938-2.125 0-0.8125-0.26562-1.4766-0.79688-2-0.52344-0.51953-1.1875-0.78125-2-0.78125-0.33594 0-0.74609 0.0625-1.2344 0.1875l0.1875-1.5469c0.11328 0.023437 0.20703 0.03125 0.28125 0.03125 0.75 0 1.4219-0.19141 2.0156-0.57812 0.60156-0.39453 0.90625-1 0.90625-1.8125 0-0.64453-0.21875-1.1797-0.65625-1.6094-0.4375-0.42578-1-0.64062-1.6875-0.64062-0.67969 0-1.2461 0.21875-1.7031 0.65625-0.46094 0.42969-0.75 1.0703-0.875 1.9219l-1.7656-0.3125c0.21875-1.1758 0.70703-2.0859 1.4688-2.7344 0.75781-0.64453 1.707-0.96875 2.8438-0.96875 0.78125 0 1.5 0.16797 2.1562 0.5 0.65625 0.33594 1.1562 0.79297 1.5 1.375 0.35156 0.58594 0.53125 1.1992 0.53125 1.8438 0 0.61719-0.16797 1.1797-0.5 1.6875-0.33594 0.51172-0.82422 0.91797-1.4688 1.2188 0.84375 0.1875 1.5 0.59375 1.9688 1.2188 0.46875 0.61719 0.70312 1.3828 0.70312 2.2969 0 1.25-0.46094 2.3125-1.375 3.1875-0.90625 0.86719-2.0586 1.2969-3.4531 1.2969-1.2617 0-2.3086-0.375-3.1406-1.125-0.82422-0.75-1.293-1.7188-1.4062-2.9062z"/>
   </g>
   <g id="use3495" transform="translate(78.061 4416.2)">
    <path id="path11261" d="m2.4688 4.2031h-1.25c1.9375-3.125 2.9062-6.25 2.9062-9.375 0-1.2266-0.13672-2.4414-0.40625-3.6406-0.23047-0.97656-0.54297-1.9141-0.9375-2.8125-0.25-0.59375-0.77344-1.5703-1.5625-2.9375h1.25c1.2266 1.6367 2.1328 3.2773 2.7188 4.9219 0.5 1.418 0.75 2.9023 0.75 4.4531 0 1.7617-0.33984 3.4648-1.0156 5.1094-0.66797 1.6328-1.4844 3.0625-2.4531 4.2812z"/>
   </g>
  </g>
  <g id="g3505" transform="matrix(.35278 0 0 .35278 -50.404 -1443)">
   <g id="use3503" transform="translate(90.478 4416.2)">
    <path id="path11265" d="m1.7656 5.1719v-23.781h5.0469v1.8906h-2.7656v20h2.7656v1.8906z"/>
   </g>
  </g>
  <g id="g3543" transform="matrix(.35278 0 0 .35278 -50.404 -1443)">
   <g id="use3507" transform="translate(97.832 4416.2)">
    <path id="path11269" d="m4.6719 4.2031c-0.96875-1.2188-1.7891-2.6484-2.4531-4.2812-0.66797-1.6445-1-3.3477-1-5.1094 0-1.5508 0.25-3.0352 0.75-4.4531 0.58203-1.6445 1.4844-3.2852 2.7031-4.9219h1.2656c-0.79297 1.3555-1.3125 2.3242-1.5625 2.9062-0.39844 0.89844-0.71094 1.8359-0.9375 2.8125-0.28125 1.2188-0.42188 2.4453-0.42188 3.6719 0 3.125 0.97266 6.25 2.9219 9.375z"/>
   </g>
   <g id="use3509" transform="translate(104.59 4416.2)">
    <path id="path11273" d="m0.64062-4.2969v-1.7656h5.3906v1.7656z"/>
   </g>
   <g id="use3511" transform="translate(111.35 4416.2)">
    <path id="path11277" d="m6.4688 0v-3.4219h-6.2188v-1.625l6.5312-9.2656h1.4375v9.2656h1.9375v1.625h-1.9375v3.4219zm0-5.0469v-6.4531l-4.4844 6.4531z"/>
   </g>
   <g id="use3513" transform="translate(122.57 4416.2)">
    <path id="path11281" d="m2.4688 4.2031h-1.25c1.9375-3.125 2.9062-6.25 2.9062-9.375 0-1.2266-0.13672-2.4414-0.40625-3.6406-0.23047-0.97656-0.54297-1.9141-0.9375-2.8125-0.25-0.59375-0.77344-1.5703-1.5625-2.9375h1.25c1.2266 1.6367 2.1328 3.2773 2.7188 4.9219 0.5 1.418 0.75 2.9023 0.75 4.4531 0 1.7617-0.33984 3.4648-1.0156 5.1094-0.66797 1.6328-1.4844 3.0625-2.4531 4.2812z"/>
   </g>
   <g id="use3515" transform="translate(129.33 4416.2)"></g>
   <g id="use3517" transform="translate(134.99 4416.2)">
    <path id="path11289" d="m5.0156-2.3125v-3.9219h-3.9062v-1.6406h3.9062v-3.9062h1.6562v3.9062h3.8906v1.6406h-3.8906v3.9219z"/>
   </g>
   <g id="use3519" transform="translate(146.77 4416.2)"></g>
   <g id="use3521" transform="translate(152.43 4416.2)">
    <path id="path11297" d="m0.5625-5.9844c0.5-0.00781 0.90625-0.14062 1.2188-0.39062 0.3125-0.25781 0.51953-0.61328 0.625-1.0625 0.10156-0.44531 0.16016-1.2109 0.17188-2.2969 0.00781-1.0938 0.03125-1.8125 0.0625-2.1562 0.050781-0.55078 0.15625-0.99219 0.3125-1.3281 0.16406-0.33203 0.36328-0.59766 0.59375-0.79688 0.23828-0.19531 0.53906-0.34766 0.90625-0.45312 0.25-0.0625 0.65625-0.09375 1.2188-0.09375h0.54688v1.5312h-0.3125c-0.67969 0-1.125 0.125-1.3438 0.375-0.21875 0.24219-0.32812 0.78125-0.32812 1.625 0 1.7109-0.039062 2.7891-0.10938 3.2344-0.11719 0.69922-0.32031 1.2422-0.60938 1.625-0.28125 0.375-0.72656 0.71094-1.3281 1 0.71875 0.29297 1.2383 0.75 1.5625 1.375 0.32031 0.61719 0.48438 1.6211 0.48438 3.0156 0 1.2695 0.00781 2.0234 0.03125 2.2656 0.050781 0.44531 0.17969 0.75391 0.39062 0.92188 0.21875 0.17578 0.63281 0.26562 1.25 0.26562h0.3125v1.5312h-0.54688c-0.64844 0-1.1094-0.054687-1.3906-0.15625-0.41797-0.14844-0.76562-0.38672-1.0469-0.71875-0.27344-0.33594-0.44922-0.76172-0.53125-1.2812-0.074219-0.51172-0.11719-1.3516-0.125-2.5156-0.011719-1.1758-0.070312-1.9883-0.17188-2.4375-0.10547-0.44531-0.3125-0.80078-0.625-1.0625-0.3125-0.25781-0.71875-0.39844-1.2188-0.42188z"/>
   </g>
   <g id="use3523" transform="translate(159.21 4416.2)">
    <path id="path11301" d="m4.6719 4.2031c-0.96875-1.2188-1.7891-2.6484-2.4531-4.2812-0.66797-1.6445-1-3.3477-1-5.1094 0-1.5508 0.25-3.0352 0.75-4.4531 0.58203-1.6445 1.4844-3.2852 2.7031-4.9219h1.2656c-0.79297 1.3555-1.3125 2.3242-1.5625 2.9062-0.39844 0.89844-0.71094 1.8359-0.9375 2.8125-0.28125 1.2188-0.42188 2.4453-0.42188 3.6719 0 3.125 0.97266 6.25 2.9219 9.375z"/>
   </g>
   <g id="use3525" transform="translate(165.97 4416.2)">
    <path id="path11305" d="m0.64062-4.2969v-1.7656h5.3906v1.7656z"/>
   </g>
   <g id="use3527" transform="translate(172.73 4416.2)">
    <path id="path11309" d="m0.82812-3.75 1.8438-0.15625c0.13281 0.89844 0.45312 1.5742 0.95312 2.0312 0.5 0.44922 1.1016 0.67188 1.8125 0.67188 0.84375 0 1.5547-0.31641 2.1406-0.95312 0.58203-0.63281 0.875-1.4844 0.875-2.5469 0-1-0.28125-1.7852-0.84375-2.3594-0.5625-0.58203-1.2969-0.875-2.2031-0.875-0.57422 0-1.0898 0.13281-1.5469 0.39062-0.44922 0.25-0.80469 0.58594-1.0625 1l-1.6562-0.21875 1.3906-7.3594h7.125v1.6875h-5.7188l-0.76562 3.8438c0.85156-0.60156 1.7539-0.90625 2.7031-0.90625 1.25 0 2.3008 0.4375 3.1562 1.3125 0.86328 0.86719 1.2969 1.9766 1.2969 3.3281 0 1.3047-0.38281 2.4219-1.1406 3.3594-0.91797 1.168-2.168 1.75-3.75 1.75-1.3047 0-2.3711-0.36328-3.2031-1.0938-0.82422-0.72656-1.293-1.6953-1.4062-2.9062z"/>
   </g>
   <g id="use3529" transform="translate(183.95 4416.2)">
    <path id="path11313" d="m6.4688 0v-3.4219h-6.2188v-1.625l6.5312-9.2656h1.4375v9.2656h1.9375v1.625h-1.9375v3.4219zm0-5.0469v-6.4531l-4.4844 6.4531z"/>
   </g>
   <g id="use3531" transform="translate(195.17 4416.2)">
    <path id="path11317" d="m2.4688 4.2031h-1.25c1.9375-3.125 2.9062-6.25 2.9062-9.375 0-1.2266-0.13672-2.4414-0.40625-3.6406-0.23047-0.97656-0.54297-1.9141-0.9375-2.8125-0.25-0.59375-0.77344-1.5703-1.5625-2.9375h1.25c1.2266 1.6367 2.1328 3.2773 2.7188 4.9219 0.5 1.418 0.75 2.9023 0.75 4.4531 0 1.7617-0.33984 3.4648-1.0156 5.1094-0.66797 1.6328-1.4844 3.0625-2.4531 4.2812z"/>
   </g>
   <g id="use3533" transform="translate(201.93 4416.2)"></g>
   <g id="use3535" transform="translate(207.59 4416.2)">
    <path id="path11325" d="m4.4844-9v-2h2v2zm5.7344 2.7656h-9.4531v-1.6406h9.4531zm-5.7344 3.125v-2.0156h2v2.0156z"/>
   </g>
   <g id="use3537" transform="translate(218.67 4416.2)"></g>
   <g id="use3539" transform="translate(224.33 4416.2)">
    <path id="path11333" d="m1.0938-3.3125 1.6875-0.15625c0.14453 0.79297 0.41406 1.3711 0.8125 1.7344 0.40625 0.35547 0.92578 0.53125 1.5625 0.53125 0.53906 0 1.0156-0.11719 1.4219-0.35938 0.40625-0.25 0.73828-0.58203 1-1 0.25781-0.41406 0.47656-0.97266 0.65625-1.6719 0.17578-0.70703 0.26562-1.4258 0.26562-2.1562 0-0.070313-0.00781-0.1875-0.015625-0.34375-0.35547 0.55469-0.83594 1.0078-1.4375 1.3594-0.60547 0.34375-1.2656 0.51562-1.9844 0.51562-1.1797 0-2.1797-0.42578-3-1.2812-0.82422-0.86328-1.2344-2-1.2344-3.4062 0-1.4453 0.42578-2.6133 1.2812-3.5 0.86328-0.88281 1.9375-1.3281 3.2188-1.3281 0.9375 0 1.7891 0.25 2.5625 0.75 0.76953 0.5 1.3516 1.2148 1.75 2.1406 0.40625 0.92969 0.60938 2.2734 0.60938 4.0312 0 1.8359-0.20312 3.293-0.60938 4.375-0.39844 1.0859-0.98438 1.9141-1.7656 2.4844-0.78125 0.5625-1.6992 0.84375-2.75 0.84375-1.125 0-2.043-0.3125-2.75-0.9375-0.71094-0.625-1.1367-1.5-1.2812-2.625zm7.2031-6.3125c0-1.0078-0.27344-1.8125-0.8125-2.4062-0.53125-0.59375-1.1797-0.89062-1.9375-0.89062-0.78125 0-1.4648 0.32422-2.0469 0.96875-0.57422 0.63672-0.85938 1.4609-0.85938 2.4688 0 0.91797 0.26953 1.6641 0.8125 2.2344 0.55078 0.5625 1.2344 0.84375 2.0469 0.84375s1.4766-0.28125 2-0.84375c0.53125-0.57031 0.79688-1.3633 0.79688-2.375z"/>
   </g>
   <g id="use3541" transform="translate(235.55 4416.2)">
    <path id="path11337" d="m6.1094-5.9844v1.5938c-0.5 0.023437-0.90625 0.16406-1.2188 0.42188-0.3125 0.26172-0.52344 0.61719-0.625 1.0625-0.10547 0.4375-0.16406 1.2031-0.17188 2.2969-0.011719 1.082-0.03125 1.7969-0.0625 2.1406-0.054687 0.55078-0.16406 0.98828-0.32812 1.3125-0.15625 0.33203-0.35547 0.59766-0.59375 0.79688-0.23047 0.20703-0.52734 0.36328-0.89062 0.46875-0.25 0.0625-0.65625 0.09375-1.2188 0.09375h-0.54688v-1.5312h0.3125c0.67578 0 1.125-0.125 1.3438-0.375 0.21875-0.24219 0.32812-0.78125 0.32812-1.625 0-1.6328 0.03125-2.6719 0.09375-3.1094 0.10156-0.71875 0.3125-1.2891 0.625-1.7188 0.3125-0.4375 0.75391-0.77344 1.3281-1.0156-0.75-0.36328-1.2812-0.83594-1.5938-1.4219-0.30469-0.59375-0.45312-1.5859-0.45312-2.9844 0-1.2695-0.015625-2.0312-0.046875-2.2812-0.042969-0.4375-0.17188-0.73828-0.39062-0.90625-0.21094-0.17578-0.62109-0.26562-1.2344-0.26562h-0.3125v-1.5312h0.54688c0.64453 0 1.1094 0.05469 1.3906 0.15625 0.41406 0.14844 0.75781 0.39062 1.0312 0.73438 0.28125 0.33594 0.45703 0.76172 0.53125 1.2812 0.082031 0.51172 0.12891 1.3555 0.14062 2.5312 0.00781 1.168 0.066406 1.9766 0.17188 2.4219 0.10156 0.4375 0.3125 0.78906 0.625 1.0469 0.3125 0.26172 0.71875 0.39844 1.2188 0.40625z"/>
   </g>
  </g>
  <g id="g3547" transform="matrix(.35278 0 0 .35278 -50.404 -1443)">
   <g id="use3545" transform="translate(242.33 4416.2)">
    <path id="path11341" d="m5.5312 5.1719h-5.0312v-1.8906h2.75v-20h-2.75v-1.8906h5.0312z"/>
   </g>
  </g>
  <g id="g3555" transform="matrix(.35278 0 0 .35278 -50.404 -1443)">
   <g id="use3553" transform="translate(255.34 4416.2)">
    <path id="path11345" d="m2.3281-6.2188v-2h2v2z"/>
   </g>
  </g>
  <g id="g3567" transform="matrix(.35278 0 0 .35278 -50.404 -1443)">
   <g id="use3557" transform="translate(262.1 4416.2)"></g>
   <g id="use3559" transform="translate(267.76 4416.2)">
    <path id="path11353" d="m4.6719 4.2031c-0.96875-1.2188-1.7891-2.6484-2.4531-4.2812-0.66797-1.6445-1-3.3477-1-5.1094 0-1.5508 0.25-3.0352 0.75-4.4531 0.58203-1.6445 1.4844-3.2852 2.7031-4.9219h1.2656c-0.79297 1.3555-1.3125 2.3242-1.5625 2.9062-0.39844 0.89844-0.71094 1.8359-0.9375 2.8125-0.28125 1.2188-0.42188 2.4453-0.42188 3.6719 0 3.125 0.97266 6.25 2.9219 9.375z"/>
   </g>
   <g id="use3561" transform="translate(274.52 4416.2)">
    <path id="path11357" d="m0.64062-4.2969v-1.7656h5.3906v1.7656z"/>
   </g>
   <g id="use3563" transform="translate(281.28 4416.2)">
    <path id="path11361" d="m10.062-1.6875v1.6875h-9.4531c-0.011719-0.42578 0.054688-0.83203 0.20312-1.2188 0.23828-0.64453 0.625-1.2812 1.1562-1.9062s1.2969-1.3477 2.2969-2.1719c1.5625-1.2695 2.6133-2.2734 3.1562-3.0156 0.55078-0.75 0.82812-1.457 0.82812-2.125 0-0.69531-0.25-1.2852-0.75-1.7656-0.5-0.47656-1.1523-0.71875-1.9531-0.71875-0.84375 0-1.5234 0.25781-2.0312 0.76562-0.51172 0.51172-0.76562 1.2148-0.76562 2.1094l-1.8125-0.1875c0.125-1.3438 0.58594-2.3672 1.3906-3.0781 0.8125-0.70703 1.8984-1.0625 3.2656-1.0625 1.3633 0 2.4453 0.38281 3.25 1.1406 0.80078 0.76172 1.2031 1.7031 1.2031 2.8281 0 0.57422-0.12109 1.1406-0.35938 1.7031-0.23047 0.55469-0.61719 1.1367-1.1562 1.75-0.54297 0.60547-1.4453 1.4453-2.7031 2.5156-1.0625 0.88672-1.7461 1.4844-2.0469 1.7969-0.29297 0.3125-0.53906 0.63281-0.73438 0.95312z"/>
   </g>
   <g id="use3565" transform="translate(292.5 4416.2)">
    <path id="path11365" d="m2.4688 4.2031h-1.25c1.9375-3.125 2.9062-6.25 2.9062-9.375 0-1.2266-0.13672-2.4414-0.40625-3.6406-0.23047-0.97656-0.54297-1.9141-0.9375-2.8125-0.25-0.59375-0.77344-1.5703-1.5625-2.9375h1.25c1.2266 1.6367 2.1328 3.2773 2.7188 4.9219 0.5 1.418 0.75 2.9023 0.75 4.4531 0 1.7617-0.33984 3.4648-1.0156 5.1094-0.66797 1.6328-1.4844 3.0625-2.4531 4.2812z"/>
   </g>
  </g>
  <g id="g3571" transform="matrix(.35278 0 0 .35278 -50.404 -1443)">
   <g id="use3569" transform="translate(299.26 4409.5)">
    <path id="path11369" d="m0.48438-2.2031 1.0312-0.14062c0.11328 0.58594 0.3125 1.0078 0.59375 1.2656 0.28125 0.25 0.625 0.375 1.0312 0.375 0.48828 0 0.89453-0.16406 1.2188-0.5 0.33203-0.33203 0.5-0.74219 0.5-1.2344 0-0.46875-0.15625-0.85156-0.46875-1.1562-0.30469-0.3125-0.6875-0.46875-1.1562-0.46875-0.19922 0-0.4375 0.039062-0.71875 0.10938l0.10938-0.89062h0.15625c0.4375 0 0.82812-0.10938 1.1719-0.32812 0.35156-0.22656 0.53125-0.58203 0.53125-1.0625 0-0.375-0.125-0.67969-0.375-0.92188-0.25-0.25-0.57812-0.375-0.98438-0.375-0.39844 0-0.73047 0.125-1 0.375-0.26172 0.25-0.43359 0.625-0.51562 1.125l-1.0156-0.1875c0.125-0.6875 0.40625-1.2188 0.84375-1.5938 0.44531-0.375 1.0039-0.5625 1.6719-0.5625 0.44531 0 0.86328 0.10156 1.25 0.29688 0.38281 0.1875 0.67578 0.45312 0.875 0.79688 0.20703 0.33594 0.3125 0.69531 0.3125 1.0781 0 0.35547-0.10156 0.68359-0.29688 0.98438-0.1875 0.29297-0.47656 0.52734-0.85938 0.70312 0.5 0.11719 0.88281 0.35547 1.1562 0.71875 0.26953 0.35547 0.40625 0.79688 0.40625 1.3281 0 0.73047-0.26562 1.3516-0.79688 1.8594-0.53125 0.5-1.2031 0.75-2.0156 0.75-0.73047 0-1.3398-0.21094-1.8281-0.64062-0.48047-0.4375-0.75781-1.0039-0.82812-1.7031z"/>
   </g>
  </g>
  <g id="g3577" transform="matrix(.35278 0 0 .35278 -50.404 -1443)" style="fill:#0000bd">
   <g id="use3573" transform="translate(66.839 4498.2)">
    <path id="path11373" d="m0.82812-3.75 1.8438-0.15625c0.13281 0.89844 0.45312 1.5742 0.95312 2.0312 0.5 0.44922 1.1016 0.67188 1.8125 0.67188 0.84375 0 1.5547-0.31641 2.1406-0.95312 0.58203-0.63281 0.875-1.4844 0.875-2.5469 0-1-0.28125-1.7852-0.84375-2.3594-0.5625-0.58203-1.2969-0.875-2.2031-0.875-0.57422 0-1.0898 0.13281-1.5469 0.39062-0.44922 0.25-0.80469 0.58594-1.0625 1l-1.6562-0.21875 1.3906-7.3594h7.125v1.6875h-5.7188l-0.76562 3.8438c0.85156-0.60156 1.7539-0.90625 2.7031-0.90625 1.25 0 2.3008 0.4375 3.1562 1.3125 0.86328 0.86719 1.2969 1.9766 1.2969 3.3281 0 1.3047-0.38281 2.4219-1.1406 3.3594-0.91797 1.168-2.168 1.75-3.75 1.75-1.3047 0-2.3711-0.36328-3.2031-1.0938-0.82422-0.72656-1.293-1.6953-1.4062-2.9062z"/>
   </g>
   <g id="use3575" transform="translate(78.059 4498.2)">
    <path id="path11377" d="m2.4688 4.2031h-1.25c1.9375-3.125 2.9062-6.25 2.9062-9.375 0-1.2266-0.13672-2.4414-0.40625-3.6406-0.23047-0.97656-0.54297-1.9141-0.9375-2.8125-0.25-0.59375-0.77344-1.5703-1.5625-2.9375h1.25c1.2266 1.6367 2.1328 3.2773 2.7188 4.9219 0.5 1.418 0.75 2.9023 0.75 4.4531 0 1.7617-0.33984 3.4648-1.0156 5.1094-0.66797 1.6328-1.4844 3.0625-2.4531 4.2812z"/>
   </g>
  </g>
  <g id="g3585" transform="matrix(.35278 0 0 .35278 -50.404 -1443)">
   <g id="use3583" transform="translate(90.478 4498.2)">
    <path id="path11381" d="m1.7656 5.1719v-23.781h5.0469v1.8906h-2.7656v20h2.7656v1.8906z"/>
   </g>
  </g>
  <g id="g3625" transform="matrix(.35278 0 0 .35278 -50.404 -1443)">
   <g id="use3587" transform="translate(97.832 4498.2)">
    <path id="path11385" d="m4.6719 4.2031c-0.96875-1.2188-1.7891-2.6484-2.4531-4.2812-0.66797-1.6445-1-3.3477-1-5.1094 0-1.5508 0.25-3.0352 0.75-4.4531 0.58203-1.6445 1.4844-3.2852 2.7031-4.9219h1.2656c-0.79297 1.3555-1.3125 2.3242-1.5625 2.9062-0.39844 0.89844-0.71094 1.8359-0.9375 2.8125-0.28125 1.2188-0.42188 2.4453-0.42188 3.6719 0 3.125 0.97266 6.25 2.9219 9.375z"/>
   </g>
   <g id="use3589" transform="translate(104.59 4498.2)">
    <path id="path11389" d="m0.64062-4.2969v-1.7656h5.3906v1.7656z"/>
   </g>
   <g id="use3591" transform="translate(111.35 4498.2)">
    <path id="path11393" d="m9.9531-10.812-1.75 0.14062c-0.15625-0.6875-0.375-1.1875-0.65625-1.5-0.48047-0.50781-1.0703-0.76562-1.7656-0.76562-0.5625 0-1.0547 0.15625-1.4688 0.46875-0.55469 0.40625-0.99219 1-1.3125 1.7812-0.32422 0.77344-0.49219 1.8711-0.5 3.2969 0.42578-0.63281 0.94141-1.1094 1.5469-1.4219 0.61328-0.3125 1.2578-0.46875 1.9375-0.46875 1.1641 0 2.1602 0.43359 2.9844 1.2969 0.82031 0.85547 1.2344 1.9648 1.2344 3.3281 0 0.90625-0.19531 1.7461-0.57812 2.5156-0.38672 0.77344-0.91797 1.3672-1.5938 1.7812-0.67969 0.40625-1.4492 0.60938-2.3125 0.60938-1.4609 0-2.6523-0.53516-3.5781-1.6094-0.92969-1.082-1.3906-2.8633-1.3906-5.3438 0-2.7578 0.50781-4.7695 1.5312-6.0312 0.89453-1.0938 2.0977-1.6406 3.6094-1.6406 1.125 0 2.0469 0.32031 2.7656 0.95312 0.71875 0.625 1.1484 1.4961 1.2969 2.6094zm-7.1719 6.1719c0 0.60547 0.125 1.1836 0.375 1.7344 0.25781 0.55469 0.61719 0.97656 1.0781 1.2656 0.46875 0.29297 0.95312 0.4375 1.4531 0.4375 0.75 0 1.3906-0.29688 1.9219-0.89062 0.53125-0.60156 0.79688-1.4219 0.79688-2.4531 0-0.98828-0.26562-1.7656-0.79688-2.3281-0.52344-0.57031-1.1836-0.85938-1.9844-0.85938-0.79297 0-1.4648 0.28906-2.0156 0.85938-0.55469 0.5625-0.82812 1.3086-0.82812 2.2344z"/>
   </g>
   <g id="use3593" transform="translate(122.57 4498.2)">
    <path id="path11397" d="m2.4688 4.2031h-1.25c1.9375-3.125 2.9062-6.25 2.9062-9.375 0-1.2266-0.13672-2.4414-0.40625-3.6406-0.23047-0.97656-0.54297-1.9141-0.9375-2.8125-0.25-0.59375-0.77344-1.5703-1.5625-2.9375h1.25c1.2266 1.6367 2.1328 3.2773 2.7188 4.9219 0.5 1.418 0.75 2.9023 0.75 4.4531 0 1.7617-0.33984 3.4648-1.0156 5.1094-0.66797 1.6328-1.4844 3.0625-2.4531 4.2812z"/>
   </g>
   <g id="use3595" transform="translate(129.33 4498.2)"></g>
   <g id="use3597" transform="translate(134.99 4498.2)">
    <path id="path11405" d="m5.0156-2.3125v-3.9219h-3.9062v-1.6406h3.9062v-3.9062h1.6562v3.9062h3.8906v1.6406h-3.8906v3.9219z"/>
   </g>
   <g id="use3599" transform="translate(146.77 4498.2)"></g>
   <g id="use3601" transform="translate(152.43 4498.2)">
    <path id="path11413" d="m0.5625-5.9844c0.5-0.00781 0.90625-0.14062 1.2188-0.39062 0.3125-0.25781 0.51953-0.61328 0.625-1.0625 0.10156-0.44531 0.16016-1.2109 0.17188-2.2969 0.00781-1.0938 0.03125-1.8125 0.0625-2.1562 0.050781-0.55078 0.15625-0.99219 0.3125-1.3281 0.16406-0.33203 0.36328-0.59766 0.59375-0.79688 0.23828-0.19531 0.53906-0.34766 0.90625-0.45312 0.25-0.0625 0.65625-0.09375 1.2188-0.09375h0.54688v1.5312h-0.3125c-0.67969 0-1.125 0.125-1.3438 0.375-0.21875 0.24219-0.32812 0.78125-0.32812 1.625 0 1.7109-0.039062 2.7891-0.10938 3.2344-0.11719 0.69922-0.32031 1.2422-0.60938 1.625-0.28125 0.375-0.72656 0.71094-1.3281 1 0.71875 0.29297 1.2383 0.75 1.5625 1.375 0.32031 0.61719 0.48438 1.6211 0.48438 3.0156 0 1.2695 0.00781 2.0234 0.03125 2.2656 0.050781 0.44531 0.17969 0.75391 0.39062 0.92188 0.21875 0.17578 0.63281 0.26562 1.25 0.26562h0.3125v1.5312h-0.54688c-0.64844 0-1.1094-0.054687-1.3906-0.15625-0.41797-0.14844-0.76562-0.38672-1.0469-0.71875-0.27344-0.33594-0.44922-0.76172-0.53125-1.2812-0.074219-0.51172-0.11719-1.3516-0.125-2.5156-0.011719-1.1758-0.070312-1.9883-0.17188-2.4375-0.10547-0.44531-0.3125-0.80078-0.625-1.0625-0.3125-0.25781-0.71875-0.39844-1.2188-0.42188z"/>
   </g>
   <g id="use3603" transform="translate(159.21 4498.2)">
    <path id="path11417" d="m4.6719 4.2031c-0.96875-1.2188-1.7891-2.6484-2.4531-4.2812-0.66797-1.6445-1-3.3477-1-5.1094 0-1.5508 0.25-3.0352 0.75-4.4531 0.58203-1.6445 1.4844-3.2852 2.7031-4.9219h1.2656c-0.79297 1.3555-1.3125 2.3242-1.5625 2.9062-0.39844 0.89844-0.71094 1.8359-0.9375 2.8125-0.28125 1.2188-0.42188 2.4453-0.42188 3.6719 0 3.125 0.97266 6.25 2.9219 9.375z"/>
   </g>
   <g id="use3605" transform="translate(165.97 4498.2)">
    <path id="path11421" d="m0.64062-4.2969v-1.7656h5.3906v1.7656z"/>
   </g>
   <g id="use3607" transform="translate(172.73 4498.2)">
    <path id="path11425" d="m9.9531-10.812-1.75 0.14062c-0.15625-0.6875-0.375-1.1875-0.65625-1.5-0.48047-0.50781-1.0703-0.76562-1.7656-0.76562-0.5625 0-1.0547 0.15625-1.4688 0.46875-0.55469 0.40625-0.99219 1-1.3125 1.7812-0.32422 0.77344-0.49219 1.8711-0.5 3.2969 0.42578-0.63281 0.94141-1.1094 1.5469-1.4219 0.61328-0.3125 1.2578-0.46875 1.9375-0.46875 1.1641 0 2.1602 0.43359 2.9844 1.2969 0.82031 0.85547 1.2344 1.9648 1.2344 3.3281 0 0.90625-0.19531 1.7461-0.57812 2.5156-0.38672 0.77344-0.91797 1.3672-1.5938 1.7812-0.67969 0.40625-1.4492 0.60938-2.3125 0.60938-1.4609 0-2.6523-0.53516-3.5781-1.6094-0.92969-1.082-1.3906-2.8633-1.3906-5.3438 0-2.7578 0.50781-4.7695 1.5312-6.0312 0.89453-1.0938 2.0977-1.6406 3.6094-1.6406 1.125 0 2.0469 0.32031 2.7656 0.95312 0.71875 0.625 1.1484 1.4961 1.2969 2.6094zm-7.1719 6.1719c0 0.60547 0.125 1.1836 0.375 1.7344 0.25781 0.55469 0.61719 0.97656 1.0781 1.2656 0.46875 0.29297 0.95312 0.4375 1.4531 0.4375 0.75 0 1.3906-0.29688 1.9219-0.89062 0.53125-0.60156 0.79688-1.4219 0.79688-2.4531 0-0.98828-0.26562-1.7656-0.79688-2.3281-0.52344-0.57031-1.1836-0.85938-1.9844-0.85938-0.79297 0-1.4648 0.28906-2.0156 0.85938-0.55469 0.5625-0.82812 1.3086-0.82812 2.2344z"/>
   </g>
   <g id="use3609" transform="translate(183.95 4498.2)">
    <path id="path11429" d="m9.9531-10.812-1.75 0.14062c-0.15625-0.6875-0.375-1.1875-0.65625-1.5-0.48047-0.50781-1.0703-0.76562-1.7656-0.76562-0.5625 0-1.0547 0.15625-1.4688 0.46875-0.55469 0.40625-0.99219 1-1.3125 1.7812-0.32422 0.77344-0.49219 1.8711-0.5 3.2969 0.42578-0.63281 0.94141-1.1094 1.5469-1.4219 0.61328-0.3125 1.2578-0.46875 1.9375-0.46875 1.1641 0 2.1602 0.43359 2.9844 1.2969 0.82031 0.85547 1.2344 1.9648 1.2344 3.3281 0 0.90625-0.19531 1.7461-0.57812 2.5156-0.38672 0.77344-0.91797 1.3672-1.5938 1.7812-0.67969 0.40625-1.4492 0.60938-2.3125 0.60938-1.4609 0-2.6523-0.53516-3.5781-1.6094-0.92969-1.082-1.3906-2.8633-1.3906-5.3438 0-2.7578 0.50781-4.7695 1.5312-6.0312 0.89453-1.0938 2.0977-1.6406 3.6094-1.6406 1.125 0 2.0469 0.32031 2.7656 0.95312 0.71875 0.625 1.1484 1.4961 1.2969 2.6094zm-7.1719 6.1719c0 0.60547 0.125 1.1836 0.375 1.7344 0.25781 0.55469 0.61719 0.97656 1.0781 1.2656 0.46875 0.29297 0.95312 0.4375 1.4531 0.4375 0.75 0 1.3906-0.29688 1.9219-0.89062 0.53125-0.60156 0.79688-1.4219 0.79688-2.4531 0-0.98828-0.26562-1.7656-0.79688-2.3281-0.52344-0.57031-1.1836-0.85938-1.9844-0.85938-0.79297 0-1.4648 0.28906-2.0156 0.85938-0.55469 0.5625-0.82812 1.3086-0.82812 2.2344z"/>
   </g>
   <g id="use3611" transform="translate(195.17 4498.2)">
    <path id="path11433" d="m2.4688 4.2031h-1.25c1.9375-3.125 2.9062-6.25 2.9062-9.375 0-1.2266-0.13672-2.4414-0.40625-3.6406-0.23047-0.97656-0.54297-1.9141-0.9375-2.8125-0.25-0.59375-0.77344-1.5703-1.5625-2.9375h1.25c1.2266 1.6367 2.1328 3.2773 2.7188 4.9219 0.5 1.418 0.75 2.9023 0.75 4.4531 0 1.7617-0.33984 3.4648-1.0156 5.1094-0.66797 1.6328-1.4844 3.0625-2.4531 4.2812z"/>
   </g>
   <g id="use3613" transform="translate(201.93 4498.2)"></g>
   <g id="use3615" transform="translate(207.59 4498.2)">
    <path id="path11441" d="m4.4844-9v-2h2v2zm5.7344 2.7656h-9.4531v-1.6406h9.4531zm-5.7344 3.125v-2.0156h2v2.0156z"/>
   </g>
   <g id="use3617" transform="translate(218.67 4498.2)"></g>
   <g id="use3619" transform="translate(224.33 4498.2)">
    <path id="path11449" d="m4.6719 4.2031c-0.96875-1.2188-1.7891-2.6484-2.4531-4.2812-0.66797-1.6445-1-3.3477-1-5.1094 0-1.5508 0.25-3.0352 0.75-4.4531 0.58203-1.6445 1.4844-3.2852 2.7031-4.9219h1.2656c-0.79297 1.3555-1.3125 2.3242-1.5625 2.9062-0.39844 0.89844-0.71094 1.8359-0.9375 2.8125-0.28125 1.2188-0.42188 2.4453-0.42188 3.6719 0 3.125 0.97266 6.25 2.9219 9.375z"/>
   </g>
   <g id="use3621" transform="translate(231.09 4498.2)">
    <path id="path11453" d="m0.64062-4.2969v-1.7656h5.3906v1.7656z"/>
   </g>
   <g id="use3623" transform="translate(237.85 4498.2)">
    <path id="path11457" d="m7.4531 0h-1.7656v-11.203c-0.41797 0.40625-0.96875 0.8125-1.6562 1.2188-0.6875 0.39844-1.3086 0.69922-1.8594 0.90625v-1.7031c0.98828-0.45703 1.8477-1.0156 2.5781-1.6719 0.73828-0.66406 1.2578-1.3047 1.5625-1.9219h1.1406z"/>
   </g>
  </g>
  <g id="g3633" transform="matrix(.35278 0 0 .35278 -50.404 -1443)">
   <g id="use3627" transform="translate(247.59 4498.2)">
    <path id="path11461" d="m7.4531 0h-1.7656v-11.203c-0.41797 0.40625-0.96875 0.8125-1.6562 1.2188-0.6875 0.39844-1.3086 0.69922-1.8594 0.90625v-1.7031c0.98828-0.45703 1.8477-1.0156 2.5781-1.6719 0.73828-0.66406 1.2578-1.3047 1.5625-1.9219h1.1406z"/>
   </g>
   <g id="use3629" transform="translate(258.81 4498.2)">
    <path id="path11465" d="m2.4688 4.2031h-1.25c1.9375-3.125 2.9062-6.25 2.9062-9.375 0-1.2266-0.13672-2.4414-0.40625-3.6406-0.23047-0.97656-0.54297-1.9141-0.9375-2.8125-0.25-0.59375-0.77344-1.5703-1.5625-2.9375h1.25c1.2266 1.6367 2.1328 3.2773 2.7188 4.9219 0.5 1.418 0.75 2.9023 0.75 4.4531 0 1.7617-0.33984 3.4648-1.0156 5.1094-0.66797 1.6328-1.4844 3.0625-2.4531 4.2812z"/>
   </g>
   <g id="use3631" transform="translate(265.57 4498.2)">
    <path id="path11469" d="m6.1094-5.9844v1.5938c-0.5 0.023437-0.90625 0.16406-1.2188 0.42188-0.3125 0.26172-0.52344 0.61719-0.625 1.0625-0.10547 0.4375-0.16406 1.2031-0.17188 2.2969-0.011719 1.082-0.03125 1.7969-0.0625 2.1406-0.054687 0.55078-0.16406 0.98828-0.32812 1.3125-0.15625 0.33203-0.35547 0.59766-0.59375 0.79688-0.23047 0.20703-0.52734 0.36328-0.89062 0.46875-0.25 0.0625-0.65625 0.09375-1.2188 0.09375h-0.54688v-1.5312h0.3125c0.67578 0 1.125-0.125 1.3438-0.375 0.21875-0.24219 0.32812-0.78125 0.32812-1.625 0-1.6328 0.03125-2.6719 0.09375-3.1094 0.10156-0.71875 0.3125-1.2891 0.625-1.7188 0.3125-0.4375 0.75391-0.77344 1.3281-1.0156-0.75-0.36328-1.2812-0.83594-1.5938-1.4219-0.30469-0.59375-0.45312-1.5859-0.45312-2.9844 0-1.2695-0.015625-2.0312-0.046875-2.2812-0.042969-0.4375-0.17188-0.73828-0.39062-0.90625-0.21094-0.17578-0.62109-0.26562-1.2344-0.26562h-0.3125v-1.5312h0.54688c0.64453 0 1.1094 0.05469 1.3906 0.15625 0.41406 0.14844 0.75781 0.39062 1.0312 0.73438 0.28125 0.33594 0.45703 0.76172 0.53125 1.2812 0.082031 0.51172 0.12891 1.3555 0.14062 2.5312 0.00781 1.168 0.066406 1.9766 0.17188 2.4219 0.10156 0.4375 0.3125 0.78906 0.625 1.0469 0.3125 0.26172 0.71875 0.39844 1.2188 0.40625z"/>
   </g>
  </g>
  <g id="g3637" transform="matrix(.35278 0 0 .35278 -50.404 -1443)">
   <g id="use3635" transform="translate(272.35 4498.2)">
    <path id="path11473" d="m5.5312 5.1719h-5.0312v-1.8906h2.75v-20h-2.75v-1.8906h5.0312z"/>
   </g>
  </g>
  <g id="g3645" transform="matrix(.35278 0 0 .35278 -50.404 -1443)">
   <g id="use3643" transform="translate(285.36 4498.2)">
    <path id="path11477" d="m2.3281-6.2188v-2h2v2z"/>
   </g>
  </g>
  <g id="g3657" transform="matrix(.35278 0 0 .35278 -50.404 -1443)">
   <g id="use3647" transform="translate(292.12 4498.2)"></g>
   <g id="use3649" transform="translate(297.78 4498.2)">
    <path id="path11485" d="m4.6719 4.2031c-0.96875-1.2188-1.7891-2.6484-2.4531-4.2812-0.66797-1.6445-1-3.3477-1-5.1094 0-1.5508 0.25-3.0352 0.75-4.4531 0.58203-1.6445 1.4844-3.2852 2.7031-4.9219h1.2656c-0.79297 1.3555-1.3125 2.3242-1.5625 2.9062-0.39844 0.89844-0.71094 1.8359-0.9375 2.8125-0.28125 1.2188-0.42188 2.4453-0.42188 3.6719 0 3.125 0.97266 6.25 2.9219 9.375z"/>
   </g>
   <g id="use3651" transform="translate(304.54 4498.2)">
    <path id="path11489" d="m0.64062-4.2969v-1.7656h5.3906v1.7656z"/>
   </g>
   <g id="use3653" transform="translate(311.3 4498.2)">
    <path id="path11493" d="m0.82812-3.75 1.8438-0.15625c0.13281 0.89844 0.45312 1.5742 0.95312 2.0312 0.5 0.44922 1.1016 0.67188 1.8125 0.67188 0.84375 0 1.5547-0.31641 2.1406-0.95312 0.58203-0.63281 0.875-1.4844 0.875-2.5469 0-1-0.28125-1.7852-0.84375-2.3594-0.5625-0.58203-1.2969-0.875-2.2031-0.875-0.57422 0-1.0898 0.13281-1.5469 0.39062-0.44922 0.25-0.80469 0.58594-1.0625 1l-1.6562-0.21875 1.3906-7.3594h7.125v1.6875h-5.7188l-0.76562 3.8438c0.85156-0.60156 1.7539-0.90625 2.7031-0.90625 1.25 0 2.3008 0.4375 3.1562 1.3125 0.86328 0.86719 1.2969 1.9766 1.2969 3.3281 0 1.3047-0.38281 2.4219-1.1406 3.3594-0.91797 1.168-2.168 1.75-3.75 1.75-1.3047 0-2.3711-0.36328-3.2031-1.0938-0.82422-0.72656-1.293-1.6953-1.4062-2.9062z"/>
   </g>
   <g id="use3655" transform="translate(322.52 4498.2)">
    <path id="path11497" d="m2.4688 4.2031h-1.25c1.9375-3.125 2.9062-6.25 2.9062-9.375 0-1.2266-0.13672-2.4414-0.40625-3.6406-0.23047-0.97656-0.54297-1.9141-0.9375-2.8125-0.25-0.59375-0.77344-1.5703-1.5625-2.9375h1.25c1.2266 1.6367 2.1328 3.2773 2.7188 4.9219 0.5 1.418 0.75 2.9023 0.75 4.4531 0 1.7617-0.33984 3.4648-1.0156 5.1094-0.66797 1.6328-1.4844 3.0625-2.4531 4.2812z"/>
   </g>
  </g>
  <g id="g3661" transform="matrix(.35278 0 0 .35278 -50.404 -1443)">
   <g id="use3659" transform="translate(329.28 4491.5)">
    <path id="path11501" d="m0.48438-2.2031 1.0312-0.14062c0.11328 0.58594 0.3125 1.0078 0.59375 1.2656 0.28125 0.25 0.625 0.375 1.0312 0.375 0.48828 0 0.89453-0.16406 1.2188-0.5 0.33203-0.33203 0.5-0.74219 0.5-1.2344 0-0.46875-0.15625-0.85156-0.46875-1.1562-0.30469-0.3125-0.6875-0.46875-1.1562-0.46875-0.19922 0-0.4375 0.039062-0.71875 0.10938l0.10938-0.89062h0.15625c0.4375 0 0.82812-0.10938 1.1719-0.32812 0.35156-0.22656 0.53125-0.58203 0.53125-1.0625 0-0.375-0.125-0.67969-0.375-0.92188-0.25-0.25-0.57812-0.375-0.98438-0.375-0.39844 0-0.73047 0.125-1 0.375-0.26172 0.25-0.43359 0.625-0.51562 1.125l-1.0156-0.1875c0.125-0.6875 0.40625-1.2188 0.84375-1.5938 0.44531-0.375 1.0039-0.5625 1.6719-0.5625 0.44531 0 0.86328 0.10156 1.25 0.29688 0.38281 0.1875 0.67578 0.45312 0.875 0.79688 0.20703 0.33594 0.3125 0.69531 0.3125 1.0781 0 0.35547-0.10156 0.68359-0.29688 0.98438-0.1875 0.29297-0.47656 0.52734-0.85938 0.70312 0.5 0.11719 0.88281 0.35547 1.1562 0.71875 0.26953 0.35547 0.40625 0.79688 0.40625 1.3281 0 0.73047-0.26562 1.3516-0.79688 1.8594-0.53125 0.5-1.2031 0.75-2.0156 0.75-0.73047 0-1.3398-0.21094-1.8281-0.64062-0.48047-0.4375-0.75781-1.0039-0.82812-1.7031z"/>
   </g>
  </g>
  <g id="g3667" transform="matrix(.35278 0 0 .35278 -50.404 -1443)" style="fill:#0000bd">
   <g id="use3663" transform="translate(448.97 4498.2)">
    <path id="path11505" d="m9.9531-10.812-1.75 0.14062c-0.15625-0.6875-0.375-1.1875-0.65625-1.5-0.48047-0.50781-1.0703-0.76562-1.7656-0.76562-0.5625 0-1.0547 0.15625-1.4688 0.46875-0.55469 0.40625-0.99219 1-1.3125 1.7812-0.32422 0.77344-0.49219 1.8711-0.5 3.2969 0.42578-0.63281 0.94141-1.1094 1.5469-1.4219 0.61328-0.3125 1.2578-0.46875 1.9375-0.46875 1.1641 0 2.1602 0.43359 2.9844 1.2969 0.82031 0.85547 1.2344 1.9648 1.2344 3.3281 0 0.90625-0.19531 1.7461-0.57812 2.5156-0.38672 0.77344-0.91797 1.3672-1.5938 1.7812-0.67969 0.40625-1.4492 0.60938-2.3125 0.60938-1.4609 0-2.6523-0.53516-3.5781-1.6094-0.92969-1.082-1.3906-2.8633-1.3906-5.3438 0-2.7578 0.50781-4.7695 1.5312-6.0312 0.89453-1.0938 2.0977-1.6406 3.6094-1.6406 1.125 0 2.0469 0.32031 2.7656 0.95312 0.71875 0.625 1.1484 1.4961 1.2969 2.6094zm-7.1719 6.1719c0 0.60547 0.125 1.1836 0.375 1.7344 0.25781 0.55469 0.61719 0.97656 1.0781 1.2656 0.46875 0.29297 0.95312 0.4375 1.4531 0.4375 0.75 0 1.3906-0.29688 1.9219-0.89062 0.53125-0.60156 0.79688-1.4219 0.79688-2.4531 0-0.98828-0.26562-1.7656-0.79688-2.3281-0.52344-0.57031-1.1836-0.85938-1.9844-0.85938-0.79297 0-1.4648 0.28906-2.0156 0.85938-0.55469 0.5625-0.82812 1.3086-0.82812 2.2344z"/>
   </g>
   <g id="use3665" transform="translate(460.19 4498.2)">
    <path id="path11509" d="m2.4688 4.2031h-1.25c1.9375-3.125 2.9062-6.25 2.9062-9.375 0-1.2266-0.13672-2.4414-0.40625-3.6406-0.23047-0.97656-0.54297-1.9141-0.9375-2.8125-0.25-0.59375-0.77344-1.5703-1.5625-2.9375h1.25c1.2266 1.6367 2.1328 3.2773 2.7188 4.9219 0.5 1.418 0.75 2.9023 0.75 4.4531 0 1.7617-0.33984 3.4648-1.0156 5.1094-0.66797 1.6328-1.4844 3.0625-2.4531 4.2812z"/>
   </g>
  </g>
  <g id="g3679" transform="matrix(.35278 0 0 .35278 -50.404 -1443)">
   <g id="use3669" transform="translate(466.95 4498.2)"></g>
   <g id="use3671" transform="translate(472.61 4498.2)">
    <path id="path11517" d="m4.6719 4.2031c-0.96875-1.2188-1.7891-2.6484-2.4531-4.2812-0.66797-1.6445-1-3.3477-1-5.1094 0-1.5508 0.25-3.0352 0.75-4.4531 0.58203-1.6445 1.4844-3.2852 2.7031-4.9219h1.2656c-0.79297 1.3555-1.3125 2.3242-1.5625 2.9062-0.39844 0.89844-0.71094 1.8359-0.9375 2.8125-0.28125 1.2188-0.42188 2.4453-0.42188 3.6719 0 3.125 0.97266 6.25 2.9219 9.375z"/>
   </g>
   <g id="use3673" transform="translate(479.37 4498.2)">
    <path id="path11521" d="m0.64062-4.2969v-1.7656h5.3906v1.7656z"/>
   </g>
   <g id="use3675" transform="translate(486.13 4498.2)">
    <path id="path11525" d="m10.062-1.6875v1.6875h-9.4531c-0.011719-0.42578 0.054688-0.83203 0.20312-1.2188 0.23828-0.64453 0.625-1.2812 1.1562-1.9062s1.2969-1.3477 2.2969-2.1719c1.5625-1.2695 2.6133-2.2734 3.1562-3.0156 0.55078-0.75 0.82812-1.457 0.82812-2.125 0-0.69531-0.25-1.2852-0.75-1.7656-0.5-0.47656-1.1523-0.71875-1.9531-0.71875-0.84375 0-1.5234 0.25781-2.0312 0.76562-0.51172 0.51172-0.76562 1.2148-0.76562 2.1094l-1.8125-0.1875c0.125-1.3438 0.58594-2.3672 1.3906-3.0781 0.8125-0.70703 1.8984-1.0625 3.2656-1.0625 1.3633 0 2.4453 0.38281 3.25 1.1406 0.80078 0.76172 1.2031 1.7031 1.2031 2.8281 0 0.57422-0.12109 1.1406-0.35938 1.7031-0.23047 0.55469-0.61719 1.1367-1.1562 1.75-0.54297 0.60547-1.4453 1.4453-2.7031 2.5156-1.0625 0.88672-1.7461 1.4844-2.0469 1.7969-0.29297 0.3125-0.53906 0.63281-0.73438 0.95312z"/>
   </g>
   <g id="use3677" transform="translate(497.35 4498.2)">
    <path id="path11529" d="m2.4688 4.2031h-1.25c1.9375-3.125 2.9062-6.25 2.9062-9.375 0-1.2266-0.13672-2.4414-0.40625-3.6406-0.23047-0.97656-0.54297-1.9141-0.9375-2.8125-0.25-0.59375-0.77344-1.5703-1.5625-2.9375h1.25c1.2266 1.6367 2.1328 3.2773 2.7188 4.9219 0.5 1.418 0.75 2.9023 0.75 4.4531 0 1.7617-0.33984 3.4648-1.0156 5.1094-0.66797 1.6328-1.4844 3.0625-2.4531 4.2812z"/>
   </g>
  </g>
  <g id="g3683" transform="matrix(.35278 0 0 .35278 -50.404 -1443)">
   <g id="use3681" transform="translate(504.11 4491.5)">
    <path id="path11533" d="m5.875-0.98438v0.98438h-5.5156c-0.011719-0.25 0.023438-0.48828 0.10938-0.71875 0.14453-0.375 0.36719-0.74219 0.67188-1.1094 0.3125-0.36328 0.75781-0.78125 1.3438-1.25 0.90625-0.75 1.5156-1.3359 1.8281-1.7656 0.32031-0.4375 0.48438-0.84766 0.48438-1.2344 0-0.40625-0.14844-0.75-0.4375-1.0312-0.28125-0.28125-0.65625-0.42188-1.125-0.42188-0.49219 0-0.88672 0.15234-1.1875 0.45312-0.29297 0.29297-0.44531 0.69922-0.45312 1.2188l-1.0469-0.10938c0.070313-0.78125 0.34375-1.375 0.8125-1.7812 0.46875-0.41406 1.0977-0.625 1.8906-0.625 0.80078 0 1.4375 0.22656 1.9062 0.67188 0.46875 0.4375 0.70312 0.98438 0.70312 1.6406 0 0.33594-0.070312 0.66406-0.20312 0.98438-0.13672 0.32422-0.36719 0.66797-0.6875 1.0312-0.3125 0.35547-0.83984 0.83984-1.5781 1.4531-0.61719 0.52344-1.0117 0.875-1.1875 1.0625-0.16797 0.17969-0.30859 0.35938-0.42188 0.54688z"/>
   </g>
  </g>
  <g id="g3691" transform="matrix(.35278 0 0 .35278 -50.404 -1443)">
   <g id="use3685" transform="translate(510.66 4498.2)"></g>
   <g id="use3687" transform="translate(516.32 4498.2)">
    <path id="path11541" d="m0.64062-4.2969v-1.7656h5.3906v1.7656z"/>
   </g>
   <g id="use3689" transform="translate(523.08 4498.2)"></g>
  </g>
  <g id="g3695" transform="matrix(.35278 0 0 .35278 -50.404 -1443)">
   <g id="use3693" transform="translate(528.73 4498.2)">
    <path id="path11549" d="m1.7656 5.1719v-23.781h5.0469v1.8906h-2.7656v20h2.7656v1.8906z"/>
   </g>
  </g>
  <g id="g3707" transform="matrix(.35278 0 0 .35278 -50.404 -1443)">
   <g id="use3697" transform="translate(536.08 4498.2)">
    <path id="path11553" d="m4.6719 4.2031c-0.96875-1.2188-1.7891-2.6484-2.4531-4.2812-0.66797-1.6445-1-3.3477-1-5.1094 0-1.5508 0.25-3.0352 0.75-4.4531 0.58203-1.6445 1.4844-3.2852 2.7031-4.9219h1.2656c-0.79297 1.3555-1.3125 2.3242-1.5625 2.9062-0.39844 0.89844-0.71094 1.8359-0.9375 2.8125-0.28125 1.2188-0.42188 2.4453-0.42188 3.6719 0 3.125 0.97266 6.25 2.9219 9.375z"/>
   </g>
   <g id="use3699" transform="translate(542.84 4498.2)">
    <path id="path11557" d="m0.64062-4.2969v-1.7656h5.3906v1.7656z"/>
   </g>
   <g id="use3701" transform="translate(549.6 4498.2)">
    <path id="path11561" d="m3.5312-7.7656c-0.73047-0.26953-1.2734-0.64844-1.625-1.1406-0.34375-0.5-0.51562-1.0938-0.51562-1.7812 0-1.0391 0.375-1.9141 1.125-2.625 0.75-0.70703 1.7422-1.0625 2.9844-1.0625 1.25 0 2.2539 0.36719 3.0156 1.0938 0.75781 0.71875 1.1406 1.6016 1.1406 2.6406 0 0.66797-0.17969 1.2461-0.53125 1.7344-0.34375 0.49219-0.87109 0.87109-1.5781 1.1406 0.88281 0.29297 1.5547 0.75781 2.0156 1.3906 0.45703 0.63672 0.6875 1.3984 0.6875 2.2812 0 1.2305-0.4375 2.2617-1.3125 3.0938-0.86719 0.83594-2 1.25-3.4062 1.25-1.418 0-2.5586-0.41406-3.4219-1.25-0.86719-0.84375-1.2969-1.8906-1.2969-3.1406 0-0.92578 0.23438-1.7031 0.70312-2.3281 0.47656-0.63281 1.1484-1.0664 2.0156-1.2969zm-0.34375-2.9844c0 0.67969 0.21875 1.2344 0.65625 1.6719 0.4375 0.42969 1 0.64062 1.6875 0.64062 0.67578 0 1.2344-0.21094 1.6719-0.64062 0.4375-0.42578 0.65625-0.94531 0.65625-1.5625 0-0.64453-0.22656-1.1875-0.67188-1.625-0.44922-0.44531-1.0078-0.67188-1.6719-0.67188-0.66797 0-1.2266 0.21875-1.6719 0.65625-0.4375 0.42969-0.65625 0.9375-0.65625 1.5312zm-0.5625 6.625c0 0.5 0.11328 0.98438 0.34375 1.4531 0.23828 0.46875 0.59375 0.83594 1.0625 1.0938 0.46875 0.25 0.97266 0.375 1.5156 0.375 0.84375 0 1.5352-0.26953 2.0781-0.8125 0.55078-0.53906 0.82812-1.2266 0.82812-2.0625 0-0.84375-0.28125-1.5391-0.84375-2.0938-0.5625-0.55078-1.2734-0.82812-2.125-0.82812-0.82422 0-1.5078 0.27734-2.0469 0.82812-0.54297 0.54297-0.8125 1.2266-0.8125 2.0469z"/>
   </g>
   <g id="use3703" transform="translate(560.82 4498.2)">
    <path id="path11565" d="m2.4688 4.2031h-1.25c1.9375-3.125 2.9062-6.25 2.9062-9.375 0-1.2266-0.13672-2.4414-0.40625-3.6406-0.23047-0.97656-0.54297-1.9141-0.9375-2.8125-0.25-0.59375-0.77344-1.5703-1.5625-2.9375h1.25c1.2266 1.6367 2.1328 3.2773 2.7188 4.9219 0.5 1.418 0.75 2.9023 0.75 4.4531 0 1.7617-0.33984 3.4648-1.0156 5.1094-0.66797 1.6328-1.4844 3.0625-2.4531 4.2812z"/>
   </g>
   <g id="use3705" transform="translate(567.58 4498.2)"></g>
  </g>
  <g id="g3711" transform="matrix(.35278 0 0 .35278 -50.404 -1443)">
   <g id="use3709" transform="translate(573.24 4498.2)">
    <path id="path11573" d="m2.3281-6.2188v-2h2v2z"/>
   </g>
  </g>
  <g id="g3741" transform="matrix(.35278 0 0 .35278 -50.404 -1443)">
   <g id="use3713" transform="translate(580 4498.2)"></g>
   <g id="use3715" transform="translate(585.66 4498.2)">
    <path id="path11581" d="m0.5625-5.9844c0.5-0.00781 0.90625-0.14062 1.2188-0.39062 0.3125-0.25781 0.51953-0.61328 0.625-1.0625 0.10156-0.44531 0.16016-1.2109 0.17188-2.2969 0.00781-1.0938 0.03125-1.8125 0.0625-2.1562 0.050781-0.55078 0.15625-0.99219 0.3125-1.3281 0.16406-0.33203 0.36328-0.59766 0.59375-0.79688 0.23828-0.19531 0.53906-0.34766 0.90625-0.45312 0.25-0.0625 0.65625-0.09375 1.2188-0.09375h0.54688v1.5312h-0.3125c-0.67969 0-1.125 0.125-1.3438 0.375-0.21875 0.24219-0.32812 0.78125-0.32812 1.625 0 1.7109-0.039062 2.7891-0.10938 3.2344-0.11719 0.69922-0.32031 1.2422-0.60938 1.625-0.28125 0.375-0.72656 0.71094-1.3281 1 0.71875 0.29297 1.2383 0.75 1.5625 1.375 0.32031 0.61719 0.48438 1.6211 0.48438 3.0156 0 1.2695 0.00781 2.0234 0.03125 2.2656 0.050781 0.44531 0.17969 0.75391 0.39062 0.92188 0.21875 0.17578 0.63281 0.26562 1.25 0.26562h0.3125v1.5312h-0.54688c-0.64844 0-1.1094-0.054687-1.3906-0.15625-0.41797-0.14844-0.76562-0.38672-1.0469-0.71875-0.27344-0.33594-0.44922-0.76172-0.53125-1.2812-0.074219-0.51172-0.11719-1.3516-0.125-2.5156-0.011719-1.1758-0.070312-1.9883-0.17188-2.4375-0.10547-0.44531-0.3125-0.80078-0.625-1.0625-0.3125-0.25781-0.71875-0.39844-1.2188-0.42188z"/>
   </g>
   <g id="use3717" transform="translate(592.44 4498.2)">
    <path id="path11585" d="m4.6719 4.2031c-0.96875-1.2188-1.7891-2.6484-2.4531-4.2812-0.66797-1.6445-1-3.3477-1-5.1094 0-1.5508 0.25-3.0352 0.75-4.4531 0.58203-1.6445 1.4844-3.2852 2.7031-4.9219h1.2656c-0.79297 1.3555-1.3125 2.3242-1.5625 2.9062-0.39844 0.89844-0.71094 1.8359-0.9375 2.8125-0.28125 1.2188-0.42188 2.4453-0.42188 3.6719 0 3.125 0.97266 6.25 2.9219 9.375z"/>
   </g>
   <g id="use3719" transform="translate(599.2 4498.2)">
    <path id="path11589" d="m0.64062-4.2969v-1.7656h5.3906v1.7656z"/>
   </g>
   <g id="use3721" transform="translate(605.96 4498.2)">
    <path id="path11593" d="m10.062-1.6875v1.6875h-9.4531c-0.011719-0.42578 0.054688-0.83203 0.20312-1.2188 0.23828-0.64453 0.625-1.2812 1.1562-1.9062s1.2969-1.3477 2.2969-2.1719c1.5625-1.2695 2.6133-2.2734 3.1562-3.0156 0.55078-0.75 0.82812-1.457 0.82812-2.125 0-0.69531-0.25-1.2852-0.75-1.7656-0.5-0.47656-1.1523-0.71875-1.9531-0.71875-0.84375 0-1.5234 0.25781-2.0312 0.76562-0.51172 0.51172-0.76562 1.2148-0.76562 2.1094l-1.8125-0.1875c0.125-1.3438 0.58594-2.3672 1.3906-3.0781 0.8125-0.70703 1.8984-1.0625 3.2656-1.0625 1.3633 0 2.4453 0.38281 3.25 1.1406 0.80078 0.76172 1.2031 1.7031 1.2031 2.8281 0 0.57422-0.12109 1.1406-0.35938 1.7031-0.23047 0.55469-0.61719 1.1367-1.1562 1.75-0.54297 0.60547-1.4453 1.4453-2.7031 2.5156-1.0625 0.88672-1.7461 1.4844-2.0469 1.7969-0.29297 0.3125-0.53906 0.63281-0.73438 0.95312z"/>
   </g>
   <g id="use3723" transform="translate(617.18 4498.2)">
    <path id="path11597" d="m2.4688 4.2031h-1.25c1.9375-3.125 2.9062-6.25 2.9062-9.375 0-1.2266-0.13672-2.4414-0.40625-3.6406-0.23047-0.97656-0.54297-1.9141-0.9375-2.8125-0.25-0.59375-0.77344-1.5703-1.5625-2.9375h1.25c1.2266 1.6367 2.1328 3.2773 2.7188 4.9219 0.5 1.418 0.75 2.9023 0.75 4.4531 0 1.7617-0.33984 3.4648-1.0156 5.1094-0.66797 1.6328-1.4844 3.0625-2.4531 4.2812z"/>
   </g>
   <g id="use3725" transform="translate(623.94 4498.2)"></g>
   <g id="use3727" transform="translate(629.6 4498.2)">
    <path id="path11605" d="m0.64062-4.2969v-1.7656h5.3906v1.7656z"/>
   </g>
   <g id="use3729" transform="translate(636.36 4498.2)"></g>
   <g id="use3731" transform="translate(642.02 4498.2)">
    <path id="path11613" d="m4.6719 4.2031c-0.96875-1.2188-1.7891-2.6484-2.4531-4.2812-0.66797-1.6445-1-3.3477-1-5.1094 0-1.5508 0.25-3.0352 0.75-4.4531 0.58203-1.6445 1.4844-3.2852 2.7031-4.9219h1.2656c-0.79297 1.3555-1.3125 2.3242-1.5625 2.9062-0.39844 0.89844-0.71094 1.8359-0.9375 2.8125-0.28125 1.2188-0.42188 2.4453-0.42188 3.6719 0 3.125 0.97266 6.25 2.9219 9.375z"/>
   </g>
   <g id="use3733" transform="translate(648.78 4498.2)">
    <path id="path11617" d="m0.64062-4.2969v-1.7656h5.3906v1.7656z"/>
   </g>
   <g id="use3735" transform="translate(655.54 4498.2)">
    <path id="path11621" d="m9.9531-10.812-1.75 0.14062c-0.15625-0.6875-0.375-1.1875-0.65625-1.5-0.48047-0.50781-1.0703-0.76562-1.7656-0.76562-0.5625 0-1.0547 0.15625-1.4688 0.46875-0.55469 0.40625-0.99219 1-1.3125 1.7812-0.32422 0.77344-0.49219 1.8711-0.5 3.2969 0.42578-0.63281 0.94141-1.1094 1.5469-1.4219 0.61328-0.3125 1.2578-0.46875 1.9375-0.46875 1.1641 0 2.1602 0.43359 2.9844 1.2969 0.82031 0.85547 1.2344 1.9648 1.2344 3.3281 0 0.90625-0.19531 1.7461-0.57812 2.5156-0.38672 0.77344-0.91797 1.3672-1.5938 1.7812-0.67969 0.40625-1.4492 0.60938-2.3125 0.60938-1.4609 0-2.6523-0.53516-3.5781-1.6094-0.92969-1.082-1.3906-2.8633-1.3906-5.3438 0-2.7578 0.50781-4.7695 1.5312-6.0312 0.89453-1.0938 2.0977-1.6406 3.6094-1.6406 1.125 0 2.0469 0.32031 2.7656 0.95312 0.71875 0.625 1.1484 1.4961 1.2969 2.6094zm-7.1719 6.1719c0 0.60547 0.125 1.1836 0.375 1.7344 0.25781 0.55469 0.61719 0.97656 1.0781 1.2656 0.46875 0.29297 0.95312 0.4375 1.4531 0.4375 0.75 0 1.3906-0.29688 1.9219-0.89062 0.53125-0.60156 0.79688-1.4219 0.79688-2.4531 0-0.98828-0.26562-1.7656-0.79688-2.3281-0.52344-0.57031-1.1836-0.85938-1.9844-0.85938-0.79297 0-1.4648 0.28906-2.0156 0.85938-0.55469 0.5625-0.82812 1.3086-0.82812 2.2344z"/>
   </g>
   <g id="use3737" transform="translate(666.76 4498.2)">
    <path id="path11625" d="m2.4688 4.2031h-1.25c1.9375-3.125 2.9062-6.25 2.9062-9.375 0-1.2266-0.13672-2.4414-0.40625-3.6406-0.23047-0.97656-0.54297-1.9141-0.9375-2.8125-0.25-0.59375-0.77344-1.5703-1.5625-2.9375h1.25c1.2266 1.6367 2.1328 3.2773 2.7188 4.9219 0.5 1.418 0.75 2.9023 0.75 4.4531 0 1.7617-0.33984 3.4648-1.0156 5.1094-0.66797 1.6328-1.4844 3.0625-2.4531 4.2812z"/>
   </g>
   <g id="use3739" transform="translate(673.52 4498.2)">
    <path id="path11629" d="m6.1094-5.9844v1.5938c-0.5 0.023437-0.90625 0.16406-1.2188 0.42188-0.3125 0.26172-0.52344 0.61719-0.625 1.0625-0.10547 0.4375-0.16406 1.2031-0.17188 2.2969-0.011719 1.082-0.03125 1.7969-0.0625 2.1406-0.054687 0.55078-0.16406 0.98828-0.32812 1.3125-0.15625 0.33203-0.35547 0.59766-0.59375 0.79688-0.23047 0.20703-0.52734 0.36328-0.89062 0.46875-0.25 0.0625-0.65625 0.09375-1.2188 0.09375h-0.54688v-1.5312h0.3125c0.67578 0 1.125-0.125 1.3438-0.375 0.21875-0.24219 0.32812-0.78125 0.32812-1.625 0-1.6328 0.03125-2.6719 0.09375-3.1094 0.10156-0.71875 0.3125-1.2891 0.625-1.7188 0.3125-0.4375 0.75391-0.77344 1.3281-1.0156-0.75-0.36328-1.2812-0.83594-1.5938-1.4219-0.30469-0.59375-0.45312-1.5859-0.45312-2.9844 0-1.2695-0.015625-2.0312-0.046875-2.2812-0.042969-0.4375-0.17188-0.73828-0.39062-0.90625-0.21094-0.17578-0.62109-0.26562-1.2344-0.26562h-0.3125v-1.5312h0.54688c0.64453 0 1.1094 0.05469 1.3906 0.15625 0.41406 0.14844 0.75781 0.39062 1.0312 0.73438 0.28125 0.33594 0.45703 0.76172 0.53125 1.2812 0.082031 0.51172 0.12891 1.3555 0.14062 2.5312 0.00781 1.168 0.066406 1.9766 0.17188 2.4219 0.10156 0.4375 0.3125 0.78906 0.625 1.0469 0.3125 0.26172 0.71875 0.39844 1.2188 0.40625z"/>
   </g>
  </g>
  <g id="g3745" transform="matrix(.35278 0 0 .35278 -50.404 -1443)">
   <g id="use3743" transform="translate(680.3 4498.2)">
    <path id="path11633" d="m5.5312 5.1719h-5.0312v-1.8906h2.75v-20h-2.75v-1.8906h5.0312z"/>
   </g>
  </g>
  <g id="g3751" transform="matrix(.35278 0 0 .35278 -50.404 -1443)" style="fill:#0000bd">
   <g id="use3747" transform="translate(448.97 4416.2)">
    <path id="path11637" d="m6.4688 0v-3.4219h-6.2188v-1.625l6.5312-9.2656h1.4375v9.2656h1.9375v1.625h-1.9375v3.4219zm0-5.0469v-6.4531l-4.4844 6.4531z"/>
   </g>
   <g id="use3749" transform="translate(460.19 4416.2)">
    <path id="path11641" d="m2.4688 4.2031h-1.25c1.9375-3.125 2.9062-6.25 2.9062-9.375 0-1.2266-0.13672-2.4414-0.40625-3.6406-0.23047-0.97656-0.54297-1.9141-0.9375-2.8125-0.25-0.59375-0.77344-1.5703-1.5625-2.9375h1.25c1.2266 1.6367 2.1328 3.2773 2.7188 4.9219 0.5 1.418 0.75 2.9023 0.75 4.4531 0 1.7617-0.33984 3.4648-1.0156 5.1094-0.66797 1.6328-1.4844 3.0625-2.4531 4.2812z"/>
   </g>
  </g>
  <g id="g3759" transform="matrix(.35278 0 0 .35278 -50.404 -1443)">
   <g id="use3757" transform="translate(472.61 4416.2)">
    <path id="path11645" d="m1.7656 5.1719v-23.781h5.0469v1.8906h-2.7656v20h2.7656v1.8906z"/>
   </g>
  </g>
  <g id="g3803" transform="matrix(.35278 0 0 .35278 -50.404 -1443)">
   <g id="use3761" transform="translate(479.96 4416.2)">
    <path id="path11649" d="m4.6719 4.2031c-0.96875-1.2188-1.7891-2.6484-2.4531-4.2812-0.66797-1.6445-1-3.3477-1-5.1094 0-1.5508 0.25-3.0352 0.75-4.4531 0.58203-1.6445 1.4844-3.2852 2.7031-4.9219h1.2656c-0.79297 1.3555-1.3125 2.3242-1.5625 2.9062-0.39844 0.89844-0.71094 1.8359-0.9375 2.8125-0.28125 1.2188-0.42188 2.4453-0.42188 3.6719 0 3.125 0.97266 6.25 2.9219 9.375z"/>
   </g>
   <g id="use3763" transform="translate(486.72 4416.2)">
    <path id="path11653" d="m0.64062-4.2969v-1.7656h5.3906v1.7656z"/>
   </g>
   <g id="use3765" transform="translate(493.48 4416.2)">
    <path id="path11657" d="m9.9531-10.812-1.75 0.14062c-0.15625-0.6875-0.375-1.1875-0.65625-1.5-0.48047-0.50781-1.0703-0.76562-1.7656-0.76562-0.5625 0-1.0547 0.15625-1.4688 0.46875-0.55469 0.40625-0.99219 1-1.3125 1.7812-0.32422 0.77344-0.49219 1.8711-0.5 3.2969 0.42578-0.63281 0.94141-1.1094 1.5469-1.4219 0.61328-0.3125 1.2578-0.46875 1.9375-0.46875 1.1641 0 2.1602 0.43359 2.9844 1.2969 0.82031 0.85547 1.2344 1.9648 1.2344 3.3281 0 0.90625-0.19531 1.7461-0.57812 2.5156-0.38672 0.77344-0.91797 1.3672-1.5938 1.7812-0.67969 0.40625-1.4492 0.60938-2.3125 0.60938-1.4609 0-2.6523-0.53516-3.5781-1.6094-0.92969-1.082-1.3906-2.8633-1.3906-5.3438 0-2.7578 0.50781-4.7695 1.5312-6.0312 0.89453-1.0938 2.0977-1.6406 3.6094-1.6406 1.125 0 2.0469 0.32031 2.7656 0.95312 0.71875 0.625 1.1484 1.4961 1.2969 2.6094zm-7.1719 6.1719c0 0.60547 0.125 1.1836 0.375 1.7344 0.25781 0.55469 0.61719 0.97656 1.0781 1.2656 0.46875 0.29297 0.95312 0.4375 1.4531 0.4375 0.75 0 1.3906-0.29688 1.9219-0.89062 0.53125-0.60156 0.79688-1.4219 0.79688-2.4531 0-0.98828-0.26562-1.7656-0.79688-2.3281-0.52344-0.57031-1.1836-0.85938-1.9844-0.85938-0.79297 0-1.4648 0.28906-2.0156 0.85938-0.55469 0.5625-0.82812 1.3086-0.82812 2.2344z"/>
   </g>
   <g id="use3767" transform="translate(504.7 4416.2)">
    <path id="path11661" d="m2.4688 4.2031h-1.25c1.9375-3.125 2.9062-6.25 2.9062-9.375 0-1.2266-0.13672-2.4414-0.40625-3.6406-0.23047-0.97656-0.54297-1.9141-0.9375-2.8125-0.25-0.59375-0.77344-1.5703-1.5625-2.9375h1.25c1.2266 1.6367 2.1328 3.2773 2.7188 4.9219 0.5 1.418 0.75 2.9023 0.75 4.4531 0 1.7617-0.33984 3.4648-1.0156 5.1094-0.66797 1.6328-1.4844 3.0625-2.4531 4.2812z"/>
   </g>
   <g id="use3769" transform="translate(511.46 4416.2)"></g>
   <g id="use3771" transform="translate(517.12 4416.2)">
    <path id="path11669" d="m0.64062-4.2969v-1.7656h5.3906v1.7656z"/>
   </g>
   <g id="use3773" transform="translate(523.88 4416.2)"></g>
   <g id="use3775" transform="translate(529.54 4416.2)">
    <path id="path11677" d="m0.5625-5.9844c0.5-0.00781 0.90625-0.14062 1.2188-0.39062 0.3125-0.25781 0.51953-0.61328 0.625-1.0625 0.10156-0.44531 0.16016-1.2109 0.17188-2.2969 0.00781-1.0938 0.03125-1.8125 0.0625-2.1562 0.050781-0.55078 0.15625-0.99219 0.3125-1.3281 0.16406-0.33203 0.36328-0.59766 0.59375-0.79688 0.23828-0.19531 0.53906-0.34766 0.90625-0.45312 0.25-0.0625 0.65625-0.09375 1.2188-0.09375h0.54688v1.5312h-0.3125c-0.67969 0-1.125 0.125-1.3438 0.375-0.21875 0.24219-0.32812 0.78125-0.32812 1.625 0 1.7109-0.039062 2.7891-0.10938 3.2344-0.11719 0.69922-0.32031 1.2422-0.60938 1.625-0.28125 0.375-0.72656 0.71094-1.3281 1 0.71875 0.29297 1.2383 0.75 1.5625 1.375 0.32031 0.61719 0.48438 1.6211 0.48438 3.0156 0 1.2695 0.00781 2.0234 0.03125 2.2656 0.050781 0.44531 0.17969 0.75391 0.39062 0.92188 0.21875 0.17578 0.63281 0.26562 1.25 0.26562h0.3125v1.5312h-0.54688c-0.64844 0-1.1094-0.054687-1.3906-0.15625-0.41797-0.14844-0.76562-0.38672-1.0469-0.71875-0.27344-0.33594-0.44922-0.76172-0.53125-1.2812-0.074219-0.51172-0.11719-1.3516-0.125-2.5156-0.011719-1.1758-0.070312-1.9883-0.17188-2.4375-0.10547-0.44531-0.3125-0.80078-0.625-1.0625-0.3125-0.25781-0.71875-0.39844-1.2188-0.42188z"/>
   </g>
   <g id="use3777" transform="translate(536.32 4416.2)">
    <path id="path11681" d="m4.6719 4.2031c-0.96875-1.2188-1.7891-2.6484-2.4531-4.2812-0.66797-1.6445-1-3.3477-1-5.1094 0-1.5508 0.25-3.0352 0.75-4.4531 0.58203-1.6445 1.4844-3.2852 2.7031-4.9219h1.2656c-0.79297 1.3555-1.3125 2.3242-1.5625 2.9062-0.39844 0.89844-0.71094 1.8359-0.9375 2.8125-0.28125 1.2188-0.42188 2.4453-0.42188 3.6719 0 3.125 0.97266 6.25 2.9219 9.375z"/>
   </g>
   <g id="use3779" transform="translate(543.08 4416.2)">
    <path id="path11685" d="m0.64062-4.2969v-1.7656h5.3906v1.7656z"/>
   </g>
   <g id="use3781" transform="translate(549.84 4416.2)">
    <path id="path11689" d="m7.4531 0h-1.7656v-11.203c-0.41797 0.40625-0.96875 0.8125-1.6562 1.2188-0.6875 0.39844-1.3086 0.69922-1.8594 0.90625v-1.7031c0.98828-0.45703 1.8477-1.0156 2.5781-1.6719 0.73828-0.66406 1.2578-1.3047 1.5625-1.9219h1.1406z"/>
   </g>
   <g id="use3783" transform="translate(561.06 4416.2)">
    <path id="path11693" d="m0.82812-7.0625c0-1.6875 0.17188-3.0469 0.51562-4.0781 0.35156-1.0391 0.875-1.8359 1.5625-2.3906 0.6875-0.5625 1.5508-0.84375 2.5938-0.84375 0.76953 0 1.4414 0.15625 2.0156 0.46875 0.58203 0.30469 1.0625 0.74609 1.4375 1.3281 0.375 0.58594 0.67188 1.2969 0.89062 2.1406 0.21875 0.83594 0.32812 1.9609 0.32812 3.375 0 1.6797-0.17969 3.0312-0.53125 4.0625-0.34375 1.0312-0.85938 1.8359-1.5469 2.4062-0.67969 0.5625-1.543 0.84375-2.5938 0.84375-1.3867 0-2.4688-0.49219-3.25-1.4844-0.94922-1.1953-1.4219-3.1406-1.4219-5.8281zm1.8125 0c0 2.3555 0.26953 3.9219 0.8125 4.7031 0.55078 0.77344 1.2344 1.1562 2.0469 1.1562 0.80078 0 1.4766-0.39062 2.0312-1.1719 0.55078-0.78125 0.82812-2.3438 0.82812-4.6875 0-2.3516-0.27734-3.9141-0.82812-4.6875-0.55469-0.78125-1.2344-1.1719-2.0469-1.1719s-1.4609 0.34375-1.9375 1.0312c-0.60547 0.86719-0.90625 2.4766-0.90625 4.8281z"/>
   </g>
   <g id="use3785" transform="translate(572.28 4416.2)">
    <path id="path11697" d="m2.4688 4.2031h-1.25c1.9375-3.125 2.9062-6.25 2.9062-9.375 0-1.2266-0.13672-2.4414-0.40625-3.6406-0.23047-0.97656-0.54297-1.9141-0.9375-2.8125-0.25-0.59375-0.77344-1.5703-1.5625-2.9375h1.25c1.2266 1.6367 2.1328 3.2773 2.7188 4.9219 0.5 1.418 0.75 2.9023 0.75 4.4531 0 1.7617-0.33984 3.4648-1.0156 5.1094-0.66797 1.6328-1.4844 3.0625-2.4531 4.2812z"/>
   </g>
   <g id="use3787" transform="translate(579.04 4416.2)"></g>
   <g id="use3789" transform="translate(584.7 4416.2)">
    <path id="path11705" d="m4.4844-9v-2h2v2zm5.7344 2.7656h-9.4531v-1.6406h9.4531zm-5.7344 3.125v-2.0156h2v2.0156z"/>
   </g>
   <g id="use3791" transform="translate(595.78 4416.2)"></g>
   <g id="use3793" transform="translate(601.44 4416.2)">
    <path id="path11713" d="m4.6719 4.2031c-0.96875-1.2188-1.7891-2.6484-2.4531-4.2812-0.66797-1.6445-1-3.3477-1-5.1094 0-1.5508 0.25-3.0352 0.75-4.4531 0.58203-1.6445 1.4844-3.2852 2.7031-4.9219h1.2656c-0.79297 1.3555-1.3125 2.3242-1.5625 2.9062-0.39844 0.89844-0.71094 1.8359-0.9375 2.8125-0.28125 1.2188-0.42188 2.4453-0.42188 3.6719 0 3.125 0.97266 6.25 2.9219 9.375z"/>
   </g>
   <g id="use3795" transform="translate(608.2 4416.2)">
    <path id="path11717" d="m0.64062-4.2969v-1.7656h5.3906v1.7656z"/>
   </g>
   <g id="use3797" transform="translate(614.96 4416.2)">
    <path id="path11721" d="m0.82812-3.75 1.8438-0.15625c0.13281 0.89844 0.45312 1.5742 0.95312 2.0312 0.5 0.44922 1.1016 0.67188 1.8125 0.67188 0.84375 0 1.5547-0.31641 2.1406-0.95312 0.58203-0.63281 0.875-1.4844 0.875-2.5469 0-1-0.28125-1.7852-0.84375-2.3594-0.5625-0.58203-1.2969-0.875-2.2031-0.875-0.57422 0-1.0898 0.13281-1.5469 0.39062-0.44922 0.25-0.80469 0.58594-1.0625 1l-1.6562-0.21875 1.3906-7.3594h7.125v1.6875h-5.7188l-0.76562 3.8438c0.85156-0.60156 1.7539-0.90625 2.7031-0.90625 1.25 0 2.3008 0.4375 3.1562 1.3125 0.86328 0.86719 1.2969 1.9766 1.2969 3.3281 0 1.3047-0.38281 2.4219-1.1406 3.3594-0.91797 1.168-2.168 1.75-3.75 1.75-1.3047 0-2.3711-0.36328-3.2031-1.0938-0.82422-0.72656-1.293-1.6953-1.4062-2.9062z"/>
   </g>
   <g id="use3799" transform="translate(626.18 4416.2)">
    <path id="path11725" d="m2.4688 4.2031h-1.25c1.9375-3.125 2.9062-6.25 2.9062-9.375 0-1.2266-0.13672-2.4414-0.40625-3.6406-0.23047-0.97656-0.54297-1.9141-0.9375-2.8125-0.25-0.59375-0.77344-1.5703-1.5625-2.9375h1.25c1.2266 1.6367 2.1328 3.2773 2.7188 4.9219 0.5 1.418 0.75 2.9023 0.75 4.4531 0 1.7617-0.33984 3.4648-1.0156 5.1094-0.66797 1.6328-1.4844 3.0625-2.4531 4.2812z"/>
   </g>
   <g id="use3801" transform="translate(632.94 4416.2)">
    <path id="path11729" d="m6.1094-5.9844v1.5938c-0.5 0.023437-0.90625 0.16406-1.2188 0.42188-0.3125 0.26172-0.52344 0.61719-0.625 1.0625-0.10547 0.4375-0.16406 1.2031-0.17188 2.2969-0.011719 1.082-0.03125 1.7969-0.0625 2.1406-0.054687 0.55078-0.16406 0.98828-0.32812 1.3125-0.15625 0.33203-0.35547 0.59766-0.59375 0.79688-0.23047 0.20703-0.52734 0.36328-0.89062 0.46875-0.25 0.0625-0.65625 0.09375-1.2188 0.09375h-0.54688v-1.5312h0.3125c0.67578 0 1.125-0.125 1.3438-0.375 0.21875-0.24219 0.32812-0.78125 0.32812-1.625 0-1.6328 0.03125-2.6719 0.09375-3.1094 0.10156-0.71875 0.3125-1.2891 0.625-1.7188 0.3125-0.4375 0.75391-0.77344 1.3281-1.0156-0.75-0.36328-1.2812-0.83594-1.5938-1.4219-0.30469-0.59375-0.45312-1.5859-0.45312-2.9844 0-1.2695-0.015625-2.0312-0.046875-2.2812-0.042969-0.4375-0.17188-0.73828-0.39062-0.90625-0.21094-0.17578-0.62109-0.26562-1.2344-0.26562h-0.3125v-1.5312h0.54688c0.64453 0 1.1094 0.05469 1.3906 0.15625 0.41406 0.14844 0.75781 0.39062 1.0312 0.73438 0.28125 0.33594 0.45703 0.76172 0.53125 1.2812 0.082031 0.51172 0.12891 1.3555 0.14062 2.5312 0.00781 1.168 0.066406 1.9766 0.17188 2.4219 0.10156 0.4375 0.3125 0.78906 0.625 1.0469 0.3125 0.26172 0.71875 0.39844 1.2188 0.40625z"/>
   </g>
  </g>
  <g id="g3807" transform="matrix(.35278 0 0 .35278 -50.404 -1443)">
   <g id="use3805" transform="translate(639.72 4409.5)">
    <path id="path11733" d="m0.48438-2.2031 1.0312-0.14062c0.11328 0.58594 0.3125 1.0078 0.59375 1.2656 0.28125 0.25 0.625 0.375 1.0312 0.375 0.48828 0 0.89453-0.16406 1.2188-0.5 0.33203-0.33203 0.5-0.74219 0.5-1.2344 0-0.46875-0.15625-0.85156-0.46875-1.1562-0.30469-0.3125-0.6875-0.46875-1.1562-0.46875-0.19922 0-0.4375 0.039062-0.71875 0.10938l0.10938-0.89062h0.15625c0.4375 0 0.82812-0.10938 1.1719-0.32812 0.35156-0.22656 0.53125-0.58203 0.53125-1.0625 0-0.375-0.125-0.67969-0.375-0.92188-0.25-0.25-0.57812-0.375-0.98438-0.375-0.39844 0-0.73047 0.125-1 0.375-0.26172 0.25-0.43359 0.625-0.51562 1.125l-1.0156-0.1875c0.125-0.6875 0.40625-1.2188 0.84375-1.5938 0.44531-0.375 1.0039-0.5625 1.6719-0.5625 0.44531 0 0.86328 0.10156 1.25 0.29688 0.38281 0.1875 0.67578 0.45312 0.875 0.79688 0.20703 0.33594 0.3125 0.69531 0.3125 1.0781 0 0.35547-0.10156 0.68359-0.29688 0.98438-0.1875 0.29297-0.47656 0.52734-0.85938 0.70312 0.5 0.11719 0.88281 0.35547 1.1562 0.71875 0.26953 0.35547 0.40625 0.79688 0.40625 1.3281 0 0.73047-0.26562 1.3516-0.79688 1.8594-0.53125 0.5-1.2031 0.75-2.0156 0.75-0.73047 0-1.3398-0.21094-1.8281-0.64062-0.48047-0.4375-0.75781-1.0039-0.82812-1.7031z"/>
   </g>
  </g>
  <g id="g3811" transform="matrix(.35278 0 0 .35278 -50.404 -1443)">
   <g id="use3809" transform="translate(646.26 4416.2)">
    <path id="path11737" d="m5.5312 5.1719h-5.0312v-1.8906h2.75v-20h-2.75v-1.8906h5.0312z"/>
   </g>
  </g>
  <g id="g3819" transform="matrix(.35278 0 0 .35278 -50.404 -1443)">
   <g id="use3817" transform="translate(659.28 4416.2)">
    <path id="path11741" d="m2.3281-6.2188v-2h2v2z"/>
   </g>
  </g>
  <g id="g3831" transform="matrix(.35278 0 0 .35278 -50.404 -1443)">
   <g id="use3821" transform="translate(666.03 4416.2)"></g>
   <g id="use3823" transform="translate(671.7 4416.2)">
    <path id="path11749" d="m4.6719 4.2031c-0.96875-1.2188-1.7891-2.6484-2.4531-4.2812-0.66797-1.6445-1-3.3477-1-5.1094 0-1.5508 0.25-3.0352 0.75-4.4531 0.58203-1.6445 1.4844-3.2852 2.7031-4.9219h1.2656c-0.79297 1.3555-1.3125 2.3242-1.5625 2.9062-0.39844 0.89844-0.71094 1.8359-0.9375 2.8125-0.28125 1.2188-0.42188 2.4453-0.42188 3.6719 0 3.125 0.97266 6.25 2.9219 9.375z"/>
   </g>
   <g id="use3825" transform="translate(678.46 4416.2)">
    <path id="path11753" d="m0.64062-4.2969v-1.7656h5.3906v1.7656z"/>
   </g>
   <g id="use3827" transform="translate(685.22 4416.2)">
    <path id="path11757" d="m0.95312-12.438v-1.6875h9.2656v1.3594c-0.91797 0.96875-1.8242 2.2617-2.7188 3.875-0.89844 1.6055-1.5859 3.2578-2.0625 4.9531-0.35547 1.1992-0.58594 2.5117-0.6875 3.9375h-1.7969c0.019531-1.125 0.23828-2.4844 0.65625-4.0781 0.42578-1.5938 1.0352-3.1289 1.8281-4.6094 0.78906-1.4883 1.6289-2.7383 2.5156-3.75z"/>
   </g>
   <g id="use3829" transform="translate(696.44 4416.2)">
    <path id="path11761" d="m2.4688 4.2031h-1.25c1.9375-3.125 2.9062-6.25 2.9062-9.375 0-1.2266-0.13672-2.4414-0.40625-3.6406-0.23047-0.97656-0.54297-1.9141-0.9375-2.8125-0.25-0.59375-0.77344-1.5703-1.5625-2.9375h1.25c1.2266 1.6367 2.1328 3.2773 2.7188 4.9219 0.5 1.418 0.75 2.9023 0.75 4.4531 0 1.7617-0.33984 3.4648-1.0156 5.1094-0.66797 1.6328-1.4844 3.0625-2.4531 4.2812z"/>
   </g>
  </g>
  <g id="g3837" transform="matrix(.35278 0 0 .35278 -50.404 -1443)" style="fill:#0000bd">
   <g id="use3833" transform="translate(449.92 4330.5)">
    <path id="path11765" d="m10.062-1.6875v1.6875h-9.4531c-0.011719-0.42578 0.054688-0.83203 0.20312-1.2188 0.23828-0.64453 0.625-1.2812 1.1562-1.9062s1.2969-1.3477 2.2969-2.1719c1.5625-1.2695 2.6133-2.2734 3.1562-3.0156 0.55078-0.75 0.82812-1.457 0.82812-2.125 0-0.69531-0.25-1.2852-0.75-1.7656-0.5-0.47656-1.1523-0.71875-1.9531-0.71875-0.84375 0-1.5234 0.25781-2.0312 0.76562-0.51172 0.51172-0.76562 1.2148-0.76562 2.1094l-1.8125-0.1875c0.125-1.3438 0.58594-2.3672 1.3906-3.0781 0.8125-0.70703 1.8984-1.0625 3.2656-1.0625 1.3633 0 2.4453 0.38281 3.25 1.1406 0.80078 0.76172 1.2031 1.7031 1.2031 2.8281 0 0.57422-0.12109 1.1406-0.35938 1.7031-0.23047 0.55469-0.61719 1.1367-1.1562 1.75-0.54297 0.60547-1.4453 1.4453-2.7031 2.5156-1.0625 0.88672-1.7461 1.4844-2.0469 1.7969-0.29297 0.3125-0.53906 0.63281-0.73438 0.95312z"/>
   </g>
   <g id="use3835" transform="translate(461.14 4330.5)">
    <path id="path11769" d="m2.4688 4.2031h-1.25c1.9375-3.125 2.9062-6.25 2.9062-9.375 0-1.2266-0.13672-2.4414-0.40625-3.6406-0.23047-0.97656-0.54297-1.9141-0.9375-2.8125-0.25-0.59375-0.77344-1.5703-1.5625-2.9375h1.25c1.2266 1.6367 2.1328 3.2773 2.7188 4.9219 0.5 1.418 0.75 2.9023 0.75 4.4531 0 1.7617-0.33984 3.4648-1.0156 5.1094-0.66797 1.6328-1.4844 3.0625-2.4531 4.2812z"/>
   </g>
  </g>
  <g id="g3845" transform="matrix(.35278 0 0 .35278 -50.404 -1443)">
   <g id="use3843" transform="translate(473.55 4330.5)">
    <path id="path11773" d="m1.7656 5.1719v-23.781h5.0469v1.8906h-2.7656v20h2.7656v1.8906z"/>
   </g>
  </g>
  <g id="g3857" transform="matrix(.35278 0 0 .35278 -50.404 -1443)">
   <g id="use3847" transform="translate(480.91 4330.5)">
    <path id="path11777" d="m0.5625-5.9844c0.5-0.00781 0.90625-0.14062 1.2188-0.39062 0.3125-0.25781 0.51953-0.61328 0.625-1.0625 0.10156-0.44531 0.16016-1.2109 0.17188-2.2969 0.00781-1.0938 0.03125-1.8125 0.0625-2.1562 0.050781-0.55078 0.15625-0.99219 0.3125-1.3281 0.16406-0.33203 0.36328-0.59766 0.59375-0.79688 0.23828-0.19531 0.53906-0.34766 0.90625-0.45312 0.25-0.0625 0.65625-0.09375 1.2188-0.09375h0.54688v1.5312h-0.3125c-0.67969 0-1.125 0.125-1.3438 0.375-0.21875 0.24219-0.32812 0.78125-0.32812 1.625 0 1.7109-0.039062 2.7891-0.10938 3.2344-0.11719 0.69922-0.32031 1.2422-0.60938 1.625-0.28125 0.375-0.72656 0.71094-1.3281 1 0.71875 0.29297 1.2383 0.75 1.5625 1.375 0.32031 0.61719 0.48438 1.6211 0.48438 3.0156 0 1.2695 0.00781 2.0234 0.03125 2.2656 0.050781 0.44531 0.17969 0.75391 0.39062 0.92188 0.21875 0.17578 0.63281 0.26562 1.25 0.26562h0.3125v1.5312h-0.54688c-0.64844 0-1.1094-0.054687-1.3906-0.15625-0.41797-0.14844-0.76562-0.38672-1.0469-0.71875-0.27344-0.33594-0.44922-0.76172-0.53125-1.2812-0.074219-0.51172-0.11719-1.3516-0.125-2.5156-0.011719-1.1758-0.070312-1.9883-0.17188-2.4375-0.10547-0.44531-0.3125-0.80078-0.625-1.0625-0.3125-0.25781-0.71875-0.39844-1.2188-0.42188z"/>
   </g>
   <g id="use3849" transform="translate(487.69 4330.5)">
    <path id="path11781" d="m4.6719 4.2031c-0.96875-1.2188-1.7891-2.6484-2.4531-4.2812-0.66797-1.6445-1-3.3477-1-5.1094 0-1.5508 0.25-3.0352 0.75-4.4531 0.58203-1.6445 1.4844-3.2852 2.7031-4.9219h1.2656c-0.79297 1.3555-1.3125 2.3242-1.5625 2.9062-0.39844 0.89844-0.71094 1.8359-0.9375 2.8125-0.28125 1.2188-0.42188 2.4453-0.42188 3.6719 0 3.125 0.97266 6.25 2.9219 9.375z"/>
   </g>
   <g id="use3851" transform="translate(494.45 4330.5)">
    <path id="path11785" d="m0.64062-4.2969v-1.7656h5.3906v1.7656z"/>
   </g>
   <g id="use3853" transform="translate(501.21 4330.5)">
    <path id="path11789" d="m0.84375-3.7812 1.75-0.23438c0.20703 1 0.55078 1.7188 1.0312 2.1562 0.48828 0.4375 1.082 0.65625 1.7812 0.65625 0.82031 0 1.5156-0.28516 2.0781-0.85938 0.57031-0.57031 0.85938-1.2812 0.85938-2.125 0-0.8125-0.26562-1.4766-0.79688-2-0.52344-0.51953-1.1875-0.78125-2-0.78125-0.33594 0-0.74609 0.0625-1.2344 0.1875l0.1875-1.5469c0.11328 0.023437 0.20703 0.03125 0.28125 0.03125 0.75 0 1.4219-0.19141 2.0156-0.57812 0.60156-0.39453 0.90625-1 0.90625-1.8125 0-0.64453-0.21875-1.1797-0.65625-1.6094-0.4375-0.42578-1-0.64062-1.6875-0.64062-0.67969 0-1.2461 0.21875-1.7031 0.65625-0.46094 0.42969-0.75 1.0703-0.875 1.9219l-1.7656-0.3125c0.21875-1.1758 0.70703-2.0859 1.4688-2.7344 0.75781-0.64453 1.707-0.96875 2.8438-0.96875 0.78125 0 1.5 0.16797 2.1562 0.5 0.65625 0.33594 1.1562 0.79297 1.5 1.375 0.35156 0.58594 0.53125 1.1992 0.53125 1.8438 0 0.61719-0.16797 1.1797-0.5 1.6875-0.33594 0.51172-0.82422 0.91797-1.4688 1.2188 0.84375 0.1875 1.5 0.59375 1.9688 1.2188 0.46875 0.61719 0.70312 1.3828 0.70312 2.2969 0 1.25-0.46094 2.3125-1.375 3.1875-0.90625 0.86719-2.0586 1.2969-3.4531 1.2969-1.2617 0-2.3086-0.375-3.1406-1.125-0.82422-0.75-1.293-1.7188-1.4062-2.9062z"/>
   </g>
   <g id="use3855" transform="translate(512.43 4330.5)">
    <path id="path11793" d="m2.4688 4.2031h-1.25c1.9375-3.125 2.9062-6.25 2.9062-9.375 0-1.2266-0.13672-2.4414-0.40625-3.6406-0.23047-0.97656-0.54297-1.9141-0.9375-2.8125-0.25-0.59375-0.77344-1.5703-1.5625-2.9375h1.25c1.2266 1.6367 2.1328 3.2773 2.7188 4.9219 0.5 1.418 0.75 2.9023 0.75 4.4531 0 1.7617-0.33984 3.4648-1.0156 5.1094-0.66797 1.6328-1.4844 3.0625-2.4531 4.2812z"/>
   </g>
  </g>
  <g id="g3861" transform="matrix(.35278 0 0 .35278 -50.404 -1443)">
   <g id="use3859" transform="translate(519.19 4323.8)">
    <path id="path11797" d="m0.48438-2.2031 1.0312-0.14062c0.11328 0.58594 0.3125 1.0078 0.59375 1.2656 0.28125 0.25 0.625 0.375 1.0312 0.375 0.48828 0 0.89453-0.16406 1.2188-0.5 0.33203-0.33203 0.5-0.74219 0.5-1.2344 0-0.46875-0.15625-0.85156-0.46875-1.1562-0.30469-0.3125-0.6875-0.46875-1.1562-0.46875-0.19922 0-0.4375 0.039062-0.71875 0.10938l0.10938-0.89062h0.15625c0.4375 0 0.82812-0.10938 1.1719-0.32812 0.35156-0.22656 0.53125-0.58203 0.53125-1.0625 0-0.375-0.125-0.67969-0.375-0.92188-0.25-0.25-0.57812-0.375-0.98438-0.375-0.39844 0-0.73047 0.125-1 0.375-0.26172 0.25-0.43359 0.625-0.51562 1.125l-1.0156-0.1875c0.125-0.6875 0.40625-1.2188 0.84375-1.5938 0.44531-0.375 1.0039-0.5625 1.6719-0.5625 0.44531 0 0.86328 0.10156 1.25 0.29688 0.38281 0.1875 0.67578 0.45312 0.875 0.79688 0.20703 0.33594 0.3125 0.69531 0.3125 1.0781 0 0.35547-0.10156 0.68359-0.29688 0.98438-0.1875 0.29297-0.47656 0.52734-0.85938 0.70312 0.5 0.11719 0.88281 0.35547 1.1562 0.71875 0.26953 0.35547 0.40625 0.79688 0.40625 1.3281 0 0.73047-0.26562 1.3516-0.79688 1.8594-0.53125 0.5-1.2031 0.75-2.0156 0.75-0.73047 0-1.3398-0.21094-1.8281-0.64062-0.48047-0.4375-0.75781-1.0039-0.82812-1.7031z"/>
   </g>
  </g>
  <g id="g3881" transform="matrix(.35278 0 0 .35278 -50.404 -1443)">
   <g id="use3863" transform="translate(525.73 4330.5)"></g>
   <g id="use3865" transform="translate(531.39 4330.5)">
    <path id="path11805" d="m5.0156-2.3125v-3.9219h-3.9062v-1.6406h3.9062v-3.9062h1.6562v3.9062h3.8906v1.6406h-3.8906v3.9219z"/>
   </g>
   <g id="use3867" transform="translate(543.17 4330.5)"></g>
   <g id="use3869" transform="translate(548.83 4330.5)">
    <path id="path11813" d="m4.6719 4.2031c-0.96875-1.2188-1.7891-2.6484-2.4531-4.2812-0.66797-1.6445-1-3.3477-1-5.1094 0-1.5508 0.25-3.0352 0.75-4.4531 0.58203-1.6445 1.4844-3.2852 2.7031-4.9219h1.2656c-0.79297 1.3555-1.3125 2.3242-1.5625 2.9062-0.39844 0.89844-0.71094 1.8359-0.9375 2.8125-0.28125 1.2188-0.42188 2.4453-0.42188 3.6719 0 3.125 0.97266 6.25 2.9219 9.375z"/>
   </g>
   <g id="use3871" transform="translate(555.59 4330.5)">
    <path id="path11817" d="m0.64062-4.2969v-1.7656h5.3906v1.7656z"/>
   </g>
   <g id="use3873" transform="translate(562.35 4330.5)">
    <path id="path11821" d="m3.5312-7.7656c-0.73047-0.26953-1.2734-0.64844-1.625-1.1406-0.34375-0.5-0.51562-1.0938-0.51562-1.7812 0-1.0391 0.375-1.9141 1.125-2.625 0.75-0.70703 1.7422-1.0625 2.9844-1.0625 1.25 0 2.2539 0.36719 3.0156 1.0938 0.75781 0.71875 1.1406 1.6016 1.1406 2.6406 0 0.66797-0.17969 1.2461-0.53125 1.7344-0.34375 0.49219-0.87109 0.87109-1.5781 1.1406 0.88281 0.29297 1.5547 0.75781 2.0156 1.3906 0.45703 0.63672 0.6875 1.3984 0.6875 2.2812 0 1.2305-0.4375 2.2617-1.3125 3.0938-0.86719 0.83594-2 1.25-3.4062 1.25-1.418 0-2.5586-0.41406-3.4219-1.25-0.86719-0.84375-1.2969-1.8906-1.2969-3.1406 0-0.92578 0.23438-1.7031 0.70312-2.3281 0.47656-0.63281 1.1484-1.0664 2.0156-1.2969zm-0.34375-2.9844c0 0.67969 0.21875 1.2344 0.65625 1.6719 0.4375 0.42969 1 0.64062 1.6875 0.64062 0.67578 0 1.2344-0.21094 1.6719-0.64062 0.4375-0.42578 0.65625-0.94531 0.65625-1.5625 0-0.64453-0.22656-1.1875-0.67188-1.625-0.44922-0.44531-1.0078-0.67188-1.6719-0.67188-0.66797 0-1.2266 0.21875-1.6719 0.65625-0.4375 0.42969-0.65625 0.9375-0.65625 1.5312zm-0.5625 6.625c0 0.5 0.11328 0.98438 0.34375 1.4531 0.23828 0.46875 0.59375 0.83594 1.0625 1.0938 0.46875 0.25 0.97266 0.375 1.5156 0.375 0.84375 0 1.5352-0.26953 2.0781-0.8125 0.55078-0.53906 0.82812-1.2266 0.82812-2.0625 0-0.84375-0.28125-1.5391-0.84375-2.0938-0.5625-0.55078-1.2734-0.82812-2.125-0.82812-0.82422 0-1.5078 0.27734-2.0469 0.82812-0.54297 0.54297-0.8125 1.2266-0.8125 2.0469z"/>
   </g>
   <g id="use3875" transform="translate(573.57 4330.5)">
    <path id="path11825" d="m2.4688 4.2031h-1.25c1.9375-3.125 2.9062-6.25 2.9062-9.375 0-1.2266-0.13672-2.4414-0.40625-3.6406-0.23047-0.97656-0.54297-1.9141-0.9375-2.8125-0.25-0.59375-0.77344-1.5703-1.5625-2.9375h1.25c1.2266 1.6367 2.1328 3.2773 2.7188 4.9219 0.5 1.418 0.75 2.9023 0.75 4.4531 0 1.7617-0.33984 3.4648-1.0156 5.1094-0.66797 1.6328-1.4844 3.0625-2.4531 4.2812z"/>
   </g>
   <g id="use3877" transform="translate(580.33 4330.5)">
    <path id="path11829" d="m6.1094-5.9844v1.5938c-0.5 0.023437-0.90625 0.16406-1.2188 0.42188-0.3125 0.26172-0.52344 0.61719-0.625 1.0625-0.10547 0.4375-0.16406 1.2031-0.17188 2.2969-0.011719 1.082-0.03125 1.7969-0.0625 2.1406-0.054687 0.55078-0.16406 0.98828-0.32812 1.3125-0.15625 0.33203-0.35547 0.59766-0.59375 0.79688-0.23047 0.20703-0.52734 0.36328-0.89062 0.46875-0.25 0.0625-0.65625 0.09375-1.2188 0.09375h-0.54688v-1.5312h0.3125c0.67578 0 1.125-0.125 1.3438-0.375 0.21875-0.24219 0.32812-0.78125 0.32812-1.625 0-1.6328 0.03125-2.6719 0.09375-3.1094 0.10156-0.71875 0.3125-1.2891 0.625-1.7188 0.3125-0.4375 0.75391-0.77344 1.3281-1.0156-0.75-0.36328-1.2812-0.83594-1.5938-1.4219-0.30469-0.59375-0.45312-1.5859-0.45312-2.9844 0-1.2695-0.015625-2.0312-0.046875-2.2812-0.042969-0.4375-0.17188-0.73828-0.39062-0.90625-0.21094-0.17578-0.62109-0.26562-1.2344-0.26562h-0.3125v-1.5312h0.54688c0.64453 0 1.1094 0.05469 1.3906 0.15625 0.41406 0.14844 0.75781 0.39062 1.0312 0.73438 0.28125 0.33594 0.45703 0.76172 0.53125 1.2812 0.082031 0.51172 0.12891 1.3555 0.14062 2.5312 0.00781 1.168 0.066406 1.9766 0.17188 2.4219 0.10156 0.4375 0.3125 0.78906 0.625 1.0469 0.3125 0.26172 0.71875 0.39844 1.2188 0.40625z"/>
   </g>
   <g id="use3879" transform="translate(587.11 4330.5)"></g>
  </g>
  <g id="g3885" transform="matrix(.35278 0 0 .35278 -50.404 -1443)">
   <g id="use3883" transform="translate(592.77 4330.5)">
    <path id="path11837" d="m2.3281-6.2188v-2h2v2z"/>
   </g>
  </g>
  <g id="g3897" transform="matrix(.35278 0 0 .35278 -50.404 -1443)">
   <g id="use3887" transform="translate(599.53 4330.5)"></g>
   <g id="use3889" transform="translate(605.19 4330.5)">
    <path id="path11845" d="m4.6719 4.2031c-0.96875-1.2188-1.7891-2.6484-2.4531-4.2812-0.66797-1.6445-1-3.3477-1-5.1094 0-1.5508 0.25-3.0352 0.75-4.4531 0.58203-1.6445 1.4844-3.2852 2.7031-4.9219h1.2656c-0.79297 1.3555-1.3125 2.3242-1.5625 2.9062-0.39844 0.89844-0.71094 1.8359-0.9375 2.8125-0.28125 1.2188-0.42188 2.4453-0.42188 3.6719 0 3.125 0.97266 6.25 2.9219 9.375z"/>
   </g>
   <g id="use3891" transform="translate(611.95 4330.5)">
    <path id="path11849" d="m0.64062-4.2969v-1.7656h5.3906v1.7656z"/>
   </g>
   <g id="use3893" transform="translate(618.71 4330.5)">
    <path id="path11853" d="m0.84375-3.7812 1.75-0.23438c0.20703 1 0.55078 1.7188 1.0312 2.1562 0.48828 0.4375 1.082 0.65625 1.7812 0.65625 0.82031 0 1.5156-0.28516 2.0781-0.85938 0.57031-0.57031 0.85938-1.2812 0.85938-2.125 0-0.8125-0.26562-1.4766-0.79688-2-0.52344-0.51953-1.1875-0.78125-2-0.78125-0.33594 0-0.74609 0.0625-1.2344 0.1875l0.1875-1.5469c0.11328 0.023437 0.20703 0.03125 0.28125 0.03125 0.75 0 1.4219-0.19141 2.0156-0.57812 0.60156-0.39453 0.90625-1 0.90625-1.8125 0-0.64453-0.21875-1.1797-0.65625-1.6094-0.4375-0.42578-1-0.64062-1.6875-0.64062-0.67969 0-1.2461 0.21875-1.7031 0.65625-0.46094 0.42969-0.75 1.0703-0.875 1.9219l-1.7656-0.3125c0.21875-1.1758 0.70703-2.0859 1.4688-2.7344 0.75781-0.64453 1.707-0.96875 2.8438-0.96875 0.78125 0 1.5 0.16797 2.1562 0.5 0.65625 0.33594 1.1562 0.79297 1.5 1.375 0.35156 0.58594 0.53125 1.1992 0.53125 1.8438 0 0.61719-0.16797 1.1797-0.5 1.6875-0.33594 0.51172-0.82422 0.91797-1.4688 1.2188 0.84375 0.1875 1.5 0.59375 1.9688 1.2188 0.46875 0.61719 0.70312 1.3828 0.70312 2.2969 0 1.25-0.46094 2.3125-1.375 3.1875-0.90625 0.86719-2.0586 1.2969-3.4531 1.2969-1.2617 0-2.3086-0.375-3.1406-1.125-0.82422-0.75-1.293-1.7188-1.4062-2.9062z"/>
   </g>
   <g id="use3895" transform="translate(629.93 4330.5)">
    <path id="path11857" d="m2.4688 4.2031h-1.25c1.9375-3.125 2.9062-6.25 2.9062-9.375 0-1.2266-0.13672-2.4414-0.40625-3.6406-0.23047-0.97656-0.54297-1.9141-0.9375-2.8125-0.25-0.59375-0.77344-1.5703-1.5625-2.9375h1.25c1.2266 1.6367 2.1328 3.2773 2.7188 4.9219 0.5 1.418 0.75 2.9023 0.75 4.4531 0 1.7617-0.33984 3.4648-1.0156 5.1094-0.66797 1.6328-1.4844 3.0625-2.4531 4.2812z"/>
   </g>
  </g>
  <g id="g3901" transform="matrix(.35278 0 0 .35278 -50.404 -1443)">
   <g id="use3899" transform="translate(636.68 4330.5)">
    <path id="path11861" d="m5.5312 5.1719h-5.0312v-1.8906h2.75v-20h-2.75v-1.8906h5.0312z"/>
   </g>
  </g>
  <g id="g3917" transform="matrix(.35278 0 0 .35278 -50.404 -1443)">
   <g id="use3903" transform="translate(644.04 4330.5)"></g>
   <g id="use3905" transform="translate(649.7 4330.5)">
    <path id="path11869" d="m0.64062-4.2969v-1.7656h5.3906v1.7656z"/>
   </g>
   <g id="use3907" transform="translate(656.46 4330.5)"></g>
   <g id="use3909" transform="translate(662.12 4330.5)">
    <path id="path11877" d="m4.6719 4.2031c-0.96875-1.2188-1.7891-2.6484-2.4531-4.2812-0.66797-1.6445-1-3.3477-1-5.1094 0-1.5508 0.25-3.0352 0.75-4.4531 0.58203-1.6445 1.4844-3.2852 2.7031-4.9219h1.2656c-0.79297 1.3555-1.3125 2.3242-1.5625 2.9062-0.39844 0.89844-0.71094 1.8359-0.9375 2.8125-0.28125 1.2188-0.42188 2.4453-0.42188 3.6719 0 3.125 0.97266 6.25 2.9219 9.375z"/>
   </g>
   <g id="use3911" transform="translate(668.88 4330.5)">
    <path id="path11881" d="m0.64062-4.2969v-1.7656h5.3906v1.7656z"/>
   </g>
   <g id="use3913" transform="translate(675.64 4330.5)">
    <path id="path11885" d="m0.84375-3.7812 1.75-0.23438c0.20703 1 0.55078 1.7188 1.0312 2.1562 0.48828 0.4375 1.082 0.65625 1.7812 0.65625 0.82031 0 1.5156-0.28516 2.0781-0.85938 0.57031-0.57031 0.85938-1.2812 0.85938-2.125 0-0.8125-0.26562-1.4766-0.79688-2-0.52344-0.51953-1.1875-0.78125-2-0.78125-0.33594 0-0.74609 0.0625-1.2344 0.1875l0.1875-1.5469c0.11328 0.023437 0.20703 0.03125 0.28125 0.03125 0.75 0 1.4219-0.19141 2.0156-0.57812 0.60156-0.39453 0.90625-1 0.90625-1.8125 0-0.64453-0.21875-1.1797-0.65625-1.6094-0.4375-0.42578-1-0.64062-1.6875-0.64062-0.67969 0-1.2461 0.21875-1.7031 0.65625-0.46094 0.42969-0.75 1.0703-0.875 1.9219l-1.7656-0.3125c0.21875-1.1758 0.70703-2.0859 1.4688-2.7344 0.75781-0.64453 1.707-0.96875 2.8438-0.96875 0.78125 0 1.5 0.16797 2.1562 0.5 0.65625 0.33594 1.1562 0.79297 1.5 1.375 0.35156 0.58594 0.53125 1.1992 0.53125 1.8438 0 0.61719-0.16797 1.1797-0.5 1.6875-0.33594 0.51172-0.82422 0.91797-1.4688 1.2188 0.84375 0.1875 1.5 0.59375 1.9688 1.2188 0.46875 0.61719 0.70312 1.3828 0.70312 2.2969 0 1.25-0.46094 2.3125-1.375 3.1875-0.90625 0.86719-2.0586 1.2969-3.4531 1.2969-1.2617 0-2.3086-0.375-3.1406-1.125-0.82422-0.75-1.293-1.7188-1.4062-2.9062z"/>
   </g>
   <g id="use3915" transform="translate(686.86 4330.5)">
    <path id="path11889" d="m2.4688 4.2031h-1.25c1.9375-3.125 2.9062-6.25 2.9062-9.375 0-1.2266-0.13672-2.4414-0.40625-3.6406-0.23047-0.97656-0.54297-1.9141-0.9375-2.8125-0.25-0.59375-0.77344-1.5703-1.5625-2.9375h1.25c1.2266 1.6367 2.1328 3.2773 2.7188 4.9219 0.5 1.418 0.75 2.9023 0.75 4.4531 0 1.7617-0.33984 3.4648-1.0156 5.1094-0.66797 1.6328-1.4844 3.0625-2.4531 4.2812z"/>
   </g>
  </g>
 </g>
</svg>
