<?xml version="1.0" encoding="utf-8"?>
<!-- Generator: Adobe Illustrator 23.0.6, SVG Export Plug-In . SVG Version: 6.00 Build 0)  -->
<svg version="1.1" id="Layer_1" xmlns="http://www.w3.org/2000/svg" xmlns:xlink="http://www.w3.org/1999/xlink" x="0px" y="0px"
	 viewBox="0 0 167.8 167.5" style="enable-background:new 0 0 167.8 167.5;" xml:space="preserve">
<style type="text/css">
	.st0{fill:none;stroke:#144575;stroke-width:2;stroke-miterlimit:10;}
	.st1{fill:none;stroke:#144575;stroke-width:2.292;stroke-miterlimit:10;}
	.st2{fill:none;stroke:#144575;stroke-width:2.292;stroke-miterlimit:10;stroke-dasharray:13.442,13.442;}
	.st3{fill:none;stroke:#144575;stroke-width:3;stroke-miterlimit:10;}
	.st4{fill:#231F20;}
</style>
<g>
	<g id="Layer_1-2">
		<g id="sphere">
			<g>
				<g>
					
						<ellipse transform="matrix(0.7071 -0.7071 0.7071 0.7071 -34.5979 83.9401)" class="st0" cx="84" cy="83.7" rx="82.7" ry="82.7"/>
					<path class="st1" d="M1.1,83.8c0-2.3,0.6-4.6,1.8-6.6"/>
					<path class="st2" d="M12.4,67.9c14.4-9.3,41-15.6,71.4-15.6c34.7,0,64.5,8.1,76.7,19.7"/>
					<path class="st1" d="M164.8,77.2c1.2,2,1.8,4.2,1.8,6.6"/>
					<path class="st1" d="M166.6,83.8c0,17.4-37,31.4-82.7,31.4S1.1,101.1,1.1,83.8"/>
					<line class="st3" x1="1.1" y1="83.8" x2="166.6" y2="83.8"/>
					<path class="st4" d="M67.2,65.8L67.2,65.8L64.9,67l-0.3-1.3l2.8-1.5h1.5V77h-1.7L67.2,65.8z"/>
					<path class="st4" d="M82.2,70.4c0,4.4-1.6,6.8-4.5,6.8c-2.5,0-4.2-2.4-4.3-6.6s1.9-6.7,4.5-6.7S82.2,66.3,82.2,70.4z
						 M75.2,70.6c0,3.4,1,5.3,2.6,5.3c1.8,0,2.6-2.1,2.6-5.4s-0.8-5.3-2.6-5.3C76.3,65.3,75.2,67.1,75.2,70.6L75.2,70.6z"/>
					<path class="st4" d="M95.6,76.7c-0.9,0.4-1.8,0.6-2.8,0.6c-2.5,0.1-4.7-1.8-4.8-4.3c0-0.2,0-0.4,0-0.6c-0.1-2.7,2-5,4.6-5.1
						c0.2,0,0.3,0,0.5,0c0.8,0,1.7,0.2,2.4,0.5l-0.4,1.3c-0.6-0.3-1.3-0.5-2-0.4c-2,0.1-3.5,1.9-3.4,3.8c0.1,1.8,1.5,3.2,3.3,3.4
						c0.7,0,1.5-0.2,2.1-0.5L95.6,76.7z"/>
					<path class="st4" d="M97.8,70c0-1,0-1.8-0.1-2.6h1.5l0.1,1.6h0.1c0.6-1.1,1.7-1.8,3-1.8c1.2,0,2.3,0.8,2.7,1.9l0,0
						c0.3-0.5,0.6-0.9,1.1-1.3c0.6-0.5,1.4-0.7,2.1-0.7c1.3,0,3.1,0.8,3.1,4.2V77h-1.7v-5.4c0-1.8-0.7-3-2.1-3c-1,0-1.8,0.7-2.1,1.6
						c-0.1,0.3-0.1,0.6-0.1,0.9V77h-1.7v-5.8c0-1.5-0.7-2.6-2-2.6c-1,0.1-1.9,0.8-2.2,1.7c-0.1,0.3-0.1,0.6-0.1,0.9V77h-1.7L97.8,70
						z"/>
				</g>
			</g>
		</g>
		<g>
			<g>
				<path class="st4" d="M87.5,83.8c0,2-1.6,3.6-3.6,3.6c-2,0-3.6-1.6-3.6-3.6s1.6-3.6,3.6-3.6c0,0,0,0,0,0
					C85.9,80.2,87.5,81.8,87.5,83.8"/>
			</g>
		</g>
	</g>
</g>
</svg>
