<svg id="svg29782" version="1.1" viewBox="0 0 18.719 5.5104" xmlns="http://www.w3.org/2000/svg">
 <title id="title29823">img_13</title>
 <g id="layer1" transform="translate(-82.867 -127.27)">
  <g id="g25417" transform="matrix(.35278 0 0 .35278 -9.38 -538.32)">
   <g id="use25415" transform="translate(261.49 1902.3)">
    <path id="path29743" d="m11.5 0h-2.5156l-0.51562-2.6094h-4.5781l-1.4375 2.6094h-2.4531l6.6094-11.453h2.4375zm-3.4219-4.5312-0.78125-4.25-2.3438 4.25z"/>
   </g>
  </g>
  <path id="path25419" d="m91.808 131.48h-3.2908v-0.46852h3.2908zm-3.2908-1.6426h3.2894v0.46852h-3.2894z"/>
  <path id="path25421" d="m96.497 131.6 0.2825-1.5324h0.71107l0.08819-0.46852h-2.8277c-0.38998 0-0.62838 0.23565-0.71658 0.70555h0.35278c0.02893-0.15709 0.19982-0.23703 0.51263-0.23703-0.09922 0.55122-0.19431 1.0625-0.2825 1.5324-0.10197 0.54846-0.25218 0.9398-0.45062 1.1741h0.46854c0.0028 0 0.05374-0.0579 0.15158-0.17639 0.09646-0.11712 0.19706-0.44923 0.29904-0.99769l0.28801-1.5324h0.93707l-0.2825 1.5324c-0.14607 0.78271 0.01517 1.1741 0.48645 1.1741 0.23426 0 0.4203-0.15572 0.55535-0.46853-0.51401 0.23566-0.70556 0-0.57326-0.70555"/>
  <g id="g25425" transform="matrix(.35278 0 0 .35278 -9.38 -538.32)">
   <g id="use25423" transform="translate(302.49 1902.3)">
    <path id="path29747" d="m1.0469 0 1.5625-8.2969h1.2656l-0.23438 1.25c0.42578-0.58203 0.78906-0.96875 1.0938-1.1562 0.3125-0.1875 0.63281-0.28125 0.96875-0.28125 0.46875 0 0.91406 0.15234 1.3438 0.45312l-0.71875 1.2969c-0.3125-0.19531-0.64062-0.29688-0.98438-0.29688-0.30469 0-0.59375 0.09375-0.875 0.28125-0.27344 0.17969-0.49219 0.43359-0.65625 0.76562-0.25 0.5-0.43359 1.0469-0.54688 1.6406l-0.8125 4.3438z"/>
   </g>
  </g>
  <g id="g25429" transform="matrix(.35278 0 0 .35278 -9.38 -538.32)">
   <g id="use25427" transform="translate(308.5 1895.3)">
    <path id="path29751" d="m6.0469-1.0156v1.0156h-5.6875c0-0.25 0.039063-0.49219 0.125-0.73438 0.14453-0.38281 0.375-0.76562 0.6875-1.1406 0.32031-0.375 0.78516-0.80469 1.3906-1.2969 0.9375-0.76953 1.5664-1.3789 1.8906-1.8281 0.33203-0.44531 0.5-0.86719 0.5-1.2656 0-0.41406-0.15234-0.76562-0.45312-1.0469-0.30469-0.28906-0.69531-0.4375-1.1719-0.4375-0.51172 0-0.91797 0.15234-1.2188 0.45312-0.30469 0.30469-0.46094 0.72656-0.46875 1.2656l-1.0781-0.10938c0.070313-0.8125 0.34766-1.4258 0.82812-1.8438 0.48828-0.42578 1.1445-0.64062 1.9688-0.64062 0.82031 0 1.4727 0.23047 1.9531 0.6875 0.47656 0.46094 0.71875 1.0273 0.71875 1.7031 0 0.34375-0.074219 0.68359-0.21875 1.0156-0.13672 0.32422-0.37109 0.67188-0.70312 1.0469-0.32422 0.36719-0.85938 0.86719-1.6094 1.5-0.63672 0.53125-1.0469 0.89844-1.2344 1.0938-0.17969 0.1875-0.32422 0.375-0.4375 0.5625z"/>
   </g>
  </g>
 </g>
</svg>
