<svg id="svg67182" version="1.1" viewBox="0 0 34.743 5.1263" xmlns="http://www.w3.org/2000/svg">
 <title id="title67297">img_46</title>
 <g id="layer1" transform="translate(-54.444 -130.48)">
  <g id="use53692" transform="matrix(.35278 0 0 .35278 54.444 135.53)">
   <path id="path67103" d="m14.359 0h-3.1406l-1.25-3.25h-5.7188l-1.1875 3.25h-3.0625l5.5781-14.312h3.0625zm-5.3125-5.6719-1.9688-5.3125-1.9375 5.3125z"/>
  </g>
  <g id="use53696" transform="matrix(.35278 0 0 .35278 59.574 135.53)">
   <path id="path67107" d="m11.125-6.7344v-1.2031h-10.328v1.2031zm0 3.9219v-1.2031h-10.328v1.2031z"/>
  </g>
  <g id="g67295">
   <g id="use53698" transform="matrix(.35278 0 0 .35278 63.814 135.53)">
    <path id="path67111" d="m8.4844-4.2344 1.4375 4.2344h1.8594l-4.5938-13.484h-2.1094l-4.5781 13.484h1.7969l1.4062-4.2344zm-4.4219-1.3594 1.3125-3.9062c0.26562-0.8125 0.48438-1.6406 0.6875-2.4375h0.03125c0.20312 0.78125 0.40625 1.5781 0.70312 2.4531l1.3281 3.8906z"/>
   </g>
   <g id="use53702" transform="matrix(.35278 0 0 .35278 68.083 135.53)">
    <path id="path67115" d="m8.0625-14.203v5.7812h-0.046875c-0.4375-0.78125-1.4375-1.4844-2.9219-1.4844-2.3594 0-4.3594 1.9844-4.3281 5.2031 0 2.9375 1.7969 4.9219 4.1406 4.9219 1.5781 0 2.75-0.8125 3.2969-1.9062h0.03125l0.078125 1.6875h1.5938c-0.0625-0.65625-0.09375-1.6406-0.09375-2.5v-11.703zm0 10.141c0 0.28125-0.015625 0.51562-0.078125 0.76562-0.32812 1.3125-1.4062 2.0938-2.5781 2.0938-1.9062 0-2.8594-1.6094-2.8594-3.5781 0-2.1406 1.0781-3.7344 2.8906-3.7344 1.3281 0 2.2812 0.92188 2.5469 2.0312 0.0625 0.21875 0.078125 0.53125 0.078125 0.75z"/>
   </g>
   <g id="use53704" transform="matrix(.35278 0 0 .35278 72.097 135.53)">
    <path id="path67119" d="m8.0625-14.203v5.7812h-0.046875c-0.4375-0.78125-1.4375-1.4844-2.9219-1.4844-2.3594 0-4.3594 1.9844-4.3281 5.2031 0 2.9375 1.7969 4.9219 4.1406 4.9219 1.5781 0 2.75-0.8125 3.2969-1.9062h0.03125l0.078125 1.6875h1.5938c-0.0625-0.65625-0.09375-1.6406-0.09375-2.5v-11.703zm0 10.141c0 0.28125-0.015625 0.51562-0.078125 0.76562-0.32812 1.3125-1.4062 2.0938-2.5781 2.0938-1.9062 0-2.8594-1.6094-2.8594-3.5781 0-2.1406 1.0781-3.7344 2.8906-3.7344 1.3281 0 2.2812 0.92188 2.5469 2.0312 0.0625 0.21875 0.078125 0.53125 0.078125 0.75z"/>
   </g>
   <g id="use53706" transform="matrix(.35278 0 0 .35278 76.112 135.53)">
    <path id="path67123" d="m3.2188 0v-9.6875h-1.7656v9.6875zm-0.875-13.5c-0.64062 0-1.1094 0.48438-1.1094 1.0938s0.45312 1.0938 1.0625 1.0938c0.70312 0 1.1406-0.48438 1.125-1.0938 0-0.60938-0.42188-1.0938-1.0781-1.0938z"/>
   </g>
   <g id="use53708" transform="matrix(.35278 0 0 .35278 77.798 135.53)">
    <path id="path67127" d="m1.8594-12v2.3125h-1.5v1.3438h1.5v5.2812c0 1.1406 0.1875 2 0.6875 2.5156 0.40625 0.48438 1.0781 0.75 1.8906 0.75 0.6875 0 1.2188-0.10938 1.5625-0.25l-0.078125-1.3125c-0.21875 0.0625-0.5625 0.125-1.0156 0.125-0.98438 0-1.3281-0.6875-1.3281-1.8906v-5.2188h2.5156v-1.3438h-2.5156v-2.7656z"/>
   </g>
   <g id="use53710" transform="matrix(.35278 0 0 .35278 80.169 135.53)">
    <path id="path67131" d="m3.2188 0v-9.6875h-1.7656v9.6875zm-0.875-13.5c-0.64062 0-1.1094 0.48438-1.1094 1.0938s0.45312 1.0938 1.0625 1.0938c0.70312 0 1.1406-0.48438 1.125-1.0938 0-0.60938-0.42188-1.0938-1.0781-1.0938z"/>
   </g>
   <g id="use53712" transform="matrix(.35278 0 0 .35278 81.855 135.53)">
    <path id="path67135" d="m5.5625-9.9062c-2.6875 0-4.7969 1.9062-4.7969 5.1406 0 3.0625 2.0156 4.9844 4.6406 4.9844 2.3281 0 4.8125-1.5625 4.8125-5.1406 0-2.9531-1.875-4.9844-4.6562-4.9844zm-0.046875 1.3281c2.0781 0 2.9062 2.0781 2.9062 3.7188 0 2.1719-1.2656 3.7656-2.9375 3.7656-1.7188 0-2.9375-1.6094-2.9375-3.7188 0-1.8438 0.89062-3.7656 2.9688-3.7656z"/>
   </g>
   <g id="use53714" transform="matrix(.35278 0 0 .35278 85.764 135.53)">
    <path id="path67139" d="m1.4531 0h1.7656v-5.8125c0-0.3125 0.046875-0.60938 0.125-0.82812 0.29688-0.98438 1.2031-1.7969 2.3594-1.7969 1.6562 0 2.2344 1.2969 2.2344 2.8594v5.5781h1.7656v-5.7812c0-3.3125-2.0781-4.125-3.4219-4.125-1.5938 0-2.7188 0.90625-3.2031 1.8281h-0.03125l-0.10938-1.6094h-1.5625c0.0625 0.8125 0.078125 1.625 0.078125 2.625z"/>
   </g>
  </g>
 </g>
</svg>
