<svg id="svg25662" version="1.1" viewBox="0 0 33.602 6.3724" xmlns="http://www.w3.org/2000/svg">
 <title id="title25751">img_28</title>
 <g id="layer1" transform="translate(-70.133 -120.03)">
  <path id="path13101" d="m71.236 120.74h0.39688c-0.73449 0.73589-1.1024 1.6757-1.1024 2.8222s0.36794 2.0877 1.1024 2.8222h-0.39688c-0.73449-0.73448-1.1024-1.6757-1.1024-2.8222s0.36794-2.0863 1.1024-2.8222"/>
  <g id="g13107" transform="matrix(.35278 0 0 .35278 -9.1699 -1610.6)">
   <g id="use13103" transform="translate(228.79 4921.3)">
    <path id="path25453" d="m7.0469-3.0469 1.3438 0.1875c-0.33594 0.94922-0.85938 1.6953-1.5781 2.2344-0.71875 0.54297-1.5312 0.8125-2.4375 0.8125-1.1367 0-1.9805-0.36719-2.5312-1.1094-0.55469-0.75-0.69922-1.8164-0.4375-3.2031 0.16406-0.89453 0.45703-1.6758 0.875-2.3438 0.42578-0.67578 0.97266-1.1797 1.6406-1.5156 0.67578-0.33203 1.3672-0.5 2.0781-0.5 0.90625 0 1.6016 0.23047 2.0938 0.6875 0.48828 0.44922 0.72656 1.0938 0.71875 1.9375l-1.3906 0.20312c-0.03125-0.55078-0.1875-0.96875-0.46875-1.25-0.27344-0.28125-0.64062-0.42188-1.1094-0.42188-0.71094 0-1.3359 0.25781-1.875 0.76562-0.53125 0.5-0.90234 1.3047-1.1094 2.4062-0.21094 1.1172-0.14844 1.9297 0.1875 2.4375 0.33203 0.5 0.84375 0.75 1.5312 0.75 0.55078 0 1.0391-0.16406 1.4688-0.5 0.4375-0.34375 0.76953-0.86719 1-1.5781z"/>
   </g>
   <g id="use13105" transform="translate(236.79 4921.3)">
    <path id="path25457" d="m1.0625 0 1.5625-8.2969h1.25l-0.21875 1.1562c0.33203-0.40625 0.73828-0.72656 1.2188-0.96875 0.47656-0.25 0.99219-0.375 1.5469-0.375 0.61328 0 1.0938 0.13281 1.4375 0.39062 0.35156 0.25 0.5625 0.60547 0.625 1.0625 0.84375-0.96875 1.7891-1.4531 2.8438-1.4531 0.82031 0 1.4102 0.23047 1.7656 0.6875 0.36328 0.44922 0.45312 1.1484 0.26562 2.0938l-1.0625 5.7031h-1.3906l0.98438-5.2344c0.10156-0.5625 0.12891-0.96094 0.07813-1.2031-0.04297-0.25-0.17188-0.44531-0.39062-0.59375-0.21094-0.15625-0.47656-0.23438-0.79688-0.23438-0.58594 0-1.1055 0.19531-1.5625 0.57812-0.46094 0.38672-0.76562 1.0078-0.92188 1.8594l-0.90626 4.8281h-1.4062l1.0156-5.3906c0.11328-0.625 0.082031-1.0938-0.09375-1.4062-0.16797-0.3125-0.51172-0.46875-1.0312-0.46875-0.39844 0-0.78125 0.10547-1.1562 0.3125-0.36719 0.21094-0.66406 0.51562-0.89062 0.92188-0.23047 0.39844-0.41406 0.96875-0.54688 1.7188l-0.8125 4.3125z"/>
   </g>
  </g>
  <g id="g13111" transform="matrix(.35278 0 0 .35278 -9.1699 -1610.6)">
   <g id="use13109" transform="translate(250.8 4914.3)">
    <path id="path25461" d="m6.0469-1.0156v1.0156h-5.6875c0-0.25 0.039063-0.49219 0.125-0.73438 0.14453-0.38281 0.375-0.76562 0.6875-1.1406 0.32031-0.375 0.78516-0.80469 1.3906-1.2969 0.9375-0.76953 1.5664-1.3789 1.8906-1.8281 0.33203-0.44531 0.5-0.86719 0.5-1.2656 0-0.41406-0.15234-0.76562-0.45312-1.0469-0.30469-0.28906-0.69531-0.4375-1.1719-0.4375-0.51172 0-0.91797 0.15234-1.2188 0.45312-0.30469 0.30469-0.46094 0.72656-0.46875 1.2656l-1.0781-0.10938c0.070313-0.8125 0.34766-1.4258 0.82812-1.8438 0.48828-0.42578 1.1445-0.64062 1.9688-0.64062 0.82031 0 1.4727 0.23047 1.9531 0.6875 0.47656 0.46094 0.71875 1.0273 0.71875 1.7031 0 0.34375-0.074219 0.68359-0.21875 1.0156-0.13672 0.32422-0.37109 0.67188-0.70312 1.0469-0.32422 0.36719-0.85938 0.86719-1.6094 1.5-0.63672 0.53125-1.0469 0.89844-1.2344 1.0938-0.17969 0.1875-0.32422 0.375-0.4375 0.5625z"/>
   </g>
  </g>
  <path id="path13113" d="m82.619 125.55c-0.0028 0.18056-0.03306 0.31835-0.08819 0.41342-0.05512 0.0965-0.13781 0.16951-0.24805 0.22049l0.14883 0.22737c0.17363-0.0744 0.30317-0.18602 0.38861-0.33486 0.08682-0.14884 0.12954-0.33486 0.12954-0.55947v-0.6725h-0.70418v0.70555z"/>
  <g id="g13117" transform="matrix(.35278 0 0 .35278 -9.1699 -1610.6)">
   <g id="use13115" transform="translate(262.79 4921.3)">
    <path id="path25465" d="m1.0625 0 1.5625-8.2969h1.25l-0.21875 1.1562c0.33203-0.40625 0.73828-0.72656 1.2188-0.96875 0.47656-0.25 0.99219-0.375 1.5469-0.375 0.61328 0 1.0938 0.13281 1.4375 0.39062 0.35156 0.25 0.5625 0.60547 0.625 1.0625 0.84375-0.96875 1.7891-1.4531 2.8438-1.4531 0.82031 0 1.4102 0.23047 1.7656 0.6875 0.36328 0.44922 0.45312 1.1484 0.26562 2.0938l-1.0625 5.7031h-1.3906l0.98438-5.2344c0.10156-0.5625 0.12891-0.96094 0.07813-1.2031-0.04297-0.25-0.17188-0.44531-0.39062-0.59375-0.21094-0.15625-0.47656-0.23438-0.79688-0.23438-0.58594 0-1.1055 0.19531-1.5625 0.57812-0.46094 0.38672-0.76562 1.0078-0.92188 1.8594l-0.90626 4.8281h-1.4062l1.0156-5.3906c0.11328-0.625 0.082031-1.0938-0.09375-1.4062-0.16797-0.3125-0.51172-0.46875-1.0312-0.46875-0.39844 0-0.78125 0.10547-1.1562 0.3125-0.36719 0.21094-0.66406 0.51562-0.89062 0.92188-0.23047 0.39844-0.41406 0.96875-0.54688 1.7188l-0.8125 4.3125z"/>
   </g>
  </g>
  <g id="g13121" transform="matrix(.35278 0 0 .35278 -9.1699 -1610.6)">
   <g id="use13119" transform="translate(276.8 4914.3)">
    <path id="path25469" d="m6.0469-1.0156v1.0156h-5.6875c0-0.25 0.039063-0.49219 0.125-0.73438 0.14453-0.38281 0.375-0.76562 0.6875-1.1406 0.32031-0.375 0.78516-0.80469 1.3906-1.2969 0.9375-0.76953 1.5664-1.3789 1.8906-1.8281 0.33203-0.44531 0.5-0.86719 0.5-1.2656 0-0.41406-0.15234-0.76562-0.45312-1.0469-0.30469-0.28906-0.69531-0.4375-1.1719-0.4375-0.51172 0-0.91797 0.15234-1.2188 0.45312-0.30469 0.30469-0.46094 0.72656-0.46875 1.2656l-1.0781-0.10938c0.070313-0.8125 0.34766-1.4258 0.82812-1.8438 0.48828-0.42578 1.1445-0.64062 1.9688-0.64062 0.82031 0 1.4727 0.23047 1.9531 0.6875 0.47656 0.46094 0.71875 1.0273 0.71875 1.7031 0 0.34375-0.074219 0.68359-0.21875 1.0156-0.13672 0.32422-0.37109 0.67188-0.70312 1.0469-0.32422 0.36719-0.85938 0.86719-1.6094 1.5-0.63672 0.53125-1.0469 0.89844-1.2344 1.0938-0.17969 0.1875-0.32422 0.375-0.4375 0.5625z"/>
   </g>
  </g>
  <path id="path13123" d="m91.791 125.55c-0.0028 0.18056-0.03306 0.31835-0.08819 0.41342-0.05512 0.0965-0.13781 0.16951-0.24805 0.22049l0.14883 0.22737c0.17363-0.0744 0.30317-0.18602 0.38861-0.33486 0.08682-0.14884 0.12954-0.33486 0.12954-0.55947v-0.6725h-0.70418v0.70555z"/>
  <g id="g13129" transform="matrix(.35278 0 0 .35278 -9.1699 -1610.6)">
   <g id="use13125" transform="translate(288.79 4921.3)">
    <path id="path25473" d="m7.2344-2.6719 1.4219 0.17188c-0.38672 0.85547-0.93359 1.5156-1.6406 1.9844-0.71094 0.46875-1.543 0.70312-2.5 0.70312-1.2188 0-2.1172-0.375-2.6875-1.125-0.5625-0.75-0.71875-1.7969-0.46875-3.1406 0.25781-1.3945 0.82031-2.4766 1.6875-3.25 0.86328-0.76953 1.8672-1.1562 3.0156-1.1562 1.1016 0 1.9375 0.38281 2.5 1.1406 0.5625 0.75 0.71094 1.8086 0.45312 3.1719-0.011719 0.085937-0.03125 0.21094-0.0625 0.375h-6.1875c-0.125 0.91797 0 1.6211 0.375 2.1094 0.375 0.48047 0.90625 0.71875 1.5938 0.71875 0.51953 0 0.98438-0.13281 1.3906-0.40625 0.41406-0.26953 0.78516-0.70312 1.1094-1.2969zm-4.1875-2.2812h4.625c0.070313-0.69531-0.00781-1.2188-0.23438-1.5625-0.34375-0.53906-0.87109-0.8125-1.5781-0.8125-0.64844 0-1.2344 0.21875-1.7656 0.65625-0.52344 0.42969-0.87109 1-1.0469 1.7188z"/>
   </g>
   <g id="use13127" transform="translate(297.8 4921.3)">
    <path id="path25477" d="m4.3594-1.2656-0.03125 1.25c-0.40625 0.082031-0.76562 0.125-1.0781 0.125-0.51172 0-0.89062-0.078125-1.1406-0.23438-0.25-0.16406-0.41406-0.37891-0.48438-0.64062-0.0625-0.26953-0.015625-0.82812 0.14062-1.6719l0.89062-4.7656h-1.0312l0.21875-1.0938h1.0312l0.375-2.0625 1.5625-0.84375-0.53125 2.9062h1.4062l-0.21875 1.0938h-1.4062l-0.90625 4.8438c-0.074219 0.40625-0.10156 0.66797-0.078125 0.78125 0.03125 0.11719 0.09375 0.21094 0.1875 0.28125 0.10156 0.0625 0.25781 0.09375 0.46875 0.09375 0.15625 0 0.36328-0.019531 0.625-0.0625z"/>
   </g>
  </g>
  <g id="g13133" transform="matrix(.35278 0 0 .35278 -9.1699 -1610.6)">
   <g id="use13131" transform="translate(301.78 4921.3)">
    <path id="path25481" d="m7.0469-3.0469 1.3438 0.1875c-0.33594 0.94922-0.85938 1.6953-1.5781 2.2344-0.71875 0.54297-1.5312 0.8125-2.4375 0.8125-1.1367 0-1.9805-0.36719-2.5312-1.1094-0.55469-0.75-0.69922-1.8164-0.4375-3.2031 0.16406-0.89453 0.45703-1.6758 0.875-2.3438 0.42578-0.67578 0.97266-1.1797 1.6406-1.5156 0.67578-0.33203 1.3672-0.5 2.0781-0.5 0.90625 0 1.6016 0.23047 2.0938 0.6875 0.48828 0.44922 0.72656 1.0938 0.71875 1.9375l-1.3906 0.20312c-0.03125-0.55078-0.1875-0.96875-0.46875-1.25-0.27344-0.28125-0.64062-0.42188-1.1094-0.42188-0.71094 0-1.3359 0.25781-1.875 0.76562-0.53125 0.5-0.90234 1.3047-1.1094 2.4062-0.21094 1.1172-0.14844 1.9297 0.1875 2.4375 0.33203 0.5 0.84375 0.75 1.5312 0.75 0.55078 0 1.0391-0.16406 1.4688-0.5 0.4375-0.34375 0.76953-0.86719 1-1.5781z"/>
   </g>
  </g>
  <path id="path13135" d="m101 125.55h0.70555v-0.70556h-0.70555z"/>
  <path id="path13137" d="m102.63 120.74h-0.39687c0.73587 0.73589 1.1024 1.6757 1.1024 2.8222s-0.36656 2.0877-1.1024 2.8222h0.39687c0.73588-0.73448 1.1024-1.6757 1.1024-2.8222s-0.36656-2.0863-1.1024-2.8222"/>
 </g>
</svg>
