<svg id="svg44861" version="1.1" viewBox="0 0 105.14 105.27" xmlns="http://www.w3.org/2000/svg">
 <title id="title45896">img_59</title>
 <defs id="defs44855">
  <clipPath id="clipPath41657">
   <path id="path41655" d="m221.72 2691h265.46v-265.45h-265.46z"/>
  </clipPath>
 </defs>
 <g id="layer1" transform="translate(-42.44 -49.602)">
  <g id="g41651" transform="matrix(.35278 0 0 -.35278 -30.546 1005.3)">
   <g id="g41823">
    <g id="g41821" clip-path="url(#clipPath41657)" opacity=".39999">
     <path id="path41659" d="m221.84 2690.9h265.21v-265.21h-265.21z" style="fill:none;stroke-miterlimit:10;stroke-width:.25;stroke:#1d1d1b"/>
     <g id="g41663" transform="translate(221.84 2438.9)">
      <path id="path41661" d="m0 0h265.21" style="fill:none;stroke-miterlimit:10;stroke-width:.25;stroke:#1d1d1b"/>
     </g>
     <g id="g41667" transform="translate(221.84 2452.2)">
      <path id="path41665" d="m0 0h265.21" style="fill:none;stroke-miterlimit:10;stroke-width:.25;stroke:#1d1d1b"/>
     </g>
     <g id="g41671" transform="translate(221.84 2465.5)">
      <path id="path41669" d="m0 0h265.21" style="fill:none;stroke-miterlimit:10;stroke-width:.25;stroke:#1d1d1b"/>
     </g>
     <g id="g41675" transform="translate(221.84 2478.7)">
      <path id="path41673" d="m0 0h265.21" style="fill:none;stroke-miterlimit:10;stroke-width:.25;stroke:#1d1d1b"/>
     </g>
     <g id="g41679" transform="translate(221.84 2492)">
      <path id="path41677" d="m0 0h265.21" style="fill:none;stroke-miterlimit:10;stroke-width:.25;stroke:#1d1d1b"/>
     </g>
     <g id="g41683" transform="translate(221.84 2505.2)">
      <path id="path41681" d="m0 0h265.21" style="fill:none;stroke-miterlimit:10;stroke-width:.25;stroke:#1d1d1b"/>
     </g>
     <g id="g41687" transform="translate(221.84 2518.5)">
      <path id="path41685" d="m0 0h265.21" style="fill:none;stroke-miterlimit:10;stroke-width:.25;stroke:#1d1d1b"/>
     </g>
     <g id="g41691" transform="translate(221.84 2531.8)">
      <path id="path41689" d="m0 0h265.21" style="fill:none;stroke-miterlimit:10;stroke-width:.25;stroke:#1d1d1b"/>
     </g>
     <g id="g41695" transform="translate(221.84 2545)">
      <path id="path41693" d="m0 0h265.21" style="fill:none;stroke-miterlimit:10;stroke-width:.25;stroke:#1d1d1b"/>
     </g>
     <g id="g41699" transform="translate(221.84 2558.3)">
      <path id="path41697" d="m0 0h265.21" style="fill:none;stroke-miterlimit:10;stroke-width:.25;stroke:#1d1d1b"/>
     </g>
     <g id="g41703" transform="translate(221.84 2571.6)">
      <path id="path41701" d="m0 0h265.21" style="fill:none;stroke-miterlimit:10;stroke-width:.25;stroke:#1d1d1b"/>
     </g>
     <g id="g41707" transform="translate(221.84 2584.8)">
      <path id="path41705" d="m0 0h265.21" style="fill:none;stroke-miterlimit:10;stroke-width:.25;stroke:#1d1d1b"/>
     </g>
     <g id="g41711" transform="translate(221.84 2598.1)">
      <path id="path41709" d="m0 0h265.21" style="fill:none;stroke-miterlimit:10;stroke-width:.25;stroke:#1d1d1b"/>
     </g>
     <g id="g41715" transform="translate(221.84 2611.3)">
      <path id="path41713" d="m0 0h265.21" style="fill:none;stroke-miterlimit:10;stroke-width:.25;stroke:#1d1d1b"/>
     </g>
     <g id="g41719" transform="translate(221.84 2624.6)">
      <path id="path41717" d="m0 0h265.21" style="fill:none;stroke-miterlimit:10;stroke-width:.25;stroke:#1d1d1b"/>
     </g>
     <g id="g41723" transform="translate(221.84 2637.8)">
      <path id="path41721" d="m0 0h265.21" style="fill:none;stroke-miterlimit:10;stroke-width:.25;stroke:#1d1d1b"/>
     </g>
     <g id="g41727" transform="translate(221.84 2651.1)">
      <path id="path41725" d="m0 0h265.21" style="fill:none;stroke-miterlimit:10;stroke-width:.25;stroke:#1d1d1b"/>
     </g>
     <g id="g41731" transform="translate(221.84 2664.4)">
      <path id="path41729" d="m0 0h265.21" style="fill:none;stroke-miterlimit:10;stroke-width:.25;stroke:#1d1d1b"/>
     </g>
     <g id="g41735" transform="translate(221.84 2677.6)">
      <path id="path41733" d="m0 0h265.21" style="fill:none;stroke-miterlimit:10;stroke-width:.25;stroke:#1d1d1b"/>
     </g>
     <g id="g41739" transform="translate(474.99 2690.9)">
      <path id="path41737" d="m0 0v-265.21" style="fill:none;stroke-miterlimit:10;stroke-width:.25;stroke:#1d1d1b"/>
     </g>
     <g id="g41743" transform="translate(462.94 2690.9)">
      <path id="path41741" d="m0 0v-265.21" style="fill:none;stroke-miterlimit:10;stroke-width:.25;stroke:#1d1d1b"/>
     </g>
     <g id="g41747" transform="translate(450.88 2690.9)">
      <path id="path41745" d="m0 0v-265.21" style="fill:none;stroke-miterlimit:10;stroke-width:.25;stroke:#1d1d1b"/>
     </g>
     <g id="g41751" transform="translate(438.83 2690.9)">
      <path id="path41749" d="m0 0v-265.21" style="fill:none;stroke-miterlimit:10;stroke-width:.25;stroke:#1d1d1b"/>
     </g>
     <g id="g41755" transform="translate(426.77 2690.9)">
      <path id="path41753" d="m0 0v-265.21" style="fill:none;stroke-miterlimit:10;stroke-width:.25;stroke:#1d1d1b"/>
     </g>
     <g id="g41759" transform="translate(414.72 2690.9)">
      <path id="path41757" d="m0 0v-265.21" style="fill:none;stroke-miterlimit:10;stroke-width:.25;stroke:#1d1d1b"/>
     </g>
     <g id="g41763" transform="translate(402.66 2690.9)">
      <path id="path41761" d="m0 0v-265.21" style="fill:none;stroke-miterlimit:10;stroke-width:.25;stroke:#1d1d1b"/>
     </g>
     <g id="g41767" transform="translate(390.61 2690.9)">
      <path id="path41765" d="m0 0v-265.21" style="fill:none;stroke-miterlimit:10;stroke-width:.25;stroke:#1d1d1b"/>
     </g>
     <g id="g41771" transform="translate(378.55 2690.9)">
      <path id="path41769" d="m0 0v-265.21" style="fill:none;stroke-miterlimit:10;stroke-width:.25;stroke:#1d1d1b"/>
     </g>
     <g id="g41775" transform="translate(366.5 2690.9)">
      <path id="path41773" d="m0 0v-265.21" style="fill:none;stroke-miterlimit:10;stroke-width:.25;stroke:#1d1d1b"/>
     </g>
     <g id="g41779" transform="translate(354.44 2690.9)">
      <path id="path41777" d="m0 0v-265.21" style="fill:none;stroke-miterlimit:10;stroke-width:.25;stroke:#1d1d1b"/>
     </g>
     <g id="g41783" transform="translate(342.39 2690.9)">
      <path id="path41781" d="m0 0v-265.21" style="fill:none;stroke-miterlimit:10;stroke-width:.25;stroke:#1d1d1b"/>
     </g>
     <g id="g41787" transform="translate(330.33 2690.9)">
      <path id="path41785" d="m0 0v-265.21" style="fill:none;stroke-miterlimit:10;stroke-width:.25;stroke:#1d1d1b"/>
     </g>
     <g id="g41791" transform="translate(318.28 2690.9)">
      <path id="path41789" d="m0 0v-265.21" style="fill:none;stroke-miterlimit:10;stroke-width:.25;stroke:#1d1d1b"/>
     </g>
     <g id="g41795" transform="translate(306.22 2690.9)">
      <path id="path41793" d="m0 0v-265.21" style="fill:none;stroke-miterlimit:10;stroke-width:.25;stroke:#1d1d1b"/>
     </g>
     <g id="g41799" transform="translate(294.17 2690.9)">
      <path id="path41797" d="m0 0v-265.21" style="fill:none;stroke-miterlimit:10;stroke-width:.25;stroke:#1d1d1b"/>
     </g>
     <g id="g41803" transform="translate(282.12 2690.9)">
      <path id="path41801" d="m0 0v-265.21" style="fill:none;stroke-miterlimit:10;stroke-width:.25;stroke:#1d1d1b"/>
     </g>
     <g id="g41807" transform="translate(270.06 2690.9)">
      <path id="path41805" d="m0 0v-265.21" style="fill:none;stroke-miterlimit:10;stroke-width:.25;stroke:#1d1d1b"/>
     </g>
     <g id="g41811" transform="translate(258 2690.9)">
      <path id="path41809" d="m0 0v-265.21" style="fill:none;stroke-miterlimit:10;stroke-width:.25;stroke:#1d1d1b"/>
     </g>
     <g id="g41815" transform="translate(245.95 2690.9)">
      <path id="path41813" d="m0 0v-265.21" style="fill:none;stroke-miterlimit:10;stroke-width:.25;stroke:#1d1d1b"/>
     </g>
     <g id="g41819" transform="translate(233.9 2690.9)">
      <path id="path41817" d="m0 0v-265.21" style="fill:none;stroke-miterlimit:10;stroke-width:.25;stroke:#1d1d1b"/>
     </g>
    </g>
   </g>
  </g>
  <g id="g7674" transform="matrix(.35278 0 0 .35278 -30.529 -1058.3)" style="fill:#c20000">
   <g id="use7650" transform="translate(368.1 3262.4)">
    <path id="path30694" d="m2.5938-0.78125-0.15625 0.78125c-0.23047 0.0625-0.45312 0.09375-0.67188 0.09375-0.375 0-0.67969-0.09375-0.90625-0.28125-0.16797-0.13281-0.25-0.32812-0.25-0.57812 0-0.11328 0.046875-0.39453 0.14062-0.84375l0.67188-3.2656h-0.75l0.15625-0.73438h0.75l0.29688-1.375 1.0938-0.65625-0.4375 2.0312h0.9375l-0.15625 0.73438h-0.9375l-0.64062 3.1094c-0.085937 0.39844-0.125 0.63281-0.125 0.70312 0 0.11719 0.03125 0.20312 0.09375 0.26562 0.070313 0.054687 0.17969 0.078125 0.32812 0.078125 0.20703 0 0.39453-0.019531 0.5625-0.0625z"/>
   </g>
   <g id="use7652" transform="translate(371.16 3262.4)">
    <path id="path30698" d="m0.53125-2.125c0-1.0938 0.32031-2 0.96875-2.7188 0.53125-0.59375 1.2227-0.89062 2.0781-0.89062 0.67578 0 1.2227 0.21484 1.6406 0.64062 0.41406 0.41797 0.625 0.98438 0.625 1.7031 0 0.64844-0.13281 1.2461-0.39062 1.7969-0.26172 0.55469-0.63672 0.98047-1.125 1.2812-0.48047 0.29297-0.98438 0.4375-1.5156 0.4375-0.42969 0-0.82422-0.09375-1.1875-0.28125-0.35547-0.1875-0.625-0.44531-0.8125-0.78125-0.1875-0.34375-0.28125-0.73828-0.28125-1.1875zm0.95312-0.09375c0 0.52344 0.125 0.92188 0.375 1.2031 0.25781 0.27344 0.58203 0.40625 0.96875 0.40625 0.20703 0 0.41016-0.039063 0.60938-0.125 0.19531-0.082031 0.37891-0.20703 0.54688-0.375 0.17578-0.17578 0.32812-0.36719 0.45312-0.57812 0.125-0.21875 0.22266-0.45312 0.29688-0.70312 0.10156-0.35156 0.15625-0.6875 0.15625-1 0-0.50781-0.13281-0.90625-0.39062-1.1875-0.25-0.28125-0.57031-0.42188-0.95312-0.42188-0.30469 0-0.57812 0.074219-0.82812 0.21875-0.24219 0.14844-0.46094 0.35547-0.65625 0.625-0.19922 0.27344-0.34375 0.58984-0.4375 0.95312-0.09375 0.36719-0.14062 0.69531-0.14062 0.98438z"/>
   </g>
   <g id="use7654" transform="translate(377.23 3262.4)">
    <path id="path30702" d="m4.1875-1.0156c-0.67969 0.76172-1.3672 1.1406-2.0625 1.1406-0.4375 0-0.79297-0.125-1.0625-0.375-0.26172-0.25-0.39062-0.55078-0.39062-0.90625 0-0.23828 0.0625-0.64453 0.1875-1.2188l0.67188-3.2344h0.95312l-0.75 3.5938c-0.0625 0.29297-0.09375 0.52344-0.09375 0.6875 0 0.21094 0.0625 0.375 0.1875 0.5 0.13281 0.11719 0.32812 0.17188 0.57812 0.17188 0.25781 0 0.51562-0.0625 0.76562-0.1875 0.25781-0.13281 0.48438-0.3125 0.67188-0.53125s0.33594-0.48438 0.45312-0.79688c0.070313-0.1875 0.16016-0.52344 0.26562-1.0156l0.51562-2.4219h0.95312l-1.1719 5.6094h-0.89062z"/>
   </g>
   <g id="use7656" transform="translate(383.3 3262.4)">
    <path id="path30706" d="m4.2344-2.0469 0.95312 0.10938c-0.24219 0.69922-0.58594 1.2188-1.0312 1.5625-0.4375 0.33594-0.9375 0.5-1.5 0.5-0.60547 0-1.1016-0.19531-1.4844-0.59375-0.375-0.39453-0.5625-0.94141-0.5625-1.6406 0-0.61328 0.11719-1.2188 0.35938-1.8125 0.23828-0.59375 0.58203-1.0391 1.0312-1.3438 0.45703-0.3125 0.97656-0.46875 1.5625-0.46875 0.60156 0 1.0781 0.17188 1.4219 0.51562 0.35156 0.33594 0.53125 0.78125 0.53125 1.3438l-0.9375 0.0625c0-0.35156-0.10547-0.62891-0.3125-0.82812-0.19922-0.20703-0.46484-0.3125-0.79688-0.3125-0.375 0-0.71094 0.125-1 0.375-0.28125 0.24219-0.5 0.60938-0.65625 1.1094-0.15625 0.49219-0.23438 0.96484-0.23438 1.4219 0 0.48047 0.10156 0.83984 0.3125 1.0781 0.20703 0.24219 0.46875 0.35938 0.78125 0.35938s0.60938-0.11328 0.89062-0.34375c0.28125-0.23828 0.50391-0.60156 0.67188-1.0938z"/>
   </g>
   <g id="use7658" transform="translate(388.76 3262.4)">
    <path id="path30710" d="m0.35938 0 1.6094-7.7344h0.96875l-0.625 2.9688c0.35156-0.34375 0.67969-0.58594 0.98438-0.73438 0.3125-0.15625 0.62891-0.23438 0.95312-0.23438 0.46875 0 0.82812 0.125 1.0781 0.375 0.25781 0.24219 0.39062 0.5625 0.39062 0.96875 0 0.1875-0.058594 0.54688-0.17188 1.0781l-0.6875 3.3125h-0.95312l0.70312-3.3906c0.10156-0.5 0.15625-0.8125 0.15625-0.9375 0-0.17578-0.0625-0.32031-0.1875-0.4375-0.125-0.125-0.30859-0.1875-0.54688-0.1875-0.34375 0-0.67188 0.09375-0.98438 0.28125-0.3125 0.17969-0.5625 0.42969-0.75 0.75-0.17969 0.3125-0.33984 0.82031-0.48438 1.5156l-0.5 2.4062z"/>
   </g>
   <g id="use7660" transform="translate(394.83 3262.4)">
    <path id="path30714" d="m4.4844-1.9062 0.92188 0.09375c-0.13672 0.46094-0.44531 0.89844-0.92188 1.3125-0.48047 0.41797-1.0547 0.625-1.7188 0.625-0.41797 0-0.79688-0.09375-1.1406-0.28125-0.34375-0.19531-0.60938-0.47656-0.79688-0.84375-0.17969-0.36328-0.26562-0.78125-0.26562-1.25 0-0.61328 0.14062-1.207 0.42188-1.7812 0.28125-0.57031 0.64453-1 1.0938-1.2812 0.45703-0.28125 0.94531-0.42188 1.4688-0.42188 0.66406 0 1.1953 0.21094 1.5938 0.625 0.40625 0.41797 0.60938 0.98438 0.60938 1.7031 0 0.27344-0.027344 0.55469-0.078125 0.84375h-4.125c-0.011719 0.10547-0.015625 0.20312-0.015625 0.29688 0 0.52344 0.11719 0.92188 0.35938 1.2031 0.23828 0.27344 0.53125 0.40625 0.875 0.40625 0.33203 0 0.65625-0.10156 0.96875-0.3125 0.32031-0.21875 0.57031-0.53125 0.75-0.9375zm-2.7812-1.3906h3.1406c0.007813-0.09375 0.015625-0.16016 0.015625-0.20312 0-0.47656-0.12109-0.84375-0.35938-1.0938-0.24219-0.25781-0.55469-0.39062-0.9375-0.39062-0.40625 0-0.77734 0.14062-1.1094 0.42188-0.33594 0.28125-0.58594 0.70312-0.75 1.2656z"/>
   </g>
   <g id="use7662" transform="translate(400.89 3262.4)">
    <path id="path30718" d="m0.45312-1.9219 0.95312-0.046875c0 0.27344 0.039063 0.50781 0.125 0.70312 0.082031 0.1875 0.23828 0.34375 0.46875 0.46875 0.22656 0.125 0.49219 0.1875 0.79688 0.1875 0.41406 0 0.72656-0.082031 0.9375-0.25 0.21875-0.17578 0.32812-0.37891 0.32812-0.60938 0-0.15625-0.0625-0.3125-0.1875-0.46875-0.13672-0.14453-0.46094-0.32031-0.96875-0.53125-0.5-0.21875-0.82031-0.375-0.95312-0.46875-0.24219-0.14453-0.42188-0.3125-0.54688-0.5-0.11719-0.19531-0.17188-0.42578-0.17188-0.6875 0-0.4375 0.17578-0.8125 0.53125-1.125 0.35156-0.32031 0.84375-0.48438 1.4688-0.48438 0.70703 0 1.2422 0.16797 1.6094 0.5 0.375 0.32422 0.56641 0.75 0.57812 1.2812l-0.9375 0.0625c-0.011719-0.34375-0.13281-0.61328-0.35938-0.8125-0.21875-0.19531-0.53906-0.29688-0.95312-0.29688-0.33594 0-0.59375 0.078125-0.78125 0.23438-0.17969 0.14844-0.26562 0.30859-0.26562 0.48438 0 0.17969 0.078125 0.33594 0.23438 0.46875 0.11328 0.09375 0.39062 0.23438 0.82812 0.42188 0.72656 0.3125 1.1875 0.5625 1.375 0.75 0.30078 0.29297 0.45312 0.64844 0.45312 1.0625 0 0.28125-0.085937 0.55859-0.25 0.82812-0.16797 0.26172-0.42969 0.47656-0.78125 0.64062-0.35547 0.15625-0.76562 0.23438-1.2344 0.23438-0.64844 0-1.1992-0.16016-1.6562-0.48438-0.46094-0.3125-0.67188-0.83203-0.64062-1.5625z"/>
   </g>
   <g id="use7664" transform="translate(406.36 3262.4)"></g>
   <g id="use7666" transform="translate(409.42 3262.4)">
    <path id="path30726" d="m4.1406-0.70312c-0.33594 0.29297-0.65625 0.50781-0.96875 0.64062-0.30469 0.125-0.625 0.1875-0.96875 0.1875-0.52344 0-0.94531-0.14844-1.2656-0.45312-0.3125-0.30078-0.46875-0.69141-0.46875-1.1719 0-0.3125 0.070313-0.58594 0.21875-0.82812 0.14453-0.23828 0.33203-0.42969 0.5625-0.57812 0.23828-0.14453 0.53125-0.25 0.875-0.3125 0.20703-0.050781 0.61328-0.085938 1.2188-0.10938 0.60156-0.019531 1.0352-0.082031 1.2969-0.1875 0.070313-0.25781 0.10938-0.47656 0.10938-0.65625 0-0.21875-0.085937-0.39062-0.25-0.51562-0.21875-0.17578-0.54297-0.26562-0.96875-0.26562-0.39844 0-0.72656 0.089844-0.98438 0.26562-0.25 0.17969-0.4375 0.43359-0.5625 0.76562l-0.95312-0.09375c0.1875-0.55078 0.49219-0.97266 0.92188-1.2656 0.4375-0.30078 0.97656-0.45312 1.625-0.45312 0.69531 0 1.25 0.16797 1.6562 0.5 0.30078 0.24219 0.45312 0.55859 0.45312 0.95312 0 0.30469-0.042969 0.65234-0.125 1.0469l-0.3125 1.3906c-0.10547 0.44922-0.15625 0.80859-0.15625 1.0781 0 0.17969 0.039063 0.43359 0.125 0.76562h-0.96875c-0.054687-0.1875-0.089844-0.42188-0.10938-0.70312zm0.35938-2.1406c-0.13672 0.054687-0.28125 0.09375-0.4375 0.125s-0.41406 0.0625-0.76562 0.09375c-0.5625 0.042969-0.96094 0.10547-1.1875 0.1875-0.21875 0.074219-0.39062 0.19531-0.51562 0.35938-0.11719 0.16797-0.17188 0.35156-0.17188 0.54688 0 0.27344 0.09375 0.49609 0.28125 0.67188 0.1875 0.16797 0.44531 0.25 0.78125 0.25 0.32031 0 0.62891-0.082031 0.92188-0.25 0.28906-0.16406 0.51953-0.39844 0.6875-0.70312 0.16406-0.30078 0.30078-0.72656 0.40625-1.2812z"/>
   </g>
   <g id="use7668" transform="translate(415.48 3262.4)">
    <path id="path30730" d="m0.28125 0 1.625-7.7344h0.95312l-1.625 7.7344z"/>
   </g>
   <g id="use7670" transform="translate(417.94 3262.4)">
    <path id="path30734" d="m0.28125 0 1.625-7.7344h0.95312l-1.625 7.7344z"/>
   </g>
   <g id="use7672" transform="translate(420.39 3262.4)"></g>
  </g>
  <g id="g7678" transform="matrix(.35278 0 0 .35278 -30.529 -1058.3)" style="fill:#c20000">
   <g id="use7676" transform="translate(423.45 3262.4)">
    <path id="path30742" d="m3.0156-1.5781-1.3906 1.5781h-1.8594l2.5938-2.875-1.4375-2.7344h1.625l0.8125 1.6094 1.4219-1.6094h1.8438l-2.6094 2.9062 1.4219 2.7031h-1.6094z"/>
   </g>
  </g>
  <g id="g7694" transform="matrix(.35278 0 0 .35278 -30.529 -1058.3)" style="fill:#c20000">
   <g id="use7680" transform="translate(429.53 3262.4)">
    <path id="path30746" d="m0.5-2.3281 0.20312-0.95312h2.9062l-0.1875 0.95312z"/>
   </g>
   <g id="use7682" transform="translate(433.19 3262.4)">
    <path id="path30750" d="m1.7812 0-0.92188-5.6094h0.92188l0.48438 3.0938c0.050781 0.33594 0.11328 0.88672 0.1875 1.6562 0.1875-0.40625 0.42188-0.86328 0.70312-1.375l1.875-3.375h1.0156l-3.2188 5.6094z"/>
   </g>
   <g id="use7684" transform="translate(438.65 3262.4)">
    <path id="path30754" d="m4.1406-0.70312c-0.33594 0.29297-0.65625 0.50781-0.96875 0.64062-0.30469 0.125-0.625 0.1875-0.96875 0.1875-0.52344 0-0.94531-0.14844-1.2656-0.45312-0.3125-0.30078-0.46875-0.69141-0.46875-1.1719 0-0.3125 0.070313-0.58594 0.21875-0.82812 0.14453-0.23828 0.33203-0.42969 0.5625-0.57812 0.23828-0.14453 0.53125-0.25 0.875-0.3125 0.20703-0.050781 0.61328-0.085938 1.2188-0.10938 0.60156-0.019531 1.0352-0.082031 1.2969-0.1875 0.070313-0.25781 0.10938-0.47656 0.10938-0.65625 0-0.21875-0.085937-0.39062-0.25-0.51562-0.21875-0.17578-0.54297-0.26562-0.96875-0.26562-0.39844 0-0.72656 0.089844-0.98438 0.26562-0.25 0.17969-0.4375 0.43359-0.5625 0.76562l-0.95312-0.09375c0.1875-0.55078 0.49219-0.97266 0.92188-1.2656 0.4375-0.30078 0.97656-0.45312 1.625-0.45312 0.69531 0 1.25 0.16797 1.6562 0.5 0.30078 0.24219 0.45312 0.55859 0.45312 0.95312 0 0.30469-0.042969 0.65234-0.125 1.0469l-0.3125 1.3906c-0.10547 0.44922-0.15625 0.80859-0.15625 1.0781 0 0.17969 0.039063 0.43359 0.125 0.76562h-0.96875c-0.054687-0.1875-0.089844-0.42188-0.10938-0.70312zm0.35938-2.1406c-0.13672 0.054687-0.28125 0.09375-0.4375 0.125s-0.41406 0.0625-0.76562 0.09375c-0.5625 0.042969-0.96094 0.10547-1.1875 0.1875-0.21875 0.074219-0.39062 0.19531-0.51562 0.35938-0.11719 0.16797-0.17188 0.35156-0.17188 0.54688 0 0.27344 0.09375 0.49609 0.28125 0.67188 0.1875 0.16797 0.44531 0.25 0.78125 0.25 0.32031 0 0.62891-0.082031 0.92188-0.25 0.28906-0.16406 0.51953-0.39844 0.6875-0.70312 0.16406-0.30078 0.30078-0.72656 0.40625-1.2812z"/>
   </g>
   <g id="use7686" transform="translate(444.72 3262.4)">
    <path id="path30758" d="m0.28125 0 1.625-7.7344h0.95312l-1.625 7.7344z"/>
   </g>
   <g id="use7688" transform="translate(447.17 3262.4)">
    <path id="path30762" d="m4.1875-1.0156c-0.67969 0.76172-1.3672 1.1406-2.0625 1.1406-0.4375 0-0.79297-0.125-1.0625-0.375-0.26172-0.25-0.39062-0.55078-0.39062-0.90625 0-0.23828 0.0625-0.64453 0.1875-1.2188l0.67188-3.2344h0.95312l-0.75 3.5938c-0.0625 0.29297-0.09375 0.52344-0.09375 0.6875 0 0.21094 0.0625 0.375 0.1875 0.5 0.13281 0.11719 0.32812 0.17188 0.57812 0.17188 0.25781 0 0.51562-0.0625 0.76562-0.1875 0.25781-0.13281 0.48438-0.3125 0.67188-0.53125s0.33594-0.48438 0.45312-0.79688c0.070313-0.1875 0.16016-0.52344 0.26562-1.0156l0.51562-2.4219h0.95312l-1.1719 5.6094h-0.89062z"/>
   </g>
   <g id="use7690" transform="translate(453.24 3262.4)">
    <path id="path30766" d="m4.4844-1.9062 0.92188 0.09375c-0.13672 0.46094-0.44531 0.89844-0.92188 1.3125-0.48047 0.41797-1.0547 0.625-1.7188 0.625-0.41797 0-0.79688-0.09375-1.1406-0.28125-0.34375-0.19531-0.60938-0.47656-0.79688-0.84375-0.17969-0.36328-0.26562-0.78125-0.26562-1.25 0-0.61328 0.14062-1.207 0.42188-1.7812 0.28125-0.57031 0.64453-1 1.0938-1.2812 0.45703-0.28125 0.94531-0.42188 1.4688-0.42188 0.66406 0 1.1953 0.21094 1.5938 0.625 0.40625 0.41797 0.60938 0.98438 0.60938 1.7031 0 0.27344-0.027344 0.55469-0.078125 0.84375h-4.125c-0.011719 0.10547-0.015625 0.20312-0.015625 0.29688 0 0.52344 0.11719 0.92188 0.35938 1.2031 0.23828 0.27344 0.53125 0.40625 0.875 0.40625 0.33203 0 0.65625-0.10156 0.96875-0.3125 0.32031-0.21875 0.57031-0.53125 0.75-0.9375zm-2.7812-1.3906h3.1406c0.007813-0.09375 0.015625-0.16016 0.015625-0.20312 0-0.47656-0.12109-0.84375-0.35938-1.0938-0.24219-0.25781-0.55469-0.39062-0.9375-0.39062-0.40625 0-0.77734 0.14062-1.1094 0.42188-0.33594 0.28125-0.58594 0.70312-0.75 1.2656z"/>
   </g>
   <g id="use7692" transform="translate(459.31 3262.4)">
    <path id="path30770" d="m0.45312-1.9219 0.95312-0.046875c0 0.27344 0.039063 0.50781 0.125 0.70312 0.082031 0.1875 0.23828 0.34375 0.46875 0.46875 0.22656 0.125 0.49219 0.1875 0.79688 0.1875 0.41406 0 0.72656-0.082031 0.9375-0.25 0.21875-0.17578 0.32812-0.37891 0.32812-0.60938 0-0.15625-0.0625-0.3125-0.1875-0.46875-0.13672-0.14453-0.46094-0.32031-0.96875-0.53125-0.5-0.21875-0.82031-0.375-0.95312-0.46875-0.24219-0.14453-0.42188-0.3125-0.54688-0.5-0.11719-0.19531-0.17188-0.42578-0.17188-0.6875 0-0.4375 0.17578-0.8125 0.53125-1.125 0.35156-0.32031 0.84375-0.48438 1.4688-0.48438 0.70703 0 1.2422 0.16797 1.6094 0.5 0.375 0.32422 0.56641 0.75 0.57812 1.2812l-0.9375 0.0625c-0.011719-0.34375-0.13281-0.61328-0.35938-0.8125-0.21875-0.19531-0.53906-0.29688-0.95312-0.29688-0.33594 0-0.59375 0.078125-0.78125 0.23438-0.17969 0.14844-0.26562 0.30859-0.26562 0.48438 0 0.17969 0.078125 0.33594 0.23438 0.46875 0.11328 0.09375 0.39062 0.23438 0.82812 0.42188 0.72656 0.3125 1.1875 0.5625 1.375 0.75 0.30078 0.29297 0.45312 0.64844 0.45312 1.0625 0 0.28125-0.085937 0.55859-0.25 0.82812-0.16797 0.26172-0.42969 0.47656-0.78125 0.64062-0.35547 0.15625-0.76562 0.23438-1.2344 0.23438-0.64844 0-1.1992-0.16016-1.6562-0.48438-0.46094-0.3125-0.67188-0.83203-0.64062-1.5625z"/>
   </g>
  </g>
  <g id="g7720" transform="matrix(.35278 0 0 .35278 -30.529 -1058.3)" style="fill:#008200">
   <g id="use7696" transform="translate(368.1 3196.1)">
    <path id="path30774" d="m2.5938-0.78125-0.15625 0.78125c-0.23047 0.0625-0.45312 0.09375-0.67188 0.09375-0.375 0-0.67969-0.09375-0.90625-0.28125-0.16797-0.13281-0.25-0.32812-0.25-0.57812 0-0.11328 0.046875-0.39453 0.14062-0.84375l0.67188-3.2656h-0.75l0.15625-0.73438h0.75l0.29688-1.375 1.0938-0.65625-0.4375 2.0312h0.9375l-0.15625 0.73438h-0.9375l-0.64062 3.1094c-0.085937 0.39844-0.125 0.63281-0.125 0.70312 0 0.11719 0.03125 0.20312 0.09375 0.26562 0.070313 0.054687 0.17969 0.078125 0.32812 0.078125 0.20703 0 0.39453-0.019531 0.5625-0.0625z"/>
   </g>
   <g id="use7698" transform="translate(371.16 3196.1)">
    <path id="path30778" d="m0.53125-2.125c0-1.0938 0.32031-2 0.96875-2.7188 0.53125-0.59375 1.2227-0.89062 2.0781-0.89062 0.67578 0 1.2227 0.21484 1.6406 0.64062 0.41406 0.41797 0.625 0.98438 0.625 1.7031 0 0.64844-0.13281 1.2461-0.39062 1.7969-0.26172 0.55469-0.63672 0.98047-1.125 1.2812-0.48047 0.29297-0.98438 0.4375-1.5156 0.4375-0.42969 0-0.82422-0.09375-1.1875-0.28125-0.35547-0.1875-0.625-0.44531-0.8125-0.78125-0.1875-0.34375-0.28125-0.73828-0.28125-1.1875zm0.95312-0.09375c0 0.52344 0.125 0.92188 0.375 1.2031 0.25781 0.27344 0.58203 0.40625 0.96875 0.40625 0.20703 0 0.41016-0.039063 0.60938-0.125 0.19531-0.082031 0.37891-0.20703 0.54688-0.375 0.17578-0.17578 0.32812-0.36719 0.45312-0.57812 0.125-0.21875 0.22266-0.45312 0.29688-0.70312 0.10156-0.35156 0.15625-0.6875 0.15625-1 0-0.50781-0.13281-0.90625-0.39062-1.1875-0.25-0.28125-0.57031-0.42188-0.95312-0.42188-0.30469 0-0.57812 0.074219-0.82812 0.21875-0.24219 0.14844-0.46094 0.35547-0.65625 0.625-0.19922 0.27344-0.34375 0.58984-0.4375 0.95312-0.09375 0.36719-0.14062 0.69531-0.14062 0.98438z"/>
   </g>
   <g id="use7700" transform="translate(377.23 3196.1)">
    <path id="path30782" d="m4.1875-1.0156c-0.67969 0.76172-1.3672 1.1406-2.0625 1.1406-0.4375 0-0.79297-0.125-1.0625-0.375-0.26172-0.25-0.39062-0.55078-0.39062-0.90625 0-0.23828 0.0625-0.64453 0.1875-1.2188l0.67188-3.2344h0.95312l-0.75 3.5938c-0.0625 0.29297-0.09375 0.52344-0.09375 0.6875 0 0.21094 0.0625 0.375 0.1875 0.5 0.13281 0.11719 0.32812 0.17188 0.57812 0.17188 0.25781 0 0.51562-0.0625 0.76562-0.1875 0.25781-0.13281 0.48438-0.3125 0.67188-0.53125s0.33594-0.48438 0.45312-0.79688c0.070313-0.1875 0.16016-0.52344 0.26562-1.0156l0.51562-2.4219h0.95312l-1.1719 5.6094h-0.89062z"/>
   </g>
   <g id="use7702" transform="translate(383.3 3196.1)">
    <path id="path30786" d="m4.2344-2.0469 0.95312 0.10938c-0.24219 0.69922-0.58594 1.2188-1.0312 1.5625-0.4375 0.33594-0.9375 0.5-1.5 0.5-0.60547 0-1.1016-0.19531-1.4844-0.59375-0.375-0.39453-0.5625-0.94141-0.5625-1.6406 0-0.61328 0.11719-1.2188 0.35938-1.8125 0.23828-0.59375 0.58203-1.0391 1.0312-1.3438 0.45703-0.3125 0.97656-0.46875 1.5625-0.46875 0.60156 0 1.0781 0.17188 1.4219 0.51562 0.35156 0.33594 0.53125 0.78125 0.53125 1.3438l-0.9375 0.0625c0-0.35156-0.10547-0.62891-0.3125-0.82812-0.19922-0.20703-0.46484-0.3125-0.79688-0.3125-0.375 0-0.71094 0.125-1 0.375-0.28125 0.24219-0.5 0.60938-0.65625 1.1094-0.15625 0.49219-0.23438 0.96484-0.23438 1.4219 0 0.48047 0.10156 0.83984 0.3125 1.0781 0.20703 0.24219 0.46875 0.35938 0.78125 0.35938s0.60938-0.11328 0.89062-0.34375c0.28125-0.23828 0.50391-0.60156 0.67188-1.0938z"/>
   </g>
   <g id="use7704" transform="translate(388.76 3196.1)">
    <path id="path30790" d="m0.35938 0 1.6094-7.7344h0.96875l-0.625 2.9688c0.35156-0.34375 0.67969-0.58594 0.98438-0.73438 0.3125-0.15625 0.62891-0.23438 0.95312-0.23438 0.46875 0 0.82812 0.125 1.0781 0.375 0.25781 0.24219 0.39062 0.5625 0.39062 0.96875 0 0.1875-0.058594 0.54688-0.17188 1.0781l-0.6875 3.3125h-0.95312l0.70312-3.3906c0.10156-0.5 0.15625-0.8125 0.15625-0.9375 0-0.17578-0.0625-0.32031-0.1875-0.4375-0.125-0.125-0.30859-0.1875-0.54688-0.1875-0.34375 0-0.67188 0.09375-0.98438 0.28125-0.3125 0.17969-0.5625 0.42969-0.75 0.75-0.17969 0.3125-0.33984 0.82031-0.48438 1.5156l-0.5 2.4062z"/>
   </g>
   <g id="use7706" transform="translate(394.83 3196.1)">
    <path id="path30794" d="m4.4844-1.9062 0.92188 0.09375c-0.13672 0.46094-0.44531 0.89844-0.92188 1.3125-0.48047 0.41797-1.0547 0.625-1.7188 0.625-0.41797 0-0.79688-0.09375-1.1406-0.28125-0.34375-0.19531-0.60938-0.47656-0.79688-0.84375-0.17969-0.36328-0.26562-0.78125-0.26562-1.25 0-0.61328 0.14062-1.207 0.42188-1.7812 0.28125-0.57031 0.64453-1 1.0938-1.2812 0.45703-0.28125 0.94531-0.42188 1.4688-0.42188 0.66406 0 1.1953 0.21094 1.5938 0.625 0.40625 0.41797 0.60938 0.98438 0.60938 1.7031 0 0.27344-0.027344 0.55469-0.078125 0.84375h-4.125c-0.011719 0.10547-0.015625 0.20312-0.015625 0.29688 0 0.52344 0.11719 0.92188 0.35938 1.2031 0.23828 0.27344 0.53125 0.40625 0.875 0.40625 0.33203 0 0.65625-0.10156 0.96875-0.3125 0.32031-0.21875 0.57031-0.53125 0.75-0.9375zm-2.7812-1.3906h3.1406c0.007813-0.09375 0.015625-0.16016 0.015625-0.20312 0-0.47656-0.12109-0.84375-0.35938-1.0938-0.24219-0.25781-0.55469-0.39062-0.9375-0.39062-0.40625 0-0.77734 0.14062-1.1094 0.42188-0.33594 0.28125-0.58594 0.70312-0.75 1.2656z"/>
   </g>
   <g id="use7708" transform="translate(400.89 3196.1)">
    <path id="path30798" d="m0.45312-1.9219 0.95312-0.046875c0 0.27344 0.039063 0.50781 0.125 0.70312 0.082031 0.1875 0.23828 0.34375 0.46875 0.46875 0.22656 0.125 0.49219 0.1875 0.79688 0.1875 0.41406 0 0.72656-0.082031 0.9375-0.25 0.21875-0.17578 0.32812-0.37891 0.32812-0.60938 0-0.15625-0.0625-0.3125-0.1875-0.46875-0.13672-0.14453-0.46094-0.32031-0.96875-0.53125-0.5-0.21875-0.82031-0.375-0.95312-0.46875-0.24219-0.14453-0.42188-0.3125-0.54688-0.5-0.11719-0.19531-0.17188-0.42578-0.17188-0.6875 0-0.4375 0.17578-0.8125 0.53125-1.125 0.35156-0.32031 0.84375-0.48438 1.4688-0.48438 0.70703 0 1.2422 0.16797 1.6094 0.5 0.375 0.32422 0.56641 0.75 0.57812 1.2812l-0.9375 0.0625c-0.011719-0.34375-0.13281-0.61328-0.35938-0.8125-0.21875-0.19531-0.53906-0.29688-0.95312-0.29688-0.33594 0-0.59375 0.078125-0.78125 0.23438-0.17969 0.14844-0.26562 0.30859-0.26562 0.48438 0 0.17969 0.078125 0.33594 0.23438 0.46875 0.11328 0.09375 0.39062 0.23438 0.82812 0.42188 0.72656 0.3125 1.1875 0.5625 1.375 0.75 0.30078 0.29297 0.45312 0.64844 0.45312 1.0625 0 0.28125-0.085937 0.55859-0.25 0.82812-0.16797 0.26172-0.42969 0.47656-0.78125 0.64062-0.35547 0.15625-0.76562 0.23438-1.2344 0.23438-0.64844 0-1.1992-0.16016-1.6562-0.48438-0.46094-0.3125-0.67188-0.83203-0.64062-1.5625z"/>
   </g>
   <g id="use7710" transform="translate(406.36 3196.1)"></g>
   <g id="use7712" transform="translate(409.42 3196.1)">
    <path id="path30806" d="m4.1406-0.70312c-0.33594 0.29297-0.65625 0.50781-0.96875 0.64062-0.30469 0.125-0.625 0.1875-0.96875 0.1875-0.52344 0-0.94531-0.14844-1.2656-0.45312-0.3125-0.30078-0.46875-0.69141-0.46875-1.1719 0-0.3125 0.070313-0.58594 0.21875-0.82812 0.14453-0.23828 0.33203-0.42969 0.5625-0.57812 0.23828-0.14453 0.53125-0.25 0.875-0.3125 0.20703-0.050781 0.61328-0.085938 1.2188-0.10938 0.60156-0.019531 1.0352-0.082031 1.2969-0.1875 0.070313-0.25781 0.10938-0.47656 0.10938-0.65625 0-0.21875-0.085937-0.39062-0.25-0.51562-0.21875-0.17578-0.54297-0.26562-0.96875-0.26562-0.39844 0-0.72656 0.089844-0.98438 0.26562-0.25 0.17969-0.4375 0.43359-0.5625 0.76562l-0.95312-0.09375c0.1875-0.55078 0.49219-0.97266 0.92188-1.2656 0.4375-0.30078 0.97656-0.45312 1.625-0.45312 0.69531 0 1.25 0.16797 1.6562 0.5 0.30078 0.24219 0.45312 0.55859 0.45312 0.95312 0 0.30469-0.042969 0.65234-0.125 1.0469l-0.3125 1.3906c-0.10547 0.44922-0.15625 0.80859-0.15625 1.0781 0 0.17969 0.039063 0.43359 0.125 0.76562h-0.96875c-0.054687-0.1875-0.089844-0.42188-0.10938-0.70312zm0.35938-2.1406c-0.13672 0.054687-0.28125 0.09375-0.4375 0.125s-0.41406 0.0625-0.76562 0.09375c-0.5625 0.042969-0.96094 0.10547-1.1875 0.1875-0.21875 0.074219-0.39062 0.19531-0.51562 0.35938-0.11719 0.16797-0.17188 0.35156-0.17188 0.54688 0 0.27344 0.09375 0.49609 0.28125 0.67188 0.1875 0.16797 0.44531 0.25 0.78125 0.25 0.32031 0 0.62891-0.082031 0.92188-0.25 0.28906-0.16406 0.51953-0.39844 0.6875-0.70312 0.16406-0.30078 0.30078-0.72656 0.40625-1.2812z"/>
   </g>
   <g id="use7714" transform="translate(415.48 3196.1)">
    <path id="path30810" d="m0.28125 0 1.625-7.7344h0.95312l-1.625 7.7344z"/>
   </g>
   <g id="use7716" transform="translate(417.94 3196.1)">
    <path id="path30814" d="m0.28125 0 1.625-7.7344h0.95312l-1.625 7.7344z"/>
   </g>
   <g id="use7718" transform="translate(420.39 3196.1)"></g>
  </g>
  <g id="g7724" transform="matrix(.35278 0 0 .35278 -30.529 -1058.3)" style="fill:#008200">
   <g id="use7722" transform="translate(423.45 3196.1)">
    <path id="path30822" d="m0.90625-5.6094h1.5l0.39062 2.7969c0.09375 0.71875 0.14453 1.2266 0.15625 1.5156 0.19531-0.58203 0.46875-1.1914 0.8125-1.8281l1.3438-2.4844h1.5938l-3.4531 6.1562c-0.29297 0.50781-0.52344 0.86328-0.6875 1.0625-0.15625 0.20703-0.35156 0.36719-0.57812 0.48438-0.23047 0.125-0.50781 0.1875-0.82812 0.1875-0.32422 0-0.6875-0.058594-1.0938-0.17188l0.14062-1.125c0.17578 0.050781 0.35156 0.078125 0.53125 0.078125 0.46875 0 0.84766-0.35547 1.1406-1.0625z"/>
   </g>
  </g>
  <g id="g7740" transform="matrix(.35278 0 0 .35278 -30.529 -1058.3)" style="fill:#008200">
   <g id="use7726" transform="translate(429.53 3196.1)">
    <path id="path30826" d="m0.5-2.3281 0.20312-0.95312h2.9062l-0.1875 0.95312z"/>
   </g>
   <g id="use7728" transform="translate(433.19 3196.1)">
    <path id="path30830" d="m1.7812 0-0.92188-5.6094h0.92188l0.48438 3.0938c0.050781 0.33594 0.11328 0.88672 0.1875 1.6562 0.1875-0.40625 0.42188-0.86328 0.70312-1.375l1.875-3.375h1.0156l-3.2188 5.6094z"/>
   </g>
   <g id="use7730" transform="translate(438.65 3196.1)">
    <path id="path30834" d="m4.1406-0.70312c-0.33594 0.29297-0.65625 0.50781-0.96875 0.64062-0.30469 0.125-0.625 0.1875-0.96875 0.1875-0.52344 0-0.94531-0.14844-1.2656-0.45312-0.3125-0.30078-0.46875-0.69141-0.46875-1.1719 0-0.3125 0.070313-0.58594 0.21875-0.82812 0.14453-0.23828 0.33203-0.42969 0.5625-0.57812 0.23828-0.14453 0.53125-0.25 0.875-0.3125 0.20703-0.050781 0.61328-0.085938 1.2188-0.10938 0.60156-0.019531 1.0352-0.082031 1.2969-0.1875 0.070313-0.25781 0.10938-0.47656 0.10938-0.65625 0-0.21875-0.085937-0.39062-0.25-0.51562-0.21875-0.17578-0.54297-0.26562-0.96875-0.26562-0.39844 0-0.72656 0.089844-0.98438 0.26562-0.25 0.17969-0.4375 0.43359-0.5625 0.76562l-0.95312-0.09375c0.1875-0.55078 0.49219-0.97266 0.92188-1.2656 0.4375-0.30078 0.97656-0.45312 1.625-0.45312 0.69531 0 1.25 0.16797 1.6562 0.5 0.30078 0.24219 0.45312 0.55859 0.45312 0.95312 0 0.30469-0.042969 0.65234-0.125 1.0469l-0.3125 1.3906c-0.10547 0.44922-0.15625 0.80859-0.15625 1.0781 0 0.17969 0.039063 0.43359 0.125 0.76562h-0.96875c-0.054687-0.1875-0.089844-0.42188-0.10938-0.70312zm0.35938-2.1406c-0.13672 0.054687-0.28125 0.09375-0.4375 0.125s-0.41406 0.0625-0.76562 0.09375c-0.5625 0.042969-0.96094 0.10547-1.1875 0.1875-0.21875 0.074219-0.39062 0.19531-0.51562 0.35938-0.11719 0.16797-0.17188 0.35156-0.17188 0.54688 0 0.27344 0.09375 0.49609 0.28125 0.67188 0.1875 0.16797 0.44531 0.25 0.78125 0.25 0.32031 0 0.62891-0.082031 0.92188-0.25 0.28906-0.16406 0.51953-0.39844 0.6875-0.70312 0.16406-0.30078 0.30078-0.72656 0.40625-1.2812z"/>
   </g>
   <g id="use7732" transform="translate(444.72 3196.1)">
    <path id="path30838" d="m0.28125 0 1.625-7.7344h0.95312l-1.625 7.7344z"/>
   </g>
   <g id="use7734" transform="translate(447.17 3196.1)">
    <path id="path30842" d="m4.1875-1.0156c-0.67969 0.76172-1.3672 1.1406-2.0625 1.1406-0.4375 0-0.79297-0.125-1.0625-0.375-0.26172-0.25-0.39062-0.55078-0.39062-0.90625 0-0.23828 0.0625-0.64453 0.1875-1.2188l0.67188-3.2344h0.95312l-0.75 3.5938c-0.0625 0.29297-0.09375 0.52344-0.09375 0.6875 0 0.21094 0.0625 0.375 0.1875 0.5 0.13281 0.11719 0.32812 0.17188 0.57812 0.17188 0.25781 0 0.51562-0.0625 0.76562-0.1875 0.25781-0.13281 0.48438-0.3125 0.67188-0.53125s0.33594-0.48438 0.45312-0.79688c0.070313-0.1875 0.16016-0.52344 0.26562-1.0156l0.51562-2.4219h0.95312l-1.1719 5.6094h-0.89062z"/>
   </g>
   <g id="use7736" transform="translate(453.24 3196.1)">
    <path id="path30846" d="m4.4844-1.9062 0.92188 0.09375c-0.13672 0.46094-0.44531 0.89844-0.92188 1.3125-0.48047 0.41797-1.0547 0.625-1.7188 0.625-0.41797 0-0.79688-0.09375-1.1406-0.28125-0.34375-0.19531-0.60938-0.47656-0.79688-0.84375-0.17969-0.36328-0.26562-0.78125-0.26562-1.25 0-0.61328 0.14062-1.207 0.42188-1.7812 0.28125-0.57031 0.64453-1 1.0938-1.2812 0.45703-0.28125 0.94531-0.42188 1.4688-0.42188 0.66406 0 1.1953 0.21094 1.5938 0.625 0.40625 0.41797 0.60938 0.98438 0.60938 1.7031 0 0.27344-0.027344 0.55469-0.078125 0.84375h-4.125c-0.011719 0.10547-0.015625 0.20312-0.015625 0.29688 0 0.52344 0.11719 0.92188 0.35938 1.2031 0.23828 0.27344 0.53125 0.40625 0.875 0.40625 0.33203 0 0.65625-0.10156 0.96875-0.3125 0.32031-0.21875 0.57031-0.53125 0.75-0.9375zm-2.7812-1.3906h3.1406c0.007813-0.09375 0.015625-0.16016 0.015625-0.20312 0-0.47656-0.12109-0.84375-0.35938-1.0938-0.24219-0.25781-0.55469-0.39062-0.9375-0.39062-0.40625 0-0.77734 0.14062-1.1094 0.42188-0.33594 0.28125-0.58594 0.70312-0.75 1.2656z"/>
   </g>
   <g id="use7738" transform="translate(459.31 3196.1)">
    <path id="path30850" d="m0.45312-1.9219 0.95312-0.046875c0 0.27344 0.039063 0.50781 0.125 0.70312 0.082031 0.1875 0.23828 0.34375 0.46875 0.46875 0.22656 0.125 0.49219 0.1875 0.79688 0.1875 0.41406 0 0.72656-0.082031 0.9375-0.25 0.21875-0.17578 0.32812-0.37891 0.32812-0.60938 0-0.15625-0.0625-0.3125-0.1875-0.46875-0.13672-0.14453-0.46094-0.32031-0.96875-0.53125-0.5-0.21875-0.82031-0.375-0.95312-0.46875-0.24219-0.14453-0.42188-0.3125-0.54688-0.5-0.11719-0.19531-0.17188-0.42578-0.17188-0.6875 0-0.4375 0.17578-0.8125 0.53125-1.125 0.35156-0.32031 0.84375-0.48438 1.4688-0.48438 0.70703 0 1.2422 0.16797 1.6094 0.5 0.375 0.32422 0.56641 0.75 0.57812 1.2812l-0.9375 0.0625c-0.011719-0.34375-0.13281-0.61328-0.35938-0.8125-0.21875-0.19531-0.53906-0.29688-0.95312-0.29688-0.33594 0-0.59375 0.078125-0.78125 0.23438-0.17969 0.14844-0.26562 0.30859-0.26562 0.48438 0 0.17969 0.078125 0.33594 0.23438 0.46875 0.11328 0.09375 0.39062 0.23438 0.82812 0.42188 0.72656 0.3125 1.1875 0.5625 1.375 0.75 0.30078 0.29297 0.45312 0.64844 0.45312 1.0625 0 0.28125-0.085937 0.55859-0.25 0.82812-0.16797 0.26172-0.42969 0.47656-0.78125 0.64062-0.35547 0.15625-0.76562 0.23438-1.2344 0.23438-0.64844 0-1.1992-0.16016-1.6562-0.48438-0.46094-0.3125-0.67188-0.83203-0.64062-1.5625z"/>
   </g>
  </g>
  <path id="path7742" d="m94.511 52.736v99.792" style="fill:none;stroke-miterlimit:10;stroke-width:.38806;stroke:#008200"/>
  <path id="path7744" d="m94.511 50.394c-0.40927 1.1024-1.1079 2.4708-1.8466 3.3183l1.8466-0.66837 1.8452 0.66837c-0.73863-0.84751-1.4373-2.2159-1.8452-3.3183" style="fill:#008200"/>
  <path id="path7746" d="m94.511 154.87c-0.40927-1.1024-1.1079-2.4709-1.8466-3.3183l1.8466 0.66697 1.8452-0.66697c-0.73863 0.84748-1.4373 2.2159-1.8452 3.3183" style="fill:#008200"/>
  <path id="path7748" d="m145.24 102.76h-100.45" style="fill:none;stroke-miterlimit:10;stroke-width:.38806;stroke:#c20000"/>
  <path id="path7750" d="m147.58 102.76c-1.1024-0.40791-2.4708-1.1066-3.3183-1.8452l0.66835 1.8452-0.66835 1.8466c0.84749-0.74002 2.2159-1.4373 3.3183-1.8466" style="fill:#c20000"/>
  <path id="path7752" d="m42.44 102.76c1.1024-0.40791 2.4708-1.1066 3.3183-1.8452l-0.66835 1.8452 0.66835 1.8466c-0.84749-0.74002-2.2159-1.4373-3.3183-1.8466" style="fill:#c20000"/>
  <path id="path7754" d="m98.764 101.94v1.695" style="fill:none;stroke-miterlimit:10;stroke-width:.42122;stroke:#1c1c19"/>
  <path id="path7756" d="m103.02 101.95v1.6936" style="fill:none;stroke-miterlimit:10;stroke-width:.42122;stroke:#1c1c19"/>
  <path id="path7758" d="m107.27 101.95v1.6936" style="fill:none;stroke-miterlimit:10;stroke-width:.42122;stroke:#1c1c19"/>
  <path id="path7760" d="m111.52 101.95v1.6936" style="fill:none;stroke-miterlimit:10;stroke-width:.42122;stroke:#1c1c19"/>
  <path id="path7762" d="m115.77 101.95v1.6936" style="fill:none;stroke-miterlimit:10;stroke-width:.42122;stroke:#1c1c19"/>
  <path id="path7764" d="m120.03 101.95v1.6936" style="fill:none;stroke-miterlimit:10;stroke-width:.42122;stroke:#1c1c19"/>
  <path id="path7766" d="m124.28 101.95v1.6936" style="fill:none;stroke-miterlimit:10;stroke-width:.42122;stroke:#1c1c19"/>
  <path id="path7768" d="m128.53 101.95v1.6936" style="fill:none;stroke-miterlimit:10;stroke-width:.42122;stroke:#1c1c19"/>
  <path id="path7770" d="m132.79 101.95v1.6936" style="fill:none;stroke-miterlimit:10;stroke-width:.42122;stroke:#1c1c19"/>
  <path id="path7772" d="m137.04 101.95v1.6936" style="fill:none;stroke-miterlimit:10;stroke-width:.42122;stroke:#1c1c19"/>
  <path id="path7774" d="m141.29 101.95v1.6936" style="fill:none;stroke-miterlimit:10;stroke-width:.42122;stroke:#1c1c19"/>
  <path id="path7776" d="m69.026 101.91v1.695" style="fill:none;stroke-miterlimit:10;stroke-width:.42122;stroke:#1c1c19"/>
  <path id="path7778" d="m73.248 101.94v1.695" style="fill:none;stroke-miterlimit:10;stroke-width:.42122;stroke:#1c1c19"/>
  <path id="path7780" d="m64.742 101.91v1.695" style="fill:none;stroke-miterlimit:10;stroke-width:.42122;stroke:#1c1c19"/>
  <path id="path7782" d="m60.489 101.87v1.695" style="fill:none;stroke-miterlimit:10;stroke-width:.42122;stroke:#1c1c19"/>
  <path id="path7784" d="m56.236 101.94v1.695" style="fill:none;stroke-miterlimit:10;stroke-width:.42122;stroke:#1c1c19"/>
  <path id="path7786" d="m51.984 101.94v1.695" style="fill:none;stroke-miterlimit:10;stroke-width:.42122;stroke:#1c1c19"/>
  <path id="path7788" d="m47.731 101.94v1.695" style="fill:none;stroke-miterlimit:10;stroke-width:.42122;stroke:#1c1c19"/>
  <path id="path7790" d="m77.501 101.92v1.695" style="fill:none;stroke-miterlimit:10;stroke-width:.42122;stroke:#1c1c19"/>
  <path id="path7792" d="m81.752 101.94v1.695" style="fill:none;stroke-miterlimit:10;stroke-width:.42122;stroke:#1c1c19"/>
  <path id="path7794" d="m86.006 101.89v1.695" style="fill:none;stroke-miterlimit:10;stroke-width:.42122;stroke:#1c1c19"/>
  <path id="path7796" d="m90.259 101.9v1.695" style="fill:none;stroke-miterlimit:10;stroke-width:.42122;stroke:#1c1c19"/>
  <path id="path7798" d="m93.664 98.057h1.695" style="fill:none;stroke-miterlimit:10;stroke-width:.42122;stroke:#1c1c19"/>
  <path id="path7800" d="m93.664 93.432h1.695" style="fill:none;stroke-miterlimit:10;stroke-width:.42122;stroke:#1c1c19"/>
  <path id="path7802" d="m93.664 88.755h1.695" style="fill:none;stroke-miterlimit:10;stroke-width:.42122;stroke:#1c1c19"/>
  <path id="path7804" d="m93.709 84.077h1.695" style="fill:none;stroke-miterlimit:10;stroke-width:.42122;stroke:#1c1c19"/>
  <path id="path7806" d="m93.686 79.4h1.695" style="fill:none;stroke-miterlimit:10;stroke-width:.42122;stroke:#1c1c19"/>
  <path id="path7808" d="m93.686 74.721h1.695" style="fill:none;stroke-miterlimit:10;stroke-width:.42122;stroke:#1c1c19"/>
  <path id="path7810" d="m93.686 70.043h1.695" style="fill:none;stroke-miterlimit:10;stroke-width:.42122;stroke:#1c1c19"/>
  <path id="path7812" d="m93.686 65.366h1.695" style="fill:none;stroke-miterlimit:10;stroke-width:.42122;stroke:#1c1c19"/>
  <path id="path7814" d="m93.686 60.688h1.695" style="fill:none;stroke-miterlimit:10;stroke-width:.42122;stroke:#1c1c19"/>
  <path id="path7816" d="m93.686 56.01h1.695" style="fill:none;stroke-miterlimit:10;stroke-width:.42122;stroke:#1c1c19"/>
  <path id="path7818" d="m93.664 126.18h1.695" style="fill:none;stroke-miterlimit:10;stroke-width:.42122;stroke:#1c1c19"/>
  <path id="path7820" d="m93.664 130.86h1.695" style="fill:none;stroke-miterlimit:10;stroke-width:.42122;stroke:#1c1c19"/>
  <path id="path7822" d="m93.664 135.54h1.695" style="fill:none;stroke-miterlimit:10;stroke-width:.42122;stroke:#1c1c19"/>
  <path id="path7824" d="m93.664 140.21h1.695" style="fill:none;stroke-miterlimit:10;stroke-width:.42122;stroke:#1c1c19"/>
  <path id="path7826" d="m93.664 144.89h1.695" style="fill:none;stroke-miterlimit:10;stroke-width:.42122;stroke:#1c1c19"/>
  <path id="path7828" d="m93.664 149.57h1.695" style="fill:none;stroke-miterlimit:10;stroke-width:.42122;stroke:#1c1c19"/>
  <path id="path7830" d="m93.664 121.5h1.695" style="fill:none;stroke-miterlimit:10;stroke-width:.42122;stroke:#1c1c19"/>
  <path id="path7832" d="m93.664 116.83h1.695" style="fill:none;stroke-miterlimit:10;stroke-width:.42122;stroke:#1c1c19"/>
  <path id="path7834" d="m93.664 112.15h1.695" style="fill:none;stroke-miterlimit:10;stroke-width:.42122;stroke:#1c1c19"/>
  <path id="path7836" d="m93.664 107.47h1.695" style="fill:none;stroke-miterlimit:10;stroke-width:.42122;stroke:#1c1c19"/>
  <g id="g7840" transform="matrix(.35278 0 0 .35278 -30.529 -1058.3)" style="fill:#008200">
   <g id="use7838" transform="translate(361.43 3145.2)">
    <path id="path30854" d="m0 1.875 0.046875-0.78125c0.17578 0.050781 0.34375 0.078125 0.5 0.078125 0.16406 0 0.30078-0.042969 0.40625-0.125 0.13281-0.09375 0.28125-0.28125 0.4375-0.5625l0.26562-0.46875-0.8125-4.8594h0.8125l0.35938 2.4531c0.070313 0.48047 0.13281 0.96484 0.1875 1.4531l2.1719-3.9062h0.85938l-3.0781 5.4844c-0.30469 0.53125-0.57031 0.88281-0.79688 1.0625-0.23047 0.17578-0.49609 0.26562-0.79688 0.26562-0.19922 0-0.38672-0.03125-0.5625-0.09375z"/>
   </g>
  </g>
  <g id="g7844" transform="matrix(.35278 0 0 .35278 -30.529 -1058.3)" style="fill:#c20000">
   <g id="use7842" transform="translate(497.51 3283.8)">
    <path id="path30858" d="m-0.015625 0 2.1094-2.4531-1.2031-2.3906h0.90625l0.40625 0.875c0.15625 0.3125 0.28906 0.62109 0.40625 0.92188l1.4062-1.7969h1l-2.0312 2.4531 1.2188 2.3906h-0.90625l-0.48438-0.98438c-0.10547-0.20703-0.22656-0.46875-0.35938-0.78125l-1.4375 1.7656z"/>
   </g>
  </g>
  <g id="g7848" transform="matrix(.35278 0 0 .35278 -30.529 -1058.3)" style="fill:#1c1cae">
   <g id="use7846" transform="translate(347.46 3299.3)">
    <path id="path30862" d="m2.2812-5.75c-1.1562 0-1.9688 1.0469-1.9688 2.9375 0.015625 1.875 0.76562 2.9062 1.875 2.9062 1.25 0 1.9688-1.0625 1.9688-2.9844 0-1.7969-0.6875-2.8594-1.875-2.8594zm-0.046875 0.59375c0.79688 0 1.1562 0.90625 1.1562 2.2969 0 1.4531-0.375 2.3594-1.1562 2.3594-0.70312 0-1.1562-0.82812-1.1562-2.2969 0-1.5469 0.48438-2.3594 1.1562-2.3594z"/>
   </g>
  </g>
  <g id="g7852" transform="matrix(.35278 0 0 .35278 -30.529 -1058.3)" style="fill:#1c1c19">
   <g id="use7850" transform="translate(413.11 3302.6)">
    <path id="path30866" d="m3.7656-5.6562h-2.7031l-0.35938 2.7188c0.20312-0.03125 0.45312-0.0625 0.78125-0.0625 1.125 0 1.6094 0.51562 1.625 1.25 0 0.76562-0.625 1.2344-1.3438 1.2344-0.51562 0-0.96875-0.1875-1.2031-0.3125l-0.20312 0.57812c0.28125 0.17188 0.79688 0.34375 1.4219 0.34375 1.2188 0 2.0938-0.82812 2.0938-1.9375 0-0.70312-0.35938-1.1875-0.79688-1.4531-0.35938-0.20312-0.79688-0.29688-1.2188-0.29688-0.21875 0-0.34375 0.015625-0.46875 0.03125l0.21875-1.4531h2.1562z"/>
   </g>
  </g>
  <g id="g7858" transform="matrix(.35278 0 0 .35278 -30.529 -1058.3)" style="fill:#1c1c19">
   <g id="use7854" transform="translate(484.97 3302.6)">
    <path id="path30870" d="m2.0469 0h0.75v-5.6562h-0.65625l-1.2344 0.65625 0.14062 0.59375 0.98438-0.53125h0.015625z"/>
   </g>
   <g id="use7856" transform="translate(489.48 3302.6)">
    <path id="path30874" d="m2.2812-5.75c-1.1562 0-1.9688 1.0469-1.9688 2.9375 0.015625 1.875 0.76562 2.9062 1.875 2.9062 1.25 0 1.9688-1.0625 1.9688-2.9844 0-1.7969-0.6875-2.8594-1.875-2.8594zm-0.046875 0.59375c0.79688 0 1.1562 0.90625 1.1562 2.2969 0 1.4531-0.375 2.3594-1.1562 2.3594-0.70312 0-1.1562-0.82812-1.1562-2.2969 0-1.5469 0.48438-2.3594 1.1562-2.3594z"/>
   </g>
  </g>
  <g id="g7864" transform="matrix(.35278 0 0 .35278 -30.529 -1058.3)" style="fill:#1c1c19">
   <g id="use7860" transform="translate(340.02 3160.6)">
    <path id="path30878" d="m2.0469 0h0.75v-5.6562h-0.65625l-1.2344 0.65625 0.14062 0.59375 0.98438-0.53125h0.015625z"/>
   </g>
   <g id="use7862" transform="translate(344.52 3160.6)">
    <path id="path30882" d="m2.2812-5.75c-1.1562 0-1.9688 1.0469-1.9688 2.9375 0.015625 1.875 0.76562 2.9062 1.875 2.9062 1.25 0 1.9688-1.0625 1.9688-2.9844 0-1.7969-0.6875-2.8594-1.875-2.8594zm-0.046875 0.59375c0.79688 0 1.1562 0.90625 1.1562 2.2969 0 1.4531-0.375 2.3594-1.1562 2.3594-0.70312 0-1.1562-0.82812-1.1562-2.2969 0-1.5469 0.48438-2.3594 1.1562-2.3594z"/>
   </g>
  </g>
  <g id="g7868" transform="matrix(.35278 0 0 .35278 -30.529 -1058.3)" style="fill:#1c1c19">
   <g id="use7866" transform="translate(342.96 3226.9)">
    <path id="path30886" d="m3.7656-5.6562h-2.7031l-0.35938 2.7188c0.20312-0.03125 0.45312-0.0625 0.78125-0.0625 1.125 0 1.6094 0.51562 1.625 1.25 0 0.76562-0.625 1.2344-1.3438 1.2344-0.51562 0-0.96875-0.1875-1.2031-0.3125l-0.20312 0.57812c0.28125 0.17188 0.79688 0.34375 1.4219 0.34375 1.2188 0 2.0938-0.82812 2.0938-1.9375 0-0.70312-0.35938-1.1875-0.79688-1.4531-0.35938-0.20312-0.79688-0.29688-1.2188-0.29688-0.21875 0-0.34375 0.015625-0.46875 0.03125l0.21875-1.4531h2.1562z"/>
   </g>
  </g>
  <g id="g7874" transform="matrix(.35278 0 0 .35278 -30.529 -1058.3)" style="fill:#1c1c19">
   <g id="use7870" transform="translate(340.93 3360)">
    <path id="path30890" d="m0.26562-2.6406v0.5625h2.1406v-0.5625z"/>
   </g>
   <g id="use7872" transform="translate(343.65 3360)">
    <path id="path30894" d="m3.7656-5.6562h-2.7031l-0.35938 2.7188c0.20312-0.03125 0.45312-0.0625 0.78125-0.0625 1.125 0 1.6094 0.51562 1.625 1.25 0 0.76562-0.625 1.2344-1.3438 1.2344-0.51562 0-0.96875-0.1875-1.2031-0.3125l-0.20312 0.57812c0.28125 0.17188 0.79688 0.34375 1.4219 0.34375 1.2188 0 2.0938-0.82812 2.0938-1.9375 0-0.70312-0.35938-1.1875-0.79688-1.4531-0.35938-0.20312-0.79688-0.29688-1.2188-0.29688-0.21875 0-0.34375 0.015625-0.46875 0.03125l0.21875-1.4531h2.1562z"/>
   </g>
  </g>
  <g id="g7880" transform="matrix(.35278 0 0 .35278 -30.529 -1058.3)" style="fill:#1c1c19">
   <g id="use7876" transform="translate(289.63 3302.6)">
    <path id="path30898" d="m0.26562-2.6406v0.5625h2.1406v-0.5625z"/>
   </g>
   <g id="use7878" transform="translate(292.34 3302.6)">
    <path id="path30902" d="m3.7656-5.6562h-2.7031l-0.35938 2.7188c0.20312-0.03125 0.45312-0.0625 0.78125-0.0625 1.125 0 1.6094 0.51562 1.625 1.25 0 0.76562-0.625 1.2344-1.3438 1.2344-0.51562 0-0.96875-0.1875-1.2031-0.3125l-0.20312 0.57812c0.28125 0.17188 0.79688 0.34375 1.4219 0.34375 1.2188 0 2.0938-0.82812 2.0938-1.9375 0-0.70312-0.35938-1.1875-0.79688-1.4531-0.35938-0.20312-0.79688-0.29688-1.2188-0.29688-0.21875 0-0.34375 0.015625-0.46875 0.03125l0.21875-1.4531h2.1562z"/>
   </g>
  </g>
  <g id="g7888" transform="matrix(.35278 0 0 .35278 -30.529 -1058.3)" style="fill:#1c1c19">
   <g id="use7882" transform="translate(216.64 3302.6)">
    <path id="path30906" d="m0.26562-2.6406v0.5625h2.1406v-0.5625z"/>
   </g>
   <g id="use7884" transform="translate(219.35 3302.6)">
    <path id="path30910" d="m2.0469 0h0.75v-5.6562h-0.65625l-1.2344 0.65625 0.14062 0.59375 0.98438-0.53125h0.015625z"/>
   </g>
   <g id="use7886" transform="translate(223.85 3302.6)">
    <path id="path30914" d="m2.2812-5.75c-1.1562 0-1.9688 1.0469-1.9688 2.9375 0.015625 1.875 0.76562 2.9062 1.875 2.9062 1.25 0 1.9688-1.0625 1.9688-2.9844 0-1.7969-0.6875-2.8594-1.875-2.8594zm-0.046875 0.59375c0.79688 0 1.1562 0.90625 1.1562 2.2969 0 1.4531-0.375 2.3594-1.1562 2.3594-0.70312 0-1.1562-0.82812-1.1562-2.2969 0-1.5469 0.48438-2.3594 1.1562-2.3594z"/>
   </g>
  </g>
  <g id="g7896" transform="matrix(.35278 0 0 .35278 -30.529 -1058.3)" style="fill:#1c1c19">
   <g id="use7890" transform="translate(337.49 3426.1)">
    <path id="path30918" d="m0.26562-2.6406v0.5625h2.1406v-0.5625z"/>
   </g>
   <g id="use7892" transform="translate(340.2 3426.1)">
    <path id="path30922" d="m2.0469 0h0.75v-5.6562h-0.65625l-1.2344 0.65625 0.14062 0.59375 0.98438-0.53125h0.015625z"/>
   </g>
   <g id="use7894" transform="translate(344.71 3426.1)">
    <path id="path30926" d="m2.2812-5.75c-1.1562 0-1.9688 1.0469-1.9688 2.9375 0.015625 1.875 0.76562 2.9062 1.875 2.9062 1.25 0 1.9688-1.0625 1.9688-2.9844 0-1.7969-0.6875-2.8594-1.875-2.8594zm-0.046875 0.59375c0.79688 0 1.1562 0.90625 1.1562 2.2969 0 1.4531-0.375 2.3594-1.1562 2.3594-0.70312 0-1.1562-0.82812-1.1562-2.2969 0-1.5469 0.48438-2.3594 1.1562-2.3594z"/>
   </g>
  </g>
  <path id="path7898" d="m55.568 63.204c2.836 14.876 6.6463 31.757 15.343 44.376 3.1213 4.531 6.9329 8.8001 12.333 10.247 8.3495 2.2366 15.864-4.9899 23.653-6.7482 15.164-3.4244 18.812 13.302 20.668 24.343 0.52917 3.1447 0.97704 6.3032 1.3615 9.4699" style="fill:none;stroke-miterlimit:10;stroke-width:.35278;stroke:#000"/>
  <path id="path7900" d="m55.87 64.889-0.09784-0.5981" style="fill:none;stroke-miterlimit:10;stroke-width:.35278;stroke:#1c1c19"/>
  <path id="path7902" d="m56.897 64.816-1.6302-3.6091-0.39136 3.9398z" style="fill:#1c1c19"/>
  <path id="path7904" d="m128.82 144.17 0.0675 0.60222" style="fill:none;stroke-miterlimit:10;stroke-width:.35278;stroke:#1c1c19"/>
  <path id="path7906" d="m127.79 144.19 1.4442 3.6876 0.59394-3.915z" style="fill:#1c1c19"/>
 </g>
</svg>
