<svg id="svg30097" version="1.1" viewBox="0 0 21.812 4.0575" xmlns="http://www.w3.org/2000/svg">
 <title id="title30138">img_15</title>
 <g id="layer1" transform="translate(-66.201 -151.43)">
  <g id="g25401" transform="matrix(.35278 0 0 .35278 8.0433 -606.72)">
   <g id="use25399" transform="translate(163.62 2160.6)">
    <path id="path30058" d="m1.2344 0 2.125-11.359h2.3125l-1.7656 9.4219h5.75l-0.35938 1.9375z"/>
   </g>
  </g>
  <path id="path25403" d="m75.416 154.19h-3.2908v-0.46852h3.2908zm-3.2908-1.6426h3.2908v0.46852h-3.2908z"/>
  <g id="g25407" transform="matrix(.35278 0 0 .35278 8.0433 -606.72)">
   <g id="use25405" transform="translate(198.65 2160.6)">
    <path id="path30062" d="m8.0625-1.3594v1.3594h-7.5781c-0.011719-0.34375 0.046875-0.67188 0.17188-0.98438 0.1875-0.50781 0.49219-1.0156 0.92188-1.5156 0.42578-0.5 1.0391-1.0781 1.8438-1.7344 1.2383-1.0195 2.0781-1.8281 2.5156-2.4219 0.4375-0.60156 0.65625-1.1719 0.65625-1.7031 0-0.55078-0.19922-1.0195-0.59375-1.4062-0.39844-0.38281-0.91797-0.57812-1.5625-0.57812-0.67969 0-1.2188 0.20312-1.625 0.60938s-0.60938 0.96875-0.60938 1.6875l-1.4531-0.14062c0.10156-1.082 0.47656-1.9062 1.125-2.4688 0.64453-0.5625 1.5078-0.84375 2.5938-0.84375 1.1016 0 1.9727 0.30859 2.6094 0.92188 0.64453 0.60547 0.96875 1.3555 0.96875 2.25 0 0.46094-0.09375 0.91406-0.28125 1.3594-0.1875 0.4375-0.5 0.90234-0.9375 1.3906-0.4375 0.49219-1.1641 1.1641-2.1719 2.0156-0.84375 0.71094-1.3867 1.1953-1.625 1.4531-0.24219 0.25-0.4375 0.5-0.59375 0.75z"/>
   </g>
  </g>
  <path id="path25409" d="m84.693 154.31 0.28112-1.5324h0.71107l0.08819-0.46852h-2.8277c-0.3886 0-0.62838 0.23565-0.71658 0.70555h0.35278c0.0303-0.15709 0.20119-0.23703 0.51263-0.23703-0.09922 0.55122-0.19293 1.0625-0.28112 1.5324-0.10335 0.54846-0.25356 0.93983-0.452 1.1741h0.46854c0.0041 0 0.05374-0.0579 0.15158-0.17639 0.09784-0.11712 0.19706-0.44923 0.30042-0.99769l0.28663-1.5324h0.93707l-0.28112 1.5324c-0.14745 0.78271 0.01517 1.1741 0.48507 1.1741 0.23564 0 0.4203-0.15572 0.55673-0.46853-0.51401 0.23566-0.70556 0-0.57326-0.70555"/>
  <g id="g25413" transform="matrix(.35278 0 0 .35278 8.0433 -606.72)">
   <g id="use25411" transform="translate(219.64 2160.6)">
    <path id="path30066" d="m1.0469 0 1.5625-8.2969h1.2656l-0.23438 1.25c0.42578-0.58203 0.78906-0.96875 1.0938-1.1562 0.3125-0.1875 0.63281-0.28125 0.96875-0.28125 0.46875 0 0.91406 0.15234 1.3438 0.45312l-0.71875 1.2969c-0.3125-0.19531-0.64062-0.29688-0.98438-0.29688-0.30469 0-0.59375 0.09375-0.875 0.28125-0.27344 0.17969-0.49219 0.43359-0.65625 0.76562-0.25 0.5-0.43359 1.0469-0.54688 1.6406l-0.8125 4.3438z"/>
   </g>
  </g>
 </g>
</svg>
