<svg id="svg96500" version="1.1" viewBox="0 0 105.14 105.23" xmlns="http://www.w3.org/2000/svg">
 <title id="title99326">img_52</title>
 <defs id="defs96494">
  <clipPath id="clipPath72066">
   <path id="path72064" d="M 0,6239.3 H 1117.24 V 0 H 0 Z"/>
  </clipPath>
  <clipPath id="clipPath72090">
   <path id="path72088" d="m227.77 3753.8h265.46v-265.46h-265.46z"/>
  </clipPath>
 </defs>
 <g id="layer1" transform="translate(-41.758 -132.32)">
  <g id="g72062" transform="matrix(.35278 0 0 -.35278 -33.332 1462.9)" clip-path="url(#clipPath72066)">
   <g id="g72256">
    <g id="g72254" clip-path="url(#clipPath72090)" opacity=".39999">
     <path id="path72092" d="m227.89 3753.7h265.21v-265.21h-265.21z" style="fill:none;stroke-miterlimit:10;stroke-width:.25;stroke:#1d1d1b"/>
     <g id="g72096" transform="translate(227.89 3501.7)">
      <path id="path72094" d="m0 0h265.21" style="fill:none;stroke-miterlimit:10;stroke-width:.25;stroke:#1d1d1b"/>
     </g>
     <g id="g72100" transform="translate(227.89 3515)">
      <path id="path72098" d="m0 0h265.21" style="fill:none;stroke-miterlimit:10;stroke-width:.25;stroke:#1d1d1b"/>
     </g>
     <g id="g72104" transform="translate(227.89 3528.2)">
      <path id="path72102" d="m0 0h265.21" style="fill:none;stroke-miterlimit:10;stroke-width:.25;stroke:#1d1d1b"/>
     </g>
     <g id="g72108" transform="translate(227.89 3541.5)">
      <path id="path72106" d="m0 0h265.21" style="fill:none;stroke-miterlimit:10;stroke-width:.25;stroke:#1d1d1b"/>
     </g>
     <g id="g72112" transform="translate(227.89 3554.8)">
      <path id="path72110" d="m0 0h265.21" style="fill:none;stroke-miterlimit:10;stroke-width:.25;stroke:#1d1d1b"/>
     </g>
     <g id="g72116" transform="translate(227.89 3568)">
      <path id="path72114" d="m0 0h265.21" style="fill:none;stroke-miterlimit:10;stroke-width:.25;stroke:#1d1d1b"/>
     </g>
     <g id="g72120" transform="translate(227.89 3581.3)">
      <path id="path72118" d="m0 0h265.21" style="fill:none;stroke-miterlimit:10;stroke-width:.25;stroke:#1d1d1b"/>
     </g>
     <g id="g72124" transform="translate(227.89 3594.6)">
      <path id="path72122" d="m0 0h265.21" style="fill:none;stroke-miterlimit:10;stroke-width:.25;stroke:#1d1d1b"/>
     </g>
     <g id="g72128" transform="translate(227.89 3607.8)">
      <path id="path72126" d="m0 0h265.21" style="fill:none;stroke-miterlimit:10;stroke-width:.25;stroke:#1d1d1b"/>
     </g>
     <g id="g72132" transform="translate(227.89 3621.1)">
      <path id="path72130" d="m0 0h265.21" style="fill:none;stroke-miterlimit:10;stroke-width:.25;stroke:#1d1d1b"/>
     </g>
     <g id="g72136" transform="translate(227.89 3634.3)">
      <path id="path72134" d="m0 0h265.21" style="fill:none;stroke-miterlimit:10;stroke-width:.25;stroke:#1d1d1b"/>
     </g>
     <g id="g72140" transform="translate(227.89 3647.6)">
      <path id="path72138" d="m0 0h265.21" style="fill:none;stroke-miterlimit:10;stroke-width:.25;stroke:#1d1d1b"/>
     </g>
     <g id="g72144" transform="translate(227.89 3660.8)">
      <path id="path72142" d="m0 0h265.21" style="fill:none;stroke-miterlimit:10;stroke-width:.25;stroke:#1d1d1b"/>
     </g>
     <g id="g72148" transform="translate(227.89 3674.1)">
      <path id="path72146" d="m0 0h265.21" style="fill:none;stroke-miterlimit:10;stroke-width:.25;stroke:#1d1d1b"/>
     </g>
     <g id="g72152" transform="translate(227.89 3687.4)">
      <path id="path72150" d="m0 0h265.21" style="fill:none;stroke-miterlimit:10;stroke-width:.25;stroke:#1d1d1b"/>
     </g>
     <g id="g72156" transform="translate(227.89 3700.6)">
      <path id="path72154" d="m0 0h265.21" style="fill:none;stroke-miterlimit:10;stroke-width:.25;stroke:#1d1d1b"/>
     </g>
     <g id="g72160" transform="translate(227.89 3713.9)">
      <path id="path72158" d="m0 0h265.21" style="fill:none;stroke-miterlimit:10;stroke-width:.25;stroke:#1d1d1b"/>
     </g>
     <g id="g72164" transform="translate(227.89 3727.2)">
      <path id="path72162" d="m0 0h265.21" style="fill:none;stroke-miterlimit:10;stroke-width:.25;stroke:#1d1d1b"/>
     </g>
     <g id="g72168" transform="translate(227.89 3740.4)">
      <path id="path72166" d="m0 0h265.21" style="fill:none;stroke-miterlimit:10;stroke-width:.25;stroke:#1d1d1b"/>
     </g>
     <g id="g72172" transform="translate(481.04 3753.7)">
      <path id="path72170" d="m0 0v-265.21" style="fill:none;stroke-miterlimit:10;stroke-width:.25;stroke:#1d1d1b"/>
     </g>
     <g id="g72176" transform="translate(468.99 3753.7)">
      <path id="path72174" d="m0 0v-265.21" style="fill:none;stroke-miterlimit:10;stroke-width:.25;stroke:#1d1d1b"/>
     </g>
     <g id="g72180" transform="translate(456.93 3753.7)">
      <path id="path72178" d="m0 0v-265.21" style="fill:none;stroke-miterlimit:10;stroke-width:.25;stroke:#1d1d1b"/>
     </g>
     <g id="g72184" transform="translate(444.88 3753.7)">
      <path id="path72182" d="m0 0v-265.21" style="fill:none;stroke-miterlimit:10;stroke-width:.25;stroke:#1d1d1b"/>
     </g>
     <g id="g72188" transform="translate(432.82 3753.7)">
      <path id="path72186" d="m0 0v-265.21" style="fill:none;stroke-miterlimit:10;stroke-width:.25;stroke:#1d1d1b"/>
     </g>
     <g id="g72192" transform="translate(420.77 3753.7)">
      <path id="path72190" d="m0 0v-265.21" style="fill:none;stroke-miterlimit:10;stroke-width:.25;stroke:#1d1d1b"/>
     </g>
     <g id="g72196" transform="translate(408.71 3753.7)">
      <path id="path72194" d="m0 0v-265.21" style="fill:none;stroke-miterlimit:10;stroke-width:.25;stroke:#1d1d1b"/>
     </g>
     <g id="g72200" transform="translate(396.66 3753.7)">
      <path id="path72198" d="m0 0v-265.21" style="fill:none;stroke-miterlimit:10;stroke-width:.25;stroke:#1d1d1b"/>
     </g>
     <g id="g72204" transform="translate(384.6 3753.7)">
      <path id="path72202" d="m0 0v-265.21" style="fill:none;stroke-miterlimit:10;stroke-width:.25;stroke:#1d1d1b"/>
     </g>
     <g id="g72208" transform="translate(372.55 3753.7)">
      <path id="path72206" d="m0 0v-265.21" style="fill:none;stroke-miterlimit:10;stroke-width:.25;stroke:#1d1d1b"/>
     </g>
     <g id="g72212" transform="translate(360.5 3753.7)">
      <path id="path72210" d="m0 0v-265.21" style="fill:none;stroke-miterlimit:10;stroke-width:.25;stroke:#1d1d1b"/>
     </g>
     <g id="g72216" transform="translate(348.44 3753.7)">
      <path id="path72214" d="m0 0v-265.21" style="fill:none;stroke-miterlimit:10;stroke-width:.25;stroke:#1d1d1b"/>
     </g>
     <g id="g72220" transform="translate(336.38 3753.7)">
      <path id="path72218" d="m0 0v-265.21" style="fill:none;stroke-miterlimit:10;stroke-width:.25;stroke:#1d1d1b"/>
     </g>
     <g id="g72224" transform="translate(324.33 3753.7)">
      <path id="path72222" d="m0 0v-265.21" style="fill:none;stroke-miterlimit:10;stroke-width:.25;stroke:#1d1d1b"/>
     </g>
     <g id="g72228" transform="translate(312.28 3753.7)">
      <path id="path72226" d="m0 0v-265.21" style="fill:none;stroke-miterlimit:10;stroke-width:.25;stroke:#1d1d1b"/>
     </g>
     <g id="g72232" transform="translate(300.22 3753.7)">
      <path id="path72230" d="m0 0v-265.21" style="fill:none;stroke-miterlimit:10;stroke-width:.25;stroke:#1d1d1b"/>
     </g>
     <g id="g72236" transform="translate(288.17 3753.7)">
      <path id="path72234" d="m0 0v-265.21" style="fill:none;stroke-miterlimit:10;stroke-width:.25;stroke:#1d1d1b"/>
     </g>
     <g id="g72240" transform="translate(276.11 3753.7)">
      <path id="path72238" d="m0 0v-265.21" style="fill:none;stroke-miterlimit:10;stroke-width:.25;stroke:#1d1d1b"/>
     </g>
     <g id="g72244" transform="translate(264.06 3753.7)">
      <path id="path72242" d="m0 0v-265.21" style="fill:none;stroke-miterlimit:10;stroke-width:.25;stroke:#1d1d1b"/>
     </g>
     <g id="g72248" transform="translate(252 3753.7)">
      <path id="path72246" d="m0 0v-265.21" style="fill:none;stroke-miterlimit:10;stroke-width:.25;stroke:#1d1d1b"/>
     </g>
     <g id="g72252" transform="translate(239.95 3753.7)">
      <path id="path72250" d="m0 0v-265.21" style="fill:none;stroke-miterlimit:10;stroke-width:.25;stroke:#1d1d1b"/>
     </g>
    </g>
   </g>
   <g id="use88547" transform="matrix(1 0 0 -1 429.63 3573.8)">
    <path id="path93232" d="m2.5938-1.3594-1.2031 1.3594h-1.5938l2.2344-2.4844-1.2344-2.3594h1.3906l0.70312 1.3906 1.2344-1.3906h1.5938l-2.25 2.5156 1.2188 2.3281h-1.3906z"/>
   </g>
   <g id="use88551" transform="matrix(1 0 0 -1 434.86 3573.8)">
    <path id="path93236" d="m0.4375-2 0.17188-0.82812h2.5156l-0.17188 0.82812z"/>
   </g>
   <g id="use88553" transform="matrix(1 0 0 -1 438.01 3573.8)">
    <path id="path93240" d="m3.5781-0.59375c-0.29297 0.24219-0.57422 0.41797-0.84375 0.53125-0.26172 0.11328-0.53906 0.17188-0.82812 0.17188-0.44922 0-0.8125-0.12891-1.0938-0.39062-0.27344-0.25781-0.40625-0.59766-0.40625-1.0156 0-0.26953 0.0625-0.50781 0.1875-0.71875 0.125-0.20703 0.28516-0.375 0.48438-0.5 0.20703-0.125 0.45703-0.21094 0.75-0.26562 0.1875-0.039063 0.53516-0.070313 1.0469-0.09375 0.51953-0.019531 0.89453-0.070313 1.125-0.15625 0.0625-0.22656 0.09375-0.41406 0.09375-0.5625 0-0.1875-0.070312-0.33594-0.20312-0.45312-0.19922-0.14453-0.48047-0.21875-0.84375-0.21875-0.34375 0-0.625 0.078125-0.84375 0.23438-0.21875 0.14844-0.38281 0.35938-0.48438 0.64062l-0.82812-0.078125c0.16406-0.47656 0.42969-0.84375 0.79688-1.0938 0.375-0.25781 0.84375-0.39062 1.4062-0.39062 0.59375 0 1.0664 0.14844 1.4219 0.4375 0.25781 0.21094 0.39062 0.48438 0.39062 0.82812 0 0.26172-0.039062 0.55859-0.10938 0.89062l-0.26562 1.2031c-0.085937 0.38672-0.125 0.69922-0.125 0.9375 0 0.15625 0.03125 0.375 0.09375 0.65625h-0.82812c-0.054687-0.15625-0.085937-0.35156-0.09375-0.59375zm0.29688-1.8594c-0.11719 0.054687-0.24219 0.089844-0.375 0.10938-0.125 0.023437-0.34375 0.046875-0.65625 0.078125-0.48047 0.042969-0.82031 0.09375-1.0156 0.15625-0.19922 0.0625-0.35156 0.16797-0.45312 0.3125-0.09375 0.14844-0.14062 0.30469-0.14062 0.46875 0 0.24219 0.078125 0.43359 0.23438 0.57812 0.15625 0.14844 0.38281 0.21875 0.6875 0.21875 0.26953 0 0.53125-0.070313 0.78125-0.21875 0.25-0.14453 0.44531-0.34375 0.59375-0.59375 0.14453-0.25781 0.25781-0.62891 0.34375-1.1094z"/>
   </g>
   <g id="use88555" transform="matrix(1 0 0 -1 443.25 3573.8)">
    <path id="path93244" d="m-0.015625 0 2.1094-2.4531-1.2031-2.3906h0.90625l0.40625 0.875c0.15625 0.3125 0.28906 0.62109 0.40625 0.92188l1.4062-1.7969h1l-2.0312 2.4531 1.2188 2.3906h-0.90625l-0.48438-0.98438c-0.10547-0.20703-0.22656-0.46875-0.35938-0.78125l-1.4375 1.7656z"/>
   </g>
   <g id="use88557" transform="matrix(1 0 0 -1 447.96 3573.8)">
    <path id="path93248" d="m1.4844-5.75 0.1875-0.92188h0.82812l-0.20312 0.92188zm-1.2031 5.75 1-4.8438h0.82812l-1 4.8438z"/>
   </g>
   <g id="use88559" transform="matrix(1 0 0 -1 450.08 3573.8)">
    <path id="path93252" d="m0.39062-1.6562 0.82812-0.046875c0 0.24219 0.035156 0.44531 0.10938 0.60938 0.070313 0.16797 0.20312 0.30469 0.39062 0.40625 0.19531 0.10547 0.42578 0.15625 0.6875 0.15625 0.36328 0 0.63281-0.070313 0.8125-0.21875 0.1875-0.14453 0.28125-0.31641 0.28125-0.51562 0-0.13281-0.054687-0.26953-0.15625-0.40625-0.11719-0.125-0.39062-0.28125-0.82812-0.46875s-0.71484-0.31641-0.82812-0.39062c-0.21094-0.125-0.36719-0.26953-0.46875-0.4375-0.10547-0.16406-0.15625-0.35938-0.15625-0.57812 0-0.38281 0.14844-0.71094 0.45312-0.98438 0.3125-0.28125 0.73828-0.42188 1.2812-0.42188 0.60156 0 1.0625 0.14062 1.375 0.42188 0.32031 0.28125 0.48828 0.65234 0.5 1.1094l-0.79688 0.0625c-0.011719-0.28906-0.11719-0.51953-0.3125-0.6875-0.19922-0.17578-0.47656-0.26562-0.82812-0.26562-0.28125 0-0.50781 0.070312-0.67188 0.20312-0.15625 0.125-0.23438 0.26562-0.23438 0.42188 0 0.14844 0.070313 0.28125 0.21875 0.40625 0.082031 0.074219 0.31641 0.19531 0.70312 0.35938 0.625 0.27344 1.0195 0.48438 1.1875 0.64062 0.25781 0.25 0.39062 0.55859 0.39062 0.92188 0 0.24219-0.074219 0.47656-0.21875 0.70312-0.14844 0.23047-0.37109 0.41797-0.67188 0.5625-0.30469 0.13281-0.65625 0.20312-1.0625 0.20312-0.5625 0-1.043-0.14062-1.4375-0.42188-0.38672-0.26953-0.57031-0.71875-0.54688-1.3438z"/>
   </g>
   <g id="use88563" transform="matrix(1 0 0 -1 411.34 3705)">
    <path id="path93256" d="m0.78125-4.8438h1.2969l0.32812 2.4219c0.082031 0.61719 0.12891 1.0469 0.14062 1.2969 0.16406-0.5 0.39844-1.0195 0.70312-1.5625l1.1562-2.1562h1.3906l-3 5.3125c-0.24219 0.44531-0.43359 0.75391-0.57812 0.92188-0.13672 0.17578-0.30859 0.31641-0.51562 0.42188-0.19922 0.10156-0.43359 0.15625-0.70312 0.15625-0.28125 0-0.59375-0.054687-0.9375-0.15625l0.10938-0.96875c0.15625 0.039063 0.3125 0.0625 0.46875 0.0625 0.39453 0 0.72266-0.30469 0.98438-0.90625z"/>
   </g>
   <g id="use88567" transform="matrix(1 0 0 -1 416.57 3705)">
    <path id="path93260" d="m0.4375-2 0.17188-0.82812h2.5156l-0.17188 0.82812z"/>
   </g>
   <g id="use88569" transform="matrix(1 0 0 -1 419.73 3705)">
    <path id="path93264" d="m3.5781-0.59375c-0.29297 0.24219-0.57422 0.41797-0.84375 0.53125-0.26172 0.11328-0.53906 0.17188-0.82812 0.17188-0.44922 0-0.8125-0.12891-1.0938-0.39062-0.27344-0.25781-0.40625-0.59766-0.40625-1.0156 0-0.26953 0.0625-0.50781 0.1875-0.71875 0.125-0.20703 0.28516-0.375 0.48438-0.5 0.20703-0.125 0.45703-0.21094 0.75-0.26562 0.1875-0.039063 0.53516-0.070313 1.0469-0.09375 0.51953-0.019531 0.89453-0.070313 1.125-0.15625 0.0625-0.22656 0.09375-0.41406 0.09375-0.5625 0-0.1875-0.070312-0.33594-0.20312-0.45312-0.19922-0.14453-0.48047-0.21875-0.84375-0.21875-0.34375 0-0.625 0.078125-0.84375 0.23438-0.21875 0.14844-0.38281 0.35938-0.48438 0.64062l-0.82812-0.078125c0.16406-0.47656 0.42969-0.84375 0.79688-1.0938 0.375-0.25781 0.84375-0.39062 1.4062-0.39062 0.59375 0 1.0664 0.14844 1.4219 0.4375 0.25781 0.21094 0.39062 0.48438 0.39062 0.82812 0 0.26172-0.039062 0.55859-0.10938 0.89062l-0.26562 1.2031c-0.085937 0.38672-0.125 0.69922-0.125 0.9375 0 0.15625 0.03125 0.375 0.09375 0.65625h-0.82812c-0.054687-0.15625-0.085937-0.35156-0.09375-0.59375zm0.29688-1.8594c-0.11719 0.054687-0.24219 0.089844-0.375 0.10938-0.125 0.023437-0.34375 0.046875-0.65625 0.078125-0.48047 0.042969-0.82031 0.09375-1.0156 0.15625-0.19922 0.0625-0.35156 0.16797-0.45312 0.3125-0.09375 0.14844-0.14062 0.30469-0.14062 0.46875 0 0.24219 0.078125 0.43359 0.23438 0.57812 0.15625 0.14844 0.38281 0.21875 0.6875 0.21875 0.26953 0 0.53125-0.070313 0.78125-0.21875 0.25-0.14453 0.44531-0.34375 0.59375-0.59375 0.14453-0.25781 0.25781-0.62891 0.34375-1.1094z"/>
   </g>
   <g id="use88571" transform="matrix(1 0 0 -1 424.96 3705)">
    <path id="path93268" d="m-0.015625 0 2.1094-2.4531-1.2031-2.3906h0.90625l0.40625 0.875c0.15625 0.3125 0.28906 0.62109 0.40625 0.92188l1.4062-1.7969h1l-2.0312 2.4531 1.2188 2.3906h-0.90625l-0.48438-0.98438c-0.10547-0.20703-0.22656-0.46875-0.35938-0.78125l-1.4375 1.7656z"/>
   </g>
   <g id="use88573" transform="matrix(1 0 0 -1 429.67 3705)">
    <path id="path93272" d="m1.4844-5.75 0.1875-0.92188h0.82812l-0.20312 0.92188zm-1.2031 5.75 1-4.8438h0.82812l-1 4.8438z"/>
   </g>
   <g id="use88575" transform="matrix(1 0 0 -1 431.79 3705)">
    <path id="path93276" d="m0.39062-1.6562 0.82812-0.046875c0 0.24219 0.035156 0.44531 0.10938 0.60938 0.070313 0.16797 0.20312 0.30469 0.39062 0.40625 0.19531 0.10547 0.42578 0.15625 0.6875 0.15625 0.36328 0 0.63281-0.070313 0.8125-0.21875 0.1875-0.14453 0.28125-0.31641 0.28125-0.51562 0-0.13281-0.054687-0.26953-0.15625-0.40625-0.11719-0.125-0.39062-0.28125-0.82812-0.46875s-0.71484-0.31641-0.82812-0.39062c-0.21094-0.125-0.36719-0.26953-0.46875-0.4375-0.10547-0.16406-0.15625-0.35938-0.15625-0.57812 0-0.38281 0.14844-0.71094 0.45312-0.98438 0.3125-0.28125 0.73828-0.42188 1.2812-0.42188 0.60156 0 1.0625 0.14062 1.375 0.42188 0.32031 0.28125 0.48828 0.65234 0.5 1.1094l-0.79688 0.0625c-0.011719-0.28906-0.11719-0.51953-0.3125-0.6875-0.19922-0.17578-0.47656-0.26562-0.82812-0.26562-0.28125 0-0.50781 0.070312-0.67188 0.20312-0.15625 0.125-0.23438 0.26562-0.23438 0.42188 0 0.14844 0.070313 0.28125 0.21875 0.40625 0.082031 0.074219 0.31641 0.19531 0.70312 0.35938 0.625 0.27344 1.0195 0.48438 1.1875 0.64062 0.25781 0.25 0.39062 0.55859 0.39062 0.92188 0 0.24219-0.074219 0.47656-0.21875 0.70312-0.14844 0.23047-0.37109 0.41797-0.67188 0.5625-0.30469 0.13281-0.65625 0.20312-1.0625 0.20312-0.5625 0-1.043-0.14062-1.4375-0.42188-0.38672-0.26953-0.57031-0.71875-0.54688-1.3438z"/>
   </g>
   <path id="path88579" d="m360.46 3763v-282.88" style="fill:none;stroke-miterlimit:10;stroke-width:1.1;stroke:#1c1c19"/>
   <path id="path88581" d="m360.46 3769.6c-1.1601-3.125-3.1406-7-5.2344-9.4063l5.2344 1.8945 5.2305-1.8945c-2.0938 2.4063-4.0742 6.2813-5.2305 9.4063" style="fill:#1c1c19"/>
   <path id="path88583" d="m360.46 3473.5c-1.1601 3.125-3.1406 7.0039-5.2344 9.4063l5.2344-1.8907 5.2305 1.8907c-2.0938-2.4024-4.0742-6.2813-5.2305-9.4063" style="fill:#1c1c19"/>
   <path id="path88585" d="m504.24 3621.2h-284.75" style="fill:none;stroke-miterlimit:10;stroke-width:1.1;stroke:#1c1c19"/>
   <path id="path88587" d="m510.88 3621.2c-3.125 1.1601-7 3.1367-9.4062 5.2343l1.8945-5.2343-1.8945-5.2305c2.4062 2.0938 6.2812 4.0742 9.4062 5.2305" style="fill:#1c1c19"/>
   <path id="path88589" d="m212.85 3621.2c3.125 1.1601 7.0039 3.1367 9.4063 5.2343l-1.8945-5.2343 1.8945-5.2305c-2.4024 2.0938-6.2813 4.0742-9.4063 5.2305" style="fill:#1c1c19"/>
   <path id="path88591" d="m372.51 3623.5v-4.8047" style="fill:none;stroke-miterlimit:10;stroke-width:1.194;stroke:#1c1c19"/>
   <path id="path88593" d="m384.57 3623.5v-4.8047" style="fill:none;stroke-miterlimit:10;stroke-width:1.194;stroke:#1c1c19"/>
   <path id="path88595" d="m396.62 3623.5v-4.8047" style="fill:none;stroke-miterlimit:10;stroke-width:1.194;stroke:#1c1c19"/>
   <path id="path88597" d="m408.68 3623.5v-4.8047" style="fill:none;stroke-miterlimit:10;stroke-width:1.194;stroke:#1c1c19"/>
   <path id="path88599" d="m420.73 3623.5v-4.8047" style="fill:none;stroke-miterlimit:10;stroke-width:1.194;stroke:#1c1c19"/>
   <path id="path88601" d="m432.79 3623.5v-4.8047" style="fill:none;stroke-miterlimit:10;stroke-width:1.194;stroke:#1c1c19"/>
   <path id="path88603" d="m444.84 3623.5v-4.8047" style="fill:none;stroke-miterlimit:10;stroke-width:1.194;stroke:#1c1c19"/>
   <path id="path88605" d="m456.9 3623.5v-4.8047" style="fill:none;stroke-miterlimit:10;stroke-width:1.194;stroke:#1c1c19"/>
   <path id="path88607" d="m468.95 3623.5v-4.8047" style="fill:none;stroke-miterlimit:10;stroke-width:1.194;stroke:#1c1c19"/>
   <path id="path88609" d="m481.01 3623.5v-4.8047" style="fill:none;stroke-miterlimit:10;stroke-width:1.194;stroke:#1c1c19"/>
   <path id="path88611" d="m493.06 3623.5v-4.8047" style="fill:none;stroke-miterlimit:10;stroke-width:1.194;stroke:#1c1c19"/>
   <path id="path88613" d="m288.22 3623.6v-4.8047" style="fill:none;stroke-miterlimit:10;stroke-width:1.194;stroke:#1c1c19"/>
   <path id="path88615" d="m300.19 3623.5v-4.8047" style="fill:none;stroke-miterlimit:10;stroke-width:1.194;stroke:#1c1c19"/>
   <path id="path88617" d="m276.07 3623.6v-4.8047" style="fill:none;stroke-miterlimit:10;stroke-width:1.194;stroke:#1c1c19"/>
   <path id="path88619" d="m264.02 3623.7v-4.8047" style="fill:none;stroke-miterlimit:10;stroke-width:1.194;stroke:#1c1c19"/>
   <path id="path88621" d="m251.96 3623.5v-4.8047" style="fill:none;stroke-miterlimit:10;stroke-width:1.194;stroke:#1c1c19"/>
   <path id="path88623" d="m239.91 3623.5v-4.8047" style="fill:none;stroke-miterlimit:10;stroke-width:1.194;stroke:#1c1c19"/>
   <path id="path88625" d="m227.85 3623.5v-4.8047" style="fill:none;stroke-miterlimit:10;stroke-width:1.194;stroke:#1c1c19"/>
   <path id="path88627" d="m312.24 3623.6v-4.8046" style="fill:none;stroke-miterlimit:10;stroke-width:1.194;stroke:#1c1c19"/>
   <path id="path88629" d="m324.29 3623.5v-4.8047" style="fill:none;stroke-miterlimit:10;stroke-width:1.194;stroke:#1c1c19"/>
   <path id="path88631" d="m336.35 3623.7v-4.8047" style="fill:none;stroke-miterlimit:10;stroke-width:1.194;stroke:#1c1c19"/>
   <path id="path88633" d="m348.4 3623.6v-4.8046" style="fill:none;stroke-miterlimit:10;stroke-width:1.194;stroke:#1c1c19"/>
   <path id="path88635" d="m358.06 3634.5h4.8047" style="fill:none;stroke-miterlimit:10;stroke-width:1.194;stroke:#1c1c19"/>
   <path id="path88637" d="m358.06 3647.6h4.8047" style="fill:none;stroke-miterlimit:10;stroke-width:1.194;stroke:#1c1c19"/>
   <path id="path88639" d="m358.06 3660.9h4.8047" style="fill:none;stroke-miterlimit:10;stroke-width:1.194;stroke:#1c1c19"/>
   <path id="path88641" d="m358.19 3674.2h4.8047" style="fill:none;stroke-miterlimit:10;stroke-width:1.194;stroke:#1c1c19"/>
   <path id="path88643" d="m358.12 3687.4h4.8047" style="fill:none;stroke-miterlimit:10;stroke-width:1.194;stroke:#1c1c19"/>
   <path id="path88645" d="m358.12 3700.7h4.8047" style="fill:none;stroke-miterlimit:10;stroke-width:1.194;stroke:#1c1c19"/>
   <path id="path88647" d="m358.12 3713.9h4.8047" style="fill:none;stroke-miterlimit:10;stroke-width:1.194;stroke:#1c1c19"/>
   <path id="path88649" d="m358.12 3727.2h4.8047" style="fill:none;stroke-miterlimit:10;stroke-width:1.194;stroke:#1c1c19"/>
   <path id="path88651" d="m358.12 3740.5h4.8047" style="fill:none;stroke-miterlimit:10;stroke-width:1.194;stroke:#1c1c19"/>
   <path id="path88653" d="m358.12 3753.7h4.8047" style="fill:none;stroke-miterlimit:10;stroke-width:1.194;stroke:#1c1c19"/>
   <path id="path88655" d="m358.06 3554.8h4.8047" style="fill:none;stroke-miterlimit:10;stroke-width:1.194;stroke:#1c1c19"/>
   <path id="path88657" d="m358.06 3541.6h4.8047" style="fill:none;stroke-miterlimit:10;stroke-width:1.194;stroke:#1c1c19"/>
   <path id="path88659" d="m358.06 3528.3h4.8047" style="fill:none;stroke-miterlimit:10;stroke-width:1.194;stroke:#1c1c19"/>
   <path id="path88661" d="m358.06 3515h4.8047" style="fill:none;stroke-miterlimit:10;stroke-width:1.194;stroke:#1c1c19"/>
   <path id="path88663" d="m358.06 3501.8h4.8047" style="fill:none;stroke-miterlimit:10;stroke-width:1.194;stroke:#1c1c19"/>
   <path id="path88665" d="m358.06 3488.5h4.8047" style="fill:none;stroke-miterlimit:10;stroke-width:1.194;stroke:#1c1c19"/>
   <path id="path88667" d="m358.06 3568.1h4.8047" style="fill:none;stroke-miterlimit:10;stroke-width:1.194;stroke:#1c1c19"/>
   <path id="path88669" d="m358.06 3581.3h4.8047" style="fill:none;stroke-miterlimit:10;stroke-width:1.194;stroke:#1c1c19"/>
   <path id="path88671" d="m358.06 3594.6h4.8047" style="fill:none;stroke-miterlimit:10;stroke-width:1.194;stroke:#1c1c19"/>
   <path id="path88673" d="m358.06 3607.9h4.8047" style="fill:none;stroke-miterlimit:10;stroke-width:1.194;stroke:#1c1c19"/>
   <g id="use88675" transform="matrix(1 0 0 -1 367.44 3767.5)" style="fill:#1c1c19">
    <path id="path93280" d="m0.078125-4.2188 1.5625 3.8906c0.03125 0.09375 0.046875 0.15625 0.046875 0.20312 0 0.03125-0.03125 0.09375-0.0625 0.17188-0.17188 0.39062-0.4375 0.6875-0.64062 0.85938-0.23438 0.1875-0.48438 0.3125-0.67188 0.375l0.1875 0.64062c0.20312-0.03125 0.57812-0.15625 0.9375-0.5 0.53125-0.45312 0.90625-1.1875 1.4531-2.625l1.1406-3.0156h-0.79688l-0.84375 2.4844c-0.10938 0.29688-0.1875 0.625-0.26562 0.875h-0.015625c-0.078125-0.25-0.17188-0.57812-0.26562-0.85938l-0.9375-2.5z"/>
   </g>
   <g id="use88679" transform="matrix(1 0 0 -1 503.52 3628.9)" style="fill:#1c1c19">
    <path id="path93284" d="m0.14062-4.2188 1.4219 2.0625-1.5 2.1562h0.84375l0.60938-0.95312c0.17188-0.25 0.3125-0.46875 0.45312-0.73438h0.015625c0.14062 0.26562 0.28125 0.5 0.45312 0.73438l0.625 0.95312h0.85938l-1.4688-2.1719 1.4219-2.0469h-0.8125l-0.59375 0.90625c-0.14062 0.21875-0.28125 0.4375-0.42188 0.6875h-0.03125c-0.14062-0.23438-0.26562-0.45312-0.42188-0.6875l-0.60938-0.90625z"/>
   </g>
   <g id="use88683" transform="matrix(1 0 0 -1 353.48 3613)">
    <path id="path93288" d="m2.2812-5.75c-1.1562 0-1.9688 1.0469-1.9688 2.9375 0.015625 1.875 0.76562 2.9062 1.875 2.9062 1.25 0 1.9688-1.0625 1.9688-2.9844 0-1.7969-0.6875-2.8594-1.875-2.8594zm-0.046875 0.59375c0.79688 0 1.1562 0.90625 1.1562 2.2969 0 1.4531-0.375 2.3594-1.1562 2.3594-0.70312 0-1.1562-0.82812-1.1562-2.2969 0-1.5469 0.48438-2.3594 1.1562-2.3594z"/>
   </g>
   <g id="use88687" transform="matrix(1 0 0 -1 419.12 3609.7)" style="fill:#1c1c19">
    <path id="path93292" d="m3.7656-5.6562h-2.7031l-0.35938 2.7188c0.20312-0.03125 0.45312-0.0625 0.78125-0.0625 1.125 0 1.6094 0.51562 1.625 1.25 0 0.76562-0.625 1.2344-1.3438 1.2344-0.51562 0-0.96875-0.1875-1.2031-0.3125l-0.20312 0.57812c0.28125 0.17188 0.79688 0.34375 1.4219 0.34375 1.2188 0 2.0938-0.82812 2.0938-1.9375 0-0.70312-0.35938-1.1875-0.79688-1.4531-0.35938-0.20312-0.79688-0.29688-1.2188-0.29688-0.21875 0-0.34375 0.015625-0.46875 0.03125l0.21875-1.4531h2.1562z"/>
   </g>
   <g id="use88691" transform="matrix(1 0 0 -1 490.99 3609.7)" style="fill:#1c1c19">
    <path id="path93296" d="m2.0469 0h0.75v-5.6562h-0.65625l-1.2344 0.65625 0.14062 0.59375 0.98438-0.53125h0.015625z"/>
   </g>
   <g id="use88693" transform="matrix(1 0 0 -1 495.49 3609.7)" style="fill:#1c1c19">
    <path id="path93300" d="m2.2812-5.75c-1.1562 0-1.9688 1.0469-1.9688 2.9375 0.015625 1.875 0.76562 2.9062 1.875 2.9062 1.25 0 1.9688-1.0625 1.9688-2.9844 0-1.7969-0.6875-2.8594-1.875-2.8594zm-0.046875 0.59375c0.79688 0 1.1562 0.90625 1.1562 2.2969 0 1.4531-0.375 2.3594-1.1562 2.3594-0.70312 0-1.1562-0.82812-1.1562-2.2969 0-1.5469 0.48438-2.3594 1.1562-2.3594z"/>
   </g>
   <g id="use88697" transform="matrix(1 0 0 -1 346.03 3751.6)" style="fill:#1c1c19">
    <path id="path93304" d="m2.0469 0h0.75v-5.6562h-0.65625l-1.2344 0.65625 0.14062 0.59375 0.98438-0.53125h0.015625z"/>
   </g>
   <g id="use88699" transform="matrix(1 0 0 -1 350.54 3751.6)" style="fill:#1c1c19">
    <path id="path93308" d="m2.2812-5.75c-1.1562 0-1.9688 1.0469-1.9688 2.9375 0.015625 1.875 0.76562 2.9062 1.875 2.9062 1.25 0 1.9688-1.0625 1.9688-2.9844 0-1.7969-0.6875-2.8594-1.875-2.8594zm-0.046875 0.59375c0.79688 0 1.1562 0.90625 1.1562 2.2969 0 1.4531-0.375 2.3594-1.1562 2.3594-0.70312 0-1.1562-0.82812-1.1562-2.2969 0-1.5469 0.48438-2.3594 1.1562-2.3594z"/>
   </g>
   <g id="use88703" transform="matrix(1 0 0 -1 348.97 3685.3)" style="fill:#1c1c19">
    <path id="path93312" d="m3.7656-5.6562h-2.7031l-0.35938 2.7188c0.20312-0.03125 0.45312-0.0625 0.78125-0.0625 1.125 0 1.6094 0.51562 1.625 1.25 0 0.76562-0.625 1.2344-1.3438 1.2344-0.51562 0-0.96875-0.1875-1.2031-0.3125l-0.20312 0.57812c0.28125 0.17188 0.79688 0.34375 1.4219 0.34375 1.2188 0 2.0938-0.82812 2.0938-1.9375 0-0.70312-0.35938-1.1875-0.79688-1.4531-0.35938-0.20312-0.79688-0.29688-1.2188-0.29688-0.21875 0-0.34375 0.015625-0.46875 0.03125l0.21875-1.4531h2.1562z"/>
   </g>
   <g id="use88707" transform="matrix(1 0 0 -1 346.95 3552.3)" style="fill:#1c1c19">
    <path id="path93316" d="m0.26562-2.6406v0.5625h2.1406v-0.5625z"/>
   </g>
   <g id="use88709" transform="matrix(1 0 0 -1 349.66 3552.3)" style="fill:#1c1c19">
    <path id="path93320" d="m3.7656-5.6562h-2.7031l-0.35938 2.7188c0.20312-0.03125 0.45312-0.0625 0.78125-0.0625 1.125 0 1.6094 0.51562 1.625 1.25 0 0.76562-0.625 1.2344-1.3438 1.2344-0.51562 0-0.96875-0.1875-1.2031-0.3125l-0.20312 0.57812c0.28125 0.17188 0.79688 0.34375 1.4219 0.34375 1.2188 0 2.0938-0.82812 2.0938-1.9375 0-0.70312-0.35938-1.1875-0.79688-1.4531-0.35938-0.20312-0.79688-0.29688-1.2188-0.29688-0.21875 0-0.34375 0.015625-0.46875 0.03125l0.21875-1.4531h2.1562z"/>
   </g>
   <g id="use88713" transform="matrix(1 0 0 -1 295.64 3609.7)" style="fill:#1c1c19">
    <path id="path93324" d="m0.26562-2.6406v0.5625h2.1406v-0.5625z"/>
   </g>
   <g id="use88715" transform="matrix(1 0 0 -1 298.36 3609.7)" style="fill:#1c1c19">
    <path id="path93328" d="m3.7656-5.6562h-2.7031l-0.35938 2.7188c0.20312-0.03125 0.45312-0.0625 0.78125-0.0625 1.125 0 1.6094 0.51562 1.625 1.25 0 0.76562-0.625 1.2344-1.3438 1.2344-0.51562 0-0.96875-0.1875-1.2031-0.3125l-0.20312 0.57812c0.28125 0.17188 0.79688 0.34375 1.4219 0.34375 1.2188 0 2.0938-0.82812 2.0938-1.9375 0-0.70312-0.35938-1.1875-0.79688-1.4531-0.35938-0.20312-0.79688-0.29688-1.2188-0.29688-0.21875 0-0.34375 0.015625-0.46875 0.03125l0.21875-1.4531h2.1562z"/>
   </g>
   <g id="use88719" transform="matrix(1 0 0 -1 222.65 3609.7)" style="fill:#1c1c19">
    <path id="path93332" d="m0.26562-2.6406v0.5625h2.1406v-0.5625z"/>
   </g>
   <g id="use88721" transform="matrix(1 0 0 -1 225.36 3609.7)" style="fill:#1c1c19">
    <path id="path93336" d="m2.0469 0h0.75v-5.6562h-0.65625l-1.2344 0.65625 0.14062 0.59375 0.98438-0.53125h0.015625z"/>
   </g>
   <g id="use88723" transform="matrix(1 0 0 -1 229.87 3609.7)" style="fill:#1c1c19">
    <path id="path93340" d="m2.2812-5.75c-1.1562 0-1.9688 1.0469-1.9688 2.9375 0.015625 1.875 0.76562 2.9062 1.875 2.9062 1.25 0 1.9688-1.0625 1.9688-2.9844 0-1.7969-0.6875-2.8594-1.875-2.8594zm-0.046875 0.59375c0.79688 0 1.1562 0.90625 1.1562 2.2969 0 1.4531-0.375 2.3594-1.1562 2.3594-0.70312 0-1.1562-0.82812-1.1562-2.2969 0-1.5469 0.48438-2.3594 1.1562-2.3594z"/>
   </g>
   <g id="use88727" transform="matrix(1 0 0 -1 343.5 3486.1)" style="fill:#1c1c19">
    <path id="path93344" d="m0.26562-2.6406v0.5625h2.1406v-0.5625z"/>
   </g>
   <g id="use88729" transform="matrix(1 0 0 -1 346.22 3486.1)" style="fill:#1c1c19">
    <path id="path93348" d="m2.0469 0h0.75v-5.6562h-0.65625l-1.2344 0.65625 0.14062 0.59375 0.98438-0.53125h0.015625z"/>
   </g>
   <g id="use88731" transform="matrix(1 0 0 -1 350.72 3486.1)" style="fill:#1c1c19">
    <path id="path93352" d="m2.2812-5.75c-1.1562 0-1.9688 1.0469-1.9688 2.9375 0.015625 1.875 0.76562 2.9062 1.875 2.9062 1.25 0 1.9688-1.0625 1.9688-2.9844 0-1.7969-0.6875-2.8594-1.875-2.8594zm-0.046875 0.59375c0.79688 0 1.1562 0.90625 1.1562 2.2969 0 1.4531-0.375 2.3594-1.1562 2.3594-0.70312 0-1.1562-0.82812-1.1562-2.2969 0-1.5469 0.48438-2.3594 1.1562-2.3594z"/>
   </g>
   <g id="use88735" transform="matrix(1 0 0 -1 283.48 3571)">
    <path id="path93356" d="m0.98438-3.1562c0-0.47656 0.070313-0.98438 0.21875-1.5156 0.1875-0.70703 0.46875-1.3203 0.84375-1.8438 0.38281-0.51953 0.86719-0.92969 1.4531-1.2344 0.58203-0.30078 1.25-0.45312 2-0.45312 0.98828 0 1.7891 0.3125 2.4062 0.9375 0.61328 0.61719 0.92188 1.4336 0.92188 2.4531 0 0.85547-0.19922 1.6836-0.59375 2.4844-0.39844 0.79297-0.9375 1.4023-1.625 1.8281-0.6875 0.42969-1.4648 0.64062-2.3281 0.64062-0.75 0-1.3828-0.16406-1.8906-0.5-0.51172-0.34375-0.875-0.76562-1.0938-1.2656-0.21094-0.50781-0.3125-1.0195-0.3125-1.5312zm1.6406-0.046875c0 0.5625 0.16406 1.0312 0.5 1.4062 0.34375 0.36719 0.78906 0.54688 1.3438 0.54688 0.4375 0 0.86328-0.14453 1.2812-0.4375 0.41406-0.28906 0.75391-0.73438 1.0156-1.3281 0.26953-0.60156 0.40625-1.1914 0.40625-1.7656 0-0.63281-0.17188-1.1289-0.51562-1.4844-0.33594-0.36328-0.76562-0.54688-1.2969-0.54688-0.8125 0-1.4766 0.38281-1.9844 1.1406-0.5 0.75-0.75 1.5742-0.75 2.4688z"/>
   </g>
   <g id="use88737" transform="matrix(1 0 0 -1 292.29 3571)">
    <path id="path93360" d="m1.5781-5.8438h1.4844l-0.23438 1.1406c0.53906-0.85156 1.1328-1.2812 1.7812-1.2812 0.22656 0 0.47266 0.058594 0.73438 0.17188l-0.60938 1.2969c-0.14844-0.050781-0.29688-0.078125-0.45312-0.078125-0.27344 0-0.54688 0.10547-0.82812 0.3125-0.28125 0.19922-0.5 0.46875-0.65625 0.8125s-0.3125 0.89062-0.46875 1.6406l-0.39062 1.8281h-1.5781z"/>
   </g>
   <g id="use88739" transform="matrix(1 0 0 -1 296.73 3571)">
    <path id="path93364" d="m2.1406-8.0625h1.5781l-0.29688 1.4219h-1.5781zm-0.46875 2.2188h1.5781l-1.2188 5.8438h-1.5781z"/>
   </g>
   <g id="use88741" transform="matrix(1 0 0 -1 299.92 3571)">
    <path id="path93368" d="m0.375 0.3125 1.6562 0.23438c0 0.16406 0.023438 0.28906 0.078125 0.375 0.0625 0.09375 0.14844 0.17188 0.26562 0.23438 0.125 0.0625 0.29688 0.09375 0.51562 0.09375 0.33203 0 0.59766-0.070312 0.79688-0.20312 0.15625-0.10547 0.28125-0.27344 0.375-0.5 0.050781-0.14844 0.125-0.46094 0.21875-0.9375l0.0625-0.26562c-0.55469 0.44922-1.1211 0.67188-1.7031 0.67188-0.57422 0-1.043-0.19531-1.4062-0.59375-0.36719-0.40625-0.54688-1-0.54688-1.7812 0-0.6875 0.125-1.3125 0.375-1.875 0.25-0.57031 0.59766-1.0039 1.0469-1.2969 0.44531-0.30078 0.91016-0.45312 1.3906-0.45312 0.38281 0 0.73828 0.10547 1.0625 0.3125 0.32031 0.21094 0.57031 0.49609 0.75 0.85938l0.21875-1.0312h1.4844l-1.0156 4.875c-0.16797 0.78125-0.30859 1.3359-0.42188 1.6719-0.11719 0.33203-0.24609 0.59766-0.39062 0.79688-0.14844 0.19531-0.33594 0.35938-0.5625 0.48438-0.21875 0.13281-0.48047 0.23438-0.78125 0.29688-0.30469 0.0625-0.63281 0.09375-0.98438 0.09375-0.82422 0-1.4492-0.14062-1.875-0.42188-0.41797-0.28125-0.625-0.75-0.625-1.4062 0-0.074219 0.003906-0.15234 0.015625-0.23438zm1.8594-2.8281c0 0.44922 0.097656 0.78906 0.29688 1.0156 0.19531 0.23047 0.44531 0.34375 0.75 0.34375 0.26953 0 0.53516-0.10156 0.79688-0.3125 0.25781-0.20703 0.45703-0.50391 0.59375-0.89062 0.13281-0.38281 0.20312-0.75391 0.20312-1.1094 0-0.41406-0.11719-0.75-0.34375-1-0.21875-0.25781-0.47656-0.39062-0.76562-0.39062-0.28125 0-0.54297 0.11719-0.78125 0.34375-0.23047 0.21875-0.42188 0.5625-0.57812 1.0312-0.11719 0.36719-0.17188 0.6875-0.17188 0.96875z"/>
   </g>
   <g id="use88743" transform="matrix(1 0 0 -1 306.85 3571)">
    <path id="path93372" d="m2.1406-8.0625h1.5781l-0.29688 1.4219h-1.5781zm-0.46875 2.2188h1.5781l-1.2188 5.8438h-1.5781z"/>
   </g>
   <g id="use88745" transform="matrix(1 0 0 -1 310.04 3571)">
    <path id="path93376" d="m1.6875-5.8438h1.5l-0.15625 0.76562c0.375-0.32031 0.72266-0.55078 1.0469-0.6875 0.33203-0.14453 0.67578-0.21875 1.0312-0.21875 0.47656 0 0.85156 0.14062 1.125 0.42188 0.28125 0.27344 0.42188 0.63672 0.42188 1.0938 0 0.19922-0.058594 0.58594-0.17188 1.1562l-0.6875 3.3125h-1.5781l0.6875-3.3125c0.10156-0.5 0.15625-0.79688 0.15625-0.89062 0-0.19531-0.0625-0.35156-0.1875-0.46875-0.11719-0.125-0.27734-0.1875-0.48438-0.1875-0.24219 0-0.5 0.10156-0.78125 0.29688-0.28125 0.19922-0.5 0.45312-0.65625 0.76562-0.125 0.23047-0.26172 0.69922-0.40625 1.4062l-0.5 2.3906h-1.5781z"/>
   </g>
   <path id="path88749" d="m349.45 3610.5-1.8437-5.6914-3.6289 3.2773z" style="fill:#e10000"/>
   <path id="path88751" d="m322.34 3579.7-0.7422 0.6719 25.582 28.34 0.74219-0.6679z" style="fill:#e10000"/>
   <path id="path88753" d="m439.68 3618.9-2.4805-5.4414 4.8907-0.031z" style="fill:#e10000"/>
   <path id="path88755" d="m439.95 3582.5h-1l0.21487 33.48 1-0.011z" style="fill:#e10000"/>
   <path id="path88759" d="m368.11 3707.2 5.4414-2.4805 0.0312 4.8906z" style="fill:#e10000"/>
   <path id="path88761" d="m405.92 3706.5-33.477 0.2187 3e-3 1 33.481-0.2187z" style="fill:#e10000"/>
  </g>
 </g>
</svg>
