<svg id="svg47844" version="1.1" viewBox="0 0 21.601 6.7359" xmlns="http://www.w3.org/2000/svg">
 <title id="title47917">img_62</title>
 <g id="layer1" transform="translate(-92.009 -113.8)">
  <g id="use6510" transform="matrix(.35278 0 0 .35278 91.8 119.06)" style="fill:#7d7878">
   <path id="path47783" d="m0.59375-4v-2.3438c0.46875-0.03125 0.82031-0.10156 1.0625-0.21875 0.23828-0.11328 0.44531-0.30469 0.625-0.57812 0.17578-0.28125 0.29688-0.62891 0.35938-1.0469 0.050781-0.3125 0.078125-0.85938 0.078125-1.6406 0-1.2578 0.054688-2.1406 0.17188-2.6406 0.125-0.5 0.33594-0.89844 0.64062-1.2031 0.3125-0.30078 0.75781-0.53906 1.3438-0.71875 0.39453-0.11328 1.0195-0.17188 1.875-0.17188h0.51562v2.3281c-0.71875 0-1.1836 0.04297-1.3906 0.125-0.21094 0.08594-0.35938 0.21094-0.45312 0.375-0.09375 0.16797-0.14062 0.45312-0.14062 0.85938s-0.03125 1.1836-0.09375 2.3281c-0.03125 0.64844-0.11719 1.1719-0.25 1.5781-0.13672 0.39844-0.3125 0.72656-0.53125 0.98438-0.21094 0.26172-0.53125 0.53125-0.96875 0.8125 0.38281 0.21875 0.69531 0.48047 0.9375 0.78125 0.25 0.29297 0.4375 0.65234 0.5625 1.0781 0.13281 0.41797 0.22266 0.98047 0.26562 1.6875 0.039063 1.0859 0.0625 1.7734 0.0625 2.0781 0 0.42578 0.050781 0.72266 0.15625 0.89062 0.10156 0.17578 0.25781 0.30469 0.46875 0.39062 0.21875 0.082031 0.67578 0.125 1.375 0.125v2.3438h-0.51562c-0.875 0-1.5469-0.070312-2.0156-0.20312-0.46875-0.13672-0.86719-0.37109-1.1875-0.70312-0.32422-0.32422-0.54297-0.72656-0.65625-1.2031-0.11719-0.48047-0.17188-1.2344-0.17188-2.2656 0-1.1953-0.054687-1.9727-0.15625-2.3281-0.13672-0.51953-0.35156-0.89062-0.64062-1.1094-0.29297-0.22656-0.73438-0.35938-1.3281-0.39062z"/>
  </g>
  <g id="use6512" transform="matrix(.35278 0 0 .35278 94.579 119.06)" style="fill:#7d7878"></g>
  <g id="use6514" transform="matrix(.35278 0 0 .35278 96.576 119.06)" style="fill:#7d7878">
   <path id="path47791" d="m0.14062-10.375h2.9219l2.4688 7.3594 2.4219-7.3594h2.8438l-3.6562 9.9844-0.65625 1.8125c-0.24219 0.60156-0.46875 1.0625-0.6875 1.375-0.21875 0.32031-0.46875 0.58203-0.75 0.78125-0.28125 0.19531-0.63281 0.34766-1.0469 0.45312-0.41797 0.11328-0.88672 0.17188-1.4062 0.17188-0.52344 0-1.0391-0.054687-1.5469-0.15625l-0.25-2.1562c0.4375 0.082031 0.82812 0.125 1.1719 0.125 0.63281 0 1.1016-0.1875 1.4062-0.5625 0.3125-0.36719 0.54688-0.83984 0.70312-1.4219z"/>
  </g>
  <g id="use6518" transform="matrix(.35278 0 0 .35278 100.53 119.06)" style="fill:#7d7878">
   <path id="path47795" d="m3.2969-6.3125c0.0625 0.52344 0.17188 1.0156 0.32812 1.4844 0.26953 0.79297 0.63281 1.4219 1.0938 1.8906 0.45703 0.46094 0.95703 0.6875 1.5 0.6875h4.8438v2.25h-4.8438c-0.96094 0-1.8398-0.33203-2.6406-1-0.79297-0.66406-1.4219-1.5664-1.8906-2.7031-0.46875-1.1445-0.70312-2.3906-0.70312-3.7344 0-1.3516 0.23438-2.5977 0.70312-3.7344 0.46875-1.1445 1.0977-2.0508 1.8906-2.7188 0.80078-0.66406 1.6797-1 2.6406-1h4.8438v2.25h-4.8438c-0.54297 0-1.043 0.23438-1.5 0.70312-0.46094 0.46094-0.82422 1.0898-1.0938 1.8906-0.15625 0.46875-0.26562 0.96484-0.32812 1.4844h7.7656v2.25z"/>
  </g>
  <g id="use6520" transform="matrix(.35278 0 0 .35278 104.82 119.06)" style="fill:#7d7878">
   <path id="path47799" d="m7.875-6.8906c0.28906 0.0625 0.53906 0.20312 0.75 0.42188 0.21875 0.21094 0.47656 0.61719 0.78125 1.2188l2.6406 5.25h-3.1719l-1.75-3.6875c-0.054687-0.10156-0.12109-0.24219-0.20312-0.42188-0.52344-1.1016-1.1328-1.6562-1.8281-1.6562h-0.90625v5.7656h-2.8906v-14.578h4.1562c1.875 0 3.2188 0.33594 4.0312 1 0.82031 0.65625 1.2344 1.7344 1.2344 3.2344 0 1-0.24609 1.7969-0.73438 2.3906-0.48047 0.59375-1.1836 0.94922-2.1094 1.0625zm-3.6875-5.2656v3.9688h1.3438c0.78906 0 1.3594-0.14844 1.7031-0.45312 0.34375-0.3125 0.51562-0.82031 0.51562-1.5312 0-0.70703-0.17188-1.2109-0.51562-1.5156-0.33594-0.3125-0.90234-0.46875-1.7031-0.46875z"/>
  </g>
  <g id="use6524" transform="matrix(.35278 0 0 .35278 109.1 119.06)" style="fill:#7d7878"></g>
  <g id="use6526" transform="matrix(.35278 0 0 .35278 111.1 119.06)" style="fill:#7d7878">
   <path id="path47807" d="m7.125-4c-0.48047 0.023437-0.83984 0.09375-1.0781 0.21875-0.24219 0.11719-0.44922 0.3125-0.625 0.59375-0.16797 0.27344-0.28906 0.61719-0.35938 1.0312-0.054687 0.3125-0.078125 0.85547-0.078125 1.625 0 1.2578-0.058594 2.1406-0.17188 2.6406-0.11719 0.5-0.32812 0.89844-0.64062 1.2031-0.30469 0.30078-0.75 0.53906-1.3438 0.71875-0.39844 0.11328-1.0234 0.17188-1.875 0.17188h-0.51562v-2.3438c0.69531 0 1.1484-0.042969 1.3594-0.125 0.21875-0.085937 0.37891-0.21094 0.48438-0.375 0.10156-0.16797 0.15625-0.45312 0.15625-0.85938 0-0.39844 0.023438-1.1484 0.078125-2.2656 0.03125-0.67578 0.11719-1.2188 0.26562-1.625 0.14453-0.40625 0.33594-0.75 0.57812-1.0312 0.23828-0.28906 0.53906-0.53906 0.90625-0.75-0.48047-0.3125-0.82812-0.61719-1.0469-0.92188-0.3125-0.42578-0.52344-0.97266-0.625-1.6406-0.074219-0.45703-0.125-1.4609-0.15625-3.0156-0.011719-0.47656-0.058594-0.80078-0.14062-0.96875-0.085937-0.16406-0.23047-0.28906-0.4375-0.375-0.21094-0.09375-0.68359-0.14062-1.4219-0.14062v-2.3281h0.51562c0.88281 0 1.5625 0.07031 2.0312 0.20312 0.46875 0.13672 0.85938 0.37109 1.1719 0.70312 0.32031 0.32422 0.53906 0.72656 0.65625 1.2031 0.11328 0.48047 0.17188 1.2344 0.17188 2.2656 0 1.1875 0.046875 1.9648 0.14062 2.3281 0.14453 0.52344 0.36328 0.89844 0.65625 1.125 0.28906 0.23047 0.73828 0.35938 1.3438 0.39062z"/>
  </g>
 </g>
</svg>
