<svg id="svg98519" version="1.1" viewBox="0 0 140.09 255" xmlns="http://www.w3.org/2000/svg">
 <title id="title99912">img_79</title>
 <g id="layer1" transform="translate(-19.916 -28.98)">
  <path id="path85923" d="m39.402 40.71h56.899" style="fill:none;stroke-linecap:square;stroke-miterlimit:10;stroke-width:.40287;stroke:#000"/>
  <g id="use85925" transform="matrix(.35278 0 0 .35278 39.961 37.362)">
   <path id="path97528" d="m0.79688-5.4375v-2.2344h6.8438v2.2344z"/>
  </g>
  <g id="use85927" transform="matrix(.35278 0 0 .35278 42.933 37.362)">
   <path id="path97532" d="m3.7188 0h-2.0625v-18.109h2.2188v6.4688c0.9375-1.1875 2.1328-1.7812 3.5938-1.7812 0.8125 0 1.5781 0.16797 2.2969 0.5 0.71875 0.32422 1.3047 0.78125 1.7656 1.375 0.46875 0.58594 0.83203 1.293 1.0938 2.125 0.26953 0.83594 0.40625 1.7266 0.40625 2.6719 0 2.2422-0.55859 3.9766-1.6719 5.2031-1.1055 1.2305-2.4375 1.8438-4 1.8438-1.543 0-2.7578-0.64453-3.6406-1.9375zm-0.03125-6.6562c0 1.5742 0.21094 2.7109 0.64062 3.4062 0.70703 1.1484 1.6562 1.7188 2.8438 1.7188 0.97656 0 1.8203-0.42188 2.5312-1.2656 0.70703-0.84375 1.0625-2.1016 1.0625-3.7812 0-1.707-0.34375-2.9688-1.0312-3.7812-0.67969-0.82031-1.4961-1.2344-2.4531-1.2344-0.98047 0-1.8242 0.42969-2.5312 1.2812-0.71094 0.84375-1.0625 2.0625-1.0625 3.6562z"/>
  </g>
  <g id="use85929" transform="matrix(.35278 0 0 .35278 47.896 37.362)"></g>
  <g id="use85931" transform="matrix(.35278 0 0 .35278 50.378 37.362)">
   <path id="path97540" d="m5.8906-3.2188v-4.9688h-4.9219v-2.0625h4.9219v-4.9375h2.0938v4.9375h4.9375v2.0625h-4.9375v4.9688zm7.0312 3.2188h-11.953v-2.0781h11.953z"/>
  </g>
  <g id="use85933" transform="matrix(.35278 0 0 .35278 55.279 37.362)"></g>
  <g id="use85935" transform="matrix(.35278 0 0 .35278 57.76 37.362)">
   <path id="path97548" d="m12.969-23.078h0.92188l-3.8594 24.047-6.125-12.609-2.4531 1.1094-0.42188-0.78125 3.7188-1.8594 5.0156 10.156z"/>
  </g>
  <g id="use85937" transform="matrix(.35278 0 0 .35278 62.661 37.362)"></g>
  <g id="use85939" transform="matrix(.35278 0 0 .35278 65.143 37.362)">
   <path id="path97556" d="m3.7188 0h-2.0625v-18.109h2.2188v6.4688c0.9375-1.1875 2.1328-1.7812 3.5938-1.7812 0.8125 0 1.5781 0.16797 2.2969 0.5 0.71875 0.32422 1.3047 0.78125 1.7656 1.375 0.46875 0.58594 0.83203 1.293 1.0938 2.125 0.26953 0.83594 0.40625 1.7266 0.40625 2.6719 0 2.2422-0.55859 3.9766-1.6719 5.2031-1.1055 1.2305-2.4375 1.8438-4 1.8438-1.543 0-2.7578-0.64453-3.6406-1.9375zm-0.03125-6.6562c0 1.5742 0.21094 2.7109 0.64062 3.4062 0.70703 1.1484 1.6562 1.7188 2.8438 1.7188 0.97656 0 1.8203-0.42188 2.5312-1.2656 0.70703-0.84375 1.0625-2.1016 1.0625-3.7812 0-1.707-0.34375-2.9688-1.0312-3.7812-0.67969-0.82031-1.4961-1.2344-2.4531-1.2344-0.98047 0-1.8242 0.42969-2.5312 1.2812-0.71094 0.84375-1.0625 2.0625-1.0625 3.6562z"/>
  </g>
  <g id="use85943" transform="matrix(.35278 0 0 .35278 70.101 34.388)">
   <path id="path97560" d="m7.4219-1.25v1.25h-6.9688c-0.011719-0.3125 0.035156-0.61328 0.14062-0.90625 0.17578-0.46875 0.45703-0.92969 0.84375-1.3906 0.39453-0.46875 0.96094-1.0039 1.7031-1.6094 1.1562-0.9375 1.9297-1.6797 2.3281-2.2344 0.40625-0.55078 0.60938-1.0703 0.60938-1.5625 0-0.50781-0.18359-0.94141-0.54688-1.2969-0.36719-0.35156-0.84375-0.53125-1.4375-0.53125-0.625 0-1.125 0.1875-1.5 0.5625s-0.5625 0.89844-0.5625 1.5625l-1.3438-0.14062c0.09375-0.98828 0.4375-1.7422 1.0312-2.2656 0.59375-0.53125 1.3945-0.79688 2.4062-0.79688 1.0078 0 1.8047 0.28125 2.3906 0.84375 0.59375 0.5625 0.89062 1.2617 0.89062 2.0938 0 0.42969-0.089844 0.84375-0.26562 1.25-0.16797 0.40625-0.45312 0.83984-0.85938 1.2969-0.39844 0.44922-1.0586 1.0625-1.9844 1.8438-0.78125 0.65625-1.2812 1.1055-1.5 1.3438-0.21875 0.23047-0.40234 0.46094-0.54688 0.6875z"/>
  </g>
  <g id="use85945" transform="matrix(.35278 0 0 .35278 72.995 34.388)"></g>
  <g id="use85949" transform="matrix(.35278 0 0 .35278 74.441 37.362)">
   <path id="path97568" d="m0.79688-5.4375v-2.2344h6.8438v2.2344z"/>
  </g>
  <g id="use85951" transform="matrix(.35278 0 0 .35278 77.414 37.362)"></g>
  <g id="use85953" transform="matrix(.35278 0 0 .35278 79.896 37.362)">
   <path id="path97576" d="m8.1719 0v-4.3281h-7.8438v-2.0469l8.25-11.734h1.8281v11.734h2.4375v2.0469h-2.4375v4.3281zm0-6.375v-8.1562l-5.6719 8.1562z"/>
  </g>
  <g id="use85955" transform="matrix(.35278 0 0 .35278 84.859 37.362)">
   <path id="path97580" d="m10.234-1.625c-0.82422 0.71094-1.6211 1.2109-2.3906 1.5-0.76172 0.28125-1.5781 0.42188-2.4531 0.42188-1.4375 0-2.5469-0.34766-3.3281-1.0469-0.77344-0.70703-1.1562-1.6094-1.1562-2.7031 0-0.64453 0.14453-1.2344 0.4375-1.7656 0.30078-0.53125 0.6875-0.95703 1.1562-1.2812 0.47656-0.32031 1.0078-0.5625 1.5938-0.71875 0.4375-0.125 1.0977-0.23828 1.9844-0.34375 1.7891-0.20703 3.1133-0.46094 3.9688-0.76562v-0.57812c0-0.90625-0.21094-1.5469-0.625-1.9219-0.5625-0.5-1.4062-0.75-2.5312-0.75-1.043 0-1.8125 0.1875-2.3125 0.5625-0.5 0.36719-0.87109 1.0117-1.1094 1.9375l-2.1719-0.29688c0.19531-0.92578 0.51953-1.6758 0.96875-2.25 0.45703-0.57031 1.1133-1.0156 1.9688-1.3281 0.85156-0.3125 1.8477-0.46875 2.9844-0.46875 1.1133 0 2.0195 0.13672 2.7188 0.40625 0.70703 0.26172 1.2227 0.59375 1.5469 1 0.33203 0.39844 0.5625 0.89844 0.6875 1.5 0.08203 0.38672 0.125 1.0703 0.125 2.0469v2.9688c0 2.0742 0.04687 3.3867 0.14062 3.9375 0.09375 0.54297 0.28125 1.0625 0.5625 1.5625h-2.3281c-0.23047-0.45703-0.375-1-0.4375-1.625zm-0.1875-4.9531c-0.8125 0.32422-2.0273 0.60156-3.6406 0.82812-0.90625 0.13672-1.5547 0.28906-1.9375 0.45312-0.375 0.16797-0.66797 0.41406-0.875 0.73438-0.21094 0.3125-0.3125 0.66406-0.3125 1.0469 0 0.59375 0.22266 1.0898 0.67188 1.4844 0.44531 0.39844 1.1016 0.59375 1.9688 0.59375 0.86328 0 1.6289-0.1875 2.2969-0.5625 0.66406-0.375 1.1562-0.89062 1.4688-1.5469 0.23828-0.5 0.35938-1.2383 0.35938-2.2188z"/>
  </g>
  <g id="use85957" transform="matrix(.35278 0 0 .35278 89.822 37.362)">
   <path id="path97584" d="m10.234-4.8125 2.1719 0.29688c-0.23047 1.5-0.83984 2.6797-1.8281 3.5312-0.98047 0.85547-2.1875 1.2812-3.625 1.2812-1.793 0-3.2344-0.58203-4.3281-1.75-1.0938-1.1758-1.6406-2.8633-1.6406-5.0625 0-1.4141 0.23438-2.6562 0.70312-3.7188s1.1797-1.8594 2.1406-2.3906c0.96875-0.53125 2.0156-0.79688 3.1406-0.79688 1.4258 0 2.5938 0.36719 3.5 1.0938 0.90625 0.71875 1.4844 1.7422 1.7344 3.0625l-2.1562 0.32812c-0.21094-0.875-0.57422-1.5352-1.0938-1.9844-0.52344-0.44531-1.1562-0.67188-1.9062-0.67188-1.1172 0-2.0273 0.40625-2.7344 1.2188-0.69922 0.80469-1.0469 2.0703-1.0469 3.7969 0 1.7734 0.33594 3.0586 1.0156 3.8594 0.67578 0.79297 1.5547 1.1875 2.6406 1.1875 0.875 0 1.6016-0.26562 2.1875-0.79688 0.59375-0.53906 0.96875-1.3672 1.125-2.4844z"/>
  </g>
  <g id="use85961" transform="matrix(.35278 0 0 .35278 62.06 49.637)">
   <path id="path97588" d="m12.734-2.1406v2.1406h-11.969c-0.023437-0.53125 0.066406-1.0469 0.26562-1.5469 0.30078-0.8125 0.78516-1.6133 1.4531-2.4062 0.67578-0.78906 1.6445-1.7031 2.9062-2.7344 1.9688-1.6133 3.2969-2.8906 3.9844-3.8281 0.69531-0.94531 1.0469-1.8438 1.0469-2.6875 0-0.88281-0.32031-1.6289-0.95312-2.2344-0.625-0.60156-1.4453-0.90625-2.4531-0.90625-1.0742 0-1.9336 0.32422-2.5781 0.96875-0.63672 0.63672-0.96094 1.5273-0.96875 2.6719l-2.2812-0.23438c0.15625-1.707 0.74219-3.0078 1.7656-3.9062 1.0195-0.89453 2.3906-1.3438 4.1094-1.3438 1.7383 0 3.1133 0.48438 4.125 1.4531 1.0078 0.96094 1.5156 2.1523 1.5156 3.5781 0 0.73047-0.14844 1.4453-0.4375 2.1406-0.29297 0.69922-0.78125 1.4375-1.4688 2.2188-0.6875 0.77344-1.8359 1.8281-3.4375 3.1719-1.3359 1.125-2.1953 1.8906-2.5781 2.2969-0.375 0.39844-0.68359 0.79297-0.92188 1.1875z"/>
  </g>
  <g id="use85963" transform="matrix(.35278 0 0 .35278 67.023 49.637)">
   <path id="path97592" d="m10.234-1.625c-0.82422 0.71094-1.6211 1.2109-2.3906 1.5-0.76172 0.28125-1.5781 0.42188-2.4531 0.42188-1.4375 0-2.5469-0.34766-3.3281-1.0469-0.77344-0.70703-1.1562-1.6094-1.1562-2.7031 0-0.64453 0.14453-1.2344 0.4375-1.7656 0.30078-0.53125 0.6875-0.95703 1.1562-1.2812 0.47656-0.32031 1.0078-0.5625 1.5938-0.71875 0.4375-0.125 1.0977-0.23828 1.9844-0.34375 1.7891-0.20703 3.1133-0.46094 3.9688-0.76562v-0.57812c0-0.90625-0.21094-1.5469-0.625-1.9219-0.5625-0.5-1.4062-0.75-2.5312-0.75-1.043 0-1.8125 0.1875-2.3125 0.5625-0.5 0.36719-0.87109 1.0117-1.1094 1.9375l-2.1719-0.29688c0.19531-0.92578 0.51953-1.6758 0.96875-2.25 0.45703-0.57031 1.1133-1.0156 1.9688-1.3281 0.85156-0.3125 1.8477-0.46875 2.9844-0.46875 1.1133 0 2.0195 0.13672 2.7188 0.40625 0.70703 0.26172 1.2227 0.59375 1.5469 1 0.33203 0.39844 0.5625 0.89844 0.6875 1.5 0.08203 0.38672 0.125 1.0703 0.125 2.0469v2.9688c0 2.0742 0.04687 3.3867 0.14062 3.9375 0.09375 0.54297 0.28125 1.0625 0.5625 1.5625h-2.3281c-0.23047-0.45703-0.375-1-0.4375-1.625zm-0.1875-4.9531c-0.8125 0.32422-2.0273 0.60156-3.6406 0.82812-0.90625 0.13672-1.5547 0.28906-1.9375 0.45312-0.375 0.16797-0.66797 0.41406-0.875 0.73438-0.21094 0.3125-0.3125 0.66406-0.3125 1.0469 0 0.59375 0.22266 1.0898 0.67188 1.4844 0.44531 0.39844 1.1016 0.59375 1.9688 0.59375 0.86328 0 1.6289-0.1875 2.2969-0.5625 0.66406-0.375 1.1562-0.89062 1.4688-1.5469 0.23828-0.5 0.35938-1.2383 0.35938-2.2188z"/>
  </g>
  <g id="use85967" transform="matrix(.35278 0 0 .35278 20.407 43.501)" style="fill:#1c1c19">
   <path id="path97596" d="m3.0469-13.781 3.4844 6.75-6.2969 7.0312h2.8125l2.6094-3.1094c0.67188-0.82812 1.3125-1.5625 1.9219-2.3906h0.0625c0.32812 0.82812 0.65625 1.5938 1.0469 2.3906l1.4844 3.1094h2.9062l-3.5938-7.125 6.0156-6.6562h-2.75l-2.5156 2.9219c-0.60938 0.75-1.1875 1.4531-1.8125 2.2812h-0.09375c-0.3125-0.76562-0.60938-1.4844-1-2.25l-1.4531-2.9531z"/>
  </g>
  <g id="use85969" transform="matrix(.35278 0 0 .35278 25.191 43.501)" style="fill:#1c1c19"></g>
  <g id="use85971" transform="matrix(.35278 0 0 .35278 27.409 43.501)" style="fill:#1c1c19">
   <path id="path97604" d="m17.906-9.5938 0.32812-1.7188h-14.953l-0.32812 1.7188zm-1.0469 5.5781 0.32812-1.7031h-14.953l-0.32812 1.7031z"/>
  </g>
  <g id="use85973" transform="matrix(.35278 0 0 .35278 33.553 43.501)" style="fill:#1c1c19"></g>
  <path id="path85977" d="m62.356 29.156h32.442" style="fill:none;stroke-miterlimit:10;stroke-width:.35278;stroke:#000"/>
  <path id="path86271" d="m39.402 111.58h56.899" style="fill:none;stroke-linecap:square;stroke-miterlimit:10;stroke-width:.40287;stroke:#000"/>
  <g id="use86273" transform="matrix(.35278 0 0 .35278 39.961 108.23)">
   <path id="path97612" d="m0.79688-5.4375v-2.2344h6.8438v2.2344z"/>
  </g>
  <g id="use86275" transform="matrix(.35278 0 0 .35278 42.933 108.23)">
   <path id="path97616" d="m12.594-13.672-2.2188 0.17188c-0.19922-0.875-0.48047-1.5078-0.84375-1.9062-0.59375-0.63281-1.3359-0.95312-2.2188-0.95312-0.71094 0-1.3281 0.19922-1.8594 0.59375-0.71094 0.51172-1.2656 1.2578-1.6719 2.2344-0.39844 0.98047-0.60547 2.375-0.625 4.1875 0.53906-0.8125 1.1953-1.4141 1.9688-1.8125 0.76953-0.39453 1.582-0.59375 2.4375-0.59375 1.4766 0 2.7383 0.54688 3.7812 1.6406 1.0391 1.0938 1.5625 2.5078 1.5625 4.2344 0 1.1367-0.24609 2.1953-0.73438 3.1719-0.49219 0.96875-1.1641 1.7148-2.0156 2.2344-0.85547 0.51953-1.8281 0.78125-2.9219 0.78125-1.8555 0-3.3672-0.67969-4.5312-2.0469-1.168-1.3633-1.75-3.6094-1.75-6.7344 0-3.5 0.64453-6.0469 1.9375-7.6406 1.125-1.3828 2.6445-2.0781 4.5625-2.0781 1.4141 0 2.5781 0.40234 3.4844 1.2031 0.91406 0.80469 1.4688 1.9062 1.6562 3.3125zm-9.0781 7.7969c0 0.77344 0.16016 1.5078 0.48438 2.2031 0.32031 0.69922 0.77344 1.2344 1.3594 1.6094 0.58203 0.36719 1.1953 0.54688 1.8438 0.54688 0.9375 0 1.7422-0.37891 2.4219-1.1406 0.67578-0.75781 1.0156-1.7891 1.0156-3.0938 0-1.25-0.33594-2.2344-1-2.9531-0.66797-0.71875-1.5117-1.0781-2.5312-1.0781-1 0-1.8516 0.35938-2.5469 1.0781-0.69922 0.71875-1.0469 1.6641-1.0469 2.8281z"/>
  </g>
  <g id="use86277" transform="matrix(.35278 0 0 .35278 47.896 108.23)"></g>
  <g id="use86279" transform="matrix(.35278 0 0 .35278 50.378 108.23)">
   <path id="path97624" d="m5.8906-3.2188v-4.9688h-4.9219v-2.0625h4.9219v-4.9375h2.0938v4.9375h4.9375v2.0625h-4.9375v4.9688zm7.0312 3.2188h-11.953v-2.0781h11.953z"/>
  </g>
  <g id="use86281" transform="matrix(.35278 0 0 .35278 55.279 108.23)"></g>
  <g id="use86283" transform="matrix(.35278 0 0 .35278 57.76 108.23)">
   <path id="path97632" d="m12.969-23.078h0.92188l-3.8594 24.047-6.125-12.609-2.4531 1.1094-0.42188-0.78125 3.7188-1.8594 5.0156 10.156z"/>
  </g>
  <g id="use86285" transform="matrix(.35278 0 0 .35278 62.661 108.23)"></g>
  <g id="use86287" transform="matrix(.35278 0 0 .35278 65.143 108.23)">
   <path id="path97640" d="m1.0625-4.7812 2.2188-0.29688c0.25781 1.2617 0.69531 2.1719 1.3125 2.7344 0.61328 0.55469 1.3594 0.82812 2.2344 0.82812 1.0508 0 1.9375-0.35938 2.6562-1.0781 0.71875-0.72656 1.0781-1.6289 1.0781-2.7031 0-1.0195-0.33594-1.8594-1-2.5156-0.66797-0.66406-1.5156-1-2.5469-1-0.41797 0-0.9375 0.078125-1.5625 0.23438l0.23438-1.9531c0.15625 0.02344 0.27344 0.03125 0.35938 0.03125 0.94531 0 1.8008-0.24219 2.5625-0.73438 0.75781-0.5 1.1406-1.2656 1.1406-2.2969 0-0.8125-0.27734-1.4844-0.82812-2.0156-0.55469-0.53906-1.2656-0.8125-2.1406-0.8125-0.86719 0-1.5898 0.27734-2.1719 0.82812-0.57422 0.54297-0.9375 1.3555-1.0938 2.4375l-2.2344-0.39062c0.26953-1.4883 0.88281-2.6445 1.8438-3.4688 0.96875-0.82031 2.1719-1.2344 3.6094-1.2344 0.98828 0 1.8945 0.21484 2.7188 0.64062 0.83203 0.42969 1.4688 1.0078 1.9062 1.7344 0.44531 0.73047 0.67188 1.5117 0.67188 2.3438 0 0.78125-0.21484 1.4961-0.64062 2.1406-0.41797 0.63672-1.0391 1.1406-1.8594 1.5156 1.0703 0.25 1.9062 0.76562 2.5 1.5469 0.59375 0.77344 0.89062 1.7461 0.89062 2.9219 0 1.5742-0.57812 2.9141-1.7344 4.0156-1.1484 1.1055-2.6055 1.6562-4.375 1.6562-1.5859 0-2.9023-0.47266-3.9531-1.4219-1.0547-0.94531-1.6523-2.1758-1.7969-3.6875z"/>
  </g>
  <g id="use86289" transform="matrix(.35278 0 0 .35278 70.106 108.23)">
   <path id="path97644" d="m12.594-13.672-2.2188 0.17188c-0.19922-0.875-0.48047-1.5078-0.84375-1.9062-0.59375-0.63281-1.3359-0.95312-2.2188-0.95312-0.71094 0-1.3281 0.19922-1.8594 0.59375-0.71094 0.51172-1.2656 1.2578-1.6719 2.2344-0.39844 0.98047-0.60547 2.375-0.625 4.1875 0.53906-0.8125 1.1953-1.4141 1.9688-1.8125 0.76953-0.39453 1.582-0.59375 2.4375-0.59375 1.4766 0 2.7383 0.54688 3.7812 1.6406 1.0391 1.0938 1.5625 2.5078 1.5625 4.2344 0 1.1367-0.24609 2.1953-0.73438 3.1719-0.49219 0.96875-1.1641 1.7148-2.0156 2.2344-0.85547 0.51953-1.8281 0.78125-2.9219 0.78125-1.8555 0-3.3672-0.67969-4.5312-2.0469-1.168-1.3633-1.75-3.6094-1.75-6.7344 0-3.5 0.64453-6.0469 1.9375-7.6406 1.125-1.3828 2.6445-2.0781 4.5625-2.0781 1.4141 0 2.5781 0.40234 3.4844 1.2031 0.91406 0.80469 1.4688 1.9062 1.6562 3.3125zm-9.0781 7.7969c0 0.77344 0.16016 1.5078 0.48438 2.2031 0.32031 0.69922 0.77344 1.2344 1.3594 1.6094 0.58203 0.36719 1.1953 0.54688 1.8438 0.54688 0.9375 0 1.7422-0.37891 2.4219-1.1406 0.67578-0.75781 1.0156-1.7891 1.0156-3.0938 0-1.25-0.33594-2.2344-1-2.9531-0.66797-0.71875-1.5117-1.0781-2.5312-1.0781-1 0-1.8516 0.35938-2.5469 1.0781-0.69922 0.71875-1.0469 1.6641-1.0469 2.8281z"/>
  </g>
  <g id="use86291" transform="matrix(.35278 0 0 .35278 75.069 108.23)"></g>
  <g id="use86293" transform="matrix(.35278 0 0 .35278 77.551 108.23)">
   <path id="path97652" d="m0.79688-5.4375v-2.2344h6.8438v2.2344z"/>
  </g>
  <g id="use86295" transform="matrix(.35278 0 0 .35278 80.524 108.23)"></g>
  <g id="use86297" transform="matrix(.35278 0 0 .35278 83.005 108.23)">
   <path id="path97660" d="m12.734-2.1406v2.1406h-11.969c-0.023437-0.53125 0.066406-1.0469 0.26562-1.5469 0.30078-0.8125 0.78516-1.6133 1.4531-2.4062 0.67578-0.78906 1.6445-1.7031 2.9062-2.7344 1.9688-1.6133 3.2969-2.8906 3.9844-3.8281 0.69531-0.94531 1.0469-1.8438 1.0469-2.6875 0-0.88281-0.32031-1.6289-0.95312-2.2344-0.625-0.60156-1.4453-0.90625-2.4531-0.90625-1.0742 0-1.9336 0.32422-2.5781 0.96875-0.63672 0.63672-0.96094 1.5273-0.96875 2.6719l-2.2812-0.23438c0.15625-1.707 0.74219-3.0078 1.7656-3.9062 1.0195-0.89453 2.3906-1.3438 4.1094-1.3438 1.7383 0 3.1133 0.48438 4.125 1.4531 1.0078 0.96094 1.5156 2.1523 1.5156 3.5781 0 0.73047-0.14844 1.4453-0.4375 2.1406-0.29297 0.69922-0.78125 1.4375-1.4688 2.2188-0.6875 0.77344-1.8359 1.8281-3.4375 3.1719-1.3359 1.125-2.1953 1.8906-2.5781 2.2969-0.375 0.39844-0.68359 0.79297-0.92188 1.1875z"/>
  </g>
  <g id="use86299" transform="matrix(.35278 0 0 .35278 87.968 108.23)">
   <path id="path97664" d="m1.0469-8.9375c0-2.1328 0.21875-3.8516 0.65625-5.1562 0.44531-1.3125 1.1016-2.3203 1.9688-3.0312 0.875-0.70703 1.9688-1.0625 3.2812-1.0625 0.96875 0 1.8164 0.19922 2.5469 0.59375 0.73828 0.38672 1.3477 0.94922 1.8281 1.6875 0.47656 0.74219 0.85156 1.6406 1.125 2.7031 0.26953 1.0547 0.40625 2.4766 0.40625 4.2656 0 2.125-0.21875 3.8438-0.65625 5.1562-0.4375 1.3047-1.0938 2.3125-1.9688 3.0312-0.86719 0.71094-1.9609 1.0625-3.2812 1.0625-1.75 0-3.1211-0.625-4.1094-1.875-1.1992-1.5078-1.7969-3.9688-1.7969-7.375zm2.2812 0c0 2.9805 0.34766 4.9648 1.0469 5.9531 0.69531 0.98047 1.5547 1.4688 2.5781 1.4688 1.0195 0 1.8789-0.49219 2.5781-1.4844 0.69531-0.98828 1.0469-2.9688 1.0469-5.9375 0-2.9766-0.35156-4.957-1.0469-5.9375-0.69922-0.97656-1.5703-1.4688-2.6094-1.4688-1.0234 0-1.8359 0.43359-2.4375 1.2969-0.77344 1.1055-1.1562 3.1406-1.1562 6.1094z"/>
  </g>
  <g id="use86303" transform="matrix(.35278 0 0 .35278 62.063 120.5)">
   <path id="path97668" d="m9.4219 0h-2.2188v-14.172c-0.54297 0.51172-1.2461 1.0234-2.1094 1.5312-0.86719 0.51172-1.6484 0.89844-2.3438 1.1562v-2.1562c1.25-0.58203 2.3359-1.2891 3.2656-2.125 0.92578-0.83203 1.582-1.6406 1.9688-2.4219h1.4375z"/>
  </g>
  <g id="use86305" transform="matrix(.35278 0 0 .35278 67.026 120.5)">
   <path id="path97672" d="m1.0469-8.9375c0-2.1328 0.21875-3.8516 0.65625-5.1562 0.44531-1.3125 1.1016-2.3203 1.9688-3.0312 0.875-0.70703 1.9688-1.0625 3.2812-1.0625 0.96875 0 1.8164 0.19922 2.5469 0.59375 0.73828 0.38672 1.3477 0.94922 1.8281 1.6875 0.47656 0.74219 0.85156 1.6406 1.125 2.7031 0.26953 1.0547 0.40625 2.4766 0.40625 4.2656 0 2.125-0.21875 3.8438-0.65625 5.1562-0.4375 1.3047-1.0938 2.3125-1.9688 3.0312-0.86719 0.71094-1.9609 1.0625-3.2812 1.0625-1.75 0-3.1211-0.625-4.1094-1.875-1.1992-1.5078-1.7969-3.9688-1.7969-7.375zm2.2812 0c0 2.9805 0.34766 4.9648 1.0469 5.9531 0.69531 0.98047 1.5547 1.4688 2.5781 1.4688 1.0195 0 1.8789-0.49219 2.5781-1.4844 0.69531-0.98828 1.0469-2.9688 1.0469-5.9375 0-2.9766-0.35156-4.957-1.0469-5.9375-0.69922-0.97656-1.5703-1.4688-2.6094-1.4688-1.0234 0-1.8359 0.43359-2.4375 1.2969-0.77344 1.1055-1.1562 3.1406-1.1562 6.1094z"/>
  </g>
  <g id="use86309" transform="matrix(.35278 0 0 .35278 20.407 114.37)" style="fill:#1c1c19">
   <path id="path97676" d="m3.0469-13.781 3.4844 6.75-6.2969 7.0312h2.8125l2.6094-3.1094c0.67188-0.82812 1.3125-1.5625 1.9219-2.3906h0.0625c0.32812 0.82812 0.65625 1.5938 1.0469 2.3906l1.4844 3.1094h2.9062l-3.5938-7.125 6.0156-6.6562h-2.75l-2.5156 2.9219c-0.60938 0.75-1.1875 1.4531-1.8125 2.2812h-0.09375c-0.3125-0.76562-0.60938-1.4844-1-2.25l-1.4531-2.9531z"/>
  </g>
  <g id="use86311" transform="matrix(.35278 0 0 .35278 25.191 114.37)" style="fill:#1c1c19"></g>
  <g id="use86313" transform="matrix(.35278 0 0 .35278 27.409 114.37)" style="fill:#1c1c19">
   <path id="path97684" d="m17.906-9.5938 0.32812-1.7188h-14.953l-0.32812 1.7188zm-1.0469 5.5781 0.32812-1.7031h-14.953l-0.32812 1.7031z"/>
  </g>
  <g id="use86315" transform="matrix(.35278 0 0 .35278 33.553 114.37)" style="fill:#1c1c19"></g>
  <path id="path86461" d="m62.356 100.02h32.442" style="fill:none;stroke-miterlimit:10;stroke-width:.35278;stroke:#000"/>
  <path id="path86463" d="m39.402 145.85h37.287" style="fill:none;stroke-linecap:square;stroke-miterlimit:10;stroke-width:.40287;stroke:#000"/>
  <g id="use86465" transform="matrix(.35278 0 0 .35278 39.961 142.5)">
   <path id="path97692" d="m0.79688-5.4375v-2.2344h6.8438v2.2344z"/>
  </g>
  <g id="use86467" transform="matrix(.35278 0 0 .35278 42.933 142.5)">
   <path id="path97696" d="m12.594-13.672-2.2188 0.17188c-0.19922-0.875-0.48047-1.5078-0.84375-1.9062-0.59375-0.63281-1.3359-0.95312-2.2188-0.95312-0.71094 0-1.3281 0.19922-1.8594 0.59375-0.71094 0.51172-1.2656 1.2578-1.6719 2.2344-0.39844 0.98047-0.60547 2.375-0.625 4.1875 0.53906-0.8125 1.1953-1.4141 1.9688-1.8125 0.76953-0.39453 1.582-0.59375 2.4375-0.59375 1.4766 0 2.7383 0.54688 3.7812 1.6406 1.0391 1.0938 1.5625 2.5078 1.5625 4.2344 0 1.1367-0.24609 2.1953-0.73438 3.1719-0.49219 0.96875-1.1641 1.7148-2.0156 2.2344-0.85547 0.51953-1.8281 0.78125-2.9219 0.78125-1.8555 0-3.3672-0.67969-4.5312-2.0469-1.168-1.3633-1.75-3.6094-1.75-6.7344 0-3.5 0.64453-6.0469 1.9375-7.6406 1.125-1.3828 2.6445-2.0781 4.5625-2.0781 1.4141 0 2.5781 0.40234 3.4844 1.2031 0.91406 0.80469 1.4688 1.9062 1.6562 3.3125zm-9.0781 7.7969c0 0.77344 0.16016 1.5078 0.48438 2.2031 0.32031 0.69922 0.77344 1.2344 1.3594 1.6094 0.58203 0.36719 1.1953 0.54688 1.8438 0.54688 0.9375 0 1.7422-0.37891 2.4219-1.1406 0.67578-0.75781 1.0156-1.7891 1.0156-3.0938 0-1.25-0.33594-2.2344-1-2.9531-0.66797-0.71875-1.5117-1.0781-2.5312-1.0781-1 0-1.8516 0.35938-2.5469 1.0781-0.69922 0.71875-1.0469 1.6641-1.0469 2.8281z"/>
  </g>
  <g id="use86469" transform="matrix(.35278 0 0 .35278 47.896 142.5)"></g>
  <g id="use86471" transform="matrix(.35278 0 0 .35278 50.378 142.5)">
   <path id="path97704" d="m5.8906-3.2188v-4.9688h-4.9219v-2.0625h4.9219v-4.9375h2.0938v4.9375h4.9375v2.0625h-4.9375v4.9688zm7.0312 3.2188h-11.953v-2.0781h11.953z"/>
  </g>
  <g id="use86473" transform="matrix(.35278 0 0 .35278 55.279 142.5)"></g>
  <g id="use86475" transform="matrix(.35278 0 0 .35278 57.76 142.5)">
   <path id="path97712" d="m12.969-23.078h0.92188l-3.8594 24.047-6.125-12.609-2.4531 1.1094-0.42188-0.78125 3.7188-1.8594 5.0156 10.156z"/>
  </g>
  <g id="use86477" transform="matrix(.35278 0 0 .35278 62.661 142.5)"></g>
  <g id="use86479" transform="matrix(.35278 0 0 .35278 65.143 142.5)">
   <path id="path97720" d="m9.4219 0h-2.2188v-14.172c-0.54297 0.51172-1.2461 1.0234-2.1094 1.5312-0.86719 0.51172-1.6484 0.89844-2.3438 1.1562v-2.1562c1.25-0.58203 2.3359-1.2891 3.2656-2.125 0.92578-0.83203 1.582-1.6406 1.9688-2.4219h1.4375z"/>
  </g>
  <g id="use86481" transform="matrix(.35278 0 0 .35278 70.106 142.5)">
   <path id="path97724" d="m12.594-13.672-2.2188 0.17188c-0.19922-0.875-0.48047-1.5078-0.84375-1.9062-0.59375-0.63281-1.3359-0.95312-2.2188-0.95312-0.71094 0-1.3281 0.19922-1.8594 0.59375-0.71094 0.51172-1.2656 1.2578-1.6719 2.2344-0.39844 0.98047-0.60547 2.375-0.625 4.1875 0.53906-0.8125 1.1953-1.4141 1.9688-1.8125 0.76953-0.39453 1.582-0.59375 2.4375-0.59375 1.4766 0 2.7383 0.54688 3.7812 1.6406 1.0391 1.0938 1.5625 2.5078 1.5625 4.2344 0 1.1367-0.24609 2.1953-0.73438 3.1719-0.49219 0.96875-1.1641 1.7148-2.0156 2.2344-0.85547 0.51953-1.8281 0.78125-2.9219 0.78125-1.8555 0-3.3672-0.67969-4.5312-2.0469-1.168-1.3633-1.75-3.6094-1.75-6.7344 0-3.5 0.64453-6.0469 1.9375-7.6406 1.125-1.3828 2.6445-2.0781 4.5625-2.0781 1.4141 0 2.5781 0.40234 3.4844 1.2031 0.91406 0.80469 1.4688 1.9062 1.6562 3.3125zm-9.0781 7.7969c0 0.77344 0.16016 1.5078 0.48438 2.2031 0.32031 0.69922 0.77344 1.2344 1.3594 1.6094 0.58203 0.36719 1.1953 0.54688 1.8438 0.54688 0.9375 0 1.7422-0.37891 2.4219-1.1406 0.67578-0.75781 1.0156-1.7891 1.0156-3.0938 0-1.25-0.33594-2.2344-1-2.9531-0.66797-0.71875-1.5117-1.0781-2.5312-1.0781-1 0-1.8516 0.35938-2.5469 1.0781-0.69922 0.71875-1.0469 1.6641-1.0469 2.8281z"/>
  </g>
  <g id="use86485" transform="matrix(.35278 0 0 .35278 53.681 154.78)">
   <path id="path97728" d="m9.4219 0h-2.2188v-14.172c-0.54297 0.51172-1.2461 1.0234-2.1094 1.5312-0.86719 0.51172-1.6484 0.89844-2.3438 1.1562v-2.1562c1.25-0.58203 2.3359-1.2891 3.2656-2.125 0.92578-0.83203 1.582-1.6406 1.9688-2.4219h1.4375z"/>
  </g>
  <g id="use86487" transform="matrix(.35278 0 0 .35278 58.644 154.78)">
   <path id="path97732" d="m1.0469-8.9375c0-2.1328 0.21875-3.8516 0.65625-5.1562 0.44531-1.3125 1.1016-2.3203 1.9688-3.0312 0.875-0.70703 1.9688-1.0625 3.2812-1.0625 0.96875 0 1.8164 0.19922 2.5469 0.59375 0.73828 0.38672 1.3477 0.94922 1.8281 1.6875 0.47656 0.74219 0.85156 1.6406 1.125 2.7031 0.26953 1.0547 0.40625 2.4766 0.40625 4.2656 0 2.125-0.21875 3.8438-0.65625 5.1562-0.4375 1.3047-1.0938 2.3125-1.9688 3.0312-0.86719 0.71094-1.9609 1.0625-3.2812 1.0625-1.75 0-3.1211-0.625-4.1094-1.875-1.1992-1.5078-1.7969-3.9688-1.7969-7.375zm2.2812 0c0 2.9805 0.34766 4.9648 1.0469 5.9531 0.69531 0.98047 1.5547 1.4688 2.5781 1.4688 1.0195 0 1.8789-0.49219 2.5781-1.4844 0.69531-0.98828 1.0469-2.9688 1.0469-5.9375 0-2.9766-0.35156-4.957-1.0469-5.9375-0.69922-0.97656-1.5703-1.4688-2.6094-1.4688-1.0234 0-1.8359 0.43359-2.4375 1.2969-0.77344 1.1055-1.1562 3.1406-1.1562 6.1094z"/>
  </g>
  <g id="use86491" transform="matrix(.35278 0 0 .35278 20.407 148.64)" style="fill:#1c1c19">
   <path id="path97736" d="m3.0469-13.781 3.4844 6.75-6.2969 7.0312h2.8125l2.6094-3.1094c0.67188-0.82812 1.3125-1.5625 1.9219-2.3906h0.0625c0.32812 0.82812 0.65625 1.5938 1.0469 2.3906l1.4844 3.1094h2.9062l-3.5938-7.125 6.0156-6.6562h-2.75l-2.5156 2.9219c-0.60938 0.75-1.1875 1.4531-1.8125 2.2812h-0.09375c-0.3125-0.76562-0.60938-1.4844-1-2.25l-1.4531-2.9531z"/>
  </g>
  <g id="use86493" transform="matrix(.35278 0 0 .35278 25.191 148.64)" style="fill:#1c1c19"></g>
  <g id="use86495" transform="matrix(.35278 0 0 .35278 27.409 148.64)" style="fill:#1c1c19">
   <path id="path97744" d="m17.906-9.5938 0.32812-1.7188h-14.953l-0.32812 1.7188zm-1.0469 5.5781 0.32812-1.7031h-14.953l-0.32812 1.7031z"/>
  </g>
  <g id="use86497" transform="matrix(.35278 0 0 .35278 33.553 148.64)" style="fill:#1c1c19"></g>
  <path id="path86501" d="m62.356 134.3h12.83" style="fill:none;stroke-miterlimit:10;stroke-width:.35278;stroke:#000"/>
  <path id="path87031" d="m39.402 180.18h25.824" style="fill:none;stroke-linecap:square;stroke-miterlimit:10;stroke-width:.40287;stroke:#000"/>
  <g id="use87033" transform="matrix(.35278 0 0 .35278 39.961 176.84)">
   <path id="path97752" d="m0.79688-5.4375v-2.2344h6.8438v2.2344z"/>
  </g>
  <g id="use87035" transform="matrix(.35278 0 0 .35278 42.933 176.84)">
   <path id="path97756" d="m12.594-13.672-2.2188 0.17188c-0.19922-0.875-0.48047-1.5078-0.84375-1.9062-0.59375-0.63281-1.3359-0.95312-2.2188-0.95312-0.71094 0-1.3281 0.19922-1.8594 0.59375-0.71094 0.51172-1.2656 1.2578-1.6719 2.2344-0.39844 0.98047-0.60547 2.375-0.625 4.1875 0.53906-0.8125 1.1953-1.4141 1.9688-1.8125 0.76953-0.39453 1.582-0.59375 2.4375-0.59375 1.4766 0 2.7383 0.54688 3.7812 1.6406 1.0391 1.0938 1.5625 2.5078 1.5625 4.2344 0 1.1367-0.24609 2.1953-0.73438 3.1719-0.49219 0.96875-1.1641 1.7148-2.0156 2.2344-0.85547 0.51953-1.8281 0.78125-2.9219 0.78125-1.8555 0-3.3672-0.67969-4.5312-2.0469-1.168-1.3633-1.75-3.6094-1.75-6.7344 0-3.5 0.64453-6.0469 1.9375-7.6406 1.125-1.3828 2.6445-2.0781 4.5625-2.0781 1.4141 0 2.5781 0.40234 3.4844 1.2031 0.91406 0.80469 1.4688 1.9062 1.6562 3.3125zm-9.0781 7.7969c0 0.77344 0.16016 1.5078 0.48438 2.2031 0.32031 0.69922 0.77344 1.2344 1.3594 1.6094 0.58203 0.36719 1.1953 0.54688 1.8438 0.54688 0.9375 0 1.7422-0.37891 2.4219-1.1406 0.67578-0.75781 1.0156-1.7891 1.0156-3.0938 0-1.25-0.33594-2.2344-1-2.9531-0.66797-0.71875-1.5117-1.0781-2.5312-1.0781-1 0-1.8516 0.35938-2.5469 1.0781-0.69922 0.71875-1.0469 1.6641-1.0469 2.8281z"/>
  </g>
  <g id="use87037" transform="matrix(.35278 0 0 .35278 47.896 176.84)"></g>
  <g id="use87039" transform="matrix(.35278 0 0 .35278 50.378 176.84)">
   <path id="path97764" d="m5.8906-3.2188v-4.9688h-4.9219v-2.0625h4.9219v-4.9375h2.0938v4.9375h4.9375v2.0625h-4.9375v4.9688zm7.0312 3.2188h-11.953v-2.0781h11.953z"/>
  </g>
  <g id="use87041" transform="matrix(.35278 0 0 .35278 55.279 176.84)"></g>
  <g id="use87043" transform="matrix(.35278 0 0 .35278 57.76 176.84)">
   <path id="path97772" d="m1.3906-4.1875 2.125-0.20312c0.1875 1.0117 0.53516 1.7461 1.0469 2.2031 0.50781 0.44922 1.1602 0.67188 1.9531 0.67188 0.6875 0 1.2852-0.15625 1.7969-0.46875 0.51953-0.3125 0.94141-0.72656 1.2656-1.25 0.33203-0.53125 0.60938-1.2383 0.82812-2.125 0.22656-0.88281 0.34375-1.7891 0.34375-2.7188 0-0.09375-0.0078-0.23828-0.01563-0.4375-0.44922 0.71094-1.0586 1.2812-1.8281 1.7188-0.77344 0.4375-1.6055 0.65625-2.5 0.65625-1.5 0-2.7734-0.53906-3.8125-1.625-1.0312-1.0938-1.5469-2.5234-1.5469-4.2969 0-1.8438 0.53906-3.3203 1.625-4.4375 1.082-1.125 2.4414-1.6875 4.0781-1.6875 1.1758 0 2.25 0.32031 3.2188 0.95312 0.97656 0.63672 1.7188 1.543 2.2188 2.7188 0.50781 1.168 0.76562 2.8672 0.76562 5.0938 0 2.3125-0.25 4.1562-0.75 5.5312-0.5 1.3672-1.25 2.4062-2.25 3.125-0.99218 0.71875-2.1523 1.0781-3.4844 1.0781-1.418 0-2.5742-0.39062-3.4688-1.1719-0.89844-0.78906-1.4336-1.8984-1.6094-3.3281zm9.0938-7.9844c0-1.2812-0.33984-2.2969-1.0156-3.0469-0.67969-0.75-1.4961-1.125-2.4531-1.125-0.99219 0-1.8555 0.40625-2.5938 1.2188-0.73047 0.80469-1.0938 1.8438-1.0938 3.125 0 1.1562 0.34766 2.0938 1.0469 2.8125 0.69531 0.71875 1.5547 1.0781 2.5781 1.0781 1.0312 0 1.875-0.35938 2.5312-1.0781 0.66406-0.71875 1-1.7109 1-2.9844z"/>
  </g>
  <g id="use87047" transform="matrix(.35278 0 0 .35278 47.209 189.11)">
   <path id="path97776" d="m9.4219 0h-2.2188v-14.172c-0.54297 0.51172-1.2461 1.0234-2.1094 1.5312-0.86719 0.51172-1.6484 0.89844-2.3438 1.1562v-2.1562c1.25-0.58203 2.3359-1.2891 3.2656-2.125 0.92578-0.83203 1.582-1.6406 1.9688-2.4219h1.4375z"/>
  </g>
  <g id="use87049" transform="matrix(.35278 0 0 .35278 52.172 189.11)">
   <path id="path97780" d="m1.0469-8.9375c0-2.1328 0.21875-3.8516 0.65625-5.1562 0.44531-1.3125 1.1016-2.3203 1.9688-3.0312 0.875-0.70703 1.9688-1.0625 3.2812-1.0625 0.96875 0 1.8164 0.19922 2.5469 0.59375 0.73828 0.38672 1.3477 0.94922 1.8281 1.6875 0.47656 0.74219 0.85156 1.6406 1.125 2.7031 0.26953 1.0547 0.40625 2.4766 0.40625 4.2656 0 2.125-0.21875 3.8438-0.65625 5.1562-0.4375 1.3047-1.0938 2.3125-1.9688 3.0312-0.86719 0.71094-1.9609 1.0625-3.2812 1.0625-1.75 0-3.1211-0.625-4.1094-1.875-1.1992-1.5078-1.7969-3.9688-1.7969-7.375zm2.2812 0c0 2.9805 0.34766 4.9648 1.0469 5.9531 0.69531 0.98047 1.5547 1.4688 2.5781 1.4688 1.0195 0 1.8789-0.49219 2.5781-1.4844 0.69531-0.98828 1.0469-2.9688 1.0469-5.9375 0-2.9766-0.35156-4.957-1.0469-5.9375-0.69922-0.97656-1.5703-1.4688-2.6094-1.4688-1.0234 0-1.8359 0.43359-2.4375 1.2969-0.77344 1.1055-1.1562 3.1406-1.1562 6.1094z"/>
  </g>
  <g id="use87053" transform="matrix(.35278 0 0 .35278 20.407 182.97)" style="fill:#1c1c19">
   <path id="path97784" d="m3.0469-13.781 3.4844 6.75-6.2969 7.0312h2.8125l2.6094-3.1094c0.67188-0.82812 1.3125-1.5625 1.9219-2.3906h0.0625c0.32812 0.82812 0.65625 1.5938 1.0469 2.3906l1.4844 3.1094h2.9062l-3.5938-7.125 6.0156-6.6562h-2.75l-2.5156 2.9219c-0.60938 0.75-1.1875 1.4531-1.8125 2.2812h-0.09375c-0.3125-0.76562-0.60938-1.4844-1-2.25l-1.4531-2.9531z"/>
  </g>
  <g id="use87055" transform="matrix(.35278 0 0 .35278 25.191 182.97)" style="fill:#1c1c19"></g>
  <g id="use87057" transform="matrix(.35278 0 0 .35278 27.409 182.97)" style="fill:#1c1c19">
   <path id="path97792" d="m17.906-9.5938 0.32812-1.7188h-14.953l-0.32812 1.7188zm-1.0469 5.5781 0.32812-1.7031h-14.953l-0.32812 1.7031z"/>
  </g>
  <g id="use87059" transform="matrix(.35278 0 0 .35278 33.553 182.97)" style="fill:#1c1c19"></g>
  <path id="path87063" d="m39.804 211.16h25.824" style="fill:none;stroke-linecap:square;stroke-miterlimit:10;stroke-width:.40287;stroke:#000"/>
  <g id="use87065" transform="matrix(.35278 0 0 .35278 40.363 207.81)">
   <path id="path97800" d="m0.79688-5.4375v-2.2344h6.8438v2.2344z"/>
  </g>
  <g id="use87067" transform="matrix(.35278 0 0 .35278 43.336 207.81)">
   <path id="path97804" d="m12.594-13.672-2.2188 0.17188c-0.19922-0.875-0.48047-1.5078-0.84375-1.9062-0.59375-0.63281-1.3359-0.95312-2.2188-0.95312-0.71094 0-1.3281 0.19922-1.8594 0.59375-0.71094 0.51172-1.2656 1.2578-1.6719 2.2344-0.39844 0.98047-0.60547 2.375-0.625 4.1875 0.53906-0.8125 1.1953-1.4141 1.9688-1.8125 0.76953-0.39453 1.582-0.59375 2.4375-0.59375 1.4766 0 2.7383 0.54688 3.7812 1.6406 1.0391 1.0938 1.5625 2.5078 1.5625 4.2344 0 1.1367-0.24609 2.1953-0.73438 3.1719-0.49219 0.96875-1.1641 1.7148-2.0156 2.2344-0.85547 0.51953-1.8281 0.78125-2.9219 0.78125-1.8555 0-3.3672-0.67969-4.5312-2.0469-1.168-1.3633-1.75-3.6094-1.75-6.7344 0-3.5 0.64453-6.0469 1.9375-7.6406 1.125-1.3828 2.6445-2.0781 4.5625-2.0781 1.4141 0 2.5781 0.40234 3.4844 1.2031 0.91406 0.80469 1.4688 1.9062 1.6562 3.3125zm-9.0781 7.7969c0 0.77344 0.16016 1.5078 0.48438 2.2031 0.32031 0.69922 0.77344 1.2344 1.3594 1.6094 0.58203 0.36719 1.1953 0.54688 1.8438 0.54688 0.9375 0 1.7422-0.37891 2.4219-1.1406 0.67578-0.75781 1.0156-1.7891 1.0156-3.0938 0-1.25-0.33594-2.2344-1-2.9531-0.66797-0.71875-1.5117-1.0781-2.5312-1.0781-1 0-1.8516 0.35938-2.5469 1.0781-0.69922 0.71875-1.0469 1.6641-1.0469 2.8281z"/>
  </g>
  <g id="use87069" transform="matrix(.35278 0 0 .35278 48.299 207.81)"></g>
  <g id="use87071" transform="matrix(.35278 0 0 .35278 50.781 207.81)">
   <path id="path97812" d="m6.3438-2.9219v-4.9688h-4.9375v-2.0781h4.9375v-4.9219h2.0938v4.9219h4.9219v2.0781h-4.9219v4.9688z"/>
  </g>
  <g id="use87073" transform="matrix(.35278 0 0 .35278 55.994 207.81)"></g>
  <g id="use87075" transform="matrix(.35278 0 0 .35278 58.475 207.81)">
   <path id="path97820" d="m8.1719 0v-4.3281h-7.8438v-2.0469l8.25-11.734h1.8281v11.734h2.4375v2.0469h-2.4375v4.3281zm0-6.375v-8.1562l-5.6719 8.1562z"/>
  </g>
  <g id="use87469" transform="matrix(.35278 0 0 .35278 47.605 220.09)">
   <path id="path97824" d="m9.4219 0h-2.2188v-14.172c-0.54297 0.51172-1.2461 1.0234-2.1094 1.5312-0.86719 0.51172-1.6484 0.89844-2.3438 1.1562v-2.1562c1.25-0.58203 2.3359-1.2891 3.2656-2.125 0.92578-0.83203 1.582-1.6406 1.9688-2.4219h1.4375z"/>
  </g>
  <g id="use87471" transform="matrix(.35278 0 0 .35278 52.568 220.09)">
   <path id="path97828" d="m1.0469-8.9375c0-2.1328 0.21875-3.8516 0.65625-5.1562 0.44531-1.3125 1.1016-2.3203 1.9688-3.0312 0.875-0.70703 1.9688-1.0625 3.2812-1.0625 0.96875 0 1.8164 0.19922 2.5469 0.59375 0.73828 0.38672 1.3477 0.94922 1.8281 1.6875 0.47656 0.74219 0.85156 1.6406 1.125 2.7031 0.26953 1.0547 0.40625 2.4766 0.40625 4.2656 0 2.125-0.21875 3.8438-0.65625 5.1562-0.4375 1.3047-1.0938 2.3125-1.9688 3.0312-0.86719 0.71094-1.9609 1.0625-3.2812 1.0625-1.75 0-3.1211-0.625-4.1094-1.875-1.1992-1.5078-1.7969-3.9688-1.7969-7.375zm2.2812 0c0 2.9805 0.34766 4.9648 1.0469 5.9531 0.69531 0.98047 1.5547 1.4688 2.5781 1.4688 1.0195 0 1.8789-0.49219 2.5781-1.4844 0.69531-0.98828 1.0469-2.9688 1.0469-5.9375 0-2.9766-0.35156-4.957-1.0469-5.9375-0.69922-0.97656-1.5703-1.4688-2.6094-1.4688-1.0234 0-1.8359 0.43359-2.4375 1.2969-0.77344 1.1055-1.1562 3.1406-1.1562 6.1094z"/>
  </g>
  <g id="use87475" transform="matrix(.35278 0 0 .35278 20.809 213.95)" style="fill:#1c1c19">
   <path id="path97832" d="m3.0469-13.781 3.4844 6.75-6.2969 7.0312h2.8125l2.6094-3.1094c0.67188-0.82812 1.3125-1.5625 1.9219-2.3906h0.0625c0.32812 0.82812 0.65625 1.5938 1.0469 2.3906l1.4844 3.1094h2.9062l-3.5938-7.125 6.0156-6.6562h-2.75l-2.5156 2.9219c-0.60938 0.75-1.1875 1.4531-1.8125 2.2812h-0.09375c-0.3125-0.76562-0.60938-1.4844-1-2.25l-1.4531-2.9531z"/>
  </g>
  <g id="use87477" transform="matrix(.35278 0 0 .35278 25.594 213.95)" style="fill:#1c1c19"></g>
  <g id="use87479" transform="matrix(.35278 0 0 .35278 27.812 213.95)" style="fill:#1c1c19">
   <path id="path97840" d="m17.906-9.5938 0.32812-1.7188h-14.953l-0.32812 1.7188zm-1.0469 5.5781 0.32812-1.7031h-14.953l-0.32812 1.7031z"/>
  </g>
  <g id="use87481" transform="matrix(.35278 0 0 .35278 33.956 213.95)" style="fill:#1c1c19"></g>
  <path id="path87485" d="m43.661 246.88h13.88" style="fill:none;stroke-linecap:square;stroke-miterlimit:10;stroke-width:.40287;stroke:#000"/>
  <g id="use87487" transform="matrix(.35278 0 0 .35278 44.22 243.54)"></g>
  <g id="use87489" transform="matrix(.35278 0 0 .35278 46.702 243.54)">
   <path id="path97852" d="m0.79688-5.4375v-2.2344h6.8438v2.2344z"/>
  </g>
  <g id="use87491" transform="matrix(.35278 0 0 .35278 49.674 243.54)">
   <path id="path97856" d="m12.734-2.1406v2.1406h-11.969c-0.023437-0.53125 0.066406-1.0469 0.26562-1.5469 0.30078-0.8125 0.78516-1.6133 1.4531-2.4062 0.67578-0.78906 1.6445-1.7031 2.9062-2.7344 1.9688-1.6133 3.2969-2.8906 3.9844-3.8281 0.69531-0.94531 1.0469-1.8438 1.0469-2.6875 0-0.88281-0.32031-1.6289-0.95312-2.2344-0.625-0.60156-1.4453-0.90625-2.4531-0.90625-1.0742 0-1.9336 0.32422-2.5781 0.96875-0.63672 0.63672-0.96094 1.5273-0.96875 2.6719l-2.2812-0.23438c0.15625-1.707 0.74219-3.0078 1.7656-3.9062 1.0195-0.89453 2.3906-1.3438 4.1094-1.3438 1.7383 0 3.1133 0.48438 4.125 1.4531 1.0078 0.96094 1.5156 2.1523 1.5156 3.5781 0 0.73047-0.14844 1.4453-0.4375 2.1406-0.29297 0.69922-0.78125 1.4375-1.4688 2.2188-0.6875 0.77344-1.8359 1.8281-3.4375 3.1719-1.3359 1.125-2.1953 1.8906-2.5781 2.2969-0.375 0.39844-0.68359 0.79297-0.92188 1.1875z"/>
  </g>
  <g id="use87495" transform="matrix(.35278 0 0 .35278 45.139 255.81)">
   <path id="path97860" d="m9.4219 0h-2.2188v-14.172c-0.54297 0.51172-1.2461 1.0234-2.1094 1.5312-0.86719 0.51172-1.6484 0.89844-2.3438 1.1562v-2.1562c1.25-0.58203 2.3359-1.2891 3.2656-2.125 0.92578-0.83203 1.582-1.6406 1.9688-2.4219h1.4375z"/>
  </g>
  <g id="use87497" transform="matrix(.35278 0 0 .35278 50.103 255.81)">
   <path id="path97864" d="m1.0469-8.9375c0-2.1328 0.21875-3.8516 0.65625-5.1562 0.44531-1.3125 1.1016-2.3203 1.9688-3.0312 0.875-0.70703 1.9688-1.0625 3.2812-1.0625 0.96875 0 1.8164 0.19922 2.5469 0.59375 0.73828 0.38672 1.3477 0.94922 1.8281 1.6875 0.47656 0.74219 0.85156 1.6406 1.125 2.7031 0.26953 1.0547 0.40625 2.4766 0.40625 4.2656 0 2.125-0.21875 3.8438-0.65625 5.1562-0.4375 1.3047-1.0938 2.3125-1.9688 3.0312-0.86719 0.71094-1.9609 1.0625-3.2812 1.0625-1.75 0-3.1211-0.625-4.1094-1.875-1.1992-1.5078-1.7969-3.9688-1.7969-7.375zm2.2812 0c0 2.9805 0.34766 4.9648 1.0469 5.9531 0.69531 0.98047 1.5547 1.4688 2.5781 1.4688 1.0195 0 1.8789-0.49219 2.5781-1.4844 0.69531-0.98828 1.0469-2.9688 1.0469-5.9375 0-2.9766-0.35156-4.957-1.0469-5.9375-0.69922-0.97656-1.5703-1.4688-2.6094-1.4688-1.0234 0-1.8359 0.43359-2.4375 1.2969-0.77344 1.1055-1.1562 3.1406-1.1562 6.1094z"/>
  </g>
  <g id="use87501" transform="matrix(.35278 0 0 .35278 27.434 249.67)" style="fill:#1c1c19"></g>
  <g id="use87503" transform="matrix(.35278 0 0 .35278 29.652 249.67)" style="fill:#1c1c19">
   <path id="path97872" d="m17.906-9.5938 0.32812-1.7188h-14.953l-0.32812 1.7188zm-1.0469 5.5781 0.32812-1.7031h-14.953l-0.32812 1.7031z"/>
  </g>
  <g id="use87505" transform="matrix(.35278 0 0 .35278 35.796 249.67)" style="fill:#1c1c19"></g>
  <path id="path87509" d="m43.661 274.95h13.88" style="fill:none;stroke-linecap:square;stroke-miterlimit:10;stroke-width:.40287;stroke:#000"/>
  <g id="use87511" transform="matrix(.35278 0 0 .35278 44.22 271.6)"></g>
  <g id="use87513" transform="matrix(.35278 0 0 .35278 46.702 271.6)">
   <path id="path97884" d="m0.79688-5.4375v-2.2344h6.8438v2.2344z"/>
  </g>
  <g id="use87515" transform="matrix(.35278 0 0 .35278 49.674 271.6)">
   <path id="path97888" d="m9.4219 0h-2.2188v-14.172c-0.54297 0.51172-1.2461 1.0234-2.1094 1.5312-0.86719 0.51172-1.6484 0.89844-2.3438 1.1562v-2.1562c1.25-0.58203 2.3359-1.2891 3.2656-2.125 0.92578-0.83203 1.582-1.6406 1.9688-2.4219h1.4375z"/>
  </g>
  <g id="use87519" transform="matrix(.35278 0 0 .35278 48.942 283.87)">
   <path id="path97892" d="m1.0469-4.75 2.3438-0.1875c0.16406 1.1367 0.5625 1.9922 1.1875 2.5625 0.63281 0.57422 1.3984 0.85938 2.2969 0.85938 1.0625 0 1.9609-0.39844 2.7031-1.2031 0.75-0.8125 1.125-1.8828 1.125-3.2188 0-1.2695-0.35938-2.2695-1.0781-3-0.71094-0.73828-1.6406-1.1094-2.7969-1.1094-0.71875 0-1.3672 0.16797-1.9375 0.5-0.57422 0.32422-1.0273 0.74609-1.3594 1.2656l-2.0938-0.28125 1.7656-9.2969h9v2.125h-7.2188l-0.98438 4.8594c1.082-0.75 2.2227-1.125 3.4219-1.125 1.582 0 2.9141 0.54688 4 1.6406 1.0938 1.0938 1.6406 2.5 1.6406 4.2188 0 1.6367-0.48047 3.0547-1.4375 4.25-1.168 1.4688-2.75 2.2031-4.75 2.2031-1.6562 0-3.0078-0.45703-4.0469-1.375-1.043-0.92578-1.6367-2.1562-1.7812-3.6875z"/>
  </g>
  <g id="use87523" transform="matrix(.35278 0 0 .35278 27.434 277.74)" style="fill:#1c1c19"></g>
  <g id="use87525" transform="matrix(.35278 0 0 .35278 29.652 277.74)" style="fill:#1c1c19">
   <path id="path97900" d="m17.906-9.5938 0.32812-1.7188h-14.953l-0.32812 1.7188zm-1.0469 5.5781 0.32812-1.7031h-14.953l-0.32812 1.7031z"/>
  </g>
  <g id="use87527" transform="matrix(.35278 0 0 .35278 35.796 277.74)" style="fill:#1c1c19"></g>
  <g id="use87545" transform="matrix(.35278 0 0 .35278 136.27 277.73)"></g>
  <g id="use87547" transform="matrix(.35278 0 0 .35278 138.75 277.73)">
   <path id="path97912" d="m0.79688-5.4375v-2.2344h6.8438v2.2344z"/>
  </g>
  <g id="use87549" transform="matrix(.35278 0 0 .35278 141.72 277.73)">
   <path id="path97916" d="m9.4219 0h-2.2188v-14.172c-0.54297 0.51172-1.2461 1.0234-2.1094 1.5312-0.86719 0.51172-1.6484 0.89844-2.3438 1.1562v-2.1562c1.25-0.58203 2.3359-1.2891 3.2656-2.125 0.92578-0.83203 1.582-1.6406 1.9688-2.4219h1.4375z"/>
  </g>
  <g id="use87553" transform="matrix(.35278 0 0 .35278 83.75 213.95)">
   <path id="path97920" d="m10.234-1.625c-0.82422 0.71094-1.6211 1.2109-2.3906 1.5-0.76172 0.28125-1.5781 0.42188-2.4531 0.42188-1.4375 0-2.5469-0.34766-3.3281-1.0469-0.77344-0.70703-1.1562-1.6094-1.1562-2.7031 0-0.64453 0.14453-1.2344 0.4375-1.7656 0.30078-0.53125 0.6875-0.95703 1.1562-1.2812 0.47656-0.32031 1.0078-0.5625 1.5938-0.71875 0.4375-0.125 1.0977-0.23828 1.9844-0.34375 1.7891-0.20703 3.1133-0.46094 3.9688-0.76562v-0.57812c0-0.90625-0.21094-1.5469-0.625-1.9219-0.5625-0.5-1.4062-0.75-2.5312-0.75-1.043 0-1.8125 0.1875-2.3125 0.5625-0.5 0.36719-0.87109 1.0117-1.1094 1.9375l-2.1719-0.29688c0.19531-0.92578 0.51953-1.6758 0.96875-2.25 0.45703-0.57031 1.1133-1.0156 1.9688-1.3281 0.85156-0.3125 1.8477-0.46875 2.9844-0.46875 1.1133 0 2.0195 0.13672 2.7188 0.40625 0.70703 0.26172 1.2227 0.59375 1.5469 1 0.33203 0.39844 0.5625 0.89844 0.6875 1.5 0.08203 0.38672 0.125 1.0703 0.125 2.0469v2.9688c0 2.0742 0.04687 3.3867 0.14062 3.9375 0.09375 0.54297 0.28125 1.0625 0.5625 1.5625h-2.3281c-0.23047-0.45703-0.375-1-0.4375-1.625zm-0.1875-4.9531c-0.8125 0.32422-2.0273 0.60156-3.6406 0.82812-0.90625 0.13672-1.5547 0.28906-1.9375 0.45312-0.375 0.16797-0.66797 0.41406-0.875 0.73438-0.21094 0.3125-0.3125 0.66406-0.3125 1.0469 0 0.59375 0.22266 1.0898 0.67188 1.4844 0.44531 0.39844 1.1016 0.59375 1.9688 0.59375 0.86328 0 1.6289-0.1875 2.2969-0.5625 0.66406-0.375 1.1562-0.89062 1.4688-1.5469 0.23828-0.5 0.35938-1.2383 0.35938-2.2188z"/>
  </g>
  <g id="use87555" transform="matrix(.35278 0 0 .35278 88.713 213.95)">
   <path id="path97924" d="m1.6719 0v-13.125h2v1.875c0.95703-1.4453 2.3477-2.1719 4.1719-2.1719 0.78906 0 1.5156 0.14844 2.1719 0.4375 0.66406 0.28125 1.1602 0.65625 1.4844 1.125 0.33203 0.46094 0.56641 1 0.70312 1.625 0.08203 0.41797 0.125 1.1406 0.125 2.1719v8.0625h-2.2188v-7.9844c0-0.90625-0.08984-1.582-0.26562-2.0312-0.17969-0.44531-0.48438-0.80078-0.92188-1.0625-0.4375-0.26953-0.95312-0.40625-1.5469-0.40625-0.94922 0-1.7656 0.30469-2.4531 0.90625-0.6875 0.59375-1.0312 1.7305-1.0312 3.4062v7.1719z"/>
  </g>
  <g id="use87557" transform="matrix(.35278 0 0 .35278 93.677 213.95)">
   <path id="path97928" d="m10.172 0v-1.6562c-0.82422 1.3047-2.043 1.9531-3.6562 1.9531-1.0547 0-2.0156-0.28906-2.8906-0.85938-0.875-0.58203-1.5586-1.3906-2.0469-2.4219-0.48047-1.0312-0.71875-2.2188-0.71875-3.5625 0-1.3125 0.21875-2.5 0.65625-3.5625s1.0938-1.8789 1.9688-2.4531c0.875-0.57031 1.8477-0.85938 2.9219-0.85938 0.78906 0 1.4922 0.17188 2.1094 0.51562 0.625 0.33594 1.1289 0.76562 1.5156 1.2969v-6.5h2.2031v18.109zm-7.0156-6.5469c0 1.6797 0.35156 2.9336 1.0625 3.7656 0.70703 0.83594 1.5391 1.25 2.5 1.25 0.96875 0 1.7891-0.39453 2.4688-1.1875 0.6875-0.80078 1.0312-2.0156 1.0312-3.6406 0-1.7891-0.35156-3.1094-1.0469-3.9531-0.6875-0.84375-1.5391-1.2656-2.5469-1.2656-0.99219 0-1.8203 0.40625-2.4844 1.2188-0.65625 0.80469-0.98438 2.0742-0.98438 3.8125z"/>
  </g>
  <g id="use87561" transform="matrix(.35278 0 0 .35278 119.48 277.74)" style="fill:#1c1c19"></g>
  <g id="use87563" transform="matrix(.35278 0 0 .35278 121.7 277.74)" style="fill:#1c1c19">
   <path id="path97936" d="m17.906-9.5938 0.32812-1.7188h-14.953l-0.32812 1.7188zm-1.0469 5.5781 0.32812-1.7031h-14.953l-0.32812 1.7031z"/>
  </g>
  <g id="use87565" transform="matrix(.35278 0 0 .35278 127.84 277.74)" style="fill:#1c1c19"></g>
  <path id="path87569" d="m135.71 246.88h16.977" style="fill:none;stroke-linecap:square;stroke-miterlimit:10;stroke-width:.40287;stroke:#000"/>
  <g id="use87571" transform="matrix(.35278 0 0 .35278 136.27 243.54)">
   <path id="path97944" d="m0.79688-5.4375v-2.2344h6.8438v2.2344z"/>
  </g>
  <g id="use87573" transform="matrix(.35278 0 0 .35278 139.24 243.54)">
   <path id="path97948" d="m9.4219 0h-2.2188v-14.172c-0.54297 0.51172-1.2461 1.0234-2.1094 1.5312-0.86719 0.51172-1.6484 0.89844-2.3438 1.1562v-2.1562c1.25-0.58203 2.3359-1.2891 3.2656-2.125 0.92578-0.83203 1.582-1.6406 1.9688-2.4219h1.4375z"/>
  </g>
  <g id="use87575" transform="matrix(.35278 0 0 .35278 144.2 243.54)">
   <path id="path97952" d="m1.0469-8.9375c0-2.1328 0.21875-3.8516 0.65625-5.1562 0.44531-1.3125 1.1016-2.3203 1.9688-3.0312 0.875-0.70703 1.9688-1.0625 3.2812-1.0625 0.96875 0 1.8164 0.19922 2.5469 0.59375 0.73828 0.38672 1.3477 0.94922 1.8281 1.6875 0.47656 0.74219 0.85156 1.6406 1.125 2.7031 0.26953 1.0547 0.40625 2.4766 0.40625 4.2656 0 2.125-0.21875 3.8438-0.65625 5.1562-0.4375 1.3047-1.0938 2.3125-1.9688 3.0312-0.86719 0.71094-1.9609 1.0625-3.2812 1.0625-1.75 0-3.1211-0.625-4.1094-1.875-1.1992-1.5078-1.7969-3.9688-1.7969-7.375zm2.2812 0c0 2.9805 0.34766 4.9648 1.0469 5.9531 0.69531 0.98047 1.5547 1.4688 2.5781 1.4688 1.0195 0 1.8789-0.49219 2.5781-1.4844 0.69531-0.98828 1.0469-2.9688 1.0469-5.9375 0-2.9766-0.35156-4.957-1.0469-5.9375-0.69922-0.97656-1.5703-1.4688-2.6094-1.4688-1.0234 0-1.8359 0.43359-2.4375 1.2969-0.77344 1.1055-1.1562 3.1406-1.1562 6.1094z"/>
  </g>
  <g id="use87579" transform="matrix(.35278 0 0 .35278 137.19 255.81)"></g>
  <g id="use87581" transform="matrix(.35278 0 0 .35278 139.67 255.81)">
   <path id="path97960" d="m9.4219 0h-2.2188v-14.172c-0.54297 0.51172-1.2461 1.0234-2.1094 1.5312-0.86719 0.51172-1.6484 0.89844-2.3438 1.1562v-2.1562c1.25-0.58203 2.3359-1.2891 3.2656-2.125 0.92578-0.83203 1.582-1.6406 1.9688-2.4219h1.4375z"/>
  </g>
  <g id="use87583" transform="matrix(.35278 0 0 .35278 144.63 255.81)">
   <path id="path97964" d="m1.0469-8.9375c0-2.1328 0.21875-3.8516 0.65625-5.1562 0.44531-1.3125 1.1016-2.3203 1.9688-3.0312 0.875-0.70703 1.9688-1.0625 3.2812-1.0625 0.96875 0 1.8164 0.19922 2.5469 0.59375 0.73828 0.38672 1.3477 0.94922 1.8281 1.6875 0.47656 0.74219 0.85156 1.6406 1.125 2.7031 0.26953 1.0547 0.40625 2.4766 0.40625 4.2656 0 2.125-0.21875 3.8438-0.65625 5.1562-0.4375 1.3047-1.0938 2.3125-1.9688 3.0312-0.86719 0.71094-1.9609 1.0625-3.2812 1.0625-1.75 0-3.1211-0.625-4.1094-1.875-1.1992-1.5078-1.7969-3.9688-1.7969-7.375zm2.2812 0c0 2.9805 0.34766 4.9648 1.0469 5.9531 0.69531 0.98047 1.5547 1.4688 2.5781 1.4688 1.0195 0 1.8789-0.49219 2.5781-1.4844 0.69531-0.98828 1.0469-2.9688 1.0469-5.9375 0-2.9766-0.35156-4.957-1.0469-5.9375-0.69922-0.97656-1.5703-1.4688-2.6094-1.4688-1.0234 0-1.8359 0.43359-2.4375 1.2969-0.77344 1.1055-1.1562 3.1406-1.1562 6.1094z"/>
  </g>
  <g id="use87587" transform="matrix(.35278 0 0 .35278 119.48 249.67)" style="fill:#1c1c19"></g>
  <g id="use87589" transform="matrix(.35278 0 0 .35278 121.7 249.67)" style="fill:#1c1c19">
   <path id="path97972" d="m17.906-9.5938 0.32812-1.7188h-14.953l-0.32812 1.7188zm-1.0469 5.5781 0.32812-1.7031h-14.953l-0.32812 1.7031z"/>
  </g>
  <g id="use87591" transform="matrix(.35278 0 0 .35278 127.84 249.67)" style="fill:#1c1c19"></g>
  <path id="path87595" d="m133.98 211.16h25.824" style="fill:none;stroke-linecap:square;stroke-miterlimit:10;stroke-width:.40287;stroke:#000"/>
  <g id="use87597" transform="matrix(.35278 0 0 .35278 134.53 207.81)">
   <path id="path97980" d="m0.79688-5.4375v-2.2344h6.8438v2.2344z"/>
  </g>
  <g id="use87599" transform="matrix(.35278 0 0 .35278 137.51 207.81)">
   <path id="path97984" d="m12.594-13.672-2.2188 0.17188c-0.19922-0.875-0.48047-1.5078-0.84375-1.9062-0.59375-0.63281-1.3359-0.95312-2.2188-0.95312-0.71094 0-1.3281 0.19922-1.8594 0.59375-0.71094 0.51172-1.2656 1.2578-1.6719 2.2344-0.39844 0.98047-0.60547 2.375-0.625 4.1875 0.53906-0.8125 1.1953-1.4141 1.9688-1.8125 0.76953-0.39453 1.582-0.59375 2.4375-0.59375 1.4766 0 2.7383 0.54688 3.7812 1.6406 1.0391 1.0938 1.5625 2.5078 1.5625 4.2344 0 1.1367-0.24609 2.1953-0.73438 3.1719-0.49219 0.96875-1.1641 1.7148-2.0156 2.2344-0.85547 0.51953-1.8281 0.78125-2.9219 0.78125-1.8555 0-3.3672-0.67969-4.5312-2.0469-1.168-1.3633-1.75-3.6094-1.75-6.7344 0-3.5 0.64453-6.0469 1.9375-7.6406 1.125-1.3828 2.6445-2.0781 4.5625-2.0781 1.4141 0 2.5781 0.40234 3.4844 1.2031 0.91406 0.80469 1.4688 1.9062 1.6562 3.3125zm-9.0781 7.7969c0 0.77344 0.16016 1.5078 0.48438 2.2031 0.32031 0.69922 0.77344 1.2344 1.3594 1.6094 0.58203 0.36719 1.1953 0.54688 1.8438 0.54688 0.9375 0 1.7422-0.37891 2.4219-1.1406 0.67578-0.75781 1.0156-1.7891 1.0156-3.0938 0-1.25-0.33594-2.2344-1-2.9531-0.66797-0.71875-1.5117-1.0781-2.5312-1.0781-1 0-1.8516 0.35938-2.5469 1.0781-0.69922 0.71875-1.0469 1.6641-1.0469 2.8281z"/>
  </g>
  <g id="use87601" transform="matrix(.35278 0 0 .35278 142.47 207.81)"></g>
  <g id="use87603" transform="matrix(.35278 0 0 .35278 144.95 207.81)">
   <path id="path97992" d="m0.79688-5.4375v-2.2344h6.8438v2.2344z"/>
  </g>
  <g id="use87605" transform="matrix(.35278 0 0 .35278 147.92 207.81)"></g>
  <g id="use87607" transform="matrix(.35278 0 0 .35278 150.41 207.81)">
   <path id="path98000" d="m8.1719 0v-4.3281h-7.8438v-2.0469l8.25-11.734h1.8281v11.734h2.4375v2.0469h-2.4375v4.3281zm0-6.375v-8.1562l-5.6719 8.1562z"/>
  </g>
  <g id="use87611" transform="matrix(.35278 0 0 .35278 141.78 220.09)">
   <path id="path98004" d="m9.4219 0h-2.2188v-14.172c-0.54297 0.51172-1.2461 1.0234-2.1094 1.5312-0.86719 0.51172-1.6484 0.89844-2.3438 1.1562v-2.1562c1.25-0.58203 2.3359-1.2891 3.2656-2.125 0.92578-0.83203 1.582-1.6406 1.9688-2.4219h1.4375z"/>
  </g>
  <g id="use87613" transform="matrix(.35278 0 0 .35278 146.75 220.09)">
   <path id="path98008" d="m1.0469-8.9375c0-2.1328 0.21875-3.8516 0.65625-5.1562 0.44531-1.3125 1.1016-2.3203 1.9688-3.0312 0.875-0.70703 1.9688-1.0625 3.2812-1.0625 0.96875 0 1.8164 0.19922 2.5469 0.59375 0.73828 0.38672 1.3477 0.94922 1.8281 1.6875 0.47656 0.74219 0.85156 1.6406 1.125 2.7031 0.26953 1.0547 0.40625 2.4766 0.40625 4.2656 0 2.125-0.21875 3.8438-0.65625 5.1562-0.4375 1.3047-1.0938 2.3125-1.9688 3.0312-0.86719 0.71094-1.9609 1.0625-3.2812 1.0625-1.75 0-3.1211-0.625-4.1094-1.875-1.1992-1.5078-1.7969-3.9688-1.7969-7.375zm2.2812 0c0 2.9805 0.34766 4.9648 1.0469 5.9531 0.69531 0.98047 1.5547 1.4688 2.5781 1.4688 1.0195 0 1.8789-0.49219 2.5781-1.4844 0.69531-0.98828 1.0469-2.9688 1.0469-5.9375 0-2.9766-0.35156-4.957-1.0469-5.9375-0.69922-0.97656-1.5703-1.4688-2.6094-1.4688-1.0234 0-1.8359 0.43359-2.4375 1.2969-0.77344 1.1055-1.1562 3.1406-1.1562 6.1094z"/>
  </g>
  <g id="use87617" transform="matrix(.35278 0 0 .35278 114.98 213.95)" style="fill:#1c1c19">
   <path id="path98012" d="m3.0469-13.781 3.4844 6.75-6.2969 7.0312h2.8125l2.6094-3.1094c0.67188-0.82812 1.3125-1.5625 1.9219-2.3906h0.0625c0.32812 0.82812 0.65625 1.5938 1.0469 2.3906l1.4844 3.1094h2.9062l-3.5938-7.125 6.0156-6.6562h-2.75l-2.5156 2.9219c-0.60938 0.75-1.1875 1.4531-1.8125 2.2812h-0.09375c-0.3125-0.76562-0.60938-1.4844-1-2.25l-1.4531-2.9531z"/>
  </g>
  <g id="use87619" transform="matrix(.35278 0 0 .35278 119.76 213.95)" style="fill:#1c1c19"></g>
  <g id="use87621" transform="matrix(.35278 0 0 .35278 121.98 213.95)" style="fill:#1c1c19">
   <path id="path98020" d="m17.906-9.5938 0.32812-1.7188h-14.953l-0.32812 1.7188zm-1.0469 5.5781 0.32812-1.7031h-14.953l-0.32812 1.7031z"/>
  </g>
  <g id="use87623" transform="matrix(.35278 0 0 .35278 128.13 213.95)" style="fill:#1c1c19"></g>
  <path id="path87627" d="m38.827 77.357h73.098" style="fill:none;stroke-linecap:square;stroke-miterlimit:10;stroke-width:.40287;stroke:#000"/>
  <g id="use87629" transform="matrix(.35278 0 0 .35278 39.387 74.009)">
   <path id="path98028" d="m0.79688-5.4375v-2.2344h6.8438v2.2344z"/>
  </g>
  <g id="use87631" transform="matrix(.35278 0 0 .35278 42.359 74.009)">
   <path id="path98032" d="m5.9219 5.3281c-1.2305-1.5547-2.2734-3.3672-3.125-5.4375-0.84375-2.0703-1.2656-4.2227-1.2656-6.4531 0-1.957 0.31641-3.832 0.95312-5.625 0.73828-2.082 1.8828-4.1602 3.4375-6.2344h1.5938c-1 1.7188-1.6641 2.9453-1.9844 3.6719-0.5 1.1367-0.89844 2.3242-1.1875 3.5625-0.35547 1.543-0.53125 3.0898-0.53125 4.6406 0 3.9609 1.2344 7.9141 3.7031 11.875z"/>
  </g>
  <g id="use87633" transform="matrix(.35278 0 0 .35278 45.332 74.009)">
   <path id="path98036" d="m12.594-13.672-2.2188 0.17188c-0.19922-0.875-0.48047-1.5078-0.84375-1.9062-0.59375-0.63281-1.3359-0.95312-2.2188-0.95312-0.71094 0-1.3281 0.19922-1.8594 0.59375-0.71094 0.51172-1.2656 1.2578-1.6719 2.2344-0.39844 0.98047-0.60547 2.375-0.625 4.1875 0.53906-0.8125 1.1953-1.4141 1.9688-1.8125 0.76953-0.39453 1.582-0.59375 2.4375-0.59375 1.4766 0 2.7383 0.54688 3.7812 1.6406 1.0391 1.0938 1.5625 2.5078 1.5625 4.2344 0 1.1367-0.24609 2.1953-0.73438 3.1719-0.49219 0.96875-1.1641 1.7148-2.0156 2.2344-0.85547 0.51953-1.8281 0.78125-2.9219 0.78125-1.8555 0-3.3672-0.67969-4.5312-2.0469-1.168-1.3633-1.75-3.6094-1.75-6.7344 0-3.5 0.64453-6.0469 1.9375-7.6406 1.125-1.3828 2.6445-2.0781 4.5625-2.0781 1.4141 0 2.5781 0.40234 3.4844 1.2031 0.91406 0.80469 1.4688 1.9062 1.6562 3.3125zm-9.0781 7.7969c0 0.77344 0.16016 1.5078 0.48438 2.2031 0.32031 0.69922 0.77344 1.2344 1.3594 1.6094 0.58203 0.36719 1.1953 0.54688 1.8438 0.54688 0.9375 0 1.7422-0.37891 2.4219-1.1406 0.67578-0.75781 1.0156-1.7891 1.0156-3.0938 0-1.25-0.33594-2.2344-1-2.9531-0.66797-0.71875-1.5117-1.0781-2.5312-1.0781-1 0-1.8516 0.35938-2.5469 1.0781-0.69922 0.71875-1.0469 1.6641-1.0469 2.8281z"/>
  </g>
  <g id="use87635" transform="matrix(.35278 0 0 .35278 50.295 74.009)">
   <path id="path98040" d="m3.125 5.3281h-1.5938c2.457-3.9609 3.6875-7.9141 3.6875-11.875 0-1.5508-0.17969-3.0859-0.53125-4.6094-0.27344-1.2266-0.66406-2.4141-1.1719-3.5625-0.32422-0.73828-0.98438-1.9727-1.9844-3.7031h1.5938c1.5508 2.0742 2.6953 4.1523 3.4375 6.2344 0.63281 1.793 0.95312 3.668 0.95312 5.625 0 2.2305-0.42969 4.3828-1.2812 6.4531-0.85547 2.0703-1.8906 3.8828-3.1094 5.4375z"/>
  </g>
  <g id="use87637" transform="matrix(.35278 0 0 .35278 53.268 74.009)"></g>
  <g id="use87639" transform="matrix(.35278 0 0 .35278 55.749 74.009)">
   <path id="path98048" d="m5.8906-3.2188v-4.9688h-4.9219v-2.0625h4.9219v-4.9375h2.0938v4.9375h4.9375v2.0625h-4.9375v4.9688zm7.0312 3.2188h-11.953v-2.0781h11.953z"/>
  </g>
  <g id="use87641" transform="matrix(.35278 0 0 .35278 60.65 74.009)"></g>
  <g id="use87643" transform="matrix(.35278 0 0 .35278 63.132 74.009)">
   <path id="path98056" d="m12.969-23.078h0.92188l-3.8594 24.047-6.125-12.609-2.4531 1.1094-0.42188-0.78125 3.7188-1.8594 5.0156 10.156z"/>
  </g>
  <g id="use87645" transform="matrix(.35278 0 0 .35278 68.032 74.009)"></g>
  <g id="use87647" transform="matrix(.35278 0 0 .35278 70.514 74.009)">
   <path id="path98064" d="m12.594-13.672-2.2188 0.17188c-0.19922-0.875-0.48047-1.5078-0.84375-1.9062-0.59375-0.63281-1.3359-0.95312-2.2188-0.95312-0.71094 0-1.3281 0.19922-1.8594 0.59375-0.71094 0.51172-1.2656 1.2578-1.6719 2.2344-0.39844 0.98047-0.60547 2.375-0.625 4.1875 0.53906-0.8125 1.1953-1.4141 1.9688-1.8125 0.76953-0.39453 1.582-0.59375 2.4375-0.59375 1.4766 0 2.7383 0.54688 3.7812 1.6406 1.0391 1.0938 1.5625 2.5078 1.5625 4.2344 0 1.1367-0.24609 2.1953-0.73438 3.1719-0.49219 0.96875-1.1641 1.7148-2.0156 2.2344-0.85547 0.51953-1.8281 0.78125-2.9219 0.78125-1.8555 0-3.3672-0.67969-4.5312-2.0469-1.168-1.3633-1.75-3.6094-1.75-6.7344 0-3.5 0.64453-6.0469 1.9375-7.6406 1.125-1.3828 2.6445-2.0781 4.5625-2.0781 1.4141 0 2.5781 0.40234 3.4844 1.2031 0.91406 0.80469 1.4688 1.9062 1.6562 3.3125zm-9.0781 7.7969c0 0.77344 0.16016 1.5078 0.48438 2.2031 0.32031 0.69922 0.77344 1.2344 1.3594 1.6094 0.58203 0.36719 1.1953 0.54688 1.8438 0.54688 0.9375 0 1.7422-0.37891 2.4219-1.1406 0.67578-0.75781 1.0156-1.7891 1.0156-3.0938 0-1.25-0.33594-2.2344-1-2.9531-0.66797-0.71875-1.5117-1.0781-2.5312-1.0781-1 0-1.8516 0.35938-2.5469 1.0781-0.69922 0.71875-1.0469 1.6641-1.0469 2.8281z"/>
  </g>
  <g id="use87651" transform="matrix(.35278 0 0 .35278 75.473 71.035)">
   <path id="path98068" d="m7.4219-1.25v1.25h-6.9688c-0.011719-0.3125 0.035156-0.61328 0.14062-0.90625 0.17578-0.46875 0.45703-0.92969 0.84375-1.3906 0.39453-0.46875 0.96094-1.0039 1.7031-1.6094 1.1562-0.9375 1.9297-1.6797 2.3281-2.2344 0.40625-0.55078 0.60938-1.0703 0.60938-1.5625 0-0.50781-0.18359-0.94141-0.54688-1.2969-0.36719-0.35156-0.84375-0.53125-1.4375-0.53125-0.625 0-1.125 0.1875-1.5 0.5625s-0.5625 0.89844-0.5625 1.5625l-1.3438-0.14062c0.09375-0.98828 0.4375-1.7422 1.0312-2.2656 0.59375-0.53125 1.3945-0.79688 2.4062-0.79688 1.0078 0 1.8047 0.28125 2.3906 0.84375 0.59375 0.5625 0.89062 1.2617 0.89062 2.0938 0 0.42969-0.089844 0.84375-0.26562 1.25-0.16797 0.40625-0.45312 0.83984-0.85938 1.2969-0.39844 0.44922-1.0586 1.0625-1.9844 1.8438-0.78125 0.65625-1.2812 1.1055-1.5 1.3438-0.21875 0.23047-0.40234 0.46094-0.54688 0.6875z"/>
  </g>
  <g id="use87653" transform="matrix(.35278 0 0 .35278 78.366 71.035)"></g>
  <g id="use87657" transform="matrix(.35278 0 0 .35278 79.813 74.009)">
   <path id="path98076" d="m0.79688-5.4375v-2.2344h6.8438v2.2344z"/>
  </g>
  <g id="use87659" transform="matrix(.35278 0 0 .35278 82.785 74.009)"></g>
  <g id="use87661" transform="matrix(.35278 0 0 .35278 85.267 74.009)">
   <path id="path98084" d="m8.1719 0v-4.3281h-7.8438v-2.0469l8.25-11.734h1.8281v11.734h2.4375v2.0469h-2.4375v4.3281zm0-6.375v-8.1562l-5.6719 8.1562z"/>
  </g>
  <g id="use87663" transform="matrix(.35278 0 0 .35278 90.23 74.009)">
   <path id="path98088" d="m5.9219 5.3281c-1.2305-1.5547-2.2734-3.3672-3.125-5.4375-0.84375-2.0703-1.2656-4.2227-1.2656-6.4531 0-1.957 0.31641-3.832 0.95312-5.625 0.73828-2.082 1.8828-4.1602 3.4375-6.2344h1.5938c-1 1.7188-1.6641 2.9453-1.9844 3.6719-0.5 1.1367-0.89844 2.3242-1.1875 3.5625-0.35547 1.543-0.53125 3.0898-0.53125 4.6406 0 3.9609 1.2344 7.9141 3.7031 11.875z"/>
  </g>
  <g id="use87665" transform="matrix(.35278 0 0 .35278 93.203 74.009)">
   <path id="path98092" d="m1.0469-4.75 2.3438-0.1875c0.16406 1.1367 0.5625 1.9922 1.1875 2.5625 0.63281 0.57422 1.3984 0.85938 2.2969 0.85938 1.0625 0 1.9609-0.39844 2.7031-1.2031 0.75-0.8125 1.125-1.8828 1.125-3.2188 0-1.2695-0.35938-2.2695-1.0781-3-0.71094-0.73828-1.6406-1.1094-2.7969-1.1094-0.71875 0-1.3672 0.16797-1.9375 0.5-0.57422 0.32422-1.0273 0.74609-1.3594 1.2656l-2.0938-0.28125 1.7656-9.2969h9v2.125h-7.2188l-0.98438 4.8594c1.082-0.75 2.2227-1.125 3.4219-1.125 1.582 0 2.9141 0.54688 4 1.6406 1.0938 1.0938 1.6406 2.5 1.6406 4.2188 0 1.6367-0.48047 3.0547-1.4375 4.25-1.168 1.4688-2.75 2.2031-4.75 2.2031-1.6562 0-3.0078-0.45703-4.0469-1.375-1.043-0.92578-1.6367-2.1562-1.7812-3.6875z"/>
  </g>
  <g id="use87667" transform="matrix(.35278 0 0 .35278 98.166 74.009)">
   <path id="path98096" d="m3.125 5.3281h-1.5938c2.457-3.9609 3.6875-7.9141 3.6875-11.875 0-1.5508-0.17969-3.0859-0.53125-4.6094-0.27344-1.2266-0.66406-2.4141-1.1719-3.5625-0.32422-0.73828-0.98438-1.9727-1.9844-3.7031h1.5938c1.5508 2.0742 2.6953 4.1523 3.4375 6.2344 0.63281 1.793 0.95312 3.668 0.95312 5.625 0 2.2305-0.42969 4.3828-1.2812 6.4531-0.85547 2.0703-1.8906 3.8828-3.1094 5.4375z"/>
  </g>
  <g id="use87669" transform="matrix(.35278 0 0 .35278 101.14 74.009)">
   <path id="path98100" d="m5.9219 5.3281c-1.2305-1.5547-2.2734-3.3672-3.125-5.4375-0.84375-2.0703-1.2656-4.2227-1.2656-6.4531 0-1.957 0.31641-3.832 0.95312-5.625 0.73828-2.082 1.8828-4.1602 3.4375-6.2344h1.5938c-1 1.7188-1.6641 2.9453-1.9844 3.6719-0.5 1.1367-0.89844 2.3242-1.1875 3.5625-0.35547 1.543-0.53125 3.0898-0.53125 4.6406 0 3.9609 1.2344 7.9141 3.7031 11.875z"/>
  </g>
  <g id="use87671" transform="matrix(.35278 0 0 .35278 104.11 74.009)">
   <path id="path98104" d="m9.4219 0h-2.2188v-14.172c-0.54297 0.51172-1.2461 1.0234-2.1094 1.5312-0.86719 0.51172-1.6484 0.89844-2.3438 1.1562v-2.1562c1.25-0.58203 2.3359-1.2891 3.2656-2.125 0.92578-0.83203 1.582-1.6406 1.9688-2.4219h1.4375z"/>
  </g>
  <g id="use87673" transform="matrix(.35278 0 0 .35278 109.07 74.009)">
   <path id="path98108" d="m3.125 5.3281h-1.5938c2.457-3.9609 3.6875-7.9141 3.6875-11.875 0-1.5508-0.17969-3.0859-0.53125-4.6094-0.27344-1.2266-0.66406-2.4141-1.1719-3.5625-0.32422-0.73828-0.98438-1.9727-1.9844-3.7031h1.5938c1.5508 2.0742 2.6953 4.1523 3.4375 6.2344 0.63281 1.793 0.95312 3.668 0.95312 5.625 0 2.2305-0.42969 4.3828-1.2812 6.4531-0.85547 2.0703-1.8906 3.8828-3.1094 5.4375z"/>
  </g>
  <g id="use87677" transform="matrix(.35278 0 0 .35278 61.486 86.283)">
   <path id="path98112" d="m12.734-2.1406v2.1406h-11.969c-0.023437-0.53125 0.066406-1.0469 0.26562-1.5469 0.30078-0.8125 0.78516-1.6133 1.4531-2.4062 0.67578-0.78906 1.6445-1.7031 2.9062-2.7344 1.9688-1.6133 3.2969-2.8906 3.9844-3.8281 0.69531-0.94531 1.0469-1.8438 1.0469-2.6875 0-0.88281-0.32031-1.6289-0.95312-2.2344-0.625-0.60156-1.4453-0.90625-2.4531-0.90625-1.0742 0-1.9336 0.32422-2.5781 0.96875-0.63672 0.63672-0.96094 1.5273-0.96875 2.6719l-2.2812-0.23438c0.15625-1.707 0.74219-3.0078 1.7656-3.9062 1.0195-0.89453 2.3906-1.3438 4.1094-1.3438 1.7383 0 3.1133 0.48438 4.125 1.4531 1.0078 0.96094 1.5156 2.1523 1.5156 3.5781 0 0.73047-0.14844 1.4453-0.4375 2.1406-0.29297 0.69922-0.78125 1.4375-1.4688 2.2188-0.6875 0.77344-1.8359 1.8281-3.4375 3.1719-1.3359 1.125-2.1953 1.8906-2.5781 2.2969-0.375 0.39844-0.68359 0.79297-0.92188 1.1875z"/>
  </g>
  <g id="use87679" transform="matrix(.35278 0 0 .35278 66.45 86.283)">
   <path id="path98116" d="m5.9219 5.3281c-1.2305-1.5547-2.2734-3.3672-3.125-5.4375-0.84375-2.0703-1.2656-4.2227-1.2656-6.4531 0-1.957 0.31641-3.832 0.95312-5.625 0.73828-2.082 1.8828-4.1602 3.4375-6.2344h1.5938c-1 1.7188-1.6641 2.9453-1.9844 3.6719-0.5 1.1367-0.89844 2.3242-1.1875 3.5625-0.35547 1.543-0.53125 3.0898-0.53125 4.6406 0 3.9609 1.2344 7.9141 3.7031 11.875z"/>
  </g>
  <g id="use87681" transform="matrix(.35278 0 0 .35278 69.422 86.283)">
   <path id="path98120" d="m1.0469-4.75 2.3438-0.1875c0.16406 1.1367 0.5625 1.9922 1.1875 2.5625 0.63281 0.57422 1.3984 0.85938 2.2969 0.85938 1.0625 0 1.9609-0.39844 2.7031-1.2031 0.75-0.8125 1.125-1.8828 1.125-3.2188 0-1.2695-0.35938-2.2695-1.0781-3-0.71094-0.73828-1.6406-1.1094-2.7969-1.1094-0.71875 0-1.3672 0.16797-1.9375 0.5-0.57422 0.32422-1.0273 0.74609-1.3594 1.2656l-2.0938-0.28125 1.7656-9.2969h9v2.125h-7.2188l-0.98438 4.8594c1.082-0.75 2.2227-1.125 3.4219-1.125 1.582 0 2.9141 0.54688 4 1.6406 1.0938 1.0938 1.6406 2.5 1.6406 4.2188 0 1.6367-0.48047 3.0547-1.4375 4.25-1.168 1.4688-2.75 2.2031-4.75 2.2031-1.6562 0-3.0078-0.45703-4.0469-1.375-1.043-0.92578-1.6367-2.1562-1.7812-3.6875z"/>
  </g>
  <g id="use87683" transform="matrix(.35278 0 0 .35278 74.385 86.283)">
   <path id="path98124" d="m3.125 5.3281h-1.5938c2.457-3.9609 3.6875-7.9141 3.6875-11.875 0-1.5508-0.17969-3.0859-0.53125-4.6094-0.27344-1.2266-0.66406-2.4141-1.1719-3.5625-0.32422-0.73828-0.98438-1.9727-1.9844-3.7031h1.5938c1.5508 2.0742 2.6953 4.1523 3.4375 6.2344 0.63281 1.793 0.95312 3.668 0.95312 5.625 0 2.2305-0.42969 4.3828-1.2812 6.4531-0.85547 2.0703-1.8906 3.8828-3.1094 5.4375z"/>
  </g>
  <g id="use87687" transform="matrix(.35278 0 0 .35278 19.833 80.147)" style="fill:#1c1c19">
   <path id="path98128" d="m3.0469-13.781 3.4844 6.75-6.2969 7.0312h2.8125l2.6094-3.1094c0.67188-0.82812 1.3125-1.5625 1.9219-2.3906h0.0625c0.32812 0.82812 0.65625 1.5938 1.0469 2.3906l1.4844 3.1094h2.9062l-3.5938-7.125 6.0156-6.6562h-2.75l-2.5156 2.9219c-0.60938 0.75-1.1875 1.4531-1.8125 2.2812h-0.09375c-0.3125-0.76562-0.60938-1.4844-1-2.25l-1.4531-2.9531z"/>
  </g>
  <g id="use87689" transform="matrix(.35278 0 0 .35278 24.617 80.147)" style="fill:#1c1c19"></g>
  <g id="use87691" transform="matrix(.35278 0 0 .35278 26.835 80.147)" style="fill:#1c1c19">
   <path id="path98136" d="m17.906-9.5938 0.32812-1.7188h-14.953l-0.32812 1.7188zm-1.0469 5.5781 0.32812-1.7031h-14.953l-0.32812 1.7031z"/>
  </g>
  <g id="use87693" transform="matrix(.35278 0 0 .35278 32.979 80.147)" style="fill:#1c1c19"></g>
  <path id="path87697" d="m67.76 65.892h42.974" style="fill:none;stroke-miterlimit:10;stroke-width:.35278;stroke:#000"/>
 </g>
</svg>
