<svg id="svg52134" version="1.1" viewBox="0 0 141.48 85.353" xmlns="http://www.w3.org/2000/svg">
 <title id="title53333">img_68</title>
 <defs id="defs52128">
  <clipPath id="clipPath42577">
   <path id="path42575" d="m252.75 672.05h204.83v-204.83h-204.83z"/>
  </clipPath>
 </defs>
 <g id="layer1" transform="translate(-51.283 -108.06)">
  <g id="g42571" transform="matrix(.35278 0 0 -.35278 -14.926 352.15)">
   <g id="g42655">
    <g id="g42653" clip-path="url(#clipPath42577)" opacity=".41">
     <path id="path42579" d="m252.88 671.92h204.58v-204.58h-204.58z" style="fill:none;stroke-miterlimit:10;stroke-width:.25;stroke:#1d1d1b"/>
     <g id="g42583" transform="translate(252.88 487.8)">
      <path id="path42581" d="m0 0h204.58" style="fill:none;stroke-miterlimit:10;stroke-width:.25;stroke:#1d1d1b"/>
     </g>
     <g id="g42587" transform="translate(252.88 508.26)">
      <path id="path42585" d="m0 0h204.58" style="fill:none;stroke-miterlimit:10;stroke-width:.25;stroke:#1d1d1b"/>
     </g>
     <g id="g42591" transform="translate(252.88 528.72)">
      <path id="path42589" d="m0 0h204.58" style="fill:none;stroke-miterlimit:10;stroke-width:.25;stroke:#1d1d1b"/>
     </g>
     <g id="g42595" transform="translate(252.88 549.18)">
      <path id="path42593" d="m0 0h204.58" style="fill:none;stroke-miterlimit:10;stroke-width:.25;stroke:#1d1d1b"/>
     </g>
     <g id="g42599" transform="translate(252.88 569.64)">
      <path id="path42597" d="m0 0h204.58" style="fill:none;stroke-miterlimit:10;stroke-width:.25;stroke:#1d1d1b"/>
     </g>
     <g id="g42603" transform="translate(252.88 590.09)">
      <path id="path42601" d="m0 0h204.58" style="fill:none;stroke-miterlimit:10;stroke-width:.25;stroke:#1d1d1b"/>
     </g>
     <g id="g42607" transform="translate(252.88 610.55)">
      <path id="path42605" d="m0 0h204.58" style="fill:none;stroke-miterlimit:10;stroke-width:.25;stroke:#1d1d1b"/>
     </g>
     <g id="g42611" transform="translate(252.88 631.01)">
      <path id="path42609" d="m0 0h204.58" style="fill:none;stroke-miterlimit:10;stroke-width:.25;stroke:#1d1d1b"/>
     </g>
     <g id="g42615" transform="translate(252.88 651.47)">
      <path id="path42613" d="m0 0h204.58" style="fill:none;stroke-miterlimit:10;stroke-width:.25;stroke:#1d1d1b"/>
     </g>
     <g id="g42619" transform="translate(437 671.92)">
      <path id="path42617" d="m0 0v-204.58" style="fill:none;stroke-miterlimit:10;stroke-width:.25;stroke:#1d1d1b"/>
     </g>
     <g id="g42623" transform="translate(416.54 671.92)">
      <path id="path42621" d="m0 0v-204.58" style="fill:none;stroke-miterlimit:10;stroke-width:.25;stroke:#1d1d1b"/>
     </g>
     <g id="g42627" transform="translate(396.08 671.92)">
      <path id="path42625" d="m0 0v-204.58" style="fill:none;stroke-miterlimit:10;stroke-width:.25;stroke:#1d1d1b"/>
     </g>
     <g id="g42631" transform="translate(375.62 671.92)">
      <path id="path42629" d="m0 0v-204.58" style="fill:none;stroke-miterlimit:10;stroke-width:.25;stroke:#1d1d1b"/>
     </g>
     <g id="g42635" transform="translate(355.17 671.92)">
      <path id="path42633" d="m0 0v-204.58" style="fill:none;stroke-miterlimit:10;stroke-width:.25;stroke:#1d1d1b"/>
     </g>
     <g id="g42639" transform="translate(334.71 671.92)">
      <path id="path42637" d="m0 0v-204.58" style="fill:none;stroke-miterlimit:10;stroke-width:.25;stroke:#1d1d1b"/>
     </g>
     <g id="g42643" transform="translate(314.25 671.92)">
      <path id="path42641" d="m0 0v-204.58" style="fill:none;stroke-miterlimit:10;stroke-width:.25;stroke:#1d1d1b"/>
     </g>
     <g id="g42647" transform="translate(293.79 671.92)">
      <path id="path42645" d="m0 0v-204.58" style="fill:none;stroke-miterlimit:10;stroke-width:.25;stroke:#1d1d1b"/>
     </g>
     <g id="g42651" transform="translate(273.34 671.92)">
      <path id="path42649" d="m0 0v-204.58" style="fill:none;stroke-miterlimit:10;stroke-width:.25;stroke:#1d1d1b"/>
     </g>
    </g>
   </g>
  </g>
  <g id="g8144" transform="matrix(.35278 0 0 .35278 -14.962 -1711.4)" style="fill:#1c1ca1">
   <g id="use8118" transform="translate(187.17 5316.1)">
    <path id="path49337" d="m4.2344-2.0469 0.95312 0.10938c-0.24219 0.69922-0.58594 1.2188-1.0312 1.5625-0.4375 0.33594-0.9375 0.5-1.5 0.5-0.60547 0-1.1016-0.19531-1.4844-0.59375-0.375-0.39453-0.5625-0.94141-0.5625-1.6406 0-0.61328 0.11719-1.2188 0.35938-1.8125 0.23828-0.59375 0.58203-1.0391 1.0312-1.3438 0.45703-0.3125 0.97656-0.46875 1.5625-0.46875 0.60156 0 1.0781 0.17188 1.4219 0.51562 0.35156 0.33594 0.53125 0.78125 0.53125 1.3438l-0.9375 0.0625c0-0.35156-0.10547-0.62891-0.3125-0.82812-0.19922-0.20703-0.46484-0.3125-0.79688-0.3125-0.375 0-0.71094 0.125-1 0.375-0.28125 0.24219-0.5 0.60938-0.65625 1.1094-0.15625 0.49219-0.23438 0.96484-0.23438 1.4219 0 0.48047 0.10156 0.83984 0.3125 1.0781 0.20703 0.24219 0.46875 0.35938 0.78125 0.35938s0.60938-0.11328 0.89062-0.34375c0.28125-0.23828 0.50391-0.60156 0.67188-1.0938z"/>
   </g>
   <g id="use8120" transform="translate(192.63 5316.1)">
    <path id="path49341" d="m0.28125 0 1.625-7.7344h0.95312l-1.625 7.7344z"/>
   </g>
   <g id="use8122" transform="translate(195.09 5316.1)">
    <path id="path49345" d="m0.53125-2.125c0-1.0938 0.32031-2 0.96875-2.7188 0.53125-0.59375 1.2227-0.89062 2.0781-0.89062 0.67578 0 1.2227 0.21484 1.6406 0.64062 0.41406 0.41797 0.625 0.98438 0.625 1.7031 0 0.64844-0.13281 1.2461-0.39062 1.7969-0.26172 0.55469-0.63672 0.98047-1.125 1.2812-0.48047 0.29297-0.98438 0.4375-1.5156 0.4375-0.42969 0-0.82422-0.09375-1.1875-0.28125-0.35547-0.1875-0.625-0.44531-0.8125-0.78125-0.1875-0.34375-0.28125-0.73828-0.28125-1.1875zm0.95312-0.09375c0 0.52344 0.125 0.92188 0.375 1.2031 0.25781 0.27344 0.58203 0.40625 0.96875 0.40625 0.20703 0 0.41016-0.039063 0.60938-0.125 0.19531-0.082031 0.37891-0.20703 0.54688-0.375 0.17578-0.17578 0.32812-0.36719 0.45312-0.57812 0.125-0.21875 0.22266-0.45312 0.29688-0.70312 0.10156-0.35156 0.15625-0.6875 0.15625-1 0-0.50781-0.13281-0.90625-0.39062-1.1875-0.25-0.28125-0.57031-0.42188-0.95312-0.42188-0.30469 0-0.57812 0.074219-0.82812 0.21875-0.24219 0.14844-0.46094 0.35547-0.65625 0.625-0.19922 0.27344-0.34375 0.58984-0.4375 0.95312-0.09375 0.36719-0.14062 0.69531-0.14062 0.98438z"/>
   </g>
   <g id="use8124" transform="translate(201.15 5316.1)">
    <path id="path49349" d="m0.45312-1.9219 0.95312-0.046875c0 0.27344 0.039063 0.50781 0.125 0.70312 0.082031 0.1875 0.23828 0.34375 0.46875 0.46875 0.22656 0.125 0.49219 0.1875 0.79688 0.1875 0.41406 0 0.72656-0.082031 0.9375-0.25 0.21875-0.17578 0.32812-0.37891 0.32812-0.60938 0-0.15625-0.0625-0.3125-0.1875-0.46875-0.13672-0.14453-0.46094-0.32031-0.96875-0.53125-0.5-0.21875-0.82031-0.375-0.95312-0.46875-0.24219-0.14453-0.42188-0.3125-0.54688-0.5-0.11719-0.19531-0.17188-0.42578-0.17188-0.6875 0-0.4375 0.17578-0.8125 0.53125-1.125 0.35156-0.32031 0.84375-0.48438 1.4688-0.48438 0.70703 0 1.2422 0.16797 1.6094 0.5 0.375 0.32422 0.56641 0.75 0.57812 1.2812l-0.9375 0.0625c-0.011719-0.34375-0.13281-0.61328-0.35938-0.8125-0.21875-0.19531-0.53906-0.29688-0.95312-0.29688-0.33594 0-0.59375 0.078125-0.78125 0.23438-0.17969 0.14844-0.26562 0.30859-0.26562 0.48438 0 0.17969 0.078125 0.33594 0.23438 0.46875 0.11328 0.09375 0.39062 0.23438 0.82812 0.42188 0.72656 0.3125 1.1875 0.5625 1.375 0.75 0.30078 0.29297 0.45312 0.64844 0.45312 1.0625 0 0.28125-0.085937 0.55859-0.25 0.82812-0.16797 0.26172-0.42969 0.47656-0.78125 0.64062-0.35547 0.15625-0.76562 0.23438-1.2344 0.23438-0.64844 0-1.1992-0.16016-1.6562-0.48438-0.46094-0.3125-0.67188-0.83203-0.64062-1.5625z"/>
   </g>
   <g id="use8126" transform="translate(206.62 5316.1)">
    <path id="path49353" d="m4.4844-1.9062 0.92188 0.09375c-0.13672 0.46094-0.44531 0.89844-0.92188 1.3125-0.48047 0.41797-1.0547 0.625-1.7188 0.625-0.41797 0-0.79688-0.09375-1.1406-0.28125-0.34375-0.19531-0.60938-0.47656-0.79688-0.84375-0.17969-0.36328-0.26562-0.78125-0.26562-1.25 0-0.61328 0.14062-1.207 0.42188-1.7812 0.28125-0.57031 0.64453-1 1.0938-1.2812 0.45703-0.28125 0.94531-0.42188 1.4688-0.42188 0.66406 0 1.1953 0.21094 1.5938 0.625 0.40625 0.41797 0.60938 0.98438 0.60938 1.7031 0 0.27344-0.027344 0.55469-0.078125 0.84375h-4.125c-0.011719 0.10547-0.015625 0.20312-0.015625 0.29688 0 0.52344 0.11719 0.92188 0.35938 1.2031 0.23828 0.27344 0.53125 0.40625 0.875 0.40625 0.33203 0 0.65625-0.10156 0.96875-0.3125 0.32031-0.21875 0.57031-0.53125 0.75-0.9375zm-2.7812-1.3906h3.1406c0.007813-0.09375 0.015625-0.16016 0.015625-0.20312 0-0.47656-0.12109-0.84375-0.35938-1.0938-0.24219-0.25781-0.55469-0.39062-0.9375-0.39062-0.40625 0-0.77734 0.14062-1.1094 0.42188-0.33594 0.28125-0.58594 0.70312-0.75 1.2656z"/>
   </g>
   <g id="use8128" transform="translate(212.68 5316.1)">
    <path id="path49357" d="m4.1406-0.8125c-0.54297 0.625-1.1172 0.9375-1.7188 0.9375-0.53125 0-0.97656-0.19141-1.3281-0.57812-0.35547-0.39453-0.53125-0.96875-0.53125-1.7188 0-0.67578 0.14062-1.2969 0.42188-1.8594 0.28125-0.57031 0.62891-1 1.0469-1.2812 0.42578-0.28125 0.85156-0.42188 1.2812-0.42188 0.6875 0 1.2109 0.33984 1.5781 1.0156l0.625-3.0156h0.95312l-1.6094 7.7344h-0.89062zm-2.625-1.5312c0 0.38672 0.035156 0.69531 0.10938 0.92188 0.082031 0.21875 0.21875 0.40625 0.40625 0.5625 0.1875 0.14844 0.41016 0.21875 0.67188 0.21875 0.4375 0 0.82812-0.22266 1.1719-0.67188 0.47656-0.60156 0.71875-1.3438 0.71875-2.2188 0-0.44531-0.12109-0.79688-0.35938-1.0469-0.23047-0.25-0.52344-0.375-0.875-0.375-0.23047 0-0.4375 0.054687-0.625 0.15625-0.1875 0.10547-0.375 0.28125-0.5625 0.53125-0.17969 0.24219-0.33594 0.54688-0.46875 0.92188-0.125 0.375-0.1875 0.71094-0.1875 1z"/>
   </g>
   <g id="use8130" transform="translate(218.75 5316.1)"></g>
   <g id="use8132" transform="translate(221.81 5316.1)">
    <path id="path49365" d="m4.2344-2.0469 0.95312 0.10938c-0.24219 0.69922-0.58594 1.2188-1.0312 1.5625-0.4375 0.33594-0.9375 0.5-1.5 0.5-0.60547 0-1.1016-0.19531-1.4844-0.59375-0.375-0.39453-0.5625-0.94141-0.5625-1.6406 0-0.61328 0.11719-1.2188 0.35938-1.8125 0.23828-0.59375 0.58203-1.0391 1.0312-1.3438 0.45703-0.3125 0.97656-0.46875 1.5625-0.46875 0.60156 0 1.0781 0.17188 1.4219 0.51562 0.35156 0.33594 0.53125 0.78125 0.53125 1.3438l-0.9375 0.0625c0-0.35156-0.10547-0.62891-0.3125-0.82812-0.19922-0.20703-0.46484-0.3125-0.79688-0.3125-0.375 0-0.71094 0.125-1 0.375-0.28125 0.24219-0.5 0.60938-0.65625 1.1094-0.15625 0.49219-0.23438 0.96484-0.23438 1.4219 0 0.48047 0.10156 0.83984 0.3125 1.0781 0.20703 0.24219 0.46875 0.35938 0.78125 0.35938s0.60938-0.11328 0.89062-0.34375c0.28125-0.23828 0.50391-0.60156 0.67188-1.0938z"/>
   </g>
   <g id="use8134" transform="translate(227.27 5316.1)">
    <path id="path49369" d="m1.7188-6.6562 0.21875-1.0781h0.95312l-0.21875 1.0781zm-1.3906 6.6562 1.1719-5.6094h0.95312l-1.1719 5.6094z"/>
   </g>
   <g id="use8136" transform="translate(229.73 5316.1)">
    <path id="path49373" d="m0.35938 0 1.1719-5.6094h0.84375l-0.23438 1.1406c0.28906-0.42578 0.57031-0.74219 0.84375-0.95312 0.28125-0.20703 0.5625-0.3125 0.84375-0.3125 0.19531 0 0.42969 0.070312 0.70312 0.20312l-0.39062 0.89062c-0.16797-0.11328-0.35156-0.17188-0.54688-0.17188-0.33594 0-0.67969 0.1875-1.0312 0.5625-0.34375 0.36719-0.61719 1.0312-0.8125 2l-0.48438 2.25z"/>
   </g>
   <g id="use8138" transform="translate(233.38 5316.1)">
    <path id="path49377" d="m4.2344-2.0469 0.95312 0.10938c-0.24219 0.69922-0.58594 1.2188-1.0312 1.5625-0.4375 0.33594-0.9375 0.5-1.5 0.5-0.60547 0-1.1016-0.19531-1.4844-0.59375-0.375-0.39453-0.5625-0.94141-0.5625-1.6406 0-0.61328 0.11719-1.2188 0.35938-1.8125 0.23828-0.59375 0.58203-1.0391 1.0312-1.3438 0.45703-0.3125 0.97656-0.46875 1.5625-0.46875 0.60156 0 1.0781 0.17188 1.4219 0.51562 0.35156 0.33594 0.53125 0.78125 0.53125 1.3438l-0.9375 0.0625c0-0.35156-0.10547-0.62891-0.3125-0.82812-0.19922-0.20703-0.46484-0.3125-0.79688-0.3125-0.375 0-0.71094 0.125-1 0.375-0.28125 0.24219-0.5 0.60938-0.65625 1.1094-0.15625 0.49219-0.23438 0.96484-0.23438 1.4219 0 0.48047 0.10156 0.83984 0.3125 1.0781 0.20703 0.24219 0.46875 0.35938 0.78125 0.35938s0.60938-0.11328 0.89062-0.34375c0.28125-0.23828 0.50391-0.60156 0.67188-1.0938z"/>
   </g>
   <g id="use8140" transform="translate(238.84 5316.1)">
    <path id="path49381" d="m0.28125 0 1.625-7.7344h0.95312l-1.625 7.7344z"/>
   </g>
   <g id="use8142" transform="translate(241.3 5316.1)">
    <path id="path49385" d="m4.4844-1.9062 0.92188 0.09375c-0.13672 0.46094-0.44531 0.89844-0.92188 1.3125-0.48047 0.41797-1.0547 0.625-1.7188 0.625-0.41797 0-0.79688-0.09375-1.1406-0.28125-0.34375-0.19531-0.60938-0.47656-0.79688-0.84375-0.17969-0.36328-0.26562-0.78125-0.26562-1.25 0-0.61328 0.14062-1.207 0.42188-1.7812 0.28125-0.57031 0.64453-1 1.0938-1.2812 0.45703-0.28125 0.94531-0.42188 1.4688-0.42188 0.66406 0 1.1953 0.21094 1.5938 0.625 0.40625 0.41797 0.60938 0.98438 0.60938 1.7031 0 0.27344-0.027344 0.55469-0.078125 0.84375h-4.125c-0.011719 0.10547-0.015625 0.20312-0.015625 0.29688 0 0.52344 0.11719 0.92188 0.35938 1.2031 0.23828 0.27344 0.53125 0.40625 0.875 0.40625 0.33203 0 0.65625-0.10156 0.96875-0.3125 0.32031-0.21875 0.57031-0.53125 0.75-0.9375zm-2.7812-1.3906h3.1406c0.007813-0.09375 0.015625-0.16016 0.015625-0.20312 0-0.47656-0.12109-0.84375-0.35938-1.0938-0.24219-0.25781-0.55469-0.39062-0.9375-0.39062-0.40625 0-0.77734 0.14062-1.1094 0.42188-0.33594 0.28125-0.58594 0.70312-0.75 1.2656z"/>
   </g>
  </g>
  <g id="g8170" transform="matrix(.35278 0 0 .35278 -14.962 -1711.4)" style="fill:#1c1ca1">
   <g id="use8146" transform="translate(464.55 5316.1)">
    <path id="path49389" d="m0.53125-2.125c0-1.0938 0.32031-2 0.96875-2.7188 0.53125-0.59375 1.2227-0.89062 2.0781-0.89062 0.67578 0 1.2227 0.21484 1.6406 0.64062 0.41406 0.41797 0.625 0.98438 0.625 1.7031 0 0.64844-0.13281 1.2461-0.39062 1.7969-0.26172 0.55469-0.63672 0.98047-1.125 1.2812-0.48047 0.29297-0.98438 0.4375-1.5156 0.4375-0.42969 0-0.82422-0.09375-1.1875-0.28125-0.35547-0.1875-0.625-0.44531-0.8125-0.78125-0.1875-0.34375-0.28125-0.73828-0.28125-1.1875zm0.95312-0.09375c0 0.52344 0.125 0.92188 0.375 1.2031 0.25781 0.27344 0.58203 0.40625 0.96875 0.40625 0.20703 0 0.41016-0.039063 0.60938-0.125 0.19531-0.082031 0.37891-0.20703 0.54688-0.375 0.17578-0.17578 0.32812-0.36719 0.45312-0.57812 0.125-0.21875 0.22266-0.45312 0.29688-0.70312 0.10156-0.35156 0.15625-0.6875 0.15625-1 0-0.50781-0.13281-0.90625-0.39062-1.1875-0.25-0.28125-0.57031-0.42188-0.95312-0.42188-0.30469 0-0.57812 0.074219-0.82812 0.21875-0.24219 0.14844-0.46094 0.35547-0.65625 0.625-0.19922 0.27344-0.34375 0.58984-0.4375 0.95312-0.09375 0.36719-0.14062 0.69531-0.14062 0.98438z"/>
   </g>
   <g id="use8148" transform="translate(470.62 5316.1)">
    <path id="path49393" d="m-0.10938 2.1562 1.625-7.7656h0.875l-0.15625 0.78125c0.32031-0.34375 0.61328-0.57812 0.875-0.70312 0.25781-0.13281 0.53125-0.20312 0.8125-0.20312 0.53906 0 0.98438 0.19922 1.3281 0.59375 0.35156 0.38672 0.53125 0.9375 0.53125 1.6562 0 0.58594-0.10156 1.1211-0.29688 1.6094-0.1875 0.48047-0.42188 0.86719-0.70312 1.1562-0.28125 0.29297-0.57031 0.50781-0.85938 0.64062-0.28125 0.13281-0.57422 0.20312-0.875 0.20312-0.67969 0-1.1992-0.33594-1.5625-1.0156l-0.64062 3.0469zm1.8906-4.4531c0 0.42969 0.03125 0.71875 0.09375 0.875 0.082031 0.23047 0.22266 0.41797 0.42188 0.5625 0.20703 0.13672 0.44141 0.20312 0.70312 0.20312 0.55078 0 0.99219-0.30469 1.3281-0.92188 0.34375-0.61328 0.51562-1.2422 0.51562-1.8906 0-0.47656-0.11719-0.84766-0.34375-1.1094-0.23047-0.25781-0.51562-0.39062-0.85938-0.39062-0.24219 0-0.46484 0.070312-0.67188 0.20312-0.21094 0.125-0.40234 0.32031-0.57812 0.57812-0.17969 0.25-0.32422 0.5625-0.4375 0.9375-0.11719 0.36719-0.17188 0.68359-0.17188 0.95312z"/>
   </g>
   <g id="use8150" transform="translate(476.69 5316.1)">
    <path id="path49397" d="m4.4844-1.9062 0.92188 0.09375c-0.13672 0.46094-0.44531 0.89844-0.92188 1.3125-0.48047 0.41797-1.0547 0.625-1.7188 0.625-0.41797 0-0.79688-0.09375-1.1406-0.28125-0.34375-0.19531-0.60938-0.47656-0.79688-0.84375-0.17969-0.36328-0.26562-0.78125-0.26562-1.25 0-0.61328 0.14062-1.207 0.42188-1.7812 0.28125-0.57031 0.64453-1 1.0938-1.2812 0.45703-0.28125 0.94531-0.42188 1.4688-0.42188 0.66406 0 1.1953 0.21094 1.5938 0.625 0.40625 0.41797 0.60938 0.98438 0.60938 1.7031 0 0.27344-0.027344 0.55469-0.078125 0.84375h-4.125c-0.011719 0.10547-0.015625 0.20312-0.015625 0.29688 0 0.52344 0.11719 0.92188 0.35938 1.2031 0.23828 0.27344 0.53125 0.40625 0.875 0.40625 0.33203 0 0.65625-0.10156 0.96875-0.3125 0.32031-0.21875 0.57031-0.53125 0.75-0.9375zm-2.7812-1.3906h3.1406c0.007813-0.09375 0.015625-0.16016 0.015625-0.20312 0-0.47656-0.12109-0.84375-0.35938-1.0938-0.24219-0.25781-0.55469-0.39062-0.9375-0.39062-0.40625 0-0.77734 0.14062-1.1094 0.42188-0.33594 0.28125-0.58594 0.70312-0.75 1.2656z"/>
   </g>
   <g id="use8152" transform="translate(482.75 5316.1)">
    <path id="path49401" d="m0.35938 0 1.1719-5.6094h0.85938l-0.20312 0.98438c0.375-0.38281 0.72266-0.66406 1.0469-0.84375 0.33203-0.17578 0.67188-0.26562 1.0156-0.26562 0.45703 0 0.8125 0.125 1.0625 0.375 0.25781 0.24219 0.39062 0.57031 0.39062 0.98438 0 0.21094-0.046875 0.53906-0.14062 0.98438l-0.70312 3.3906h-0.95312l0.73438-3.5469c0.070313-0.35156 0.10938-0.60938 0.10938-0.76562 0-0.1875-0.0625-0.33594-0.1875-0.45312-0.125-0.125-0.3125-0.1875-0.5625-0.1875-0.49219 0-0.92969 0.17969-1.3125 0.53125-0.375 0.35547-0.65234 0.96094-0.82812 1.8125l-0.54688 2.6094z"/>
   </g>
   <g id="use8154" transform="translate(488.82 5316.1)"></g>
   <g id="use8156" transform="translate(491.88 5316.1)">
    <path id="path49409" d="m4.2344-2.0469 0.95312 0.10938c-0.24219 0.69922-0.58594 1.2188-1.0312 1.5625-0.4375 0.33594-0.9375 0.5-1.5 0.5-0.60547 0-1.1016-0.19531-1.4844-0.59375-0.375-0.39453-0.5625-0.94141-0.5625-1.6406 0-0.61328 0.11719-1.2188 0.35938-1.8125 0.23828-0.59375 0.58203-1.0391 1.0312-1.3438 0.45703-0.3125 0.97656-0.46875 1.5625-0.46875 0.60156 0 1.0781 0.17188 1.4219 0.51562 0.35156 0.33594 0.53125 0.78125 0.53125 1.3438l-0.9375 0.0625c0-0.35156-0.10547-0.62891-0.3125-0.82812-0.19922-0.20703-0.46484-0.3125-0.79688-0.3125-0.375 0-0.71094 0.125-1 0.375-0.28125 0.24219-0.5 0.60938-0.65625 1.1094-0.15625 0.49219-0.23438 0.96484-0.23438 1.4219 0 0.48047 0.10156 0.83984 0.3125 1.0781 0.20703 0.24219 0.46875 0.35938 0.78125 0.35938s0.60938-0.11328 0.89062-0.34375c0.28125-0.23828 0.50391-0.60156 0.67188-1.0938z"/>
   </g>
   <g id="use8158" transform="translate(497.34 5316.1)">
    <path id="path49413" d="m1.7188-6.6562 0.21875-1.0781h0.95312l-0.21875 1.0781zm-1.3906 6.6562 1.1719-5.6094h0.95312l-1.1719 5.6094z"/>
   </g>
   <g id="use8160" transform="translate(499.8 5316.1)">
    <path id="path49417" d="m0.35938 0 1.1719-5.6094h0.84375l-0.23438 1.1406c0.28906-0.42578 0.57031-0.74219 0.84375-0.95312 0.28125-0.20703 0.5625-0.3125 0.84375-0.3125 0.19531 0 0.42969 0.070312 0.70312 0.20312l-0.39062 0.89062c-0.16797-0.11328-0.35156-0.17188-0.54688-0.17188-0.33594 0-0.67969 0.1875-1.0312 0.5625-0.34375 0.36719-0.61719 1.0312-0.8125 2l-0.48438 2.25z"/>
   </g>
   <g id="use8162" transform="translate(503.45 5316.1)">
    <path id="path49421" d="m4.2344-2.0469 0.95312 0.10938c-0.24219 0.69922-0.58594 1.2188-1.0312 1.5625-0.4375 0.33594-0.9375 0.5-1.5 0.5-0.60547 0-1.1016-0.19531-1.4844-0.59375-0.375-0.39453-0.5625-0.94141-0.5625-1.6406 0-0.61328 0.11719-1.2188 0.35938-1.8125 0.23828-0.59375 0.58203-1.0391 1.0312-1.3438 0.45703-0.3125 0.97656-0.46875 1.5625-0.46875 0.60156 0 1.0781 0.17188 1.4219 0.51562 0.35156 0.33594 0.53125 0.78125 0.53125 1.3438l-0.9375 0.0625c0-0.35156-0.10547-0.62891-0.3125-0.82812-0.19922-0.20703-0.46484-0.3125-0.79688-0.3125-0.375 0-0.71094 0.125-1 0.375-0.28125 0.24219-0.5 0.60938-0.65625 1.1094-0.15625 0.49219-0.23438 0.96484-0.23438 1.4219 0 0.48047 0.10156 0.83984 0.3125 1.0781 0.20703 0.24219 0.46875 0.35938 0.78125 0.35938s0.60938-0.11328 0.89062-0.34375c0.28125-0.23828 0.50391-0.60156 0.67188-1.0938z"/>
   </g>
   <g id="use8164" transform="translate(508.92 5316.1)">
    <path id="path49425" d="m0.28125 0 1.625-7.7344h0.95312l-1.625 7.7344z"/>
   </g>
   <g id="use8166" transform="translate(511.37 5316.1)">
    <path id="path49429" d="m4.4844-1.9062 0.92188 0.09375c-0.13672 0.46094-0.44531 0.89844-0.92188 1.3125-0.48047 0.41797-1.0547 0.625-1.7188 0.625-0.41797 0-0.79688-0.09375-1.1406-0.28125-0.34375-0.19531-0.60938-0.47656-0.79688-0.84375-0.17969-0.36328-0.26562-0.78125-0.26562-1.25 0-0.61328 0.14062-1.207 0.42188-1.7812 0.28125-0.57031 0.64453-1 1.0938-1.2812 0.45703-0.28125 0.94531-0.42188 1.4688-0.42188 0.66406 0 1.1953 0.21094 1.5938 0.625 0.40625 0.41797 0.60938 0.98438 0.60938 1.7031 0 0.27344-0.027344 0.55469-0.078125 0.84375h-4.125c-0.011719 0.10547-0.015625 0.20312-0.015625 0.29688 0 0.52344 0.11719 0.92188 0.35938 1.2031 0.23828 0.27344 0.53125 0.40625 0.875 0.40625 0.33203 0 0.65625-0.10156 0.96875-0.3125 0.32031-0.21875 0.57031-0.53125 0.75-0.9375zm-2.7812-1.3906h3.1406c0.007813-0.09375 0.015625-0.16016 0.015625-0.20312 0-0.47656-0.12109-0.84375-0.35938-1.0938-0.24219-0.25781-0.55469-0.39062-0.9375-0.39062-0.40625 0-0.77734 0.14062-1.1094 0.42188-0.33594 0.28125-0.58594 0.70312-0.75 1.2656z"/>
   </g>
   <g id="use8168" transform="translate(517.44 5316.1)">
    <path id="path49433" d="m1.5625-4.5312 0.23438-1.0781h1.0625l-0.21875 1.0781zm-0.9375 4.5312 0.21875-1.0781h1.0781l-0.23438 1.0781z"/>
   </g>
  </g>
  <g id="g8226" transform="matrix(.35278 0 0 .35278 -14.962 -1711.4)" style="fill:#1c1ca1">
   <g id="use8172" transform="translate(464.55 5331.1)">
    <path id="path49437" d="m2.5938-0.78125-0.15625 0.78125c-0.23047 0.0625-0.45312 0.09375-0.67188 0.09375-0.375 0-0.67969-0.09375-0.90625-0.28125-0.16797-0.13281-0.25-0.32812-0.25-0.57812 0-0.11328 0.046875-0.39453 0.14062-0.84375l0.67188-3.2656h-0.75l0.15625-0.73438h0.75l0.29688-1.375 1.0938-0.65625-0.4375 2.0312h0.9375l-0.15625 0.73438h-0.9375l-0.64062 3.1094c-0.085937 0.39844-0.125 0.63281-0.125 0.70312 0 0.11719 0.03125 0.20312 0.09375 0.26562 0.070313 0.054687 0.17969 0.078125 0.32812 0.078125 0.20703 0 0.39453-0.019531 0.5625-0.0625z"/>
   </g>
   <g id="use8174" transform="translate(467.61 5331.1)">
    <path id="path49441" d="m0.35938 0 1.6094-7.7344h0.96875l-0.625 2.9688c0.35156-0.34375 0.67969-0.58594 0.98438-0.73438 0.3125-0.15625 0.62891-0.23438 0.95312-0.23438 0.46875 0 0.82812 0.125 1.0781 0.375 0.25781 0.24219 0.39062 0.5625 0.39062 0.96875 0 0.1875-0.058594 0.54688-0.17188 1.0781l-0.6875 3.3125h-0.95312l0.70312-3.3906c0.10156-0.5 0.15625-0.8125 0.15625-0.9375 0-0.17578-0.0625-0.32031-0.1875-0.4375-0.125-0.125-0.30859-0.1875-0.54688-0.1875-0.34375 0-0.67188 0.09375-0.98438 0.28125-0.3125 0.17969-0.5625 0.42969-0.75 0.75-0.17969 0.3125-0.33984 0.82031-0.48438 1.5156l-0.5 2.4062z"/>
   </g>
   <g id="use8176" transform="translate(473.68 5331.1)">
    <path id="path49445" d="m4.4844-1.9062 0.92188 0.09375c-0.13672 0.46094-0.44531 0.89844-0.92188 1.3125-0.48047 0.41797-1.0547 0.625-1.7188 0.625-0.41797 0-0.79688-0.09375-1.1406-0.28125-0.34375-0.19531-0.60938-0.47656-0.79688-0.84375-0.17969-0.36328-0.26562-0.78125-0.26562-1.25 0-0.61328 0.14062-1.207 0.42188-1.7812 0.28125-0.57031 0.64453-1 1.0938-1.2812 0.45703-0.28125 0.94531-0.42188 1.4688-0.42188 0.66406 0 1.1953 0.21094 1.5938 0.625 0.40625 0.41797 0.60938 0.98438 0.60938 1.7031 0 0.27344-0.027344 0.55469-0.078125 0.84375h-4.125c-0.011719 0.10547-0.015625 0.20312-0.015625 0.29688 0 0.52344 0.11719 0.92188 0.35938 1.2031 0.23828 0.27344 0.53125 0.40625 0.875 0.40625 0.33203 0 0.65625-0.10156 0.96875-0.3125 0.32031-0.21875 0.57031-0.53125 0.75-0.9375zm-2.7812-1.3906h3.1406c0.007813-0.09375 0.015625-0.16016 0.015625-0.20312 0-0.47656-0.12109-0.84375-0.35938-1.0938-0.24219-0.25781-0.55469-0.39062-0.9375-0.39062-0.40625 0-0.77734 0.14062-1.1094 0.42188-0.33594 0.28125-0.58594 0.70312-0.75 1.2656z"/>
   </g>
   <g id="use8178" transform="translate(479.75 5331.1)"></g>
   <g id="use8180" transform="translate(482.81 5331.1)">
    <path id="path49453" d="m0.3125 0.5 0.95312 0.09375c0 0.21875 0.023438 0.37891 0.078125 0.48438 0.0625 0.11328 0.16016 0.20312 0.29688 0.26562 0.16406 0.070313 0.39062 0.10938 0.67188 0.10938 0.57031 0 0.98438-0.14844 1.2344-0.4375 0.16406-0.21094 0.32031-0.64844 0.46875-1.3125l0.09375-0.45312c-0.5 0.5-1.0273 0.75-1.5781 0.75-0.57422 0-1.0547-0.20703-1.4375-0.625-0.375-0.41406-0.5625-1.0039-0.5625-1.7656 0-0.63281 0.14844-1.2109 0.45312-1.7344 0.30078-0.53125 0.65625-0.92969 1.0625-1.2031 0.41406-0.26953 0.84766-0.40625 1.2969-0.40625 0.72656 0 1.2891 0.35156 1.6875 1.0469l0.20312-0.92188h0.875l-1.1406 5.4062c-0.125 0.60156-0.28906 1.0664-0.48438 1.3906-0.19922 0.33203-0.48047 0.59375-0.84375 0.78125-0.35547 0.1875-0.76562 0.28125-1.2344 0.28125-0.44922 0-0.83594-0.0625-1.1562-0.1875-0.32422-0.11719-0.57031-0.28906-0.73438-0.51562-0.15625-0.21875-0.23438-0.46875-0.23438-0.75 0-0.09375 0.007813-0.19531 0.03125-0.29688zm1.1875-2.9844c0 0.38672 0.035156 0.67969 0.10938 0.875 0.10156 0.27344 0.25391 0.48047 0.45312 0.625 0.19531 0.13672 0.41406 0.20312 0.65625 0.20312 0.3125 0 0.61719-0.10938 0.92188-0.32812 0.3125-0.21875 0.5625-0.55469 0.75-1.0156 0.19531-0.46875 0.29688-0.91016 0.29688-1.3281 0-0.45703-0.13281-0.82031-0.39062-1.0938-0.25-0.28125-0.5625-0.42188-0.9375-0.42188-0.23047 0-0.45312 0.0625-0.67188 0.1875s-0.42188 0.32031-0.60938 0.57812c-0.1875 0.25-0.33594 0.55859-0.4375 0.92188-0.09375 0.35547-0.14062 0.62109-0.14062 0.79688z"/>
   </g>
   <g id="use8182" transform="translate(488.88 5331.1)">
    <path id="path49457" d="m0.35938 0 1.1719-5.6094h0.84375l-0.23438 1.1406c0.28906-0.42578 0.57031-0.74219 0.84375-0.95312 0.28125-0.20703 0.5625-0.3125 0.84375-0.3125 0.19531 0 0.42969 0.070312 0.70312 0.20312l-0.39062 0.89062c-0.16797-0.11328-0.35156-0.17188-0.54688-0.17188-0.33594 0-0.67969 0.1875-1.0312 0.5625-0.34375 0.36719-0.61719 1.0312-0.8125 2l-0.48438 2.25z"/>
   </g>
   <g id="use8184" transform="translate(492.53 5331.1)">
    <path id="path49461" d="m4.1406-0.70312c-0.33594 0.29297-0.65625 0.50781-0.96875 0.64062-0.30469 0.125-0.625 0.1875-0.96875 0.1875-0.52344 0-0.94531-0.14844-1.2656-0.45312-0.3125-0.30078-0.46875-0.69141-0.46875-1.1719 0-0.3125 0.070313-0.58594 0.21875-0.82812 0.14453-0.23828 0.33203-0.42969 0.5625-0.57812 0.23828-0.14453 0.53125-0.25 0.875-0.3125 0.20703-0.050781 0.61328-0.085938 1.2188-0.10938 0.60156-0.019531 1.0352-0.082031 1.2969-0.1875 0.070313-0.25781 0.10938-0.47656 0.10938-0.65625 0-0.21875-0.085937-0.39062-0.25-0.51562-0.21875-0.17578-0.54297-0.26562-0.96875-0.26562-0.39844 0-0.72656 0.089844-0.98438 0.26562-0.25 0.17969-0.4375 0.43359-0.5625 0.76562l-0.95312-0.09375c0.1875-0.55078 0.49219-0.97266 0.92188-1.2656 0.4375-0.30078 0.97656-0.45312 1.625-0.45312 0.69531 0 1.25 0.16797 1.6562 0.5 0.30078 0.24219 0.45312 0.55859 0.45312 0.95312 0 0.30469-0.042969 0.65234-0.125 1.0469l-0.3125 1.3906c-0.10547 0.44922-0.15625 0.80859-0.15625 1.0781 0 0.17969 0.039063 0.43359 0.125 0.76562h-0.96875c-0.054687-0.1875-0.089844-0.42188-0.10938-0.70312zm0.35938-2.1406c-0.13672 0.054687-0.28125 0.09375-0.4375 0.125s-0.41406 0.0625-0.76562 0.09375c-0.5625 0.042969-0.96094 0.10547-1.1875 0.1875-0.21875 0.074219-0.39062 0.19531-0.51562 0.35938-0.11719 0.16797-0.17188 0.35156-0.17188 0.54688 0 0.27344 0.09375 0.49609 0.28125 0.67188 0.1875 0.16797 0.44531 0.25 0.78125 0.25 0.32031 0 0.62891-0.082031 0.92188-0.25 0.28906-0.16406 0.51953-0.39844 0.6875-0.70312 0.16406-0.30078 0.30078-0.72656 0.40625-1.2812z"/>
   </g>
   <g id="use8186" transform="translate(498.6 5331.1)">
    <path id="path49465" d="m-0.10938 2.1562 1.625-7.7656h0.875l-0.15625 0.78125c0.32031-0.34375 0.61328-0.57812 0.875-0.70312 0.25781-0.13281 0.53125-0.20312 0.8125-0.20312 0.53906 0 0.98438 0.19922 1.3281 0.59375 0.35156 0.38672 0.53125 0.9375 0.53125 1.6562 0 0.58594-0.10156 1.1211-0.29688 1.6094-0.1875 0.48047-0.42188 0.86719-0.70312 1.1562-0.28125 0.29297-0.57031 0.50781-0.85938 0.64062-0.28125 0.13281-0.57422 0.20312-0.875 0.20312-0.67969 0-1.1992-0.33594-1.5625-1.0156l-0.64062 3.0469zm1.8906-4.4531c0 0.42969 0.03125 0.71875 0.09375 0.875 0.082031 0.23047 0.22266 0.41797 0.42188 0.5625 0.20703 0.13672 0.44141 0.20312 0.70312 0.20312 0.55078 0 0.99219-0.30469 1.3281-0.92188 0.34375-0.61328 0.51562-1.2422 0.51562-1.8906 0-0.47656-0.11719-0.84766-0.34375-1.1094-0.23047-0.25781-0.51562-0.39062-0.85938-0.39062-0.24219 0-0.46484 0.070312-0.67188 0.20312-0.21094 0.125-0.40234 0.32031-0.57812 0.57812-0.17969 0.25-0.32422 0.5625-0.4375 0.9375-0.11719 0.36719-0.17188 0.68359-0.17188 0.95312z"/>
   </g>
   <g id="use8188" transform="translate(504.67 5331.1)">
    <path id="path49469" d="m0.35938 0 1.6094-7.7344h0.96875l-0.625 2.9688c0.35156-0.34375 0.67969-0.58594 0.98438-0.73438 0.3125-0.15625 0.62891-0.23438 0.95312-0.23438 0.46875 0 0.82812 0.125 1.0781 0.375 0.25781 0.24219 0.39062 0.5625 0.39062 0.96875 0 0.1875-0.058594 0.54688-0.17188 1.0781l-0.6875 3.3125h-0.95312l0.70312-3.3906c0.10156-0.5 0.15625-0.8125 0.15625-0.9375 0-0.17578-0.0625-0.32031-0.1875-0.4375-0.125-0.125-0.30859-0.1875-0.54688-0.1875-0.34375 0-0.67188 0.09375-0.98438 0.28125-0.3125 0.17969-0.5625 0.42969-0.75 0.75-0.17969 0.3125-0.33984 0.82031-0.48438 1.5156l-0.5 2.4062z"/>
   </g>
   <g id="use8190" transform="translate(510.73 5331.1)"></g>
   <g id="use8192" transform="translate(513.79 5331.1)">
    <path id="path49477" d="m1.4219 0-0.57812-5.6094h0.92188l0.25 2.5156 0.09375 1.4219c0.00781 0.10547 0.019531 0.32031 0.03125 0.64062 0.10156-0.36328 0.19141-0.64062 0.26562-0.82812 0.082031-0.19531 0.20312-0.47266 0.35938-0.82812l1.3438-2.9219h1.0312l0.1875 2.8125c0.03125 0.41797 0.046875 0.98438 0.046875 1.7031 0.17578-0.47656 0.46094-1.1328 0.85938-1.9688l1.2031-2.5469h0.96875l-2.75 5.6094h-0.98438l-0.21875-3.2969c-0.011719-0.19531-0.023437-0.59375-0.03125-1.1875-0.14844 0.375-0.32031 0.78125-0.51562 1.2188l-1.4844 3.2656z"/>
   </g>
   <g id="use8194" transform="translate(521.66 5331.1)">
    <path id="path49481" d="m1.7188-6.6562 0.21875-1.0781h0.95312l-0.21875 1.0781zm-1.3906 6.6562 1.1719-5.6094h0.95312l-1.1719 5.6094z"/>
   </g>
   <g id="use8196" transform="translate(524.11 5331.1)">
    <path id="path49485" d="m0.28125 0 1.625-7.7344h0.95312l-1.625 7.7344z"/>
   </g>
   <g id="use8198" transform="translate(526.57 5331.1)">
    <path id="path49489" d="m0.28125 0 1.625-7.7344h0.95312l-1.625 7.7344z"/>
   </g>
   <g id="use8200" transform="translate(529.02 5331.1)"></g>
   <g id="use8202" transform="translate(532.08 5331.1)">
    <path id="path49497" d="m0.35938 0 1.1719-5.6094h0.85938l-0.20312 0.98438c0.375-0.38281 0.72266-0.66406 1.0469-0.84375 0.33203-0.17578 0.67188-0.26562 1.0156-0.26562 0.45703 0 0.8125 0.125 1.0625 0.375 0.25781 0.24219 0.39062 0.57031 0.39062 0.98438 0 0.21094-0.046875 0.53906-0.14062 0.98438l-0.70312 3.3906h-0.95312l0.73438-3.5469c0.070313-0.35156 0.10938-0.60938 0.10938-0.76562 0-0.1875-0.0625-0.33594-0.1875-0.45312-0.125-0.125-0.3125-0.1875-0.5625-0.1875-0.49219 0-0.92969 0.17969-1.3125 0.53125-0.375 0.35547-0.65234 0.96094-0.82812 1.8125l-0.54688 2.6094z"/>
   </g>
   <g id="use8204" transform="translate(538.15 5331.1)">
    <path id="path49501" d="m4.4844-1.9062 0.92188 0.09375c-0.13672 0.46094-0.44531 0.89844-0.92188 1.3125-0.48047 0.41797-1.0547 0.625-1.7188 0.625-0.41797 0-0.79688-0.09375-1.1406-0.28125-0.34375-0.19531-0.60938-0.47656-0.79688-0.84375-0.17969-0.36328-0.26562-0.78125-0.26562-1.25 0-0.61328 0.14062-1.207 0.42188-1.7812 0.28125-0.57031 0.64453-1 1.0938-1.2812 0.45703-0.28125 0.94531-0.42188 1.4688-0.42188 0.66406 0 1.1953 0.21094 1.5938 0.625 0.40625 0.41797 0.60938 0.98438 0.60938 1.7031 0 0.27344-0.027344 0.55469-0.078125 0.84375h-4.125c-0.011719 0.10547-0.015625 0.20312-0.015625 0.29688 0 0.52344 0.11719 0.92188 0.35938 1.2031 0.23828 0.27344 0.53125 0.40625 0.875 0.40625 0.33203 0 0.65625-0.10156 0.96875-0.3125 0.32031-0.21875 0.57031-0.53125 0.75-0.9375zm-2.7812-1.3906h3.1406c0.007813-0.09375 0.015625-0.16016 0.015625-0.20312 0-0.47656-0.12109-0.84375-0.35938-1.0938-0.24219-0.25781-0.55469-0.39062-0.9375-0.39062-0.40625 0-0.77734 0.14062-1.1094 0.42188-0.33594 0.28125-0.58594 0.70312-0.75 1.2656z"/>
   </g>
   <g id="use8206" transform="translate(544.22 5331.1)">
    <path id="path49505" d="m1.7812 0-0.92188-5.6094h0.92188l0.48438 3.0938c0.050781 0.33594 0.11328 0.88672 0.1875 1.6562 0.1875-0.40625 0.42188-0.86328 0.70312-1.375l1.875-3.375h1.0156l-3.2188 5.6094z"/>
   </g>
   <g id="use8208" transform="translate(549.68 5331.1)">
    <path id="path49509" d="m4.4844-1.9062 0.92188 0.09375c-0.13672 0.46094-0.44531 0.89844-0.92188 1.3125-0.48047 0.41797-1.0547 0.625-1.7188 0.625-0.41797 0-0.79688-0.09375-1.1406-0.28125-0.34375-0.19531-0.60938-0.47656-0.79688-0.84375-0.17969-0.36328-0.26562-0.78125-0.26562-1.25 0-0.61328 0.14062-1.207 0.42188-1.7812 0.28125-0.57031 0.64453-1 1.0938-1.2812 0.45703-0.28125 0.94531-0.42188 1.4688-0.42188 0.66406 0 1.1953 0.21094 1.5938 0.625 0.40625 0.41797 0.60938 0.98438 0.60938 1.7031 0 0.27344-0.027344 0.55469-0.078125 0.84375h-4.125c-0.011719 0.10547-0.015625 0.20312-0.015625 0.29688 0 0.52344 0.11719 0.92188 0.35938 1.2031 0.23828 0.27344 0.53125 0.40625 0.875 0.40625 0.33203 0 0.65625-0.10156 0.96875-0.3125 0.32031-0.21875 0.57031-0.53125 0.75-0.9375zm-2.7812-1.3906h3.1406c0.007813-0.09375 0.015625-0.16016 0.015625-0.20312 0-0.47656-0.12109-0.84375-0.35938-1.0938-0.24219-0.25781-0.55469-0.39062-0.9375-0.39062-0.40625 0-0.77734 0.14062-1.1094 0.42188-0.33594 0.28125-0.58594 0.70312-0.75 1.2656z"/>
   </g>
   <g id="use8210" transform="translate(555.75 5331.1)">
    <path id="path49513" d="m0.35938 0 1.1719-5.6094h0.84375l-0.23438 1.1406c0.28906-0.42578 0.57031-0.74219 0.84375-0.95312 0.28125-0.20703 0.5625-0.3125 0.84375-0.3125 0.19531 0 0.42969 0.070312 0.70312 0.20312l-0.39062 0.89062c-0.16797-0.11328-0.35156-0.17188-0.54688-0.17188-0.33594 0-0.67969 0.1875-1.0312 0.5625-0.34375 0.36719-0.61719 1.0312-0.8125 2l-0.48438 2.25z"/>
   </g>
   <g id="use8212" transform="translate(559.4 5331.1)"></g>
   <g id="use8214" transform="translate(562.46 5331.1)">
    <path id="path49521" d="m2.5938-0.78125-0.15625 0.78125c-0.23047 0.0625-0.45312 0.09375-0.67188 0.09375-0.375 0-0.67969-0.09375-0.90625-0.28125-0.16797-0.13281-0.25-0.32812-0.25-0.57812 0-0.11328 0.046875-0.39453 0.14062-0.84375l0.67188-3.2656h-0.75l0.15625-0.73438h0.75l0.29688-1.375 1.0938-0.65625-0.4375 2.0312h0.9375l-0.15625 0.73438h-0.9375l-0.64062 3.1094c-0.085937 0.39844-0.125 0.63281-0.125 0.70312 0 0.11719 0.03125 0.20312 0.09375 0.26562 0.070313 0.054687 0.17969 0.078125 0.32812 0.078125 0.20703 0 0.39453-0.019531 0.5625-0.0625z"/>
   </g>
   <g id="use8216" transform="translate(565.52 5331.1)">
    <path id="path49525" d="m0.53125-2.125c0-1.0938 0.32031-2 0.96875-2.7188 0.53125-0.59375 1.2227-0.89062 2.0781-0.89062 0.67578 0 1.2227 0.21484 1.6406 0.64062 0.41406 0.41797 0.625 0.98438 0.625 1.7031 0 0.64844-0.13281 1.2461-0.39062 1.7969-0.26172 0.55469-0.63672 0.98047-1.125 1.2812-0.48047 0.29297-0.98438 0.4375-1.5156 0.4375-0.42969 0-0.82422-0.09375-1.1875-0.28125-0.35547-0.1875-0.625-0.44531-0.8125-0.78125-0.1875-0.34375-0.28125-0.73828-0.28125-1.1875zm0.95312-0.09375c0 0.52344 0.125 0.92188 0.375 1.2031 0.25781 0.27344 0.58203 0.40625 0.96875 0.40625 0.20703 0 0.41016-0.039063 0.60938-0.125 0.19531-0.082031 0.37891-0.20703 0.54688-0.375 0.17578-0.17578 0.32812-0.36719 0.45312-0.57812 0.125-0.21875 0.22266-0.45312 0.29688-0.70312 0.10156-0.35156 0.15625-0.6875 0.15625-1 0-0.50781-0.13281-0.90625-0.39062-1.1875-0.25-0.28125-0.57031-0.42188-0.95312-0.42188-0.30469 0-0.57812 0.074219-0.82812 0.21875-0.24219 0.14844-0.46094 0.35547-0.65625 0.625-0.19922 0.27344-0.34375 0.58984-0.4375 0.95312-0.09375 0.36719-0.14062 0.69531-0.14062 0.98438z"/>
   </g>
   <g id="use8218" transform="translate(571.59 5331.1)">
    <path id="path49529" d="m4.1875-1.0156c-0.67969 0.76172-1.3672 1.1406-2.0625 1.1406-0.4375 0-0.79297-0.125-1.0625-0.375-0.26172-0.25-0.39062-0.55078-0.39062-0.90625 0-0.23828 0.0625-0.64453 0.1875-1.2188l0.67188-3.2344h0.95312l-0.75 3.5938c-0.0625 0.29297-0.09375 0.52344-0.09375 0.6875 0 0.21094 0.0625 0.375 0.1875 0.5 0.13281 0.11719 0.32812 0.17188 0.57812 0.17188 0.25781 0 0.51562-0.0625 0.76562-0.1875 0.25781-0.13281 0.48438-0.3125 0.67188-0.53125s0.33594-0.48438 0.45312-0.79688c0.070313-0.1875 0.16016-0.52344 0.26562-1.0156l0.51562-2.4219h0.95312l-1.1719 5.6094h-0.89062z"/>
   </g>
   <g id="use8220" transform="translate(577.66 5331.1)">
    <path id="path49533" d="m4.2344-2.0469 0.95312 0.10938c-0.24219 0.69922-0.58594 1.2188-1.0312 1.5625-0.4375 0.33594-0.9375 0.5-1.5 0.5-0.60547 0-1.1016-0.19531-1.4844-0.59375-0.375-0.39453-0.5625-0.94141-0.5625-1.6406 0-0.61328 0.11719-1.2188 0.35938-1.8125 0.23828-0.59375 0.58203-1.0391 1.0312-1.3438 0.45703-0.3125 0.97656-0.46875 1.5625-0.46875 0.60156 0 1.0781 0.17188 1.4219 0.51562 0.35156 0.33594 0.53125 0.78125 0.53125 1.3438l-0.9375 0.0625c0-0.35156-0.10547-0.62891-0.3125-0.82812-0.19922-0.20703-0.46484-0.3125-0.79688-0.3125-0.375 0-0.71094 0.125-1 0.375-0.28125 0.24219-0.5 0.60938-0.65625 1.1094-0.15625 0.49219-0.23438 0.96484-0.23438 1.4219 0 0.48047 0.10156 0.83984 0.3125 1.0781 0.20703 0.24219 0.46875 0.35938 0.78125 0.35938s0.60938-0.11328 0.89062-0.34375c0.28125-0.23828 0.50391-0.60156 0.67188-1.0938z"/>
   </g>
   <g id="use8222" transform="translate(583.12 5331.1)">
    <path id="path49537" d="m0.35938 0 1.6094-7.7344h0.96875l-0.625 2.9688c0.35156-0.34375 0.67969-0.58594 0.98438-0.73438 0.3125-0.15625 0.62891-0.23438 0.95312-0.23438 0.46875 0 0.82812 0.125 1.0781 0.375 0.25781 0.24219 0.39062 0.5625 0.39062 0.96875 0 0.1875-0.058594 0.54688-0.17188 1.0781l-0.6875 3.3125h-0.95312l0.70312-3.3906c0.10156-0.5 0.15625-0.8125 0.15625-0.9375 0-0.17578-0.0625-0.32031-0.1875-0.4375-0.125-0.125-0.30859-0.1875-0.54688-0.1875-0.34375 0-0.67188 0.09375-0.98438 0.28125-0.3125 0.17969-0.5625 0.42969-0.75 0.75-0.17969 0.3125-0.33984 0.82031-0.48438 1.5156l-0.5 2.4062z"/>
   </g>
   <g id="use8224" transform="translate(589.19 5331.1)"></g>
  </g>
  <g id="g8260" transform="matrix(.35278 0 0 .35278 -14.962 -1711.4)" style="fill:#1c1ca1">
   <g id="use8228" transform="translate(464.55 5346.1)">
    <path id="path49545" d="m2.5938-0.78125-0.15625 0.78125c-0.23047 0.0625-0.45312 0.09375-0.67188 0.09375-0.375 0-0.67969-0.09375-0.90625-0.28125-0.16797-0.13281-0.25-0.32812-0.25-0.57812 0-0.11328 0.046875-0.39453 0.14062-0.84375l0.67188-3.2656h-0.75l0.15625-0.73438h0.75l0.29688-1.375 1.0938-0.65625-0.4375 2.0312h0.9375l-0.15625 0.73438h-0.9375l-0.64062 3.1094c-0.085937 0.39844-0.125 0.63281-0.125 0.70312 0 0.11719 0.03125 0.20312 0.09375 0.26562 0.070313 0.054687 0.17969 0.078125 0.32812 0.078125 0.20703 0 0.39453-0.019531 0.5625-0.0625z"/>
   </g>
   <g id="use8230" transform="translate(467.61 5346.1)">
    <path id="path49549" d="m0.35938 0 1.6094-7.7344h0.96875l-0.625 2.9688c0.35156-0.34375 0.67969-0.58594 0.98438-0.73438 0.3125-0.15625 0.62891-0.23438 0.95312-0.23438 0.46875 0 0.82812 0.125 1.0781 0.375 0.25781 0.24219 0.39062 0.5625 0.39062 0.96875 0 0.1875-0.058594 0.54688-0.17188 1.0781l-0.6875 3.3125h-0.95312l0.70312-3.3906c0.10156-0.5 0.15625-0.8125 0.15625-0.9375 0-0.17578-0.0625-0.32031-0.1875-0.4375-0.125-0.125-0.30859-0.1875-0.54688-0.1875-0.34375 0-0.67188 0.09375-0.98438 0.28125-0.3125 0.17969-0.5625 0.42969-0.75 0.75-0.17969 0.3125-0.33984 0.82031-0.48438 1.5156l-0.5 2.4062z"/>
   </g>
   <g id="use8232" transform="translate(473.68 5346.1)">
    <path id="path49553" d="m4.4844-1.9062 0.92188 0.09375c-0.13672 0.46094-0.44531 0.89844-0.92188 1.3125-0.48047 0.41797-1.0547 0.625-1.7188 0.625-0.41797 0-0.79688-0.09375-1.1406-0.28125-0.34375-0.19531-0.60938-0.47656-0.79688-0.84375-0.17969-0.36328-0.26562-0.78125-0.26562-1.25 0-0.61328 0.14062-1.207 0.42188-1.7812 0.28125-0.57031 0.64453-1 1.0938-1.2812 0.45703-0.28125 0.94531-0.42188 1.4688-0.42188 0.66406 0 1.1953 0.21094 1.5938 0.625 0.40625 0.41797 0.60938 0.98438 0.60938 1.7031 0 0.27344-0.027344 0.55469-0.078125 0.84375h-4.125c-0.011719 0.10547-0.015625 0.20312-0.015625 0.29688 0 0.52344 0.11719 0.92188 0.35938 1.2031 0.23828 0.27344 0.53125 0.40625 0.875 0.40625 0.33203 0 0.65625-0.10156 0.96875-0.3125 0.32031-0.21875 0.57031-0.53125 0.75-0.9375zm-2.7812-1.3906h3.1406c0.007813-0.09375 0.015625-0.16016 0.015625-0.20312 0-0.47656-0.12109-0.84375-0.35938-1.0938-0.24219-0.25781-0.55469-0.39062-0.9375-0.39062-0.40625 0-0.77734 0.14062-1.1094 0.42188-0.33594 0.28125-0.58594 0.70312-0.75 1.2656z"/>
   </g>
   <g id="use8234" transform="translate(479.75 5346.1)"></g>
   <g id="use8236" transform="translate(482.81 5346.1)">
    <path id="path49561" d="m-0.10938 2.1562 1.625-7.7656h0.875l-0.15625 0.78125c0.32031-0.34375 0.61328-0.57812 0.875-0.70312 0.25781-0.13281 0.53125-0.20312 0.8125-0.20312 0.53906 0 0.98438 0.19922 1.3281 0.59375 0.35156 0.38672 0.53125 0.9375 0.53125 1.6562 0 0.58594-0.10156 1.1211-0.29688 1.6094-0.1875 0.48047-0.42188 0.86719-0.70312 1.1562-0.28125 0.29297-0.57031 0.50781-0.85938 0.64062-0.28125 0.13281-0.57422 0.20312-0.875 0.20312-0.67969 0-1.1992-0.33594-1.5625-1.0156l-0.64062 3.0469zm1.8906-4.4531c0 0.42969 0.03125 0.71875 0.09375 0.875 0.082031 0.23047 0.22266 0.41797 0.42188 0.5625 0.20703 0.13672 0.44141 0.20312 0.70312 0.20312 0.55078 0 0.99219-0.30469 1.3281-0.92188 0.34375-0.61328 0.51562-1.2422 0.51562-1.8906 0-0.47656-0.11719-0.84766-0.34375-1.1094-0.23047-0.25781-0.51562-0.39062-0.85938-0.39062-0.24219 0-0.46484 0.070312-0.67188 0.20312-0.21094 0.125-0.40234 0.32031-0.57812 0.57812-0.17969 0.25-0.32422 0.5625-0.4375 0.9375-0.11719 0.36719-0.17188 0.68359-0.17188 0.95312z"/>
   </g>
   <g id="use8238" transform="translate(488.88 5346.1)">
    <path id="path49565" d="m0.53125-2.125c0-1.0938 0.32031-2 0.96875-2.7188 0.53125-0.59375 1.2227-0.89062 2.0781-0.89062 0.67578 0 1.2227 0.21484 1.6406 0.64062 0.41406 0.41797 0.625 0.98438 0.625 1.7031 0 0.64844-0.13281 1.2461-0.39062 1.7969-0.26172 0.55469-0.63672 0.98047-1.125 1.2812-0.48047 0.29297-0.98438 0.4375-1.5156 0.4375-0.42969 0-0.82422-0.09375-1.1875-0.28125-0.35547-0.1875-0.625-0.44531-0.8125-0.78125-0.1875-0.34375-0.28125-0.73828-0.28125-1.1875zm0.95312-0.09375c0 0.52344 0.125 0.92188 0.375 1.2031 0.25781 0.27344 0.58203 0.40625 0.96875 0.40625 0.20703 0 0.41016-0.039063 0.60938-0.125 0.19531-0.082031 0.37891-0.20703 0.54688-0.375 0.17578-0.17578 0.32812-0.36719 0.45312-0.57812 0.125-0.21875 0.22266-0.45312 0.29688-0.70312 0.10156-0.35156 0.15625-0.6875 0.15625-1 0-0.50781-0.13281-0.90625-0.39062-1.1875-0.25-0.28125-0.57031-0.42188-0.95312-0.42188-0.30469 0-0.57812 0.074219-0.82812 0.21875-0.24219 0.14844-0.46094 0.35547-0.65625 0.625-0.19922 0.27344-0.34375 0.58984-0.4375 0.95312-0.09375 0.36719-0.14062 0.69531-0.14062 0.98438z"/>
   </g>
   <g id="use8240" transform="translate(494.94 5346.1)">
    <path id="path49569" d="m1.7188-6.6562 0.21875-1.0781h0.95312l-0.21875 1.0781zm-1.3906 6.6562 1.1719-5.6094h0.95312l-1.1719 5.6094z"/>
   </g>
   <g id="use8242" transform="translate(497.4 5346.1)">
    <path id="path49573" d="m0.35938 0 1.1719-5.6094h0.85938l-0.20312 0.98438c0.375-0.38281 0.72266-0.66406 1.0469-0.84375 0.33203-0.17578 0.67188-0.26562 1.0156-0.26562 0.45703 0 0.8125 0.125 1.0625 0.375 0.25781 0.24219 0.39062 0.57031 0.39062 0.98438 0 0.21094-0.046875 0.53906-0.14062 0.98438l-0.70312 3.3906h-0.95312l0.73438-3.5469c0.070313-0.35156 0.10938-0.60938 0.10938-0.76562 0-0.1875-0.0625-0.33594-0.1875-0.45312-0.125-0.125-0.3125-0.1875-0.5625-0.1875-0.49219 0-0.92969 0.17969-1.3125 0.53125-0.375 0.35547-0.65234 0.96094-0.82812 1.8125l-0.54688 2.6094z"/>
   </g>
   <g id="use8244" transform="translate(503.47 5346.1)">
    <path id="path49577" d="m2.5938-0.78125-0.15625 0.78125c-0.23047 0.0625-0.45312 0.09375-0.67188 0.09375-0.375 0-0.67969-0.09375-0.90625-0.28125-0.16797-0.13281-0.25-0.32812-0.25-0.57812 0-0.11328 0.046875-0.39453 0.14062-0.84375l0.67188-3.2656h-0.75l0.15625-0.73438h0.75l0.29688-1.375 1.0938-0.65625-0.4375 2.0312h0.9375l-0.15625 0.73438h-0.9375l-0.64062 3.1094c-0.085937 0.39844-0.125 0.63281-0.125 0.70312 0 0.11719 0.03125 0.20312 0.09375 0.26562 0.070313 0.054687 0.17969 0.078125 0.32812 0.078125 0.20703 0 0.39453-0.019531 0.5625-0.0625z"/>
   </g>
   <g id="use8246" transform="translate(506.53 5346.1)"></g>
   <g id="use8248" transform="translate(509.59 5346.1)">
    <path id="path49585" d="m1.75 2.2812c-0.5625-1.2188-0.84375-2.4609-0.84375-3.7344 0-0.85156 0.10938-1.6445 0.32812-2.375 0.22656-0.73828 0.57031-1.4688 1.0312-2.1875 0.30078-0.47656 0.78516-1.0977 1.4531-1.8594h0.75c-0.41797 0.4375-0.85547 1.0586-1.3125 1.8594-0.46094 0.80469-0.79297 1.5898-1 2.3594-0.21094 0.77344-0.3125 1.5469-0.3125 2.3281 0 1.1562 0.20312 2.3594 0.60938 3.6094z"/>
   </g>
   <g id="use8250" transform="translate(513.24 5346.1)">
    <path id="path49589" d="m0.59375-2.0312 0.92188-0.10938c0.070313 0.54297 0.22656 0.93359 0.46875 1.1719 0.23828 0.23047 0.55469 0.34375 0.95312 0.34375 0.46875 0 0.875-0.16406 1.2188-0.5 0.34375-0.34375 0.51562-0.73438 0.51562-1.1719 0-0.375-0.13281-0.6875-0.39062-0.9375-0.25-0.25-0.59375-0.375-1.0312-0.375-0.054687 0-0.15234 0.00781-0.29688 0.015625l0.15625-0.79688c0.09375 0.023437 0.17969 0.03125 0.26562 0.03125 0.53906 0 0.95703-0.12891 1.25-0.39062 0.30078-0.26953 0.45312-0.60156 0.45312-1 0-0.35156-0.125-0.64844-0.375-0.89062-0.24219-0.23828-0.53125-0.35938-0.875-0.35938s-0.65234 0.125-0.92188 0.375c-0.27344 0.24219-0.44922 0.58984-0.53125 1.0469l-0.9375-0.1875c0.15625-0.63281 0.45312-1.125 0.89062-1.4688 0.44531-0.35156 0.96875-0.53125 1.5625-0.53125 0.63281 0 1.1484 0.19531 1.5469 0.57812 0.39453 0.375 0.59375 0.84375 0.59375 1.4062 0 0.40625-0.10938 0.76562-0.32812 1.0781-0.21094 0.30469-0.52734 0.55469-0.95312 0.75 0.30078 0.17969 0.52344 0.39844 0.67188 0.65625 0.15625 0.25 0.23438 0.53906 0.23438 0.85938 0 0.69922-0.26172 1.3047-0.78125 1.8125-0.52344 0.5-1.1406 0.75-1.8594 0.75-0.71094 0-1.2773-0.19141-1.7031-0.57812-0.42969-0.39453-0.66797-0.92188-0.71875-1.5781z"/>
   </g>
   <g id="use8252" transform="translate(519.31 5346.1)">
    <path id="path49593" d="m0.59375 0 0.21875-1.0781h1.0938l-0.20312 0.9375c-0.11719 0.57031-0.30469 0.98828-0.5625 1.25-0.25 0.25781-0.54297 0.41016-0.875 0.45312l0.078125-0.42188c0.42578-0.11719 0.70312-0.49609 0.82812-1.1406z"/>
   </g>
   <g id="use8254" transform="translate(522.37 5346.1)">
    <path id="path49597" d="m0.5-2.3281 0.20312-0.95312h2.9062l-0.1875 0.95312z"/>
   </g>
   <g id="use8256" transform="translate(526.03 5346.1)">
    <path id="path49601" d="m0.64062 0c0.09375-0.45703 0.22266-0.84375 0.39062-1.1562 0.17578-0.3125 0.41016-0.60938 0.70312-0.89062 0.28906-0.28125 0.84766-0.75 1.6719-1.4062 0.5-0.39453 0.83594-0.6875 1.0156-0.875 0.26953-0.28125 0.46094-0.55078 0.57812-0.8125 0.082031-0.17578 0.125-0.375 0.125-0.59375 0-0.35156-0.125-0.64844-0.375-0.89062-0.25-0.25-0.55859-0.375-0.92188-0.375-0.36719 0-0.68359 0.125-0.95312 0.375-0.27344 0.25-0.46484 0.65234-0.57812 1.2031l-0.9375-0.125c0.09375-0.6875 0.35938-1.2266 0.79688-1.625 0.4375-0.39453 0.98828-0.59375 1.6562-0.59375 0.4375 0 0.83203 0.09375 1.1875 0.28125 0.35156 0.17969 0.61719 0.43359 0.79688 0.76562 0.1875 0.32422 0.28125 0.66406 0.28125 1.0156 0 0.51172-0.18359 1.0078-0.54688 1.4844-0.23047 0.29297-0.89062 0.875-1.9844 1.75-0.48047 0.375-0.83594 0.68359-1.0625 0.92188-0.23047 0.24219-0.40234 0.46484-0.51562 0.67188h3.4688l-0.1875 0.875z"/>
   </g>
   <g id="use8258" transform="translate(532.09 5346.1)">
    <path id="path49605" d="m2.1406-7.875c0.5625 1.2109 0.84375 2.4531 0.84375 3.7344 0 0.85547-0.11719 1.6484-0.34375 2.375-0.21875 0.73047-0.55859 1.4609-1.0156 2.1875-0.3125 0.47656-0.79688 1.0977-1.4531 1.8594h-0.75c0.40625-0.44922 0.83594-1.0742 1.2969-1.875 0.46875-0.78906 0.80078-1.5703 1-2.3438 0.20703-0.76953 0.3125-1.5469 0.3125-2.3281 0-1.1641-0.19922-2.3672-0.59375-3.6094z"/>
   </g>
  </g>
  <path id="path8262" d="m110.47 111.5v79.571" style="fill:none;stroke-miterlimit:10;stroke-width:.38806;stroke:#1c1c19"/>
  <path id="path8264" d="m110.47 109.15c-0.40928 1.1024-1.1066 2.4694-1.8466 3.3183l1.8466-0.66837 1.8466 0.66837c-0.74-0.84889-1.4373-2.2159-1.8466-3.3183" style="fill:#1c1c19"/>
  <path id="path8266" d="m110.47 193.41c-0.40928-1.1024-1.1066-2.4708-1.8466-3.3183l1.8466 0.66834 1.8466-0.66834c-0.74 0.84748-1.4373 2.2159-1.8466 3.3183" style="fill:#1c1c19"/>
  <path id="path8268" d="m150.48 151.06h-80.092" style="fill:none;stroke-miterlimit:10;stroke-width:.38806;stroke:#1c1c19"/>
  <path id="path8270" d="m152.82 151.06c-1.1024-0.40929-2.4694-1.1066-3.3183-1.8466l0.66835 1.8466-0.66835 1.8452c0.84888-0.73861 2.2159-1.4359 3.3183-1.8452" style="fill:#1c1c19"/>
  <path id="path8272" d="m68.042 151.06c1.1024-0.40929 2.4694-1.1066 3.3183-1.8466l-0.66835 1.8466 0.66835 1.8452c-0.84887-0.73861-2.2159-1.4359-3.3183-1.8452" style="fill:#1c1c19"/>
  <path id="path8274" d="m117.55 150.08v2.0464" style="fill:none;stroke-miterlimit:10;stroke-width:.42122;stroke:#1c1c19"/>
  <path id="path8276" d="m124.77 150.08v2.0464" style="fill:none;stroke-miterlimit:10;stroke-width:.42122;stroke:#1c1c19"/>
  <path id="path8278" d="m131.98 150.08v2.0464" style="fill:none;stroke-miterlimit:10;stroke-width:.42122;stroke:#1c1c19"/>
  <path id="path8280" d="m139.2 150.08v2.0464" style="fill:none;stroke-miterlimit:10;stroke-width:.42122;stroke:#1c1c19"/>
  <path id="path8282" d="m146.48 150.08v2.0464" style="fill:none;stroke-miterlimit:10;stroke-width:.42122;stroke:#1c1c19"/>
  <path id="path8284" d="m74.215 150.08v2.0464" style="fill:none;stroke-miterlimit:10;stroke-width:.42122;stroke:#1c1c19"/>
  <path id="path8286" d="m81.434 150.08v2.0464" style="fill:none;stroke-miterlimit:10;stroke-width:.42122;stroke:#1c1c19"/>
  <path id="path8288" d="m88.65 150.08v2.0464" style="fill:none;stroke-miterlimit:10;stroke-width:.42122;stroke:#1c1c19"/>
  <path id="path8290" d="m95.867 150.08v2.0464" style="fill:none;stroke-miterlimit:10;stroke-width:.42122;stroke:#1c1c19"/>
  <path id="path8292" d="m103.15 150.08v2.0464" style="fill:none;stroke-miterlimit:10;stroke-width:.42122;stroke:#1c1c19"/>
  <path id="path8294" d="m109.45 143.91h2.0478" style="fill:none;stroke-miterlimit:10;stroke-width:.42122;stroke:#1c1c19"/>
  <path id="path8296" d="m109.45 136.74h2.0478" style="fill:none;stroke-miterlimit:10;stroke-width:.42122;stroke:#1c1c19"/>
  <path id="path8298" d="m109.45 129.52h2.0478" style="fill:none;stroke-miterlimit:10;stroke-width:.42122;stroke:#1c1c19"/>
  <path id="path8300" d="m109.45 122.3h2.0478" style="fill:none;stroke-miterlimit:10;stroke-width:.42122;stroke:#1c1c19"/>
  <path id="path8302" d="m109.45 115.09h2.0478" style="fill:none;stroke-miterlimit:10;stroke-width:.42122;stroke:#1c1c19"/>
  <path id="path8304" d="m109.45 187.24h2.0478" style="fill:none;stroke-miterlimit:10;stroke-width:.42122;stroke:#1c1c19"/>
  <path id="path8306" d="m109.45 180.06h2.0478" style="fill:none;stroke-miterlimit:10;stroke-width:.42122;stroke:#1c1c19"/>
  <path id="path8308" d="m109.45 172.84h2.0478" style="fill:none;stroke-miterlimit:10;stroke-width:.42122;stroke:#1c1c19"/>
  <path id="path8310" d="m109.45 165.63h2.0478" style="fill:none;stroke-miterlimit:10;stroke-width:.42122;stroke:#1c1c19"/>
  <path id="path8312" d="m109.45 158.41h2.0478" style="fill:none;stroke-miterlimit:10;stroke-width:.42122;stroke:#1c1c19"/>
  <g id="g8316" transform="matrix(.35278 0 0 .35278 -14.962 -1711.4)" style="fill:#1c1c19">
   <g id="use8314" transform="translate(364 5162.7)">
    <path id="path49609" d="m0.09375-5.0781 1.875 4.6719c0.046875 0.125 0.0625 0.20312 0.0625 0.25s-0.03125 0.125-0.0625 0.21875c-0.21875 0.46875-0.53125 0.82812-0.78125 1.0312-0.28125 0.23438-0.57812 0.375-0.8125 0.45312l0.23438 0.78125c0.23438-0.046875 0.6875-0.20312 1.1406-0.60938 0.625-0.54688 1.0781-1.4375 1.7344-3.1719l1.3906-3.625h-0.98438l-1 2.9844c-0.125 0.35938-0.23438 0.75-0.32812 1.0469h-0.015625c-0.09375-0.29688-0.21875-0.70312-0.32812-1.0312l-1.1094-3z"/>
   </g>
  </g>
  <g id="g8320" transform="matrix(.35278 0 0 .35278 -14.962 -1711.4)" style="fill:#1c1c19">
   <g id="use8318" transform="translate(468.32 5270.2)">
    <path id="path49613" d="m0.17188-5.0781 1.7188 2.4844-1.8125 2.5938h1.0312l0.73438-1.1406c0.1875-0.3125 0.35938-0.57812 0.53125-0.89062h0.015625c0.1875 0.3125 0.34375 0.59375 0.54688 0.89062l0.75 1.1406h1.0469l-1.7812-2.625 1.7344-2.4531h-1l-0.71875 1.0781c-0.17188 0.26562-0.32812 0.53125-0.5 0.84375h-0.03125c-0.17188-0.28125-0.32812-0.54688-0.51562-0.82812l-0.71875-1.0938z"/>
   </g>
  </g>
  <g id="g8324" transform="matrix(.35278 0 0 .35278 -14.962 -1711.4)" style="fill:#1c1c19">
   <g id="use8322" transform="translate(346.49 5290)">
    <path id="path49617" d="m2.75-6.9375c-1.3906 0-2.375 1.25-2.375 3.5469 0.03125 2.25 0.92188 3.5 2.2656 3.5 1.5 0 2.375-1.2812 2.375-3.5938 0-2.1719-0.82812-3.4531-2.2656-3.4531zm-0.046875 0.71875c0.95312 0 1.375 1.0938 1.375 2.7812 0 1.7344-0.4375 2.8438-1.3906 2.8438-0.84375 0-1.3906-1.0156-1.3906-2.7812 0-1.8594 0.59375-2.8438 1.4062-2.8438z"/>
   </g>
  </g>
  <g id="g8328" transform="matrix(.35278 0 0 .35278 -14.962 -1711.4)" style="fill:#1c1c19">
   <g id="use8326" transform="translate(373.03 5293.4)">
    <path id="path49621" d="m2.4844 0h0.89062v-6.8281h-0.79688l-1.4844 0.79688 0.17188 0.70312 1.1875-0.64062h0.03125z"/>
   </g>
  </g>
  <g id="g8332" transform="matrix(.35278 0 0 .35278 -14.962 -1711.4)" style="fill:#1c1c19">
   <g id="use8330" transform="translate(341.94 5262.3)">
    <path id="path49625" d="m2.4844 0h0.89062v-6.8281h-0.79688l-1.4844 0.79688 0.17188 0.70312 1.1875-0.64062h0.03125z"/>
   </g>
  </g>
  <g id="g8338" transform="matrix(.35278 0 0 .35278 -14.962 -1711.4)" style="fill:#1c1c19">
   <g id="use8334" transform="translate(339.5 5303.1)">
    <path id="path49629" d="m0.3125-3.1875v0.6875h2.5938v-0.6875z"/>
   </g>
   <g id="use8336" transform="translate(342.77 5303.1)">
    <path id="path49633" d="m2.4844 0h0.89062v-6.8281h-0.79688l-1.4844 0.79688 0.17188 0.70312 1.1875-0.64062h0.03125z"/>
   </g>
  </g>
  <g id="g8344" transform="matrix(.35278 0 0 .35278 -14.962 -1711.4)" style="fill:#1c1c19">
   <g id="use8340" transform="translate(328.77 5293.4)">
    <path id="path49637" d="m0.3125-3.1875v0.6875h2.5938v-0.6875z"/>
   </g>
   <g id="use8342" transform="translate(332.05 5293.4)">
    <path id="path49641" d="m2.4844 0h0.89062v-6.8281h-0.79688l-1.4844 0.79688 0.17188 0.70312 1.1875-0.64062h0.03125z"/>
   </g>
  </g>
  <g id="g8348" transform="matrix(.35278 0 0 .35278 -14.962 -1711.4)" style="fill:#1c1c19">
   <g id="use8346" transform="translate(392.52 5293.4)">
    <path id="path49645" d="m4.8281 0v-0.76562h-3.0625v-0.015625l0.54688-0.51562c1.4375-1.375 2.3438-2.4062 2.3438-3.6562 0-0.98438-0.60938-1.9844-2.0781-1.9844-0.79688 0-1.4688 0.29688-1.9375 0.6875l0.29688 0.65625c0.3125-0.26562 0.82812-0.57812 1.4531-0.57812 1.0156 0 1.3438 0.64062 1.3438 1.3281 0 1.0312-0.79688 1.9219-2.5312 3.5781l-0.73438 0.70312v0.5625z"/>
   </g>
  </g>
  <g id="g8352" transform="matrix(.35278 0 0 .35278 -14.962 -1711.4)" style="fill:#1c1c19">
   <g id="use8350" transform="translate(341.7 5242.6)">
    <path id="path49649" d="m4.8281 0v-0.76562h-3.0625v-0.015625l0.54688-0.51562c1.4375-1.375 2.3438-2.4062 2.3438-3.6562 0-0.98438-0.60938-1.9844-2.0781-1.9844-0.79688 0-1.4688 0.29688-1.9375 0.6875l0.29688 0.65625c0.3125-0.26562 0.82812-0.57812 1.4531-0.57812 1.0156 0 1.3438 0.64062 1.3438 1.3281 0 1.0312-0.79688 1.9219-2.5312 3.5781l-0.73438 0.70312v0.5625z"/>
   </g>
  </g>
  <g id="g8358" transform="matrix(.35278 0 0 .35278 -14.962 -1711.4)" style="fill:#1c1c19">
   <g id="use8354" transform="translate(339.26 5323.6)">
    <path id="path49653" d="m0.3125-3.1875v0.6875h2.5938v-0.6875z"/>
   </g>
   <g id="use8356" transform="translate(342.53 5323.6)">
    <path id="path49657" d="m4.8281 0v-0.76562h-3.0625v-0.015625l0.54688-0.51562c1.4375-1.375 2.3438-2.4062 2.3438-3.6562 0-0.98438-0.60938-1.9844-2.0781-1.9844-0.79688 0-1.4688 0.29688-1.9375 0.6875l0.29688 0.65625c0.3125-0.26562 0.82812-0.57812 1.4531-0.57812 1.0156 0 1.3438 0.64062 1.3438 1.3281 0 1.0312-0.79688 1.9219-2.5312 3.5781l-0.73438 0.70312v0.5625z"/>
   </g>
  </g>
  <g id="g8364" transform="matrix(.35278 0 0 .35278 -14.962 -1711.4)" style="fill:#1c1c19">
   <g id="use8360" transform="translate(308.77 5293.1)">
    <path id="path49661" d="m0.3125-3.1875v0.6875h2.5938v-0.6875z"/>
   </g>
   <g id="use8362" transform="translate(312.04 5293.1)">
    <path id="path49665" d="m4.8281 0v-0.76562h-3.0625v-0.015625l0.54688-0.51562c1.4375-1.375 2.3438-2.4062 2.3438-3.6562 0-0.98438-0.60938-1.9844-2.0781-1.9844-0.79688 0-1.4688 0.29688-1.9375 0.6875l0.29688 0.65625c0.3125-0.26562 0.82812-0.57812 1.4531-0.57812 1.0156 0 1.3438 0.64062 1.3438 1.3281 0 1.0312-0.79688 1.9219-2.5312 3.5781l-0.73438 0.70312v0.5625z"/>
   </g>
  </g>
  <g id="g8368" transform="matrix(.35278 0 0 .35278 -14.962 -1711.4)" style="fill:#1c1c19">
   <g id="use8366" transform="translate(412.98 5293.4)">
    <path id="path49669" d="m0.4375-0.34375c0.34375 0.21875 1.0156 0.45312 1.7812 0.45312 1.6406 0 2.4844-0.95312 2.4844-2.0469 0-0.95312-0.6875-1.5781-1.5156-1.75v-0.015625c0.82812-0.3125 1.25-0.90625 1.25-1.6094 0-0.82812-0.60938-1.625-1.9531-1.625-0.73438 0-1.4219 0.26562-1.7812 0.51562l0.23438 0.67188c0.29688-0.20312 0.82812-0.4375 1.375-0.4375 0.84375 0 1.1875 0.46875 1.1875 1.0156 0 0.8125-0.84375 1.1562-1.5156 1.1562h-0.51562v0.70312h0.51562c0.89062 0 1.75 0.40625 1.7656 1.3594 0.015625 0.5625-0.35938 1.3281-1.5469 1.3281-0.64062 0-1.25-0.26562-1.5156-0.4375z"/>
   </g>
  </g>
  <g id="g8372" transform="matrix(.35278 0 0 .35278 -14.962 -1711.4)" style="fill:#1c1c19">
   <g id="use8370" transform="translate(341.7 5222.9)">
    <path id="path49673" d="m0.4375-0.34375c0.34375 0.21875 1.0156 0.45312 1.7812 0.45312 1.6406 0 2.4844-0.95312 2.4844-2.0469 0-0.95312-0.6875-1.5781-1.5156-1.75v-0.015625c0.82812-0.3125 1.25-0.90625 1.25-1.6094 0-0.82812-0.60938-1.625-1.9531-1.625-0.73438 0-1.4219 0.26562-1.7812 0.51562l0.23438 0.67188c0.29688-0.20312 0.82812-0.4375 1.375-0.4375 0.84375 0 1.1875 0.46875 1.1875 1.0156 0 0.8125-0.84375 1.1562-1.5156 1.1562h-0.51562v0.70312h0.51562c0.89062 0 1.75 0.40625 1.7656 1.3594 0.015625 0.5625-0.35938 1.3281-1.5469 1.3281-0.64062 0-1.25-0.26562-1.5156-0.4375z"/>
   </g>
  </g>
  <g id="g8378" transform="matrix(.35278 0 0 .35278 -14.962 -1711.4)" style="fill:#1c1c19">
   <g id="use8374" transform="translate(339.26 5344.2)">
    <path id="path49677" d="m0.3125-3.1875v0.6875h2.5938v-0.6875z"/>
   </g>
   <g id="use8376" transform="translate(342.53 5344.2)">
    <path id="path49681" d="m0.4375-0.34375c0.34375 0.21875 1.0156 0.45312 1.7812 0.45312 1.6406 0 2.4844-0.95312 2.4844-2.0469 0-0.95312-0.6875-1.5781-1.5156-1.75v-0.015625c0.82812-0.3125 1.25-0.90625 1.25-1.6094 0-0.82812-0.60938-1.625-1.9531-1.625-0.73438 0-1.4219 0.26562-1.7812 0.51562l0.23438 0.67188c0.29688-0.20312 0.82812-0.4375 1.375-0.4375 0.84375 0 1.1875 0.46875 1.1875 1.0156 0 0.8125-0.84375 1.1562-1.5156 1.1562h-0.51562v0.70312h0.51562c0.89062 0 1.75 0.40625 1.7656 1.3594 0.015625 0.5625-0.35938 1.3281-1.5469 1.3281-0.64062 0-1.25-0.26562-1.5156-0.4375z"/>
   </g>
  </g>
  <g id="g8384" transform="matrix(.35278 0 0 .35278 -14.962 -1711.4)" style="fill:#1c1c19">
   <g id="use8380" transform="translate(288.19 5293.1)">
    <path id="path49685" d="m0.3125-3.1875v0.6875h2.5938v-0.6875z"/>
   </g>
   <g id="use8382" transform="translate(291.47 5293.1)">
    <path id="path49689" d="m0.4375-0.34375c0.34375 0.21875 1.0156 0.45312 1.7812 0.45312 1.6406 0 2.4844-0.95312 2.4844-2.0469 0-0.95312-0.6875-1.5781-1.5156-1.75v-0.015625c0.82812-0.3125 1.25-0.90625 1.25-1.6094 0-0.82812-0.60938-1.625-1.9531-1.625-0.73438 0-1.4219 0.26562-1.7812 0.51562l0.23438 0.67188c0.29688-0.20312 0.82812-0.4375 1.375-0.4375 0.84375 0 1.1875 0.46875 1.1875 1.0156 0 0.8125-0.84375 1.1562-1.5156 1.1562h-0.51562v0.70312h0.51562c0.89062 0 1.75 0.40625 1.7656 1.3594 0.015625 0.5625-0.35938 1.3281-1.5469 1.3281-0.64062 0-1.25-0.26562-1.5156-0.4375z"/>
   </g>
  </g>
  <g id="g8388" transform="matrix(.35278 0 0 .35278 -14.962 -1711.4)" style="fill:#1c1c19">
   <g id="use8386" transform="translate(433.44 5293.4)">
    <path id="path49693" d="m4.2031 0v-1.8594h0.95312v-0.71875h-0.95312v-4.25h-1l-3.0469 4.3594v0.60938h3.1719v1.8594zm-3.1094-2.5781v-0.03125l1.6719-2.3125c0.1875-0.3125 0.35938-0.60938 0.5625-1.0156h0.03125c-0.015625 0.35938-0.03125 0.71875-0.03125 1.0781v2.2812z"/>
   </g>
  </g>
  <g id="g8392" transform="matrix(.35278 0 0 .35278 -14.962 -1711.4)" style="fill:#1c1c19">
   <g id="use8390" transform="translate(341.7 5203.1)">
    <path id="path49697" d="m4.2031 0v-1.8594h0.95312v-0.71875h-0.95312v-4.25h-1l-3.0469 4.3594v0.60938h3.1719v1.8594zm-3.1094-2.5781v-0.03125l1.6719-2.3125c0.1875-0.3125 0.35938-0.60938 0.5625-1.0156h0.03125c-0.015625 0.35938-0.03125 0.71875-0.03125 1.0781v2.2812z"/>
   </g>
  </g>
  <g id="g8398" transform="matrix(.35278 0 0 .35278 -14.962 -1711.4)" style="fill:#1c1c19">
   <g id="use8394" transform="translate(339.26 5364.5)">
    <path id="path49701" d="m0.3125-3.1875v0.6875h2.5938v-0.6875z"/>
   </g>
   <g id="use8396" transform="translate(342.53 5364.5)">
    <path id="path49705" d="m4.2031 0v-1.8594h0.95312v-0.71875h-0.95312v-4.25h-1l-3.0469 4.3594v0.60938h3.1719v1.8594zm-3.1094-2.5781v-0.03125l1.6719-2.3125c0.1875-0.3125 0.35938-0.60938 0.5625-1.0156h0.03125c-0.015625 0.35938-0.03125 0.71875-0.03125 1.0781v2.2812z"/>
   </g>
  </g>
  <g id="g8404" transform="matrix(.35278 0 0 .35278 -14.962 -1711.4)" style="fill:#1c1c19">
   <g id="use8400" transform="translate(267.77 5293.1)">
    <path id="path49709" d="m0.3125-3.1875v0.6875h2.5938v-0.6875z"/>
   </g>
   <g id="use8402" transform="translate(271.04 5293.1)">
    <path id="path49713" d="m4.2031 0v-1.8594h0.95312v-0.71875h-0.95312v-4.25h-1l-3.0469 4.3594v0.60938h3.1719v1.8594zm-3.1094-2.5781v-0.03125l1.6719-2.3125c0.1875-0.3125 0.35938-0.60938 0.5625-1.0156h0.03125c-0.015625 0.35938-0.03125 0.71875-0.03125 1.0781v2.2812z"/>
   </g>
  </g>
  <g id="g8408" transform="matrix(.35278 0 0 .35278 -14.962 -1711.4)" style="fill:#1c1c19">
   <g id="use8406" transform="translate(454.08 5293.4)">
    <path id="path49717" d="m4.5469-6.8281h-3.2656l-0.4375 3.2812c0.25-0.03125 0.54688-0.078125 0.9375-0.078125 1.375 0 1.9531 0.625 1.9688 1.5156 0 0.90625-0.75 1.4844-1.625 1.4844-0.60938 0-1.1719-0.21875-1.4531-0.39062l-0.23438 0.71875c0.32812 0.20312 0.95312 0.40625 1.7031 0.40625 1.4844 0 2.5469-0.98438 2.5469-2.3281 0-0.85938-0.45312-1.4531-0.98438-1.75-0.42188-0.25-0.9375-0.375-1.4688-0.375-0.25 0-0.39062 0.03125-0.54688 0.046875l0.25-1.75h2.6094z"/>
   </g>
  </g>
  <g id="g8412" transform="matrix(.35278 0 0 .35278 -14.962 -1711.4)" style="fill:#1c1c19">
   <g id="use8410" transform="translate(341.69 5183.4)">
    <path id="path49721" d="m4.5469-6.8281h-3.2656l-0.4375 3.2812c0.25-0.03125 0.54688-0.078125 0.9375-0.078125 1.375 0 1.9531 0.625 1.9688 1.5156 0 0.90625-0.75 1.4844-1.625 1.4844-0.60938 0-1.1719-0.21875-1.4531-0.39062l-0.23438 0.71875c0.32812 0.20312 0.95312 0.40625 1.7031 0.40625 1.4844 0 2.5469-0.98438 2.5469-2.3281 0-0.85938-0.45312-1.4531-0.98438-1.75-0.42188-0.25-0.9375-0.375-1.4688-0.375-0.25 0-0.39062 0.03125-0.54688 0.046875l0.25-1.75h2.6094z"/>
   </g>
  </g>
  <g id="g8418" transform="matrix(.35278 0 0 .35278 -14.962 -1711.4)" style="fill:#1c1c19">
   <g id="use8414" transform="translate(339.25 5384.9)">
    <path id="path49725" d="m0.3125-3.1875v0.6875h2.5938v-0.6875z"/>
   </g>
   <g id="use8416" transform="translate(342.52 5384.9)">
    <path id="path49729" d="m4.5469-6.8281h-3.2656l-0.4375 3.2812c0.25-0.03125 0.54688-0.078125 0.9375-0.078125 1.375 0 1.9531 0.625 1.9688 1.5156 0 0.90625-0.75 1.4844-1.625 1.4844-0.60938 0-1.1719-0.21875-1.4531-0.39062l-0.23438 0.71875c0.32812 0.20312 0.95312 0.40625 1.7031 0.40625 1.4844 0 2.5469-0.98438 2.5469-2.3281 0-0.85938-0.45312-1.4531-0.98438-1.75-0.42188-0.25-0.9375-0.375-1.4688-0.375-0.25 0-0.39062 0.03125-0.54688 0.046875l0.25-1.75h2.6094z"/>
   </g>
  </g>
  <g id="g8424" transform="matrix(.35278 0 0 .35278 -14.962 -1711.4)" style="fill:#1c1c19">
   <g id="use8420" transform="translate(247.33 5293)">
    <path id="path49733" d="m0.3125-3.1875v0.6875h2.5938v-0.6875z"/>
   </g>
   <g id="use8422" transform="translate(250.61 5293)">
    <path id="path49737" d="m4.5469-6.8281h-3.2656l-0.4375 3.2812c0.25-0.03125 0.54688-0.078125 0.9375-0.078125 1.375 0 1.9531 0.625 1.9688 1.5156 0 0.90625-0.75 1.4844-1.625 1.4844-0.60938 0-1.1719-0.21875-1.4531-0.39062l-0.23438 0.71875c0.32812 0.20312 0.95312 0.40625 1.7031 0.40625 1.4844 0 2.5469-0.98438 2.5469-2.3281 0-0.85938-0.45312-1.4531-0.98438-1.75-0.42188-0.25-0.9375-0.375-1.4688-0.375-0.25 0-0.39062 0.03125-0.54688 0.046875l0.25-1.75h2.6094z"/>
   </g>
  </g>
  <path id="path8428" d="m88.92 165.72 14.228 14.338 27.999-13.949" style="fill:none;stroke-miterlimit:10;stroke-width:.70556;stroke:#1c1c19"/>
  <path id="path8430" d="m89.747 165.53c0 0.58843-0.4768 1.0652-1.0652 1.0652-0.58704 0-1.0638-0.47682-1.0638-1.0652 0-0.5884 0.4768-1.0652 1.0638-1.0652 0.58842 0 1.0652 0.47681 1.0652 1.0652" style="fill:#1c1c19"/>
  <path id="path8432" d="m133.02 165.61c0 0.57467-0.46578 1.0404-1.0404 1.0404-0.57327 0-1.039-0.46578-1.039-1.0404 0-0.57327 0.46577-1.039 1.039-1.039 0.57464 0 1.0404 0.46577 1.0404 1.039z" style="fill:none;stroke-miterlimit:10;stroke-width:.70556;stroke:#1c1c19"/>
  <path id="path8434" d="m147.63 162.99-9.8792 1.2002" style="fill:none;stroke-miterlimit:10;stroke-width:.35278;stroke:#1c1ca1"/>
  <path id="path8436" d="m138.32 163.09-3.6725 1.4786 3.9205 0.55538z" style="fill:#1c1ca1"/>
  <path id="path8438" d="m73.332 162.83 10.611 1.3904" style="fill:none;stroke-miterlimit:10;stroke-width:.35278;stroke:#1c1ca1"/>
  <path id="path8440" d="m83.118 165.15 3.9247-0.52092-3.6587-1.5117z" style="fill:#1c1ca1"/>
 </g>
</svg>
