<svg xmlns="http://www.w3.org/2000/svg" xmlns:xlink="http://www.w3.org/1999/xlink" viewBox="0 0 46.47 33.47"><defs><clipPath id="clip-path" transform="translate(-569.99 -1859.38)"><rect width="930" height="4943.41" style="fill:none"/></clipPath></defs><title>img_2</title><g id="Layer_2" data-name="Layer 2"><g id="Layer_1-2" data-name="Layer 1"><g style="clip-path:url(#clip-path)"><path d="M570,1881.84l1.55-8.3h1.27l-.24,1.26a4.68,4.68,0,0,1,1.12-1.17,1.87,1.87,0,0,1,.95-.28,2.28,2.28,0,0,1,1.36.46l-.73,1.3a1.73,1.73,0,0,0-1-.3,1.59,1.59,0,0,0-.88.27,2.09,2.09,0,0,0-.67.77,6.2,6.2,0,0,0-.54,1.64l-.82,4.35Z" transform="translate(-569.99 -1859.38)"/><path d="M583,1873.52h9.32v1.33H583Zm9.32,4.65H583v-1.32h9.32Z" transform="translate(-569.99 -1859.38)"/><line x1="32.97" y1="17.47" x2="45.97" y2="17.47" style="fill:none;stroke:#000;stroke-linecap:square;stroke-miterlimit:10"/><path d="M610.39,1870.83l.19-1A3.18,3.18,0,0,1,608,1871a2.76,2.76,0,0,1-1.72-.55,2.71,2.71,0,0,1-1-1.52,5,5,0,0,1,0-2.26,7,7,0,0,1,.84-2.25,4.29,4.29,0,0,1,1.53-1.55,3.84,3.84,0,0,1,2-.54,2.42,2.42,0,0,1,1.27.32,2.1,2.1,0,0,1,.8.82l.77-4.11h1.4l-2.15,11.45Zm-3.67-4.14a3.26,3.26,0,0,0,.22,2.39,1.66,1.66,0,0,0,1.44.79,2.44,2.44,0,0,0,1.71-.76,4.23,4.23,0,0,0,1.08-2.3,3.55,3.55,0,0,0-.19-2.5,1.65,1.65,0,0,0-1.47-.8,2.41,2.41,0,0,0-1.71.77A4.48,4.48,0,0,0,606.72,1866.69Z" transform="translate(-569.99 -1859.38)"/></g><path d="M613,1891.49v1.36h-7.57a2.49,2.49,0,0,1,.16-1,5.37,5.37,0,0,1,.93-1.52,15.33,15.33,0,0,1,1.84-1.74,15.26,15.26,0,0,0,2.52-2.42,2.91,2.91,0,0,0,.66-1.7,1.9,1.9,0,0,0-.6-1.41,2.44,2.44,0,0,0-3.18,0,2.32,2.32,0,0,0-.62,1.69l-1.44-.15a3.56,3.56,0,0,1,1.11-2.47,3.85,3.85,0,0,1,2.6-.84,3.62,3.62,0,0,1,2.61.91,3,3,0,0,1,1,2.27,3.42,3.42,0,0,1-.29,1.35,5.22,5.22,0,0,1-.93,1.4,21.81,21.81,0,0,1-2.17,2q-1.26,1.07-1.62,1.44a5.52,5.52,0,0,0-.6.76Z" transform="translate(-569.99 -1859.38)"/></g></g></svg>