<svg id="svg45287" version="1.1" viewBox="0 0 213.72 70.463" xmlns="http://www.w3.org/2000/svg">
 <title id="title45701">img_38</title>
 <g id="layer1" transform="translate(38.824 -99.328)">
  <g id="g45638">
   <g id="use37921" transform="matrix(.35278 0 0 .35278 -3.2404 110.27)" style="fill:#1c1c19">
    <path id="path44992" d="m3.9531 0h1.6875v-11.609h4v-1.4219h-9.6562v1.4219h3.9688z"/>
   </g>
   <g id="use37925" transform="matrix(.35278 0 0 .35278 .10291 110.27)" style="fill:#1c1c19">
    <path id="path44996" d="m3.1094 0v-9.3594h-1.7031v9.3594zm-0.84375-13.062c-0.625 0-1.0625 0.46875-1.0625 1.0625s0.42188 1.0469 1.0156 1.0469c0.6875 0 1.1094-0.45312 1.0938-1.0469 0-0.59375-0.40625-1.0625-1.0469-1.0625z"/>
   </g>
   <g id="use37927" transform="matrix(.35278 0 0 .35278 1.7336 110.27)" style="fill:#1c1c19">
    <path id="path45000" d="m1.4062 0h1.6719v-5.6406c0-0.29688 0.03125-0.59375 0.14062-0.84375 0.26562-0.84375 1.0312-1.7031 2.0938-1.7031 1.2969 0 1.9531 1.0938 1.9531 2.5781v5.6094h1.6719v-5.7812c0-0.3125 0.0625-0.625 0.14062-0.85938 0.28125-0.82812 1.0312-1.5469 2-1.5469 1.375 0 2.0312 1.0938 2.0312 2.8906v5.2969h1.6719v-5.5156c0-3.25-1.8438-4.0625-3.0781-4.0625-0.89062 0-1.5156 0.23438-2.0625 0.65625-0.39062 0.29688-0.76562 0.70312-1.0469 1.2188h-0.046875c-0.40625-1.0938-1.375-1.875-2.6406-1.875-1.5469 0-2.4219 0.82812-2.9531 1.7188h-0.046875l-0.078125-1.5h-1.5c0.0625 0.76562 0.078125 1.5625 0.078125 2.5312z"/>
   </g>
   <g id="use37929" transform="matrix(.35278 0 0 .35278 7.4581 110.27)" style="fill:#1c1c19">
    <path id="path45004" d="m8.9375-4.375c0.015625-0.17188 0.0625-0.4375 0.0625-0.79688 0-1.7188-0.8125-4.4062-3.875-4.4062-2.7188 0-4.3906 2.2344-4.3906 5.0469 0 2.8281 1.7188 4.7188 4.6094 4.7188 1.4844 0 2.5156-0.29688 3.1094-0.57812l-0.29688-1.2188c-0.625 0.28125-1.3594 0.48438-2.5781 0.48438-1.7031 0-3.1719-0.9375-3.2188-3.25zm-6.5625-1.2188c0.14062-1.1719 0.89062-2.7656 2.6094-2.7656 1.9219 0 2.3906 1.6875 2.3594 2.7656z"/>
   </g>
  </g>
  <g id="g45654">
   <g id="use37933" transform="matrix(.35278 0 0 .35278 12.391 110.27)" style="fill:#1c1c19">
    <path id="path45008" d="m3.7656-13.422c-1.2188 1.625-2.5156 4.0938-2.5312 7.9062 0 3.7812 1.3125 6.25 2.5312 7.8594h1.3438c-1.375-1.9375-2.4375-4.4062-2.4375-7.8594 0-3.5 1.0156-6.0156 2.4375-7.9062z"/>
   </g>
   <g id="use37935" transform="matrix(.35278 0 0 .35278 14.363 110.27)" style="fill:#1c1c19">
    <path id="path45012" d="m1.4062 0h1.7031v-5.6406c0-0.34375 0.03125-0.59375 0.125-0.8125 0.3125-0.9375 1.1719-1.7031 2.2812-1.7031 1.6094 0 2.1562 1.2656 2.1562 2.7812v5.375h1.7031v-5.5781c0-3.2188-2-4-3.2656-4-0.64062 0-1.2344 0.20312-1.7344 0.48438-0.53125 0.29688-0.95312 0.71875-1.2188 1.2031h-0.046875v-5.8438h-1.7031z"/>
   </g>
   <g id="use37937" transform="matrix(.35278 0 0 .35278 18.184 110.27)" style="fill:#1c1c19">
    <path id="path45016" d="m5.375-9.5781c-2.5938 0-4.6406 1.8438-4.6406 4.9688 0 2.9688 1.9531 4.8281 4.4844 4.8281 2.2656 0 4.6719-1.5156 4.6719-4.9844 0-2.8594-1.8281-4.8125-4.5156-4.8125zm-0.03125 1.2812c2 0 2.7969 2.0156 2.7969 3.5938 0 2.1094-1.2188 3.6406-2.8438 3.6406-1.6562 0-2.8438-1.5469-2.8438-3.5938 0-1.7812 0.875-3.6406 2.8906-3.6406z"/>
   </g>
   <g id="use37939" transform="matrix(.35278 0 0 .35278 21.964 110.27)" style="fill:#1c1c19">
    <path id="path45020" d="m9.25-9.3594h-1.7031v5.7344c0 0.3125-0.0625 0.625-0.15625 0.875-0.3125 0.75-1.1094 1.5469-2.25 1.5469-1.5469 0-2.0781-1.2031-2.0781-2.9688v-5.1875h-1.7031v5.4688c0 3.2969 1.75 4.1094 3.2188 4.1094 1.6719 0 2.6562-1 3.0938-1.75h0.046875l0.09375 1.5312h1.5156c-0.0625-0.73438-0.078125-1.5938-0.078125-2.5469z"/>
   </g>
   <g id="use37941" transform="matrix(.35278 0 0 .35278 25.758 110.27)" style="fill:#1c1c19">
    <path id="path45024" d="m1.4062 0h1.6875v-4.9844c0-0.29688 0.046875-0.5625 0.078125-0.79688 0.23438-1.2812 1.0781-2.1875 2.2812-2.1875 0.23438 0 0.40625 0.015625 0.57812 0.0625v-1.6094c-0.15625-0.046875-0.28125-0.0625-0.48438-0.0625-1.1406 0-2.1562 0.79688-2.5938 2.0469h-0.078125l-0.046875-1.8281h-1.5c0.0625 0.875 0.078125 1.8125 0.078125 2.9219z"/>
   </g>
   <g id="use37943" transform="matrix(.35278 0 0 .35278 28.023 110.27)" style="fill:#1c1c19">
    <path id="path45028" d="m0.75-0.4375c0.65625 0.375 1.6094 0.625 2.6406 0.625 2.2188 0 3.5-1.1562 3.5-2.7969 0-1.3906-0.84375-2.2031-2.4531-2.8281-1.2188-0.46875-1.7812-0.8125-1.7812-1.5781 0-0.70312 0.5625-1.2812 1.5625-1.2812 0.875 0 1.5469 0.3125 1.9062 0.54688l0.4375-1.25c-0.53125-0.29688-1.3594-0.57812-2.3125-0.57812-2 0-3.2188 1.2344-3.2188 2.75 0 1.125 0.78125 2.0469 2.4688 2.6562 1.2656 0.45312 1.7344 0.90625 1.7344 1.7188 0 0.76562-0.57812 1.3906-1.8125 1.3906-0.84375 0-1.7344-0.34375-2.2344-0.67188z"/>
   </g>
   <g id="use37945" transform="matrix(.35278 0 0 .35278 30.759 110.27)" style="fill:#1c1c19">
    <path id="path45032" d="m1.7031 2.3438c1.2344-1.6406 2.5312-4.1094 2.5312-7.8906 0-3.8125-1.2969-6.2969-2.5312-7.875h-1.3125c1.3906 1.9062 2.4375 4.3906 2.4375 7.8438 0 3.4844-1.0625 6-2.4375 7.9219z"/>
   </g>
  </g>
  <path id="path37951" d="m68.036 117.03h-106.68v-17.527h106.68z" style="fill:none;stroke-miterlimit:10;stroke-width:.35278;stroke:#7d7878"/>
  <path id="path37953" d="m174.72 117.03h-106.68v-17.527h106.68z" style="fill:none;stroke-miterlimit:10;stroke-width:.35278;stroke:#7d7878"/>
  <path id="path37955" d="m68.036 134.56h-106.68v-17.527h106.68z" style="fill:none;stroke-miterlimit:10;stroke-width:.35278;stroke:#7d7878"/>
  <path id="path37957" d="m174.72 134.56h-106.68v-17.527h106.68z" style="fill:none;stroke-miterlimit:10;stroke-width:.35278;stroke:#7d7878"/>
  <path id="path37959" d="m68.036 152.09h-106.68v-17.527h106.68z" style="fill:none;stroke-miterlimit:10;stroke-width:.35278;stroke:#7d7878"/>
  <path id="path37961" d="m174.72 152.09h-106.68v-17.527h106.68z" style="fill:none;stroke-miterlimit:10;stroke-width:.35278;stroke:#7d7878"/>
  <path id="path37963" d="m68.036 169.61h-106.68v-17.529h106.68z" style="fill:none;stroke-miterlimit:10;stroke-width:.35278;stroke:#7d7878"/>
  <path id="path37965" d="m174.72 169.61h-106.68v-17.529h106.68z" style="fill:none;stroke-miterlimit:10;stroke-width:.35278;stroke:#7d7878"/>
  <g id="g45608">
   <g id="use37967" transform="matrix(.35278 0 0 .35278 91.636 110.27)" style="fill:#1c1c19">
    <path id="path45036" d="m1.4688-0.03125c0.85938 0.09375 1.8594 0.14062 3.0625 0.14062 2.5312 0 4.5469-0.65625 5.7656-1.875 1.2188-1.1875 1.875-2.9375 1.875-5.0625 0-2.1094-0.6875-3.625-1.8438-4.6875-1.1406-1.0625-2.8594-1.625-5.2812-1.625-1.3281 0-2.5469 0.125-3.5781 0.28125zm1.6875-11.594c0.4375-0.09375 1.0938-0.17188 1.9688-0.17188 3.5625 0 5.2969 1.9531 5.2812 5.0312 0 3.5156-1.9531 5.5312-5.5469 5.5312-0.65625 0-1.2812-0.015625-1.7031-0.09375z"/>
   </g>
   <g id="use37969" transform="matrix(.35278 0 0 .35278 96.214 110.27)" style="fill:#1c1c19">
    <path id="path45040" d="m3.1094 0v-9.3594h-1.7031v9.3594zm-0.84375-13.062c-0.625 0-1.0625 0.46875-1.0625 1.0625s0.42188 1.0469 1.0156 1.0469c0.6875 0 1.1094-0.45312 1.0938-1.0469 0-0.59375-0.40625-1.0625-1.0469-1.0625z"/>
   </g>
   <g id="use37971" transform="matrix(.35278 0 0 .35278 97.845 110.27)" style="fill:#1c1c19">
    <path id="path45044" d="m0.75-0.4375c0.65625 0.375 1.6094 0.625 2.6406 0.625 2.2188 0 3.5-1.1562 3.5-2.7969 0-1.3906-0.84375-2.2031-2.4531-2.8281-1.2188-0.46875-1.7812-0.8125-1.7812-1.5781 0-0.70312 0.5625-1.2812 1.5625-1.2812 0.875 0 1.5469 0.3125 1.9062 0.54688l0.4375-1.25c-0.53125-0.29688-1.3594-0.57812-2.3125-0.57812-2 0-3.2188 1.2344-3.2188 2.75 0 1.125 0.78125 2.0469 2.4688 2.6562 1.2656 0.45312 1.7344 0.90625 1.7344 1.7188 0 0.76562-0.57812 1.3906-1.8125 1.3906-0.84375 0-1.7344-0.34375-2.2344-0.67188z"/>
   </g>
   <g id="use37973" transform="matrix(.35278 0 0 .35278 100.58 110.27)" style="fill:#1c1c19">
    <path id="path45048" d="m1.7969-11.609v2.25h-1.4531v1.2969h1.4531v5.1094c0 1.0938 0.17188 1.9219 0.65625 2.4375 0.40625 0.45312 1.0469 0.70312 1.8438 0.70312 0.65625 0 1.1719-0.09375 1.5-0.21875l-0.078125-1.2812c-0.20312 0.0625-0.53125 0.10938-0.98438 0.10938-0.9375 0-1.2656-0.65625-1.2656-1.8125v-5.0469h2.4375v-1.2969h-2.4375v-2.6875z"/>
   </g>
   <g id="use37975" transform="matrix(.35278 0 0 .35278 102.87 110.27)" style="fill:#1c1c19">
    <path id="path45052" d="m8.1406 0c-0.10938-0.64062-0.15625-1.4375-0.15625-2.25v-3.5c0-1.875-0.6875-3.8281-3.5469-3.8281-1.1875 0-2.3125 0.32812-3.0781 0.82812l0.375 1.125c0.67188-0.42188 1.5781-0.6875 2.4375-0.6875 1.9219 0 2.1406 1.3906 2.1406 2.1562v0.20312c-3.625-0.03125-5.6406 1.2188-5.6406 3.4844 0 1.3438 0.96875 2.6875 2.875 2.6875 1.3281 0 2.3281-0.65625 2.8594-1.4062h0.046875l0.14062 1.1875zm-1.7969-3.1562c0 0.17188-0.03125 0.375-0.09375 0.54688-0.26562 0.79688-1.0469 1.5625-2.2656 1.5625-0.875 0-1.6094-0.51562-1.6094-1.625 0-1.8125 2.1094-2.1406 3.9688-2.1094z"/>
   </g>
   <g id="use37977" transform="matrix(.35278 0 0 .35278 106.2 110.27)" style="fill:#1c1c19">
    <path id="path45056" d="m1.4062 0h1.7031v-5.625c0-0.29688 0.046875-0.57812 0.125-0.79688 0.28125-0.95312 1.1562-1.7344 2.2812-1.7344 1.6094 0 2.1562 1.25 2.1562 2.7656v5.3906h1.7031v-5.5938c0-3.2031-2-3.9844-3.2969-3.9844-1.5469 0-2.6406 0.875-3.0938 1.7656h-0.046875l-0.09375-1.5469h-1.5156c0.0625 0.76562 0.078125 1.5625 0.078125 2.5312z"/>
   </g>
   <g id="use37979" transform="matrix(.35278 0 0 .35278 110.02 110.27)" style="fill:#1c1c19">
    <path id="path45060" d="m7.7969-1.625c-0.48438 0.21875-1.125 0.46875-2.0938 0.46875-1.8594 0-3.25-1.3438-3.25-3.5 0-1.9531 1.1719-3.5469 3.3125-3.5469 0.92188 0 1.5625 0.21875 1.9688 0.45312l0.39062-1.3281c-0.46875-0.21875-1.3594-0.48438-2.3594-0.48438-3.0625 0-5.0312 2.0938-5.0312 4.9844 0 2.8594 1.8438 4.7656 4.6562 4.7656 1.2656 0 2.25-0.29688 2.6875-0.53125z"/>
   </g>
   <g id="use37983" transform="matrix(.35278 0 0 .35278 113.07 110.27)" style="fill:#1c1c19">
    <path id="path45064" d="m8.9375-4.375c0.015625-0.17188 0.0625-0.4375 0.0625-0.79688 0-1.7188-0.8125-4.4062-3.875-4.4062-2.7188 0-4.3906 2.2344-4.3906 5.0469 0 2.8281 1.7188 4.7188 4.6094 4.7188 1.4844 0 2.5156-0.29688 3.1094-0.57812l-0.29688-1.2188c-0.625 0.28125-1.3594 0.48438-2.5781 0.48438-1.7031 0-3.1719-0.9375-3.2188-3.25zm-6.5625-1.2188c0.14062-1.1719 0.89062-2.7656 2.6094-2.7656 1.9219 0 2.3906 1.6875 2.3594 2.7656z"/>
   </g>
  </g>
  <g id="g45628">
   <g id="use37987" transform="matrix(.35278 0 0 .35278 117.72 110.27)" style="fill:#1c1c19">
    <path id="path45068" d="m3.9531 0h1.6875v-11.609h4v-1.4219h-9.6562v1.4219h3.9688z"/>
   </g>
   <g id="use37991" transform="matrix(.35278 0 0 .35278 120.84 110.27)" style="fill:#1c1c19">
    <path id="path45072" d="m1.4062 0h1.6875v-4.9844c0-0.29688 0.046875-0.5625 0.078125-0.79688 0.23438-1.2812 1.0781-2.1875 2.2812-2.1875 0.23438 0 0.40625 0.015625 0.57812 0.0625v-1.6094c-0.15625-0.046875-0.28125-0.0625-0.48438-0.0625-1.1406 0-2.1562 0.79688-2.5938 2.0469h-0.078125l-0.046875-1.8281h-1.5c0.0625 0.875 0.078125 1.8125 0.078125 2.9219z"/>
   </g>
   <g id="use37995" transform="matrix(.35278 0 0 .35278 123.07 110.27)" style="fill:#1c1c19">
    <path id="path45076" d="m8.1406 0c-0.10938-0.64062-0.15625-1.4375-0.15625-2.25v-3.5c0-1.875-0.6875-3.8281-3.5469-3.8281-1.1875 0-2.3125 0.32812-3.0781 0.82812l0.375 1.125c0.67188-0.42188 1.5781-0.6875 2.4375-0.6875 1.9219 0 2.1406 1.3906 2.1406 2.1562v0.20312c-3.625-0.03125-5.6406 1.2188-5.6406 3.4844 0 1.3438 0.96875 2.6875 2.875 2.6875 1.3281 0 2.3281-0.65625 2.8594-1.4062h0.046875l0.14062 1.1875zm-1.7969-3.1562c0 0.17188-0.03125 0.375-0.09375 0.54688-0.26562 0.79688-1.0469 1.5625-2.2656 1.5625-0.875 0-1.6094-0.51562-1.6094-1.625 0-1.8125 2.1094-2.1406 3.9688-2.1094z"/>
   </g>
   <g id="use37999" transform="matrix(.35278 0 0 .35278 126.34 110.27)" style="fill:#1c1c19">
    <path id="path45080" d="m0.25-9.3594 3.5625 9.3594h1.625l3.6719-9.3594h-1.7812l-1.8125 5.2656c-0.3125 0.84375-0.57812 1.625-0.79688 2.3906h-0.0625c-0.1875-0.76562-0.4375-1.5469-0.75-2.3906l-1.8438-5.2656z"/>
   </g>
   <g id="use38003" transform="matrix(.35278 0 0 .35278 129.59 110.27)" style="fill:#1c1c19">
    <path id="path45084" d="m8.9375-4.375c0.015625-0.17188 0.0625-0.4375 0.0625-0.79688 0-1.7188-0.8125-4.4062-3.875-4.4062-2.7188 0-4.3906 2.2344-4.3906 5.0469 0 2.8281 1.7188 4.7188 4.6094 4.7188 1.4844 0 2.5156-0.29688 3.1094-0.57812l-0.29688-1.2188c-0.625 0.28125-1.3594 0.48438-2.5781 0.48438-1.7031 0-3.1719-0.9375-3.2188-3.25zm-6.5625-1.2188c0.14062-1.1719 0.89062-2.7656 2.6094-2.7656 1.9219 0 2.3906 1.6875 2.3594 2.7656z"/>
   </g>
   <g id="use38005" transform="matrix(.35278 0 0 .35278 133.04 110.27)" style="fill:#1c1c19">
    <path id="path45088" d="m1.4062 0h1.7031v-13.734h-1.7031z"/>
   </g>
   <g id="use38007" transform="matrix(.35278 0 0 .35278 134.68 110.27)" style="fill:#1c1c19">
    <path id="path45092" d="m1.4062 0h1.7031v-13.734h-1.7031z"/>
   </g>
   <g id="use38009" transform="matrix(.35278 0 0 .35278 136.33 110.27)" style="fill:#1c1c19">
    <path id="path45096" d="m8.9375-4.375c0.015625-0.17188 0.0625-0.4375 0.0625-0.79688 0-1.7188-0.8125-4.4062-3.875-4.4062-2.7188 0-4.3906 2.2344-4.3906 5.0469 0 2.8281 1.7188 4.7188 4.6094 4.7188 1.4844 0 2.5156-0.29688 3.1094-0.57812l-0.29688-1.2188c-0.625 0.28125-1.3594 0.48438-2.5781 0.48438-1.7031 0-3.1719-0.9375-3.2188-3.25zm-6.5625-1.2188c0.14062-1.1719 0.89062-2.7656 2.6094-2.7656 1.9219 0 2.3906 1.6875 2.3594 2.7656z"/>
   </g>
   <g id="use38011" transform="matrix(.35278 0 0 .35278 139.78 110.27)" style="fill:#1c1c19">
    <path id="path45100" d="m7.7969-13.734v5.5938h-0.046875c-0.42188-0.75-1.3906-1.4375-2.8125-1.4375-2.2812 0-4.2188 1.9219-4.2031 5.0312 0 2.8438 1.7344 4.7656 4 4.7656 1.5312 0 2.6719-0.79688 3.2031-1.8438h0.03125l0.078125 1.625h1.5312c-0.0625-0.64062-0.078125-1.5938-0.078125-2.4219v-11.312zm0 9.8125c0 0.26562-0.015625 0.5-0.078125 0.73438-0.3125 1.2656-1.3594 2.0312-2.5 2.0312-1.8281 0-2.7656-1.5781-2.7656-3.4688 0-2.0625 1.0469-3.6094 2.8125-3.6094 1.2656 0 2.2031 0.89062 2.4531 1.9688 0.0625 0.21875 0.078125 0.5 0.078125 0.71875z"/>
   </g>
  </g>
  <g id="g45664">
   <g id="use38017" transform="matrix(.35278 0 0 .35278 145.14 110.27)" style="fill:#1c1c19">
    <path id="path45104" d="m3.7656-13.422c-1.2188 1.625-2.5156 4.0938-2.5312 7.9062 0 3.7812 1.3125 6.25 2.5312 7.8594h1.3438c-1.375-1.9375-2.4375-4.4062-2.4375-7.8594 0-3.5 1.0156-6.0156 2.4375-7.9062z"/>
   </g>
   <g id="use38019" transform="matrix(.35278 0 0 .35278 147.11 110.27)" style="fill:#1c1c19">
    <path id="path45108" d="m3.0938-13.734h-1.6875v13.734h1.6875v-3.5156l0.875-0.96875 3.2344 4.4844h2.0625l-4.125-5.5156 3.625-3.8438h-2.0469l-2.75 3.2344c-0.28125 0.32812-0.60938 0.73438-0.82812 1.0625h-0.046875z"/>
   </g>
   <g id="use38023" transform="matrix(.35278 0 0 .35278 150.46 110.27)" style="fill:#1c1c19">
    <path id="path45112" d="m1.4062 0h1.6719v-5.6406c0-0.29688 0.03125-0.59375 0.14062-0.84375 0.26562-0.84375 1.0312-1.7031 2.0938-1.7031 1.2969 0 1.9531 1.0938 1.9531 2.5781v5.6094h1.6719v-5.7812c0-0.3125 0.0625-0.625 0.14062-0.85938 0.28125-0.82812 1.0312-1.5469 2-1.5469 1.375 0 2.0312 1.0938 2.0312 2.8906v5.2969h1.6719v-5.5156c0-3.25-1.8438-4.0625-3.0781-4.0625-0.89062 0-1.5156 0.23438-2.0625 0.65625-0.39062 0.29688-0.76562 0.70312-1.0469 1.2188h-0.046875c-0.40625-1.0938-1.375-1.875-2.6406-1.875-1.5469 0-2.4219 0.82812-2.9531 1.7188h-0.046875l-0.078125-1.5h-1.5c0.0625 0.76562 0.078125 1.5625 0.078125 2.5312z"/>
   </g>
   <g id="use38025" transform="matrix(.35278 0 0 .35278 156.19 110.27)" style="fill:#1c1c19">
    <path id="path45116" d="m1.7031 2.3438c1.2344-1.6406 2.5312-4.1094 2.5312-7.8906 0-3.8125-1.2969-6.2969-2.5312-7.875h-1.3125c1.3906 1.9062 2.4375 4.3906 2.4375 7.8438 0 3.4844-1.0625 6-2.4375 7.9219z"/>
   </g>
  </g>
  <g id="use38029" transform="matrix(.35278 0 0 .35278 12.189 127.8)" style="fill:#7d7878">
   <path id="path45120" d="m8.375-12.578h-6.0156l-0.8125 6.0469c0.46875-0.0625 1.0312-0.14062 1.7344-0.14062 2.5156 0 3.6094 1.1562 3.625 2.7812 0 1.6875-1.375 2.7344-2.9844 2.7344-1.1406 0-2.1562-0.39062-2.6875-0.70312l-0.42188 1.2969c0.59375 0.39062 1.7656 0.78125 3.1406 0.78125 2.7188 0 4.6719-1.8438 4.6719-4.2969 0-1.5938-0.8125-2.6719-1.7969-3.2344-0.78125-0.46875-1.7344-0.67188-2.7031-0.67188-0.46875 0-0.73438 0.03125-1.0312 0.078125l0.48438-3.2344h4.7969z"/>
  </g>
  <g id="g45670">
   <g id="use38035" transform="matrix(.35278 0 0 .35278 118.32 127.8)" style="fill:#7d7878">
    <path id="path45124" d="m8.375-12.578h-6.0156l-0.8125 6.0469c0.46875-0.0625 1.0312-0.14062 1.7344-0.14062 2.5156 0 3.6094 1.1562 3.625 2.7812 0 1.6875-1.375 2.7344-2.9844 2.7344-1.1406 0-2.1562-0.39062-2.6875-0.70312l-0.42188 1.2969c0.59375 0.39062 1.7656 0.78125 3.1406 0.78125 2.7188 0 4.6719-1.8438 4.6719-4.2969 0-1.5938-0.8125-2.6719-1.7969-3.2344-0.78125-0.46875-1.7344-0.67188-2.7031-0.67188-0.46875 0-0.73438 0.03125-1.0312 0.078125l0.48438-3.2344h4.7969z"/>
   </g>
   <g id="use38037" transform="matrix(.35278 0 0 .35278 121.85 127.8)" style="fill:#7d7878">
    <path id="path45128" d="m5.0625-12.781c-2.5469 0-4.3594 2.3125-4.3594 6.5312 0.03125 4.1562 1.7031 6.4688 4.1562 6.4688 2.7812 0 4.375-2.3594 4.375-6.6406 0-4-1.5156-6.3594-4.1719-6.3594zm-0.09375 1.3125c1.7656 0 2.5625 2.0312 2.5625 5.125 0 3.2031-0.84375 5.2344-2.5781 5.2344-1.5469 0-2.5469-1.8438-2.5469-5.125 0-3.4219 1.0781-5.2344 2.5625-5.2344z"/>
   </g>
  </g>
  <g id="g45699">
   <g id="use38041" transform="matrix(.35278 0 0 .35278 10.601 145.85)" style="fill:#7d7878">
    <path id="path45132" d="m4.5625 0h1.6406v-12.578h-1.4375l-2.75 1.4688 0.32812 1.2969 2.1875-1.1719h0.03125z"/>
   </g>
   <g id="use38043" transform="matrix(.35278 0 0 .35278 14.136 145.85)" style="fill:#7d7878">
    <path id="path45136" d="m5.0625-12.781c-2.5469 0-4.3594 2.3125-4.3594 6.5312 0.03125 4.1562 1.7031 6.4688 4.1562 6.4688 2.7812 0 4.375-2.3594 4.375-6.6406 0-4-1.5156-6.3594-4.1719-6.3594zm-0.09375 1.3125c1.7656 0 2.5625 2.0312 2.5625 5.125 0 3.2031-0.84375 5.2344-2.5781 5.2344-1.5469 0-2.5469-1.8438-2.5469-5.125 0-3.4219 1.0781-5.2344 2.5625-5.2344z"/>
   </g>
  </g>
  <g id="g45679">
   <path id="path37949" d="m121.35 142.28c0.39963 0 0.51401-0.52917 0.0524-0.52917-0.40101 0-0.51401 0.52917-0.0524 0.52917" style="fill:#7d7878"/>
   <g id="use38049" transform="matrix(.35278 0 0 .35278 116.08 145.85)" style="fill:#7d7878">
    <path id="path45140" d="m4.5625 0h1.6406v-12.578h-1.4375l-2.75 1.4688 0.32812 1.2969 2.1875-1.1719h0.03125z"/>
   </g>
   <g id="use38051" transform="matrix(.35278 0 0 .35278 119.61 145.85)" style="fill:#7d7878">
    <path id="path45144" d="m5.0625-12.781c-2.5469 0-4.3594 2.3125-4.3594 6.5312 0.03125 4.1562 1.7031 6.4688 4.1562 6.4688 2.7812 0 4.375-2.3594 4.375-6.6406 0-4-1.5156-6.3594-4.1719-6.3594zm-0.09375 1.3125c1.7656 0 2.5625 2.0312 2.5625 5.125 0 3.2031-0.84375 5.2344-2.5781 5.2344-1.5469 0-2.5469-1.8438-2.5469-5.125 0-3.4219 1.0781-5.2344 2.5625-5.2344z"/>
   </g>
   <g id="use38053" transform="matrix(.35278 0 0 .35278 123.15 145.85)" style="fill:#7d7878">
    <path id="path45148" d="m5.0625-12.781c-2.5469 0-4.3594 2.3125-4.3594 6.5312 0.03125 4.1562 1.7031 6.4688 4.1562 6.4688 2.7812 0 4.375-2.3594 4.375-6.6406 0-4-1.5156-6.3594-4.1719-6.3594zm-0.09375 1.3125c1.7656 0 2.5625 2.0312 2.5625 5.125 0 3.2031-0.84375 5.2344-2.5781 5.2344-1.5469 0-2.5469-1.8438-2.5469-5.125 0-3.4219 1.0781-5.2344 2.5625-5.2344z"/>
   </g>
  </g>
  <g id="g45693">
   <g id="use38057" transform="matrix(.35278 0 0 .35278 10.601 163.52)" style="fill:#7d7878">
    <path id="path45152" d="m4.5625 0h1.6406v-12.578h-1.4375l-2.75 1.4688 0.32812 1.2969 2.1875-1.1719h0.03125z"/>
   </g>
   <g id="use38059" transform="matrix(.35278 0 0 .35278 14.136 163.52)" style="fill:#7d7878">
    <path id="path45156" d="m8.375-12.578h-6.0156l-0.8125 6.0469c0.46875-0.0625 1.0312-0.14062 1.7344-0.14062 2.5156 0 3.6094 1.1562 3.625 2.7812 0 1.6875-1.375 2.7344-2.9844 2.7344-1.1406 0-2.1562-0.39062-2.6875-0.70312l-0.42188 1.2969c0.59375 0.39062 1.7656 0.78125 3.1406 0.78125 2.7188 0 4.6719-1.8438 4.6719-4.2969 0-1.5938-0.8125-2.6719-1.7969-3.2344-0.78125-0.46875-1.7344-0.67188-2.7031-0.67188-0.46875 0-0.73438 0.03125-1.0312 0.078125l0.48438-3.2344h4.7969z"/>
   </g>
  </g>
  <g id="g45687">
   <g id="use38063" transform="matrix(.35278 0 0 .35278 116.08 163.52)" style="fill:#7d7878">
    <path id="path45160" d="m4.5625 0h1.6406v-12.578h-1.4375l-2.75 1.4688 0.32812 1.2969 2.1875-1.1719h0.03125z"/>
   </g>
   <g id="use38065" transform="matrix(.35278 0 0 .35278 119.61 163.52)" style="fill:#7d7878">
    <path id="path45164" d="m8.375-12.578h-6.0156l-0.8125 6.0469c0.46875-0.0625 1.0312-0.14062 1.7344-0.14062 2.5156 0 3.6094 1.1562 3.625 2.7812 0 1.6875-1.375 2.7344-2.9844 2.7344-1.1406 0-2.1562-0.39062-2.6875-0.70312l-0.42188 1.2969c0.59375 0.39062 1.7656 0.78125 3.1406 0.78125 2.7188 0 4.6719-1.8438 4.6719-4.2969 0-1.5938-0.8125-2.6719-1.7969-3.2344-0.78125-0.46875-1.7344-0.67188-2.7031-0.67188-0.46875 0-0.73438 0.03125-1.0312 0.078125l0.48438-3.2344h4.7969z"/>
   </g>
   <g id="use38067" transform="matrix(.35278 0 0 .35278 123.15 163.52)" style="fill:#7d7878">
    <path id="path45168" d="m5.0625-12.781c-2.5469 0-4.3594 2.3125-4.3594 6.5312 0.03125 4.1562 1.7031 6.4688 4.1562 6.4688 2.7812 0 4.375-2.3594 4.375-6.6406 0-4-1.5156-6.3594-4.1719-6.3594zm-0.09375 1.3125c1.7656 0 2.5625 2.0312 2.5625 5.125 0 3.2031-0.84375 5.2344-2.5781 5.2344-1.5469 0-2.5469-1.8438-2.5469-5.125 0-3.4219 1.0781-5.2344 2.5625-5.2344z"/>
   </g>
  </g>
 </g>
</svg>
