<svg id="svg51518" version="1.1" viewBox="0 0 12.055 6.2615" xmlns="http://www.w3.org/2000/svg">
 <title id="title51565">img_41</title>
 <g id="layer1" transform="translate(-142.14 -138.99)">
  <path id="path47269" d="m146.61 139.16h7.4083m-9.8778 5.6444-1.0583-2.1167-0.70556 0.35278m4.2333-3.8806h-0.35278l-2.1167 5.6444-1.0583-2.1167" style="fill:none;stroke-linecap:square;stroke-miterlimit:10;stroke-width:.35278;stroke:#020505"/>
  <g id="g51553">
   <g id="g47273" transform="matrix(.35278 0 0 .35278 40.284 -625.42)" style="fill:#020505">
    <g id="use47271" transform="translate(302.39 2181.3)">
     <path id="path51487" d="m0.67188-3.0312 1.4062-0.1875c0.16406 0.80469 0.44141 1.3828 0.82812 1.7344 0.38281 0.34375 0.85938 0.51562 1.4219 0.51562 0.65625 0 1.2109-0.22656 1.6719-0.6875 0.45703-0.45703 0.6875-1.0234 0.6875-1.7031 0-0.64453-0.21484-1.1758-0.64062-1.5938-0.41797-0.41406-0.95312-0.625-1.6094-0.625-0.26172 0-0.58984 0.054687-0.98438 0.15625l0.15625-1.2344c0.09375 0.011719 0.16406 0.015625 0.21875 0.015625 0.60156 0 1.1445-0.15625 1.625-0.46875 0.47656-0.3125 0.71875-0.79688 0.71875-1.4531 0-0.50781-0.17969-0.92969-0.53125-1.2656-0.34375-0.34375-0.79297-0.51562-1.3438-0.51562-0.55469 0-1.0117 0.17188-1.375 0.51562-0.36719 0.34375-0.60156 0.85938-0.70312 1.5469l-1.4062-0.25c0.17578-0.94531 0.56641-1.6758 1.1719-2.1875 0.61328-0.51953 1.375-0.78125 2.2812-0.78125 0.625 0 1.1953 0.13672 1.7188 0.40625 0.53125 0.26172 0.92969 0.625 1.2031 1.0938 0.28125 0.46094 0.42188 0.94922 0.42188 1.4688 0 0.5-0.13672 0.95312-0.40625 1.3594-0.26172 0.40625-0.65234 0.73047-1.1719 0.96875 0.67578 0.15625 1.2031 0.48047 1.5781 0.96875 0.375 0.49219 0.5625 1.1055 0.5625 1.8438 0 1-0.36719 1.8516-1.0938 2.5469-0.73047 0.69922-1.6523 1.0469-2.7656 1.0469-1 0-1.8359-0.29688-2.5-0.89062-0.66797-0.60156-1.0469-1.3828-1.1406-2.3438z"/>
    </g>
   </g>
   <g id="g47277" transform="matrix(.35278 0 0 .35278 40.284 -625.42)" style="fill:#020505">
    <g id="use47275" transform="translate(311.39 2181.3)">
     <path id="path51491" d="m8.0625-1.3594v1.3594h-7.5781c-0.011719-0.34375 0.046875-0.67188 0.17188-0.98438 0.1875-0.50781 0.49219-1.0156 0.92188-1.5156 0.42578-0.5 1.0391-1.0781 1.8438-1.7344 1.2383-1.0195 2.0781-1.8281 2.5156-2.4219 0.4375-0.60156 0.65625-1.1719 0.65625-1.7031 0-0.55078-0.19922-1.0195-0.59375-1.4062-0.39844-0.38281-0.91797-0.57812-1.5625-0.57812-0.67969 0-1.2188 0.20312-1.625 0.60938s-0.60938 0.96875-0.60938 1.6875l-1.4531-0.14062c0.10156-1.082 0.47656-1.9062 1.125-2.4688 0.64453-0.5625 1.5078-0.84375 2.5938-0.84375 1.1016 0 1.9727 0.30859 2.6094 0.92188 0.64453 0.60547 0.96875 1.3555 0.96875 2.25 0 0.46094-0.09375 0.91406-0.28125 1.3594-0.1875 0.4375-0.5 0.90234-0.9375 1.3906-0.4375 0.49219-1.1641 1.1641-2.1719 2.0156-0.84375 0.71094-1.3867 1.1953-1.625 1.4531-0.24219 0.25-0.4375 0.5-0.59375 0.75z"/>
    </g>
   </g>
  </g>
 </g>
</svg>
