<svg id="svg23796" version="1.1" viewBox="0 0 91.632 6.7689" xmlns="http://www.w3.org/2000/svg">
 <title id="title24017">img_20</title>
 <g id="layer1" transform="translate(-26.755 -97.157)">
  <g id="use13139" transform="matrix(.35278 0 0 .35278 26.279 101.27)">
   <path id="path23573" d="m1.4062-3.6875 1.4688-0.125c-0.054687 0.57422 0.00781 1.0469 0.1875 1.4219 0.1875 0.36719 0.51953 0.66406 1 0.89062 0.47656 0.21875 1.0391 0.32812 1.6875 0.32812 0.58203 0 1.1094-0.082031 1.5781-0.25 0.47656-0.17578 0.85156-0.41016 1.125-0.70312 0.26953-0.30078 0.4375-0.62891 0.5-0.98438 0.070313-0.36328 0.023438-0.67578-0.14062-0.9375-0.15625-0.26953-0.45312-0.5-0.89062-0.6875-0.28125-0.11328-0.92969-0.29688-1.9375-0.54688-1-0.25781-1.6953-0.5-2.0781-0.71875-0.49219-0.28906-0.83594-0.64453-1.0312-1.0625-0.1875-0.42578-0.23047-0.90625-0.125-1.4375 0.10156-0.57031 0.36719-1.1094 0.79688-1.6094 0.42578-0.50781 0.97656-0.89453 1.6562-1.1562 0.67578-0.25781 1.3984-0.39062 2.1719-0.39062 0.85156 0 1.5781 0.14062 2.1719 0.42188 0.59375 0.27344 1.0156 0.67188 1.2656 1.2031s0.32812 1.1328 0.23438 1.7969l-1.4688 0.10938c0.039063-0.71875-0.125-1.2578-0.5-1.625-0.375-0.375-1.0078-0.5625-1.8906-0.5625-0.91797 0-1.6172 0.16797-2.0938 0.5-0.48047 0.33594-0.76562 0.74219-0.85938 1.2188-0.074219 0.40625 0.00781 0.74609 0.25 1.0156 0.23828 0.26172 0.94531 0.53125 2.125 0.8125 1.1875 0.28125 1.9883 0.52734 2.4062 0.73438 0.61328 0.30469 1.0352 0.69531 1.2656 1.1719 0.22656 0.46875 0.28516 1.0117 0.17188 1.625-0.11719 0.60547-0.40234 1.1797-0.85938 1.7188-0.44922 0.54297-1.0273 0.96484-1.7344 1.2656-0.71094 0.30078-1.4688 0.45312-2.2812 0.45312-1.043 0-1.8867-0.15234-2.5312-0.45312-0.63672-0.3125-1.1016-0.76953-1.3906-1.375-0.29297-0.60156-0.375-1.2891-0.25-2.0625z"/>
  </g>
  <path id="path13143" d="m35.217 99.976h-3.2908v-0.46852h3.2908zm-3.2908-1.6426h3.2908v0.46852h-3.2908z"/>
  <g id="use13145" transform="matrix(.35278 0 0 .35278 36.51 101.27)">
   <path id="path23577" d="m-0.03125 0 6.5469-11.453h1.6406l2.5469 11.453h-1.7344l-0.67188-3.4688h-4.7969l-1.9062 3.4688zm4.1875-4.7031h3.8906l-0.59375-3.1719c-0.1875-0.96875-0.3125-1.7578-0.375-2.375-0.28125 0.73047-0.62109 1.4609-1.0156 2.1875z"/>
  </g>
  <g id="use13149" transform="matrix(.35278 0 0 .35278 40.74 103.03)">
   <path id="path23581" d="m3.3281-0.9375-0.078125 0.92188c-0.3125 0.0625-0.58594 0.09375-0.8125 0.09375-0.38672 0-0.66797-0.058594-0.84375-0.17188-0.17969-0.125-0.28906-0.28516-0.32812-0.48438-0.042969-0.19531 0.015625-0.61328 0.17188-1.25l0.90625-3.5781h-0.76562l0.20312-0.8125h0.76562l0.375-1.5469 1.2031-0.625-0.53125 2.1719h1.0625l-0.20312 0.8125h-1.0625l-0.92188 3.6406c-0.074219 0.30469-0.10547 0.49609-0.09375 0.57812 0.019531 0.085937 0.066406 0.15234 0.14062 0.20312 0.070313 0.054687 0.1875 0.078125 0.34375 0.078125 0.125 0 0.28125-0.007813 0.46875-0.03125z"/>
  </g>
  <g id="use13153" transform="matrix(.35278 0 0 .35278 41.798 103.03)">
   <path id="path23585" d="m1.1875-3.1094c0.28906-1.1562 0.82031-2.0078 1.5938-2.5625 0.64453-0.45703 1.3516-0.6875 2.125-0.6875 0.85156 0 1.4844 0.28125 1.8906 0.84375 0.40625 0.55469 0.48438 1.3242 0.23438 2.3125-0.19922 0.80469-0.47656 1.4336-0.82812 1.8906-0.35547 0.46094-0.79688 0.82031-1.3281 1.0781-0.52344 0.25-1.0547 0.375-1.5938 0.375-0.86719 0-1.4961-0.27344-1.8906-0.82812-0.39844-0.5625-0.46484-1.3672-0.20312-2.4219zm1.0781 0c-0.19922 0.79297-0.17188 1.3867 0.078125 1.7812 0.25 0.39844 0.63281 0.59375 1.1562 0.59375 0.53125 0 1.0156-0.19531 1.4531-0.59375 0.44531-0.39453 0.76953-1 0.96875-1.8125 0.19531-0.76953 0.17188-1.3516-0.078125-1.75-0.25-0.39453-0.63672-0.59375-1.1562-0.59375-0.52344 0-1.0078 0.19922-1.4531 0.59375-0.44922 0.38672-0.77344 0.98047-0.96875 1.7812z"/>
  </g>
  <g id="use13155" transform="matrix(.35278 0 0 .35278 44.266 103.03)">
   <path id="path23589" d="m0.20312 2.3906 2.1562-8.6094h0.95312l-0.20312 0.79688c0.30078-0.3125 0.61328-0.54688 0.9375-0.70312 0.33203-0.15625 0.70312-0.23438 1.1094-0.23438 0.53125 0 0.96094 0.13672 1.2969 0.40625 0.34375 0.27344 0.55078 0.65625 0.625 1.1562 0.082031 0.5 0.050781 1.0469-0.09375 1.6406-0.16797 0.63672-0.42969 1.2109-0.78125 1.7188-0.34375 0.51172-0.77344 0.90234-1.2812 1.1719-0.5 0.26953-0.99219 0.40625-1.4688 0.40625-0.35547 0-0.65625-0.074219-0.90625-0.21875-0.24219-0.15625-0.42188-0.34375-0.54688-0.5625l-0.75 3.0312zm2.3125-5.4688c-0.19922 0.80469-0.18359 1.3984 0.046875 1.7812 0.22656 0.375 0.57031 0.5625 1.0312 0.5625 0.46875 0 0.91406-0.19531 1.3438-0.59375 0.4375-0.39453 0.75781-1.0078 0.96875-1.8438 0.19531-0.78906 0.17969-1.3789-0.046875-1.7656-0.21875-0.39453-0.55859-0.59375-1.0156-0.59375-0.44922 0-0.89844 0.21094-1.3438 0.625-0.44922 0.41797-0.77734 1.0273-0.98438 1.8281z"/>
  </g>
  <g id="use13159" transform="matrix(.35278 0 0 .35278 48.025 103.03)">
   <path id="path23593" d="m5.4375-2.2812 0.98438 0.14062c-0.29297 0.71094-0.72656 1.2656-1.2969 1.6719-0.5625 0.40625-1.1836 0.60938-1.8594 0.60938-0.85547 0-1.4688-0.27344-1.8438-0.82812-0.375-0.5625-0.43359-1.3633-0.17188-2.4062 0.16406-0.66406 0.42188-1.25 0.76562-1.75 0.35156-0.50781 0.78516-0.89062 1.2969-1.1406 0.51953-0.25 1.0508-0.375 1.5938-0.375 0.66406 0 1.1719 0.17188 1.5156 0.51562 0.35156 0.33594 0.50781 0.82031 0.46875 1.4531l-1.0625 0.15625c0.007813-0.41406-0.085937-0.72656-0.28125-0.9375-0.19922-0.21875-0.47656-0.32812-0.82812-0.32812-0.53125 0-1.0117 0.19531-1.4375 0.57812-0.42969 0.375-0.74609 0.97656-0.95312 1.7969-0.21094 0.84375-0.19922 1.4531 0.03125 1.8281 0.22656 0.375 0.59766 0.5625 1.1094 0.5625 0.41406 0 0.78906-0.125 1.125-0.375 0.34375-0.25 0.625-0.64062 0.84375-1.1719z"/>
  </g>
  <g id="use13163" transform="matrix(.35278 0 0 .35278 49.896 103.03)">
   <path id="path23597" d="m2.6406-7.375 0.3125-1.2188h1.0625l-0.3125 1.2188zm-1.8438 7.375 1.5625-6.2188h1.0625l-1.5625 6.2188z"/>
  </g>
  <g id="use13165" transform="matrix(.35278 0 0 .35278 50.955 103.03)">
   <path id="path23601" d="m0.78125 0 1.5625-6.2188h0.95312l-0.23438 0.9375c0.34375-0.4375 0.63281-0.72266 0.875-0.85938 0.23828-0.14453 0.48438-0.21875 0.73438-0.21875 0.35156 0 0.6875 0.10938 1 0.32812l-0.60938 0.98438c-0.21875-0.15625-0.45312-0.23438-0.70312-0.23438-0.24219 0-0.46875 0.074219-0.6875 0.21875-0.21875 0.13672-0.39844 0.32812-0.53125 0.57812-0.21875 0.375-0.38672 0.78125-0.5 1.2188l-0.8125 3.2656z"/>
  </g>
  <g id="use13169" transform="matrix(.35278 0 0 .35278 52.364 103.03)">
   <path id="path23605" d="m5.4375-2.2812 0.98438 0.14062c-0.29297 0.71094-0.72656 1.2656-1.2969 1.6719-0.5625 0.40625-1.1836 0.60938-1.8594 0.60938-0.85547 0-1.4688-0.27344-1.8438-0.82812-0.375-0.5625-0.43359-1.3633-0.17188-2.4062 0.16406-0.66406 0.42188-1.25 0.76562-1.75 0.35156-0.50781 0.78516-0.89062 1.2969-1.1406 0.51953-0.25 1.0508-0.375 1.5938-0.375 0.66406 0 1.1719 0.17188 1.5156 0.51562 0.35156 0.33594 0.50781 0.82031 0.46875 1.4531l-1.0625 0.15625c0.007813-0.41406-0.085937-0.72656-0.28125-0.9375-0.19922-0.21875-0.47656-0.32812-0.82812-0.32812-0.53125 0-1.0117 0.19531-1.4375 0.57812-0.42969 0.375-0.74609 0.97656-0.95312 1.7969-0.21094 0.84375-0.19922 1.4531 0.03125 1.8281 0.22656 0.375 0.59766 0.5625 1.1094 0.5625 0.41406 0 0.78906-0.125 1.125-0.375 0.34375-0.25 0.625-0.64062 0.84375-1.1719z"/>
  </g>
  <g id="use13171" transform="matrix(.35278 0 0 .35278 54.481 103.03)">
   <path id="path23609" d="m0.76562 0 2.1562-8.5938h1.0625l-2.1562 8.5938z"/>
  </g>
  <g id="use13175" transform="matrix(.35278 0 0 .35278 55.539 103.03)">
   <path id="path23613" d="m5.5469-2 1.0625 0.125c-0.32422 0.63672-0.76562 1.1328-1.3281 1.4844-0.55469 0.35547-1.1875 0.53125-1.9062 0.53125-0.90625 0-1.5586-0.28125-1.9531-0.84375-0.39844-0.5625-0.46875-1.3477-0.21875-2.3594 0.25781-1.0391 0.73438-1.8477 1.4219-2.4219 0.6875-0.58203 1.457-0.875 2.3125-0.875 0.83203 0 1.4414 0.28125 1.8281 0.84375 0.38281 0.5625 0.44531 1.3594 0.1875 2.3906-0.011719 0.0625-0.03125 0.15625-0.0625 0.28125h-4.6406c-0.13672 0.6875-0.078125 1.2148 0.17188 1.5781 0.25781 0.35547 0.64844 0.53125 1.1719 0.53125 0.38281 0 0.73828-0.097656 1.0625-0.29688 0.33203-0.20703 0.62891-0.53125 0.89062-0.96875zm-3.0312-1.7031h3.4688c0.09375-0.53125 0.0625-0.92578-0.09375-1.1875-0.24219-0.40625-0.625-0.60938-1.1562-0.60938-0.49219 0-0.9375 0.16406-1.3438 0.48438-0.40625 0.32422-0.69922 0.76172-0.875 1.3125z"/>
  </g>
  <path id="path13179" d="m58.385 99.392h1.4111v1.4111h0.47404v-1.4111h1.4111v-0.47406h-1.4111v-1.4111h-0.47404v1.4111h-1.4111z"/>
  <g id="use13181" transform="matrix(.35278 0 0 .35278 62.615 101.27)">
   <path id="path23617" d="m-0.03125 0 6.5469-11.453h1.6406l2.5469 11.453h-1.7344l-0.67188-3.4688h-4.7969l-1.9062 3.4688zm4.1875-4.7031h3.8906l-0.59375-3.1719c-0.1875-0.96875-0.3125-1.7578-0.375-2.375-0.28125 0.73047-0.62109 1.4609-1.0156 2.1875z"/>
  </g>
  <g id="use13185" transform="matrix(.35278 0 0 .35278 66.845 103.03)">
   <path id="path23621" d="m1.7656 0h-0.98438l2.1562-8.5938h1.0625l-0.76562 3.0625c0.58203-0.55078 1.2188-0.82812 1.9062-0.82812 0.38281 0 0.72656 0.078125 1.0312 0.23438 0.30078 0.14844 0.52344 0.35938 0.67188 0.64062 0.15625 0.28125 0.24219 0.62109 0.26562 1.0156 0.03125 0.39844-0.011719 0.82031-0.125 1.2656-0.26172 1.0625-0.73047 1.8867-1.4062 2.4688-0.67969 0.58594-1.3828 0.875-2.1094 0.875-0.74219 0-1.2422-0.30469-1.5-0.92188zm0.78125-3.1562c-0.1875 0.74219-0.21875 1.2773-0.09375 1.6094 0.19531 0.54297 0.57812 0.8125 1.1406 0.8125 0.45703 0 0.90625-0.19531 1.3438-0.59375 0.4375-0.39453 0.75391-0.99219 0.95312-1.7969 0.20703-0.8125 0.19531-1.4102-0.03125-1.7969-0.23047-0.38281-0.57422-0.57812-1.0312-0.57812-0.46094 0-0.90625 0.20312-1.3438 0.60938-0.4375 0.39844-0.75 0.97656-0.9375 1.7344z"/>
  </g>
  <g id="use13187" transform="matrix(.35278 0 0 .35278 69.313 103.03)">
   <path id="path23625" d="m1.1875-3.1094c0.28906-1.1562 0.82031-2.0078 1.5938-2.5625 0.64453-0.45703 1.3516-0.6875 2.125-0.6875 0.85156 0 1.4844 0.28125 1.8906 0.84375 0.40625 0.55469 0.48438 1.3242 0.23438 2.3125-0.19922 0.80469-0.47656 1.4336-0.82812 1.8906-0.35547 0.46094-0.79688 0.82031-1.3281 1.0781-0.52344 0.25-1.0547 0.375-1.5938 0.375-0.86719 0-1.4961-0.27344-1.8906-0.82812-0.39844-0.5625-0.46484-1.3672-0.20312-2.4219zm1.0781 0c-0.19922 0.79297-0.17188 1.3867 0.078125 1.7812 0.25 0.39844 0.63281 0.59375 1.1562 0.59375 0.53125 0 1.0156-0.19531 1.4531-0.59375 0.44531-0.39453 0.76953-1 0.96875-1.8125 0.19531-0.76953 0.17188-1.3516-0.078125-1.75-0.25-0.39453-0.63672-0.59375-1.1562-0.59375-0.52344 0-1.0078 0.19922-1.4531 0.59375-0.44922 0.38672-0.77344 0.98047-0.96875 1.7812z"/>
  </g>
  <g id="use13191" transform="matrix(.35278 0 0 .35278 71.785 103.03)">
   <path id="path23629" d="m3.3281-0.9375-0.078125 0.92188c-0.3125 0.0625-0.58594 0.09375-0.8125 0.09375-0.38672 0-0.66797-0.058594-0.84375-0.17188-0.17969-0.125-0.28906-0.28516-0.32812-0.48438-0.042969-0.19531 0.015625-0.61328 0.17188-1.25l0.90625-3.5781h-0.76562l0.20312-0.8125h0.76562l0.375-1.5469 1.2031-0.625-0.53125 2.1719h1.0625l-0.20312 0.8125h-1.0625l-0.92188 3.6406c-0.074219 0.30469-0.10547 0.49609-0.09375 0.57812 0.019531 0.085937 0.066406 0.15234 0.14062 0.20312 0.070313 0.054687 0.1875 0.078125 0.34375 0.078125 0.125 0 0.28125-0.007813 0.46875-0.03125z"/>
  </g>
  <g id="use13193" transform="matrix(.35278 0 0 .35278 72.844 103.03)">
   <path id="path23633" d="m3.3281-0.9375-0.078125 0.92188c-0.3125 0.0625-0.58594 0.09375-0.8125 0.09375-0.38672 0-0.66797-0.058594-0.84375-0.17188-0.17969-0.125-0.28906-0.28516-0.32812-0.48438-0.042969-0.19531 0.015625-0.61328 0.17188-1.25l0.90625-3.5781h-0.76562l0.20312-0.8125h0.76562l0.375-1.5469 1.2031-0.625-0.53125 2.1719h1.0625l-0.20312 0.8125h-1.0625l-0.92188 3.6406c-0.074219 0.30469-0.10547 0.49609-0.09375 0.57812 0.019531 0.085937 0.066406 0.15234 0.14062 0.20312 0.070313 0.054687 0.1875 0.078125 0.34375 0.078125 0.125 0 0.28125-0.007813 0.46875-0.03125z"/>
  </g>
  <g id="use13195" transform="matrix(.35278 0 0 .35278 73.902 103.03)">
   <path id="path23637" d="m1.1875-3.1094c0.28906-1.1562 0.82031-2.0078 1.5938-2.5625 0.64453-0.45703 1.3516-0.6875 2.125-0.6875 0.85156 0 1.4844 0.28125 1.8906 0.84375 0.40625 0.55469 0.48438 1.3242 0.23438 2.3125-0.19922 0.80469-0.47656 1.4336-0.82812 1.8906-0.35547 0.46094-0.79688 0.82031-1.3281 1.0781-0.52344 0.25-1.0547 0.375-1.5938 0.375-0.86719 0-1.4961-0.27344-1.8906-0.82812-0.39844-0.5625-0.46484-1.3672-0.20312-2.4219zm1.0781 0c-0.19922 0.79297-0.17188 1.3867 0.078125 1.7812 0.25 0.39844 0.63281 0.59375 1.1562 0.59375 0.53125 0 1.0156-0.19531 1.4531-0.59375 0.44531-0.39453 0.76953-1 0.96875-1.8125 0.19531-0.76953 0.17188-1.3516-0.078125-1.75-0.25-0.39453-0.63672-0.59375-1.1562-0.59375-0.52344 0-1.0078 0.19922-1.4531 0.59375-0.44922 0.38672-0.77344 0.98047-0.96875 1.7812z"/>
  </g>
  <g id="use13199" transform="matrix(.35278 0 0 .35278 76.37 103.03)">
   <path id="path23641" d="m0.79688 0 1.5625-6.2188h0.9375l-0.21875 0.875c0.26953-0.3125 0.58594-0.55469 0.95312-0.73438 0.375-0.1875 0.76953-0.28125 1.1875-0.28125 0.45703 0 0.8125 0.09375 1.0625 0.28125s0.39062 0.45312 0.42188 0.79688c0.67578-0.71875 1.4062-1.0781 2.1875-1.0781 0.625 0 1.0547 0.17188 1.2969 0.51562 0.25 0.33594 0.28125 0.85938 0.09375 1.5781l-1.0625 4.2656h-1.0469l0.98438-3.9219c0.10156-0.41406 0.14453-0.71875 0.125-0.90625-0.023437-0.1875-0.10938-0.33594-0.26562-0.45312-0.14844-0.11328-0.34375-0.17188-0.59375-0.17188-0.4375 0-0.83984 0.14844-1.2031 0.4375-0.35547 0.29297-0.60938 0.76172-0.76562 1.4062l-0.90625 3.6094h-1.0625l1.0156-4.0469c0.11328-0.46875 0.11328-0.81641 0-1.0469-0.11719-0.23828-0.36719-0.35938-0.75-0.35938-0.30469 0-0.60156 0.078125-0.89062 0.23438-0.28125 0.15625-0.52344 0.38672-0.71875 0.6875-0.1875 0.30469-0.35156 0.73438-0.48438 1.2969l-0.8125 3.2344z"/>
  </g>
  <g id="use13203" transform="matrix(.35278 0 0 .35278 81.073 103.03)">
   <path id="path23645" d="m5.4375-2.2812 0.98438 0.14062c-0.29297 0.71094-0.72656 1.2656-1.2969 1.6719-0.5625 0.40625-1.1836 0.60938-1.8594 0.60938-0.85547 0-1.4688-0.27344-1.8438-0.82812-0.375-0.5625-0.43359-1.3633-0.17188-2.4062 0.16406-0.66406 0.42188-1.25 0.76562-1.75 0.35156-0.50781 0.78516-0.89062 1.2969-1.1406 0.51953-0.25 1.0508-0.375 1.5938-0.375 0.66406 0 1.1719 0.17188 1.5156 0.51562 0.35156 0.33594 0.50781 0.82031 0.46875 1.4531l-1.0625 0.15625c0.007813-0.41406-0.085937-0.72656-0.28125-0.9375-0.19922-0.21875-0.47656-0.32812-0.82812-0.32812-0.53125 0-1.0117 0.19531-1.4375 0.57812-0.42969 0.375-0.74609 0.97656-0.95312 1.7969-0.21094 0.84375-0.19922 1.4531 0.03125 1.8281 0.22656 0.375 0.59766 0.5625 1.1094 0.5625 0.41406 0 0.78906-0.125 1.125-0.375 0.34375-0.25 0.625-0.64062 0.84375-1.1719z"/>
  </g>
  <g id="use13207" transform="matrix(.35278 0 0 .35278 83.169 103.03)">
   <path id="path23649" d="m2.6406-7.375 0.3125-1.2188h1.0625l-0.3125 1.2188zm-1.8438 7.375 1.5625-6.2188h1.0625l-1.5625 6.2188z"/>
  </g>
  <g id="use13209" transform="matrix(.35278 0 0 .35278 84.227 103.03)">
   <path id="path23653" d="m0.78125 0 1.5625-6.2188h0.95312l-0.23438 0.9375c0.34375-0.4375 0.63281-0.72266 0.875-0.85938 0.23828-0.14453 0.48438-0.21875 0.73438-0.21875 0.35156 0 0.6875 0.10938 1 0.32812l-0.60938 0.98438c-0.21875-0.15625-0.45312-0.23438-0.70312-0.23438-0.24219 0-0.46875 0.074219-0.6875 0.21875-0.21875 0.13672-0.39844 0.32812-0.53125 0.57812-0.21875 0.375-0.38672 0.78125-0.5 1.2188l-0.8125 3.2656z"/>
  </g>
  <g id="use13213" transform="matrix(.35278 0 0 .35278 85.54 103.03)">
   <path id="path23657" d="m5.4375-2.2812 0.98438 0.14062c-0.29297 0.71094-0.72656 1.2656-1.2969 1.6719-0.5625 0.40625-1.1836 0.60938-1.8594 0.60938-0.85547 0-1.4688-0.27344-1.8438-0.82812-0.375-0.5625-0.43359-1.3633-0.17188-2.4062 0.16406-0.66406 0.42188-1.25 0.76562-1.75 0.35156-0.50781 0.78516-0.89062 1.2969-1.1406 0.51953-0.25 1.0508-0.375 1.5938-0.375 0.66406 0 1.1719 0.17188 1.5156 0.51562 0.35156 0.33594 0.50781 0.82031 0.46875 1.4531l-1.0625 0.15625c0.007813-0.41406-0.085937-0.72656-0.28125-0.9375-0.19922-0.21875-0.47656-0.32812-0.82812-0.32812-0.53125 0-1.0117 0.19531-1.4375 0.57812-0.42969 0.375-0.74609 0.97656-0.95312 1.7969-0.21094 0.84375-0.19922 1.4531 0.03125 1.8281 0.22656 0.375 0.59766 0.5625 1.1094 0.5625 0.41406 0 0.78906-0.125 1.125-0.375 0.34375-0.25 0.625-0.64062 0.84375-1.1719z"/>
  </g>
  <g id="use13215" transform="matrix(.35278 0 0 .35278 87.656 103.03)">
   <path id="path23661" d="m0.76562 0 2.1562-8.5938h1.0625l-2.1562 8.5938z"/>
  </g>
  <g id="use13219" transform="matrix(.35278 0 0 .35278 88.228 103.03)">
   <path id="path23665" d="m5.5469-2 1.0625 0.125c-0.32422 0.63672-0.76562 1.1328-1.3281 1.4844-0.55469 0.35547-1.1875 0.53125-1.9062 0.53125-0.90625 0-1.5586-0.28125-1.9531-0.84375-0.39844-0.5625-0.46875-1.3477-0.21875-2.3594 0.25781-1.0391 0.73438-1.8477 1.4219-2.4219 0.6875-0.58203 1.457-0.875 2.3125-0.875 0.83203 0 1.4414 0.28125 1.8281 0.84375 0.38281 0.5625 0.44531 1.3594 0.1875 2.3906-0.011719 0.0625-0.03125 0.15625-0.0625 0.28125h-4.6406c-0.13672 0.6875-0.078125 1.2148 0.17188 1.5781 0.25781 0.35547 0.64844 0.53125 1.1719 0.53125 0.38281 0 0.73828-0.097656 1.0625-0.29688 0.33203-0.20703 0.62891-0.53125 0.89062-0.96875zm-3.0312-1.7031h3.4688c0.09375-0.53125 0.0625-0.92578-0.09375-1.1875-0.24219-0.40625-0.625-0.60938-1.1562-0.60938-0.49219 0-0.9375 0.16406-1.3438 0.48438-0.40625 0.32422-0.69922 0.76172-0.875 1.3125z"/>
  </g>
  <path id="path13223" d="m91.546 99.392h1.4111v1.4111h0.47404v-1.4111h1.4111v-0.47406h-1.4111v-1.4111h-0.47404v1.4111h-1.4111z"/>
  <g id="use13225" transform="matrix(.35278 0 0 .35278 95.779 101.27)">
   <path id="path23669" d="m-0.03125 0 6.5469-11.453h1.6406l2.5469 11.453h-1.7344l-0.67188-3.4688h-4.7969l-1.9062 3.4688zm4.1875-4.7031h3.8906l-0.59375-3.1719c-0.1875-0.96875-0.3125-1.7578-0.375-2.375-0.28125 0.73047-0.62109 1.4609-1.0156 2.1875z"/>
  </g>
  <g id="use13229" transform="matrix(.35278 0 0 .35278 100.01 103.03)">
   <path id="path23673" d="m0.78125 0 1.5625-6.2188h0.95312l-0.23438 0.9375c0.34375-0.4375 0.63281-0.72266 0.875-0.85938 0.23828-0.14453 0.48438-0.21875 0.73438-0.21875 0.35156 0 0.6875 0.10938 1 0.32812l-0.60938 0.98438c-0.21875-0.15625-0.45312-0.23438-0.70312-0.23438-0.24219 0-0.46875 0.074219-0.6875 0.21875-0.21875 0.13672-0.39844 0.32812-0.53125 0.57812-0.21875 0.375-0.38672 0.78125-0.5 1.2188l-0.8125 3.2656z"/>
  </g>
  <g id="use13231" transform="matrix(.35278 0 0 .35278 101.42 103.03)">
   <path id="path23677" d="m5.5469-2 1.0625 0.125c-0.32422 0.63672-0.76562 1.1328-1.3281 1.4844-0.55469 0.35547-1.1875 0.53125-1.9062 0.53125-0.90625 0-1.5586-0.28125-1.9531-0.84375-0.39844-0.5625-0.46875-1.3477-0.21875-2.3594 0.25781-1.0391 0.73438-1.8477 1.4219-2.4219 0.6875-0.58203 1.457-0.875 2.3125-0.875 0.83203 0 1.4414 0.28125 1.8281 0.84375 0.38281 0.5625 0.44531 1.3594 0.1875 2.3906-0.011719 0.0625-0.03125 0.15625-0.0625 0.28125h-4.6406c-0.13672 0.6875-0.078125 1.2148 0.17188 1.5781 0.25781 0.35547 0.64844 0.53125 1.1719 0.53125 0.38281 0 0.73828-0.097656 1.0625-0.29688 0.33203-0.20703 0.62891-0.53125 0.89062-0.96875zm-3.0312-1.7031h3.4688c0.09375-0.53125 0.0625-0.92578-0.09375-1.1875-0.24219-0.40625-0.625-0.60938-1.1562-0.60938-0.49219 0-0.9375 0.16406-1.3438 0.48438-0.40625 0.32422-0.69922 0.76172-0.875 1.3125z"/>
  </g>
  <g id="use13235" transform="matrix(.35278 0 0 .35278 103.89 103.03)">
   <path id="path23681" d="m5.4375-2.2812 0.98438 0.14062c-0.29297 0.71094-0.72656 1.2656-1.2969 1.6719-0.5625 0.40625-1.1836 0.60938-1.8594 0.60938-0.85547 0-1.4688-0.27344-1.8438-0.82812-0.375-0.5625-0.43359-1.3633-0.17188-2.4062 0.16406-0.66406 0.42188-1.25 0.76562-1.75 0.35156-0.50781 0.78516-0.89062 1.2969-1.1406 0.51953-0.25 1.0508-0.375 1.5938-0.375 0.66406 0 1.1719 0.17188 1.5156 0.51562 0.35156 0.33594 0.50781 0.82031 0.46875 1.4531l-1.0625 0.15625c0.007813-0.41406-0.085937-0.72656-0.28125-0.9375-0.19922-0.21875-0.47656-0.32812-0.82812-0.32812-0.53125 0-1.0117 0.19531-1.4375 0.57812-0.42969 0.375-0.74609 0.97656-0.95312 1.7969-0.21094 0.84375-0.19922 1.4531 0.03125 1.8281 0.22656 0.375 0.59766 0.5625 1.1094 0.5625 0.41406 0 0.78906-0.125 1.125-0.375 0.34375-0.25 0.625-0.64062 0.84375-1.1719z"/>
  </g>
  <g id="use13239" transform="matrix(.35278 0 0 .35278 106.36 103.04)">
   <path id="path23685" d="m3.0938-0.9375 0.15625 0.92188c-0.30469 0.0625-0.57031 0.09375-0.79688 0.09375-0.38672 0-0.68359-0.058594-0.89062-0.17188-0.21094-0.125-0.35938-0.28516-0.45312-0.48438-0.085937-0.19531-0.125-0.61328-0.125-1.25v-3.5781h-0.76562v-0.8125h0.76562v-1.5469l1.0469-0.625v2.1719h1.0625v0.8125h-1.0625v3.6406c0 0.30469 0.015625 0.49609 0.046875 0.57812 0.039063 0.085937 0.10156 0.15234 0.1875 0.20312 0.082031 0.054687 0.20312 0.078125 0.35938 0.078125 0.125 0 0.28125-0.007813 0.46875-0.03125z"/>
  </g>
  <g id="use13241" transform="matrix(.35278 0 0 .35278 107.42 103.04)">
   <path id="path23689" d="m4.8594-0.76562c-0.39844 0.33594-0.77734 0.57031-1.1406 0.70312-0.35547 0.13281-0.74219 0.20312-1.1562 0.20312-0.6875 0-1.2148-0.16406-1.5781-0.5-0.36719-0.33203-0.54688-0.75781-0.54688-1.2812 0-0.30078 0.066406-0.57812 0.20312-0.82812 0.13281-0.25781 0.31641-0.46094 0.54688-0.60938 0.22656-0.15625 0.48438-0.26953 0.76562-0.34375 0.19531-0.0625 0.50781-0.11719 0.9375-0.17188 0.84375-0.09375 1.4688-0.21094 1.875-0.35938v-0.26562c0-0.4375-0.10156-0.74219-0.29688-0.92188-0.27344-0.22656-0.67188-0.34375-1.2031-0.34375-0.49219 0-0.85547 0.089844-1.0938 0.26562-0.24219 0.16797-0.41797 0.46875-0.53125 0.90625l-1.0312-0.14062c0.09375-0.4375 0.25-0.78906 0.46875-1.0625 0.21875-0.26953 0.53125-0.47656 0.9375-0.625 0.40625-0.14453 0.875-0.21875 1.4062-0.21875s0.96094 0.0625 1.2969 0.1875c0.33203 0.125 0.57812 0.28125 0.73438 0.46875s0.26562 0.42969 0.32812 0.71875c0.03125 0.17969 0.046875 0.5 0.046875 0.96875v1.4062c0 0.98047 0.019531 1.6016 0.0625 1.8594 0.050781 0.26172 0.14453 0.51172 0.28125 0.75h-1.1094c-0.10547-0.21875-0.17188-0.47266-0.20312-0.76562zm-0.09375-2.3594c-0.38672 0.15625-0.96094 0.29297-1.7188 0.40625-0.4375 0.0625-0.74609 0.13672-0.92188 0.21875-0.17969 0.074219-0.32031 0.18359-0.42188 0.32812-0.09375 0.14844-0.14062 0.3125-0.14062 0.5 0 0.28125 0.10156 0.51562 0.3125 0.70312 0.21875 0.1875 0.53125 0.28125 0.9375 0.28125s0.76562-0.085938 1.0781-0.26562c0.32031-0.17578 0.55469-0.42188 0.70312-0.73438 0.11328-0.23828 0.17188-0.58594 0.17188-1.0469z"/>
  </g>
  <g id="use13245" transform="matrix(.35278 0 0 .35278 109.89 103.04)">
   <path id="path23693" d="m0.79688 0v-6.2188h0.9375v0.875c0.45703-0.67578 1.1172-1.0156 1.9844-1.0156 0.375 0 0.71875 0.070312 1.0312 0.20312 0.32031 0.13672 0.5625 0.3125 0.71875 0.53125s0.26562 0.47656 0.32812 0.76562c0.03125 0.19922 0.046875 0.54297 0.046875 1.0312v3.8281h-1.0469v-3.7812c0-0.4375-0.042969-0.75781-0.125-0.96875-0.085937-0.20703-0.23047-0.375-0.4375-0.5-0.21094-0.13281-0.45312-0.20312-0.73438-0.20312-0.44922 0-0.83984 0.14844-1.1719 0.4375-0.32422 0.28125-0.48438 0.82031-0.48438 1.6094v3.4062z"/>
  </g>
  <g id="use13249" transform="matrix(.35278 0 0 .35278 112.35 103.03)">
   <path id="path23697" d="m0.46875 0.51562 0.98438 0.15625c-0.03125 0.3125 0.03125 0.53906 0.1875 0.6875 0.20703 0.19531 0.53516 0.29688 0.98438 0.29688 0.48828 0 0.89062-0.10156 1.2031-0.29688 0.32031-0.19922 0.57031-0.46875 0.75-0.8125 0.11328-0.21875 0.25391-0.67188 0.42188-1.3594-0.59375 0.54297-1.2344 0.8125-1.9219 0.8125-0.85547 0-1.4375-0.30469-1.75-0.92188-0.3125-0.625-0.36719-1.3633-0.15625-2.2188 0.15625-0.59375 0.39844-1.1406 0.73438-1.6406 0.34375-0.50781 0.75-0.89844 1.2188-1.1719 0.47656-0.26953 0.99219-0.40625 1.5469-0.40625 0.73828 0 1.2734 0.29688 1.6094 0.89062l0.1875-0.75h0.96875l-1.3438 5.375c-0.25 0.96875-0.52734 1.6562-0.82812 2.0625-0.29297 0.40625-0.68359 0.72266-1.1719 0.95312-0.49219 0.23828-1.0469 0.35938-1.6719 0.35938-0.74219 0-1.2969-0.16797-1.6719-0.5-0.375-0.33594-0.46875-0.83984-0.28125-1.5156zm1.8125-3.7344c-0.21094 0.8125-0.19922 1.4062 0.03125 1.7812 0.22656 0.375 0.58594 0.5625 1.0781 0.5625 0.48828 0 0.94141-0.1875 1.3594-0.5625 0.42578-0.375 0.73828-0.95703 0.9375-1.75 0.1875-0.75781 0.16016-1.332-0.078125-1.7188-0.24219-0.38281-0.60156-0.57812-1.0781-0.57812-0.46875 0-0.91797 0.19531-1.3438 0.57812-0.41797 0.375-0.71875 0.9375-0.90625 1.6875z"/>
  </g>
  <g id="use13251" transform="matrix(.35278 0 0 .35278 114.82 103.03)">
   <path id="path23701" d="m0.76562 0 2.1562-8.5938h1.0625l-2.1562 8.5938z"/>
  </g>
  <g id="use13255" transform="matrix(.35278 0 0 .35278 115.88 103.03)">
   <path id="path23705" d="m5.5469-2 1.0625 0.125c-0.32422 0.63672-0.76562 1.1328-1.3281 1.4844-0.55469 0.35547-1.1875 0.53125-1.9062 0.53125-0.90625 0-1.5586-0.28125-1.9531-0.84375-0.39844-0.5625-0.46875-1.3477-0.21875-2.3594 0.25781-1.0391 0.73438-1.8477 1.4219-2.4219 0.6875-0.58203 1.457-0.875 2.3125-0.875 0.83203 0 1.4414 0.28125 1.8281 0.84375 0.38281 0.5625 0.44531 1.3594 0.1875 2.3906-0.011719 0.0625-0.03125 0.15625-0.0625 0.28125h-4.6406c-0.13672 0.6875-0.078125 1.2148 0.17188 1.5781 0.25781 0.35547 0.64844 0.53125 1.1719 0.53125 0.38281 0 0.73828-0.097656 1.0625-0.29688 0.33203-0.20703 0.62891-0.53125 0.89062-0.96875zm-3.0312-1.7031h3.4688c0.09375-0.53125 0.0625-0.92578-0.09375-1.1875-0.24219-0.40625-0.625-0.60938-1.1562-0.60938-0.49219 0-0.9375 0.16406-1.3438 0.48438-0.40625 0.32422-0.69922 0.76172-0.875 1.3125z"/>
  </g>
 </g>
</svg>
