<svg id="svg54048" version="1.1" viewBox="0 0 54.625 7.0556" xmlns="http://www.w3.org/2000/svg">
 <title id="title54134">img_70</title>
 <g id="layer1" transform="translate(-80.789 -156.73)">
  <g id="use5690" transform="matrix(.35278 0 0 .35278 80.59 162.03)" style="fill:#7d7878">
   <path id="path53954" d="m0.5625-5.2344c1.4219 0 1.625 0.85938 1.625 1.4688 0 0.54688-0.09375 1.0781-0.17188 1.625s-0.15625 1.0938-0.15625 1.6406c0 2.0156 1.2344 2.7344 2.9062 2.7344h0.42188v-1.0938h-0.375c-1.1094 0-1.5781-0.625-1.5781-1.7344 0-0.48438 0.0625-0.95312 0.14062-1.4531 0.078125-0.46875 0.14062-0.96875 0.14062-1.5156 0.03125-1.2812-0.53125-1.9531-1.4375-2.1719v-0.046875c0.90625-0.23438 1.4688-0.875 1.4375-2.1562 0-0.54688-0.0625-1.0156-0.14062-1.5156-0.078125-0.48438-0.14062-0.96875-0.14062-1.4219 0-1.0781 0.40625-1.7188 1.5781-1.7188h0.375v-1.1094h-0.42188c-1.7031 0-2.9062 0.78125-2.9062 2.625 0 0.5625 0.078125 1.0938 0.15625 1.6562s0.17188 1.125 0.17188 1.6875c0 0.6875-0.20312 1.4688-1.625 1.4688z"/>
  </g>
  <g id="use5694" transform="matrix(.35278 0 0 .35278 84.16 162.03)" style="fill:#7d7878">
   <path id="path53958" d="m0.1875-9.6875 3.5781 8.9219c0.078125 0.21875 0.10938 0.35938 0.10938 0.46875 0 0.09375-0.0625 0.23438-0.14062 0.42188-0.39062 0.89062-1 1.5781-1.4688 1.9531-0.53125 0.4375-1.1094 0.71875-1.5469 0.85938l0.4375 1.4844c0.4375-0.078125 1.2969-0.375 2.1562-1.1406 1.2031-1.0469 2.0625-2.7344 3.3281-6.0625l2.6406-6.9062h-1.8594l-1.9219 5.6875c-0.23438 0.70312-0.4375 1.4375-0.625 2.0156h-0.03125c-0.15625-0.57812-0.40625-1.3281-0.625-1.9688l-2.125-5.7344z"/>
  </g>
  <g id="use5698" transform="matrix(.35278 0 0 .35278 87.519 162.03)" style="fill:#7d7878">
   <path id="path53962" d="m2.9688-6.3125c0.050781 0.65625 0.1875 1.2969 0.40625 1.9219 0.28906 0.84375 0.67969 1.5117 1.1719 2 0.5 0.49219 1.0391 0.73438 1.625 0.73438h4.6094v1.6562h-4.6094c-0.88672 0-1.7109-0.31641-2.4688-0.95312-0.75-0.64453-1.3438-1.5156-1.7812-2.6094s-0.65625-2.2852-0.65625-3.5781c0-1.3008 0.21875-2.5 0.65625-3.5938 0.4375-1.1016 1.0312-1.9727 1.7812-2.6094 0.75781-0.63281 1.582-0.95312 2.4688-0.95312h4.6094v1.6562h-4.6094c-0.59375 0-1.1367 0.24609-1.625 0.73438-0.5 0.5-0.89062 1.168-1.1719 2-0.21875 0.625-0.35547 1.2656-0.40625 1.9219h7.7969v1.6719z"/>
  </g>
  <g id="use5700" transform="matrix(.35278 0 0 .35278 91.802 162.03)" style="fill:#7d7878">
   <path id="path53966" d="m7.4219-6.8906c0.50781 0.13672 0.94141 0.38672 1.2969 0.75 0.36328 0.35547 0.8125 1.0742 1.3438 2.1562l1.9844 3.9844h-2.125l-1.7344-3.6875c-0.5-1.0391-0.95312-1.7109-1.3594-2.0156-0.39844-0.30078-0.91797-0.45312-1.5625-0.45312h-1.8906v6.1562h-1.9844v-14.578h4.0625c1.6016 0 2.832 0.36719 3.6875 1.0938 0.85156 0.71875 1.2812 1.7617 1.2812 3.125 0 0.96094-0.26562 1.7461-0.79688 2.3594-0.52344 0.60547-1.2578 0.97656-2.2031 1.1094zm-4.0469-6.0625v5.1719h2.1562c0.94531 0 1.6484-0.20703 2.1094-0.625 0.46875-0.42578 0.70312-1.0781 0.70312-1.9531 0-0.84375-0.25-1.4844-0.75-1.9219-0.49219-0.44531-1.2031-0.67188-2.1406-0.67188z"/>
  </g>
  <g id="use5708" transform="matrix(.35278 0 0 .35278 97.615 162.03)" style="fill:#7d7878">
   <path id="path53970" d="m1.7188-15v20h1.3438v-20z"/>
  </g>
  <g id="use5714" transform="matrix(.35278 0 0 .35278 102.4 162.03)" style="fill:#7d7878">
   <path id="path53974" d="m0.59375-6.0625v1.2969h4.9531v-1.2969z"/>
  </g>
  <g id="use5716" transform="matrix(.35278 0 0 .35278 104.6 162.03)" style="fill:#7d7878">
   <path id="path53978" d="m8 0v-3.5469h1.8125v-1.375h-1.8125v-8.0781h-1.9062l-5.7969 8.2969v1.1562h6.0469v3.5469zm-5.9219-4.9219v-0.03125l3.1875-4.4219c0.35938-0.60938 0.67188-1.1719 1.0781-1.9219h0.0625c-0.046875 0.67188-0.0625 1.3594-0.0625 2.0312v4.3438z"/>
  </g>
  <g id="use5720" transform="matrix(.35278 0 0 .35278 109.79 162.03)" style="fill:#7d7878">
   <path id="path53982" d="m10.594-1.9844v-1.3281l-7.6406-3.0938v-0.03125l7.6406-3.1094v-1.3125l-9.2812 3.8438v1.1719zm0 1.9844v-1.1562h-9.2344v1.1562z"/>
  </g>
  <g id="use5724" transform="matrix(.35278 0 0 .35278 115.56 162.03)" style="fill:#7d7878">
   <path id="path53986" d="m0.1875-9.6875 3.5781 8.9219c0.078125 0.21875 0.10938 0.35938 0.10938 0.46875 0 0.09375-0.0625 0.23438-0.14062 0.42188-0.39062 0.89062-1 1.5781-1.4688 1.9531-0.53125 0.4375-1.1094 0.71875-1.5469 0.85938l0.4375 1.4844c0.4375-0.078125 1.2969-0.375 2.1562-1.1406 1.2031-1.0469 2.0625-2.7344 3.3281-6.0625l2.6406-6.9062h-1.8594l-1.9219 5.6875c-0.23438 0.70312-0.4375 1.4375-0.625 2.0156h-0.03125c-0.15625-0.57812-0.40625-1.3281-0.625-1.9688l-2.125-5.7344z"/>
  </g>
  <g id="use5728" transform="matrix(.35278 0 0 .35278 120.45 162.03)" style="fill:#7d7878">
   <path id="path53990" d="m1.3125-4.7812 9.2812 4.7812v-1.375l-7.8125-3.9219v-0.046875l7.8125-3.9219v-1.375l-9.2812 4.7812z"/>
  </g>
  <g id="use5732" transform="matrix(.35278 0 0 .35278 126.22 162.03)" style="fill:#7d7878">
   <path id="path53994" d="m0.59375-6.0625v1.2969h4.9531v-1.2969z"/>
  </g>
  <g id="use5734" transform="matrix(.35278 0 0 .35278 128.42 162.03)" style="fill:#7d7878">
   <path id="path53998" d="m9.2031 0v-1.4531h-5.8438v-0.046875l1.0469-0.95312c2.7344-2.6406 4.4688-4.5938 4.4688-6.9844 0-1.8594-1.1719-3.7812-3.9688-3.7812-1.5 0-2.7812 0.5625-3.6875 1.3125l0.5625 1.25c0.59375-0.5 1.5781-1.1094 2.7656-1.1094 1.9375 0 2.5781 1.2188 2.5781 2.5469-0.03125 1.9531-1.5312 3.6406-4.8438 6.7969l-1.375 1.3438v1.0781z"/>
  </g>
  <g id="use5740" transform="matrix(.35278 0 0 .35278 133.61 162.03)" style="fill:#7d7878">
   <path id="path54002" d="m5.125-6.2656c-1.4219 0-1.625-0.78125-1.625-1.4688 0-0.5625 0.078125-1.125 0.15625-1.6875s0.15625-1.0938 0.15625-1.6562c0-1.8438-1.2188-2.625-2.9062-2.625h-0.40625v1.1094h0.35938c1.1562 0.01563 1.5781 0.64062 1.5781 1.7188 0 0.45312-0.078125 0.9375-0.14062 1.4219-0.078125 0.5-0.15625 0.96875-0.15625 1.5156 0 1.2812 0.5625 1.9219 1.4375 2.1562v0.046875c-0.875 0.21875-1.4375 0.89062-1.4375 2.1719 0 0.54688 0.078125 1.0469 0.15625 1.5156 0.0625 0.5 0.14062 0.96875 0.14062 1.4531 0 1.1094-0.48438 1.7188-1.5938 1.7344h-0.34375v1.0938h0.42188c1.6406 0 2.8906-0.71875 2.8906-2.7344 0-0.54688-0.078125-1.0938-0.15625-1.6406s-0.15625-1.0781-0.15625-1.625c0-0.60938 0.20312-1.4688 1.625-1.4688z"/>
  </g>
 </g>
</svg>
