<svg id="svg33350" version="1.1" viewBox="0 0 208.2 154.45" xmlns="http://www.w3.org/2000/svg">
 <title id="title33926">img_30</title>
 <defs id="defs33344">
  <clipPath id="clip2">
   <path id="path27537" d="m426 2444.1 138.07 138.07 50.207-187.27z"/>
  </clipPath>
  <clipPath id="clip4">
   <path id="path27543" d="m426 2444.1 138.07 138.07 50.207-187.27z"/>
  </clipPath>
  <clipPath id="clip6">
   <path id="path27549" d="m426 2444.1 138.07 138.07 50.207-187.27z"/>
  </clipPath>
  <clipPath id="clip8">
   <path id="path27555" d="m103.23 2517.9 250.32 43.68-73.156-138.07z"/>
  </clipPath>
  <clipPath id="clip10">
   <path id="path27561" d="m103.23 2517.9 250.32 43.68-73.156-138.07z"/>
  </clipPath>
  <clipPath id="clip12">
   <path id="path27567" d="m103.23 2517.9 250.32 43.68-73.156-138.07z"/>
  </clipPath>
 </defs>
 <g id="layer1" transform="translate(25.482 -50.53)">
  <g id="use27686" transform="matrix(.35278 0 0 .35278 140.13 148.06)" style="fill:#1c1c19">
   <path id="path32958" d="m8.7031-13.797c-0.34375 0-0.79688 0.01563-1.3438 0.10938-1.7188 0.20312-3.2188 0.89062-4.3438 2-1.3438 1.3438-2.3125 3.4531-2.3125 6.125 0 3.5312 1.9062 5.7969 4.8125 5.7969 2.8281 0 4.5156-2.2969 4.5156-4.7969 0-2.6562-1.6875-4.3906-4.0938-4.3906-1.5 0-2.6406 0.71875-3.2812 1.5781h-0.0625c0.3125-2.2344 1.8438-4.3594 4.7188-4.8281 0.53125-0.09375 1.0156-0.10938 1.3906-0.09375zm-3.1875 12.609c-1.9219 0-2.9375-1.6562-2.9844-3.8906 0-0.34375 0.078125-0.60938 0.20312-0.8125 0.5-0.98438 1.5312-1.6719 2.6406-1.6719 1.6875 0 2.7969 1.1719 2.7969 3.1094s-1.0625 3.2656-2.6562 3.2656z"/>
  </g>
  <g id="use27688" transform="matrix(.35278 0 0 .35278 143.95 148.06)" style="fill:#1c1c19">
   <path id="path32962" d="m5.4844-13.812c-2.7656 0-4.7344 2.5-4.7344 7.0625 0.046875 4.4844 1.8438 6.9844 4.5 6.9844 3.0156 0 4.7188-2.5625 4.7188-7.1719 0-4.3281-1.625-6.875-4.4844-6.875zm-0.10938 1.4219c1.9062 0 2.75 2.1875 2.75 5.5312 0 3.4688-0.89062 5.6719-2.7656 5.6719-1.6875 0-2.7656-2.0156-2.7656-5.5469 0-3.7031 1.1719-5.6562 2.7812-5.6562z"/>
  </g>
  <g id="use27692" transform="matrix(.35278 0 0 .35278 147.77 148.06)" style="fill:#1c1c19">
   <path id="path32966" d="m3.3906-14.328c-1.5469 0-2.8125 1.2188-2.7812 2.8281 0 1.4688 1.1094 2.7031 2.7344 2.7031 1.4375 0 2.7969-1.1094 2.7969-2.8125 0-1.4219-1.0469-2.7188-2.75-2.7188zm-0.03125 0.98438c1.2031 0 1.6562 0.98438 1.6562 1.7656 0 1.0156-0.70312 1.7969-1.6562 1.7969-0.90625 0-1.625-0.75-1.625-1.7188 0-0.89062 0.54688-1.8438 1.625-1.8438z"/>
  </g>
  <g id="use27696" transform="matrix(.35278 0 0 .35278 133.06 192.79)" style="fill:#1c1c19">
   <path id="path32970" d="m8.7031-13.797c-0.34375 0-0.79688 0.01563-1.3438 0.10938-1.7188 0.20312-3.2188 0.89062-4.3438 2-1.3438 1.3438-2.3125 3.4531-2.3125 6.125 0 3.5312 1.9062 5.7969 4.8125 5.7969 2.8281 0 4.5156-2.2969 4.5156-4.7969 0-2.6562-1.6875-4.3906-4.0938-4.3906-1.5 0-2.6406 0.71875-3.2812 1.5781h-0.0625c0.3125-2.2344 1.8438-4.3594 4.7188-4.8281 0.53125-0.09375 1.0156-0.10938 1.3906-0.09375zm-3.1875 12.609c-1.9219 0-2.9375-1.6562-2.9844-3.8906 0-0.34375 0.078125-0.60938 0.20312-0.8125 0.5-0.98438 1.5312-1.6719 2.6406-1.6719 1.6875 0 2.7969 1.1719 2.7969 3.1094s-1.0625 3.2656-2.6562 3.2656z"/>
  </g>
  <g id="use27698" transform="matrix(.35278 0 0 .35278 136.88 192.79)" style="fill:#1c1c19">
   <path id="path32974" d="m5.4844-13.812c-2.7656 0-4.7344 2.5-4.7344 7.0625 0.046875 4.4844 1.8438 6.9844 4.5 6.9844 3.0156 0 4.7188-2.5625 4.7188-7.1719 0-4.3281-1.625-6.875-4.4844-6.875zm-0.10938 1.4219c1.9062 0 2.75 2.1875 2.75 5.5312 0 3.4688-0.89062 5.6719-2.7656 5.6719-1.6875 0-2.7656-2.0156-2.7656-5.5469 0-3.7031 1.1719-5.6562 2.7812-5.6562z"/>
  </g>
  <g id="use27702" transform="matrix(.35278 0 0 .35278 140.7 192.79)" style="fill:#1c1c19">
   <path id="path32978" d="m3.3906-14.328c-1.5469 0-2.8125 1.2188-2.7812 2.8281 0 1.4688 1.1094 2.7031 2.7344 2.7031 1.4375 0 2.7969-1.1094 2.7969-2.8125 0-1.4219-1.0469-2.7188-2.75-2.7188zm-0.03125 0.98438c1.2031 0 1.6562 0.98438 1.6562 1.7656 0 1.0156-0.70312 1.7969-1.6562 1.7969-0.90625 0-1.625-0.75-1.625-1.7188 0-0.89062 0.54688-1.8438 1.625-1.8438z"/>
  </g>
  <g id="use27706" transform="matrix(.35278 0 0 .35278 100.87 159.35)" style="fill:#1c1c19">
   <path id="path32982" d="m8.7031-13.797c-0.34375 0-0.79688 0.01563-1.3438 0.10938-1.7188 0.20312-3.2188 0.89062-4.3438 2-1.3438 1.3438-2.3125 3.4531-2.3125 6.125 0 3.5312 1.9062 5.7969 4.8125 5.7969 2.8281 0 4.5156-2.2969 4.5156-4.7969 0-2.6562-1.6875-4.3906-4.0938-4.3906-1.5 0-2.6406 0.71875-3.2812 1.5781h-0.0625c0.3125-2.2344 1.8438-4.3594 4.7188-4.8281 0.53125-0.09375 1.0156-0.10938 1.3906-0.09375zm-3.1875 12.609c-1.9219 0-2.9375-1.6562-2.9844-3.8906 0-0.34375 0.078125-0.60938 0.20312-0.8125 0.5-0.98438 1.5312-1.6719 2.6406-1.6719 1.6875 0 2.7969 1.1719 2.7969 3.1094s-1.0625 3.2656-2.6562 3.2656z"/>
  </g>
  <g id="use27708" transform="matrix(.35278 0 0 .35278 104.69 159.35)" style="fill:#1c1c19">
   <path id="path32986" d="m5.4844-13.812c-2.7656 0-4.7344 2.5-4.7344 7.0625 0.046875 4.4844 1.8438 6.9844 4.5 6.9844 3.0156 0 4.7188-2.5625 4.7188-7.1719 0-4.3281-1.625-6.875-4.4844-6.875zm-0.10938 1.4219c1.9062 0 2.75 2.1875 2.75 5.5312 0 3.4688-0.89062 5.6719-2.7656 5.6719-1.6875 0-2.7656-2.0156-2.7656-5.5469 0-3.7031 1.1719-5.6562 2.7812-5.6562z"/>
  </g>
  <g id="use27712" transform="matrix(.35278 0 0 .35278 108.51 159.35)" style="fill:#1c1c19">
   <path id="path32990" d="m3.3906-14.328c-1.5469 0-2.8125 1.2188-2.7812 2.8281 0 1.4688 1.1094 2.7031 2.7344 2.7031 1.4375 0 2.7969-1.1094 2.7969-2.8125 0-1.4219-1.0469-2.7188-2.75-2.7188zm-0.03125 0.98438c1.2031 0 1.6562 0.98438 1.6562 1.7656 0 1.0156-0.70312 1.7969-1.6562 1.7969-0.90625 0-1.625-0.75-1.625-1.7188 0-0.89062 0.54688-1.8438 1.625-1.8438z"/>
  </g>
  <g id="use27716" transform="matrix(.35278 0 0 .35278 50.163 191.14)" style="fill:#1c1c19">
   <path id="path32994" d="m9.0469-13.594h-6.5l-0.875 6.5312c0.5-0.0625 1.1094-0.15625 1.875-0.15625 2.7188 0 3.8906 1.2656 3.9219 3.0156 0 1.8125-1.4844 2.9531-3.2188 2.9531-1.2344 0-2.3438-0.42188-2.9062-0.75l-0.46875 1.3906c0.65625 0.42188 1.9062 0.84375 3.3906 0.84375 2.9531 0 5.0625-1.9844 5.0625-4.6406 0-1.7188-0.875-2.8906-1.9531-3.5-0.82812-0.5-1.875-0.73438-2.9219-0.73438-0.5 0-0.79688 0.046875-1.1094 0.09375l0.53125-3.5h5.1719z"/>
  </g>
  <g id="use27718" transform="matrix(.35278 0 0 .35278 53.983 191.14)" style="fill:#1c1c19">
   <path id="path32998" d="m0.875-0.6875c0.67188 0.4375 2.0156 0.92188 3.5312 0.92188 3.2656 0 4.9531-1.9062 4.9531-4.0781 0-1.9062-1.3594-3.1562-3.0312-3.5v-0.03125c1.6719-0.60938 2.5156-1.7969 2.5156-3.2031 0-1.6562-1.2188-3.2344-3.8906-3.2344-1.4688 0-2.8438 0.51562-3.5469 1.0312l0.46875 1.3438c0.59375-0.42188 1.6406-0.89062 2.7188-0.89062 1.7031 0 2.3906 0.95312 2.3906 2.0469 0 1.6094-1.6875 2.2969-3.0312 2.2969h-1.0312v1.375h1.0312c1.7812 0 3.4844 0.8125 3.5156 2.7188 0.015625 1.125-0.71875 2.6406-3.0781 2.6406-1.2812 0-2.4844-0.53125-3.0156-0.85938z"/>
  </g>
  <g id="use27722" transform="matrix(.35278 0 0 .35278 57.803 191.14)" style="fill:#1c1c19">
   <path id="path33002" d="m3.3906-14.328c-1.5469 0-2.8125 1.2188-2.7812 2.8281 0 1.4688 1.1094 2.7031 2.7344 2.7031 1.4375 0 2.7969-1.1094 2.7969-2.8125 0-1.4219-1.0469-2.7188-2.75-2.7188zm-0.03125 0.98438c1.2031 0 1.6562 0.98438 1.6562 1.7656 0 1.0156-0.70312 1.7969-1.6562 1.7969-0.90625 0-1.625-0.75-1.625-1.7188 0-0.89062 0.54688-1.8438 1.625-1.8438z"/>
  </g>
  <g id="use27726" transform="matrix(.35278 0 0 .35278 33.003 160.71)" style="fill:#1c1c19">
   <path id="path33006" d="m5.3281 0.23438c2.5938 0 4.625-1.5938 4.625-3.9531 0-1.6562-1.0469-2.8438-2.7344-3.5156v-0.0625c1.6719-0.79688 2.2344-2.0312 2.2344-3.1719 0-1.7031-1.3281-3.3438-3.9531-3.3438-2.3906 0-4.2031 1.4531-4.2031 3.6094 0 1.1719 0.64062 2.3438 2.1562 3.0469l0.015625 0.0625c-1.6719 0.71875-2.6875 1.9375-2.6875 3.6406 0 1.9844 1.7031 3.6875 4.5469 3.6875zm0.046875-1.3438c-1.7344 0-2.7812-1.2188-2.7188-2.5938 0-1.2969 0.85938-2.3438 2.4375-2.7969 1.8438 0.51562 3 1.3125 3 2.9688 0 1.4062-1.0625 2.4219-2.7188 2.4219zm0.015625-11.391c1.6562 0 2.2969 1.125 2.2969 2.2188 0 1.2344-0.89062 2.0625-2.0625 2.4688-1.5625-0.42188-2.5938-1.1562-2.5938-2.5156 0-1.1719 0.84375-2.1719 2.3594-2.1719z"/>
  </g>
  <g id="use27728" transform="matrix(.35278 0 0 .35278 36.823 160.71)" style="fill:#1c1c19">
   <path id="path33010" d="m2 0.20312c0.45312 0.03125 1.0312 0 1.7031-0.09375 1.4531-0.17188 2.9062-0.79688 3.9531-1.8281 1.3281-1.2969 2.3438-3.375 2.3438-6.375 0-3.4688-1.7188-5.7188-4.5-5.7188s-4.6406 2.25-4.6406 4.8281c0 2.3125 1.5625 4.1562 4.0156 4.1562 1.3594 0 2.4375-0.54688 3.1875-1.4688h0.0625c-0.25 1.6094-0.89062 2.8125-1.7969 3.625-0.76562 0.73438-1.7656 1.1719-2.8438 1.3125-0.625 0.0625-1.0781 0.10938-1.4844 0.0625zm3.3594-12.625c1.9219 0 2.7656 1.7812 2.7656 4.0938 0 0.29688-0.0625 0.51562-0.15625 0.67188-0.48438 0.8125-1.4531 1.4219-2.6719 1.4219-1.5938 0-2.625-1.1875-2.625-2.875 0-1.9219 1.1094-3.3125 2.6875-3.3125z"/>
  </g>
  <g id="use27732" transform="matrix(.35278 0 0 .35278 40.643 160.71)" style="fill:#1c1c19">
   <path id="path33014" d="m3.3906-14.328c-1.5469 0-2.8125 1.2188-2.7812 2.8281 0 1.4688 1.1094 2.7031 2.7344 2.7031 1.4375 0 2.7969-1.1094 2.7969-2.8125 0-1.4219-1.0469-2.7188-2.75-2.7188zm-0.03125 0.98438c1.2031 0 1.6562 0.98438 1.6562 1.7656 0 1.0156-0.70312 1.7969-1.6562 1.7969-0.90625 0-1.625-0.75-1.625-1.7188 0-0.89062 0.54688-1.8438 1.625-1.8438z"/>
  </g>
  <g id="use27736" transform="matrix(.35278 0 0 .35278 -9.4201 179.86)" style="fill:#1c1c19">
   <path id="path33018" d="m0.875-0.6875c0.67188 0.4375 2.0156 0.92188 3.5312 0.92188 3.2656 0 4.9531-1.9062 4.9531-4.0781 0-1.9062-1.3594-3.1562-3.0312-3.5v-0.03125c1.6719-0.60938 2.5156-1.7969 2.5156-3.2031 0-1.6562-1.2188-3.2344-3.8906-3.2344-1.4688 0-2.8438 0.51562-3.5469 1.0312l0.46875 1.3438c0.59375-0.42188 1.6406-0.89062 2.7188-0.89062 1.7031 0 2.3906 0.95312 2.3906 2.0469 0 1.6094-1.6875 2.2969-3.0312 2.2969h-1.0312v1.375h1.0312c1.7812 0 3.4844 0.8125 3.5156 2.7188 0.015625 1.125-0.71875 2.6406-3.0781 2.6406-1.2812 0-2.4844-0.53125-3.0156-0.85938z"/>
  </g>
  <g id="use27738" transform="matrix(.35278 0 0 .35278 -5.6003 179.86)" style="fill:#1c1c19">
   <path id="path33022" d="m5.3281 0.23438c2.5938 0 4.625-1.5938 4.625-3.9531 0-1.6562-1.0469-2.8438-2.7344-3.5156v-0.0625c1.6719-0.79688 2.2344-2.0312 2.2344-3.1719 0-1.7031-1.3281-3.3438-3.9531-3.3438-2.3906 0-4.2031 1.4531-4.2031 3.6094 0 1.1719 0.64062 2.3438 2.1562 3.0469l0.015625 0.0625c-1.6719 0.71875-2.6875 1.9375-2.6875 3.6406 0 1.9844 1.7031 3.6875 4.5469 3.6875zm0.046875-1.3438c-1.7344 0-2.7812-1.2188-2.7188-2.5938 0-1.2969 0.85938-2.3438 2.4375-2.7969 1.8438 0.51562 3 1.3125 3 2.9688 0 1.4062-1.0625 2.4219-2.7188 2.4219zm0.015625-11.391c1.6562 0 2.2969 1.125 2.2969 2.2188 0 1.2344-0.89062 2.0625-2.0625 2.4688-1.5625-0.42188-2.5938-1.1562-2.5938-2.5156 0-1.1719 0.84375-2.1719 2.3594-2.1719z"/>
  </g>
  <g id="use27742" transform="matrix(.35278 0 0 .35278 -1.7805 179.86)" style="fill:#1c1c19">
   <path id="path33026" d="m3.3906-14.328c-1.5469 0-2.8125 1.2188-2.7812 2.8281 0 1.4688 1.1094 2.7031 2.7344 2.7031 1.4375 0 2.7969-1.1094 2.7969-2.8125 0-1.4219-1.0469-2.7188-2.75-2.7188zm-0.03125 0.98438c1.2031 0 1.6562 0.98438 1.6562 1.7656 0 1.0156-0.70312 1.7969-1.6562 1.7969-0.90625 0-1.625-0.75-1.625-1.7188 0-0.89062 0.54688-1.8438 1.625-1.8438z"/>
  </g>
  <g id="use27746" transform="matrix(.35278 0 0 .35278 -13.896 79.607)" style="fill:#1c1c19">
   <path id="path33030" d="m2 0.20312c0.45312 0.03125 1.0312 0 1.7031-0.09375 1.4531-0.17188 2.9062-0.79688 3.9531-1.8281 1.3281-1.2969 2.3438-3.375 2.3438-6.375 0-3.4688-1.7188-5.7188-4.5-5.7188s-4.6406 2.25-4.6406 4.8281c0 2.3125 1.5625 4.1562 4.0156 4.1562 1.3594 0 2.4375-0.54688 3.1875-1.4688h0.0625c-0.25 1.6094-0.89062 2.8125-1.7969 3.625-0.76562 0.73438-1.7656 1.1719-2.8438 1.3125-0.625 0.0625-1.0781 0.10938-1.4844 0.0625zm3.3594-12.625c1.9219 0 2.7656 1.7812 2.7656 4.0938 0 0.29688-0.0625 0.51562-0.15625 0.67188-0.48438 0.8125-1.4531 1.4219-2.6719 1.4219-1.5938 0-2.625-1.1875-2.625-2.875 0-1.9219 1.1094-3.3125 2.6875-3.3125z"/>
  </g>
  <g id="use27748" transform="matrix(.35278 0 0 .35278 -10.076 79.607)" style="fill:#1c1c19">
   <path id="path33034" d="m1.6562 2.4531c0.57812-0.98438 1.5-3.3125 1.9844-5.0938l-2.0469 0.21875c-0.23438 1.5156-0.79688 3.7656-1.2656 5z"/>
  </g>
  <g id="use27750" transform="matrix(.35278 0 0 .35278 -8.5131 79.607)" style="fill:#1c1c19">
   <path id="path33038" d="m5.3281 0.23438c2.5938 0 4.625-1.5938 4.625-3.9531 0-1.6562-1.0469-2.8438-2.7344-3.5156v-0.0625c1.6719-0.79688 2.2344-2.0312 2.2344-3.1719 0-1.7031-1.3281-3.3438-3.9531-3.3438-2.3906 0-4.2031 1.4531-4.2031 3.6094 0 1.1719 0.64062 2.3438 2.1562 3.0469l0.015625 0.0625c-1.6719 0.71875-2.6875 1.9375-2.6875 3.6406 0 1.9844 1.7031 3.6875 4.5469 3.6875zm0.046875-1.3438c-1.7344 0-2.7812-1.2188-2.7188-2.5938 0-1.2969 0.85938-2.3438 2.4375-2.7969 1.8438 0.51562 3 1.3125 3 2.9688 0 1.4062-1.0625 2.4219-2.7188 2.4219zm0.015625-11.391c1.6562 0 2.2969 1.125 2.2969 2.2188 0 1.2344-0.89062 2.0625-2.0625 2.4688-1.5625-0.42188-2.5938-1.1562-2.5938-2.5156 0-1.1719 0.84375-2.1719 2.3594-2.1719z"/>
  </g>
  <g id="use27754" transform="matrix(.35278 0 0 .35278 -3.0931 79.607)" style="fill:#1c1c19">
   <path id="path33042" d="m3.5312 0v-8.7188h2.4531v-1.4062h-2.4531v-0.53125c0-1.5469 0.40625-2.9375 1.9688-2.9375 0.51562 0 0.89062 0.10938 1.1719 0.23438l0.25-1.4219c-0.35938-0.14062-0.92188-0.29688-1.5625-0.29688-0.85938 0-1.7812 0.28125-2.4688 0.95312-0.85938 0.8125-1.1719 2.1094-1.1719 3.5312v0.46875h-1.4219v1.4062h1.4219v8.7188z"/>
  </g>
  <g id="use27758" transform="matrix(.35278 0 0 .35278 -.82188 79.607)" style="fill:#1c1c19">
   <path id="path33046" d="m1.9375-12.547v2.4219h-1.5625v1.4062h1.5625v5.5156c0 1.2031 0.1875 2.0938 0.71875 2.6406 0.4375 0.5 1.125 0.76562 1.9844 0.76562 0.71875 0 1.2812-0.09375 1.625-0.25l-0.078125-1.375c-0.23438 0.0625-0.57812 0.125-1.0625 0.125-1.0312 0-1.375-0.70312-1.375-1.9688v-5.4531h2.625v-1.4062h-2.625v-2.9062z"/>
  </g>
  <g id="use27762" transform="matrix(.35278 0 0 .35278 52.884 83.014)" style="fill:#1c1c19">
   <path id="path33050" d="m1.1875-13.594v1.5312h6.6562v0.04687l-5.9062 12.016h1.9062l5.9219-12.375v-1.2188z"/>
  </g>
  <g id="use27764" transform="matrix(.35278 0 0 .35278 56.704 83.014)" style="fill:#1c1c19">
   <path id="path33054" d="m1.6562 2.4531c0.57812-0.98438 1.5-3.3125 1.9844-5.0938l-2.0469 0.21875c-0.23438 1.5156-0.79688 3.7656-1.2656 5z"/>
  </g>
  <g id="use27766" transform="matrix(.35278 0 0 .35278 58.267 83.014)" style="fill:#1c1c19">
   <path id="path33058" d="m8.3594 0v-3.7031h1.9062v-1.4375h-1.9062v-8.4531h-1.9844l-6.0625 8.6875v1.2031h6.3125v3.7031zm-6.1875-5.1406v-0.046875l3.3281-4.625c0.375-0.625 0.70312-1.2031 1.125-2h0.0625c-0.046875 0.71875-0.0625 1.4219-0.0625 2.1406v4.5312z"/>
  </g>
  <g id="use27770" transform="matrix(.35278 0 0 .35278 63.687 83.014)" style="fill:#1c1c19">
   <path id="path33062" d="m3.5312 0v-8.7188h2.4531v-1.4062h-2.4531v-0.53125c0-1.5469 0.40625-2.9375 1.9688-2.9375 0.51562 0 0.89062 0.10938 1.1719 0.23438l0.25-1.4219c-0.35938-0.14062-0.92188-0.29688-1.5625-0.29688-0.85938 0-1.7812 0.28125-2.4688 0.95312-0.85938 0.8125-1.1719 2.1094-1.1719 3.5312v0.46875h-1.4219v1.4062h1.4219v8.7188z"/>
  </g>
  <g id="use27774" transform="matrix(.35278 0 0 .35278 65.958 83.014)" style="fill:#1c1c19">
   <path id="path33066" d="m1.9375-12.547v2.4219h-1.5625v1.4062h1.5625v5.5156c0 1.2031 0.1875 2.0938 0.71875 2.6406 0.4375 0.5 1.125 0.76562 1.9844 0.76562 0.71875 0 1.2812-0.09375 1.625-0.25l-0.078125-1.375c-0.23438 0.0625-0.57812 0.125-1.0625 0.125-1.0312 0-1.375-0.70312-1.375-1.9688v-5.4531h2.625v-1.4062h-2.625v-2.9062z"/>
  </g>
  <g id="use27778" transform="matrix(.35278 0 0 .35278 97.52 75.182)" style="fill:#1c1c19">
   <path id="path33070" d="m2 0.20312c0.45312 0.03125 1.0312 0 1.7031-0.09375 1.4531-0.17188 2.9062-0.79688 3.9531-1.8281 1.3281-1.2969 2.3438-3.375 2.3438-6.375 0-3.4688-1.7188-5.7188-4.5-5.7188s-4.6406 2.25-4.6406 4.8281c0 2.3125 1.5625 4.1562 4.0156 4.1562 1.3594 0 2.4375-0.54688 3.1875-1.4688h0.0625c-0.25 1.6094-0.89062 2.8125-1.7969 3.625-0.76562 0.73438-1.7656 1.1719-2.8438 1.3125-0.625 0.0625-1.0781 0.10938-1.4844 0.0625zm3.3594-12.625c1.9219 0 2.7656 1.7812 2.7656 4.0938 0 0.29688-0.0625 0.51562-0.15625 0.67188-0.48438 0.8125-1.4531 1.4219-2.6719 1.4219-1.5938 0-2.625-1.1875-2.625-2.875 0-1.9219 1.1094-3.3125 2.6875-3.3125z"/>
  </g>
  <g id="use27780" transform="matrix(.35278 0 0 .35278 101.34 75.182)" style="fill:#1c1c19">
   <path id="path33074" d="m1.6562 2.4531c0.57812-0.98438 1.5-3.3125 1.9844-5.0938l-2.0469 0.21875c-0.23438 1.5156-0.79688 3.7656-1.2656 5z"/>
  </g>
  <g id="use27782" transform="matrix(.35278 0 0 .35278 102.9 75.182)" style="fill:#1c1c19">
   <path id="path33078" d="m0.875-0.6875c0.67188 0.4375 2.0156 0.92188 3.5312 0.92188 3.2656 0 4.9531-1.9062 4.9531-4.0781 0-1.9062-1.3594-3.1562-3.0312-3.5v-0.03125c1.6719-0.60938 2.5156-1.7969 2.5156-3.2031 0-1.6562-1.2188-3.2344-3.8906-3.2344-1.4688 0-2.8438 0.51562-3.5469 1.0312l0.46875 1.3438c0.59375-0.42188 1.6406-0.89062 2.7188-0.89062 1.7031 0 2.3906 0.95312 2.3906 2.0469 0 1.6094-1.6875 2.2969-3.0312 2.2969h-1.0312v1.375h1.0312c1.7812 0 3.4844 0.8125 3.5156 2.7188 0.015625 1.125-0.71875 2.6406-3.0781 2.6406-1.2812 0-2.4844-0.53125-3.0156-0.85938z"/>
  </g>
  <g id="use27786" transform="matrix(.35278 0 0 .35278 108.32 75.182)" style="fill:#1c1c19">
   <path id="path33082" d="m8.4219-1.75c-0.51562 0.21875-1.2031 0.5-2.25 0.5-2.0156 0-3.5156-1.4531-3.5156-3.7812 0-2.125 1.25-3.8281 3.5781-3.8281 1 0 1.6875 0.21875 2.125 0.46875l0.42188-1.4219c-0.5-0.25-1.4688-0.51562-2.5469-0.51562-3.3125 0-5.4375 2.2656-5.4375 5.375 0 3.0938 1.9844 5.1562 5.0312 5.1562 1.3594 0 2.4375-0.32812 2.9062-0.57812z"/>
  </g>
  <g id="use27788" transform="matrix(.35278 0 0 .35278 111.66 75.182)" style="fill:#1c1c19">
   <path id="path33086" d="m1.5312 0h1.7969v-6.1094c0-0.3125 0.03125-0.625 0.14062-0.89062 0.29688-0.92188 1.125-1.8438 2.2812-1.8438 1.4062 0 2.1094 1.1719 2.1094 2.7812v6.0625h1.7969v-6.25c0-0.32812 0.0625-0.67188 0.15625-0.92188 0.3125-0.89062 1.125-1.6719 2.1719-1.6719 1.4844 0 2.1875 1.1719 2.1875 3.1094v5.7344h1.7969v-5.9531c0-3.5156-1.9844-4.3906-3.3281-4.3906-0.95312 0-1.625 0.25-2.2344 0.70312-0.40625 0.3125-0.8125 0.75-1.125 1.3125h-0.046875c-0.4375-1.1875-1.4844-2.0156-2.8594-2.0156-1.6719 0-2.6094 0.89062-3.1719 1.8594h-0.0625l-0.09375-1.6406h-1.6094c0.0625 0.84375 0.09375 1.7031 0.09375 2.75z"/>
  </g>
  <g id="use27792" transform="matrix(.35278 0 0 .35278 162.94 79.607)" style="fill:#1c1c19">
   <path id="path33090" d="m1.1875-13.594v1.5312h6.6562v0.04687l-5.9062 12.016h1.9062l5.9219-12.375v-1.2188z"/>
  </g>
  <g id="use27794" transform="matrix(.35278 0 0 .35278 166.76 79.607)" style="fill:#1c1c19">
   <path id="path33094" d="m1.6562 2.4531c0.57812-0.98438 1.5-3.3125 1.9844-5.0938l-2.0469 0.21875c-0.23438 1.5156-0.79688 3.7656-1.2656 5z"/>
  </g>
  <g id="use27796" transform="matrix(.35278 0 0 .35278 168.33 79.607)" style="fill:#1c1c19">
   <path id="path33098" d="m5.4844-13.812c-2.7656 0-4.7344 2.5-4.7344 7.0625 0.046875 4.4844 1.8438 6.9844 4.5 6.9844 3.0156 0 4.7188-2.5625 4.7188-7.1719 0-4.3281-1.625-6.875-4.4844-6.875zm-0.10938 1.4219c1.9062 0 2.75 2.1875 2.75 5.5312 0 3.4688-0.89062 5.6719-2.7656 5.6719-1.6875 0-2.7656-2.0156-2.7656-5.5469 0-3.7031 1.1719-5.6562 2.7812-5.6562z"/>
  </g>
  <g id="use27800" transform="matrix(.35278 0 0 .35278 173.75 79.607)" style="fill:#1c1c19">
   <path id="path33102" d="m8.4219-1.75c-0.51562 0.21875-1.2031 0.5-2.25 0.5-2.0156 0-3.5156-1.4531-3.5156-3.7812 0-2.125 1.25-3.8281 3.5781-3.8281 1 0 1.6875 0.21875 2.125 0.46875l0.42188-1.4219c-0.5-0.25-1.4688-0.51562-2.5469-0.51562-3.3125 0-5.4375 2.2656-5.4375 5.375 0 3.0938 1.9844 5.1562 5.0312 5.1562 1.3594 0 2.4375-0.32812 2.9062-0.57812z"/>
  </g>
  <g id="use27802" transform="matrix(.35278 0 0 .35278 177.09 79.607)" style="fill:#1c1c19">
   <path id="path33106" d="m1.5312 0h1.7969v-6.1094c0-0.3125 0.03125-0.625 0.14062-0.89062 0.29688-0.92188 1.125-1.8438 2.2812-1.8438 1.4062 0 2.1094 1.1719 2.1094 2.7812v6.0625h1.7969v-6.25c0-0.32812 0.0625-0.67188 0.15625-0.92188 0.3125-0.89062 1.125-1.6719 2.1719-1.6719 1.4844 0 2.1875 1.1719 2.1875 3.1094v5.7344h1.7969v-5.9531c0-3.5156-1.9844-4.3906-3.3281-4.3906-0.95312 0-1.625 0.25-2.2344 0.70312-0.40625 0.3125-0.8125 0.75-1.125 1.3125h-0.046875c-0.4375-1.1875-1.4844-2.0156-2.8594-2.0156-1.6719 0-2.6094 0.89062-3.1719 1.8594h-0.0625l-0.09375-1.6406h-1.6094c0.0625 0.84375 0.09375 1.7031 0.09375 2.75z"/>
  </g>
  <g id="use27806" transform="matrix(.35278 0 0 .35278 126.79 119.2)" style="fill:#1c1c19">
   <path id="path33110" d="m2 0.20312c0.45312 0.03125 1.0312 0 1.7031-0.09375 1.4531-0.17188 2.9062-0.79688 3.9531-1.8281 1.3281-1.2969 2.3438-3.375 2.3438-6.375 0-3.4688-1.7188-5.7188-4.5-5.7188s-4.6406 2.25-4.6406 4.8281c0 2.3125 1.5625 4.1562 4.0156 4.1562 1.3594 0 2.4375-0.54688 3.1875-1.4688h0.0625c-0.25 1.6094-0.89062 2.8125-1.7969 3.625-0.76562 0.73438-1.7656 1.1719-2.8438 1.3125-0.625 0.0625-1.0781 0.10938-1.4844 0.0625zm3.3594-12.625c1.9219 0 2.7656 1.7812 2.7656 4.0938 0 0.29688-0.0625 0.51562-0.15625 0.67188-0.48438 0.8125-1.4531 1.4219-2.6719 1.4219-1.5938 0-2.625-1.1875-2.625-2.875 0-1.9219 1.1094-3.3125 2.6875-3.3125z"/>
  </g>
  <g id="use27808" transform="matrix(.35278 0 0 .35278 130.61 119.2)" style="fill:#1c1c19">
   <path id="path33114" d="m1.6562 2.4531c0.57812-0.98438 1.5-3.3125 1.9844-5.0938l-2.0469 0.21875c-0.23438 1.5156-0.79688 3.7656-1.2656 5z"/>
  </g>
  <g id="use27810" transform="matrix(.35278 0 0 .35278 132.17 119.2)" style="fill:#1c1c19">
   <path id="path33118" d="m0.875-0.6875c0.67188 0.4375 2.0156 0.92188 3.5312 0.92188 3.2656 0 4.9531-1.9062 4.9531-4.0781 0-1.9062-1.3594-3.1562-3.0312-3.5v-0.03125c1.6719-0.60938 2.5156-1.7969 2.5156-3.2031 0-1.6562-1.2188-3.2344-3.8906-3.2344-1.4688 0-2.8438 0.51562-3.5469 1.0312l0.46875 1.3438c0.59375-0.42188 1.6406-0.89062 2.7188-0.89062 1.7031 0 2.3906 0.95312 2.3906 2.0469 0 1.6094-1.6875 2.2969-3.0312 2.2969h-1.0312v1.375h1.0312c1.7812 0 3.4844 0.8125 3.5156 2.7188 0.015625 1.125-0.71875 2.6406-3.0781 2.6406-1.2812 0-2.4844-0.53125-3.0156-0.85938z"/>
  </g>
  <g id="use27814" transform="matrix(.35278 0 0 .35278 137.59 119.2)" style="fill:#1c1c19">
   <path id="path33122" d="m8.4219-1.75c-0.51562 0.21875-1.2031 0.5-2.25 0.5-2.0156 0-3.5156-1.4531-3.5156-3.7812 0-2.125 1.25-3.8281 3.5781-3.8281 1 0 1.6875 0.21875 2.125 0.46875l0.42188-1.4219c-0.5-0.25-1.4688-0.51562-2.5469-0.51562-3.3125 0-5.4375 2.2656-5.4375 5.375 0 3.0938 1.9844 5.1562 5.0312 5.1562 1.3594 0 2.4375-0.32812 2.9062-0.57812z"/>
  </g>
  <g id="use27816" transform="matrix(.35278 0 0 .35278 140.93 119.2)" style="fill:#1c1c19">
   <path id="path33126" d="m1.5312 0h1.7969v-6.1094c0-0.3125 0.03125-0.625 0.14062-0.89062 0.29688-0.92188 1.125-1.8438 2.2812-1.8438 1.4062 0 2.1094 1.1719 2.1094 2.7812v6.0625h1.7969v-6.25c0-0.32812 0.0625-0.67188 0.15625-0.92188 0.3125-0.89062 1.125-1.6719 2.1719-1.6719 1.4844 0 2.1875 1.1719 2.1875 3.1094v5.7344h1.7969v-5.9531c0-3.5156-1.9844-4.3906-3.3281-4.3906-0.95312 0-1.625 0.25-2.2344 0.70312-0.40625 0.3125-0.8125 0.75-1.125 1.3125h-0.046875c-0.4375-1.1875-1.4844-2.0156-2.8594-2.0156-1.6719 0-2.6094 0.89062-3.1719 1.8594h-0.0625l-0.09375-1.6406h-1.6094c0.0625 0.84375 0.09375 1.7031 0.09375 2.75z"/>
  </g>
  <g id="use27820" transform="matrix(.35278 0 0 .35278 17.282 123.22)" style="fill:#1c1c19">
   <path id="path33130" d="m2 0.20312c0.45312 0.03125 1.0312 0 1.7031-0.09375 1.4531-0.17188 2.9062-0.79688 3.9531-1.8281 1.3281-1.2969 2.3438-3.375 2.3438-6.375 0-3.4688-1.7188-5.7188-4.5-5.7188s-4.6406 2.25-4.6406 4.8281c0 2.3125 1.5625 4.1562 4.0156 4.1562 1.3594 0 2.4375-0.54688 3.1875-1.4688h0.0625c-0.25 1.6094-0.89062 2.8125-1.7969 3.625-0.76562 0.73438-1.7656 1.1719-2.8438 1.3125-0.625 0.0625-1.0781 0.10938-1.4844 0.0625zm3.3594-12.625c1.9219 0 2.7656 1.7812 2.7656 4.0938 0 0.29688-0.0625 0.51562-0.15625 0.67188-0.48438 0.8125-1.4531 1.4219-2.6719 1.4219-1.5938 0-2.625-1.1875-2.625-2.875 0-1.9219 1.1094-3.3125 2.6875-3.3125z"/>
  </g>
  <g id="use27822" transform="matrix(.35278 0 0 .35278 21.101 123.22)" style="fill:#1c1c19">
   <path id="path33134" d="m1.6562 2.4531c0.57812-0.98438 1.5-3.3125 1.9844-5.0938l-2.0469 0.21875c-0.23438 1.5156-0.79688 3.7656-1.2656 5z"/>
  </g>
  <g id="use27824" transform="matrix(.35278 0 0 .35278 22.665 123.22)" style="fill:#1c1c19">
   <path id="path33138" d="m9.0469-13.594h-6.5l-0.875 6.5312c0.5-0.0625 1.1094-0.15625 1.875-0.15625 2.7188 0 3.8906 1.2656 3.9219 3.0156 0 1.8125-1.4844 2.9531-3.2188 2.9531-1.2344 0-2.3438-0.42188-2.9062-0.75l-0.46875 1.3906c0.65625 0.42188 1.9062 0.84375 3.3906 0.84375 2.9531 0 5.0625-1.9844 5.0625-4.6406 0-1.7188-0.875-2.8906-1.9531-3.5-0.82812-0.5-1.875-0.73438-2.9219-0.73438-0.5 0-0.79688 0.046875-1.1094 0.09375l0.53125-3.5h5.1719z"/>
  </g>
  <g id="use27828" transform="matrix(.35278 0 0 .35278 28.085 123.22)" style="fill:#1c1c19">
   <path id="path33142" d="m3.5312 0v-8.7188h2.4531v-1.4062h-2.4531v-0.53125c0-1.5469 0.40625-2.9375 1.9688-2.9375 0.51562 0 0.89062 0.10938 1.1719 0.23438l0.25-1.4219c-0.35938-0.14062-0.92188-0.29688-1.5625-0.29688-0.85938 0-1.7812 0.28125-2.4688 0.95312-0.85938 0.8125-1.1719 2.1094-1.1719 3.5312v0.46875h-1.4219v1.4062h1.4219v8.7188z"/>
  </g>
  <g id="use27832" transform="matrix(.35278 0 0 .35278 30.356 123.22)" style="fill:#1c1c19">
   <path id="path33146" d="m1.9375-12.547v2.4219h-1.5625v1.4062h1.5625v5.5156c0 1.2031 0.1875 2.0938 0.71875 2.6406 0.4375 0.5 1.125 0.76562 1.9844 0.76562 0.71875 0 1.2812-0.09375 1.625-0.25l-0.078125-1.375c-0.23438 0.0625-0.57812 0.125-1.0625 0.125-1.0312 0-1.375-0.70312-1.375-1.9688v-5.4531h2.625v-1.4062h-2.625v-2.9062z"/>
  </g>
  <path id="path27836" d="m38.405 51.968 23.026 62.877h-85.547z" style="fill:none;stroke-miterlimit:10;stroke-width:.62406;stroke:#1c1c19"/>
  <path id="path27838" d="m149.07 51.082 23.026 60.22-83.916-1.593z" style="fill:none;stroke-miterlimit:10;stroke-width:.62406;stroke:#1c1c19"/>
  <g>
   <g id="g27842" transform="matrix(.35278 0 0 .35278 -58.563 -707.89)" clip-path="url(#clip2)">
    <path id="path27840" transform="matrix(1 0 0 -1 632.85 2394.9)" d="m-1.4375e-4 2.3125e-4c0-10.262-8.3164-18.578-18.578-18.578-10.258 0-18.574 8.3164-18.574 18.578 0 10.262 8.3164 18.578 18.574 18.578 10.262 0 18.578-8.3164 18.578-18.578z" style="fill:none;stroke-miterlimit:10;stroke-width:1.769;stroke:#e10511"/>
   </g>
   <g id="g27848" transform="matrix(.35278 0 0 .35278 -58.563 -707.89)" clip-path="url(#clip4)">
    <path id="path27846" transform="matrix(1 0 0 -1 584.5 2582.2)" d="m9e-4 -0.0016062c0-10.258-8.3164-18.574-18.578-18.574-10.258 0-18.574 8.3164-18.574 18.574 0 10.262 8.3164 18.578 18.574 18.578 10.262 0 18.578-8.3164 18.578-18.578z" style="fill:none;stroke-miterlimit:10;stroke-width:1.769;stroke:#e10511"/>
   </g>
   <g id="g27854" transform="matrix(.35278 0 0 .35278 -58.563 -707.89)" clip-path="url(#clip6)">
    <path id="path27852" transform="matrix(1 0 0 -1 444.57 2447.4)" d="m-0.0015875 0.001625c0-10.262-8.3164-18.578-18.574-18.578-10.262 0-18.578 8.3164-18.578 18.578 0 10.258 8.3164 18.574 18.578 18.574 10.258 0 18.574-8.3164 18.574-18.574z" style="fill:none;stroke-miterlimit:10;stroke-width:1.769;stroke:#e10511"/>
   </g>
  </g>
  <path id="path27858" d="m158.14 136.98-17.712 66.066-48.707-48.708z" style="fill:none;stroke-miterlimit:10;stroke-width:.62406;stroke:#1c1c19"/>
  <g>
   <g id="g27862" transform="matrix(.35278 0 0 .35278 -58.563 -707.89)" clip-path="url(#clip8)">
    <path id="path27860" transform="matrix(1 0 0 -1 371.02 2561.6)" d="m8.3125e-4 -5.6875e-4c0-9.6484-7.8203-17.469-17.469-17.469-9.6484 0-17.469 7.8203-17.469 17.469 0 9.6484 7.8203 17.469 17.469 17.469 9.6484 0 17.469-7.8203 17.469-17.469z" style="fill:none;stroke-miterlimit:10;stroke-width:1.769;stroke:#e10511"/>
   </g>
   <g id="g27868" transform="matrix(.35278 0 0 .35278 -58.563 -707.89)" clip-path="url(#clip10)">
    <path id="path27866" transform="matrix(1 0 0 -1 298.12 2423.5)" d="m0.0013875 9.4375e-4c0-9.6484-7.8242-17.469-17.473-17.469-9.6484 0-17.469 7.8203-17.469 17.469 0 9.6484 7.8203 17.469 17.469 17.469 9.6484 0 17.473-7.8203 17.473-17.469z" style="fill:none;stroke-miterlimit:10;stroke-width:1.769;stroke:#e10511"/>
   </g>
   <g id="g27874" transform="matrix(.35278 0 0 .35278 -58.563 -707.89)" clip-path="url(#clip12)">
    <path id="path27872" transform="matrix(1 0 0 -1 124.57 2515.8)" d="m3.0625e-4 3.8125e-4c0-9.6484-7.8203-17.469-17.469-17.469-9.6484 0-17.469 7.8203-17.469 17.469 0 9.6484 7.8203 17.469 17.469 17.469 9.6484 0 17.469-7.8203 17.469-17.469z" style="fill:none;stroke-miterlimit:10;stroke-width:1.769;stroke:#e10511"/>
   </g>
  </g>
  <path id="path27878" d="m40.354 147.08 25.808 48.708-88.307-15.409z" style="fill:none;stroke-miterlimit:10;stroke-width:.62406;stroke:#1c1c19"/>
  <path id="path27880" d="m173.46 110.55c0 0.75378-0.61047 1.3643-1.3656 1.3643-0.75241 0-1.3629-0.61048-1.3629-1.3643s0.61047-1.3643 1.3629-1.3643c0.75517 0 1.3656 0.61048 1.3656 1.3643" style="fill:#e10511"/>
  <path id="path27882" d="m150.42 51.968c0 0.75378-0.61047 1.3643-1.3643 1.3643-0.75378 0-1.3642-0.61048-1.3642-1.3643s0.61047-1.3643 1.3642-1.3643c0.75379 0 1.3643 0.61048 1.3643 1.3643" style="fill:#e10511"/>
  <path id="path27884" d="m90.116 109.19c0 0.75378-0.61047 1.3643-1.3643 1.3643-0.75379 0-1.3643-0.61048-1.3643-1.3643s0.61047-1.3643 1.3643-1.3643c0.75379 0 1.3643 0.61048 1.3643 1.3643" style="fill:#e10511"/>
  <path id="path27886" d="m62.795 113.97c0 0.75378-0.61047 1.3643-1.3643 1.3643-0.75378 0-1.3643-0.61048-1.3643-1.3643s0.61047-1.3643 1.3643-1.3643c0.75379 0 1.3643 0.61048 1.3643 1.3643" style="fill:#e10511"/>
  <path id="path27888" d="m41.807 147.08c0 0.75378-0.61185 1.3642-1.3656 1.3642-0.75241 0-1.3643-0.61044-1.3643-1.3642 0-0.75382 0.61185-1.3643 1.3643-1.3643 0.75379 0 1.3656 0.61045 1.3656 1.3643" style="fill:#e10511"/>
  <path id="path27890" d="m92.844 154.12c0 0.75378-0.61047 1.3656-1.3643 1.3656-0.75379 0-1.3643-0.61186-1.3643-1.3656s0.61047-1.3643 1.3643-1.3643c0.75379 0 1.3643 0.61048 1.3643 1.3643" style="fill:#e10511"/>
  <path id="path27892" d="m159.5 136.98c0 0.75378-0.61185 1.3643-1.3656 1.3643-0.75241 0-1.3643-0.61049-1.3643-1.3643s0.61185-1.3643 1.3643-1.3643c0.75379 0 1.3656 0.61048 1.3656 1.3643" style="fill:#e10511"/>
  <path id="path27894" d="m141.49 203.62c0 0.75378-0.61047 1.3643-1.3643 1.3643s-1.3643-0.61048-1.3643-1.3643 0.61047-1.3643 1.3643-1.3643 1.3643 0.61049 1.3643 1.3643" style="fill:#e10511"/>
  <path id="path27896" d="m67.526 195.79c0 0.75378-0.61047 1.3643-1.3643 1.3643-0.75379 0-1.3643-0.61049-1.3643-1.3643s0.61047-1.3643 1.3643-1.3643c0.75379 0 1.3643 0.61048 1.3643 1.3643" style="fill:#e10511"/>
  <path id="path27898" d="m-20.782 180.25c0 0.75378-0.61185 1.3656-1.3643 1.3656-0.75379 0-1.3656-0.61185-1.3656-1.3656 0-0.75241 0.61185-1.3643 1.3656-1.3643 0.75241 0 1.3643 0.61186 1.3643 1.3643" style="fill:#e10511"/>
  <path id="path27900" d="m39.681 51.968c0 0.75378-0.61047 1.3643-1.3643 1.3643s-1.3643-0.61048-1.3643-1.3643 0.61047-1.3643 1.3643-1.3643 1.3643 0.61048 1.3643 1.3643" style="fill:#e10511"/>
  <path id="path27902" d="m-22.752 113.97c0 0.75378-0.61185 1.3643-1.3656 1.3643-0.75241 0-1.3643-0.61048-1.3643-1.3643s0.61185-1.3643 1.3643-1.3643c0.75379 0 1.3656 0.61048 1.3656 1.3643" style="fill:#e10511"/>
  <g id="use27904" transform="matrix(.35278 0 0 .35278 134.7 90.968)" style="fill:#1c1c19">
   <path id="path33150" d="m10.797-22.031c-0.21094 0.15625-0.49219 0.32031-0.84375 0.48438-0.35547 0.15625-0.93359 0.37109-1.7344 0.64062v17.688c0.32031-0.15625 0.72266-0.29688 1.2031-0.42188 0.47656-0.13281 0.89844-0.20312 1.2656-0.20312h0.28125c0.0625 0 0.11719 0.015625 0.17188 0.046875v3.7969h-10.141v-2.8438c0.28906-0.20703 0.6875-0.41016 1.1875-0.60938 0.50781-0.20703 0.96875-0.36719 1.375-0.48438v-17.75c-0.29297 0.17969-0.64844 0.32422-1.0625 0.4375-0.40625 0.11719-0.78125 0.17188-1.125 0.17188h-0.25c-0.042969 0-0.085937-0.0078-0.125-0.03125v-3.7656h9.7969z"/>
  </g>
  <g id="use27906" transform="matrix(.35278 0 0 .35278 139.05 90.968)" style="fill:#1c1c19">
   <path id="path33154" d="m10.797-22.031c-0.21094 0.15625-0.49219 0.32031-0.84375 0.48438-0.35547 0.15625-0.93359 0.37109-1.7344 0.64062v17.688c0.32031-0.15625 0.72266-0.29688 1.2031-0.42188 0.47656-0.13281 0.89844-0.20312 1.2656-0.20312h0.28125c0.0625 0 0.11719 0.015625 0.17188 0.046875v3.7969h-10.141v-2.8438c0.28906-0.20703 0.6875-0.41016 1.1875-0.60938 0.50781-0.20703 0.96875-0.36719 1.375-0.48438v-17.75c-0.29297 0.17969-0.64844 0.32422-1.0625 0.4375-0.40625 0.11719-0.78125 0.17188-1.125 0.17188h-0.25c-0.042969 0-0.085937-0.0078-0.125-0.03125v-3.7656h9.7969z"/>
  </g>
  <g id="use27910" transform="matrix(.35278 0 0 .35278 22.709 178.88)" style="fill:#1c1c19">
   <path id="path33158" d="m10.797-22.031c-0.21094 0.15625-0.49219 0.32031-0.84375 0.48438-0.35547 0.15625-0.93359 0.37109-1.7344 0.64062v17.688c0.32031-0.15625 0.72266-0.29688 1.2031-0.42188 0.47656-0.13281 0.89844-0.20312 1.2656-0.20312h0.28125c0.0625 0 0.11719 0.015625 0.17188 0.046875v3.7969h-10.141v-2.8438c0.28906-0.20703 0.6875-0.41016 1.1875-0.60938 0.50781-0.20703 0.96875-0.36719 1.375-0.48438v-17.75c-0.29297 0.17969-0.64844 0.32422-1.0625 0.4375-0.40625 0.11719-0.78125 0.17188-1.125 0.17188h-0.25c-0.042969 0-0.085937-0.0078-0.125-0.03125v-3.7656h9.7969z"/>
  </g>
  <g id="use27912" transform="matrix(.35278 0 0 .35278 27.06 178.88)" style="fill:#1c1c19">
   <path id="path33162" d="m10.797-22.031c-0.21094 0.15625-0.49219 0.32031-0.84375 0.48438-0.35547 0.15625-0.93359 0.37109-1.7344 0.64062v17.688c0.32031-0.15625 0.72266-0.29688 1.2031-0.42188 0.47656-0.13281 0.89844-0.20312 1.2656-0.20312h0.28125c0.0625 0 0.11719 0.015625 0.17188 0.046875v3.7969h-10.141v-2.8438c0.28906-0.20703 0.6875-0.41016 1.1875-0.60938 0.50781-0.20703 0.96875-0.36719 1.375-0.48438v-17.75c-0.29297 0.17969-0.64844 0.32422-1.0625 0.4375-0.40625 0.11719-0.78125 0.17188-1.125 0.17188h-0.25c-0.042969 0-0.085937-0.0078-0.125-0.03125v-3.7656h9.7969z"/>
  </g>
  <g id="use27914" transform="matrix(.35278 0 0 .35278 31.411 178.88)" style="fill:#1c1c19">
   <path id="path33166" d="m10.797-22.031c-0.21094 0.15625-0.49219 0.32031-0.84375 0.48438-0.35547 0.15625-0.93359 0.37109-1.7344 0.64062v17.688c0.32031-0.15625 0.72266-0.29688 1.2031-0.42188 0.47656-0.13281 0.89844-0.20312 1.2656-0.20312h0.28125c0.0625 0 0.11719 0.015625 0.17188 0.046875v3.7969h-10.141v-2.8438c0.28906-0.20703 0.6875-0.41016 1.1875-0.60938 0.50781-0.20703 0.96875-0.36719 1.375-0.48438v-17.75c-0.29297 0.17969-0.64844 0.32422-1.0625 0.4375-0.40625 0.11719-0.78125 0.17188-1.125 0.17188h-0.25c-0.042969 0-0.085937-0.0078-0.125-0.03125v-3.7656h9.7969z"/>
  </g>
  <g id="use27918" transform="matrix(.35278 0 0 .35278 123.4 170.02)" style="fill:#1c1c19">
   <path id="path33170" d="m10.797-22.031c-0.21094 0.15625-0.49219 0.32031-0.84375 0.48438-0.35547 0.15625-0.93359 0.37109-1.7344 0.64062v17.688c0.32031-0.15625 0.72266-0.29688 1.2031-0.42188 0.47656-0.13281 0.89844-0.20312 1.2656-0.20312h0.28125c0.0625 0 0.11719 0.015625 0.17188 0.046875v3.7969h-10.141v-2.8438c0.28906-0.20703 0.6875-0.41016 1.1875-0.60938 0.50781-0.20703 0.96875-0.36719 1.375-0.48438v-17.75c-0.29297 0.17969-0.64844 0.32422-1.0625 0.4375-0.40625 0.11719-0.78125 0.17188-1.125 0.17188h-0.25c-0.042969 0-0.085937-0.0078-0.125-0.03125v-3.7656h9.7969z"/>
  </g>
  <g id="use27920" transform="matrix(.35278 0 0 .35278 127.75 170.02)" style="fill:#1c1c19">
   <path id="path33174" d="m0.3125-21.109v-3.7656h10.062v2.8438c-0.27344 0.17969-0.64844 0.35547-1.125 0.53125-0.48047 0.16797-0.91406 0.29688-1.2969 0.39062l5.2344 16.25 5.4844-16.484c-0.63672 0.09375-1.1328 0.16406-1.4844 0.20312-0.35547 0.04297-0.57031 0.0625-0.64062 0.0625h-0.375c-0.09375 0-0.17188-0.0078-0.23438-0.03125v-3.7656h9.5938v2.8438c-0.13672 0.09375-0.30469 0.19531-0.5 0.29688-0.19922 0.09375-0.42188 0.19922-0.67188 0.3125-0.3125 0.11719-0.57422 0.21484-0.78125 0.29688-0.21094 0.08594-0.37109 0.13672-0.48438 0.15625l-7.9219 20.969h-4.8281l-7.7812-21.453c-0.3125 0.13672-0.62109 0.24219-0.92188 0.3125-0.29297 0.07422-0.5625 0.10938-0.8125 0.10938-0.074219 0-0.14062-0.0039-0.20312-0.01563-0.054687-0.01953-0.15625-0.03906-0.3125-0.0625z"/>
  </g>
  <g id="use27924" transform="matrix(.35278 0 0 .35278 25.465 92.745)" style="fill:#1c1c19">
   <path id="path33178" d="m10.797-22.031c-0.21094 0.15625-0.49219 0.32031-0.84375 0.48438-0.35547 0.15625-0.93359 0.37109-1.7344 0.64062v17.688c0.32031-0.15625 0.72266-0.29688 1.2031-0.42188 0.47656-0.13281 0.89844-0.20312 1.2656-0.20312h0.28125c0.0625 0 0.11719 0.015625 0.17188 0.046875v3.7969h-10.141v-2.8438c0.28906-0.20703 0.6875-0.41016 1.1875-0.60938 0.50781-0.20703 0.96875-0.36719 1.375-0.48438v-17.75c-0.29297 0.17969-0.64844 0.32422-1.0625 0.4375-0.40625 0.11719-0.78125 0.17188-1.125 0.17188h-0.25c-0.042969 0-0.085937-0.0078-0.125-0.03125v-3.7656h9.7969z"/>
  </g>
 </g>
</svg>
