<svg id="svg69447" version="1.1" viewBox="0 0 101.61 96.595" xmlns="http://www.w3.org/2000/svg">
 <title id="title70705">img_49</title>
 <g id="layer1" transform="translate(-26.303 -96.845)">
  <g id="g54474" transform="matrix(.35278 0 0 .35278 2.3321 -854.26)">
   <g id="use54470" transform="translate(66.839 2710.6)">
    <path id="path68573" d="m5.2812-9.8594-2.7344-0.40625c0.21875-1.3203 0.72656-2.3359 1.5312-3.0469 0.8125-0.70703 1.8281-1.0625 3.0469-1.0625 1.332 0 2.3789 0.36719 3.1406 1.0938 0.76953 0.71875 1.1562 1.6367 1.1562 2.75 0 0.5625-0.12109 1.1328-0.35938 1.7031-0.23047 0.5625-0.61719 1.1562-1.1562 1.7812-0.375 0.44922-1 1.0781-1.875 1.8906-0.875 0.80469-1.4531 1.3555-1.7344 1.6562-0.28125 0.29297-0.55469 0.60547-0.8125 0.9375h4.9531l-0.53125 2.5625h-8.6875c0.082031-0.70703 0.28516-1.375 0.60938-2 0.32031-0.63281 0.72266-1.2227 1.2031-1.7656 0.48828-0.55078 1.375-1.4375 2.6562-2.6562 0.95703-0.92578 1.5664-1.5312 1.8281-1.8125 0.44531-0.50781 0.75391-0.94531 0.92188-1.3125 0.17578-0.375 0.26562-0.71094 0.26562-1.0156 0-0.47656-0.14062-0.86328-0.42188-1.1562-0.28125-0.30078-0.64062-0.45312-1.0781-0.45312-0.44922 0-0.83984 0.16797-1.1719 0.5-0.33594 0.33594-0.58594 0.9375-0.75 1.8125z"/>
   </g>
   <g id="use54472" transform="translate(78.059 2710.6)">
    <path id="path68577" d="m2.3594-14.562h1.9062c0.53125 1.2422 0.92188 2.5 1.1719 3.7812 0.25781 1.2734 0.39062 2.4336 0.39062 3.4844 0 1.3359-0.21484 2.668-0.64062 4-0.42969 1.3359-1.0781 2.6992-1.9531 4.0938-0.5625 0.88281-1.4531 2.0195-2.6719 3.4062h-2.125c1.2422-1.4609 2.1914-2.8281 2.8594-4.1094 0.67578-1.2695 1.1797-2.6602 1.5156-4.1719 0.33203-1.5078 0.5-2.9922 0.5-4.4531 0-0.97656-0.074219-1.9258-0.21875-2.8438-0.14844-0.92578-0.39062-1.9883-0.73438-3.1875z"/>
   </g>
  </g>
  <g id="g54490" transform="matrix(.35278 0 0 .35278 2.3321 -854.26)">
   <g id="use54476" transform="translate(66.839 2747.6)"></g>
   <g id="use54478" transform="translate(72.499 2747.6)"></g>
   <g id="use54480" transform="translate(78.159 2747.6)"></g>
   <g id="use54482" transform="translate(83.819 2747.6)">
    <path id="path68593" d="m0.64062-4.2969v-1.7656h5.3906v1.7656z"/>
   </g>
   <g id="use54484" transform="translate(90.579 2747.6)">
    <path id="path68597" d="m7.4531 0h-1.7656v-11.203c-0.41797 0.40625-0.96875 0.8125-1.6562 1.2188-0.6875 0.39844-1.3086 0.69922-1.8594 0.90625v-1.7031c0.98828-0.45703 1.8477-1.0156 2.5781-1.6719 0.73828-0.66406 1.2578-1.3047 1.5625-1.9219h1.1406z"/>
   </g>
   <g id="use54486" transform="translate(101.8 2747.6)"></g>
   <g id="use54488" transform="translate(107.46 2747.6)">
    <path id="path68605" d="m2.3281-6.2188v-2h2v2z"/>
   </g>
  </g>
  <g id="g54500" transform="matrix(.35278 0 0 .35278 2.3321 -854.26)">
   <g id="use54496" transform="translate(119.87 2747.6)">
    <path id="path68609" d="m1.7656 5.1719v-23.781h5.0469v1.8906h-2.7656v20h2.7656v1.8906z"/>
   </g>
   <g id="use54498" transform="translate(127.22 2747.6)">
    <path id="path68613" d="m6.0781 5.4688c-1.2617-1.5938-2.3281-3.4531-3.2031-5.5781-0.86719-2.1328-1.2969-4.3438-1.2969-6.625 0-2.0195 0.32031-3.9531 0.96875-5.7969 0.75781-2.1445 1.9375-4.2734 3.5312-6.3906h1.6406c-1.0234 1.7617-1.6992 3.0156-2.0312 3.7656-0.52344 1.168-0.92969 2.3867-1.2188 3.6562-0.36719 1.5859-0.54688 3.1719-0.54688 4.7656 0 4.0742 1.2656 8.1406 3.7969 12.203z"/>
   </g>
  </g>
  <g id="g54514" transform="matrix(.35278 0 0 .35278 2.3321 -854.26)">
   <g id="use54502" transform="translate(136.01 2747.6)">
    <path id="path68617" d="m0.84375-3.7812 1.75-0.23438c0.20703 1 0.55078 1.7188 1.0312 2.1562 0.48828 0.4375 1.082 0.65625 1.7812 0.65625 0.82031 0 1.5156-0.28516 2.0781-0.85938 0.57031-0.57031 0.85938-1.2812 0.85938-2.125 0-0.8125-0.26562-1.4766-0.79688-2-0.52344-0.51953-1.1875-0.78125-2-0.78125-0.33594 0-0.74609 0.0625-1.2344 0.1875l0.1875-1.5469c0.11328 0.023437 0.20703 0.03125 0.28125 0.03125 0.75 0 1.4219-0.19141 2.0156-0.57812 0.60156-0.39453 0.90625-1 0.90625-1.8125 0-0.64453-0.21875-1.1797-0.65625-1.6094-0.4375-0.42578-1-0.64062-1.6875-0.64062-0.67969 0-1.2461 0.21875-1.7031 0.65625-0.46094 0.42969-0.75 1.0703-0.875 1.9219l-1.7656-0.3125c0.21875-1.1758 0.70703-2.0859 1.4688-2.7344 0.75781-0.64453 1.707-0.96875 2.8438-0.96875 0.78125 0 1.5 0.16797 2.1562 0.5 0.65625 0.33594 1.1562 0.79297 1.5 1.375 0.35156 0.58594 0.53125 1.1992 0.53125 1.8438 0 0.61719-0.16797 1.1797-0.5 1.6875-0.33594 0.51172-0.82422 0.91797-1.4688 1.2188 0.84375 0.1875 1.5 0.59375 1.9688 1.2188 0.46875 0.61719 0.70312 1.3828 0.70312 2.2969 0 1.25-0.46094 2.3125-1.375 3.1875-0.90625 0.86719-2.0586 1.2969-3.4531 1.2969-1.2617 0-2.3086-0.375-3.1406-1.125-0.82422-0.75-1.293-1.7188-1.4062-2.9062z"/>
   </g>
   <g id="use54504" transform="translate(147.23 2747.6)"></g>
   <g id="use54506" transform="translate(152.89 2747.6)">
    <path id="path68625" d="m0.64062-4.2969v-1.7656h5.3906v1.7656z"/>
   </g>
   <g id="use54508" transform="translate(159.65 2747.6)"></g>
   <g id="use54510" transform="translate(165.31 2747.6)">
    <path id="path68633" d="m6.4688 0v-3.4219h-6.2188v-1.625l6.5312-9.2656h1.4375v9.2656h1.9375v1.625h-1.9375v3.4219zm0-5.0469v-6.4531l-4.4844 6.4531z"/>
   </g>
   <g id="use54512" transform="translate(176.53 2747.6)"></g>
  </g>
  <g id="g54524" transform="matrix(.35278 0 0 .35278 2.3321 -854.26)">
   <g id="use54516" transform="translate(182.19 2747.6)">
    <path id="path68641" d="m2.3281-6.2188v-2h2v2z"/>
   </g>
   <g id="use54518" transform="translate(188.95 2747.6)"></g>
   <g id="use54520" transform="translate(194.61 2747.6)">
    <path id="path68649" d="m0.95312-12.438v-1.6875h9.2656v1.3594c-0.91797 0.96875-1.8242 2.2617-2.7188 3.875-0.89844 1.6055-1.5859 3.2578-2.0625 4.9531-0.35547 1.1992-0.58594 2.5117-0.6875 3.9375h-1.7969c0.019531-1.125 0.23828-2.4844 0.65625-4.0781 0.42578-1.5938 1.0352-3.1289 1.8281-4.6094 0.78906-1.4883 1.6289-2.7383 2.5156-3.75z"/>
   </g>
   <g id="use54522" transform="translate(205.83 2747.6)">
    <path id="path68653" d="m2.4688 4.2031h-1.25c1.9375-3.125 2.9062-6.25 2.9062-9.375 0-1.2266-0.13672-2.4414-0.40625-3.6406-0.23047-0.97656-0.54297-1.9141-0.9375-2.8125-0.25-0.59375-0.77344-1.5703-1.5625-2.9375h1.25c1.2266 1.6367 2.1328 3.2773 2.7188 4.9219 0.5 1.418 0.75 2.9023 0.75 4.4531 0 1.7617-0.33984 3.4648-1.0156 5.1094-0.66797 1.6328-1.4844 3.0625-2.4531 4.2812z"/>
   </g>
  </g>
  <g id="g54534" transform="matrix(.35278 0 0 .35278 2.3321 -854.26)">
   <g id="use54526" transform="translate(212.59 2747.6)"></g>
   <g id="use54528" transform="translate(218.25 2747.6)">
    <path id="path68661" d="m4.4844-9v-2h2v2zm5.7344 2.7656h-9.4531v-1.6406h9.4531zm-5.7344 3.125v-2.0156h2v2.0156z"/>
   </g>
   <g id="use54530" transform="translate(229.33 2747.6)"></g>
   <g id="use54532" transform="translate(234.99 2747.6)">
    <path id="path68669" d="m0.82812-3.75 1.8438-0.15625c0.13281 0.89844 0.45312 1.5742 0.95312 2.0312 0.5 0.44922 1.1016 0.67188 1.8125 0.67188 0.84375 0 1.5547-0.31641 2.1406-0.95312 0.58203-0.63281 0.875-1.4844 0.875-2.5469 0-1-0.28125-1.7852-0.84375-2.3594-0.5625-0.58203-1.2969-0.875-2.2031-0.875-0.57422 0-1.0898 0.13281-1.5469 0.39062-0.44922 0.25-0.80469 0.58594-1.0625 1l-1.6562-0.21875 1.3906-7.3594h7.125v1.6875h-5.7188l-0.76562 3.8438c0.85156-0.60156 1.7539-0.90625 2.7031-0.90625 1.25 0 2.3008 0.4375 3.1562 1.3125 0.86328 0.86719 1.2969 1.9766 1.2969 3.3281 0 1.3047-0.38281 2.4219-1.1406 3.3594-0.91797 1.168-2.168 1.75-3.75 1.75-1.3047 0-2.3711-0.36328-3.2031-1.0938-0.82422-0.72656-1.293-1.6953-1.4062-2.9062z"/>
   </g>
  </g>
  <g id="g54538" transform="matrix(.35278 0 0 .35278 2.3321 -854.26)">
   <g id="use54536" transform="translate(246.2 2747.6)">
    <path id="path68673" d="m5.5312 5.1719h-5.0312v-1.8906h2.75v-20h-2.75v-1.8906h5.0312z"/>
   </g>
  </g>
  <g id="g54548" transform="matrix(.35278 0 0 .35278 2.3321 -854.26)">
   <g id="use54544" transform="translate(259.21 2747.6)">
    <path id="path68677" d="m0.64062-4.2969v-1.7656h5.3906v1.7656z"/>
   </g>
   <g id="use54546" transform="translate(265.97 2747.6)"></g>
  </g>
  <g id="g54554" transform="matrix(.35278 0 0 .35278 2.3321 -854.26)">
   <g id="use54550" transform="translate(271.63 2747.6)">
    <path id="path68685" d="m10.062-1.6875v1.6875h-9.4531c-0.011719-0.42578 0.054688-0.83203 0.20312-1.2188 0.23828-0.64453 0.625-1.2812 1.1562-1.9062s1.2969-1.3477 2.2969-2.1719c1.5625-1.2695 2.6133-2.2734 3.1562-3.0156 0.55078-0.75 0.82812-1.457 0.82812-2.125 0-0.69531-0.25-1.2852-0.75-1.7656-0.5-0.47656-1.1523-0.71875-1.9531-0.71875-0.84375 0-1.5234 0.25781-2.0312 0.76562-0.51172 0.51172-0.76562 1.2148-0.76562 2.1094l-1.8125-0.1875c0.125-1.3438 0.58594-2.3672 1.3906-3.0781 0.8125-0.70703 1.8984-1.0625 3.2656-1.0625 1.3633 0 2.4453 0.38281 3.25 1.1406 0.80078 0.76172 1.2031 1.7031 1.2031 2.8281 0 0.57422-0.12109 1.1406-0.35938 1.7031-0.23047 0.55469-0.61719 1.1367-1.1562 1.75-0.54297 0.60547-1.4453 1.4453-2.7031 2.5156-1.0625 0.88672-1.7461 1.4844-2.0469 1.7969-0.29297 0.3125-0.53906 0.63281-0.73438 0.95312z"/>
   </g>
   <g id="use54552" transform="translate(282.85 2747.6)"></g>
  </g>
  <g id="g54566" transform="matrix(.35278 0 0 .35278 2.3321 -854.26)">
   <g id="use54556" transform="translate(288.51 2747.6)">
    <path id="path68693" d="m2.3281-6.2188v-2h2v2z"/>
   </g>
   <g id="use54558" transform="translate(295.27 2747.6)"></g>
   <g id="use54560" transform="translate(300.93 2747.6)">
    <path id="path68701" d="m10.062-1.6875v1.6875h-9.4531c-0.011719-0.42578 0.054688-0.83203 0.20312-1.2188 0.23828-0.64453 0.625-1.2812 1.1562-1.9062s1.2969-1.3477 2.2969-2.1719c1.5625-1.2695 2.6133-2.2734 3.1562-3.0156 0.55078-0.75 0.82812-1.457 0.82812-2.125 0-0.69531-0.25-1.2852-0.75-1.7656-0.5-0.47656-1.1523-0.71875-1.9531-0.71875-0.84375 0-1.5234 0.25781-2.0312 0.76562-0.51172 0.51172-0.76562 1.2148-0.76562 2.1094l-1.8125-0.1875c0.125-1.3438 0.58594-2.3672 1.3906-3.0781 0.8125-0.70703 1.8984-1.0625 3.2656-1.0625 1.3633 0 2.4453 0.38281 3.25 1.1406 0.80078 0.76172 1.2031 1.7031 1.2031 2.8281 0 0.57422-0.12109 1.1406-0.35938 1.7031-0.23047 0.55469-0.61719 1.1367-1.1562 1.75-0.54297 0.60547-1.4453 1.4453-2.7031 2.5156-1.0625 0.88672-1.7461 1.4844-2.0469 1.7969-0.29297 0.3125-0.53906 0.63281-0.73438 0.95312z"/>
   </g>
   <g id="use54562" transform="translate(312.15 2747.6)">
    <path id="path68705" d="m6.4688 0v-3.4219h-6.2188v-1.625l6.5312-9.2656h1.4375v9.2656h1.9375v1.625h-1.9375v3.4219zm0-5.0469v-6.4531l-4.4844 6.4531z"/>
   </g>
   <g id="use54564" transform="translate(323.37 2747.6)"></g>
  </g>
  <g id="g54574" transform="matrix(.35278 0 0 .35278 2.3321 -854.26)">
   <g id="use54568" transform="translate(329.03 2747.6)">
    <path id="path68713" d="m4.4844-9v-2h2v2zm5.7344 2.7656h-9.4531v-1.6406h9.4531zm-5.7344 3.125v-2.0156h2v2.0156z"/>
   </g>
   <g id="use54570" transform="translate(340.11 2747.6)"></g>
   <g id="use54572" transform="translate(345.77 2747.6)">
    <path id="path68721" d="m9.9531-10.812-1.75 0.14062c-0.15625-0.6875-0.375-1.1875-0.65625-1.5-0.48047-0.50781-1.0703-0.76562-1.7656-0.76562-0.5625 0-1.0547 0.15625-1.4688 0.46875-0.55469 0.40625-0.99219 1-1.3125 1.7812-0.32422 0.77344-0.49219 1.8711-0.5 3.2969 0.42578-0.63281 0.94141-1.1094 1.5469-1.4219 0.61328-0.3125 1.2578-0.46875 1.9375-0.46875 1.1641 0 2.1602 0.43359 2.9844 1.2969 0.82031 0.85547 1.2344 1.9648 1.2344 3.3281 0 0.90625-0.19531 1.7461-0.57812 2.5156-0.38672 0.77344-0.91797 1.3672-1.5938 1.7812-0.67969 0.40625-1.4492 0.60938-2.3125 0.60938-1.4609 0-2.6523-0.53516-3.5781-1.6094-0.92969-1.082-1.3906-2.8633-1.3906-5.3438 0-2.7578 0.50781-4.7695 1.5312-6.0312 0.89453-1.0938 2.0977-1.6406 3.6094-1.6406 1.125 0 2.0469 0.32031 2.7656 0.95312 0.71875 0.625 1.1484 1.4961 1.2969 2.6094zm-7.1719 6.1719c0 0.60547 0.125 1.1836 0.375 1.7344 0.25781 0.55469 0.61719 0.97656 1.0781 1.2656 0.46875 0.29297 0.95312 0.4375 1.4531 0.4375 0.75 0 1.3906-0.29688 1.9219-0.89062 0.53125-0.60156 0.79688-1.4219 0.79688-2.4531 0-0.98828-0.26562-1.7656-0.79688-2.3281-0.52344-0.57031-1.1836-0.85938-1.9844-0.85938-0.79297 0-1.4648 0.28906-2.0156 0.85938-0.55469 0.5625-0.82812 1.3086-0.82812 2.2344z"/>
   </g>
  </g>
  <g id="g54586" transform="matrix(.35278 0 0 .35278 2.3321 -854.26)">
   <g id="use54576" transform="translate(66.85 2784.6)">
    <path id="path68725" d="m10.562-8.4219h-9.4531v-1.6406h9.4531zm0 4.3438h-9.4531v-1.6406h9.4531z"/>
   </g>
   <g id="use54578" transform="translate(78.63 2784.6)"></g>
   <g id="use54580" transform="translate(84.29 2784.6)">
    <path id="path68733" d="m0.64062-4.2969v-1.7656h5.3906v1.7656z"/>
   </g>
   <g id="use54582" transform="translate(91.05 2784.6)">
    <path id="path68737" d="m7.4531 0h-1.7656v-11.203c-0.41797 0.40625-0.96875 0.8125-1.6562 1.2188-0.6875 0.39844-1.3086 0.69922-1.8594 0.90625v-1.7031c0.98828-0.45703 1.8477-1.0156 2.5781-1.6719 0.73828-0.66406 1.2578-1.3047 1.5625-1.9219h1.1406z"/>
   </g>
   <g id="use54584" transform="translate(102.27 2784.6)"></g>
  </g>
  <g id="g54590" transform="matrix(.35278 0 0 .35278 2.3321 -854.26)">
   <g id="use54588" transform="translate(107.93 2784.6)">
    <path id="path68745" d="m2.3281-6.2188v-2h2v2z"/>
   </g>
  </g>
  <g id="g54600" transform="matrix(.35278 0 0 .35278 2.3321 -854.26)">
   <g id="use54596" transform="translate(120.33 2784.6)">
    <path id="path68749" d="m1.7656 5.1719v-23.781h5.0469v1.8906h-2.7656v20h2.7656v1.8906z"/>
   </g>
   <g id="use54598" transform="translate(127.69 2784.6)">
    <path id="path68753" d="m6.0781 5.4688c-1.2617-1.5938-2.3281-3.4531-3.2031-5.5781-0.86719-2.1328-1.2969-4.3438-1.2969-6.625 0-2.0195 0.32031-3.9531 0.96875-5.7969 0.75781-2.1445 1.9375-4.2734 3.5312-6.3906h1.6406c-1.0234 1.7617-1.6992 3.0156-2.0312 3.7656-0.52344 1.168-0.92969 2.3867-1.2188 3.6562-0.36719 1.5859-0.54688 3.1719-0.54688 4.7656 0 4.0742 1.2656 8.1406 3.7969 12.203z"/>
   </g>
  </g>
  <g id="g54614" transform="matrix(.35278 0 0 .35278 2.3321 -854.26)">
   <g id="use54602" transform="translate(136.47 2784.6)">
    <path id="path68757" d="m0.84375-3.7812 1.75-0.23438c0.20703 1 0.55078 1.7188 1.0312 2.1562 0.48828 0.4375 1.082 0.65625 1.7812 0.65625 0.82031 0 1.5156-0.28516 2.0781-0.85938 0.57031-0.57031 0.85938-1.2812 0.85938-2.125 0-0.8125-0.26562-1.4766-0.79688-2-0.52344-0.51953-1.1875-0.78125-2-0.78125-0.33594 0-0.74609 0.0625-1.2344 0.1875l0.1875-1.5469c0.11328 0.023437 0.20703 0.03125 0.28125 0.03125 0.75 0 1.4219-0.19141 2.0156-0.57812 0.60156-0.39453 0.90625-1 0.90625-1.8125 0-0.64453-0.21875-1.1797-0.65625-1.6094-0.4375-0.42578-1-0.64062-1.6875-0.64062-0.67969 0-1.2461 0.21875-1.7031 0.65625-0.46094 0.42969-0.75 1.0703-0.875 1.9219l-1.7656-0.3125c0.21875-1.1758 0.70703-2.0859 1.4688-2.7344 0.75781-0.64453 1.707-0.96875 2.8438-0.96875 0.78125 0 1.5 0.16797 2.1562 0.5 0.65625 0.33594 1.1562 0.79297 1.5 1.375 0.35156 0.58594 0.53125 1.1992 0.53125 1.8438 0 0.61719-0.16797 1.1797-0.5 1.6875-0.33594 0.51172-0.82422 0.91797-1.4688 1.2188 0.84375 0.1875 1.5 0.59375 1.9688 1.2188 0.46875 0.61719 0.70312 1.3828 0.70312 2.2969 0 1.25-0.46094 2.3125-1.375 3.1875-0.90625 0.86719-2.0586 1.2969-3.4531 1.2969-1.2617 0-2.3086-0.375-3.1406-1.125-0.82422-0.75-1.293-1.7188-1.4062-2.9062z"/>
   </g>
   <g id="use54604" transform="translate(147.69 2784.6)"></g>
   <g id="use54606" transform="translate(153.35 2784.6)">
    <path id="path68765" d="m0.64062-4.2969v-1.7656h5.3906v1.7656z"/>
   </g>
   <g id="use54608" transform="translate(160.11 2784.6)"></g>
   <g id="use54610" transform="translate(165.77 2784.6)">
    <path id="path68773" d="m10.062-1.6875v1.6875h-9.4531c-0.011719-0.42578 0.054688-0.83203 0.20312-1.2188 0.23828-0.64453 0.625-1.2812 1.1562-1.9062s1.2969-1.3477 2.2969-2.1719c1.5625-1.2695 2.6133-2.2734 3.1562-3.0156 0.55078-0.75 0.82812-1.457 0.82812-2.125 0-0.69531-0.25-1.2852-0.75-1.7656-0.5-0.47656-1.1523-0.71875-1.9531-0.71875-0.84375 0-1.5234 0.25781-2.0312 0.76562-0.51172 0.51172-0.76562 1.2148-0.76562 2.1094l-1.8125-0.1875c0.125-1.3438 0.58594-2.3672 1.3906-3.0781 0.8125-0.70703 1.8984-1.0625 3.2656-1.0625 1.3633 0 2.4453 0.38281 3.25 1.1406 0.80078 0.76172 1.2031 1.7031 1.2031 2.8281 0 0.57422-0.12109 1.1406-0.35938 1.7031-0.23047 0.55469-0.61719 1.1367-1.1562 1.75-0.54297 0.60547-1.4453 1.4453-2.7031 2.5156-1.0625 0.88672-1.7461 1.4844-2.0469 1.7969-0.29297 0.3125-0.53906 0.63281-0.73438 0.95312z"/>
   </g>
   <g id="use54612" transform="translate(176.99 2784.6)">
    <path id="path68777" d="m3.5312-7.7656c-0.73047-0.26953-1.2734-0.64844-1.625-1.1406-0.34375-0.5-0.51562-1.0938-0.51562-1.7812 0-1.0391 0.375-1.9141 1.125-2.625 0.75-0.70703 1.7422-1.0625 2.9844-1.0625 1.25 0 2.2539 0.36719 3.0156 1.0938 0.75781 0.71875 1.1406 1.6016 1.1406 2.6406 0 0.66797-0.17969 1.2461-0.53125 1.7344-0.34375 0.49219-0.87109 0.87109-1.5781 1.1406 0.88281 0.29297 1.5547 0.75781 2.0156 1.3906 0.45703 0.63672 0.6875 1.3984 0.6875 2.2812 0 1.2305-0.4375 2.2617-1.3125 3.0938-0.86719 0.83594-2 1.25-3.4062 1.25-1.418 0-2.5586-0.41406-3.4219-1.25-0.86719-0.84375-1.2969-1.8906-1.2969-3.1406 0-0.92578 0.23438-1.7031 0.70312-2.3281 0.47656-0.63281 1.1484-1.0664 2.0156-1.2969zm-0.34375-2.9844c0 0.67969 0.21875 1.2344 0.65625 1.6719 0.4375 0.42969 1 0.64062 1.6875 0.64062 0.67578 0 1.2344-0.21094 1.6719-0.64062 0.4375-0.42578 0.65625-0.94531 0.65625-1.5625 0-0.64453-0.22656-1.1875-0.67188-1.625-0.44922-0.44531-1.0078-0.67188-1.6719-0.67188-0.66797 0-1.2266 0.21875-1.6719 0.65625-0.4375 0.42969-0.65625 0.9375-0.65625 1.5312zm-0.5625 6.625c0 0.5 0.11328 0.98438 0.34375 1.4531 0.23828 0.46875 0.59375 0.83594 1.0625 1.0938 0.46875 0.25 0.97266 0.375 1.5156 0.375 0.84375 0 1.5352-0.26953 2.0781-0.8125 0.55078-0.53906 0.82812-1.2266 0.82812-2.0625 0-0.84375-0.28125-1.5391-0.84375-2.0938-0.5625-0.55078-1.2734-0.82812-2.125-0.82812-0.82422 0-1.5078 0.27734-2.0469 0.82812-0.54297 0.54297-0.8125 1.2266-0.8125 2.0469z"/>
   </g>
  </g>
  <g id="g54618" transform="matrix(.35278 0 0 .35278 2.3321 -854.26)">
   <g id="use54616" transform="translate(188.21 2784.6)">
    <path id="path68781" d="m2.4688 4.2031h-1.25c1.9375-3.125 2.9062-6.25 2.9062-9.375 0-1.2266-0.13672-2.4414-0.40625-3.6406-0.23047-0.97656-0.54297-1.9141-0.9375-2.8125-0.25-0.59375-0.77344-1.5703-1.5625-2.9375h1.25c1.2266 1.6367 2.1328 3.2773 2.7188 4.9219 0.5 1.418 0.75 2.9023 0.75 4.4531 0 1.7617-0.33984 3.4648-1.0156 5.1094-0.66797 1.6328-1.4844 3.0625-2.4531 4.2812z"/>
   </g>
  </g>
  <g id="g54628" transform="matrix(.35278 0 0 .35278 2.3321 -854.26)">
   <g id="use54620" transform="translate(194.97 2784.6)"></g>
   <g id="use54622" transform="translate(200.63 2784.6)">
    <path id="path68789" d="m4.4844-9v-2h2v2zm5.7344 2.7656h-9.4531v-1.6406h9.4531zm-5.7344 3.125v-2.0156h2v2.0156z"/>
   </g>
   <g id="use54624" transform="translate(211.71 2784.6)"></g>
   <g id="use54626" transform="translate(217.37 2784.6)">
    <path id="path68797" d="m0.82812-3.75 1.8438-0.15625c0.13281 0.89844 0.45312 1.5742 0.95312 2.0312 0.5 0.44922 1.1016 0.67188 1.8125 0.67188 0.84375 0 1.5547-0.31641 2.1406-0.95312 0.58203-0.63281 0.875-1.4844 0.875-2.5469 0-1-0.28125-1.7852-0.84375-2.3594-0.5625-0.58203-1.2969-0.875-2.2031-0.875-0.57422 0-1.0898 0.13281-1.5469 0.39062-0.44922 0.25-0.80469 0.58594-1.0625 1l-1.6562-0.21875 1.3906-7.3594h7.125v1.6875h-5.7188l-0.76562 3.8438c0.85156-0.60156 1.7539-0.90625 2.7031-0.90625 1.25 0 2.3008 0.4375 3.1562 1.3125 0.86328 0.86719 1.2969 1.9766 1.2969 3.3281 0 1.3047-0.38281 2.4219-1.1406 3.3594-0.91797 1.168-2.168 1.75-3.75 1.75-1.3047 0-2.3711-0.36328-3.2031-1.0938-0.82422-0.72656-1.293-1.6953-1.4062-2.9062z"/>
   </g>
  </g>
  <g id="g54632" transform="matrix(.35278 0 0 .35278 2.3321 -854.26)">
   <g id="use54630" transform="translate(228.59 2784.6)">
    <path id="path68801" d="m5.5312 5.1719h-5.0312v-1.8906h2.75v-20h-2.75v-1.8906h5.0312z"/>
   </g>
  </g>
  <g id="g54642" transform="matrix(.35278 0 0 .35278 2.3321 -854.26)">
   <g id="use54638" transform="translate(241.6 2784.6)">
    <path id="path68805" d="m0.64062-4.2969v-1.7656h5.3906v1.7656z"/>
   </g>
   <g id="use54640" transform="translate(248.36 2784.6)"></g>
  </g>
  <g id="g54648" transform="matrix(.35278 0 0 .35278 2.3321 -854.26)">
   <g id="use54644" transform="translate(254.02 2784.6)">
    <path id="path68813" d="m10.062-1.6875v1.6875h-9.4531c-0.011719-0.42578 0.054688-0.83203 0.20312-1.2188 0.23828-0.64453 0.625-1.2812 1.1562-1.9062s1.2969-1.3477 2.2969-2.1719c1.5625-1.2695 2.6133-2.2734 3.1562-3.0156 0.55078-0.75 0.82812-1.457 0.82812-2.125 0-0.69531-0.25-1.2852-0.75-1.7656-0.5-0.47656-1.1523-0.71875-1.9531-0.71875-0.84375 0-1.5234 0.25781-2.0312 0.76562-0.51172 0.51172-0.76562 1.2148-0.76562 2.1094l-1.8125-0.1875c0.125-1.3438 0.58594-2.3672 1.3906-3.0781 0.8125-0.70703 1.8984-1.0625 3.2656-1.0625 1.3633 0 2.4453 0.38281 3.25 1.1406 0.80078 0.76172 1.2031 1.7031 1.2031 2.8281 0 0.57422-0.12109 1.1406-0.35938 1.7031-0.23047 0.55469-0.61719 1.1367-1.1562 1.75-0.54297 0.60547-1.4453 1.4453-2.7031 2.5156-1.0625 0.88672-1.7461 1.4844-2.0469 1.7969-0.29297 0.3125-0.53906 0.63281-0.73438 0.95312z"/>
   </g>
   <g id="use54646" transform="translate(265.24 2784.6)"></g>
  </g>
  <g id="g54660" transform="matrix(.35278 0 0 .35278 2.3321 -854.26)">
   <g id="use54650" transform="translate(270.9 2784.6)">
    <path id="path68821" d="m2.3281-6.2188v-2h2v2z"/>
   </g>
   <g id="use54652" transform="translate(277.66 2784.6)"></g>
   <g id="use54654" transform="translate(283.32 2784.6)">
    <path id="path68829" d="m10.062-1.6875v1.6875h-9.4531c-0.011719-0.42578 0.054688-0.83203 0.20312-1.2188 0.23828-0.64453 0.625-1.2812 1.1562-1.9062s1.2969-1.3477 2.2969-2.1719c1.5625-1.2695 2.6133-2.2734 3.1562-3.0156 0.55078-0.75 0.82812-1.457 0.82812-2.125 0-0.69531-0.25-1.2852-0.75-1.7656-0.5-0.47656-1.1523-0.71875-1.9531-0.71875-0.84375 0-1.5234 0.25781-2.0312 0.76562-0.51172 0.51172-0.76562 1.2148-0.76562 2.1094l-1.8125-0.1875c0.125-1.3438 0.58594-2.3672 1.3906-3.0781 0.8125-0.70703 1.8984-1.0625 3.2656-1.0625 1.3633 0 2.4453 0.38281 3.25 1.1406 0.80078 0.76172 1.2031 1.7031 1.2031 2.8281 0 0.57422-0.12109 1.1406-0.35938 1.7031-0.23047 0.55469-0.61719 1.1367-1.1562 1.75-0.54297 0.60547-1.4453 1.4453-2.7031 2.5156-1.0625 0.88672-1.7461 1.4844-2.0469 1.7969-0.29297 0.3125-0.53906 0.63281-0.73438 0.95312z"/>
   </g>
   <g id="use54656" transform="translate(294.54 2784.6)">
    <path id="path68833" d="m6.4688 0v-3.4219h-6.2188v-1.625l6.5312-9.2656h1.4375v9.2656h1.9375v1.625h-1.9375v3.4219zm0-5.0469v-6.4531l-4.4844 6.4531z"/>
   </g>
   <g id="use54658" transform="translate(305.76 2784.6)"></g>
  </g>
  <g id="g54668" transform="matrix(.35278 0 0 .35278 2.3321 -854.26)">
   <g id="use54662" transform="translate(311.42 2784.6)">
    <path id="path68841" d="m4.4844-9v-2h2v2zm5.7344 2.7656h-9.4531v-1.6406h9.4531zm-5.7344 3.125v-2.0156h2v2.0156z"/>
   </g>
   <g id="use54664" transform="translate(322.5 2784.6)"></g>
   <g id="use54666" transform="translate(328.16 2784.6)">
    <path id="path68849" d="m9.9531-10.812-1.75 0.14062c-0.15625-0.6875-0.375-1.1875-0.65625-1.5-0.48047-0.50781-1.0703-0.76562-1.7656-0.76562-0.5625 0-1.0547 0.15625-1.4688 0.46875-0.55469 0.40625-0.99219 1-1.3125 1.7812-0.32422 0.77344-0.49219 1.8711-0.5 3.2969 0.42578-0.63281 0.94141-1.1094 1.5469-1.4219 0.61328-0.3125 1.2578-0.46875 1.9375-0.46875 1.1641 0 2.1602 0.43359 2.9844 1.2969 0.82031 0.85547 1.2344 1.9648 1.2344 3.3281 0 0.90625-0.19531 1.7461-0.57812 2.5156-0.38672 0.77344-0.91797 1.3672-1.5938 1.7812-0.67969 0.40625-1.4492 0.60938-2.3125 0.60938-1.4609 0-2.6523-0.53516-3.5781-1.6094-0.92969-1.082-1.3906-2.8633-1.3906-5.3438 0-2.7578 0.50781-4.7695 1.5312-6.0312 0.89453-1.0938 2.0977-1.6406 3.6094-1.6406 1.125 0 2.0469 0.32031 2.7656 0.95312 0.71875 0.625 1.1484 1.4961 1.2969 2.6094zm-7.1719 6.1719c0 0.60547 0.125 1.1836 0.375 1.7344 0.25781 0.55469 0.61719 0.97656 1.0781 1.2656 0.46875 0.29297 0.95312 0.4375 1.4531 0.4375 0.75 0 1.3906-0.29688 1.9219-0.89062 0.53125-0.60156 0.79688-1.4219 0.79688-2.4531 0-0.98828-0.26562-1.7656-0.79688-2.3281-0.52344-0.57031-1.1836-0.85938-1.9844-0.85938-0.79297 0-1.4648 0.28906-2.0156 0.85938-0.55469 0.5625-0.82812 1.3086-0.82812 2.2344z"/>
   </g>
  </g>
  <g id="g54680" transform="matrix(.35278 0 0 .35278 2.3321 -854.26)">
   <g id="use54670" transform="translate(66.843 2821.6)">
    <path id="path68853" d="m10.562-8.4219h-9.4531v-1.6406h9.4531zm0 4.3438h-9.4531v-1.6406h9.4531z"/>
   </g>
   <g id="use54672" transform="translate(78.623 2821.6)"></g>
   <g id="use54674" transform="translate(84.283 2821.6)">
    <path id="path68861" d="m0.64062-4.2969v-1.7656h5.3906v1.7656z"/>
   </g>
   <g id="use54676" transform="translate(91.043 2821.6)">
    <path id="path68865" d="m7.4531 0h-1.7656v-11.203c-0.41797 0.40625-0.96875 0.8125-1.6562 1.2188-0.6875 0.39844-1.3086 0.69922-1.8594 0.90625v-1.7031c0.98828-0.45703 1.8477-1.0156 2.5781-1.6719 0.73828-0.66406 1.2578-1.3047 1.5625-1.9219h1.1406z"/>
   </g>
   <g id="use54678" transform="translate(102.26 2821.6)"></g>
  </g>
  <g id="g54684" transform="matrix(.35278 0 0 .35278 2.3321 -854.26)">
   <g id="use54682" transform="translate(107.92 2821.6)">
    <path id="path68873" d="m2.3281-6.2188v-2h2v2z"/>
   </g>
  </g>
  <g id="g54692" transform="matrix(.35278 0 0 .35278 2.3321 -854.26)">
   <g id="use54690" transform="translate(120.33 2821.6)">
    <path id="path68877" d="m1.7656 5.1719v-23.781h5.0469v1.8906h-2.7656v20h2.7656v1.8906z"/>
   </g>
  </g>
  <g id="g54708" transform="matrix(.35278 0 0 .35278 2.3321 -854.26)">
   <g id="use54694" transform="translate(127.69 2821.6)">
    <path id="path68881" d="m0.64062-4.2969v-1.7656h5.3906v1.7656z"/>
   </g>
   <g id="use54696" transform="translate(134.45 2821.6)">
    <path id="path68885" d="m10.062-1.6875v1.6875h-9.4531c-0.011719-0.42578 0.054688-0.83203 0.20312-1.2188 0.23828-0.64453 0.625-1.2812 1.1562-1.9062s1.2969-1.3477 2.2969-2.1719c1.5625-1.2695 2.6133-2.2734 3.1562-3.0156 0.55078-0.75 0.82812-1.457 0.82812-2.125 0-0.69531-0.25-1.2852-0.75-1.7656-0.5-0.47656-1.1523-0.71875-1.9531-0.71875-0.84375 0-1.5234 0.25781-2.0312 0.76562-0.51172 0.51172-0.76562 1.2148-0.76562 2.1094l-1.8125-0.1875c0.125-1.3438 0.58594-2.3672 1.3906-3.0781 0.8125-0.70703 1.8984-1.0625 3.2656-1.0625 1.3633 0 2.4453 0.38281 3.25 1.1406 0.80078 0.76172 1.2031 1.7031 1.2031 2.8281 0 0.57422-0.12109 1.1406-0.35938 1.7031-0.23047 0.55469-0.61719 1.1367-1.1562 1.75-0.54297 0.60547-1.4453 1.4453-2.7031 2.5156-1.0625 0.88672-1.7461 1.4844-2.0469 1.7969-0.29297 0.3125-0.53906 0.63281-0.73438 0.95312z"/>
   </g>
   <g id="use54698" transform="translate(145.67 2821.6)">
    <path id="path68889" d="m0.82812-3.75 1.8438-0.15625c0.13281 0.89844 0.45312 1.5742 0.95312 2.0312 0.5 0.44922 1.1016 0.67188 1.8125 0.67188 0.84375 0 1.5547-0.31641 2.1406-0.95312 0.58203-0.63281 0.875-1.4844 0.875-2.5469 0-1-0.28125-1.7852-0.84375-2.3594-0.5625-0.58203-1.2969-0.875-2.2031-0.875-0.57422 0-1.0898 0.13281-1.5469 0.39062-0.44922 0.25-0.80469 0.58594-1.0625 1l-1.6562-0.21875 1.3906-7.3594h7.125v1.6875h-5.7188l-0.76562 3.8438c0.85156-0.60156 1.7539-0.90625 2.7031-0.90625 1.25 0 2.3008 0.4375 3.1562 1.3125 0.86328 0.86719 1.2969 1.9766 1.2969 3.3281 0 1.3047-0.38281 2.4219-1.1406 3.3594-0.91797 1.168-2.168 1.75-3.75 1.75-1.3047 0-2.3711-0.36328-3.2031-1.0938-0.82422-0.72656-1.293-1.6953-1.4062-2.9062z"/>
   </g>
   <g id="use54700" transform="translate(156.89 2821.6)"></g>
   <g id="use54702" transform="translate(162.55 2821.6)">
    <path id="path68897" d="m4.4844-9v-2h2v2zm5.7344 2.7656h-9.4531v-1.6406h9.4531zm-5.7344 3.125v-2.0156h2v2.0156z"/>
   </g>
   <g id="use54704" transform="translate(173.63 2821.6)"></g>
   <g id="use54706" transform="translate(179.29 2821.6)">
    <path id="path68905" d="m0.82812-3.75 1.8438-0.15625c0.13281 0.89844 0.45312 1.5742 0.95312 2.0312 0.5 0.44922 1.1016 0.67188 1.8125 0.67188 0.84375 0 1.5547-0.31641 2.1406-0.95312 0.58203-0.63281 0.875-1.4844 0.875-2.5469 0-1-0.28125-1.7852-0.84375-2.3594-0.5625-0.58203-1.2969-0.875-2.2031-0.875-0.57422 0-1.0898 0.13281-1.5469 0.39062-0.44922 0.25-0.80469 0.58594-1.0625 1l-1.6562-0.21875 1.3906-7.3594h7.125v1.6875h-5.7188l-0.76562 3.8438c0.85156-0.60156 1.7539-0.90625 2.7031-0.90625 1.25 0 2.3008 0.4375 3.1562 1.3125 0.86328 0.86719 1.2969 1.9766 1.2969 3.3281 0 1.3047-0.38281 2.4219-1.1406 3.3594-0.91797 1.168-2.168 1.75-3.75 1.75-1.3047 0-2.3711-0.36328-3.2031-1.0938-0.82422-0.72656-1.293-1.6953-1.4062-2.9062z"/>
   </g>
  </g>
  <g id="g54712" transform="matrix(.35278 0 0 .35278 2.3321 -854.26)">
   <g id="use54710" transform="translate(190.5 2821.6)">
    <path id="path68909" d="m5.5312 5.1719h-5.0312v-1.8906h2.75v-20h-2.75v-1.8906h5.0312z"/>
   </g>
  </g>
  <g id="g54722" transform="matrix(.35278 0 0 .35278 2.3321 -854.26)">
   <g id="use54718" transform="translate(203.52 2821.6)">
    <path id="path68913" d="m0.64062-4.2969v-1.7656h5.3906v1.7656z"/>
   </g>
   <g id="use54720" transform="translate(210.28 2821.6)"></g>
  </g>
  <g id="g54728" transform="matrix(.35278 0 0 .35278 2.3321 -854.26)">
   <g id="use54724" transform="translate(215.94 2821.6)">
    <path id="path68921" d="m10.062-1.6875v1.6875h-9.4531c-0.011719-0.42578 0.054688-0.83203 0.20312-1.2188 0.23828-0.64453 0.625-1.2812 1.1562-1.9062s1.2969-1.3477 2.2969-2.1719c1.5625-1.2695 2.6133-2.2734 3.1562-3.0156 0.55078-0.75 0.82812-1.457 0.82812-2.125 0-0.69531-0.25-1.2852-0.75-1.7656-0.5-0.47656-1.1523-0.71875-1.9531-0.71875-0.84375 0-1.5234 0.25781-2.0312 0.76562-0.51172 0.51172-0.76562 1.2148-0.76562 2.1094l-1.8125-0.1875c0.125-1.3438 0.58594-2.3672 1.3906-3.0781 0.8125-0.70703 1.8984-1.0625 3.2656-1.0625 1.3633 0 2.4453 0.38281 3.25 1.1406 0.80078 0.76172 1.2031 1.7031 1.2031 2.8281 0 0.57422-0.12109 1.1406-0.35938 1.7031-0.23047 0.55469-0.61719 1.1367-1.1562 1.75-0.54297 0.60547-1.4453 1.4453-2.7031 2.5156-1.0625 0.88672-1.7461 1.4844-2.0469 1.7969-0.29297 0.3125-0.53906 0.63281-0.73438 0.95312z"/>
   </g>
   <g id="use54726" transform="translate(227.16 2821.6)"></g>
  </g>
  <g id="g54740" transform="matrix(.35278 0 0 .35278 2.3321 -854.26)">
   <g id="use54730" transform="translate(232.82 2821.6)">
    <path id="path68929" d="m2.3281-6.2188v-2h2v2z"/>
   </g>
   <g id="use54732" transform="translate(239.58 2821.6)"></g>
   <g id="use54734" transform="translate(245.24 2821.6)">
    <path id="path68937" d="m10.062-1.6875v1.6875h-9.4531c-0.011719-0.42578 0.054688-0.83203 0.20312-1.2188 0.23828-0.64453 0.625-1.2812 1.1562-1.9062s1.2969-1.3477 2.2969-2.1719c1.5625-1.2695 2.6133-2.2734 3.1562-3.0156 0.55078-0.75 0.82812-1.457 0.82812-2.125 0-0.69531-0.25-1.2852-0.75-1.7656-0.5-0.47656-1.1523-0.71875-1.9531-0.71875-0.84375 0-1.5234 0.25781-2.0312 0.76562-0.51172 0.51172-0.76562 1.2148-0.76562 2.1094l-1.8125-0.1875c0.125-1.3438 0.58594-2.3672 1.3906-3.0781 0.8125-0.70703 1.8984-1.0625 3.2656-1.0625 1.3633 0 2.4453 0.38281 3.25 1.1406 0.80078 0.76172 1.2031 1.7031 1.2031 2.8281 0 0.57422-0.12109 1.1406-0.35938 1.7031-0.23047 0.55469-0.61719 1.1367-1.1562 1.75-0.54297 0.60547-1.4453 1.4453-2.7031 2.5156-1.0625 0.88672-1.7461 1.4844-2.0469 1.7969-0.29297 0.3125-0.53906 0.63281-0.73438 0.95312z"/>
   </g>
   <g id="use54736" transform="translate(256.46 2821.6)">
    <path id="path68941" d="m6.4688 0v-3.4219h-6.2188v-1.625l6.5312-9.2656h1.4375v9.2656h1.9375v1.625h-1.9375v3.4219zm0-5.0469v-6.4531l-4.4844 6.4531z"/>
   </g>
   <g id="use54738" transform="translate(267.68 2821.6)"></g>
  </g>
  <g id="g54748" transform="matrix(.35278 0 0 .35278 2.3321 -854.26)">
   <g id="use54742" transform="translate(273.34 2821.6)">
    <path id="path68949" d="m4.4844-9v-2h2v2zm5.7344 2.7656h-9.4531v-1.6406h9.4531zm-5.7344 3.125v-2.0156h2v2.0156z"/>
   </g>
   <g id="use54744" transform="translate(284.42 2821.6)"></g>
   <g id="use54746" transform="translate(290.08 2821.6)">
    <path id="path68957" d="m9.9531-10.812-1.75 0.14062c-0.15625-0.6875-0.375-1.1875-0.65625-1.5-0.48047-0.50781-1.0703-0.76562-1.7656-0.76562-0.5625 0-1.0547 0.15625-1.4688 0.46875-0.55469 0.40625-0.99219 1-1.3125 1.7812-0.32422 0.77344-0.49219 1.8711-0.5 3.2969 0.42578-0.63281 0.94141-1.1094 1.5469-1.4219 0.61328-0.3125 1.2578-0.46875 1.9375-0.46875 1.1641 0 2.1602 0.43359 2.9844 1.2969 0.82031 0.85547 1.2344 1.9648 1.2344 3.3281 0 0.90625-0.19531 1.7461-0.57812 2.5156-0.38672 0.77344-0.91797 1.3672-1.5938 1.7812-0.67969 0.40625-1.4492 0.60938-2.3125 0.60938-1.4609 0-2.6523-0.53516-3.5781-1.6094-0.92969-1.082-1.3906-2.8633-1.3906-5.3438 0-2.7578 0.50781-4.7695 1.5312-6.0312 0.89453-1.0938 2.0977-1.6406 3.6094-1.6406 1.125 0 2.0469 0.32031 2.7656 0.95312 0.71875 0.625 1.1484 1.4961 1.2969 2.6094zm-7.1719 6.1719c0 0.60547 0.125 1.1836 0.375 1.7344 0.25781 0.55469 0.61719 0.97656 1.0781 1.2656 0.46875 0.29297 0.95312 0.4375 1.4531 0.4375 0.75 0 1.3906-0.29688 1.9219-0.89062 0.53125-0.60156 0.79688-1.4219 0.79688-2.4531 0-0.98828-0.26562-1.7656-0.79688-2.3281-0.52344-0.57031-1.1836-0.85938-1.9844-0.85938-0.79297 0-1.4648 0.28906-2.0156 0.85938-0.55469 0.5625-0.82812 1.3086-0.82812 2.2344z"/>
   </g>
  </g>
  <g id="g54776" transform="matrix(.35278 0 0 .35278 2.3321 -854.26)">
   <g id="use54750" transform="translate(66.839 2858.6)">
    <path id="path68961" d="m10.562-8.4219h-9.4531v-1.6406h9.4531zm0 4.3438h-9.4531v-1.6406h9.4531z"/>
   </g>
   <g id="use54752" transform="translate(78.619 2858.6)"></g>
   <g id="use54754" transform="translate(84.279 2858.6)">
    <path id="path68969" d="m0.82812-3.75 1.8438-0.15625c0.13281 0.89844 0.45312 1.5742 0.95312 2.0312 0.5 0.44922 1.1016 0.67188 1.8125 0.67188 0.84375 0 1.5547-0.31641 2.1406-0.95312 0.58203-0.63281 0.875-1.4844 0.875-2.5469 0-1-0.28125-1.7852-0.84375-2.3594-0.5625-0.58203-1.2969-0.875-2.2031-0.875-0.57422 0-1.0898 0.13281-1.5469 0.39062-0.44922 0.25-0.80469 0.58594-1.0625 1l-1.6562-0.21875 1.3906-7.3594h7.125v1.6875h-5.7188l-0.76562 3.8438c0.85156-0.60156 1.7539-0.90625 2.7031-0.90625 1.25 0 2.3008 0.4375 3.1562 1.3125 0.86328 0.86719 1.2969 1.9766 1.2969 3.3281 0 1.3047-0.38281 2.4219-1.1406 3.3594-0.91797 1.168-2.168 1.75-3.75 1.75-1.3047 0-2.3711-0.36328-3.2031-1.0938-0.82422-0.72656-1.293-1.6953-1.4062-2.9062z"/>
   </g>
   <g id="use54756" transform="translate(95.499 2858.6)"></g>
   <g id="use54758" transform="translate(101.16 2858.6)">
    <path id="path68977" d="m0.64062-4.2969v-1.7656h5.3906v1.7656z"/>
   </g>
   <g id="use54760" transform="translate(107.92 2858.6)"></g>
   <g id="use54762" transform="translate(113.58 2858.6)">
    <path id="path68985" d="m10.062-1.6875v1.6875h-9.4531c-0.011719-0.42578 0.054688-0.83203 0.20312-1.2188 0.23828-0.64453 0.625-1.2812 1.1562-1.9062s1.2969-1.3477 2.2969-2.1719c1.5625-1.2695 2.6133-2.2734 3.1562-3.0156 0.55078-0.75 0.82812-1.457 0.82812-2.125 0-0.69531-0.25-1.2852-0.75-1.7656-0.5-0.47656-1.1523-0.71875-1.9531-0.71875-0.84375 0-1.5234 0.25781-2.0312 0.76562-0.51172 0.51172-0.76562 1.2148-0.76562 2.1094l-1.8125-0.1875c0.125-1.3438 0.58594-2.3672 1.3906-3.0781 0.8125-0.70703 1.8984-1.0625 3.2656-1.0625 1.3633 0 2.4453 0.38281 3.25 1.1406 0.80078 0.76172 1.2031 1.7031 1.2031 2.8281 0 0.57422-0.12109 1.1406-0.35938 1.7031-0.23047 0.55469-0.61719 1.1367-1.1562 1.75-0.54297 0.60547-1.4453 1.4453-2.7031 2.5156-1.0625 0.88672-1.7461 1.4844-2.0469 1.7969-0.29297 0.3125-0.53906 0.63281-0.73438 0.95312z"/>
   </g>
   <g id="use54764" transform="translate(124.8 2858.6)"></g>
   <g id="use54766" transform="translate(130.46 2858.6)">
    <path id="path68993" d="m2.3281-6.2188v-2h2v2z"/>
   </g>
   <g id="use54768" transform="translate(137.22 2858.6)"></g>
   <g id="use54770" transform="translate(142.88 2858.6)">
    <path id="path69001" d="m10.062-1.6875v1.6875h-9.4531c-0.011719-0.42578 0.054688-0.83203 0.20312-1.2188 0.23828-0.64453 0.625-1.2812 1.1562-1.9062s1.2969-1.3477 2.2969-2.1719c1.5625-1.2695 2.6133-2.2734 3.1562-3.0156 0.55078-0.75 0.82812-1.457 0.82812-2.125 0-0.69531-0.25-1.2852-0.75-1.7656-0.5-0.47656-1.1523-0.71875-1.9531-0.71875-0.84375 0-1.5234 0.25781-2.0312 0.76562-0.51172 0.51172-0.76562 1.2148-0.76562 2.1094l-1.8125-0.1875c0.125-1.3438 0.58594-2.3672 1.3906-3.0781 0.8125-0.70703 1.8984-1.0625 3.2656-1.0625 1.3633 0 2.4453 0.38281 3.25 1.1406 0.80078 0.76172 1.2031 1.7031 1.2031 2.8281 0 0.57422-0.12109 1.1406-0.35938 1.7031-0.23047 0.55469-0.61719 1.1367-1.1562 1.75-0.54297 0.60547-1.4453 1.4453-2.7031 2.5156-1.0625 0.88672-1.7461 1.4844-2.0469 1.7969-0.29297 0.3125-0.53906 0.63281-0.73438 0.95312z"/>
   </g>
   <g id="use54772" transform="translate(154.1 2858.6)">
    <path id="path69005" d="m6.4688 0v-3.4219h-6.2188v-1.625l6.5312-9.2656h1.4375v9.2656h1.9375v1.625h-1.9375v3.4219zm0-5.0469v-6.4531l-4.4844 6.4531z"/>
   </g>
   <g id="use54774" transform="translate(165.32 2858.6)"></g>
  </g>
  <g id="g54784" transform="matrix(.35278 0 0 .35278 2.3321 -854.26)">
   <g id="use54778" transform="translate(170.98 2858.6)">
    <path id="path69013" d="m4.4844-9v-2h2v2zm5.7344 2.7656h-9.4531v-1.6406h9.4531zm-5.7344 3.125v-2.0156h2v2.0156z"/>
   </g>
   <g id="use54780" transform="translate(182.06 2858.6)"></g>
   <g id="use54782" transform="translate(187.72 2858.6)">
    <path id="path69021" d="m9.9531-10.812-1.75 0.14062c-0.15625-0.6875-0.375-1.1875-0.65625-1.5-0.48047-0.50781-1.0703-0.76562-1.7656-0.76562-0.5625 0-1.0547 0.15625-1.4688 0.46875-0.55469 0.40625-0.99219 1-1.3125 1.7812-0.32422 0.77344-0.49219 1.8711-0.5 3.2969 0.42578-0.63281 0.94141-1.1094 1.5469-1.4219 0.61328-0.3125 1.2578-0.46875 1.9375-0.46875 1.1641 0 2.1602 0.43359 2.9844 1.2969 0.82031 0.85547 1.2344 1.9648 1.2344 3.3281 0 0.90625-0.19531 1.7461-0.57812 2.5156-0.38672 0.77344-0.91797 1.3672-1.5938 1.7812-0.67969 0.40625-1.4492 0.60938-2.3125 0.60938-1.4609 0-2.6523-0.53516-3.5781-1.6094-0.92969-1.082-1.3906-2.8633-1.3906-5.3438 0-2.7578 0.50781-4.7695 1.5312-6.0312 0.89453-1.0938 2.0977-1.6406 3.6094-1.6406 1.125 0 2.0469 0.32031 2.7656 0.95312 0.71875 0.625 1.1484 1.4961 1.2969 2.6094zm-7.1719 6.1719c0 0.60547 0.125 1.1836 0.375 1.7344 0.25781 0.55469 0.61719 0.97656 1.0781 1.2656 0.46875 0.29297 0.95312 0.4375 1.4531 0.4375 0.75 0 1.3906-0.29688 1.9219-0.89062 0.53125-0.60156 0.79688-1.4219 0.79688-2.4531 0-0.98828-0.26562-1.7656-0.79688-2.3281-0.52344-0.57031-1.1836-0.85938-1.9844-0.85938-0.79297 0-1.4648 0.28906-2.0156 0.85938-0.55469 0.5625-0.82812 1.3086-0.82812 2.2344z"/>
   </g>
  </g>
  <g id="g54810" transform="matrix(.35278 0 0 .35278 2.3321 -854.26)">
   <g id="use54786" transform="translate(66.839 2895.6)">
    <path id="path69025" d="m10.562-8.4219h-9.4531v-1.6406h9.4531zm0 4.3438h-9.4531v-1.6406h9.4531z"/>
   </g>
   <g id="use54788" transform="translate(78.619 2895.6)"></g>
   <g id="use54790" transform="translate(84.279 2895.6)"></g>
   <g id="use54792" transform="translate(89.939 2895.6)">
    <path id="path69037" d="m0.82812-3.75 1.8438-0.15625c0.13281 0.89844 0.45312 1.5742 0.95312 2.0312 0.5 0.44922 1.1016 0.67188 1.8125 0.67188 0.84375 0 1.5547-0.31641 2.1406-0.95312 0.58203-0.63281 0.875-1.4844 0.875-2.5469 0-1-0.28125-1.7852-0.84375-2.3594-0.5625-0.58203-1.2969-0.875-2.2031-0.875-0.57422 0-1.0898 0.13281-1.5469 0.39062-0.44922 0.25-0.80469 0.58594-1.0625 1l-1.6562-0.21875 1.3906-7.3594h7.125v1.6875h-5.7188l-0.76562 3.8438c0.85156-0.60156 1.7539-0.90625 2.7031-0.90625 1.25 0 2.3008 0.4375 3.1562 1.3125 0.86328 0.86719 1.2969 1.9766 1.2969 3.3281 0 1.3047-0.38281 2.4219-1.1406 3.3594-0.91797 1.168-2.168 1.75-3.75 1.75-1.3047 0-2.3711-0.36328-3.2031-1.0938-0.82422-0.72656-1.293-1.6953-1.4062-2.9062z"/>
   </g>
   <g id="use54794" transform="translate(101.16 2895.6)"></g>
   <g id="use54796" transform="translate(106.82 2895.6)">
    <path id="path69045" d="m0.64062-4.2969v-1.7656h5.3906v1.7656z"/>
   </g>
   <g id="use54798" transform="translate(113.58 2895.6)"></g>
   <g id="use54800" transform="translate(119.24 2895.6)">
    <path id="path69053" d="m10.062-1.6875v1.6875h-9.4531c-0.011719-0.42578 0.054688-0.83203 0.20312-1.2188 0.23828-0.64453 0.625-1.2812 1.1562-1.9062s1.2969-1.3477 2.2969-2.1719c1.5625-1.2695 2.6133-2.2734 3.1562-3.0156 0.55078-0.75 0.82812-1.457 0.82812-2.125 0-0.69531-0.25-1.2852-0.75-1.7656-0.5-0.47656-1.1523-0.71875-1.9531-0.71875-0.84375 0-1.5234 0.25781-2.0312 0.76562-0.51172 0.51172-0.76562 1.2148-0.76562 2.1094l-1.8125-0.1875c0.125-1.3438 0.58594-2.3672 1.3906-3.0781 0.8125-0.70703 1.8984-1.0625 3.2656-1.0625 1.3633 0 2.4453 0.38281 3.25 1.1406 0.80078 0.76172 1.2031 1.7031 1.2031 2.8281 0 0.57422-0.12109 1.1406-0.35938 1.7031-0.23047 0.55469-0.61719 1.1367-1.1562 1.75-0.54297 0.60547-1.4453 1.4453-2.7031 2.5156-1.0625 0.88672-1.7461 1.4844-2.0469 1.7969-0.29297 0.3125-0.53906 0.63281-0.73438 0.95312z"/>
   </g>
   <g id="use54802" transform="translate(130.46 2895.6)"></g>
   <g id="use54804" transform="translate(136.12 2895.6)">
    <path id="path69061" d="m2.3281-6.2188v-2h2v2z"/>
   </g>
   <g id="use54806" transform="translate(142.88 2895.6)"></g>
   <g id="use54808" transform="translate(148.54 2895.6)">
    <path id="path69069" d="m6.4688 0v-3.4219h-6.2188v-1.625l6.5312-9.2656h1.4375v9.2656h1.9375v1.625h-1.9375v3.4219zm0-5.0469v-6.4531l-4.4844 6.4531z"/>
   </g>
  </g>
  <g id="g54828" transform="matrix(.35278 0 0 .35278 2.3321 -854.26)">
   <g id="use54812" transform="translate(66.839 2932.6)">
    <path id="path69073" d="m10.562-8.4219h-9.4531v-1.6406h9.4531zm0 4.3438h-9.4531v-1.6406h9.4531z"/>
   </g>
   <g id="use54814" transform="translate(78.619 2932.6)"></g>
   <g id="use54816" transform="translate(84.279 2932.6)"></g>
   <g id="use54818" transform="translate(89.939 2932.6)">
    <path id="path69085" d="m0.82812-3.75 1.8438-0.15625c0.13281 0.89844 0.45312 1.5742 0.95312 2.0312 0.5 0.44922 1.1016 0.67188 1.8125 0.67188 0.84375 0 1.5547-0.31641 2.1406-0.95312 0.58203-0.63281 0.875-1.4844 0.875-2.5469 0-1-0.28125-1.7852-0.84375-2.3594-0.5625-0.58203-1.2969-0.875-2.2031-0.875-0.57422 0-1.0898 0.13281-1.5469 0.39062-0.44922 0.25-0.80469 0.58594-1.0625 1l-1.6562-0.21875 1.3906-7.3594h7.125v1.6875h-5.7188l-0.76562 3.8438c0.85156-0.60156 1.7539-0.90625 2.7031-0.90625 1.25 0 2.3008 0.4375 3.1562 1.3125 0.86328 0.86719 1.2969 1.9766 1.2969 3.3281 0 1.3047-0.38281 2.4219-1.1406 3.3594-0.91797 1.168-2.168 1.75-3.75 1.75-1.3047 0-2.3711-0.36328-3.2031-1.0938-0.82422-0.72656-1.293-1.6953-1.4062-2.9062z"/>
   </g>
   <g id="use54820" transform="translate(101.16 2932.6)"></g>
   <g id="use54822" transform="translate(106.82 2932.6)">
    <path id="path69093" d="m0.64062-4.2969v-1.7656h5.3906v1.7656z"/>
   </g>
   <g id="use54824" transform="translate(113.58 2932.6)"></g>
   <g id="use54826" transform="translate(119.24 2932.6)">
    <path id="path69101" d="m3.5312-7.7656c-0.73047-0.26953-1.2734-0.64844-1.625-1.1406-0.34375-0.5-0.51562-1.0938-0.51562-1.7812 0-1.0391 0.375-1.9141 1.125-2.625 0.75-0.70703 1.7422-1.0625 2.9844-1.0625 1.25 0 2.2539 0.36719 3.0156 1.0938 0.75781 0.71875 1.1406 1.6016 1.1406 2.6406 0 0.66797-0.17969 1.2461-0.53125 1.7344-0.34375 0.49219-0.87109 0.87109-1.5781 1.1406 0.88281 0.29297 1.5547 0.75781 2.0156 1.3906 0.45703 0.63672 0.6875 1.3984 0.6875 2.2812 0 1.2305-0.4375 2.2617-1.3125 3.0938-0.86719 0.83594-2 1.25-3.4062 1.25-1.418 0-2.5586-0.41406-3.4219-1.25-0.86719-0.84375-1.2969-1.8906-1.2969-3.1406 0-0.92578 0.23438-1.7031 0.70312-2.3281 0.47656-0.63281 1.1484-1.0664 2.0156-1.2969zm-0.34375-2.9844c0 0.67969 0.21875 1.2344 0.65625 1.6719 0.4375 0.42969 1 0.64062 1.6875 0.64062 0.67578 0 1.2344-0.21094 1.6719-0.64062 0.4375-0.42578 0.65625-0.94531 0.65625-1.5625 0-0.64453-0.22656-1.1875-0.67188-1.625-0.44922-0.44531-1.0078-0.67188-1.6719-0.67188-0.66797 0-1.2266 0.21875-1.6719 0.65625-0.4375 0.42969-0.65625 0.9375-0.65625 1.5312zm-0.5625 6.625c0 0.5 0.11328 0.98438 0.34375 1.4531 0.23828 0.46875 0.59375 0.83594 1.0625 1.0938 0.46875 0.25 0.97266 0.375 1.5156 0.375 0.84375 0 1.5352-0.26953 2.0781-0.8125 0.55078-0.53906 0.82812-1.2266 0.82812-2.0625 0-0.84375-0.28125-1.5391-0.84375-2.0938-0.5625-0.55078-1.2734-0.82812-2.125-0.82812-0.82422 0-1.5078 0.27734-2.0469 0.82812-0.54297 0.54297-0.8125 1.2266-0.8125 2.0469z"/>
   </g>
  </g>
  <g id="g54838" transform="matrix(.35278 0 0 .35278 2.3321 -854.26)">
   <g id="use54830" transform="translate(66.839 2969.6)">
    <path id="path69105" d="m10.562-8.4219h-9.4531v-1.6406h9.4531zm0 4.3438h-9.4531v-1.6406h9.4531z"/>
   </g>
   <g id="use54832" transform="translate(78.619 2969.6)"></g>
   <g id="use54834" transform="translate(84.279 2969.6)">
    <path id="path69113" d="m0.64062-4.2969v-1.7656h5.3906v1.7656z"/>
   </g>
   <g id="use54836" transform="translate(91.039 2969.6)">
    <path id="path69117" d="m0.84375-3.7812 1.75-0.23438c0.20703 1 0.55078 1.7188 1.0312 2.1562 0.48828 0.4375 1.082 0.65625 1.7812 0.65625 0.82031 0 1.5156-0.28516 2.0781-0.85938 0.57031-0.57031 0.85938-1.2812 0.85938-2.125 0-0.8125-0.26562-1.4766-0.79688-2-0.52344-0.51953-1.1875-0.78125-2-0.78125-0.33594 0-0.74609 0.0625-1.2344 0.1875l0.1875-1.5469c0.11328 0.023437 0.20703 0.03125 0.28125 0.03125 0.75 0 1.4219-0.19141 2.0156-0.57812 0.60156-0.39453 0.90625-1 0.90625-1.8125 0-0.64453-0.21875-1.1797-0.65625-1.6094-0.4375-0.42578-1-0.64062-1.6875-0.64062-0.67969 0-1.2461 0.21875-1.7031 0.65625-0.46094 0.42969-0.75 1.0703-0.875 1.9219l-1.7656-0.3125c0.21875-1.1758 0.70703-2.0859 1.4688-2.7344 0.75781-0.64453 1.707-0.96875 2.8438-0.96875 0.78125 0 1.5 0.16797 2.1562 0.5 0.65625 0.33594 1.1562 0.79297 1.5 1.375 0.35156 0.58594 0.53125 1.1992 0.53125 1.8438 0 0.61719-0.16797 1.1797-0.5 1.6875-0.33594 0.51172-0.82422 0.91797-1.4688 1.2188 0.84375 0.1875 1.5 0.59375 1.9688 1.2188 0.46875 0.61719 0.70312 1.3828 0.70312 2.2969 0 1.25-0.46094 2.3125-1.375 3.1875-0.90625 0.86719-2.0586 1.2969-3.4531 1.2969-1.2617 0-2.3086-0.375-3.1406-1.125-0.82422-0.75-1.293-1.7188-1.4062-2.9062z"/>
   </g>
  </g>
 </g>
</svg>
