<?xml version="1.0" encoding="utf-8"?>
<!-- Generator: Adobe Illustrator 23.0.6, SVG Export Plug-In . SVG Version: 6.00 Build 0)  -->
<svg version="1.1" id="Layer_1" xmlns="http://www.w3.org/2000/svg" xmlns:xlink="http://www.w3.org/1999/xlink" x="0px" y="0px"
	 viewBox="0 0 167.5 167.4" style="enable-background:new 0 0 167.5 167.4;" xml:space="preserve">
<style type="text/css">
	.st0{fill:none;stroke:#144575;stroke-width:2;stroke-miterlimit:10;}
	.st1{fill:none;stroke:#144575;stroke-width:2;stroke-miterlimit:10;stroke-dasharray:11.236,11.236;}
	.st2{fill:none;stroke:#144575;stroke-width:2;stroke-miterlimit:10;stroke-dasharray:14.145,14.145;}
	.st3{fill:#231F20;}
</style>
<title>img_11</title>
<g>
	<g id="Layer_1-2">
		<g id="f2">
			<g id="IMG11">
				<g>
					<g>
						<circle class="st0" cx="83.7" cy="83.7" r="82.7"/>
						<path class="st0" d="M1,83.7c0.1-2,0.8-4,2.2-5.5"/>
						<path class="st1" d="M12.2,71.7c14.3-7.1,41-11.9,71.5-11.9c34.4,0,63.9,6.1,76.4,14.8"/>
						<path class="st0" d="M164.3,78.3c1.3,1.5,2.1,3.5,2.2,5.5"/>
						<path class="st0" d="M166.5,83.7c0,13.2-37,24-82.7,24S1,97,1,83.7"/>
						<line class="st0" x1="83.7" y1="83.7" x2="89.7" y2="83.7"/>
						<line class="st2" x1="103.9" y1="83.7" x2="153.4" y2="83.7"/>
						<line class="st0" x1="160.4" y1="83.7" x2="166.4" y2="83.7"/>
						<path class="st3" d="M85,76c0.9,0.5,1.9,0.8,2.9,0.8c2.2,0,2.9-1.4,2.9-2.5c0-1.8-1.6-2.6-3.3-2.6h-1v-1.3h1
							c1.3,0,2.9-0.7,2.9-2.2c0-1-0.7-2-2.3-2c-0.9,0-1.8,0.3-2.6,0.9l-0.5-1.3c1-0.7,2.2-1,3.4-1c2.5,0,3.7,1.5,3.7,3.1
							c0,1.4-1,2.6-2.4,3l0,0c1.7,0.2,2.9,1.7,2.9,3.3c0,2.1-1.6,3.9-4.7,3.9c-1.2,0-2.3-0.3-3.4-0.9L85,76z"/>
						<path class="st3" d="M106.6,77.6c-0.9,0.4-1.8,0.6-2.8,0.5c-2.5,0.1-4.7-1.8-4.8-4.3c0-0.2,0-0.4,0-0.6
							c-0.1-2.7,1.9-5,4.6-5.1c0.2,0,0.3,0,0.5,0c0.8,0,1.7,0.2,2.4,0.5l-0.4,1.4c-0.6-0.3-1.3-0.5-2-0.5c-2,0.1-3.5,1.9-3.4,3.8
							c0.1,1.8,1.5,3.2,3.3,3.4c0.7,0,1.5-0.2,2.1-0.5L106.6,77.6z"/>
						<path class="st3" d="M108.7,71c0-1,0-1.8-0.1-2.6h1.5l0.1,1.5h0.1c0.6-1.1,1.7-1.8,3-1.8c1.2,0,2.3,0.8,2.7,1.9l0,0
							c0.3-0.5,0.6-0.9,1.1-1.3c0.6-0.5,1.4-0.7,2.1-0.7c1.3,0,3.1,0.8,3.1,4.2V78h-1.7v-5.4c0-1.8-0.7-3-2.1-3
							c-1,0-1.8,0.7-2.1,1.6c-0.1,0.3-0.1,0.6-0.1,0.9V78h-1.7v-5.8c0-1.5-0.7-2.6-2-2.6c-1.3,0.2-2.3,1.3-2.3,2.6V78h-1.7L108.7,71
							z"/>
					</g>
				</g>
				<path class="st3" d="M87.4,83.7c0,2-1.6,3.6-3.6,3.6c-2,0-3.6-1.6-3.6-3.6c0-2,1.6-3.6,3.6-3.6C85.7,80.1,87.4,81.7,87.4,83.7
					L87.4,83.7"/>
			</g>
		</g>
	</g>
</g>
</svg>
