<svg id="svg22877" version="1.1" viewBox="0 0 163.29 49.871" xmlns="http://www.w3.org/2000/svg">
 <title id="title23134">img_18</title>
 <g id="layer1" transform="translate(-3.0223 -86.19)">
  <g id="g22660" transform="matrix(.35278 0 0 .35278 -35.093 -785.85)">
   <g id="use11935" transform="translate(137.97 2558.4)" style="fill:#87caca">
    <path id="path22662" d="m1.0781-0.03125c0.40625 0.0625 1.0625 0.10938 1.9062 0.10938 1.5625 0 2.6406-0.28125 3.3125-0.89062 0.48438-0.46875 0.79688-1.0938 0.79688-1.9062 0-1.4219-1.0625-2.1719-1.9688-2.3906v-0.03125c1.0156-0.375 1.625-1.1875 1.625-2.0938 0-0.76562-0.29688-1.3281-0.79688-1.6875-0.59375-0.48438-1.3906-0.70312-2.625-0.70312-0.85938 0-1.7188 0.09375-2.25 0.20312zm1.2344-8.5625c0.20312-0.03125 0.51562-0.078125 1.0938-0.078125 1.2344 0 2.0938 0.4375 2.0938 1.5625 0 0.92188-0.76562 1.5938-2.0781 1.5938h-1.1094zm0 4.0156h1.0156c1.3438 0 2.4688 0.54688 2.4688 1.8438 0 1.3906-1.1719 1.8594-2.4531 1.8594-0.4375 0-0.79688-0.015625-1.0312-0.0625z"/>
   </g>
   <g id="use11939" transform="translate(145.78 2558.4)" style="fill:#87caca">
    <path id="path22666" d="m6.5469-3.2031c0.015625-0.125 0.046875-0.32812 0.046875-0.57812 0-1.2656-0.59375-3.2344-2.8438-3.2344-2 0-3.2188 1.625-3.2188 3.7031 0 2.0625 1.2656 3.4531 3.375 3.4531 1.0938 0 1.8438-0.21875 2.2812-0.42188l-0.20312-0.89062c-0.46875 0.1875-1.0156 0.34375-1.9062 0.34375-1.25 0-2.3281-0.6875-2.3438-2.375zm-4.7969-0.89062c0.09375-0.85938 0.64062-2.0312 1.9062-2.0312 1.4062 0 1.75 1.2344 1.7344 2.0312z"/>
   </g>
   <g id="use11941" transform="translate(152.95 2558.4)" style="fill:#87caca">
    <path id="path22670" d="m5.9688 0c-0.09375-0.46875-0.10938-1.0469-0.10938-1.6406v-2.5625c0-1.375-0.51562-2.8125-2.6094-2.8125-0.875 0-1.6875 0.23438-2.2656 0.60938l0.29688 0.82812c0.46875-0.3125 1.1406-0.51562 1.7812-0.51562 1.4062 0 1.5625 1.0156 1.5625 1.5938v0.14062c-2.6562-0.015625-4.125 0.89062-4.125 2.5469 0 0.98438 0.70312 1.9688 2.0938 1.9688 0.98438 0 1.7188-0.48438 2.0938-1.0156h0.046875l0.09375 0.85938zm-1.3281-2.3125c0 0.125-0.015625 0.26562-0.0625 0.40625-0.20312 0.57812-0.76562 1.1406-1.6562 1.1406-0.64062 0-1.1719-0.375-1.1719-1.1875 0-1.3281 1.5312-1.5781 2.8906-1.5469z"/>
   </g>
   <g id="use11943" transform="translate(159.85 2558.4)" style="fill:#87caca">
    <path id="path22674" d="m1.0312 0h1.25v-4.125c0-0.21875 0.03125-0.42188 0.078125-0.57812 0.21875-0.70312 0.85938-1.2812 1.6719-1.2812 1.1875 0 1.5938 0.92188 1.5938 2.0312v3.9531h1.25v-4.0938c0-2.3594-1.4688-2.9219-2.4219-2.9219-1.1406 0-1.9375 0.64062-2.2656 1.2969h-0.03125l-0.078125-1.1406h-1.0938c0.03125 0.5625 0.046875 1.1406 0.046875 1.8594z"/>
   </g>
   <g id="use11945" transform="translate(167.79 2558.4)" style="fill:#87caca">
    <path id="path22678" d="m0.54688-0.32812c0.48438 0.28125 1.1875 0.46875 1.9375 0.46875 1.625 0 2.5625-0.84375 2.5625-2.0469 0-1.0312-0.60938-1.625-1.7969-2.0781-0.89062-0.34375-1.3125-0.59375-1.3125-1.1562 0-0.51562 0.42188-0.9375 1.1562-0.9375 0.64062 0 1.125 0.21875 1.4062 0.39062l0.29688-0.90625c-0.375-0.21875-0.98438-0.42188-1.6719-0.42188-1.4844 0-2.375 0.90625-2.375 2.0156 0 0.8125 0.57812 1.5 1.8125 1.9375 0.92188 0.34375 1.2812 0.67188 1.2812 1.2656 0 0.5625-0.42188 1.0156-1.3281 1.0156-0.625 0-1.2812-0.25-1.6562-0.5z"/>
   </g>
   <g id="use11951" transform="translate(179.63 2558.4)" style="fill:#87caca">
    <path id="path22682" d="m8.3438-5.0156h-3.1406v0.98438h1.9375v2.8594c-0.28125 0.14062-0.82812 0.25-1.6406 0.25-2.2188 0-3.6875-1.4375-3.6875-3.8594 0-2.3906 1.5156-3.8281 3.8438-3.8281 0.96875 0 1.5938 0.17188 2.1094 0.40625l0.29688-1.0156c-0.40625-0.1875-1.2812-0.4375-2.375-0.4375-3.2031 0-5.1562 2.0938-5.1719 4.9375 0 1.4844 0.5 2.7656 1.3281 3.5625 0.9375 0.89062 2.125 1.25 3.5625 1.25 1.2969 0 2.3906-0.32812 2.9375-0.51562z"/>
   </g>
   <g id="use11953" transform="translate(188.85 2558.4)" style="fill:#87caca">
    <path id="path22686" d="m1.0312 0h1.2344v-3.6562c0-0.21875 0.03125-0.40625 0.0625-0.57812 0.17188-0.9375 0.79688-1.6094 1.6719-1.6094 0.17188 0 0.29688 0.015625 0.42188 0.046875v-1.1719c-0.10938-0.03125-0.21875-0.046875-0.35938-0.046875-0.82812 0-1.5781 0.57812-1.8906 1.5h-0.0625l-0.046875-1.3438h-1.0781c0.03125 0.64062 0.046875 1.3281 0.046875 2.1406z"/>
   </g>
   <g id="use11957" transform="translate(193.42 2558.4)" style="fill:#87caca">
    <path id="path22690" d="m6.5469-3.2031c0.015625-0.125 0.046875-0.32812 0.046875-0.57812 0-1.2656-0.59375-3.2344-2.8438-3.2344-2 0-3.2188 1.625-3.2188 3.7031 0 2.0625 1.2656 3.4531 3.375 3.4531 1.0938 0 1.8438-0.21875 2.2812-0.42188l-0.20312-0.89062c-0.46875 0.1875-1.0156 0.34375-1.9062 0.34375-1.25 0-2.3281-0.6875-2.3438-2.375zm-4.7969-0.89062c0.09375-0.85938 0.64062-2.0312 1.9062-2.0312 1.4062 0 1.75 1.2344 1.7344 2.0312z"/>
   </g>
   <g id="use11959" transform="translate(200.59 2558.4)" style="fill:#87caca">
    <path id="path22694" d="m6.5469-3.2031c0.015625-0.125 0.046875-0.32812 0.046875-0.57812 0-1.2656-0.59375-3.2344-2.8438-3.2344-2 0-3.2188 1.625-3.2188 3.7031 0 2.0625 1.2656 3.4531 3.375 3.4531 1.0938 0 1.8438-0.21875 2.2812-0.42188l-0.20312-0.89062c-0.46875 0.1875-1.0156 0.34375-1.9062 0.34375-1.25 0-2.3281-0.6875-2.3438-2.375zm-4.7969-0.89062c0.09375-0.85938 0.64062-2.0312 1.9062-2.0312 1.4062 0 1.75 1.2344 1.7344 2.0312z"/>
   </g>
   <g id="use11961" transform="translate(207.76 2558.4)" style="fill:#87caca">
    <path id="path22698" d="m1.0312 0h1.25v-4.125c0-0.21875 0.03125-0.42188 0.078125-0.57812 0.21875-0.70312 0.85938-1.2812 1.6719-1.2812 1.1875 0 1.5938 0.92188 1.5938 2.0312v3.9531h1.25v-4.0938c0-2.3594-1.4688-2.9219-2.4219-2.9219-1.1406 0-1.9375 0.64062-2.2656 1.2969h-0.03125l-0.078125-1.1406h-1.0938c0.03125 0.5625 0.046875 1.1406 0.046875 1.8594z"/>
   </g>
  </g>
  <g id="use11967" transform="matrix(.35278 0 0 .35278 2.4821 115.16)" style="fill:#1c1c19">
   <path id="path22702" d="m1.5312 0h1.8438v-6.1094c0-0.35938 0.015625-0.625 0.125-0.875 0.32812-1 1.2656-1.8438 2.4688-1.8438 1.7344 0 2.3438 1.375 2.3438 3.0156v5.8125h1.8281v-6.0312c0-3.4844-2.1719-4.3281-3.5312-4.3281-0.6875 0-1.3438 0.21875-1.875 0.53125-0.57812 0.3125-1.0312 0.76562-1.3281 1.2969h-0.03125v-6.3281h-1.8438z"/>
  </g>
  <path id="path11971" d="m42.809 99.081c0 3.6408-7.0087 6.5925-15.655 6.5925-8.6444 0-15.653-2.9518-15.653-6.5925 0-3.6422 7.0087-6.5939 15.653-6.5939 8.6458 0 15.655 2.9518 15.655 6.5939z" style="fill:none;stroke-miterlimit:10;stroke-width:.24553;stroke:#173a6e"/>
  <path id="path11973" d="m42.809 129.29c0 3.6408-7.0087 6.5925-15.655 6.5925-8.6444 0-15.653-2.9518-15.653-6.5925 0-3.6421 7.0087-6.5939 15.653-6.5939 8.6458 0 15.655 2.9518 15.655 6.5939z" style="fill:none;stroke-miterlimit:10;stroke-width:.24553;stroke:#173a6e"/>
  <path id="path11975" d="m11.501 99.081v30.211" style="fill:none;stroke-miterlimit:10;stroke-width:.24553;stroke:#173a6e"/>
  <path id="path11977" d="m42.809 99.081v30.211" style="fill:none;stroke-miterlimit:10;stroke-width:.24553;stroke:#173a6e"/>
  <path id="path11979" d="m27.154 105.67v1.2347" style="fill:none;stroke-miterlimit:10;stroke-width:.24553;stroke:#e10511"/>
  <path id="path11981" d="m27.154 107.91v26.238" style="fill:none;stroke-dasharray:2.33962, 1.00259;stroke-miterlimit:10;stroke-width:.24553;stroke:#e10511"/>
  <path id="path11983" d="m27.154 134.65v1.2347" style="fill:none;stroke-miterlimit:10;stroke-width:.24553;stroke:#e10511"/>
  <g id="g22648" transform="matrix(.35278 0 0 .35278 -35.093 -785.85)">
   <g id="use12005" transform="translate(433.28 2554.8)" style="fill:#87caca">
    <path id="path22706" d="m10.016-6.0312h-3.7656v1.2031h2.3281v3.4219c-0.34375 0.17188-1 0.29688-1.9688 0.29688-2.6719 0-4.4375-1.7188-4.4375-4.625 0-2.875 1.8281-4.6094 4.625-4.6094 1.1562 0 1.9219 0.21875 2.5312 0.48438l0.35938-1.2031c-0.5-0.23438-1.5312-0.53125-2.8594-0.53125-3.8438 0-6.2031 2.5-6.2188 5.9219 0 1.7969 0.60938 3.3281 1.6094 4.2812 1.1094 1.0625 2.5469 1.5156 4.2812 1.5156 1.5469 0 2.8594-0.39062 3.5156-0.64062z"/>
   </g>
   <g id="use12007" transform="translate(444.35 2554.8)" style="fill:#87caca">
    <path id="path22710" d="m1.2344 0h1.4844v-4.3906c0-0.25 0.03125-0.5 0.078125-0.70312 0.20312-1.1094 0.95312-1.9219 2-1.9219 0.20312 0 0.35938 0.015625 0.51562 0.0625v-1.4219c-0.14062-0.03125-0.26562-0.046875-0.42188-0.046875-1.0156 0-1.9062 0.70312-2.2812 1.7969h-0.078125l-0.046875-1.6094h-1.3125c0.046875 0.76562 0.0625 1.5938 0.0625 2.5625z"/>
   </g>
   <g id="use12011" transform="translate(449.83 2554.8)" style="fill:#87caca">
    <path id="path22714" d="m7.8594-3.8438c0.015625-0.15625 0.046875-0.39062 0.046875-0.70312 0-1.5156-0.70312-3.875-3.3906-3.875-2.4062 0-3.875 1.9531-3.875 4.4375s1.5156 4.1562 4.0625 4.1562c1.2969 0 2.2031-0.28125 2.7344-0.51562l-0.25-1.0625c-0.5625 0.23438-1.2188 0.42188-2.2812 0.42188-1.5 0-2.7969-0.84375-2.8281-2.8594zm-5.7656-1.0781c0.125-1.0312 0.78125-2.4219 2.2969-2.4219 1.6875 0 2.0938 1.4688 2.0781 2.4219z"/>
   </g>
   <g id="use12013" transform="translate(458.44 2554.8)" style="fill:#87caca">
    <path id="path22718" d="m7.8594-3.8438c0.015625-0.15625 0.046875-0.39062 0.046875-0.70312 0-1.5156-0.70312-3.875-3.3906-3.875-2.4062 0-3.875 1.9531-3.875 4.4375s1.5156 4.1562 4.0625 4.1562c1.2969 0 2.2031-0.28125 2.7344-0.51562l-0.25-1.0625c-0.5625 0.23438-1.2188 0.42188-2.2812 0.42188-1.5 0-2.7969-0.84375-2.8281-2.8594zm-5.7656-1.0781c0.125-1.0312 0.78125-2.4219 2.2969-2.4219 1.6875 0 2.0938 1.4688 2.0781 2.4219z"/>
   </g>
   <g id="use12015" transform="translate(467.04 2554.8)" style="fill:#87caca">
    <path id="path22722" d="m1.2344 0h1.5v-4.9531c0-0.25 0.046875-0.51562 0.10938-0.70312 0.25-0.82812 1.0156-1.5312 2-1.5312 1.4219 0 1.9062 1.1094 1.9062 2.4375v4.75h1.5v-4.9219c0-2.8125-1.7656-3.5-2.9062-3.5-1.3594 0-2.3125 0.76562-2.7188 1.5469h-0.03125l-0.09375-1.3594h-1.3281c0.046875 0.67188 0.0625 1.375 0.0625 2.2344z"/>
   </g>
   <g id="use12019" transform="translate(480.26 2554.8)" style="fill:#87caca">
    <path id="path22726" d="m1.2969-0.03125c0.48438 0.0625 1.2656 0.14062 2.2969 0.14062 1.875 0 3.1562-0.34375 3.9688-1.0781 0.57812-0.5625 0.96875-1.3125 0.96875-2.2969 0-1.7031-1.2812-2.6094-2.375-2.875v-0.03125c1.2188-0.45312 1.9375-1.4219 1.9375-2.5156 0-0.90625-0.35938-1.5938-0.95312-2.0312-0.70312-0.57812-1.6562-0.82812-3.1406-0.82812-1.0469 0-2.0625 0.09375-2.7031 0.23438zm1.4844-10.281c0.23438-0.04687 0.625-0.09375 1.2969-0.09375 1.5 0 2.5312 0.51562 2.5312 1.8594 0 1.1094-0.92188 1.9219-2.4844 1.9219h-1.3438zm0 4.8125h1.2188c1.6094 0 2.9531 0.65625 2.9531 2.2188 0 1.6719-1.4062 2.2188-2.9375 2.2188-0.53125 0-0.95312-0.015625-1.2344-0.0625z"/>
   </g>
   <g id="use12023" transform="translate(489.63 2554.8)" style="fill:#87caca">
    <path id="path22730" d="m7.8594-3.8438c0.015625-0.15625 0.046875-0.39062 0.046875-0.70312 0-1.5156-0.70312-3.875-3.3906-3.875-2.4062 0-3.875 1.9531-3.875 4.4375s1.5156 4.1562 4.0625 4.1562c1.2969 0 2.2031-0.28125 2.7344-0.51562l-0.25-1.0625c-0.5625 0.23438-1.2188 0.42188-2.2812 0.42188-1.5 0-2.7969-0.84375-2.8281-2.8594zm-5.7656-1.0781c0.125-1.0312 0.78125-2.4219 2.2969-2.4219 1.6875 0 2.0938 1.4688 2.0781 2.4219z"/>
   </g>
   <g id="use12025" transform="translate(498.24 2554.8)" style="fill:#87caca">
    <path id="path22734" d="m7.1562 0c-0.09375-0.5625-0.125-1.2656-0.125-1.9688v-3.0781c0-1.6562-0.60938-3.375-3.1406-3.375-1.0312 0-2.0156 0.28125-2.7031 0.73438l0.34375 0.98438c0.57812-0.375 1.375-0.60938 2.1406-0.60938 1.6875 0 1.875 1.2188 1.875 1.9062v0.17188c-3.1875-0.03125-4.9531 1.0625-4.9531 3.0625 0 1.1875 0.85938 2.3594 2.5156 2.3594 1.1719 0 2.0625-0.57812 2.5156-1.2188h0.0625l0.10938 1.0312zm-1.5781-2.7812c0 0.15625-0.03125 0.32812-0.078125 0.48438-0.23438 0.70312-0.92188 1.375-2 1.375-0.76562 0-1.4062-0.45312-1.4062-1.4219 0-1.6094 1.8594-1.8906 3.4844-1.8594z"/>
   </g>
   <g id="use12027" transform="translate(506.52 2554.8)" style="fill:#87caca">
    <path id="path22738" d="m1.2344 0h1.5v-4.9531c0-0.25 0.046875-0.51562 0.10938-0.70312 0.25-0.82812 1.0156-1.5312 2-1.5312 1.4219 0 1.9062 1.1094 1.9062 2.4375v4.75h1.5v-4.9219c0-2.8125-1.7656-3.5-2.9062-3.5-1.3594 0-2.3125 0.76562-2.7188 1.5469h-0.03125l-0.09375-1.3594h-1.3281c0.046875 0.67188 0.0625 1.375 0.0625 2.2344z"/>
   </g>
   <g id="use12029" transform="translate(516.04 2554.8)" style="fill:#87caca">
    <path id="path22742" d="m0.65625-0.39062c0.57812 0.34375 1.4219 0.5625 2.3281 0.5625 1.9531 0 3.0781-1.0156 3.0781-2.4688 0-1.2188-0.73438-1.9375-2.1719-2.4844-1.0625-0.40625-1.5625-0.71875-1.5625-1.3906 0-0.625 0.5-1.125 1.375-1.125 0.76562 0 1.375 0.26562 1.6875 0.46875l0.375-1.0781c-0.45312-0.28125-1.1875-0.51562-2.0156-0.51562-1.7812 0-2.8438 1.0938-2.8438 2.4219 0 0.98438 0.6875 1.7969 2.1719 2.3281 1.1094 0.40625 1.5312 0.79688 1.5312 1.5156 0 0.67188-0.51562 1.2188-1.5938 1.2188-0.75 0-1.5312-0.29688-1.9844-0.59375z"/>
   </g>
  </g>
  <g id="use12033" transform="matrix(.35278 0 0 .35278 102.08 116.02)" style="fill:#1c1c19">
   <path id="path22746" d="m1.5312 0h1.8438v-6.1094c0-0.35938 0.015625-0.625 0.125-0.875 0.32812-1 1.2656-1.8438 2.4688-1.8438 1.7344 0 2.3438 1.375 2.3438 3.0156v5.8125h1.8281v-6.0312c0-3.4844-2.1719-4.3281-3.5312-4.3281-0.6875 0-1.3438 0.21875-1.875 0.53125-0.57812 0.3125-1.0312 0.76562-1.3281 1.2969h-0.03125v-6.3281h-1.8438z"/>
  </g>
  <g id="use12037" transform="matrix(.35278 0 0 .35278 160.13 116.02)" style="fill:#1c1c19">
   <path id="path22750" d="m5.7969 0 2-7.3438c0.53125-1.8125 0.84375-3.2031 1.0938-4.6094h0.046875c0.1875 1.4219 0.48438 2.8125 0.92188 4.6094l1.7656 7.3438h1.9062l4-14.094h-1.8594l-1.8594 7.1094c-0.4375 1.75-0.84375 3.3281-1.1406 4.875h-0.03125c-0.21875-1.4844-0.59375-3.1562-0.98438-4.8438l-1.7188-7.1406h-1.9062l-1.875 7.1094c-0.48438 1.8125-0.92188 3.4844-1.1562 4.8906h-0.046875c-0.25-1.3594-0.625-3.1094-1.0469-4.875l-1.6719-7.125h-1.9219l3.5781 14.094z"/>
  </g>
  <g id="use12041" transform="matrix(.35278 0 0 .35278 85.972 90.302)">
   <path id="path22754" d="m1.4062-3.6875 1.4688-0.125c-0.054687 0.57422 0.00781 1.0469 0.1875 1.4219 0.1875 0.36719 0.51953 0.66406 1 0.89062 0.47656 0.21875 1.0391 0.32812 1.6875 0.32812 0.58203 0 1.1094-0.082031 1.5781-0.25 0.47656-0.17578 0.85156-0.41016 1.125-0.70312 0.26953-0.30078 0.4375-0.62891 0.5-0.98438 0.070313-0.36328 0.023438-0.67578-0.14062-0.9375-0.15625-0.26953-0.45312-0.5-0.89062-0.6875-0.28125-0.11328-0.92969-0.29688-1.9375-0.54688-1-0.25781-1.6953-0.5-2.0781-0.71875-0.49219-0.28906-0.83594-0.64453-1.0312-1.0625-0.1875-0.42578-0.23047-0.90625-0.125-1.4375 0.10156-0.57031 0.36719-1.1094 0.79688-1.6094 0.42578-0.50781 0.97656-0.89453 1.6562-1.1562 0.67578-0.25781 1.3984-0.39062 2.1719-0.39062 0.85156 0 1.5781 0.14062 2.1719 0.42188 0.59375 0.27344 1.0156 0.67188 1.2656 1.2031s0.32812 1.1328 0.23438 1.7969l-1.4688 0.10938c0.039063-0.71875-0.125-1.2578-0.5-1.625-0.375-0.375-1.0078-0.5625-1.8906-0.5625-0.91797 0-1.6172 0.16797-2.0938 0.5-0.48047 0.33594-0.76562 0.74219-0.85938 1.2188-0.074219 0.40625 0.00781 0.74609 0.25 1.0156 0.23828 0.26172 0.94531 0.53125 2.125 0.8125 1.1875 0.28125 1.9883 0.52734 2.4062 0.73438 0.61328 0.30469 1.0352 0.69531 1.2656 1.1719 0.22656 0.46875 0.28516 1.0117 0.17188 1.625-0.11719 0.60547-0.40234 1.1797-0.85938 1.7188-0.44922 0.54297-1.0273 0.96484-1.7344 1.2656-0.71094 0.30078-1.4688 0.45312-2.2812 0.45312-1.043 0-1.8867-0.15234-2.5312-0.45312-0.63672-0.3125-1.1016-0.76953-1.3906-1.375-0.29297-0.60156-0.375-1.2891-0.25-2.0625z"/>
  </g>
  <path id="path12045" d="m94.91 89.011h-3.2908v-0.46852h3.2908zm-3.2908-1.6426h3.2908v0.46856h-3.2908z"/>
  <g id="use12047" transform="matrix(.35278 0 0 .35278 96.206 90.309)">
   <path id="path22758" d="m8.0625-1.3594v1.3594h-7.5781c-0.011719-0.34375 0.046875-0.67188 0.17188-0.98438 0.1875-0.50781 0.49219-1.0156 0.92188-1.5156 0.42578-0.5 1.0391-1.0781 1.8438-1.7344 1.2383-1.0195 2.0781-1.8281 2.5156-2.4219 0.4375-0.60156 0.65625-1.1719 0.65625-1.7031 0-0.55078-0.19922-1.0195-0.59375-1.4062-0.39844-0.38281-0.91797-0.57812-1.5625-0.57812-0.67969 0-1.2188 0.20312-1.625 0.60938s-0.60938 0.96875-0.60938 1.6875l-1.4531-0.14062c0.10156-1.082 0.47656-1.9062 1.125-2.4688 0.64453-0.5625 1.5078-0.84375 2.5938-0.84375 1.1016 0 1.9727 0.30859 2.6094 0.92188 0.64453 0.60547 0.96875 1.3555 0.96875 2.25 0 0.46094-0.09375 0.91406-0.28125 1.3594-0.1875 0.4375-0.5 0.90234-0.9375 1.3906-0.4375 0.49219-1.1641 1.1641-2.1719 2.0156-0.84375 0.71094-1.3867 1.1953-1.625 1.4531-0.24219 0.25-0.4375 0.5-0.59375 0.75z"/>
  </g>
  <path id="path12051" d="m102.78 89.133 0.2825-1.5324h0.71107l0.0868-0.46852h-2.8277c-0.3886 0-0.62838 0.23562-0.71658 0.70556h0.35278c0.0303-0.1585 0.20119-0.23703 0.51401-0.23703-0.1006 0.55122-0.1943 1.0625-0.2825 1.5324-0.10197 0.54709-0.25356 0.93984-0.452 1.1741h0.46854c4e-3 0 0.0551-0.05789 0.15158-0.17639 0.0978-0.11716 0.19844-0.45064 0.30041-0.99773l0.28801-1.5324h0.93707l-0.2825 1.5324c-0.14607 0.78274 0.0152 1.1741 0.48507 1.1741 0.23565 0 0.42168-0.15572 0.55673-0.46856-0.51401 0.23566-0.70556 0-0.57327-0.70556"/>
  <g id="use12053" transform="matrix(.35278 0 0 .35278 103.61 90.302)">
   <path id="path22762" d="m1.0469 0 1.5625-8.2969h1.2656l-0.23438 1.25c0.42578-0.58203 0.78906-0.96875 1.0938-1.1562 0.3125-0.1875 0.63281-0.28125 0.96875-0.28125 0.46875 0 0.91406 0.15234 1.3438 0.45312l-0.71875 1.2969c-0.3125-0.19531-0.64062-0.29688-0.98438-0.29688-0.30469 0-0.59375 0.09375-0.875 0.28125-0.27344 0.17969-0.49219 0.43359-0.65625 0.76562-0.25 0.5-0.43359 1.0469-0.54688 1.6406l-0.8125 4.3438z"/>
  </g>
  <g id="use12057" transform="matrix(.35278 0 0 .35278 123.22 96.889)">
   <path id="path22766" d="m1.1719 0 2.1406-11.453h1.5156l-1.8906 10.094h5.6406l-0.25 1.3594z"/>
  </g>
  <path id="path12061" d="m132.16 95.597h-3.2908v-0.46856h3.2908zm-3.2908-1.6426h3.2908v0.46852h-3.2908z"/>
  <g id="use12063" transform="matrix(.35278 0 0 .35278 133.45 96.894)">
   <path id="path22770" d="m8.0625-1.3594v1.3594h-7.5781c-0.011719-0.34375 0.046875-0.67188 0.17188-0.98438 0.1875-0.50781 0.49219-1.0156 0.92188-1.5156 0.42578-0.5 1.0391-1.0781 1.8438-1.7344 1.2383-1.0195 2.0781-1.8281 2.5156-2.4219 0.4375-0.60156 0.65625-1.1719 0.65625-1.7031 0-0.55078-0.19922-1.0195-0.59375-1.4062-0.39844-0.38281-0.91797-0.57812-1.5625-0.57812-0.67969 0-1.2188 0.20312-1.625 0.60938s-0.60938 0.96875-0.60938 1.6875l-1.4531-0.14062c0.10156-1.082 0.47656-1.9062 1.125-2.4688 0.64453-0.5625 1.5078-0.84375 2.5938-0.84375 1.1016 0 1.9727 0.30859 2.6094 0.92188 0.64453 0.60547 0.96875 1.3555 0.96875 2.25 0 0.46094-0.09375 0.91406-0.28125 1.3594-0.1875 0.4375-0.5 0.90234-0.9375 1.3906-0.4375 0.49219-1.1641 1.1641-2.1719 2.0156-0.84375 0.71094-1.3867 1.1953-1.625 1.4531-0.24219 0.25-0.4375 0.5-0.59375 0.75z"/>
  </g>
  <path id="path12067" d="m140.02 95.718 0.2825-1.5324h0.71106l0.0868-0.46856h-2.8277c-0.38861 0-0.62839 0.23566-0.71658 0.70556h0.35277c0.0303-0.15847 0.2012-0.237 0.51401-0.237-0.10059 0.55122-0.1943 1.0625-0.2825 1.5324-0.10197 0.54709-0.25355 0.93846-0.45199 1.1741h0.46853c4e-3 0 0.0551-0.05923 0.15159-0.17639 0.0978-0.11712 0.19844-0.4506 0.30041-0.99769l0.28801-1.5324h0.93706l-0.28249 1.5324c-0.14608 0.78274 0.0152 1.1741 0.48506 1.1741 0.23565 0 0.42169-0.15709 0.55673-0.46852-0.514 0.23566-0.70555 0-0.57326-0.70556"/>
  <g id="use12069" transform="matrix(.35278 0 0 .35278 140.86 96.887)">
   <path id="path22774" d="m1.0469 0 1.5625-8.2969h1.2656l-0.23438 1.25c0.42578-0.58203 0.78906-0.96875 1.0938-1.1562 0.3125-0.1875 0.63281-0.28125 0.96875-0.28125 0.46875 0 0.91406 0.15234 1.3438 0.45312l-0.71875 1.2969c-0.3125-0.19531-0.64062-0.29688-0.98438-0.29688-0.30469 0-0.59375 0.09375-0.875 0.28125-0.27344 0.17969-0.49219 0.43359-0.65625 0.76562-0.25 0.5-0.43359 1.0469-0.54688 1.6406l-0.8125 4.3438z"/>
  </g>
  <path id="path12073" d="m109.23 99.081c0 3.6408-7.0073 6.5925-15.653 6.5925-8.6458 0-15.655-2.9518-15.655-6.5925 0-3.6422 7.0087-6.5939 15.655-6.5939 8.6458 0 15.653 2.9518 15.653 6.5939" style="fill:#cae6e3"/>
  <path id="path12075" d="m109.23 99.081c0 3.6408-7.0073 6.5925-15.653 6.5925-8.6458 0-15.655-2.9518-15.655-6.5925 0-3.6422 7.0087-6.5939 15.655-6.5939 8.6458 0 15.653 2.9518 15.653 6.5939z" style="fill:none;stroke-miterlimit:10;stroke-width:.35278;stroke:#1c1c19"/>
  <path id="path12077" d="m109.23 129.29c0 3.6408-7.0073 6.5925-15.653 6.5925-8.6458 0-15.655-2.9518-15.655-6.5925 0-3.6421 7.0087-6.5939 15.655-6.5939 8.6458 0 15.653 2.9518 15.653 6.5939" style="fill:#cae6e3"/>
  <path id="path12079" d="m109.23 129.29c0 3.6408-7.0073 6.5925-15.653 6.5925-8.6458 0-15.655-2.9518-15.655-6.5925 0-3.6421 7.0087-6.5939 15.655-6.5939 8.6458 0 15.653 2.9518 15.653 6.5939z" style="fill:none;stroke-miterlimit:10;stroke-width:.35278;stroke:#1c1c19"/>
  <path id="path12081" d="m109.23 129.14v-1.2347" style="fill:none;stroke-miterlimit:10;stroke-width:.24553;stroke:#e10511"/>
  <path id="path12083" d="m109.23 126.9v-26.236" style="fill:none;stroke-dasharray:2.33962, 1.00259;stroke-miterlimit:10;stroke-width:.24553;stroke:#e10511"/>
  <path id="path12085" d="m109.23 100.16v-1.2347" style="fill:none;stroke-miterlimit:10;stroke-width:.24553;stroke:#e10511"/>
  <path id="path12087" d="m157.44 98.929v1.2347" style="fill:none;stroke-miterlimit:10;stroke-width:.24553;stroke:#e10511"/>
  <path id="path12089" d="m157.44 101.17v26.236" style="fill:none;stroke-dasharray:2.33962, 1.00259;stroke-miterlimit:10;stroke-width:.24553;stroke:#e10511"/>
  <path id="path12091" d="m157.44 127.91v1.2347" style="fill:none;stroke-miterlimit:10;stroke-width:.24553;stroke:#e10511"/>
  <path id="path12093" d="m157.44 99.081h-48.209" style="fill:none;stroke-miterlimit:10;stroke-width:.30092;stroke:#1c1c19"/>
  <path id="path12095" d="m157.44 129.14h-48.209" style="fill:none;stroke-miterlimit:10;stroke-width:.30092;stroke:#1c1c19"/>
 </g>
</svg>
