<svg id="svg44778" version="1.1" viewBox="0 0 19.945 5.1153" xmlns="http://www.w3.org/2000/svg">
 <title id="title44822">img_36</title>
 <g id="layer1" transform="translate(-67.891 -121.42)">
  <g id="use37211" transform="matrix(.35278 0 0 .35278 67.61 126.25)" style="fill:#1c1c19">
   <path id="path44732" d="m11.125-6.7344v-1.2031h-10.328v1.2031zm0 3.9219v-1.2031h-10.328v1.2031z"/>
  </g>
  <g id="g44820">
   <g id="use37215" transform="matrix(.35278 0 0 .35278 73.381 126.25)" style="fill:#1c1c19">
    <path id="path44736" d="m1.9219 0.20312c0.42188 0.015625 0.98438 0 1.625-0.10938 1.3906-0.15625 2.7656-0.75 3.7656-1.7344 1.2812-1.2344 2.25-3.2344 2.25-6.0938 0-3.3281-1.6406-5.4844-4.2969-5.4844-2.6719 0-4.4531 2.1562-4.4531 4.625 0 2.2188 1.5 3.9688 3.8438 3.9688 1.2969 0 2.3438-0.51562 3.0625-1.3906h0.0625c-0.23438 1.5312-0.85938 2.6719-1.7188 3.4531-0.75 0.70312-1.7031 1.125-2.7188 1.2656-0.60938 0.0625-1.0469 0.09375-1.4219 0.0625zm3.2031-12.078c1.8281 0 2.6562 1.6875 2.6562 3.9219 0 0.26562-0.0625 0.46875-0.15625 0.64062-0.46875 0.76562-1.3906 1.3594-2.5625 1.3594-1.5156 0-2.5-1.1406-2.5-2.7656 0-1.8438 1.0625-3.1562 2.5625-3.1562z"/>
   </g>
   <g id="use37217" transform="matrix(.35278 0 0 .35278 77.036 126.25)" style="fill:#1c1c19">
    <path id="path44740" d="m5.2344-13.219c-2.6406 0-4.5156 2.4062-4.5156 6.7656 0.046875 4.2969 1.7656 6.6719 4.2969 6.6719 2.8906 0 4.5312-2.4375 4.5312-6.8594 0-4.1406-1.5625-6.5781-4.3125-6.5781zm-0.09375 1.3594c1.8125 0 2.6406 2.0938 2.6406 5.2969 0 3.3281-0.85938 5.4219-2.6562 5.4219-1.6094 0-2.6406-1.9219-2.6406-5.2969 0-3.5469 1.1094-5.4219 2.6562-5.4219z"/>
   </g>
  </g>
  <g id="use37221" transform="matrix(.35278 0 0 .35278 82.222 126.25)" style="fill:#1c1c19">
   <path id="path44744" d="m1.3125 0.79688 5.6094-14.5h-1.3594l-5.5781 14.5z"/>
  </g>
  <g id="use37223" transform="matrix(.35278 0 0 .35278 84.677 126.25)" style="fill:#1c1c19">
   <path id="path44748" d="m0.84375-0.65625c0.64062 0.42188 1.9219 0.875 3.375 0.875 3.125 0 4.7344-1.8125 4.7344-3.9062 0-1.8125-1.2969-3.0156-2.8906-3.3281v-0.046875c1.5938-0.57812 2.3906-1.7188 2.3906-3.0625 0-1.5781-1.1562-3.0938-3.7188-3.0938-1.3906 0-2.7188 0.5-3.3906 1l0.45312 1.2812c0.5625-0.40625 1.5625-0.85938 2.6094-0.85938 1.6094 0 2.2812 0.92188 2.2812 1.9531 0 1.5469-1.625 2.2031-2.9062 2.2031h-0.98438v1.3281h0.98438c1.7031 0 3.3438 0.76562 3.3594 2.5938 0.015625 1.0781-0.6875 2.5156-2.9375 2.5156-1.2188 0-2.3906-0.5-2.8906-0.8125z"/>
  </g>
 </g>
</svg>
