<svg xmlns="http://www.w3.org/2000/svg" xmlns:xlink="http://www.w3.org/1999/xlink" viewBox="0 0 173.92 33.66"><defs><clipPath id="clip-path" transform="translate(-181.34 -3121.63)"><rect width="930" height="4943.41" style="fill:none"/></clipPath></defs><title>img_9</title><g id="Layer_2" data-name="Layer 2"><g id="Layer_1-2" data-name="Layer 1"><g id="Formula_4"><g style="clip-path:url(#clip-path)"><path d="M183.63,3144.07l-2.29-11.45H183l1.42,8.32c.11.67.2,1.29.25,1.87.29-.62.62-1.25,1-1.87l4.65-8.32h1.55l-6.63,11.45Z" transform="translate(-181.34 -3121.63)"/><path d="M195.13,3135.75h9.33v1.33h-9.33Zm9.33,4.66h-9.33v-1.33h9.33Z" transform="translate(-181.34 -3121.63)"/><line x1="29.79" y1="17.45" x2="41.79" y2="17.45" style="fill:none;stroke:#000;stroke-linecap:square;stroke-miterlimit:10"/></g><path d="M217.3,3133.08v-2.74h-5v-1.29l5.23-7.42h1.15v7.42h1.54v1.29h-1.54v2.74Zm0-4v-5.16l-3.59,5.16Z" transform="translate(-181.34 -3121.63)"/><path d="M212.8,3152.06l1.41-.19a3.12,3.12,0,0,0,.82,1.73,2,2,0,0,0,1.42.52,2.32,2.32,0,0,0,1.68-.68,2.35,2.35,0,0,0,.68-1.71,2.18,2.18,0,0,0-.63-1.6,2.23,2.23,0,0,0-1.61-.62,4.25,4.25,0,0,0-1,.15l.16-1.23H216a2.81,2.81,0,0,0,1.61-.47,1.59,1.59,0,0,0,.72-1.44,1.7,1.7,0,0,0-.52-1.28,1.86,1.86,0,0,0-1.35-.51,1.9,1.9,0,0,0-1.37.52,2.58,2.58,0,0,0-.7,1.54l-1.41-.25a3.61,3.61,0,0,1,1.17-2.19,3.39,3.39,0,0,1,2.28-.78,3.7,3.7,0,0,1,1.72.41,2.86,2.86,0,0,1,1.63,2.57,2.35,2.35,0,0,1-.4,1.35,2.73,2.73,0,0,1-1.18,1,2.69,2.69,0,0,1,1.58,1,3,3,0,0,1,.56,1.85,3.36,3.36,0,0,1-1.09,2.54,3.84,3.84,0,0,1-2.77,1.05,3.59,3.59,0,0,1-2.5-.9A3.45,3.45,0,0,1,212.8,3152.06Z" transform="translate(-181.34 -3121.63)"/><g style="clip-path:url(#clip-path)"><path d="M234.75,3140.75l.8-4.34h2l.25-1.33h-8c-1.1,0-1.78.67-2,2h1c.08-.45.57-.67,1.45-.67-.28,1.56-.55,3-.8,4.34a7.3,7.3,0,0,1-1.28,3.33h1.33a6.21,6.21,0,0,0,.43-.5,7.85,7.85,0,0,0,.85-2.83l.82-4.34h2.65l-.8,4.34q-.61,3.33,1.38,3.33c.67,0,1.19-.44,1.58-1.33q-2.19,1-1.63-2" transform="translate(-181.34 -3121.63)"/><path d="M242.25,3130.46h1.13a11.79,11.79,0,0,0,0,16h-1.13a11.82,11.82,0,0,1,0-16" transform="translate(-181.34 -3121.63)"/></g><path d="M249.09,3144.08h-1.41v-9a7.78,7.78,0,0,1-1.33,1,9.39,9.39,0,0,1-1.48.72v-1.35a8.64,8.64,0,0,0,2.06-1.35,5.17,5.17,0,0,0,1.25-1.53h.91Z" transform="translate(-181.34 -3121.63)"/><path d="M260.18,3142.73v1.35h-7.57a2.52,2.52,0,0,1,.16-1,5.07,5.07,0,0,1,.93-1.52,13.93,13.93,0,0,1,1.84-1.73,15.64,15.64,0,0,0,2.52-2.43,2.9,2.9,0,0,0,.66-1.69,1.87,1.87,0,0,0-.6-1.41,2.42,2.42,0,0,0-3.18,0,2.28,2.28,0,0,0-.62,1.69l-1.45-.15a3.52,3.52,0,0,1,1.12-2.46,3.79,3.79,0,0,1,2.6-.85,3.62,3.62,0,0,1,2.61.91,3,3,0,0,1,1,2.27,3.37,3.37,0,0,1-.28,1.35,5.47,5.47,0,0,1-.93,1.4,24.23,24.23,0,0,1-2.17,2c-.84.7-1.39,1.18-1.63,1.44a5,5,0,0,0-.59.76Z" transform="translate(-181.34 -3121.63)"/><path d="M261.78,3141.08l1.48-.12a2.68,2.68,0,0,0,.76,1.62,2.08,2.08,0,0,0,1.44.54,2.25,2.25,0,0,0,1.72-.77,2.86,2.86,0,0,0,.7-2,2.62,2.62,0,0,0-.67-1.9,2.37,2.37,0,0,0-1.77-.69,2.42,2.42,0,0,0-1.23.31,2.37,2.37,0,0,0-.86.8l-1.32-.17,1.11-5.89h5.7v1.35h-4.57l-.62,3.08a3.73,3.73,0,0,1,2.16-.72,3.39,3.39,0,0,1,2.53,1,3.62,3.62,0,0,1,1,2.67,4.18,4.18,0,0,1-.91,2.68,3.64,3.64,0,0,1-3,1.4,3.73,3.73,0,0,1-2.55-.88A3.44,3.44,0,0,1,261.78,3141.08Z" transform="translate(-181.34 -3121.63)"/><g style="clip-path:url(#clip-path)"><path d="M271.25,3130.46h-1.12a11.82,11.82,0,0,1,0,16h1.12a11.79,11.79,0,0,0,0-16" transform="translate(-181.34 -3121.63)"/><path d="M283.13,3138.11q2-2.68,5-.34c2,1.56,3.67,1.45,5-.35v-1.34c-1.33,1.79-3,1.91-5,.34s-3.67-1.44-5,.35Zm0,3.33q2-2.67,5-.33t5-.34v-1.33q-2,2.67-5,.33t-5,.34Z" transform="translate(-181.34 -3121.63)"/></g><path d="M296.79,3141.08l1.48-.12a2.68,2.68,0,0,0,.76,1.62,2.08,2.08,0,0,0,1.44.54,2.25,2.25,0,0,0,1.72-.77,2.86,2.86,0,0,0,.7-2,2.62,2.62,0,0,0-.67-1.9,2.37,2.37,0,0,0-1.77-.69,2.44,2.44,0,0,0-1.23.31,2.37,2.37,0,0,0-.86.8l-1.32-.17,1.11-5.89h5.7v1.35h-4.57l-.62,3.08a3.73,3.73,0,0,1,2.16-.72,3.42,3.42,0,0,1,2.54,1,3.65,3.65,0,0,1,1,2.67,4.18,4.18,0,0,1-.91,2.68,3.63,3.63,0,0,1-3,1.4,3.73,3.73,0,0,1-2.55-.88A3.44,3.44,0,0,1,296.79,3141.08Z" transform="translate(-181.34 -3121.63)"/><path d="M313.18,3142.73v1.35h-7.57a2.52,2.52,0,0,1,.16-1,5.07,5.07,0,0,1,.93-1.52,13.93,13.93,0,0,1,1.84-1.73,15.64,15.64,0,0,0,2.52-2.43,2.9,2.9,0,0,0,.66-1.69,1.87,1.87,0,0,0-.6-1.41,2.42,2.42,0,0,0-3.18,0,2.28,2.28,0,0,0-.62,1.69l-1.45-.15a3.52,3.52,0,0,1,1.12-2.46,3.79,3.79,0,0,1,2.6-.85,3.62,3.62,0,0,1,2.61.91,3,3,0,0,1,1,2.27,3.37,3.37,0,0,1-.28,1.35,5.47,5.47,0,0,1-.93,1.4,24.23,24.23,0,0,1-2.17,2c-.84.7-1.39,1.18-1.63,1.44a5,5,0,0,0-.59.76Z" transform="translate(-181.34 -3121.63)"/><path d="M314.79,3141.06l1.41-.19a3,3,0,0,0,.82,1.72,2,2,0,0,0,1.42.53,2.25,2.25,0,0,0,1.67-.69,2.3,2.3,0,0,0,.69-1.7,2.13,2.13,0,0,0-.64-1.6,2.16,2.16,0,0,0-1.6-.63,3.85,3.85,0,0,0-1,.16l.16-1.24.23,0a2.92,2.92,0,0,0,1.61-.47,1.59,1.59,0,0,0,.72-1.44,1.72,1.72,0,0,0-.52-1.29,1.89,1.89,0,0,0-1.35-.5,1.92,1.92,0,0,0-1.37.51,2.55,2.55,0,0,0-.7,1.55l-1.41-.25a3.61,3.61,0,0,1,1.17-2.19,3.39,3.39,0,0,1,2.28-.78,3.69,3.69,0,0,1,1.72.4,2.94,2.94,0,0,1,1.21,1.1,2.81,2.81,0,0,1,.42,1.48,2.48,2.48,0,0,1-.4,1.35,2.8,2.8,0,0,1-1.18,1,2.65,2.65,0,0,1,1.58,1,3,3,0,0,1,.56,1.85,3.41,3.41,0,0,1-1.09,2.54,3.84,3.84,0,0,1-2.77,1,3.57,3.57,0,0,1-2.5-.9A3.41,3.41,0,0,1,314.79,3141.06Z" transform="translate(-181.34 -3121.63)"/><g style="clip-path:url(#clip-path)"><path d="M334.16,3141l1.35.18a4.57,4.57,0,0,1-1.58,2.24,4,4,0,0,1-2.44.81,2.94,2.94,0,0,1-2.53-1.11,4,4,0,0,1-.44-3.19,6.66,6.66,0,0,1,.89-2.36,4.14,4.14,0,0,1,1.63-1.51,4.68,4.68,0,0,1,2.08-.5,3,3,0,0,1,2.08.68,2.52,2.52,0,0,1,.74,1.94l-1.41.21a1.8,1.8,0,0,0-.45-1.25,1.48,1.48,0,0,0-1.12-.43,2.67,2.67,0,0,0-1.87.76,4.38,4.38,0,0,0-1.12,2.42,3.37,3.37,0,0,0,.19,2.42,1.69,1.69,0,0,0,1.53.76,2.4,2.4,0,0,0,1.48-.5A3.18,3.18,0,0,0,334.16,3141Z" transform="translate(-181.34 -3121.63)"/><path d="M336.18,3144.07l1.55-8.3H339l-.22,1.17a3.92,3.92,0,0,1,1.23-1,3.24,3.24,0,0,1,1.54-.37,2.33,2.33,0,0,1,1.44.38,1.54,1.54,0,0,1,.63,1.07,3.7,3.7,0,0,1,2.84-1.45,2.14,2.14,0,0,1,1.77.68,2.59,2.59,0,0,1,.27,2.11l-1.07,5.69H346l1-5.22a3.54,3.54,0,0,0,.09-1.22.89.89,0,0,0-.38-.6,1.35,1.35,0,0,0-.8-.22,2.35,2.35,0,0,0-1.57.58,3.15,3.15,0,0,0-.92,1.86l-.91,4.82h-1.4l1-5.39a2.14,2.14,0,0,0-.08-1.4,1.07,1.07,0,0,0-1-.47,2.37,2.37,0,0,0-2.06,1.22,5.94,5.94,0,0,0-.55,1.74l-.81,4.3Z" transform="translate(-181.34 -3121.63)"/></g><path d="M349.63,3134.82l1.06-.14a2.3,2.3,0,0,0,.62,1.29,1.53,1.53,0,0,0,1.06.39,1.73,1.73,0,0,0,1.26-.51,1.76,1.76,0,0,0,.51-1.28,1.62,1.62,0,0,0-1.68-1.67,3,3,0,0,0-.75.12l.12-.93H352a2.12,2.12,0,0,0,1.21-.35,1.19,1.19,0,0,0,.54-1.08,1.27,1.27,0,0,0-.39-1,1.36,1.36,0,0,0-1-.38,1.47,1.47,0,0,0-1,.38,2,2,0,0,0-.53,1.16l-1.05-.18a2.71,2.71,0,0,1,.88-1.65,2.51,2.51,0,0,1,1.7-.58,2.86,2.86,0,0,1,1.3.3,2.24,2.24,0,0,1,.9.82,2.13,2.13,0,0,1,.32,1.11,1.84,1.84,0,0,1-.3,1,2.09,2.09,0,0,1-.89.72,2,2,0,0,1,1.19.73,2.23,2.23,0,0,1,.42,1.39,2.54,2.54,0,0,1-.82,1.9,2.87,2.87,0,0,1-2.08.79,2.67,2.67,0,0,1-1.87-.68A2.6,2.6,0,0,1,349.63,3134.82Z" transform="translate(-181.34 -3121.63)"/></g></g></g></svg>