<svg id="svg29921" version="1.1" viewBox="0 0 53.24 5.231" xmlns="http://www.w3.org/2000/svg">
 <title id="title30056">img_14</title>
 <g id="layer1" transform="translate(-52.755 -136.48)">
  <g id="g25361" transform="matrix(.35278 0 0 .35278 -51.968 -574.42)">
   <g id="use25359" transform="translate(296.85 2026.6)">
    <path id="path29825" d="m11.5 0h-2.5156l-0.51562-2.6094h-4.5781l-1.4375 2.6094h-2.4531l6.6094-11.453h2.4375zm-3.4219-4.5312-0.78125-4.25-2.3438 4.25z"/>
   </g>
  </g>
  <path id="path25363" d="m63.105 139.23h-3.2908v-0.46853h3.2908zm-3.2908-1.6426h3.2908v0.46856h-3.2908z"/>
  <g id="g30039">
   <g id="g25375" transform="matrix(.35278 0 0 .35278 -51.968 -574.42)">
    <g id="use25365" transform="translate(333.85 2026.6)">
     <path id="path29829" d="m1.1719 0 2.1406-11.453h1.5156l-1.8906 10.094h5.6406l-0.25 1.3594z"/>
    </g>
    <g id="use25367" transform="translate(342.86 2026.6)">
     <path id="path29833" d="m7.2344-2.6719 1.4219 0.17188c-0.38672 0.85547-0.93359 1.5156-1.6406 1.9844-0.71094 0.46875-1.543 0.70312-2.5 0.70312-1.2188 0-2.1172-0.375-2.6875-1.125-0.5625-0.75-0.71875-1.7969-0.46875-3.1406 0.25781-1.3945 0.82031-2.4766 1.6875-3.25 0.86328-0.76953 1.8672-1.1562 3.0156-1.1562 1.1016 0 1.9375 0.38281 2.5 1.1406 0.5625 0.75 0.71094 1.8086 0.45312 3.1719-0.011719 0.085937-0.03125 0.21094-0.0625 0.375h-6.1875c-0.125 0.91797 0 1.6211 0.375 2.1094 0.375 0.48047 0.90625 0.71875 1.5938 0.71875 0.51953 0 0.98438-0.13281 1.3906-0.40625 0.41406-0.26953 0.78516-0.70312 1.1094-1.2969zm-4.1875-2.2812h4.625c0.070313-0.69531-0.00781-1.2188-0.23438-1.5625-0.34375-0.53906-0.87109-0.8125-1.5781-0.8125-0.64844 0-1.2344 0.21875-1.7656 0.65625-0.52344 0.42969-0.87109 1-1.0469 1.7188z"/>
    </g>
    <g id="use25369" transform="translate(351.87 2026.6)">
     <path id="path29837" d="m1.0625 0 1.5625-8.2969h1.2656l-0.21875 1.1719c0.76953-0.90625 1.7344-1.3594 2.8906-1.3594 0.5 0 0.9375 0.089844 1.3125 0.26562 0.38281 0.17969 0.65625 0.41406 0.8125 0.70312 0.15625 0.29297 0.23828 0.64062 0.25 1.0469 0 0.26172-0.0625 0.71484-0.1875 1.3594l-0.95312 5.1094h-1.4062l0.95312-5.0469c0.10156-0.57031 0.125-1 0.0625-1.2812-0.054687-0.28906-0.20312-0.51953-0.45312-0.6875-0.24219-0.16406-0.54688-0.25-0.92188-0.25-0.60547 0-1.1562 0.19531-1.6562 0.57812-0.5 0.375-0.85547 1.0938-1.0625 2.1562l-0.84375 4.5312z"/>
    </g>
    <g id="use25371" transform="translate(360.88 2026.6)">
     <path id="path29841" d="m0.67188 0.6875 1.3281 0.20312c-0.023437 0.42578 0.078125 0.73438 0.29688 0.92188 0.3125 0.25781 0.76953 0.39062 1.375 0.39062 0.64453 0 1.1641-0.13281 1.5625-0.39062 0.40625-0.26172 0.71094-0.625 0.92188-1.0938 0.125-0.28125 0.27344-0.88281 0.45312-1.8125-0.75 0.73047-1.5859 1.0938-2.5 1.0938-1.1484 0-1.9531-0.41016-2.4219-1.2344-0.46875-0.82031-0.60156-1.8125-0.39062-2.9688 0.15625-0.78906 0.4375-1.5195 0.84375-2.1875 0.41406-0.66406 0.92969-1.1797 1.5469-1.5469 0.61328-0.36328 1.2852-0.54688 2.0156-0.54688 0.97656 0 1.7109 0.39844 2.2031 1.1875l0.1875-1h1.2969l-1.3438 7.1719c-0.25 1.2891-0.55859 2.207-0.92188 2.75-0.35547 0.53906-0.85156 0.96875-1.4844 1.2812-0.63672 0.3125-1.3711 0.46875-2.2031 0.46875-0.99219 0-1.7461-0.22656-2.2656-0.67188-0.52344-0.44922-0.6875-1.1211-0.5-2.0156zm2.1094-4.9844c-0.21094 1.0859-0.14844 1.875 0.1875 2.375 0.34375 0.5 0.83594 0.75 1.4844 0.75 0.64453 0 1.2344-0.24219 1.7656-0.73438 0.53125-0.5 0.89453-1.2812 1.0938-2.3438 0.1875-1.0195 0.10156-1.7852-0.25-2.2969-0.34375-0.51953-0.83594-0.78125-1.4688-0.78125-0.625 0-1.2031 0.25781-1.7344 0.76562-0.53125 0.51172-0.89062 1.2656-1.0781 2.2656z"/>
    </g>
    <g id="use25373" transform="translate(369.89 2026.6)">
     <path id="path29845" d="m4.3594-1.2656-0.03125 1.25c-0.40625 0.082031-0.76562 0.125-1.0781 0.125-0.51172 0-0.89062-0.078125-1.1406-0.23438-0.25-0.16406-0.41406-0.37891-0.48438-0.64062-0.0625-0.26953-0.015625-0.82812 0.14062-1.6719l0.89062-4.7656h-1.0312l0.21875-1.0938h1.0312l0.375-2.0625 1.5625-0.84375-0.53125 2.9062h1.4062l-0.21875 1.0938h-1.4062l-0.90625 4.8438c-0.074219 0.40625-0.10156 0.66797-0.078125 0.78125 0.03125 0.11719 0.09375 0.21094 0.1875 0.28125 0.10156 0.0625 0.25781 0.09375 0.46875 0.09375 0.15625 0 0.36328-0.019531 0.625-0.0625z"/>
    </g>
   </g>
   <g id="g25379" transform="matrix(.35278 0 0 .35278 -51.968 -574.42)">
    <g id="use25377" transform="translate(373.85 2026.6)">
     <path id="path29849" d="m1.0625 0 2.1406-11.453h1.4062l-0.76562 4.1094c0.80078-0.75781 1.7031-1.1406 2.7031-1.1406 0.61328 0 1.125 0.12109 1.5312 0.35938 0.40625 0.24219 0.66406 0.57422 0.78125 1 0.11328 0.42969 0.09375 1.0469-0.0625 1.8594l-0.98438 5.2656h-1.4062l0.98438-5.2656c0.13281-0.69531 0.078125-1.207-0.17188-1.5312-0.24219-0.32031-0.64062-0.48438-1.2031-0.48438-0.41797 0-0.82812 0.10938-1.2344 0.32812-0.39844 0.21875-0.71094 0.51562-0.9375 0.89062-0.23047 0.36719-0.40234 0.87109-0.51562 1.5156l-0.85938 4.5469z"/>
    </g>
   </g>
  </g>
  <path id="path25381" d="m85.92 140.06h0.47404l2.8167-3.0592h-0.47404zm2.8167 0h0.47404l-2.8167-3.0592h-0.47404z"/>
  <g id="g30054">
   <g id="g25387" transform="matrix(.35278 0 0 .35278 -51.968 -574.42)">
    <g id="use25383" transform="translate(406.85 2026.6)">
     <path id="path29853" d="m3.2344 0-0.89062-11.453h1.5469l0.34375 7.5c0.039063 0.79297 0.054688 1.5742 0.046875 2.3438 0.51953-1.2188 0.82812-1.9219 0.92188-2.1094l3.6094-7.7344h1.8281l0.5625 5.7969c0.14453 1.4375 0.1875 2.7891 0.125 4.0469 0.28125-0.71875 0.62891-1.5469 1.0469-2.4844l3.1719-7.3594h1.5156l-5.2812 11.453h-1.4531l-0.78125-8.7344c-0.0625-0.72656-0.10156-1.1758-0.10938-1.3438-0.21875 0.53125-0.41406 0.98047-0.57812 1.3438l-4.0781 8.7344z"/>
    </g>
    <g id="use25385" transform="translate(421.85 2026.6)">
     <path id="path29857" d="m2.9062-9.8438 0.29688-1.6094h1.4062l-0.29688 1.6094zm-1.8438 9.8438 1.5625-8.2969h1.4062l-1.5625 8.2969z"/>
    </g>
   </g>
   <g id="g25393" transform="matrix(.35278 0 0 .35278 -51.968 -574.42)">
    <g id="use25389" transform="translate(425.85 2026.6)">
     <path id="path29861" d="m6.4375 0 0.20312-1.0469c-0.67969 0.82422-1.5273 1.2344-2.5469 1.2344-0.66797 0-1.2461-0.18359-1.7344-0.54688-0.48047-0.36328-0.8125-0.875-1-1.5312-0.17969-0.65625-0.1875-1.4062-0.03125-2.25 0.15625-0.83203 0.42969-1.582 0.82812-2.25 0.40625-0.67578 0.91406-1.1914 1.5312-1.5469 0.625-0.36328 1.2812-0.54688 1.9688-0.54688 0.5 0 0.92188 0.10547 1.2656 0.3125 0.35156 0.21094 0.61719 0.48438 0.79688 0.82812l0.76562-4.1094h1.4062l-2.1406 11.453zm-3.6562-4.1406c-0.19922 1.0625-0.125 1.8594 0.21875 2.3906 0.35156 0.52344 0.83203 0.78125 1.4375 0.78125 0.61328 0 1.1797-0.25 1.7031-0.75 0.53125-0.50781 0.89062-1.2812 1.0781-2.3125 0.21875-1.1328 0.15625-1.9688-0.1875-2.5-0.33594-0.53125-0.82422-0.79688-1.4688-0.79688-0.625 0-1.1953 0.25781-1.7031 0.76562-0.51172 0.51172-0.87109 1.3203-1.0781 2.4219z"/>
    </g>
    <g id="use25391" transform="translate(434.85 2026.6)">
     <path id="path29865" d="m4.3594-1.2656-0.03125 1.25c-0.40625 0.082031-0.76562 0.125-1.0781 0.125-0.51172 0-0.89062-0.078125-1.1406-0.23438-0.25-0.16406-0.41406-0.37891-0.48438-0.64062-0.0625-0.26953-0.015625-0.82812 0.14062-1.6719l0.89062-4.7656h-1.0312l0.21875-1.0938h1.0312l0.375-2.0625 1.5625-0.84375-0.53125 2.9062h1.4062l-0.21875 1.0938h-1.4062l-0.90625 4.8438c-0.074219 0.40625-0.10156 0.66797-0.078125 0.78125 0.03125 0.11719 0.09375 0.21094 0.1875 0.28125 0.10156 0.0625 0.25781 0.09375 0.46875 0.09375 0.15625 0 0.36328-0.019531 0.625-0.0625z"/>
    </g>
   </g>
   <g id="g25397" transform="matrix(.35278 0 0 .35278 -51.968 -574.42)">
    <g id="use25395" transform="translate(438.84 2026.6)">
     <path id="path29869" d="m1.0625 0 2.1406-11.453h1.4062l-0.76562 4.1094c0.80078-0.75781 1.7031-1.1406 2.7031-1.1406 0.61328 0 1.125 0.12109 1.5312 0.35938 0.40625 0.24219 0.66406 0.57422 0.78125 1 0.11328 0.42969 0.09375 1.0469-0.0625 1.8594l-0.98438 5.2656h-1.4062l0.98438-5.2656c0.13281-0.69531 0.078125-1.207-0.17188-1.5312-0.24219-0.32031-0.64062-0.48438-1.2031-0.48438-0.41797 0-0.82812 0.10938-1.2344 0.32812-0.39844 0.21875-0.71094 0.51562-0.9375 0.89062-0.23047 0.36719-0.40234 0.87109-0.51562 1.5156l-0.85938 4.5469z"/>
    </g>
   </g>
  </g>
 </g>
</svg>
