<svg id="svg96745" version="1.1" viewBox="0 0 100.79 90.324" xmlns="http://www.w3.org/2000/svg">
 <title id="title97092">img_76</title>
 <defs id="defs96739">
  <clipPath id="clipPath95381">
   <path id="path95379" d="m210.14 8098.2h218.95v-218.95h-218.95z"/>
  </clipPath>
 </defs>
 <g id="layer1" transform="translate(-57.593 -72.837)">
  <g id="g95375" transform="matrix(.35278 0 0 -.35278 -9.945 2936.2)">
   <g id="g95459">
    <g id="g95457" clip-path="url(#clipPath95381)" opacity=".39999">
     <path id="path95383" d="m210.27 8098.1h218.7v-218.7h-218.7z" style="fill:none;stroke-miterlimit:10;stroke-width:.25;stroke:#1d1d1b"/>
     <g id="g95387" transform="translate(210.27 7901.2)">
      <path id="path95385" d="m0 0h218.7" style="fill:none;stroke-miterlimit:10;stroke-width:.25;stroke:#1d1d1b"/>
     </g>
     <g id="g95391" transform="translate(210.27,7923.1)">
      <path id="path95389" d="m0 0h218.7" style="fill:none;stroke-miterlimit:10;stroke-width:.25;stroke:#1d1d1b"/>
     </g>
     <g id="g95395" transform="translate(210.27 7945)">
      <path id="path95393" d="m0 0h218.7" style="fill:none;stroke-miterlimit:10;stroke-width:.25;stroke:#1d1d1b"/>
     </g>
     <g id="g95399" transform="translate(210.27 7966.8)">
      <path id="path95397" d="m0 0h218.7" style="fill:none;stroke-miterlimit:10;stroke-width:.25;stroke:#1d1d1b"/>
     </g>
     <g id="g95403" transform="translate(210.27 7988.7)">
      <path id="path95401" d="m0 0h218.7" style="fill:none;stroke-miterlimit:10;stroke-width:.25;stroke:#1d1d1b"/>
     </g>
     <g id="g95407" transform="translate(210.27 8010.6)">
      <path id="path95405" d="m0 0h218.7" style="fill:none;stroke-miterlimit:10;stroke-width:.25;stroke:#1d1d1b"/>
     </g>
     <g id="g95411" transform="translate(210.27 8032.4)">
      <path id="path95409" d="m0 0h218.7" style="fill:none;stroke-miterlimit:10;stroke-width:.25;stroke:#1d1d1b"/>
     </g>
     <g id="g95415" transform="translate(210.27 8054.3)">
      <path id="path95413" d="m0 0h218.7" style="fill:none;stroke-miterlimit:10;stroke-width:.25;stroke:#1d1d1b"/>
     </g>
     <g id="g95419" transform="translate(210.27 8076.2)">
      <path id="path95417" d="m0 0h218.7" style="fill:none;stroke-miterlimit:10;stroke-width:.25;stroke:#1d1d1b"/>
     </g>
     <g id="g95423" transform="translate(407.1 8098)">
      <path id="path95421" d="m0 0v-218.7" style="fill:none;stroke-miterlimit:10;stroke-width:.25;stroke:#1d1d1b"/>
     </g>
     <g id="g95427" transform="translate(385.23 8098)">
      <path id="path95425" d="m0 0v-218.7" style="fill:none;stroke-miterlimit:10;stroke-width:.25;stroke:#1d1d1b"/>
     </g>
     <g id="g95431" transform="translate(363.36 8098)">
      <path id="path95429" d="m0 0v-218.7" style="fill:none;stroke-miterlimit:10;stroke-width:.25;stroke:#1d1d1b"/>
     </g>
     <g id="g95435" transform="translate(341.49 8098)">
      <path id="path95433" d="m0 0v-218.7" style="fill:none;stroke-miterlimit:10;stroke-width:.25;stroke:#1d1d1b"/>
     </g>
     <g id="g95439" transform="translate(319.62 8098)">
      <path id="path95437" d="m0 0v-218.7" style="fill:none;stroke-miterlimit:10;stroke-width:.25;stroke:#1d1d1b"/>
     </g>
     <g id="g95443" transform="translate(297.75 8098)">
      <path id="path95441" d="m0 0v-218.7" style="fill:none;stroke-miterlimit:10;stroke-width:.25;stroke:#1d1d1b"/>
     </g>
     <g id="g95447" transform="translate(275.88 8098)">
      <path id="path95445" d="m0 0v-218.7" style="fill:none;stroke-miterlimit:10;stroke-width:.25;stroke:#1d1d1b"/>
     </g>
     <g id="g95451" transform="translate(254.01 8098)">
      <path id="path95449" d="m0 0v-218.7" style="fill:none;stroke-miterlimit:10;stroke-width:.25;stroke:#1d1d1b"/>
     </g>
     <g id="g95455" transform="translate(232.14 8098)">
      <path id="path95453" d="m0 0v-218.7" style="fill:none;stroke-miterlimit:10;stroke-width:.25;stroke:#1d1d1b"/>
     </g>
    </g>
   </g>
  </g>
  <path id="path87981" d="m102.95 75.429v85.387" style="fill:none;stroke-miterlimit:10;stroke-width:.38806;stroke:#1c1c19"/>
  <path id="path87983" d="m102.95 73.086c-0.4079 1.1024-1.1066 2.4708-1.8452 3.3183l1.8452-0.66696 1.8466 0.66696c-0.73863-0.84752-1.4373-2.2159-1.8466-3.3183" style="fill:#1c1c19"/>
  <path id="path87985" d="m102.95 163.16c-0.4079-1.1024-1.1066-2.4708-1.8452-3.3183l1.8452 0.66837 1.8466-0.66837c-0.73863 0.84751-1.4373 2.2159-1.8466 3.3183" style="fill:#1c1c19"/>
  <path id="path87987" d="m145.88 117.89h-85.944" style="fill:none;stroke-miterlimit:10;stroke-width:.38806;stroke:#1c1c19"/>
  <path id="path87989" d="m148.22 117.89c-1.1024-0.40788-2.4708-1.1066-3.3183-1.8452l0.66835 1.8452-0.66835 1.8466c0.84749-0.73998 2.2159-1.4373 3.3183-1.8466" style="fill:#1c1c19"/>
  <path id="path87991" d="m57.593 117.89c1.1024-0.40788 2.4694-1.1066 3.3169-1.8452l-0.66697 1.8452 0.66697 1.8466c-0.84749-0.73998-2.2145-1.4373-3.3169-1.8466" style="fill:#1c1c19"/>
  <path id="path87993" d="m110.52 116.84v2.1883" style="fill:none;stroke-miterlimit:10;stroke-width:.42122;stroke:#1c1c19"/>
  <path id="path87995" d="m118.23 116.84v2.1883" style="fill:none;stroke-miterlimit:10;stroke-width:.42122;stroke:#1c1c19"/>
  <path id="path87997" d="m125.95 116.84v2.1883" style="fill:none;stroke-miterlimit:10;stroke-width:.42122;stroke:#1c1c19"/>
  <path id="path87999" d="m133.66 116.84v2.1883" style="fill:none;stroke-miterlimit:10;stroke-width:.42122;stroke:#1c1c19"/>
  <path id="path88001" d="m141.45 116.84v2.1883" style="fill:none;stroke-miterlimit:10;stroke-width:.42122;stroke:#1c1c19"/>
  <path id="path88003" d="m64.194 116.84v2.1883" style="fill:none;stroke-miterlimit:10;stroke-width:.42122;stroke:#1c1c19"/>
  <path id="path88005" d="m71.908 116.84v2.1883" style="fill:none;stroke-miterlimit:10;stroke-width:.42122;stroke:#1c1c19"/>
  <path id="path88007" d="m79.624 116.84v2.1883" style="fill:none;stroke-miterlimit:10;stroke-width:.42122;stroke:#1c1c19"/>
  <path id="path88009" d="m87.339 116.84v2.1883" style="fill:none;stroke-miterlimit:10;stroke-width:.42122;stroke:#1c1c19"/>
  <path id="path88011" d="m95.124 116.84v2.1883" style="fill:none;stroke-miterlimit:10;stroke-width:.42122;stroke:#1c1c19"/>
  <path id="path88013" d="m101.86 110.25h2.187" style="fill:none;stroke-miterlimit:10;stroke-width:.42122;stroke:#1c1c19"/>
  <path id="path88015" d="m101.86 102.57h2.187" style="fill:none;stroke-miterlimit:10;stroke-width:.42122;stroke:#1c1c19"/>
  <path id="path88017" d="m101.86 94.863h2.187" style="fill:none;stroke-miterlimit:10;stroke-width:.42122;stroke:#1c1c19"/>
  <path id="path88019" d="m101.86 87.145h2.187" style="fill:none;stroke-miterlimit:10;stroke-width:.42122;stroke:#1c1c19"/>
  <path id="path88021" d="m101.86 79.433h2.187" style="fill:none;stroke-miterlimit:10;stroke-width:.42122;stroke:#1c1c19"/>
  <path id="path88023" d="m101.86 156.56h2.187" style="fill:none;stroke-miterlimit:10;stroke-width:.42122;stroke:#1c1c19"/>
  <path id="path88025" d="m101.86 148.89h2.187" style="fill:none;stroke-miterlimit:10;stroke-width:.42122;stroke:#1c1c19"/>
  <path id="path88027" d="m101.86 141.18h2.187" style="fill:none;stroke-miterlimit:10;stroke-width:.42122;stroke:#1c1c19"/>
  <path id="path88029" d="m101.86 133.46h2.187" style="fill:none;stroke-miterlimit:10;stroke-width:.42122;stroke:#1c1c19"/>
  <path id="path88031" d="m101.86 125.75h2.187" style="fill:none;stroke-miterlimit:10;stroke-width:.42122;stroke:#1c1c19"/>
  <g id="g88035" transform="matrix(.35278 0 0 .35278 -9.9502 -500.76)" style="fill:#1c1c19">
   <g id="use88033" transform="translate(310.34 1764.8)">
    <path id="path93023" d="m2.9375-7.4219c-1.4844 0-2.5312 1.3438-2.5312 3.7969 0.015625 2.4062 0.98438 3.75 2.4062 3.75 1.625 0 2.5469-1.375 2.5469-3.8594 0-2.3281-0.875-3.6875-2.4219-3.6875zm-0.046875 0.76562c1.0156 0 1.4844 1.1719 1.4844 2.9688 0 1.875-0.48438 3.0469-1.5 3.0469-0.89062 0-1.4844-1.0781-1.4844-2.9844 0-1.9844 0.625-3.0312 1.5-3.0312z"/>
   </g>
  </g>
  <path id="path88039" d="m125.54 94.743c-0.69041 23.592-9.146 42.23-19.474 42.23-10.33 0-18.784-18.638-19.476-42.23" style="fill:none;stroke-miterlimit:10;stroke-width:.35278;stroke:#1c1cae"/>
  <path id="path88041" d="m124.48 95.421 1.1066-3.802 0.94258 3.8461z" style="fill:#1c1cae"/>
  <path id="path88043" d="m87.652 95.421-1.1079-3.802-0.94121 3.8461z" style="fill:#1c1cae"/>
  <path id="path88045" d="m91.06 117.94c0 0.47815-0.38723 0.8654-0.86541 0.8654s-0.86541-0.38725-0.86541-0.8654c0-0.47819 0.38723-0.86681 0.86541-0.86681s0.86541 0.38862 0.86541 0.86681" style="fill:#1c1cae"/>
  <path id="path88047" d="m122.84 117.94c0 0.47815-0.38723 0.8654-0.86541 0.8654s-0.86541-0.38725-0.86541-0.8654c0-0.47819 0.38723-0.86681 0.86541-0.86681s0.86541 0.38862 0.86541 0.86681" style="fill:#1c1cae"/>
  <path id="path88049" d="m140.05 77.577-44.774 34.802" style="fill:none;stroke-miterlimit:10;stroke-width:.35278;stroke:#1c1c19"/>
  <path id="path88051" d="m95.194 111.14-2.3909 3.1571 3.649-1.5379z" style="fill:#1c1c19"/>
  <path id="path88053" d="m127.43 110.17 15.704-29.29" style="fill:none;stroke-miterlimit:10;stroke-width:.35278;stroke:#1c1c19"/>
  <path id="path88055" d="m128.66 110.04-2.7106 2.887 0.90399-3.8558z" style="fill:#1c1c19"/>
  <g id="g88067" transform="matrix(.35278 0 0 .35278 -9.9502 -500.76)" style="fill:#1c1cae">
   <g id="use88057" transform="translate(431.96 1638.5)">
    <path id="path93027" d="m2.5312-9.3125h2.3438l-0.375 1.7969c0.875-1.3438 1.8281-2.0156 2.8594-2.0156 0.35156 0 0.73828 0.089844 1.1562 0.26562l-0.96875 2.0625c-0.21875-0.082031-0.46094-0.125-0.71875-0.125-0.4375 0-0.88281 0.16797-1.3281 0.5-0.44922 0.32422-0.79688 0.76172-1.0469 1.3125-0.25 0.54297-0.49609 1.4062-0.73438 2.5938l-0.625 2.9219h-2.5156z"/>
   </g>
   <g id="use88059" transform="translate(439.04 1638.5)">
    <path id="path93031" d="m1.0938-3.875c0-1.7188 0.48438-3.0859 1.4531-4.1094 0.97656-1.0312 2.2578-1.5469 3.8438-1.5469 1.375 0 2.4453 0.38281 3.2188 1.1406 0.76953 0.75 1.1562 1.7656 1.1562 3.0469 0 1.5117-0.48438 2.8203-1.4531 3.9219-0.96094 1.0938-2.25 1.6406-3.875 1.6406-0.875 0-1.6523-0.17188-2.3281-0.51562-0.67969-0.35156-1.1836-0.85156-1.5156-1.5-0.33594-0.64453-0.5-1.3359-0.5-2.0781zm7.1719-1.7969c0-0.59375-0.17969-1.0664-0.53125-1.4219-0.34375-0.36328-0.79297-0.54688-1.3438-0.54688-0.54297 0-1.0273 0.16797-1.4531 0.5-0.41797 0.33594-0.74609 0.82422-0.98438 1.4688-0.23047 0.63672-0.34375 1.2266-0.34375 1.7656 0 0.66797 0.17969 1.1992 0.54688 1.5938 0.36328 0.38672 0.82031 0.57812 1.375 0.57812 0.6875 0 1.2656-0.28906 1.7344-0.875 0.66406-0.84375 1-1.8633 1-3.0625z"/>
   </g>
   <g id="use88061" transform="translate(450.11 1638.5)">
    <path id="path93035" d="m1.0938-3.875c0-1.7188 0.48438-3.0859 1.4531-4.1094 0.97656-1.0312 2.2578-1.5469 3.8438-1.5469 1.375 0 2.4453 0.38281 3.2188 1.1406 0.76953 0.75 1.1562 1.7656 1.1562 3.0469 0 1.5117-0.48438 2.8203-1.4531 3.9219-0.96094 1.0938-2.25 1.6406-3.875 1.6406-0.875 0-1.6523-0.17188-2.3281-0.51562-0.67969-0.35156-1.1836-0.85156-1.5156-1.5-0.33594-0.64453-0.5-1.3359-0.5-2.0781zm7.1719-1.7969c0-0.59375-0.17969-1.0664-0.53125-1.4219-0.34375-0.36328-0.79297-0.54688-1.3438-0.54688-0.54297 0-1.0273 0.16797-1.4531 0.5-0.41797 0.33594-0.74609 0.82422-0.98438 1.4688-0.23047 0.63672-0.34375 1.2266-0.34375 1.7656 0 0.66797 0.17969 1.1992 0.54688 1.5938 0.36328 0.38672 0.82031 0.57812 1.375 0.57812 0.6875 0 1.2656-0.28906 1.7344-0.875 0.66406-0.84375 1-1.8633 1-3.0625z"/>
   </g>
   <g id="use88063" transform="translate(461.18 1638.5)">
    <path id="path93039" d="m1.3438-7.4531 0.39062-1.8594h1.2344l0.29688-1.5 2.8906-1.7344-0.67188 3.2344h1.5312l-0.375 1.8594h-1.5469l-0.82812 3.9062c-0.14844 0.71094-0.21875 1.1172-0.21875 1.2188 0 0.1875 0.0625 0.33984 0.1875 0.45312 0.125 0.10547 0.34766 0.15625 0.67188 0.15625 0.11328 0 0.39062-0.019531 0.82812-0.0625l-0.39062 1.875c-0.4375 0.082031-0.88281 0.125-1.3281 0.125-0.89844 0-1.5469-0.17188-1.9531-0.51562-0.39844-0.34375-0.59375-0.81641-0.59375-1.4219 0-0.28906 0.10938-0.95312 0.32812-1.9844l0.78125-3.75z"/>
   </g>
   <g id="use88065" transform="translate(467.25 1638.5)">
    <path id="path93043" d="m0.39062-2.6094 2.4375-0.375c0.21875 0.51172 0.48828 0.875 0.8125 1.0938 0.32031 0.21094 0.75781 0.3125 1.3125 0.3125 0.57031 0 1.0312-0.12891 1.375-0.39062 0.23828-0.17578 0.35938-0.39062 0.35938-0.64062 0-0.16406-0.058594-0.31641-0.17188-0.45312-0.13672-0.125-0.48438-0.28125-1.0469-0.46875-1.5234-0.50781-2.4648-0.91016-2.8281-1.2031-0.5625-0.44531-0.84375-1.0391-0.84375-1.7812 0-0.73828 0.26953-1.375 0.8125-1.9062 0.76953-0.73828 1.9102-1.1094 3.4219-1.1094 1.1953 0 2.1016 0.21875 2.7188 0.65625 0.61328 0.4375 1.0039 1.0312 1.1719 1.7812l-2.3281 0.40625c-0.125-0.34375-0.32422-0.59766-0.59375-0.76562-0.375-0.22656-0.82812-0.34375-1.3594-0.34375-0.52344 0-0.90234 0.089844-1.1406 0.26562-0.23047 0.16797-0.34375 0.36719-0.34375 0.59375 0 0.24219 0.11719 0.43359 0.35938 0.57812 0.14453 0.09375 0.61328 0.26172 1.4062 0.5 1.2266 0.35547 2.0508 0.70312 2.4688 1.0469 0.58203 0.49219 0.875 1.0781 0.875 1.7656 0 0.875-0.375 1.6406-1.125 2.2969-0.74219 0.64844-1.7812 0.96875-3.125 0.96875-1.3555 0-2.3984-0.24219-3.125-0.73438-0.73047-0.5-1.2305-1.1953-1.5-2.0938z"/>
   </g>
  </g>
 </g>
</svg>
