<svg id="svg30187" version="1.1" viewBox="0 0 33.84 4.0583" xmlns="http://www.w3.org/2000/svg">
 <title id="title30240">img_16</title>
 <g id="layer1" transform="translate(-73.038 -151.43)">
  <g id="g25467" transform="matrix(.35278 0 0 .35278 6.6559 -631.23)">
   <g id="use25465" transform="translate(188.17 2230)">
    <path id="path30140" d="m11.5 0h-2.5156l-0.51562-2.6094h-4.5781l-1.4375 2.6094h-2.4531l6.6094-11.453h2.4375zm-3.4219-4.5312-0.78125-4.25-2.3438 4.25z"/>
   </g>
  </g>
  <path id="path25469" d="m83.385 154.19h-3.2908v-0.46852h3.2908zm-3.2908-1.6426h3.2908v0.46852h-3.2908z"/>
  <g id="g25473" transform="matrix(.35278 0 0 .35278 6.6559 -631.23)">
   <g id="use25471" transform="translate(225.17 2230.1)">
    <path id="path30144" d="m8.0625-1.3594v1.3594h-7.5781c-0.011719-0.34375 0.046875-0.67188 0.17188-0.98438 0.1875-0.50781 0.49219-1.0156 0.92188-1.5156 0.42578-0.5 1.0391-1.0781 1.8438-1.7344 1.2383-1.0195 2.0781-1.8281 2.5156-2.4219 0.4375-0.60156 0.65625-1.1719 0.65625-1.7031 0-0.55078-0.19922-1.0195-0.59375-1.4062-0.39844-0.38281-0.91797-0.57812-1.5625-0.57812-0.67969 0-1.2188 0.20312-1.625 0.60938s-0.60938 0.96875-0.60938 1.6875l-1.4531-0.14062c0.10156-1.082 0.47656-1.9062 1.125-2.4688 0.64453-0.5625 1.5078-0.84375 2.5938-0.84375 1.1016 0 1.9727 0.30859 2.6094 0.92188 0.64453 0.60547 0.96875 1.3555 0.96875 2.25 0 0.46094-0.09375 0.91406-0.28125 1.3594-0.1875 0.4375-0.5 0.90234-0.9375 1.3906-0.4375 0.49219-1.1641 1.1641-2.1719 2.0156-0.84375 0.71094-1.3867 1.1953-1.625 1.4531-0.24219 0.25-0.4375 0.5-0.59375 0.75z"/>
   </g>
  </g>
  <path id="path25475" d="m92.662 154.31 0.2825-1.5324h0.70969l0.08819-0.46853h-2.8277c-0.38861 0-0.62839 0.23428-0.71658 0.70556h0.35278c0.0303-0.15847 0.20119-0.23703 0.51401-0.23703-0.1006 0.55121-0.1943 1.0625-0.2825 1.5324-0.10197 0.54706-0.25356 0.93843-0.452 1.1741h0.46853c0.0041 0 0.05512-0.0593 0.15158-0.17638 0.09784-0.1185 0.19844-0.45064 0.30041-0.9977l0.28663-1.5324h0.93845l-0.2825 1.5324c-0.14607 0.78271 0.01517 1.1741 0.48507 1.1741 0.23564 0 0.4203-0.15709 0.55672-0.46852-0.51401 0.23562-0.70556 0-0.57326-0.70556"/>
  <g id="g25479" transform="matrix(.35278 0 0 .35278 6.6559 -631.23)">
   <g id="use25477" transform="translate(246.16 2230)">
    <path id="path30148" d="m1.0469 0 1.5625-8.2969h1.2656l-0.23438 1.25c0.42578-0.58203 0.78906-0.96875 1.0938-1.1562 0.3125-0.1875 0.63281-0.28125 0.96875-0.28125 0.46875 0 0.91406 0.15234 1.3438 0.45312l-0.71875 1.2969c-0.3125-0.19531-0.64062-0.29688-0.98438-0.29688-0.30469 0-0.59375 0.09375-0.875 0.28125-0.27344 0.17969-0.49219 0.43359-0.65625 0.76562-0.25 0.5-0.43359 1.0469-0.54688 1.6406l-0.8125 4.3438z"/>
   </g>
  </g>
  <path id="path25481" d="m98.086 155.02h0.47404l2.8167-3.0592h-0.47404zm2.8167 0h0.47404l-2.8167-3.0592h-0.47404z"/>
  <g id="g25485" transform="matrix(.35278 0 0 .35278 6.6559 -631.23)">
   <g id="use25483" transform="translate(275.16 2230)">
    <path id="path30152" d="m1.0625 0 2.1406-11.453h1.4062l-0.76562 4.1094c0.80078-0.75781 1.7031-1.1406 2.7031-1.1406 0.61328 0 1.125 0.12109 1.5312 0.35938 0.40625 0.24219 0.66406 0.57422 0.78125 1 0.11328 0.42969 0.09375 1.0469-0.0625 1.8594l-0.98438 5.2656h-1.4062l0.98438-5.2656c0.13281-0.69531 0.078125-1.207-0.17188-1.5312-0.24219-0.32031-0.64062-0.48438-1.2031-0.48438-0.41797 0-0.82812 0.10938-1.2344 0.32812-0.39844 0.21875-0.71094 0.51562-0.9375 0.89062-0.23047 0.36719-0.40234 0.87109-0.51562 1.5156l-0.85938 4.5469z"/>
   </g>
  </g>
 </g>
</svg>
