<svg id="svg16567" version="1.1" viewBox="0 0 150.6 150.15" xmlns="http://www.w3.org/2000/svg">
 <title id="title17465">img_89</title>
 <g id="layer1" transform="translate(-22.216 -54.949)">
  <path id="path8877" d="m41.893 90.318h86.012" style="fill:none;stroke-linecap:square;stroke-miterlimit:10;stroke-width:.40287;stroke:#000"/>
  <g id="use8879" transform="matrix(.35278 0 0 .35278 42.452 86.97)">
   <path id="path15921" d="m0.79688-5.4375v-2.2344h6.8438v2.2344z"/>
  </g>
  <g id="use8881" transform="matrix(.35278 0 0 .35278 45.424 86.97)">
   <path id="path15925" d="m5.9219 5.3281c-1.2305-1.5547-2.2734-3.3672-3.125-5.4375-0.84375-2.0703-1.2656-4.2227-1.2656-6.4531 0-1.957 0.31641-3.832 0.95312-5.625 0.73828-2.082 1.8828-4.1602 3.4375-6.2344h1.5938c-1 1.7188-1.6641 2.9453-1.9844 3.6719-0.5 1.1367-0.89844 2.3242-1.1875 3.5625-0.35547 1.543-0.53125 3.0898-0.53125 4.6406 0 3.9609 1.2344 7.9141 3.7031 11.875z"/>
  </g>
  <g id="use8883" transform="matrix(.35278 0 0 .35278 48.397 86.97)">
   <path id="path15929" d="m0.79688-5.4375v-2.2344h6.8438v2.2344z"/>
  </g>
  <g id="use8885" transform="matrix(.35278 0 0 .35278 51.37 86.97)">
   <path id="path15933" d="m1.0625-4.7812 2.2188-0.29688c0.25781 1.2617 0.69531 2.1719 1.3125 2.7344 0.61328 0.55469 1.3594 0.82812 2.2344 0.82812 1.0508 0 1.9375-0.35938 2.6562-1.0781 0.71875-0.72656 1.0781-1.6289 1.0781-2.7031 0-1.0195-0.33594-1.8594-1-2.5156-0.66797-0.66406-1.5156-1-2.5469-1-0.41797 0-0.9375 0.078125-1.5625 0.23438l0.23438-1.9531c0.15625 0.02344 0.27344 0.03125 0.35938 0.03125 0.94531 0 1.8008-0.24219 2.5625-0.73438 0.75781-0.5 1.1406-1.2656 1.1406-2.2969 0-0.8125-0.27734-1.4844-0.82812-2.0156-0.55469-0.53906-1.2656-0.8125-2.1406-0.8125-0.86719 0-1.5898 0.27734-2.1719 0.82812-0.57422 0.54297-0.9375 1.3555-1.0938 2.4375l-2.2344-0.39062c0.26953-1.4883 0.88281-2.6445 1.8438-3.4688 0.96875-0.82031 2.1719-1.2344 3.6094-1.2344 0.98828 0 1.8945 0.21484 2.7188 0.64062 0.83203 0.42969 1.4688 1.0078 1.9062 1.7344 0.44531 0.73047 0.67188 1.5117 0.67188 2.3438 0 0.78125-0.21484 1.4961-0.64062 2.1406-0.41797 0.63672-1.0391 1.1406-1.8594 1.5156 1.0703 0.25 1.9062 0.76562 2.5 1.5469 0.59375 0.77344 0.89062 1.7461 0.89062 2.9219 0 1.5742-0.57812 2.9141-1.7344 4.0156-1.1484 1.1055-2.6055 1.6562-4.375 1.6562-1.5859 0-2.9023-0.47266-3.9531-1.4219-1.0547-0.94531-1.6523-2.1758-1.7969-3.6875z"/>
  </g>
  <g id="use8887" transform="matrix(.35278 0 0 .35278 56.333 86.97)">
   <path id="path15937" d="m3.125 5.3281h-1.5938c2.457-3.9609 3.6875-7.9141 3.6875-11.875 0-1.5508-0.17969-3.0859-0.53125-4.6094-0.27344-1.2266-0.66406-2.4141-1.1719-3.5625-0.32422-0.73828-0.98438-1.9727-1.9844-3.7031h1.5938c1.5508 2.0742 2.6953 4.1523 3.4375 6.2344 0.63281 1.793 0.95312 3.668 0.95312 5.625 0 2.2305-0.42969 4.3828-1.2812 6.4531-0.85547 2.0703-1.8906 3.8828-3.1094 5.4375z"/>
  </g>
  <g id="use8889" transform="matrix(.35278 0 0 .35278 59.305 86.97)"></g>
  <g id="use8891" transform="matrix(.35278 0 0 .35278 61.787 86.97)">
   <path id="path15945" d="m5.8906-3.2188v-4.9688h-4.9219v-2.0625h4.9219v-4.9375h2.0938v4.9375h4.9375v2.0625h-4.9375v4.9688zm7.0312 3.2188h-11.953v-2.0781h11.953z"/>
  </g>
  <g id="use8893" transform="matrix(.35278 0 0 .35278 66.688 86.97)"></g>
  <g id="use8895" transform="matrix(.35278 0 0 .35278 69.169 86.97)">
   <path id="path15953" d="m12.969-23.078h0.92188l-3.8594 24.047-6.125-12.609-2.4531 1.1094-0.42188-0.78125 3.7188-1.8594 5.0156 10.156z"/>
  </g>
  <g id="use8897" transform="matrix(.35278 0 0 .35278 74.07 86.97)"></g>
  <g id="use8899" transform="matrix(.35278 0 0 .35278 76.552 86.97)">
   <path id="path15961" d="m5.9219 5.3281c-1.2305-1.5547-2.2734-3.3672-3.125-5.4375-0.84375-2.0703-1.2656-4.2227-1.2656-6.4531 0-1.957 0.31641-3.832 0.95312-5.625 0.73828-2.082 1.8828-4.1602 3.4375-6.2344h1.5938c-1 1.7188-1.6641 2.9453-1.9844 3.6719-0.5 1.1367-0.89844 2.3242-1.1875 3.5625-0.35547 1.543-0.53125 3.0898-0.53125 4.6406 0 3.9609 1.2344 7.9141 3.7031 11.875z"/>
  </g>
  <g id="use8901" transform="matrix(.35278 0 0 .35278 79.524 86.97)">
   <path id="path15965" d="m0.79688-5.4375v-2.2344h6.8438v2.2344z"/>
  </g>
  <g id="use8903" transform="matrix(.35278 0 0 .35278 82.497 86.97)">
   <path id="path15969" d="m1.0625-4.7812 2.2188-0.29688c0.25781 1.2617 0.69531 2.1719 1.3125 2.7344 0.61328 0.55469 1.3594 0.82812 2.2344 0.82812 1.0508 0 1.9375-0.35938 2.6562-1.0781 0.71875-0.72656 1.0781-1.6289 1.0781-2.7031 0-1.0195-0.33594-1.8594-1-2.5156-0.66797-0.66406-1.5156-1-2.5469-1-0.41797 0-0.9375 0.078125-1.5625 0.23438l0.23438-1.9531c0.15625 0.02344 0.27344 0.03125 0.35938 0.03125 0.94531 0 1.8008-0.24219 2.5625-0.73438 0.75781-0.5 1.1406-1.2656 1.1406-2.2969 0-0.8125-0.27734-1.4844-0.82812-2.0156-0.55469-0.53906-1.2656-0.8125-2.1406-0.8125-0.86719 0-1.5898 0.27734-2.1719 0.82812-0.57422 0.54297-0.9375 1.3555-1.0938 2.4375l-2.2344-0.39062c0.26953-1.4883 0.88281-2.6445 1.8438-3.4688 0.96875-0.82031 2.1719-1.2344 3.6094-1.2344 0.98828 0 1.8945 0.21484 2.7188 0.64062 0.83203 0.42969 1.4688 1.0078 1.9062 1.7344 0.44531 0.73047 0.67188 1.5117 0.67188 2.3438 0 0.78125-0.21484 1.4961-0.64062 2.1406-0.41797 0.63672-1.0391 1.1406-1.8594 1.5156 1.0703 0.25 1.9062 0.76562 2.5 1.5469 0.59375 0.77344 0.89062 1.7461 0.89062 2.9219 0 1.5742-0.57812 2.9141-1.7344 4.0156-1.1484 1.1055-2.6055 1.6562-4.375 1.6562-1.5859 0-2.9023-0.47266-3.9531-1.4219-1.0547-0.94531-1.6523-2.1758-1.7969-3.6875z"/>
  </g>
  <g id="use8905" transform="matrix(.35278 0 0 .35278 87.46 86.97)">
   <path id="path15973" d="m3.125 5.3281h-1.5938c2.457-3.9609 3.6875-7.9141 3.6875-11.875 0-1.5508-0.17969-3.0859-0.53125-4.6094-0.27344-1.2266-0.66406-2.4141-1.1719-3.5625-0.32422-0.73828-0.98438-1.9727-1.9844-3.7031h1.5938c1.5508 2.0742 2.6953 4.1523 3.4375 6.2344 0.63281 1.793 0.95312 3.668 0.95312 5.625 0 2.2305-0.42969 4.3828-1.2812 6.4531-0.85547 2.0703-1.8906 3.8828-3.1094 5.4375z"/>
  </g>
  <g id="use8909" transform="matrix(.35278 0 0 .35278 90.428 83.996)">
   <path id="path15977" d="m7.4219-1.25v1.25h-6.9688c-0.011719-0.3125 0.035156-0.61328 0.14062-0.90625 0.17578-0.46875 0.45703-0.92969 0.84375-1.3906 0.39453-0.46875 0.96094-1.0039 1.7031-1.6094 1.1562-0.9375 1.9297-1.6797 2.3281-2.2344 0.40625-0.55078 0.60938-1.0703 0.60938-1.5625 0-0.50781-0.18359-0.94141-0.54688-1.2969-0.36719-0.35156-0.84375-0.53125-1.4375-0.53125-0.625 0-1.125 0.1875-1.5 0.5625s-0.5625 0.89844-0.5625 1.5625l-1.3438-0.14062c0.09375-0.98828 0.4375-1.7422 1.0312-2.2656 0.59375-0.53125 1.3945-0.79688 2.4062-0.79688 1.0078 0 1.8047 0.28125 2.3906 0.84375 0.59375 0.5625 0.89062 1.2617 0.89062 2.0938 0 0.42969-0.089844 0.84375-0.26562 1.25-0.16797 0.40625-0.45312 0.83984-0.85938 1.2969-0.39844 0.44922-1.0586 1.0625-1.9844 1.8438-0.78125 0.65625-1.2812 1.1055-1.5 1.3438-0.21875 0.23047-0.40234 0.46094-0.54688 0.6875z"/>
  </g>
  <g id="use8911" transform="matrix(.35278 0 0 .35278 93.322 83.996)"></g>
  <g id="use8915" transform="matrix(.35278 0 0 .35278 94.769 86.97)">
   <path id="path15985" d="m0.79688-5.4375v-2.2344h6.8438v2.2344z"/>
  </g>
  <g id="use8917" transform="matrix(.35278 0 0 .35278 97.741 86.97)"></g>
  <g id="use8919" transform="matrix(.35278 0 0 .35278 100.22 86.97)">
   <path id="path15993" d="m8.1719 0v-4.3281h-7.8438v-2.0469l8.25-11.734h1.8281v11.734h2.4375v2.0469h-2.4375v4.3281zm0-6.375v-8.1562l-5.6719 8.1562z"/>
  </g>
  <g id="use8921" transform="matrix(.35278 0 0 .35278 105.19 86.97)">
   <path id="path15997" d="m5.9219 5.3281c-1.2305-1.5547-2.2734-3.3672-3.125-5.4375-0.84375-2.0703-1.2656-4.2227-1.2656-6.4531 0-1.957 0.31641-3.832 0.95312-5.625 0.73828-2.082 1.8828-4.1602 3.4375-6.2344h1.5938c-1 1.7188-1.6641 2.9453-1.9844 3.6719-0.5 1.1367-0.89844 2.3242-1.1875 3.5625-0.35547 1.543-0.53125 3.0898-0.53125 4.6406 0 3.9609 1.2344 7.9141 3.7031 11.875z"/>
  </g>
  <g id="use8923" transform="matrix(.35278 0 0 .35278 108.16 86.97)">
   <path id="path16001" d="m9.4219 0h-2.2188v-14.172c-0.54297 0.51172-1.2461 1.0234-2.1094 1.5312-0.86719 0.51172-1.6484 0.89844-2.3438 1.1562v-2.1562c1.25-0.58203 2.3359-1.2891 3.2656-2.125 0.92578-0.83203 1.582-1.6406 1.9688-2.4219h1.4375z"/>
  </g>
  <g id="use8925" transform="matrix(.35278 0 0 .35278 113.12 86.97)">
   <path id="path16005" d="m3.125 5.3281h-1.5938c2.457-3.9609 3.6875-7.9141 3.6875-11.875 0-1.5508-0.17969-3.0859-0.53125-4.6094-0.27344-1.2266-0.66406-2.4141-1.1719-3.5625-0.32422-0.73828-0.98438-1.9727-1.9844-3.7031h1.5938c1.5508 2.0742 2.6953 4.1523 3.4375 6.2344 0.63281 1.793 0.95312 3.668 0.95312 5.625 0 2.2305-0.42969 4.3828-1.2812 6.4531-0.85547 2.0703-1.8906 3.8828-3.1094 5.4375z"/>
  </g>
  <g id="use8927" transform="matrix(.35278 0 0 .35278 116.09 86.97)">
   <path id="path16009" d="m5.9219 5.3281c-1.2305-1.5547-2.2734-3.3672-3.125-5.4375-0.84375-2.0703-1.2656-4.2227-1.2656-6.4531 0-1.957 0.31641-3.832 0.95312-5.625 0.73828-2.082 1.8828-4.1602 3.4375-6.2344h1.5938c-1 1.7188-1.6641 2.9453-1.9844 3.6719-0.5 1.1367-0.89844 2.3242-1.1875 3.5625-0.35547 1.543-0.53125 3.0898-0.53125 4.6406 0 3.9609 1.2344 7.9141 3.7031 11.875z"/>
  </g>
  <g id="use8929" transform="matrix(.35278 0 0 .35278 119.07 86.97)">
   <path id="path16013" d="m9.4219 0h-2.2188v-14.172c-0.54297 0.51172-1.2461 1.0234-2.1094 1.5312-0.86719 0.51172-1.6484 0.89844-2.3438 1.1562v-2.1562c1.25-0.58203 2.3359-1.2891 3.2656-2.125 0.92578-0.83203 1.582-1.6406 1.9688-2.4219h1.4375z"/>
  </g>
  <g id="use8931" transform="matrix(.35278 0 0 .35278 124.03 86.97)">
   <path id="path16017" d="m3.125 5.3281h-1.5938c2.457-3.9609 3.6875-7.9141 3.6875-11.875 0-1.5508-0.17969-3.0859-0.53125-4.6094-0.27344-1.2266-0.66406-2.4141-1.1719-3.5625-0.32422-0.73828-0.98438-1.9727-1.9844-3.7031h1.5938c1.5508 2.0742 2.6953 4.1523 3.4375 6.2344 0.63281 1.793 0.95312 3.668 0.95312 5.625 0 2.2305-0.42969 4.3828-1.2812 6.4531-0.85547 2.0703-1.8906 3.8828-3.1094 5.4375z"/>
  </g>
  <g id="use8935" transform="matrix(.35278 0 0 .35278 74.603 99.244)">
   <path id="path16021" d="m12.734-2.1406v2.1406h-11.969c-0.023437-0.53125 0.066406-1.0469 0.26562-1.5469 0.30078-0.8125 0.78516-1.6133 1.4531-2.4062 0.67578-0.78906 1.6445-1.7031 2.9062-2.7344 1.9688-1.6133 3.2969-2.8906 3.9844-3.8281 0.69531-0.94531 1.0469-1.8438 1.0469-2.6875 0-0.88281-0.32031-1.6289-0.95312-2.2344-0.625-0.60156-1.4453-0.90625-2.4531-0.90625-1.0742 0-1.9336 0.32422-2.5781 0.96875-0.63672 0.63672-0.96094 1.5273-0.96875 2.6719l-2.2812-0.23438c0.15625-1.707 0.74219-3.0078 1.7656-3.9062 1.0195-0.89453 2.3906-1.3438 4.1094-1.3438 1.7383 0 3.1133 0.48438 4.125 1.4531 1.0078 0.96094 1.5156 2.1523 1.5156 3.5781 0 0.73047-0.14844 1.4453-0.4375 2.1406-0.29297 0.69922-0.78125 1.4375-1.4688 2.2188-0.6875 0.77344-1.8359 1.8281-3.4375 3.1719-1.3359 1.125-2.1953 1.8906-2.5781 2.2969-0.375 0.39844-0.68359 0.79297-0.92188 1.1875z"/>
  </g>
  <g id="use8937" transform="matrix(.35278 0 0 .35278 79.566 99.244)">
   <path id="path16025" d="m5.9219 5.3281c-1.2305-1.5547-2.2734-3.3672-3.125-5.4375-0.84375-2.0703-1.2656-4.2227-1.2656-6.4531 0-1.957 0.31641-3.832 0.95312-5.625 0.73828-2.082 1.8828-4.1602 3.4375-6.2344h1.5938c-1 1.7188-1.6641 2.9453-1.9844 3.6719-0.5 1.1367-0.89844 2.3242-1.1875 3.5625-0.35547 1.543-0.53125 3.0898-0.53125 4.6406 0 3.9609 1.2344 7.9141 3.7031 11.875z"/>
  </g>
  <g id="use8939" transform="matrix(.35278 0 0 .35278 82.539 99.244)">
   <path id="path16029" d="m9.4219 0h-2.2188v-14.172c-0.54297 0.51172-1.2461 1.0234-2.1094 1.5312-0.86719 0.51172-1.6484 0.89844-2.3438 1.1562v-2.1562c1.25-0.58203 2.3359-1.2891 3.2656-2.125 0.92578-0.83203 1.582-1.6406 1.9688-2.4219h1.4375z"/>
  </g>
  <g id="use8941" transform="matrix(.35278 0 0 .35278 87.502 99.244)">
   <path id="path16033" d="m3.125 5.3281h-1.5938c2.457-3.9609 3.6875-7.9141 3.6875-11.875 0-1.5508-0.17969-3.0859-0.53125-4.6094-0.27344-1.2266-0.66406-2.4141-1.1719-3.5625-0.32422-0.73828-0.98438-1.9727-1.9844-3.7031h1.5938c1.5508 2.0742 2.6953 4.1523 3.4375 6.2344 0.63281 1.793 0.95312 3.668 0.95312 5.625 0 2.2305-0.42969 4.3828-1.2812 6.4531-0.85547 2.0703-1.8906 3.8828-3.1094 5.4375z"/>
  </g>
  <g id="use8945" transform="matrix(.35278 0 0 .35278 22.898 93.108)" style="fill:#1c1c19">
   <path id="path16037" d="m3.0469-13.781 3.4844 6.75-6.2969 7.0312h2.8125l2.6094-3.1094c0.67188-0.82812 1.3125-1.5625 1.9219-2.3906h0.0625c0.32812 0.82812 0.65625 1.5938 1.0469 2.3906l1.4844 3.1094h2.9062l-3.5938-7.125 6.0156-6.6562h-2.75l-2.5156 2.9219c-0.60938 0.75-1.1875 1.4531-1.8125 2.2812h-0.09375c-0.3125-0.76562-0.60938-1.4844-1-2.25l-1.4531-2.9531z"/>
  </g>
  <g id="use8947" transform="matrix(.35278 0 0 .35278 27.682 93.108)" style="fill:#1c1c19"></g>
  <g id="use8949" transform="matrix(.35278 0 0 .35278 29.901 93.108)" style="fill:#1c1c19">
   <path id="path16045" d="m17.906-9.5938 0.32812-1.7188h-14.953l-0.32812 1.7188zm-1.0469 5.5781 0.32812-1.7031h-14.953l-0.32812 1.7031z"/>
  </g>
  <g id="use8951" transform="matrix(.35278 0 0 .35278 36.044 93.108)" style="fill:#1c1c19"></g>
  <path id="path8955" d="m73.777 78.765h53.766" style="fill:none;stroke-miterlimit:10;stroke-width:.35278;stroke:#000"/>
  <path id="path9167" d="m62.474 113.6h22.645" style="fill:none;stroke-miterlimit:10;stroke-width:.35278;stroke:#000"/>
  <path id="path9217" d="m42.467 125.09h43.735" style="fill:none;stroke-linecap:square;stroke-miterlimit:10;stroke-width:.40287;stroke:#000"/>
  <g id="use9219" transform="matrix(.35278 0 0 .35278 43.026 121.74)">
   <path id="path16053" d="m1.0625-4.7812 2.2188-0.29688c0.25781 1.2617 0.69531 2.1719 1.3125 2.7344 0.61328 0.55469 1.3594 0.82812 2.2344 0.82812 1.0508 0 1.9375-0.35938 2.6562-1.0781 0.71875-0.72656 1.0781-1.6289 1.0781-2.7031 0-1.0195-0.33594-1.8594-1-2.5156-0.66797-0.66406-1.5156-1-2.5469-1-0.41797 0-0.9375 0.078125-1.5625 0.23438l0.23438-1.9531c0.15625 0.02344 0.27344 0.03125 0.35938 0.03125 0.94531 0 1.8008-0.24219 2.5625-0.73438 0.75781-0.5 1.1406-1.2656 1.1406-2.2969 0-0.8125-0.27734-1.4844-0.82812-2.0156-0.55469-0.53906-1.2656-0.8125-2.1406-0.8125-0.86719 0-1.5898 0.27734-2.1719 0.82812-0.57422 0.54297-0.9375 1.3555-1.0938 2.4375l-2.2344-0.39062c0.26953-1.4883 0.88281-2.6445 1.8438-3.4688 0.96875-0.82031 2.1719-1.2344 3.6094-1.2344 0.98828 0 1.8945 0.21484 2.7188 0.64062 0.83203 0.42969 1.4688 1.0078 1.9062 1.7344 0.44531 0.73047 0.67188 1.5117 0.67188 2.3438 0 0.78125-0.21484 1.4961-0.64062 2.1406-0.41797 0.63672-1.0391 1.1406-1.8594 1.5156 1.0703 0.25 1.9062 0.76562 2.5 1.5469 0.59375 0.77344 0.89062 1.7461 0.89062 2.9219 0 1.5742-0.57812 2.9141-1.7344 4.0156-1.1484 1.1055-2.6055 1.6562-4.375 1.6562-1.5859 0-2.9023-0.47266-3.9531-1.4219-1.0547-0.94531-1.6523-2.1758-1.7969-3.6875z"/>
  </g>
  <g id="use9221" transform="matrix(.35278 0 0 .35278 47.989 121.74)"></g>
  <g id="use9223" transform="matrix(.35278 0 0 .35278 50.471 121.74)">
   <path id="path16061" d="m5.8906-3.2188v-4.9688h-4.9219v-2.0625h4.9219v-4.9375h2.0938v4.9375h4.9375v2.0625h-4.9375v4.9688zm7.0312 3.2188h-11.953v-2.0781h11.953z"/>
  </g>
  <g id="use9225" transform="matrix(.35278 0 0 .35278 55.371 121.74)"></g>
  <g id="use9227" transform="matrix(.35278 0 0 .35278 57.853 121.74)">
   <path id="path16069" d="m12.969-23.078h0.92188l-3.8594 24.047-6.125-12.609-2.4531 1.1094-0.42188-0.78125 3.7188-1.8594 5.0156 10.156z"/>
  </g>
  <g id="use9229" transform="matrix(.35278 0 0 .35278 62.754 121.74)"></g>
  <g id="use9231" transform="matrix(.35278 0 0 .35278 65.235 121.74)">
   <path id="path16077" d="m1.3906-4.1875 2.125-0.20312c0.1875 1.0117 0.53516 1.7461 1.0469 2.2031 0.50781 0.44922 1.1602 0.67188 1.9531 0.67188 0.6875 0 1.2852-0.15625 1.7969-0.46875 0.51953-0.3125 0.94141-0.72656 1.2656-1.25 0.33203-0.53125 0.60938-1.2383 0.82812-2.125 0.22656-0.88281 0.34375-1.7891 0.34375-2.7188 0-0.09375-0.0078-0.23828-0.01563-0.4375-0.44922 0.71094-1.0586 1.2812-1.8281 1.7188-0.77344 0.4375-1.6055 0.65625-2.5 0.65625-1.5 0-2.7734-0.53906-3.8125-1.625-1.0312-1.0938-1.5469-2.5234-1.5469-4.2969 0-1.8438 0.53906-3.3203 1.625-4.4375 1.082-1.125 2.4414-1.6875 4.0781-1.6875 1.1758 0 2.25 0.32031 3.2188 0.95312 0.97656 0.63672 1.7188 1.543 2.2188 2.7188 0.50781 1.168 0.76562 2.8672 0.76562 5.0938 0 2.3125-0.25 4.1562-0.75 5.5312-0.5 1.3672-1.25 2.4062-2.25 3.125-0.99218 0.71875-2.1523 1.0781-3.4844 1.0781-1.418 0-2.5742-0.39062-3.4688-1.1719-0.89844-0.78906-1.4336-1.8984-1.6094-3.3281zm9.0938-7.9844c0-1.2812-0.33984-2.2969-1.0156-3.0469-0.67969-0.75-1.4961-1.125-2.4531-1.125-0.99219 0-1.8555 0.40625-2.5938 1.2188-0.73047 0.80469-1.0938 1.8438-1.0938 3.125 0 1.1562 0.34766 2.0938 1.0469 2.8125 0.69531 0.71875 1.5547 1.0781 2.5781 1.0781 1.0312 0 1.875-0.35938 2.5312-1.0781 0.66406-0.71875 1-1.7109 1-2.9844z"/>
  </g>
  <g id="use9233" transform="matrix(.35278 0 0 .35278 70.199 121.74)"></g>
  <g id="use9235" transform="matrix(.35278 0 0 .35278 72.68 121.74)">
   <path id="path16085" d="m0.79688-5.4375v-2.2344h6.8438v2.2344z"/>
  </g>
  <g id="use9237" transform="matrix(.35278 0 0 .35278 75.653 121.74)"></g>
  <g id="use9239" transform="matrix(.35278 0 0 .35278 78.135 121.74)">
   <path id="path16093" d="m8.1719 0v-4.3281h-7.8438v-2.0469l8.25-11.734h1.8281v11.734h2.4375v2.0469h-2.4375v4.3281zm0-6.375v-8.1562l-5.6719 8.1562z"/>
  </g>
  <g id="use9243" transform="matrix(.35278 0 0 .35278 60.442 134.02)">
   <path id="path16097" d="m12.734-2.1406v2.1406h-11.969c-0.023437-0.53125 0.066406-1.0469 0.26562-1.5469 0.30078-0.8125 0.78516-1.6133 1.4531-2.4062 0.67578-0.78906 1.6445-1.7031 2.9062-2.7344 1.9688-1.6133 3.2969-2.8906 3.9844-3.8281 0.69531-0.94531 1.0469-1.8438 1.0469-2.6875 0-0.88281-0.32031-1.6289-0.95312-2.2344-0.625-0.60156-1.4453-0.90625-2.4531-0.90625-1.0742 0-1.9336 0.32422-2.5781 0.96875-0.63672 0.63672-0.96094 1.5273-0.96875 2.6719l-2.2812-0.23438c0.15625-1.707 0.74219-3.0078 1.7656-3.9062 1.0195-0.89453 2.3906-1.3438 4.1094-1.3438 1.7383 0 3.1133 0.48438 4.125 1.4531 1.0078 0.96094 1.5156 2.1523 1.5156 3.5781 0 0.73047-0.14844 1.4453-0.4375 2.1406-0.29297 0.69922-0.78125 1.4375-1.4688 2.2188-0.6875 0.77344-1.8359 1.8281-3.4375 3.1719-1.3359 1.125-2.1953 1.8906-2.5781 2.2969-0.375 0.39844-0.68359 0.79297-0.92188 1.1875z"/>
  </g>
  <g id="use9247" transform="matrix(.35278 0 0 .35278 23.472 127.88)" style="fill:#1c1c19">
   <path id="path16101" d="m3.0469-13.781 3.4844 6.75-6.2969 7.0312h2.8125l2.6094-3.1094c0.67188-0.82812 1.3125-1.5625 1.9219-2.3906h0.0625c0.32812 0.82812 0.65625 1.5938 1.0469 2.3906l1.4844 3.1094h2.9062l-3.5938-7.125 6.0156-6.6562h-2.75l-2.5156 2.9219c-0.60938 0.75-1.1875 1.4531-1.8125 2.2812h-0.09375c-0.3125-0.76562-0.60938-1.4844-1-2.25l-1.4531-2.9531z"/>
  </g>
  <g id="use9249" transform="matrix(.35278 0 0 .35278 28.256 127.88)" style="fill:#1c1c19"></g>
  <g id="use9251" transform="matrix(.35278 0 0 .35278 30.475 127.88)" style="fill:#1c1c19">
   <path id="path16109" d="m17.906-9.5938 0.32812-1.7188h-14.953l-0.32812 1.7188zm-1.0469 5.5781 0.32812-1.7031h-14.953l-0.32812 1.7031z"/>
  </g>
  <g id="use9253" transform="matrix(.35278 0 0 .35278 36.618 127.88)" style="fill:#1c1c19"></g>
  <path id="path9401" d="m41.129 158.9h33.025" style="fill:none;stroke-linecap:square;stroke-miterlimit:10;stroke-width:.40287;stroke:#000"/>
  <g id="use9403" transform="matrix(.35278 0 0 .35278 41.687 155.55)">
   <path id="path16117" d="m1.0625-4.7812 2.2188-0.29688c0.25781 1.2617 0.69531 2.1719 1.3125 2.7344 0.61328 0.55469 1.3594 0.82812 2.2344 0.82812 1.0508 0 1.9375-0.35938 2.6562-1.0781 0.71875-0.72656 1.0781-1.6289 1.0781-2.7031 0-1.0195-0.33594-1.8594-1-2.5156-0.66797-0.66406-1.5156-1-2.5469-1-0.41797 0-0.9375 0.078125-1.5625 0.23438l0.23438-1.9531c0.15625 0.02344 0.27344 0.03125 0.35938 0.03125 0.94531 0 1.8008-0.24219 2.5625-0.73438 0.75781-0.5 1.1406-1.2656 1.1406-2.2969 0-0.8125-0.27734-1.4844-0.82812-2.0156-0.55469-0.53906-1.2656-0.8125-2.1406-0.8125-0.86719 0-1.5898 0.27734-2.1719 0.82812-0.57422 0.54297-0.9375 1.3555-1.0938 2.4375l-2.2344-0.39062c0.26953-1.4883 0.88281-2.6445 1.8438-3.4688 0.96875-0.82031 2.1719-1.2344 3.6094-1.2344 0.98828 0 1.8945 0.21484 2.7188 0.64062 0.83203 0.42969 1.4688 1.0078 1.9062 1.7344 0.44531 0.73047 0.67188 1.5117 0.67188 2.3438 0 0.78125-0.21484 1.4961-0.64062 2.1406-0.41797 0.63672-1.0391 1.1406-1.8594 1.5156 1.0703 0.25 1.9062 0.76562 2.5 1.5469 0.59375 0.77344 0.89062 1.7461 0.89062 2.9219 0 1.5742-0.57812 2.9141-1.7344 4.0156-1.1484 1.1055-2.6055 1.6562-4.375 1.6562-1.5859 0-2.9023-0.47266-3.9531-1.4219-1.0547-0.94531-1.6523-2.1758-1.7969-3.6875z"/>
  </g>
  <g id="use9405" transform="matrix(.35278 0 0 .35278 46.65 155.55)"></g>
  <g id="use9407" transform="matrix(.35278 0 0 .35278 49.132 155.55)">
   <path id="path16125" d="m5.8906-3.2188v-4.9688h-4.9219v-2.0625h4.9219v-4.9375h2.0938v4.9375h4.9375v2.0625h-4.9375v4.9688zm7.0312 3.2188h-11.953v-2.0781h11.953z"/>
  </g>
  <g id="use9409" transform="matrix(.35278 0 0 .35278 54.033 155.55)"></g>
  <g id="use9411" transform="matrix(.35278 0 0 .35278 56.514 155.55)">
   <path id="path16133" d="m12.969-23.078h0.92188l-3.8594 24.047-6.125-12.609-2.4531 1.1094-0.42188-0.78125 3.7188-1.8594 5.0156 10.156z"/>
  </g>
  <g id="use9413" transform="matrix(.35278 0 0 .35278 61.415 155.55)"></g>
  <g id="use9415" transform="matrix(.35278 0 0 .35278 63.897 155.55)">
   <path id="path16141" d="m1.0469-4.75 2.3438-0.1875c0.16406 1.1367 0.5625 1.9922 1.1875 2.5625 0.63281 0.57422 1.3984 0.85938 2.2969 0.85938 1.0625 0 1.9609-0.39844 2.7031-1.2031 0.75-0.8125 1.125-1.8828 1.125-3.2188 0-1.2695-0.35938-2.2695-1.0781-3-0.71094-0.73828-1.6406-1.1094-2.7969-1.1094-0.71875 0-1.3672 0.16797-1.9375 0.5-0.57422 0.32422-1.0273 0.74609-1.3594 1.2656l-2.0938-0.28125 1.7656-9.2969h9v2.125h-7.2188l-0.98438 4.8594c1.082-0.75 2.2227-1.125 3.4219-1.125 1.582 0 2.9141 0.54688 4 1.6406 1.0938 1.0938 1.6406 2.5 1.6406 4.2188 0 1.6367-0.48047 3.0547-1.4375 4.25-1.168 1.4688-2.75 2.2031-4.75 2.2031-1.6562 0-3.0078-0.45703-4.0469-1.375-1.043-0.92578-1.6367-2.1562-1.7812-3.6875z"/>
  </g>
  <g id="use9419" transform="matrix(.35278 0 0 .35278 53.408 167.83)">
   <path id="path16145" d="m12.734-2.1406v2.1406h-11.969c-0.023437-0.53125 0.066406-1.0469 0.26562-1.5469 0.30078-0.8125 0.78516-1.6133 1.4531-2.4062 0.67578-0.78906 1.6445-1.7031 2.9062-2.7344 1.9688-1.6133 3.2969-2.8906 3.9844-3.8281 0.69531-0.94531 1.0469-1.8438 1.0469-2.6875 0-0.88281-0.32031-1.6289-0.95312-2.2344-0.625-0.60156-1.4453-0.90625-2.4531-0.90625-1.0742 0-1.9336 0.32422-2.5781 0.96875-0.63672 0.63672-0.96094 1.5273-0.96875 2.6719l-2.2812-0.23438c0.15625-1.707 0.74219-3.0078 1.7656-3.9062 1.0195-0.89453 2.3906-1.3438 4.1094-1.3438 1.7383 0 3.1133 0.48438 4.125 1.4531 1.0078 0.96094 1.5156 2.1523 1.5156 3.5781 0 0.73047-0.14844 1.4453-0.4375 2.1406-0.29297 0.69922-0.78125 1.4375-1.4688 2.2188-0.6875 0.77344-1.8359 1.8281-3.4375 3.1719-1.3359 1.125-2.1953 1.8906-2.5781 2.2969-0.375 0.39844-0.68359 0.79297-0.92188 1.1875z"/>
  </g>
  <g id="use9423" transform="matrix(.35278 0 0 .35278 22.133 161.69)" style="fill:#1c1c19">
   <path id="path16149" d="m3.0469-13.781 3.4844 6.75-6.2969 7.0312h2.8125l2.6094-3.1094c0.67188-0.82812 1.3125-1.5625 1.9219-2.3906h0.0625c0.32812 0.82812 0.65625 1.5938 1.0469 2.3906l1.4844 3.1094h2.9062l-3.5938-7.125 6.0156-6.6562h-2.75l-2.5156 2.9219c-0.60938 0.75-1.1875 1.4531-1.8125 2.2812h-0.09375c-0.3125-0.76562-0.60938-1.4844-1-2.25l-1.4531-2.9531z"/>
  </g>
  <g id="use9425" transform="matrix(.35278 0 0 .35278 26.918 161.69)" style="fill:#1c1c19"></g>
  <g id="use9427" transform="matrix(.35278 0 0 .35278 29.136 161.69)" style="fill:#1c1c19">
   <path id="path16157" d="m17.906-9.5938 0.32812-1.7188h-14.953l-0.32812 1.7188zm-1.0469 5.5781 0.32812-1.7031h-14.953l-0.32812 1.7031z"/>
  </g>
  <g id="use9429" transform="matrix(.35278 0 0 .35278 35.28 161.69)" style="fill:#1c1c19"></g>
  <path id="path9433" d="m61.103 147.35h11.461" style="fill:none;stroke-miterlimit:10;stroke-width:.35278;stroke:#000"/>
  <path id="path9861" d="m41.129 196.17h33.025" style="fill:none;stroke-linecap:square;stroke-miterlimit:10;stroke-width:.40287;stroke:#000"/>
  <g id="use9863" transform="matrix(.35278 0 0 .35278 41.687 192.82)">
   <path id="path16165" d="m1.0625-4.7812 2.2188-0.29688c0.25781 1.2617 0.69531 2.1719 1.3125 2.7344 0.61328 0.55469 1.3594 0.82812 2.2344 0.82812 1.0508 0 1.9375-0.35938 2.6562-1.0781 0.71875-0.72656 1.0781-1.6289 1.0781-2.7031 0-1.0195-0.33594-1.8594-1-2.5156-0.66797-0.66406-1.5156-1-2.5469-1-0.41797 0-0.9375 0.078125-1.5625 0.23438l0.23438-1.9531c0.15625 0.02344 0.27344 0.03125 0.35938 0.03125 0.94531 0 1.8008-0.24219 2.5625-0.73438 0.75781-0.5 1.1406-1.2656 1.1406-2.2969 0-0.8125-0.27734-1.4844-0.82812-2.0156-0.55469-0.53906-1.2656-0.8125-2.1406-0.8125-0.86719 0-1.5898 0.27734-2.1719 0.82812-0.57422 0.54297-0.9375 1.3555-1.0938 2.4375l-2.2344-0.39062c0.26953-1.4883 0.88281-2.6445 1.8438-3.4688 0.96875-0.82031 2.1719-1.2344 3.6094-1.2344 0.98828 0 1.8945 0.21484 2.7188 0.64062 0.83203 0.42969 1.4688 1.0078 1.9062 1.7344 0.44531 0.73047 0.67188 1.5117 0.67188 2.3438 0 0.78125-0.21484 1.4961-0.64062 2.1406-0.41797 0.63672-1.0391 1.1406-1.8594 1.5156 1.0703 0.25 1.9062 0.76562 2.5 1.5469 0.59375 0.77344 0.89062 1.7461 0.89062 2.9219 0 1.5742-0.57812 2.9141-1.7344 4.0156-1.1484 1.1055-2.6055 1.6562-4.375 1.6562-1.5859 0-2.9023-0.47266-3.9531-1.4219-1.0547-0.94531-1.6523-2.1758-1.7969-3.6875z"/>
  </g>
  <g id="use9865" transform="matrix(.35278 0 0 .35278 46.65 192.82)"></g>
  <g id="use9867" transform="matrix(.35278 0 0 .35278 49.132 192.82)">
   <path id="path16173" d="m6.3438-2.9219v-4.9688h-4.9375v-2.0781h4.9375v-4.9219h2.0938v4.9219h4.9219v2.0781h-4.9219v4.9688z"/>
  </g>
  <g id="use9869" transform="matrix(.35278 0 0 .35278 54.345 192.82)"></g>
  <g id="use9871" transform="matrix(.35278 0 0 .35278 56.827 192.82)">
   <path id="path16181" d="m12.969-23.078h0.92188l-3.8594 24.047-6.125-12.609-2.4531 1.1094-0.42188-0.78125 3.7188-1.8594 5.0156 10.156z"/>
  </g>
  <g id="use9873" transform="matrix(.35278 0 0 .35278 61.727 192.82)"></g>
  <g id="use9875" transform="matrix(.35278 0 0 .35278 64.209 192.82)">
   <path id="path16189" d="m1.0469-4.75 2.3438-0.1875c0.16406 1.1367 0.5625 1.9922 1.1875 2.5625 0.63281 0.57422 1.3984 0.85938 2.2969 0.85938 1.0625 0 1.9609-0.39844 2.7031-1.2031 0.75-0.8125 1.125-1.8828 1.125-3.2188 0-1.2695-0.35938-2.2695-1.0781-3-0.71094-0.73828-1.6406-1.1094-2.7969-1.1094-0.71875 0-1.3672 0.16797-1.9375 0.5-0.57422 0.32422-1.0273 0.74609-1.3594 1.2656l-2.0938-0.28125 1.7656-9.2969h9v2.125h-7.2188l-0.98438 4.8594c1.082-0.75 2.2227-1.125 3.4219-1.125 1.582 0 2.9141 0.54688 4 1.6406 1.0938 1.0938 1.6406 2.5 1.6406 4.2188 0 1.6367-0.48047 3.0547-1.4375 4.25-1.168 1.4688-2.75 2.2031-4.75 2.2031-1.6562 0-3.0078-0.45703-4.0469-1.375-1.043-0.92578-1.6367-2.1562-1.7812-3.6875z"/>
  </g>
  <g id="use9879" transform="matrix(.35278 0 0 .35278 53.408 205.1)">
   <path id="path16193" d="m12.734-2.1406v2.1406h-11.969c-0.023437-0.53125 0.066406-1.0469 0.26562-1.5469 0.30078-0.8125 0.78516-1.6133 1.4531-2.4062 0.67578-0.78906 1.6445-1.7031 2.9062-2.7344 1.9688-1.6133 3.2969-2.8906 3.9844-3.8281 0.69531-0.94531 1.0469-1.8438 1.0469-2.6875 0-0.88281-0.32031-1.6289-0.95312-2.2344-0.625-0.60156-1.4453-0.90625-2.4531-0.90625-1.0742 0-1.9336 0.32422-2.5781 0.96875-0.63672 0.63672-0.96094 1.5273-0.96875 2.6719l-2.2812-0.23438c0.15625-1.707 0.74219-3.0078 1.7656-3.9062 1.0195-0.89453 2.3906-1.3438 4.1094-1.3438 1.7383 0 3.1133 0.48438 4.125 1.4531 1.0078 0.96094 1.5156 2.1523 1.5156 3.5781 0 0.73047-0.14844 1.4453-0.4375 2.1406-0.29297 0.69922-0.78125 1.4375-1.4688 2.2188-0.6875 0.77344-1.8359 1.8281-3.4375 3.1719-1.3359 1.125-2.1953 1.8906-2.5781 2.2969-0.375 0.39844-0.68359 0.79297-0.92188 1.1875z"/>
  </g>
  <g id="use9883" transform="matrix(.35278 0 0 .35278 22.133 198.96)" style="fill:#1c1c19">
   <path id="path16197" d="m3.0469-13.781 3.4844 6.75-6.2969 7.0312h2.8125l2.6094-3.1094c0.67188-0.82812 1.3125-1.5625 1.9219-2.3906h0.0625c0.32812 0.82812 0.65625 1.5938 1.0469 2.3906l1.4844 3.1094h2.9062l-3.5938-7.125 6.0156-6.6562h-2.75l-2.5156 2.9219c-0.60938 0.75-1.1875 1.4531-1.8125 2.2812h-0.09375c-0.3125-0.76562-0.60938-1.4844-1-2.25l-1.4531-2.9531z"/>
  </g>
  <g id="use9885" transform="matrix(.35278 0 0 .35278 26.918 198.96)" style="fill:#1c1c19"></g>
  <g id="use9887" transform="matrix(.35278 0 0 .35278 29.136 198.96)" style="fill:#1c1c19">
   <path id="path16205" d="m17.906-9.5938 0.32812-1.7188h-14.953l-0.32812 1.7188zm-1.0469 5.5781 0.32812-1.7031h-14.953l-0.32812 1.7031z"/>
  </g>
  <g id="use9889" transform="matrix(.35278 0 0 .35278 35.28 198.96)" style="fill:#1c1c19"></g>
  <path id="path9893" d="m61.456 184.62h11.461" style="fill:none;stroke-miterlimit:10;stroke-width:.35278;stroke:#000"/>
  <path id="path9895" d="m141.54 196.17h31.078" style="fill:none;stroke-linecap:square;stroke-miterlimit:10;stroke-width:.40287;stroke:#000"/>
  <g id="use9897" transform="matrix(.35278 0 0 .35278 142.1 192.82)">
   <path id="path16213" d="m1.0625-4.7812 2.2188-0.29688c0.25781 1.2617 0.69531 2.1719 1.3125 2.7344 0.61328 0.55469 1.3594 0.82812 2.2344 0.82812 1.0508 0 1.9375-0.35938 2.6562-1.0781 0.71875-0.72656 1.0781-1.6289 1.0781-2.7031 0-1.0195-0.33594-1.8594-1-2.5156-0.66797-0.66406-1.5156-1-2.5469-1-0.41797 0-0.9375 0.078125-1.5625 0.23438l0.23438-1.9531c0.15625 0.02344 0.27344 0.03125 0.35938 0.03125 0.94531 0 1.8008-0.24219 2.5625-0.73438 0.75781-0.5 1.1406-1.2656 1.1406-2.2969 0-0.8125-0.27734-1.4844-0.82812-2.0156-0.55469-0.53906-1.2656-0.8125-2.1406-0.8125-0.86719 0-1.5898 0.27734-2.1719 0.82812-0.57422 0.54297-0.9375 1.3555-1.0938 2.4375l-2.2344-0.39062c0.26953-1.4883 0.88281-2.6445 1.8438-3.4688 0.96875-0.82031 2.1719-1.2344 3.6094-1.2344 0.98828 0 1.8945 0.21484 2.7188 0.64062 0.83203 0.42969 1.4688 1.0078 1.9062 1.7344 0.44531 0.73047 0.67188 1.5117 0.67188 2.3438 0 0.78125-0.21484 1.4961-0.64062 2.1406-0.41797 0.63672-1.0391 1.1406-1.8594 1.5156 1.0703 0.25 1.9062 0.76562 2.5 1.5469 0.59375 0.77344 0.89062 1.7461 0.89062 2.9219 0 1.5742-0.57812 2.9141-1.7344 4.0156-1.1484 1.1055-2.6055 1.6562-4.375 1.6562-1.5859 0-2.9023-0.47266-3.9531-1.4219-1.0547-0.94531-1.6523-2.1758-1.7969-3.6875z"/>
  </g>
  <g id="use9899" transform="matrix(.35278 0 0 .35278 147.06 192.82)"></g>
  <g id="use9901" transform="matrix(.35278 0 0 .35278 149.54 192.82)">
   <path id="path16221" d="m0.79688-5.4375v-2.2344h6.8438v2.2344z"/>
  </g>
  <g id="use9903" transform="matrix(.35278 0 0 .35278 152.52 192.82)"></g>
  <g id="use9905" transform="matrix(.35278 0 0 .35278 155 192.82)">
   <path id="path16229" d="m12.969-23.078h0.92188l-3.8594 24.047-6.125-12.609-2.4531 1.1094-0.42188-0.78125 3.7188-1.8594 5.0156 10.156z"/>
  </g>
  <g id="use9907" transform="matrix(.35278 0 0 .35278 159.9 192.82)"></g>
  <g id="use9909" transform="matrix(.35278 0 0 .35278 162.38 192.82)">
   <path id="path16237" d="m1.0469-4.75 2.3438-0.1875c0.16406 1.1367 0.5625 1.9922 1.1875 2.5625 0.63281 0.57422 1.3984 0.85938 2.2969 0.85938 1.0625 0 1.9609-0.39844 2.7031-1.2031 0.75-0.8125 1.125-1.8828 1.125-3.2188 0-1.2695-0.35938-2.2695-1.0781-3-0.71094-0.73828-1.6406-1.1094-2.7969-1.1094-0.71875 0-1.3672 0.16797-1.9375 0.5-0.57422 0.32422-1.0273 0.74609-1.3594 1.2656l-2.0938-0.28125 1.7656-9.2969h9v2.125h-7.2188l-0.98438 4.8594c1.082-0.75 2.2227-1.125 3.4219-1.125 1.582 0 2.9141 0.54688 4 1.6406 1.0938 1.0938 1.6406 2.5 1.6406 4.2188 0 1.6367-0.48047 3.0547-1.4375 4.25-1.168 1.4688-2.75 2.2031-4.75 2.2031-1.6562 0-3.0078-0.45703-4.0469-1.375-1.043-0.92578-1.6367-2.1562-1.7812-3.6875z"/>
  </g>
  <g id="use9913" transform="matrix(.35278 0 0 .35278 153.82 205.1)">
   <path id="path16241" d="m12.734-2.1406v2.1406h-11.969c-0.023437-0.53125 0.066406-1.0469 0.26562-1.5469 0.30078-0.8125 0.78516-1.6133 1.4531-2.4062 0.67578-0.78906 1.6445-1.7031 2.9062-2.7344 1.9688-1.6133 3.2969-2.8906 3.9844-3.8281 0.69531-0.94531 1.0469-1.8438 1.0469-2.6875 0-0.88281-0.32031-1.6289-0.95312-2.2344-0.625-0.60156-1.4453-0.90625-2.4531-0.90625-1.0742 0-1.9336 0.32422-2.5781 0.96875-0.63672 0.63672-0.96094 1.5273-0.96875 2.6719l-2.2812-0.23438c0.15625-1.707 0.74219-3.0078 1.7656-3.9062 1.0195-0.89453 2.3906-1.3438 4.1094-1.3438 1.7383 0 3.1133 0.48438 4.125 1.4531 1.0078 0.96094 1.5156 2.1523 1.5156 3.5781 0 0.73047-0.14844 1.4453-0.4375 2.1406-0.29297 0.69922-0.78125 1.4375-1.4688 2.2188-0.6875 0.77344-1.8359 1.8281-3.4375 3.1719-1.3359 1.125-2.1953 1.8906-2.5781 2.2969-0.375 0.39844-0.68359 0.79297-0.92188 1.1875z"/>
  </g>
  <g id="use9917" transform="matrix(.35278 0 0 .35278 122.55 198.96)" style="fill:#1c1c19">
   <path id="path16245" d="m3.0469-13.781 3.4844 6.75-6.2969 7.0312h2.8125l2.6094-3.1094c0.67188-0.82812 1.3125-1.5625 1.9219-2.3906h0.0625c0.32812 0.82812 0.65625 1.5938 1.0469 2.3906l1.4844 3.1094h2.9062l-3.5938-7.125 6.0156-6.6562h-2.75l-2.5156 2.9219c-0.60938 0.75-1.1875 1.4531-1.8125 2.2812h-0.09375c-0.3125-0.76562-0.60938-1.4844-1-2.25l-1.4531-2.9531z"/>
  </g>
  <g id="use9919" transform="matrix(.35278 0 0 .35278 127.33 198.96)" style="fill:#1c1c19"></g>
  <g id="use9921" transform="matrix(.35278 0 0 .35278 129.55 198.96)" style="fill:#1c1c19">
   <path id="path16253" d="m17.906-9.5938 0.32812-1.7188h-14.953l-0.32812 1.7188zm-1.0469 5.5781 0.32812-1.7031h-14.953l-0.32812 1.7031z"/>
  </g>
  <g id="use9923" transform="matrix(.35278 0 0 .35278 135.69 198.96)" style="fill:#1c1c19"></g>
  <path id="path9927" d="m159.59 184.62h11.463" style="fill:none;stroke-miterlimit:10;stroke-width:.35278;stroke:#000"/>
  <g id="use9977" transform="matrix(.35278 0 0 .35278 22.901 61.661)">
   <path id="path16261" d="m0.1875 0 4.7969-6.8125-4.4375-6.3125h2.7812l2.0156 3.0781c0.375 0.58594 0.67578 1.0742 0.90625 1.4688 0.36328-0.53906 0.69531-1.0195 1-1.4375l2.2188-3.1094h2.6562l-4.5469 6.1875 4.8906 6.9375h-2.7344l-2.6875-4.0781-0.71875-1.0938-3.4531 5.1719z"/>
  </g>
  <g id="use9981" transform="matrix(.35278 0 0 .35278 27.362 58.691)">
   <path id="path16265" d="m7.4219-1.25v1.25h-6.9688c-0.011719-0.3125 0.035156-0.61328 0.14062-0.90625 0.17578-0.46875 0.45703-0.92969 0.84375-1.3906 0.39453-0.46875 0.96094-1.0039 1.7031-1.6094 1.1562-0.9375 1.9297-1.6797 2.3281-2.2344 0.40625-0.55078 0.60938-1.0703 0.60938-1.5625 0-0.50781-0.18359-0.94141-0.54688-1.2969-0.36719-0.35156-0.84375-0.53125-1.4375-0.53125-0.625 0-1.125 0.1875-1.5 0.5625s-0.5625 0.89844-0.5625 1.5625l-1.3438-0.14062c0.09375-0.98828 0.4375-1.7422 1.0312-2.2656 0.59375-0.53125 1.3945-0.79688 2.4062-0.79688 1.0078 0 1.8047 0.28125 2.3906 0.84375 0.59375 0.5625 0.89062 1.2617 0.89062 2.0938 0 0.42969-0.089844 0.84375-0.26562 1.25-0.16797 0.40625-0.45312 0.83984-0.85938 1.2969-0.39844 0.44922-1.0586 1.0625-1.9844 1.8438-0.78125 0.65625-1.2812 1.1055-1.5 1.3438-0.21875 0.23047-0.40234 0.46094-0.54688 0.6875z"/>
  </g>
  <g id="use9985" transform="matrix(.35278 0 0 .35278 30.256 61.662)"></g>
  <g id="use9987" transform="matrix(.35278 0 0 .35278 32.738 61.662)">
   <path id="path16273" d="m0.79688-5.4375v-2.2344h6.8438v2.2344z"/>
  </g>
  <g id="use9989" transform="matrix(.35278 0 0 .35278 35.71 61.662)"></g>
  <g id="use9991" transform="matrix(.35278 0 0 .35278 38.192 61.662)">
   <path id="path16281" d="m1.0625-4.7812 2.2188-0.29688c0.25781 1.2617 0.69531 2.1719 1.3125 2.7344 0.61328 0.55469 1.3594 0.82812 2.2344 0.82812 1.0508 0 1.9375-0.35938 2.6562-1.0781 0.71875-0.72656 1.0781-1.6289 1.0781-2.7031 0-1.0195-0.33594-1.8594-1-2.5156-0.66797-0.66406-1.5156-1-2.5469-1-0.41797 0-0.9375 0.078125-1.5625 0.23438l0.23438-1.9531c0.15625 0.02344 0.27344 0.03125 0.35938 0.03125 0.94531 0 1.8008-0.24219 2.5625-0.73438 0.75781-0.5 1.1406-1.2656 1.1406-2.2969 0-0.8125-0.27734-1.4844-0.82812-2.0156-0.55469-0.53906-1.2656-0.8125-2.1406-0.8125-0.86719 0-1.5898 0.27734-2.1719 0.82812-0.57422 0.54297-0.9375 1.3555-1.0938 2.4375l-2.2344-0.39062c0.26953-1.4883 0.88281-2.6445 1.8438-3.4688 0.96875-0.82031 2.1719-1.2344 3.6094-1.2344 0.98828 0 1.8945 0.21484 2.7188 0.64062 0.83203 0.42969 1.4688 1.0078 1.9062 1.7344 0.44531 0.73047 0.67188 1.5117 0.67188 2.3438 0 0.78125-0.21484 1.4961-0.64062 2.1406-0.41797 0.63672-1.0391 1.1406-1.8594 1.5156 1.0703 0.25 1.9062 0.76562 2.5 1.5469 0.59375 0.77344 0.89062 1.7461 0.89062 2.9219 0 1.5742-0.57812 2.9141-1.7344 4.0156-1.1484 1.1055-2.6055 1.6562-4.375 1.6562-1.5859 0-2.9023-0.47266-3.9531-1.4219-1.0547-0.94531-1.6523-2.1758-1.7969-3.6875z"/>
  </g>
  <g id="use9993" transform="matrix(.35278 0 0 .35278 43.155 61.662)">
   <path id="path16285" d="m0.1875 0 4.7969-6.8125-4.4375-6.3125h2.7812l2.0156 3.0781c0.375 0.58594 0.67578 1.0742 0.90625 1.4688 0.36328-0.53906 0.69531-1.0195 1-1.4375l2.2188-3.1094h2.6562l-4.5469 6.1875 4.8906 6.9375h-2.7344l-2.6875-4.0781-0.71875-1.0938-3.4531 5.1719z"/>
  </g>
  <g id="use9995" transform="matrix(.35278 0 0 .35278 47.618 61.662)"></g>
  <g id="use9997" transform="matrix(.35278 0 0 .35278 50.1 61.662)">
   <path id="path16293" d="m6.3438-2.9219v-4.9688h-4.9375v-2.0781h4.9375v-4.9219h2.0938v4.9219h4.9219v2.0781h-4.9219v4.9688z"/>
  </g>
  <g id="use9999" transform="matrix(.35278 0 0 .35278 55.313 61.662)"></g>
  <g id="use10001" transform="matrix(.35278 0 0 .35278 57.795 61.662)">
   <path id="path16301" d="m9.4219 0h-2.2188v-14.172c-0.54297 0.51172-1.2461 1.0234-2.1094 1.5312-0.86719 0.51172-1.6484 0.89844-2.3438 1.1562v-2.1562c1.25-0.58203 2.3359-1.2891 3.2656-2.125 0.92578-0.83203 1.582-1.6406 1.9688-2.4219h1.4375z"/>
  </g>
  <g id="use10003" transform="matrix(.35278 0 0 .35278 62.758 61.662)"></g>
  <g id="use10005" transform="matrix(.35278 0 0 .35278 65.24 61.662)">
   <path id="path16309" d="m13.359-10.641h-11.953v-2.0781h11.953zm0 5.4844h-11.953v-2.0625h11.953z"/>
  </g>
  <g id="use10007" transform="matrix(.35278 0 0 .35278 70.453 61.662)"></g>
  <g id="use10009" transform="matrix(.35278 0 0 .35278 72.935 61.662)">
   <path id="path16317" d="m1.0469-8.9375c0-2.1328 0.21875-3.8516 0.65625-5.1562 0.44531-1.3125 1.1016-2.3203 1.9688-3.0312 0.875-0.70703 1.9688-1.0625 3.2812-1.0625 0.96875 0 1.8164 0.19922 2.5469 0.59375 0.73828 0.38672 1.3477 0.94922 1.8281 1.6875 0.47656 0.74219 0.85156 1.6406 1.125 2.7031 0.26953 1.0547 0.40625 2.4766 0.40625 4.2656 0 2.125-0.21875 3.8438-0.65625 5.1562-0.4375 1.3047-1.0938 2.3125-1.9688 3.0312-0.86719 0.71094-1.9609 1.0625-3.2812 1.0625-1.75 0-3.1211-0.625-4.1094-1.875-1.1992-1.5078-1.7969-3.9688-1.7969-7.375zm2.2812 0c0 2.9805 0.34766 4.9648 1.0469 5.9531 0.69531 0.98047 1.5547 1.4688 2.5781 1.4688 1.0195 0 1.8789-0.49219 2.5781-1.4844 0.69531-0.98828 1.0469-2.9688 1.0469-5.9375 0-2.9766-0.35156-4.957-1.0469-5.9375-0.69922-0.97656-1.5703-1.4688-2.6094-1.4688-1.0234 0-1.8359 0.43359-2.4375 1.2969-0.77344 1.1055-1.1562 3.1406-1.1562 6.1094z"/>
  </g>
 </g>
</svg>
