<svg id="svg66490" version="1.1" viewBox="0 0 38.361 6.4437" xmlns="http://www.w3.org/2000/svg">
 <title id="title66613">img_43</title>
 <g id="layer1" transform="translate(-95.724 -144.19)">
  <g id="use53308" transform="matrix(.35278 0 0 .35278 95.211 149.24)">
   <path id="path66405" d="m1.4531 0v-14.312h10.625v2.4219h-7.7344v3.1719h7.1875v2.4062h-7.1875v3.9062h8v2.4062z"/>
  </g>
  <g id="use53312" transform="matrix(.35278 0 0 .35278 99.953 149.24)">
   <path id="path66409" d="m11.125-6.7344v-1.2031h-10.328v1.2031zm0 3.9219v-1.2031h-10.328v1.2031z"/>
  </g>
  <g id="use53314" transform="matrix(.35278 0 0 .35278 104.19 149.24)"></g>
  <g id="g66611">
   <g id="use53316" transform="matrix(.35278 0 0 .35278 105.72 149.24)">
    <path id="path66417" d="m8.5-7.7656h-5.2344v-4.25h5.5312v-1.4688h-7.2812v13.484h7.5781v-1.4531h-5.8281v-4.8594h5.2344z"/>
   </g>
   <g id="use53318" transform="matrix(.35278 0 0 .35278 109.23 149.24)">
    <path id="path66421" d="m0.3125-9.6875 3.2812 4.75-3.4375 4.9375h1.9375l1.4062-2.1875c0.35938-0.57812 0.70312-1.0938 1.0156-1.6719h0.046875c0.34375 0.57812 0.65625 1.125 1.0312 1.6719l1.4219 2.1875h2l-3.3906-5 3.2969-4.6875h-1.9062l-1.3594 2.0625c-0.3125 0.53125-0.64062 1.0312-0.95312 1.6094h-0.0625c-0.32812-0.54688-0.625-1.0469-0.98438-1.5781l-1.375-2.0938z"/>
   </g>
   <g id="use53320" transform="matrix(.35278 0 0 .35278 112.53 149.24)">
    <path id="path66425" d="m1.4531 3.9531h1.75v-5.25h0.03125c0.57812 0.95312 1.7031 1.5156 2.9844 1.5156 2.2812 0 4.4062-1.7188 4.4062-5.2031 0-2.9375-1.7656-4.9219-4.1094-4.9219-1.5781 0-2.7188 0.70312-3.4375 1.8906h-0.03125l-0.09375-1.6719h-1.5781c0.046875 0.92188 0.078125 1.9219 0.078125 3.1719zm1.75-9.5469c0-0.25 0.0625-0.5 0.10938-0.71875 0.34375-1.3281 1.4688-2.1875 2.6719-2.1875 1.8594 0 2.875 1.6562 2.875 3.5938 0 2.2188-1.0781 3.75-2.9375 3.75-1.2656 0-2.3281-0.84375-2.6406-2.0625-0.046875-0.21875-0.078125-0.46875-0.078125-0.71875z"/>
   </g>
   <g id="use53322" transform="matrix(.35278 0 0 .35278 116.58 149.24)">
    <path id="path66429" d="m5.5625-9.9062c-2.6875 0-4.7969 1.9062-4.7969 5.1406 0 3.0625 2.0156 4.9844 4.6406 4.9844 2.3281 0 4.8125-1.5625 4.8125-5.1406 0-2.9531-1.875-4.9844-4.6562-4.9844zm-0.046875 1.3281c2.0781 0 2.9062 2.0781 2.9062 3.7188 0 2.1719-1.2656 3.7656-2.9375 3.7656-1.7188 0-2.9375-1.6094-2.9375-3.7188 0-1.8438 0.89062-3.7656 2.9688-3.7656z"/>
   </g>
   <g id="use53324" transform="matrix(.35278 0 0 .35278 120.49 149.24)">
    <path id="path66433" d="m1.4531 0h1.7656v-5.8125c0-0.3125 0.046875-0.60938 0.125-0.82812 0.29688-0.98438 1.2031-1.7969 2.3594-1.7969 1.6562 0 2.2344 1.2969 2.2344 2.8594v5.5781h1.7656v-5.7812c0-3.3125-2.0781-4.125-3.4219-4.125-1.5938 0-2.7188 0.90625-3.2031 1.8281h-0.03125l-0.10938-1.6094h-1.5625c0.0625 0.8125 0.078125 1.625 0.078125 2.625z"/>
   </g>
   <g id="use53326" transform="matrix(.35278 0 0 .35278 124.44 149.24)">
    <path id="path66437" d="m9.2344-4.5156c0.03125-0.1875 0.0625-0.46875 0.0625-0.82812 0-1.7812-0.84375-4.5625-4-4.5625-2.8125 0-4.5312 2.3125-4.5312 5.2188 0 2.9219 1.7812 4.8906 4.75 4.8906 1.5469 0 2.6094-0.32812 3.2188-0.60938l-0.29688-1.25c-0.65625 0.28125-1.4219 0.5-2.6719 0.5-1.7656 0-3.2812-0.98438-3.3281-3.3594zm-6.7812-1.2656c0.14062-1.2188 0.92188-2.8594 2.7031-2.8594 1.9844 0 2.4688 1.7344 2.4375 2.8594z"/>
   </g>
   <g id="use53328" transform="matrix(.35278 0 0 .35278 128.01 149.24)">
    <path id="path66441" d="m1.4531 0h1.7656v-5.8125c0-0.3125 0.046875-0.60938 0.125-0.82812 0.29688-0.98438 1.2031-1.7969 2.3594-1.7969 1.6562 0 2.2344 1.2969 2.2344 2.8594v5.5781h1.7656v-5.7812c0-3.3125-2.0781-4.125-3.4219-4.125-1.5938 0-2.7188 0.90625-3.2031 1.8281h-0.03125l-0.10938-1.6094h-1.5625c0.0625 0.8125 0.078125 1.625 0.078125 2.625z"/>
   </g>
   <g id="use53332" transform="matrix(.35278 0 0 .35278 131.94 149.24)">
    <path id="path66445" d="m1.8594-12v2.3125h-1.5v1.3438h1.5v5.2812c0 1.1406 0.1875 2 0.6875 2.5156 0.40625 0.48438 1.0781 0.75 1.8906 0.75 0.6875 0 1.2188-0.10938 1.5625-0.25l-0.078125-1.3125c-0.21875 0.0625-0.5625 0.125-1.0156 0.125-0.98438 0-1.3281-0.6875-1.3281-1.8906v-5.2188h2.5156v-1.3438h-2.5156v-2.7656z"/>
   </g>
  </g>
 </g>
</svg>
