<svg id="svg47112" version="1.1" viewBox="0 0 90.193 91.134" xmlns="http://www.w3.org/2000/svg">
 <title id="title47631">img_60</title>
 <defs id="defs47106">
  <clipPath id="clipPath42103">
   <path id="path42101" d="m244.6 2028.8h244.1v-244.11h-244.1z"/>
  </clipPath>
 </defs>
 <g id="layer1" transform="translate(-60.509 -82.73)">
  <g id="g42097" transform="matrix(.35278 0 0 -.35278 -25.782 803.44)">
   <g id="g42181">
    <g id="g42179" clip-path="url(#clipPath42103)" opacity=".39999">
     <path id="path42105" d="m244.73 2028.7h243.85v-243.85h-243.85z" style="fill:none;stroke-miterlimit:10;stroke-width:.25;stroke:#1d1d1b"/>
     <g id="g42109" transform="translate(244.73 1809.2)">
      <path id="path42107" d="m0 0h243.85" style="fill:none;stroke-miterlimit:10;stroke-width:.25;stroke:#1d1d1b"/>
     </g>
     <g id="g42113" transform="translate(244.73 1833.6)">
      <path id="path42111" d="m0 0h243.85" style="fill:none;stroke-miterlimit:10;stroke-width:.25;stroke:#1d1d1b"/>
     </g>
     <g id="g42117" transform="translate(244.73 1858)">
      <path id="path42115" d="m0 0h243.85" style="fill:none;stroke-miterlimit:10;stroke-width:.25;stroke:#1d1d1b"/>
     </g>
     <g id="g42121" transform="translate(244.73 1882.4)">
      <path id="path42119" d="m0 0h243.85" style="fill:none;stroke-miterlimit:10;stroke-width:.25;stroke:#1d1d1b"/>
     </g>
     <g id="g42125" transform="translate(244.73 1906.8)">
      <path id="path42123" d="m0 0h243.85" style="fill:none;stroke-miterlimit:10;stroke-width:.25;stroke:#1d1d1b"/>
     </g>
     <g id="g42129" transform="translate(244.73 1931.1)">
      <path id="path42127" d="m0 0h243.85" style="fill:none;stroke-miterlimit:10;stroke-width:.25;stroke:#1d1d1b"/>
     </g>
     <g id="g42133" transform="translate(244.73 1955.5)">
      <path id="path42131" d="m0 0h243.85" style="fill:none;stroke-miterlimit:10;stroke-width:.25;stroke:#1d1d1b"/>
     </g>
     <g id="g42137" transform="translate(244.73 1979.9)">
      <path id="path42135" d="m0 0h243.85" style="fill:none;stroke-miterlimit:10;stroke-width:.25;stroke:#1d1d1b"/>
     </g>
     <g id="g42141" transform="translate(244.73 2004.3)">
      <path id="path42139" d="m0 0h243.85" style="fill:none;stroke-miterlimit:10;stroke-width:.25;stroke:#1d1d1b"/>
     </g>
     <g id="g42145" transform="translate(464.2 2028.7)">
      <path id="path42143" d="m0 0v-243.85" style="fill:none;stroke-miterlimit:10;stroke-width:.25;stroke:#1d1d1b"/>
     </g>
     <g id="g42149" transform="translate(439.81 2028.7)">
      <path id="path42147" d="m0 0v-243.85" style="fill:none;stroke-miterlimit:10;stroke-width:.25;stroke:#1d1d1b"/>
     </g>
     <g id="g42153" transform="translate(415.43 2028.7)">
      <path id="path42151" d="m0 0v-243.85" style="fill:none;stroke-miterlimit:10;stroke-width:.25;stroke:#1d1d1b"/>
     </g>
     <g id="g42157" transform="translate(391.04 2028.7)">
      <path id="path42155" d="m0 0v-243.85" style="fill:none;stroke-miterlimit:10;stroke-width:.25;stroke:#1d1d1b"/>
     </g>
     <g id="g42161" transform="translate(366.66 2028.7)">
      <path id="path42159" d="m0 0v-243.85" style="fill:none;stroke-miterlimit:10;stroke-width:.25;stroke:#1d1d1b"/>
     </g>
     <g id="g42165" transform="translate(342.27 2028.7)">
      <path id="path42163" d="m0 0v-243.85" style="fill:none;stroke-miterlimit:10;stroke-width:.25;stroke:#1d1d1b"/>
     </g>
     <g id="g42169" transform="translate(317.88 2028.7)">
      <path id="path42167" d="m0 0v-243.85" style="fill:none;stroke-miterlimit:10;stroke-width:.25;stroke:#1d1d1b"/>
     </g>
     <g id="g42173" transform="translate(293.5 2028.7)">
      <path id="path42171" d="m0 0v-243.85" style="fill:none;stroke-miterlimit:10;stroke-width:.25;stroke:#1d1d1b"/>
     </g>
     <g id="g42177" transform="translate(269.11 2028.7)">
      <path id="path42175" d="m0 0v-243.85" style="fill:none;stroke-miterlimit:10;stroke-width:.25;stroke:#1d1d1b"/>
     </g>
    </g>
   </g>
  </g>
  <path id="path7910" d="m143.95 123.37 0.5898-0.14059" style="fill:none;stroke-miterlimit:10;stroke-width:.35278;stroke:#1c1ca1"/>
  <path id="path7912" d="m144.1 124.39 3.4837-1.881-3.9577-0.11299z" style="fill:#1c1ca1"/>
  <path id="path7914" d="m69.142 89.829 0.0096 81.693" style="fill:none;stroke-miterlimit:10;stroke-width:.38806;stroke:#1c1c19"/>
  <path id="path7916" d="m69.142 87.488c-0.40928 1.1024-1.1066 2.4694-1.8466 3.317l1.8466-0.667 1.8452 0.667c-0.73863-0.84751-1.4373-2.2145-1.8452-3.317" style="fill:#1c1c19"/>
  <path id="path7918" d="m69.152 173.86c-0.40928-1.1024-1.1066-2.4694-1.8466-3.3183l1.8466 0.66837 1.8452-0.66837c-0.73863 0.84889-1.4359 2.2159-1.8452 3.3183" style="fill:#1c1c19"/>
  <path id="path7920" d="m144.23 165.2-81.34 0.0565" style="fill:none;stroke-miterlimit:10;stroke-width:.38806;stroke:#1c1c19"/>
  <path id="path7922" d="m146.58 165.2c-1.1024-0.40791-2.4708-1.1052-3.3197-1.8438l0.66972 1.8466-0.66696 1.8466c0.84749-0.74003 2.2145-1.4387 3.3169-1.8493" style="fill:#1c1c19"/>
  <path id="path7924" d="m60.55 165.26c1.101-0.41067 2.4694-1.1094 3.3169-1.8493l-0.66697 1.848 0.66835 1.8452c-0.8475-0.73861-2.2159-1.4359-3.3183-1.8438" style="fill:#1c1c19"/>
  <path id="path7926" d="m77.707 163.95v2.6279" style="fill:none;stroke-miterlimit:10;stroke-width:.42122;stroke:#1c1c19"/>
  <path id="path7928" d="m86.362 163.95v2.6279" style="fill:none;stroke-miterlimit:10;stroke-width:.42122;stroke:#1c1c19"/>
  <path id="path7930" d="m94.953 163.95v2.6279" style="fill:none;stroke-miterlimit:10;stroke-width:.42122;stroke:#1c1c19"/>
  <path id="path7932" d="m103.56 163.95v2.6279" style="fill:none;stroke-miterlimit:10;stroke-width:.42122;stroke:#1c1c19"/>
  <path id="path7934" d="m112.16 163.95v2.6279" style="fill:none;stroke-miterlimit:10;stroke-width:.42122;stroke:#1c1c19"/>
  <path id="path7936" d="m120.79 163.95v2.6279" style="fill:none;stroke-miterlimit:10;stroke-width:.42122;stroke:#1c1c19"/>
  <path id="path7938" d="m129.38 163.95v2.6279" style="fill:none;stroke-miterlimit:10;stroke-width:.42122;stroke:#1c1c19"/>
  <path id="path7940" d="m137.97 163.95v2.6279" style="fill:none;stroke-miterlimit:10;stroke-width:.42122;stroke:#1c1c19"/>
  <path id="path7942" d="m67.827 156.67h2.6279" style="fill:none;stroke-miterlimit:10;stroke-width:.42122;stroke:#1c1c19"/>
  <path id="path7944" d="m67.827 148.06h2.6279" style="fill:none;stroke-miterlimit:10;stroke-width:.42122;stroke:#1c1c19"/>
  <path id="path7946" d="m67.827 139.46h2.6279" style="fill:none;stroke-miterlimit:10;stroke-width:.42122;stroke:#1c1c19"/>
  <path id="path7948" d="m67.899 130.86h2.6279" style="fill:none;stroke-miterlimit:10;stroke-width:.42122;stroke:#1c1c19"/>
  <path id="path7950" d="m67.863 122.26h2.6279" style="fill:none;stroke-miterlimit:10;stroke-width:.42122;stroke:#1c1c19"/>
  <path id="path7952" d="m67.863 113.61h2.6279" style="fill:none;stroke-miterlimit:10;stroke-width:.42122;stroke:#1c1c19"/>
  <path id="path7954" d="m67.863 105.05h2.6279" style="fill:none;stroke-miterlimit:10;stroke-width:.42122;stroke:#1c1c19"/>
  <path id="path7956" d="m67.863 96.441h2.6279" style="fill:none;stroke-miterlimit:10;stroke-width:.42122;stroke:#1c1c19"/>
  <g id="g7960" transform="matrix(.35278 0 0 .35278 -25.785 -1260)" style="fill:#1c1c19">
   <g id="use7958" transform="translate(278.63 3812.8)">
    <path id="path45898" d="m0.125-6.5312 2.4062 6.0156c0.0625 0.15625 0.078125 0.25 0.078125 0.3125s-0.03125 0.15625-0.09375 0.28125c-0.26562 0.60938-0.67188 1.0625-0.98438 1.3281-0.35938 0.29688-0.75 0.48438-1.0469 0.57812l0.29688 1c0.29688-0.0625 0.875-0.26562 1.4531-0.76562 0.8125-0.70312 1.3906-1.8594 2.25-4.0938l1.7656-4.6562h-1.25l-1.2969 3.8281c-0.15625 0.48438-0.29688 0.98438-0.40625 1.375h-0.03125c-0.10938-0.39062-0.26562-0.90625-0.42188-1.3438l-1.4219-3.8594z"/>
   </g>
  </g>
  <g id="g7964" transform="matrix(.35278 0 0 .35278 -25.785 -1260)" style="fill:#1c1c19">
   <g id="use7962" transform="translate(494.2 4032.9)">
    <path id="path45902" d="m0.21875-6.5312 2.2031 3.2031-2.3125 3.3281h1.3125l0.9375-1.4688c0.25-0.39062 0.46875-0.75 0.6875-1.1406h0.03125c0.21875 0.39062 0.4375 0.76562 0.70312 1.1406l0.95312 1.4688h1.3438l-2.2812-3.375 2.2188-3.1562h-1.2812l-0.92188 1.3906c-0.21875 0.35938-0.42188 0.6875-0.64062 1.0781h-0.046875c-0.21875-0.35938-0.42188-0.70312-0.65625-1.0625l-0.9375-1.4062z"/>
   </g>
  </g>
  <g id="g7968" transform="matrix(.35278 0 0 .35278 -25.785 -1260)" style="fill:#1c1c19">
   <g id="use7966" transform="translate(258.27 4052.8)">
    <path id="path45906" d="m3.5312-8.9062c-1.7812 0-3.0469 1.6094-3.0469 4.5469 0.03125 2.9062 1.1875 4.5 2.9062 4.5 1.9375 0 3.0469-1.6406 3.0469-4.625 0-2.7812-1.0625-4.4219-2.9062-4.4219zm-0.0625 0.90625c1.2188 0 1.7812 1.4219 1.7812 3.5781 0 2.2344-0.57812 3.6562-1.7969 3.6562-1.0781 0-1.7812-1.2969-1.7812-3.5781 0-2.3906 0.75-3.6562 1.7969-3.6562z"/>
   </g>
  </g>
  <g id="g7972" transform="matrix(.35278 0 0 .35278 -25.785 -1260)" style="fill:#1c1c19">
   <g id="use7970" transform="translate(289.6 4058)">
    <path id="path45910" d="m3.1875 0h1.1406v-8.7656h-1.0156l-1.9062 1.0312 0.21875 0.89062 1.5312-0.8125h0.03125z"/>
   </g>
  </g>
  <g id="g7976" transform="matrix(.35278 0 0 .35278 -25.785 -1260)" style="fill:#1c1c19">
   <g id="use7974" transform="translate(251.59 4020.2)">
    <path id="path45914" d="m3.1875 0h1.1406v-8.7656h-1.0156l-1.9062 1.0312 0.21875 0.89062 1.5312-0.8125h0.03125z"/>
   </g>
  </g>
  <g id="g7980" transform="matrix(.35278 0 0 .35278 -25.785 -1260)" style="fill:#1c1c19">
   <g id="use7978" transform="translate(314.69 4058)">
    <path id="path45918" d="m6.2031 0v-0.98438h-3.9375v-0.03125l0.70312-0.64062c1.8438-1.7812 3.0156-3.0938 3.0156-4.7031 0-1.2656-0.79688-2.5469-2.6875-2.5469-1 0-1.875 0.375-2.4688 0.89062l0.375 0.82812c0.40625-0.34375 1.0625-0.73438 1.8594-0.73438 1.3125 0 1.7344 0.8125 1.7344 1.7031-0.015625 1.3281-1.0156 2.4531-3.2656 4.5938l-0.92188 0.89062v0.73438z"/>
   </g>
  </g>
  <g id="g7984" transform="matrix(.35278 0 0 .35278 -25.785 -1260)" style="fill:#1c1c19">
   <g id="use7982" transform="translate(250.96 3995.7)">
    <path id="path45922" d="m6.2031 0v-0.98438h-3.9375v-0.03125l0.70312-0.64062c1.8438-1.7812 3.0156-3.0938 3.0156-4.7031 0-1.2656-0.79688-2.5469-2.6875-2.5469-1 0-1.875 0.375-2.4688 0.89062l0.375 0.82812c0.40625-0.34375 1.0625-0.73438 1.8594-0.73438 1.3125 0 1.7344 0.8125 1.7344 1.7031-0.015625 1.3281-1.0156 2.4531-3.2656 4.5938l-0.92188 0.89062v0.73438z"/>
   </g>
  </g>
  <g id="g7988" transform="matrix(.35278 0 0 .35278 -25.785 -1260)" style="fill:#1c1c19">
   <g id="use7986" transform="translate(339.02 4058)">
    <path id="path45926" d="m0.5625-0.4375c0.4375 0.28125 1.2969 0.57812 2.2812 0.57812 2.1094 0 3.2031-1.2188 3.2031-2.625 0-1.2188-0.875-2.0312-1.9688-2.25v-0.03125c1.0938-0.39062 1.625-1.1562 1.625-2.0625 0-1.0625-0.78125-2.0781-2.5-2.0781-0.95312 0-1.8438 0.32812-2.2969 0.67188l0.3125 0.85938c0.375-0.26562 1.0469-0.57812 1.75-0.57812 1.0938 0 1.5312 0.625 1.5312 1.3125 0 1.0469-1.0938 1.4844-1.9531 1.4844h-0.65625v0.89062h0.65625c1.1406 0 2.25 0.53125 2.2656 1.75 0.015625 0.73438-0.45312 1.7031-1.9844 1.7031-0.8125 0-1.5938-0.32812-1.9375-0.54688z"/>
   </g>
  </g>
  <g id="g7992" transform="matrix(.35278 0 0 .35278 -25.785 -1260)" style="fill:#1c1c19">
   <g id="use7990" transform="translate(250.96 3971.3)">
    <path id="path45930" d="m0.5625-0.4375c0.4375 0.28125 1.2969 0.57812 2.2812 0.57812 2.1094 0 3.2031-1.2188 3.2031-2.625 0-1.2188-0.875-2.0312-1.9688-2.25v-0.03125c1.0938-0.39062 1.625-1.1562 1.625-2.0625 0-1.0625-0.78125-2.0781-2.5-2.0781-0.95312 0-1.8438 0.32812-2.2969 0.67188l0.3125 0.85938c0.375-0.26562 1.0469-0.57812 1.75-0.57812 1.0938 0 1.5312 0.625 1.5312 1.3125 0 1.0469-1.0938 1.4844-1.9531 1.4844h-0.65625v0.89062h0.65625c1.1406 0 2.25 0.53125 2.2656 1.75 0.015625 0.73438-0.45312 1.7031-1.9844 1.7031-0.8125 0-1.5938-0.32812-1.9375-0.54688z"/>
   </g>
  </g>
  <g id="g7996" transform="matrix(.35278 0 0 .35278 -25.785 -1260)" style="fill:#1c1c19">
   <g id="use7994" transform="translate(362.28 4058)">
    <path id="path45934" d="m5.3906 0v-2.3906h1.2344v-0.92188h-1.2344v-5.4531h-1.2812l-3.9062 5.5938v0.78125h4.0781v2.3906zm-3.9844-3.3125v-0.03125l2.1406-2.9844c0.25-0.40625 0.45312-0.78125 0.73438-1.2969h0.03125c-0.03125 0.46875-0.03125 0.92188-0.03125 1.375v2.9375z"/>
   </g>
  </g>
  <g id="g8000" transform="matrix(.35278 0 0 .35278 -25.785 -1260)" style="fill:#1c1c19">
   <g id="use7998" transform="translate(250.96 3947.5)">
    <path id="path45938" d="m5.3906 0v-2.3906h1.2344v-0.92188h-1.2344v-5.4531h-1.2812l-3.9062 5.5938v0.78125h4.0781v2.3906zm-3.9844-3.3125v-0.03125l2.1406-2.9844c0.25-0.40625 0.45312-0.78125 0.73438-1.2969h0.03125c-0.03125 0.46875-0.03125 0.92188-0.03125 1.375v2.9375z"/>
   </g>
  </g>
  <g id="g8004" transform="matrix(.35278 0 0 .35278 -25.785 -1260)" style="fill:#1c1c19">
   <g id="use8002" transform="translate(387.48 4058)">
    <path id="path45942" d="m5.8438-8.7656h-4.2031l-0.5625 4.2031c0.32812-0.03125 0.71875-0.09375 1.2188-0.09375 1.75 0 2.5 0.8125 2.5156 1.9531 0 1.1719-0.95312 1.8906-2.0781 1.8906-0.79688 0-1.5-0.26562-1.875-0.48438l-0.29688 0.90625c0.42188 0.26562 1.2344 0.53125 2.1875 0.53125 1.9062 0 3.2656-1.2656 3.2656-2.9844 0-1.1094-0.5625-1.8594-1.25-2.25-0.54688-0.32812-1.2188-0.46875-1.8906-0.46875-0.32812 0-0.51562 0.015625-0.71875 0.046875l0.34375-2.25h3.3438z"/>
   </g>
  </g>
  <g id="g8008" transform="matrix(.35278 0 0 .35278 -25.785 -1260)" style="fill:#1c1c19">
   <g id="use8006" transform="translate(411.8 4058)">
    <path id="path45946" d="m5.6094-8.9062c-0.21875 0-0.51562 0.015625-0.85938 0.078125-1.1094 0.125-2.0781 0.57812-2.8125 1.2969-0.85938 0.85938-1.4844 2.2188-1.4844 3.9375 0 2.2812 1.2344 3.7344 3.1094 3.7344 1.8125 0 2.9062-1.4688 2.9062-3.0781 0-1.7188-1.0938-2.8281-2.6406-2.8281-0.96875 0-1.7031 0.45312-2.1094 1h-0.046875c0.20312-1.4375 1.1875-2.7969 3.0469-3.1094 0.34375-0.046875 0.64062-0.0625 0.89062-0.046875zm-2.0469 8.1406c-1.25 0-1.9062-1.0625-1.9375-2.5156 0-0.21875 0.0625-0.39062 0.14062-0.51562 0.32812-0.64062 0.98438-1.0781 1.7031-1.0781 1.0938 0 1.7969 0.75 1.7969 2s-0.6875 2.1094-1.7031 2.1094z"/>
   </g>
  </g>
  <g id="g8012" transform="matrix(.35278 0 0 .35278 -25.785 -1260)" style="fill:#1c1c19">
   <g id="use8010" transform="translate(435.44 4058)">
    <path id="path45950" d="m0.76562-8.7656v0.98438h4.2969v0.03125l-3.8125 7.75h1.2344l3.8125-7.9844v-0.78125z"/>
   </g>
  </g>
  <g id="g8016" transform="matrix(.35278 0 0 .35278 -25.785 -1260)" style="fill:#1c1c19">
   <g id="use8014" transform="translate(459.81 4058)">
    <path id="path45954" d="m3.4375 0.14062c1.6719 0 2.9844-1.0156 2.9844-2.5469 0-1.0625-0.67188-1.8281-1.7656-2.2656v-0.03125c1.0781-0.51562 1.4375-1.3125 1.4375-2.0469 0-1.0938-0.84375-2.1562-2.5469-2.1562-1.5312 0-2.7031 0.9375-2.7031 2.3281 0 0.75 0.40625 1.5156 1.375 1.9688l0.015625 0.03125c-1.0781 0.46875-1.7344 1.25-1.7344 2.3594 0 1.2812 1.1094 2.3594 2.9375 2.3594zm0.03125-0.85938c-1.125 0-1.7969-0.78125-1.75-1.6719 0-0.82812 0.54688-1.5 1.5781-1.7969 1.1875 0.32812 1.9219 0.84375 1.9219 1.9062 0 0.90625-0.6875 1.5625-1.75 1.5625zm0.015625-7.3438c1.0625 0 1.4844 0.73438 1.4844 1.4219 0 0.79688-0.59375 1.3438-1.3438 1.5938-1.0156-0.26562-1.6719-0.73438-1.6719-1.6094 0-0.76562 0.54688-1.4062 1.5312-1.4062z"/>
   </g>
  </g>
  <g id="g8020" transform="matrix(.35278 0 0 .35278 -25.785 -1260)" style="fill:#1c1c19">
   <g id="use8018" transform="translate(251.27 3923.1)">
    <path id="path45958" d="m5.8438-8.7656h-4.2031l-0.5625 4.2031c0.32812-0.03125 0.71875-0.09375 1.2188-0.09375 1.75 0 2.5 0.8125 2.5156 1.9531 0 1.1719-0.95312 1.8906-2.0781 1.8906-0.79688 0-1.5-0.26562-1.875-0.48438l-0.29688 0.90625c0.42188 0.26562 1.2344 0.53125 2.1875 0.53125 1.9062 0 3.2656-1.2656 3.2656-2.9844 0-1.1094-0.5625-1.8594-1.25-2.25-0.54688-0.32812-1.2188-0.46875-1.8906-0.46875-0.32812 0-0.51562 0.015625-0.71875 0.046875l0.34375-2.25h3.3438z"/>
   </g>
  </g>
  <g id="g8024" transform="matrix(.35278 0 0 .35278 -25.785 -1260)" style="fill:#1c1c19">
   <g id="use8022" transform="translate(251.27 3898.7)">
    <path id="path45962" d="m5.6094-8.9062c-0.21875 0-0.51562 0.015625-0.85938 0.078125-1.1094 0.125-2.0781 0.57812-2.8125 1.2969-0.85938 0.85938-1.4844 2.2188-1.4844 3.9375 0 2.2812 1.2344 3.7344 3.1094 3.7344 1.8125 0 2.9062-1.4688 2.9062-3.0781 0-1.7188-1.0938-2.8281-2.6406-2.8281-0.96875 0-1.7031 0.45312-2.1094 1h-0.046875c0.20312-1.4375 1.1875-2.7969 3.0469-3.1094 0.34375-0.046875 0.64062-0.0625 0.89062-0.046875zm-2.0469 8.1406c-1.25 0-1.9062-1.0625-1.9375-2.5156 0-0.21875 0.0625-0.39062 0.14062-0.51562 0.32812-0.64062 0.98438-1.0781 1.7031-1.0781 1.0938 0 1.7969 0.75 1.7969 2s-0.6875 2.1094-1.7031 2.1094z"/>
   </g>
  </g>
  <g id="g8028" transform="matrix(.35278 0 0 .35278 -25.785 -1260)" style="fill:#1c1c19">
   <g id="use8026" transform="translate(251.27 3874)">
    <path id="path45966" d="m0.76562-8.7656v0.98438h4.2969v0.03125l-3.8125 7.75h1.2344l3.8125-7.9844v-0.78125z"/>
   </g>
  </g>
  <g id="g8032" transform="matrix(.35278 0 0 .35278 -25.785 -1260)" style="fill:#1c1c19">
   <g id="use8030" transform="translate(251.27 3850.1)">
    <path id="path45970" d="m3.4375 0.14062c1.6719 0 2.9844-1.0156 2.9844-2.5469 0-1.0625-0.67188-1.8281-1.7656-2.2656v-0.03125c1.0781-0.51562 1.4375-1.3125 1.4375-2.0469 0-1.0938-0.84375-2.1562-2.5469-2.1562-1.5312 0-2.7031 0.9375-2.7031 2.3281 0 0.75 0.40625 1.5156 1.375 1.9688l0.015625 0.03125c-1.0781 0.46875-1.7344 1.25-1.7344 2.3594 0 1.2812 1.1094 2.3594 2.9375 2.3594zm0.03125-0.85938c-1.125 0-1.7969-0.78125-1.75-1.6719 0-0.82812 0.54688-1.5 1.5781-1.7969 1.1875 0.32812 1.9219 0.84375 1.9219 1.9062 0 0.90625-0.6875 1.5625-1.75 1.5625zm0.015625-7.3438c1.0625 0 1.4844 0.73438 1.4844 1.4219 0 0.79688-0.59375 1.3438-1.3438 1.5938-1.0156-0.26562-1.6719-0.73438-1.6719-1.6094 0-0.76562 0.54688-1.4062 1.5312-1.4062z"/>
   </g>
  </g>
  <path id="path8034" d="m77.733 147.8c0.14194-0.14609-0.26458-7.1203 19.168-13.005 19.608-5.9366 49.294-11.786 49.294-11.786" style="fill:none;stroke-miterlimit:10;stroke-width:.35278;stroke:#1c1ca1"/>
  <path id="path8036" d="m78.908 148.06c0-0.65042-0.52641-1.1768-1.1755-1.1768-0.65044 0-1.1768 0.52642-1.1768 1.1768 0 0.64907 0.52641 1.1769 1.1768 1.1769 0.64906 0 1.1755-0.52779 1.1755-1.1769" style="fill:#1c1ca1"/>
  <path id="path8038" d="m91.142 116.47 0.74827 2.0188c0.0772 0.22465 0.16261 0.49336 0.21911 0.69868h0.0138c0.0634-0.20532 0.13366-0.46577 0.2191-0.71381l0.67662-2.0037h0.65732l-0.93154 2.435c-0.4451 1.1713-0.74827 1.7708-1.1713 2.1387-0.30455 0.26734-0.60772 0.37345-0.76206 0.40104l-0.15572-0.52091c0.15572-0.0496 0.35967-0.14884 0.54295-0.30456 0.1695-0.13366 0.38172-0.37345 0.52228-0.69176 0.0289-0.0634 0.0496-0.11299 0.0496-0.14746 0-0.0358-0.0138-0.0854-0.0427-0.16259l-1.2623-3.1474z"/>
  <path id="path8040" d="m95.574 118.47h3.6408v0.42308h-3.6408zm0-1.3822h3.6408v0.42305h-3.6408z"/>
  <path id="path8042" d="m103.53 120.56h-0.452l-1.1217-3.0207-0.52917 0.22599-0.13368-0.3321 0.97291-0.40926 0.86815 2.4419c0.0565 0.14743 0.10611 0.31694 0.13367 0.45198h0.0152c0.0207-0.11987 0.0565-0.30455 0.091-0.45889l1.3133-5.406h0.46578z"/>
  <path id="path8044" d="m105.87 116.47 0.48782 0.73448c0.12678 0.19018 0.23289 0.36657 0.34589 0.55672h0.0207c0.113-0.20394 0.226-0.38033 0.339-0.5636l0.47955-0.7276h0.6711l-1.1644 1.6509 1.1989 1.7653h-0.70555l-0.50022-0.76895c-0.13505-0.19844-0.24805-0.38862-0.36794-0.59394h-0.0138c-0.113 0.20532-0.23289 0.38862-0.35967 0.59394l-0.49471 0.76895h-0.68351l1.2127-1.7432-1.1562-1.6729z"/>
  <path id="path8046" d="m111.85 118.21h-1.7432v-0.4589h1.7432z"/>
  <path id="path8048" d="m115.29 115.88h-0.0152l-0.79651 0.42996-0.11989-0.47268 1.0018-0.53605h0.52917v4.5875h-0.59944z"/>
  <path id="path8050" d="m121.14 116.14v1.6592h1.5958v0.42305h-1.5958v1.673h-0.45062v-1.673h-1.5958v-0.42305h1.5958v-1.6592z"/>
  <path id="path8052" d="m124.9 119.89v-0.38033l0.48643-0.47269c1.1713-1.1162 1.7005-1.7088 1.7074-2.4005 0-0.46577-0.226-0.89571-0.9095-0.89571-0.41755 0-0.76206 0.2122-0.97428 0.38859l-0.19705-0.43822c0.31694-0.26871 0.76894-0.46577 1.2981-0.46577 0.98805 0 1.4042 0.678 1.4042 1.334 0 0.8461-0.61461 1.531-1.5806 2.4625l-0.36794 0.33901v0.0138h2.0616v0.51541z"/>
  <path id="path8054" d="m116.97 114.3h-12.265v-0.35278h12.265z"/>
 </g>
</svg>
