<svg id="svg66923" version="1.1" viewBox="0 0 50.49 6.4437" xmlns="http://www.w3.org/2000/svg">
 <title id="title67101">img_45</title>
 <g id="layer1" transform="translate(-74.541 -151.75)">
  <g id="use53590" transform="matrix(.35278 0 0 .35278 74.039 156.8)">
   <path id="path66807" d="m1.4219 0v-14.312h4.3281l2.5938 9.7656 2.5625-9.7656h4.3438v14.312h-2.6875v-11.266l-2.8438 11.266h-2.7812l-2.8281-11.266v11.266z"/>
  </g>
  <g id="use53594" transform="matrix(.35278 0 0 .35278 79.952 156.8)">
   <path id="path66811" d="m11.125-6.7344v-1.2031h-10.328v1.2031zm0 3.9219v-1.2031h-10.328v1.2031z"/>
  </g>
  <g id="g67099">
   <g id="use53596" transform="matrix(.35278 0 0 .35278 84.192 156.8)">
    <path id="path66815" d="m13.219 0h1.7031l-0.84375-13.484h-2.2188l-2.4062 6.5312c-0.59375 1.6875-1.0781 3.1719-1.4062 4.5312h-0.0625c-0.34375-1.3906-0.79688-2.875-1.3594-4.5312l-2.3125-6.5312h-2.2188l-0.9375 13.484h1.6562l0.375-5.7812c0.10938-2.0156 0.21875-4.2812 0.25-5.9531h0.046875c0.375 1.5938 0.92188 3.3281 1.5625 5.2344l2.1719 6.4219h1.3281l2.375-6.5469c0.67188-1.8594 1.2344-3.5312 1.7031-5.1094h0.0625c-0.03125 1.6719 0.09375 3.9375 0.1875 5.8125z"/>
   </g>
   <g id="use53600" transform="matrix(.35278 0 0 .35278 89.921 156.8)">
    <path id="path66819" d="m9.5625-9.6875h-1.7656v5.9531c0 0.3125-0.0625 0.64062-0.15625 0.89062-0.32812 0.78125-1.1406 1.6094-2.3281 1.6094-1.5938 0-2.1562-1.25-2.1562-3.0781v-5.375h-1.75v5.6719c0 3.3906 1.8125 4.2344 3.3281 4.2344 1.7188 0 2.75-1.0156 3.2031-1.7969h0.046875l0.09375 1.5781h1.5625c-0.0625-0.76562-0.078125-1.6406-0.078125-2.6406z"/>
   </g>
   <g id="use53602" transform="matrix(.35278 0 0 .35278 93.844 156.8)">
    <path id="path66823" d="m1.4531 0h1.7656v-14.203h-1.7656z"/>
   </g>
   <g id="use53604" transform="matrix(.35278 0 0 .35278 95.544 156.8)">
    <path id="path66827" d="m1.8594-12v2.3125h-1.5v1.3438h1.5v5.2812c0 1.1406 0.1875 2 0.6875 2.5156 0.40625 0.48438 1.0781 0.75 1.8906 0.75 0.6875 0 1.2188-0.10938 1.5625-0.25l-0.078125-1.3125c-0.21875 0.0625-0.5625 0.125-1.0156 0.125-0.98438 0-1.3281-0.6875-1.3281-1.8906v-5.2188h2.5156v-1.3438h-2.5156v-2.7656z"/>
   </g>
   <g id="use53606" transform="matrix(.35278 0 0 .35278 97.915 156.8)">
    <path id="path66831" d="m3.2188 0v-9.6875h-1.7656v9.6875zm-0.875-13.5c-0.64062 0-1.1094 0.48438-1.1094 1.0938s0.45312 1.0938 1.0625 1.0938c0.70312 0 1.1406-0.48438 1.125-1.0938 0-0.60938-0.42188-1.0938-1.0781-1.0938z"/>
   </g>
   <g id="use53608" transform="matrix(.35278 0 0 .35278 99.601 156.8)">
    <path id="path66835" d="m1.4531 3.9531h1.75v-5.25h0.03125c0.57812 0.95312 1.7031 1.5156 2.9844 1.5156 2.2812 0 4.4062-1.7188 4.4062-5.2031 0-2.9375-1.7656-4.9219-4.1094-4.9219-1.5781 0-2.7188 0.70312-3.4375 1.8906h-0.03125l-0.09375-1.6719h-1.5781c0.046875 0.92188 0.078125 1.9219 0.078125 3.1719zm1.75-9.5469c0-0.25 0.0625-0.5 0.10938-0.71875 0.34375-1.3281 1.4688-2.1875 2.6719-2.1875 1.8594 0 2.875 1.6562 2.875 3.5938 0 2.2188-1.0781 3.75-2.9375 3.75-1.2656 0-2.3281-0.84375-2.6406-2.0625-0.046875-0.21875-0.078125-0.46875-0.078125-0.71875z"/>
   </g>
   <g id="use53610" transform="matrix(.35278 0 0 .35278 103.65 156.8)">
    <path id="path66839" d="m1.4531 0h1.7656v-14.203h-1.7656z"/>
   </g>
   <g id="use53612" transform="matrix(.35278 0 0 .35278 105.35 156.8)">
    <path id="path66843" d="m3.2188 0v-9.6875h-1.7656v9.6875zm-0.875-13.5c-0.64062 0-1.1094 0.48438-1.1094 1.0938s0.45312 1.0938 1.0625 1.0938c0.70312 0 1.1406-0.48438 1.125-1.0938 0-0.60938-0.42188-1.0938-1.0781-1.0938z"/>
   </g>
   <g id="use53614" transform="matrix(.35278 0 0 .35278 107.04 156.8)">
    <path id="path66847" d="m8.0625-1.6875c-0.5 0.23438-1.1562 0.48438-2.1562 0.48438-1.9219 0-3.3594-1.375-3.3594-3.6094 0-2.0312 1.1875-3.6719 3.4062-3.6719 0.96875 0 1.625 0.21875 2.0469 0.46875l0.40625-1.3594c-0.48438-0.25-1.4062-0.5-2.4531-0.5-3.1562 0-5.1875 2.1562-5.1875 5.1406 0 2.9531 1.8906 4.9375 4.8125 4.9375 1.2969 0 2.3281-0.32812 2.7812-0.5625z"/>
   </g>
   <g id="use53616" transform="matrix(.35278 0 0 .35278 110.23 156.8)">
    <path id="path66851" d="m8.4219 0c-0.125-0.65625-0.15625-1.4844-0.15625-2.3125v-3.625c0-1.9375-0.71875-3.9688-3.6875-3.9688-1.2188 0-2.375 0.34375-3.1719 0.85938l0.39062 1.1719c0.6875-0.4375 1.625-0.71875 2.5156-0.71875 1.9844 0 2.2031 1.4375 2.2031 2.2344v0.20312c-3.7344-0.03125-5.8125 1.25-5.8125 3.5938 0 1.4062 1 2.7812 2.9531 2.7812 1.3906 0 2.4219-0.67188 2.9688-1.4375h0.0625l0.125 1.2188zm-1.8594-3.2656c0 0.1875-0.046875 0.39062-0.10938 0.5625-0.26562 0.82812-1.0781 1.625-2.3281 1.625-0.90625 0-1.6719-0.54688-1.6719-1.6875 0-1.875 2.1875-2.2188 4.1094-2.1719z"/>
   </g>
   <g id="use53620" transform="matrix(.35278 0 0 .35278 113.64 156.8)">
    <path id="path66855" d="m1.8594-12v2.3125h-1.5v1.3438h1.5v5.2812c0 1.1406 0.1875 2 0.6875 2.5156 0.40625 0.48438 1.0781 0.75 1.8906 0.75 0.6875 0 1.2188-0.10938 1.5625-0.25l-0.078125-1.3125c-0.21875 0.0625-0.5625 0.125-1.0156 0.125-0.98438 0-1.3281-0.6875-1.3281-1.8906v-5.2188h2.5156v-1.3438h-2.5156v-2.7656z"/>
   </g>
   <g id="use53622" transform="matrix(.35278 0 0 .35278 116.01 156.8)">
    <path id="path66859" d="m3.2188 0v-9.6875h-1.7656v9.6875zm-0.875-13.5c-0.64062 0-1.1094 0.48438-1.1094 1.0938s0.45312 1.0938 1.0625 1.0938c0.70312 0 1.1406-0.48438 1.125-1.0938 0-0.60938-0.42188-1.0938-1.0781-1.0938z"/>
   </g>
   <g id="use53624" transform="matrix(.35278 0 0 .35278 117.7 156.8)">
    <path id="path66863" d="m5.5625-9.9062c-2.6875 0-4.7969 1.9062-4.7969 5.1406 0 3.0625 2.0156 4.9844 4.6406 4.9844 2.3281 0 4.8125-1.5625 4.8125-5.1406 0-2.9531-1.875-4.9844-4.6562-4.9844zm-0.046875 1.3281c2.0781 0 2.9062 2.0781 2.9062 3.7188 0 2.1719-1.2656 3.7656-2.9375 3.7656-1.7188 0-2.9375-1.6094-2.9375-3.7188 0-1.8438 0.89062-3.7656 2.9688-3.7656z"/>
   </g>
   <g id="use53626" transform="matrix(.35278 0 0 .35278 121.61 156.8)">
    <path id="path66867" d="m1.4531 0h1.7656v-5.8125c0-0.3125 0.046875-0.60938 0.125-0.82812 0.29688-0.98438 1.2031-1.7969 2.3594-1.7969 1.6562 0 2.2344 1.2969 2.2344 2.8594v5.5781h1.7656v-5.7812c0-3.3125-2.0781-4.125-3.4219-4.125-1.5938 0-2.7188 0.90625-3.2031 1.8281h-0.03125l-0.10938-1.6094h-1.5625c0.0625 0.8125 0.078125 1.625 0.078125 2.625z"/>
   </g>
  </g>
 </g>
</svg>
