<svg id="svg30310" version="1.1" viewBox="0 0 39.39 5.5771" xmlns="http://www.w3.org/2000/svg">
 <title id="title30390">img_17</title>
 <g id="layer1" transform="translate(-20.37 -122.7)">
  <g id="g25433" transform="matrix(.35278 0 0 .35278 -152.2 -693.4)">
   <g id="use25431" transform="translate(487.9 2328.9)">
    <path id="path30242" d="m1.2812-3.7344 2.2812-0.21875c0 0.76172 0.17188 1.3203 0.51562 1.6719 0.35156 0.35547 0.87891 0.53125 1.5781 0.53125 0.75 0 1.3359-0.15625 1.7656-0.46875 0.4375-0.32031 0.69531-0.69141 0.78125-1.1094 0.050781-0.26953 0.015625-0.5-0.10938-0.6875-0.11719-0.19531-0.35938-0.36328-0.73438-0.5-0.25-0.09375-0.83984-0.25781-1.7656-0.5-1.1797-0.3125-1.9766-0.69141-2.3906-1.1406-0.58594-0.625-0.79297-1.3906-0.625-2.2969 0.11328-0.58203 0.37891-1.1289 0.79688-1.6406 0.42578-0.50781 0.97656-0.89453 1.6562-1.1562 0.67578-0.26953 1.4531-0.40625 2.3281-0.40625 1.4375 0 2.457 0.32031 3.0625 0.95312 0.61328 0.625 0.83594 1.4648 0.67188 2.5156l-2.3281 0.10938c0.019531-0.59375-0.10938-1.0156-0.39062-1.2656-0.28125-0.25781-0.74609-0.39062-1.3906-0.39062-0.67969 0-1.2305 0.13672-1.6562 0.40625-0.28125 0.17969-0.45312 0.41797-0.51562 0.71875-0.054687 0.27344 0.019531 0.5 0.21875 0.6875 0.25 0.25 0.91016 0.51172 1.9844 0.78125 1.0703 0.26172 1.8516 0.53125 2.3438 0.8125 0.48828 0.28125 0.83594 0.67188 1.0469 1.1719 0.20703 0.49219 0.24219 1.0938 0.10938 1.8125-0.125 0.65625-0.42188 1.2734-0.89062 1.8438-0.46875 0.57422-1.0625 1-1.7812 1.2812s-1.5742 0.42188-2.5625 0.42188c-1.4492 0-2.5-0.33203-3.1562-1-0.64844-0.67578-0.92969-1.6562-0.84375-2.9375z"/>
   </g>
  </g>
  <path id="path25435" d="m28.862 126.91h-3.2908v-0.46718h3.2908zm-3.2908-1.6413h3.2908v0.46852h-3.2908z"/>
  <g id="g25439" transform="matrix(.35278 0 0 .35278 -152.2 -693.4)">
   <g id="use25437" transform="translate(516.91 2329)">
    <path id="path30246" d="m8.0625-1.3594v1.3594h-7.5781c-0.011719-0.34375 0.046875-0.67188 0.17188-0.98438 0.1875-0.50781 0.49219-1.0156 0.92188-1.5156 0.42578-0.5 1.0391-1.0781 1.8438-1.7344 1.2383-1.0195 2.0781-1.8281 2.5156-2.4219 0.4375-0.60156 0.65625-1.1719 0.65625-1.7031 0-0.55078-0.19922-1.0195-0.59375-1.4062-0.39844-0.38281-0.91797-0.57812-1.5625-0.57812-0.67969 0-1.2188 0.20312-1.625 0.60938s-0.60938 0.96875-0.60938 1.6875l-1.4531-0.14062c0.10156-1.082 0.47656-1.9062 1.125-2.4688 0.64453-0.5625 1.5078-0.84375 2.5938-0.84375 1.1016 0 1.9727 0.30859 2.6094 0.92188 0.64453 0.60547 0.96875 1.3555 0.96875 2.25 0 0.46094-0.09375 0.91406-0.28125 1.3594-0.1875 0.4375-0.5 0.90234-0.9375 1.3906-0.4375 0.49219-1.1641 1.1641-2.1719 2.0156-0.84375 0.71094-1.3867 1.1953-1.625 1.4531-0.24219 0.25-0.4375 0.5-0.59375 0.75z"/>
   </g>
  </g>
  <path id="path25441" d="m36.727 127.04 0.2825-1.5324h0.71107l0.08819-0.46856h-2.8277c-0.38999 0-0.62839 0.23566-0.71658 0.70556h0.35278c0.02893-0.15709 0.19981-0.237 0.51263-0.237-0.09922 0.55259-0.19292 1.0625-0.28112 1.5324-0.10335 0.54847-0.25356 0.93984-0.452 1.1741h0.46853c0.0028 0 0.05374-0.0579 0.15158-0.17639 0.09646-0.11712 0.19706-0.44922 0.29904-0.99769l0.28801-1.5324h0.93707l-0.28112 1.5324c-0.14745 0.78412 0.01379 1.1741 0.48507 1.1741 0.23426 0 0.4203-0.15571 0.55535-0.46852-0.51401 0.23565-0.70556 0-0.57326-0.70556"/>
  <g id="g25445" transform="matrix(.35278 0 0 .35278 -152.2 -693.4)">
   <g id="use25443" transform="translate(537.9 2328.9)">
    <path id="path30250" d="m1.0469 0 1.5625-8.2969h1.2656l-0.23438 1.25c0.42578-0.58203 0.78906-0.96875 1.0938-1.1562 0.3125-0.1875 0.63281-0.28125 0.96875-0.28125 0.46875 0 0.91406 0.15234 1.3438 0.45312l-0.71875 1.2969c-0.3125-0.19531-0.64062-0.29688-0.98438-0.29688-0.30469 0-0.59375 0.09375-0.875 0.28125-0.27344 0.17969-0.49219 0.43359-0.65625 0.76562-0.25 0.5-0.43359 1.0469-0.54688 1.6406l-0.8125 4.3438z"/>
   </g>
  </g>
  <g id="g25449" transform="matrix(.35278 0 0 .35278 -152.2 -693.4)">
   <g id="use25447" transform="translate(543.91 2322)">
    <path id="path30254" d="m6.0469-1.0156v1.0156h-5.6875c0-0.25 0.039063-0.49219 0.125-0.73438 0.14453-0.38281 0.375-0.76562 0.6875-1.1406 0.32031-0.375 0.78516-0.80469 1.3906-1.2969 0.9375-0.76953 1.5664-1.3789 1.8906-1.8281 0.33203-0.44531 0.5-0.86719 0.5-1.2656 0-0.41406-0.15234-0.76562-0.45312-1.0469-0.30469-0.28906-0.69531-0.4375-1.1719-0.4375-0.51172 0-0.91797 0.15234-1.2188 0.45312-0.30469 0.30469-0.46094 0.72656-0.46875 1.2656l-1.0781-0.10938c0.070313-0.8125 0.34766-1.4258 0.82812-1.8438 0.48828-0.42578 1.1445-0.64062 1.9688-0.64062 0.82031 0 1.4727 0.23047 1.9531 0.6875 0.47656 0.46094 0.71875 1.0273 0.71875 1.7031 0 0.34375-0.074219 0.68359-0.21875 1.0156-0.13672 0.32422-0.37109 0.67188-0.70312 1.0469-0.32422 0.36719-0.85938 0.86719-1.6094 1.5-0.63672 0.53125-1.0469 0.89844-1.2344 1.0938-0.17969 0.1875-0.32422 0.375-0.4375 0.5625z"/>
   </g>
  </g>
  <path id="path25451" d="m43.21 126.33h1.4111v1.4111h0.47404v-1.4111h1.4111v-0.47403h-1.4111v-1.4111h-0.47404v1.4111h-1.4111z"/>
  <g id="g25455" transform="matrix(.35278 0 0 .35278 -152.2 -693.4)">
   <g id="use25453" transform="translate(565.91 2329)">
    <path id="path30258" d="m8.0625-1.3594v1.3594h-7.5781c-0.011719-0.34375 0.046875-0.67188 0.17188-0.98438 0.1875-0.50781 0.49219-1.0156 0.92188-1.5156 0.42578-0.5 1.0391-1.0781 1.8438-1.7344 1.2383-1.0195 2.0781-1.8281 2.5156-2.4219 0.4375-0.60156 0.65625-1.1719 0.65625-1.7031 0-0.55078-0.19922-1.0195-0.59375-1.4062-0.39844-0.38281-0.91797-0.57812-1.5625-0.57812-0.67969 0-1.2188 0.20312-1.625 0.60938s-0.60938 0.96875-0.60938 1.6875l-1.4531-0.14062c0.10156-1.082 0.47656-1.9062 1.125-2.4688 0.64453-0.5625 1.5078-0.84375 2.5938-0.84375 1.1016 0 1.9727 0.30859 2.6094 0.92188 0.64453 0.60547 0.96875 1.3555 0.96875 2.25 0 0.46094-0.09375 0.91406-0.28125 1.3594-0.1875 0.4375-0.5 0.90234-0.9375 1.3906-0.4375 0.49219-1.1641 1.1641-2.1719 2.0156-0.84375 0.71094-1.3867 1.1953-1.625 1.4531-0.24219 0.25-0.4375 0.5-0.59375 0.75z"/>
   </g>
  </g>
  <path id="path25457" d="m54.014 127.04 0.28112-1.5324h0.71107l0.08819-0.46856h-2.8277c-0.38998 0-0.62838 0.23566-0.71658 0.70556h0.35278c0.02893-0.15709 0.19981-0.237 0.51263-0.237-0.09922 0.55259-0.19292 1.0625-0.28112 1.5324-0.10335 0.54847-0.25356 0.93984-0.452 1.1741h0.46853c0.0028 0 0.05375-0.0579 0.15159-0.17639 0.09646-0.11712 0.19706-0.44922 0.30041-0.99769l0.28663-1.5324h0.93707l-0.28112 1.5324c-0.14745 0.78412 0.01379 1.1741 0.48507 1.1741 0.23427 0 0.4203-0.15571 0.55673-0.46852-0.51539 0.23565-0.70556 0-0.57326-0.70556"/>
  <g id="g25463" transform="matrix(.35278 0 0 .35278 -152.2 -693.4)">
   <g id="use25459" transform="translate(586.9 2328.9)">
    <path id="path30262" d="m1.0469 0 1.5625-8.2969h1.2656l-0.23438 1.25c0.42578-0.58203 0.78906-0.96875 1.0938-1.1562 0.3125-0.1875 0.63281-0.28125 0.96875-0.28125 0.46875 0 0.91406 0.15234 1.3438 0.45312l-0.71875 1.2969c-0.3125-0.19531-0.64062-0.29688-0.98438-0.29688-0.30469 0-0.59375 0.09375-0.875 0.28125-0.27344 0.17969-0.49219 0.43359-0.65625 0.76562-0.25 0.5-0.43359 1.0469-0.54688 1.6406l-0.8125 4.3438z"/>
   </g>
   <g id="use25461" transform="translate(591.9 2328.9)">
    <path id="path30266" d="m1.0625 0 2.1406-11.453h1.4062l-0.76562 4.1094c0.80078-0.75781 1.7031-1.1406 2.7031-1.1406 0.61328 0 1.125 0.12109 1.5312 0.35938 0.40625 0.24219 0.66406 0.57422 0.78125 1 0.11328 0.42969 0.09375 1.0469-0.0625 1.8594l-0.98438 5.2656h-1.4062l0.98438-5.2656c0.13281-0.69531 0.078125-1.207-0.17188-1.5312-0.24219-0.32031-0.64062-0.48438-1.2031-0.48438-0.41797 0-0.82812 0.10938-1.2344 0.32812-0.39844 0.21875-0.71094 0.51562-0.9375 0.89062-0.23047 0.36719-0.40234 0.87109-0.51562 1.5156l-0.85938 4.5469z"/>
   </g>
  </g>
 </g>
</svg>
