<svg id="svg66804" version="1.1" viewBox="0 0 219.71 87.681" xmlns="http://www.w3.org/2000/svg">
 <title id="title67229">img_71</title>
 <g id="layer1" transform="translate(40.308 -68.04)">
  <g id="g55258" transform="matrix(.35278 0 0 .35278 -62.14 -527.05)">
   <g id="use55244" transform="translate(62.458 1714.2)">
    <path id="path66433" d="m1.6719-1.3125c1.4375 0.95312 4.2656 1.7031 6.8438 1.7031 6.3438 0 9.4062-3.5781 9.4062-7.7188 0-3.9375-2.3125-6.1406-6.8438-7.8906-3.7031-1.4219-5.3438-2.6562-5.3438-5.1719 0-1.8281 1.3906-4.0312 5.0625-4.0312 2.4219 0 4.2188 0.79688 5.0938 1.2812l0.95312-2.8281c-1.1875-0.67188-3.1875-1.3125-5.9375-1.3125-5.2031 0-8.6719 3.1094-8.6719 7.2812 0 3.7969 2.7031 6.0625 7.0781 7.6094 3.625 1.3906 5.0625 2.8281 5.0625 5.3438 0 2.7031-2.0625 4.5781-5.6094 4.5781-2.3906 0-4.6562-0.79688-6.2188-1.75z"/>
   </g>
   <g id="use55246" transform="translate(82.294 1714.2)">
    <path id="path66437" d="m3.0312-26.844v26.844h3.4531v-26.844z"/>
   </g>
   <g id="use55248" transform="translate(92.013 1714.2)">
    <path id="path66441" d="m6.2969 0v-11.469c0-4.4688-0.078125-7.6875-0.28125-11.078l0.125-0.03125c1.3438 2.9062 3.1406 5.9688 5.0156 8.9531l8.5156 13.625h3.5156v-26.844h-3.2812v11.234c0 4.1719 0.09375 7.4375 0.40625 11.031l-0.07813 0.03125c-1.2812-2.7344-2.8281-5.5625-4.8281-8.7188l-8.5937-13.578h-3.7812v26.844z"/>
   </g>
   <g id="use55250" transform="translate(118.42 1714.2)">
    <path id="path66445" d="m16.922-15.453h-10.438v-8.4844h11.047v-2.9062h-14.5v26.844h15.094v-2.9062h-11.641v-9.6719h10.438z"/>
   </g>
   <g id="use55252" transform="translate(138.22 1714.2)"></g>
   <g id="use55254" transform="translate(146.86 1714.2)">
    <path id="path66453" d="m3.0312 0h14.938v-2.9062h-11.484v-23.938h-3.4531z"/>
   </g>
   <g id="use55256" transform="translate(165.86 1714.2)">
    <path id="path66457" d="m16.891-8.4375 2.8594 8.4375h3.7031l-9.1562-26.844h-4.1875l-9.1094 26.844h3.5781l2.7969-8.4375zm-8.8125-2.7188 2.6406-7.7656c0.51562-1.625 0.95312-3.2656 1.3438-4.8594h0.07813c0.40625 1.5625 0.79688 3.1562 1.4062 4.9062l2.625 7.7188z"/>
   </g>
  </g>
  <g id="g55262" transform="matrix(.35278 0 0 .35278 -62.14 -527.05)">
   <g id="use55260" transform="translate(188.33 1714.2)">
    <path id="path66461" d="m11.031 0 3.8281-13.984c1-3.4531 1.5938-6.0938 2.0625-8.75h0.078125c0.35938 2.7031 0.92188 5.3281 1.7656 8.75l3.375 13.984h3.625l7.6094-26.844h-3.5469l-3.5469 13.547c-0.82812 3.3438-1.5938 6.3281-2.1406 9.2812h-0.078125c-0.40625-2.8281-1.125-6.0156-1.875-9.2031l-3.2656-13.625h-3.625l-3.5938 13.547c-0.90625 3.4531-1.75 6.6406-2.1875 9.3125h-0.078125c-0.46875-2.5938-1.1875-5.9375-1.9844-9.2812l-3.1875-13.578h-3.6719l6.8125 26.844z"/>
   </g>
  </g>
  <path id="path61966" d="m78.168 146.17 63.756-55.63 26.527 56.446z" style="fill:none;stroke-miterlimit:10;stroke-width:.55351;stroke:#c00"/>
  <g id="g61970" transform="matrix(.35278 0 0 .35278 -62.14 -527.05)">
   <g id="use61968" transform="translate(368.1 1922)">
    <path id="path66465" d="m-0.046875 0 9.1094-21.531 3.1094 0.09375 8.2031 22.109-3.2969-0.10938-2.3281-6.6875-9.1094-0.3125-2.625 6.5312zm6.5938-8.7656 7.4062 0.25-2.0781-6.1094c-0.64844-1.8516-1.1172-3.3789-1.4062-4.5781-0.32422 1.3984-0.76172 2.7734-1.3125 4.125z"/>
   </g>
  </g>
  <g id="g61974" transform="matrix(.35278 0 0 .35278 -62.14 -527.05)">
   <g id="use61972" transform="translate(663.83 1921.4)">
    <path id="path66469" d="m17.984-7.5312 2.875 0.75c-0.625 2.3672-1.7305 4.168-3.3125 5.4062-1.5742 1.2305-3.4961 1.8359-5.7656 1.8281-2.3555-0.023437-4.2656-0.50781-5.7344-1.4688-1.4688-0.96875-2.5859-2.3633-3.3438-4.1875-0.76172-1.8203-1.1328-3.7734-1.1094-5.8594 0.00781-2.2695 0.45312-4.25 1.3281-5.9375 0.88281-1.6875 2.1289-2.9609 3.7344-3.8281 1.6133-0.875 3.3828-1.3047 5.3125-1.2969 2.1758 0.01172 4.0039 0.57812 5.4844 1.7031 1.4883 1.1172 2.5234 2.6875 3.1094 4.7188l-2.8594 0.64062c-0.5-1.5938-1.2305-2.7539-2.1875-3.4844-0.96094-0.72656-2.168-1.0977-3.625-1.1094-1.6797-0.0078-3.0859 0.38672-4.2188 1.1875-1.125 0.79297-1.9219 1.8672-2.3906 3.2188-0.46094 1.3555-0.69531 2.75-0.70312 4.1875-0.011719 1.8555 0.25 3.4805 0.78125 4.875 0.53125 1.3867 1.3633 2.4297 2.5 3.125 1.1328 0.6875 2.3672 1.0391 3.7031 1.0469 1.6133 0.011719 2.9844-0.44531 4.1094-1.375 1.125-0.9375 1.8945-2.3164 2.3125-4.1406z"/>
   </g>
  </g>
  <g id="g61978" transform="matrix(.35278 0 0 .35278 -62.14 -527.05)">
   <g id="use61976" transform="translate(567.72 1740)">
    <path id="path66473" d="m2.2344-0.046875-0.39062-21.828 8.1875-0.14062c1.6641-0.03125 3.0039 0.16797 4.0156 0.59375 1.0195 0.41797 1.8203 1.0781 2.4062 1.9844 0.58203 0.90625 0.88281 1.8594 0.90625 2.8594 0.01953 0.9375-0.21484 1.8242-0.70312 2.6562-0.49219 0.83594-1.2422 1.5156-2.25 2.0469 1.3203 0.36719 2.3438 1.0078 3.0625 1.9219 0.72656 0.91797 1.1094 2.0117 1.1406 3.2812 0.0078 1.0234-0.19531 1.9805-0.60938 2.875-0.41797 0.88672-0.9375 1.5742-1.5625 2.0625-0.625 0.48047-1.418 0.85156-2.375 1.1094-0.94922 0.26172-2.1172 0.40625-3.5 0.4375zm2.6562-12.703 4.7188-0.07813c1.2812-0.03125 2.1953-0.13281 2.75-0.3125 0.73828-0.22656 1.2852-0.59765 1.6406-1.1094 0.36328-0.51953 0.53906-1.1602 0.53125-1.9219-0.02344-0.72656-0.21094-1.3633-0.5625-1.9062-0.35547-0.53906-0.85547-0.90625-1.5-1.0938-0.64844-0.19531-1.7578-0.28125-3.3281-0.25l-4.3594 0.07813zm0.1875 10.078 5.4375-0.09375c0.92578-0.019531 1.582-0.070313 1.9688-0.15625 0.65625-0.125 1.2031-0.32812 1.6406-0.60938 0.44531-0.28125 0.8125-0.6875 1.0938-1.2188 0.28125-0.53906 0.41406-1.1602 0.40625-1.8594-0.02344-0.8125-0.25-1.5156-0.6875-2.1094-0.42969-0.60156-1.0156-1.0156-1.7656-1.2344-0.74219-0.22656-1.8047-0.33203-3.1875-0.3125l-5.0469 0.09375z"/>
   </g>
  </g>
  <g id="g61982" transform="matrix(.35278 0 0 .35278 -62.14 -527.05)">
   <g id="use61980" transform="translate(533.16 1935.2)">
    <path id="path66477" d="m3.375-0.015625-1.875 0.015625-0.078125-16.453 2.0312-0.01563 0.03125 5.875c0.84375-1.0703 1.9297-1.6133 3.2656-1.625 0.72656 0 1.4219 0.14844 2.0781 0.4375 0.65625 0.29297 1.1914 0.70312 1.6094 1.2344 0.42578 0.53125 0.75781 1.1797 1 1.9375 0.25 0.76172 0.375 1.5703 0.375 2.4219 0.0078 2.043-0.49219 3.625-1.5 4.75-1 1.1172-2.2109 1.6719-3.625 1.6719-1.4062 0.007813-2.5117-0.57031-3.3125-1.75zm-0.046875-6.0469c0.00781 1.4297 0.20703 2.4609 0.59375 3.0938 0.64453 1.043 1.5078 1.5586 2.5938 1.5469 0.88281 0 1.6445-0.38281 2.2812-1.1562 0.64453-0.76953 0.96094-1.9141 0.95312-3.4375 0-1.5625-0.3125-2.707-0.9375-3.4375-0.625-0.73828-1.375-1.1094-2.25-1.1094-0.88672 0.01172-1.6484 0.40234-2.2812 1.1719-0.63672 0.77344-0.95312 1.8828-0.95312 3.3281z"/>
   </g>
  </g>
  <g id="g61986" transform="matrix(.35278 0 0 .35278 -62.14 -527.05)">
   <g id="use61984" transform="translate(468.73 1823.6)">
    <path id="path66481" d="m9.25-4.4531 1.9844 0.21875c-0.19922 1.3867-0.74609 2.4688-1.6406 3.25-0.88672 0.77344-1.9805 1.1641-3.2812 1.1875-1.625 0.007813-2.9453-0.50781-3.9531-1.5625-1-1.0508-1.5117-2.5781-1.5312-4.5781-0.011719-1.2812 0.19141-2.3984 0.60938-3.3594 0.41406-0.96875 1.0547-1.6953 1.9219-2.1875 0.875-0.5 1.8203-0.75391 2.8438-0.76562 1.2891-0.01953 2.3477 0.29688 3.1719 0.95312 0.83203 0.64844 1.375 1.5703 1.625 2.7656l-1.9531 0.32812c-0.19922-0.80078-0.53906-1.3984-1.0156-1.7969-0.48047-0.40625-1.0586-0.60156-1.7344-0.59375-1.0234 0.011719-1.8516 0.38672-2.4844 1.125-0.625 0.73047-0.92969 1.8867-0.90625 3.4688 0.019531 1.6055 0.33594 2.7656 0.95312 3.4844 0.625 0.71875 1.4297 1.0742 2.4219 1.0625 0.78906-0.00781 1.4453-0.25781 1.9688-0.75 0.53125-0.48828 0.86328-1.2383 1-2.25z"/>
   </g>
  </g>
  <g id="g61990" transform="matrix(.35278 0 0 .35278 -62.14 -527.05)">
   <g id="use61988" transform="translate(626.42 1830.6)">
    <path id="path66485" d="m9.2969-1.4531c-0.75 0.63672-1.4766 1.0859-2.1719 1.3438-0.6875 0.25-1.4297 0.375-2.2188 0.375-1.3125 0-2.3242-0.31641-3.0312-0.95312-0.69922-0.64453-1.0469-1.4609-1.0469-2.4531 0-0.58203 0.12891-1.1133 0.39062-1.5938 0.26953-0.48828 0.61719-0.87891 1.0469-1.1719 0.4375-0.28906 0.92188-0.50781 1.4531-0.65625 0.40625-0.10156 1.0078-0.20703 1.8125-0.3125 1.6328-0.17578 2.8359-0.39844 3.6094-0.67188 0.00781-0.28125 0.015625-0.45703 0.015625-0.53125 0-0.82031-0.19531-1.3984-0.57812-1.7344-0.52344-0.45703-1.2891-0.69141-2.2969-0.70312-0.94922 0-1.6523 0.16797-2.1094 0.5-0.44922 0.33594-0.78125 0.92188-1 1.7656l-1.9844-0.26562c0.1875-0.84375 0.48438-1.5234 0.89062-2.0469 0.41406-0.51953 1.0078-0.92188 1.7812-1.2031 0.78125-0.28125 1.6797-0.42188 2.7031-0.42188 1.0195 0.01172 1.8477 0.13672 2.4844 0.375 0.63281 0.24219 1.1016 0.54297 1.4062 0.90625 0.30078 0.36719 0.50781 0.82422 0.625 1.375 0.07031 0.34375 0.10938 0.96484 0.10938 1.8594l-0.01563 2.6875c0 1.8867 0.03906 3.0781 0.125 3.5781 0.08203 0.49219 0.25391 0.96484 0.51562 1.4219h-2.1094c-0.21875-0.41406-0.35547-0.90625-0.40625-1.4688zm-0.17188-4.5156c-0.73047 0.30469-1.8281 0.55469-3.2969 0.75-0.83594 0.125-1.4219 0.26172-1.7656 0.40625-0.34375 0.14844-0.60938 0.36719-0.79688 0.65625-0.1875 0.29297-0.28125 0.60938-0.28125 0.95312 0 0.54297 0.20312 0.99609 0.60938 1.3594 0.40625 0.35547 1.0039 0.53125 1.7969 0.53125 0.76953 0 1.457-0.16406 2.0625-0.5 0.61328-0.33203 1.0625-0.79688 1.3438-1.3906 0.21875-0.45703 0.32812-1.1289 0.32812-2.0156z"/>
   </g>
  </g>
  <path id="path62090" d="m-40.131 114.34h15.219" style="fill:none;stroke-linecap:square;stroke-miterlimit:10;stroke-width:.35278;stroke:#000"/>
  <g id="g62094" transform="matrix(.35278 0 0 .35278 -62.14 -527.05)">
   <g id="use62092" transform="translate(79.817 1812.1)">
    <path id="path66489" d="m6.6562-1.0312c-0.60547 0.44922-1.1641 0.76562-1.6719 0.95312-0.51172 0.17578-1.043 0.26562-1.5938 0.26562-0.91797 0-1.5781-0.22266-1.9844-0.67188-0.40625-0.44531-0.54688-1.0156-0.42188-1.7031 0.082031-0.40625 0.25-0.77344 0.5-1.1094 0.25-0.34375 0.53906-0.61328 0.875-0.8125 0.33203-0.20703 0.69531-0.36328 1.0938-0.46875 0.28906-0.070313 0.71875-0.14062 1.2812-0.20312 1.1641-0.13281 2.0352-0.29688 2.6094-0.48438 0.039063-0.19531 0.066406-0.32031 0.078125-0.375 0.10156-0.57031 0.046875-0.97266-0.17188-1.2031-0.30469-0.32031-0.80859-0.48438-1.5156-0.48438-0.65625 0-1.168 0.12109-1.5312 0.35938-0.35547 0.23047-0.66406 0.63672-0.92188 1.2188l-1.3438-0.1875c0.23828-0.58203 0.53516-1.0547 0.89062-1.4219 0.35156-0.36328 0.81641-0.64062 1.3906-0.82812 0.58203-0.19531 1.2266-0.29688 1.9375-0.29688 0.70703 0 1.2656 0.085937 1.6719 0.25 0.41406 0.16797 0.70312 0.375 0.85938 0.625 0.16406 0.25 0.25391 0.57031 0.26562 0.95312 0.00781 0.24219-0.046875 0.67188-0.17188 1.2969l-0.34375 1.875c-0.25 1.3125-0.38281 2.1406-0.39062 2.4844 0 0.34375 0.054688 0.67969 0.17188 1h-1.4688c-0.09375-0.28906-0.125-0.63281-0.09375-1.0312zm0.48438-3.1406c-0.55469 0.21094-1.3516 0.38672-2.3906 0.53125-0.60547 0.085937-1.0391 0.17969-1.2969 0.28125-0.26172 0.10547-0.47656 0.26172-0.64062 0.46875-0.16797 0.19922-0.27344 0.41797-0.3125 0.65625-0.074219 0.375 0.00781 0.6875 0.25 0.9375 0.23828 0.25 0.62891 0.375 1.1719 0.375 0.53906 0 1.0469-0.11328 1.5156-0.34375 0.46875-0.23828 0.83594-0.56641 1.1094-0.98438 0.21875-0.3125 0.38281-0.78125 0.5-1.4062z"/>
   </g>
  </g>
  <g id="g62106" transform="matrix(.35278 0 0 .35278 -62.14 -527.05)">
   <g id="use62096" transform="translate(67.302 1834.1)">
    <path id="path66493" d="m0.5-2.4844 1.3906-0.21875c0.070313 0.5625 0.28516 0.99609 0.64062 1.2969 0.36328 0.29297 0.86328 0.4375 1.5 0.4375 0.64453 0 1.125-0.12891 1.4375-0.39062 0.3125-0.26953 0.46875-0.58203 0.46875-0.9375 0-0.3125-0.13672-0.5625-0.40625-0.75-0.19922-0.125-0.67969-0.28125-1.4375-0.46875-1.0312-0.25781-1.75-0.48438-2.1562-0.67188-0.39844-0.19531-0.69922-0.46094-0.90625-0.79688-0.19922-0.33203-0.29688-0.70312-0.29688-1.1094 0-0.375 0.082031-0.71875 0.25-1.0312 0.16406-0.3125 0.39453-0.57031 0.6875-0.78125 0.21875-0.16406 0.51562-0.30078 0.89062-0.40625 0.38281-0.11328 0.78906-0.17188 1.2188-0.17188 0.65625 0 1.2266 0.09375 1.7188 0.28125 0.48828 0.1875 0.84766 0.44531 1.0781 0.76562 0.23828 0.3125 0.40625 0.74219 0.5 1.2812l-1.375 0.1875c-0.0625-0.42578-0.24609-0.75781-0.54688-1-0.30469-0.23828-0.72656-0.35938-1.2656-0.35938-0.64844 0-1.1094 0.10938-1.3906 0.32812-0.27344 0.21094-0.40625 0.45312-0.40625 0.73438 0 0.1875 0.054688 0.35547 0.17188 0.5 0.11328 0.14844 0.28906 0.27344 0.53125 0.375 0.14453 0.054687 0.5625 0.17188 1.25 0.35938 0.98828 0.26172 1.6797 0.48047 2.0781 0.65625 0.39453 0.16797 0.70312 0.41406 0.92188 0.73438 0.22656 0.32422 0.34375 0.72656 0.34375 1.2031 0 0.46875-0.14062 0.91406-0.42188 1.3281-0.27344 0.40625-0.66797 0.72656-1.1875 0.95312-0.51172 0.22656-1.0898 0.34375-1.7344 0.34375-1.0859 0-1.9062-0.22266-2.4688-0.67188-0.5625-0.44531-0.92188-1.1133-1.0781-2z"/>
   </g>
   <g id="use62098" transform="translate(75.302 1834.1)">
    <path id="path66497" d="m1.0625-9.8438v-1.6094h1.4062v1.6094zm0 9.8438v-8.2969h1.4062v8.2969z"/>
   </g>
   <g id="use62100" transform="translate(78.854 1834.1)">
    <path id="path66501" d="m1.0625 0v-8.2969h1.2656v1.1719c0.60156-0.90625 1.4844-1.3594 2.6406-1.3594 0.5 0 0.95703 0.089844 1.375 0.26562 0.41406 0.17969 0.72656 0.41406 0.9375 0.70312 0.20703 0.29297 0.35156 0.64062 0.4375 1.0469 0.050781 0.26172 0.078125 0.71484 0.078125 1.3594v5.1094h-1.4062v-5.0469c0-0.57031-0.058594-1-0.17188-1.2812-0.10547-0.28906-0.29688-0.51953-0.57812-0.6875-0.27344-0.16406-0.59375-0.25-0.96875-0.25-0.60547 0-1.125 0.19531-1.5625 0.57812-0.42969 0.375-0.64062 1.0938-0.64062 2.1562v4.5312z"/>
   </g>
   <g id="use62102" transform="translate(87.75 1834.1)"></g>
   <g id="use62104" transform="translate(92.198 1834.1)">
    <path id="path66509" d="m-0.03125 0 4.4062-11.453h1.6406l4.6875 11.453h-1.7344l-1.3281-3.4688h-4.7969l-1.25 3.4688zm3.3125-4.7031h3.8906l-1.2031-3.1719c-0.36719-0.96875-0.63672-1.7578-0.8125-2.375-0.14844 0.73047-0.35156 1.4609-0.60938 2.1875z"/>
   </g>
  </g>
  <g id="g62110" transform="matrix(.35278 0 0 .35278 -62.14 -527.05)">
   <g id="use62108" transform="translate(116.85 1823.5)">
    <path id="path66513" d="m8.4531-6.7344h-7.5625v-1.3125h7.5625zm0 3.4688h-7.5625v-1.3125h7.5625z"/>
   </g>
  </g>
  <g id="g62114" transform="matrix(.35278 0 0 .35278 -62.14 -527.05)">
   <g id="use62112" transform="translate(188.07 1823.5)">
    <path id="path66517" d="m8.4531-6.7344h-7.5625v-1.3125h7.5625zm0 3.4688h-7.5625v-1.3125h7.5625z"/>
   </g>
  </g>
  <path id="path62116" d="m-13.539 114.34h15.218" style="fill:none;stroke-linecap:square;stroke-miterlimit:10;stroke-width:.35278;stroke:#000"/>
  <g id="g62120" transform="matrix(.35278 0 0 .35278 -62.14 -527.05)">
   <g id="use62118" transform="translate(155.2 1812.1)">
    <path id="path66521" d="m2.3594 0h-1.3125l2.1406-11.453h1.4062l-0.75 4.0781c0.72656-0.73828 1.5547-1.1094 2.4844-1.1094 0.50781 0 0.97266 0.10547 1.3906 0.3125 0.41406 0.19922 0.73438 0.48438 0.95312 0.85938 0.22656 0.375 0.375 0.82812 0.4375 1.3594 0.070313 0.52344 0.050781 1.0781-0.0625 1.6719-0.26172 1.4297-0.82031 2.5312-1.6719 3.3125-0.84375 0.77344-1.7617 1.1562-2.75 1.1562-0.98047 0-1.668-0.41016-2.0625-1.2344zm0.78125-4.2188c-0.1875 1-0.1875 1.7188 0 2.1562 0.30078 0.73047 0.83203 1.0938 1.5938 1.0938 0.61328 0 1.1914-0.26562 1.7344-0.79688 0.55078-0.53906 0.92578-1.3359 1.125-2.3906 0.19531-1.082 0.12891-1.8789-0.20312-2.3906-0.33594-0.51953-0.80469-0.78125-1.4062-0.78125-0.61719 0-1.1992 0.26562-1.75 0.79688-0.54297 0.53125-0.90625 1.3047-1.0938 2.3125z"/>
   </g>
  </g>
  <g id="g62132" transform="matrix(.35278 0 0 .35278 -62.14 -527.05)">
   <g id="use62122" transform="translate(142.68 1834.1)">
    <path id="path66525" d="m0.5-2.4844 1.3906-0.21875c0.070313 0.5625 0.28516 0.99609 0.64062 1.2969 0.36328 0.29297 0.86328 0.4375 1.5 0.4375 0.64453 0 1.125-0.12891 1.4375-0.39062 0.3125-0.26953 0.46875-0.58203 0.46875-0.9375 0-0.3125-0.13672-0.5625-0.40625-0.75-0.19922-0.125-0.67969-0.28125-1.4375-0.46875-1.0312-0.25781-1.75-0.48438-2.1562-0.67188-0.39844-0.19531-0.69922-0.46094-0.90625-0.79688-0.19922-0.33203-0.29688-0.70312-0.29688-1.1094 0-0.375 0.082031-0.71875 0.25-1.0312 0.16406-0.3125 0.39453-0.57031 0.6875-0.78125 0.21875-0.16406 0.51562-0.30078 0.89062-0.40625 0.38281-0.11328 0.78906-0.17188 1.2188-0.17188 0.65625 0 1.2266 0.09375 1.7188 0.28125 0.48828 0.1875 0.84766 0.44531 1.0781 0.76562 0.23828 0.3125 0.40625 0.74219 0.5 1.2812l-1.375 0.1875c-0.0625-0.42578-0.24609-0.75781-0.54688-1-0.30469-0.23828-0.72656-0.35938-1.2656-0.35938-0.64844 0-1.1094 0.10938-1.3906 0.32812-0.27344 0.21094-0.40625 0.45312-0.40625 0.73438 0 0.1875 0.054688 0.35547 0.17188 0.5 0.11328 0.14844 0.28906 0.27344 0.53125 0.375 0.14453 0.054687 0.5625 0.17188 1.25 0.35938 0.98828 0.26172 1.6797 0.48047 2.0781 0.65625 0.39453 0.16797 0.70312 0.41406 0.92188 0.73438 0.22656 0.32422 0.34375 0.72656 0.34375 1.2031 0 0.46875-0.14062 0.91406-0.42188 1.3281-0.27344 0.40625-0.66797 0.72656-1.1875 0.95312-0.51172 0.22656-1.0898 0.34375-1.7344 0.34375-1.0859 0-1.9062-0.22266-2.4688-0.67188-0.5625-0.44531-0.92188-1.1133-1.0781-2z"/>
   </g>
   <g id="use62124" transform="translate(150.68 1834.1)">
    <path id="path66529" d="m1.0625-9.8438v-1.6094h1.4062v1.6094zm0 9.8438v-8.2969h1.4062v8.2969z"/>
   </g>
   <g id="use62126" transform="translate(154.23 1834.1)">
    <path id="path66533" d="m1.0625 0v-8.2969h1.2656v1.1719c0.60156-0.90625 1.4844-1.3594 2.6406-1.3594 0.5 0 0.95703 0.089844 1.375 0.26562 0.41406 0.17969 0.72656 0.41406 0.9375 0.70312 0.20703 0.29297 0.35156 0.64062 0.4375 1.0469 0.050781 0.26172 0.078125 0.71484 0.078125 1.3594v5.1094h-1.4062v-5.0469c0-0.57031-0.058594-1-0.17188-1.2812-0.10547-0.28906-0.29688-0.51953-0.57812-0.6875-0.27344-0.16406-0.59375-0.25-0.96875-0.25-0.60547 0-1.125 0.19531-1.5625 0.57812-0.42969 0.375-0.64062 1.0938-0.64062 2.1562v4.5312z"/>
   </g>
   <g id="use62128" transform="translate(163.13 1834.1)"></g>
   <g id="use62130" transform="translate(167.58 1834.1)">
    <path id="path66541" d="m1.1719 0v-11.453h4.2969c0.875 0 1.5781 0.11719 2.1094 0.34375 0.53125 0.23047 0.94141 0.58984 1.2344 1.0781 0.30078 0.48047 0.45312 0.98047 0.45312 1.5 0 0.49219-0.13672 0.95312-0.40625 1.3906-0.26172 0.42969-0.65625 0.77734-1.1875 1.0469 0.6875 0.19922 1.2188 0.54297 1.5938 1.0312 0.375 0.49219 0.5625 1.0703 0.5625 1.7344 0 0.54297-0.11719 1.043-0.34375 1.5-0.23047 0.46094-0.51172 0.8125-0.84375 1.0625-0.33594 0.25-0.75 0.44531-1.25 0.57812-0.5 0.125-1.1172 0.1875-1.8438 0.1875zm1.5156-6.6406h2.4844c0.66406 0 1.1445-0.046875 1.4375-0.14062 0.38281-0.11328 0.67578-0.30078 0.875-0.5625 0.19531-0.26953 0.29688-0.60156 0.29688-1 0-0.38281-0.09375-0.71875-0.28125-1-0.17969-0.28906-0.4375-0.48828-0.78125-0.59375-0.33594-0.11328-0.91406-0.17188-1.7344-0.17188h-2.2969zm0 5.2812h2.8594c0.48828 0 0.83203-0.015625 1.0312-0.046875 0.34375-0.0625 0.62891-0.16406 0.85938-0.3125 0.23828-0.14453 0.42969-0.35938 0.57812-0.64062 0.15625-0.28125 0.23438-0.60156 0.23438-0.96875 0-0.42578-0.10938-0.79688-0.32812-1.1094s-0.52344-0.53125-0.90625-0.65625c-0.38672-0.13281-0.94531-0.20312-1.6719-0.20312h-2.6562z"/>
   </g>
  </g>
  <path id="path62134" d="m10.081 114.34h15.219" style="fill:none;stroke-linecap:square;stroke-miterlimit:10;stroke-width:.35278;stroke:#000"/>
  <g id="g62138" transform="matrix(.35278 0 0 .35278 -62.14 -527.05)">
   <g id="use62136" transform="translate(222.15 1812.1)">
    <path id="path66545" d="m7.0469-3.0469 1.3438 0.1875c-0.33594 0.94922-0.85938 1.6953-1.5781 2.2344-0.71875 0.54297-1.5312 0.8125-2.4375 0.8125-1.1367 0-1.9805-0.36719-2.5312-1.1094-0.55469-0.75-0.69922-1.8164-0.4375-3.2031 0.16406-0.89453 0.45703-1.6758 0.875-2.3438 0.42578-0.67578 0.97266-1.1797 1.6406-1.5156 0.67578-0.33203 1.3672-0.5 2.0781-0.5 0.90625 0 1.6016 0.23047 2.0938 0.6875 0.48828 0.44922 0.72656 1.0938 0.71875 1.9375l-1.3906 0.20312c-0.03125-0.55078-0.1875-0.96875-0.46875-1.25-0.27344-0.28125-0.64062-0.42188-1.1094-0.42188-0.71094 0-1.3359 0.25781-1.875 0.76562-0.53125 0.5-0.90234 1.3047-1.1094 2.4062-0.21094 1.1172-0.14844 1.9297 0.1875 2.4375 0.33203 0.5 0.84375 0.75 1.5312 0.75 0.55078 0 1.0391-0.16406 1.4688-0.5 0.4375-0.34375 0.76953-0.86719 1-1.5781z"/>
   </g>
  </g>
  <g id="g62150" transform="matrix(.35278 0 0 .35278 -62.14 -527.05)">
   <g id="use62140" transform="translate(209.64 1834.1)">
    <path id="path66549" d="m0.5-2.4844 1.3906-0.21875c0.070313 0.5625 0.28516 0.99609 0.64062 1.2969 0.36328 0.29297 0.86328 0.4375 1.5 0.4375 0.64453 0 1.125-0.12891 1.4375-0.39062 0.3125-0.26953 0.46875-0.58203 0.46875-0.9375 0-0.3125-0.13672-0.5625-0.40625-0.75-0.19922-0.125-0.67969-0.28125-1.4375-0.46875-1.0312-0.25781-1.75-0.48438-2.1562-0.67188-0.39844-0.19531-0.69922-0.46094-0.90625-0.79688-0.19922-0.33203-0.29688-0.70312-0.29688-1.1094 0-0.375 0.082031-0.71875 0.25-1.0312 0.16406-0.3125 0.39453-0.57031 0.6875-0.78125 0.21875-0.16406 0.51562-0.30078 0.89062-0.40625 0.38281-0.11328 0.78906-0.17188 1.2188-0.17188 0.65625 0 1.2266 0.09375 1.7188 0.28125 0.48828 0.1875 0.84766 0.44531 1.0781 0.76562 0.23828 0.3125 0.40625 0.74219 0.5 1.2812l-1.375 0.1875c-0.0625-0.42578-0.24609-0.75781-0.54688-1-0.30469-0.23828-0.72656-0.35938-1.2656-0.35938-0.64844 0-1.1094 0.10938-1.3906 0.32812-0.27344 0.21094-0.40625 0.45312-0.40625 0.73438 0 0.1875 0.054688 0.35547 0.17188 0.5 0.11328 0.14844 0.28906 0.27344 0.53125 0.375 0.14453 0.054687 0.5625 0.17188 1.25 0.35938 0.98828 0.26172 1.6797 0.48047 2.0781 0.65625 0.39453 0.16797 0.70312 0.41406 0.92188 0.73438 0.22656 0.32422 0.34375 0.72656 0.34375 1.2031 0 0.46875-0.14062 0.91406-0.42188 1.3281-0.27344 0.40625-0.66797 0.72656-1.1875 0.95312-0.51172 0.22656-1.0898 0.34375-1.7344 0.34375-1.0859 0-1.9062-0.22266-2.4688-0.67188-0.5625-0.44531-0.92188-1.1133-1.0781-2z"/>
   </g>
   <g id="use62142" transform="translate(217.64 1834.1)">
    <path id="path66553" d="m1.0625-9.8438v-1.6094h1.4062v1.6094zm0 9.8438v-8.2969h1.4062v8.2969z"/>
   </g>
   <g id="use62144" transform="translate(221.19 1834.1)">
    <path id="path66557" d="m1.0625 0v-8.2969h1.2656v1.1719c0.60156-0.90625 1.4844-1.3594 2.6406-1.3594 0.5 0 0.95703 0.089844 1.375 0.26562 0.41406 0.17969 0.72656 0.41406 0.9375 0.70312 0.20703 0.29297 0.35156 0.64062 0.4375 1.0469 0.050781 0.26172 0.078125 0.71484 0.078125 1.3594v5.1094h-1.4062v-5.0469c0-0.57031-0.058594-1-0.17188-1.2812-0.10547-0.28906-0.29688-0.51953-0.57812-0.6875-0.27344-0.16406-0.59375-0.25-0.96875-0.25-0.60547 0-1.125 0.19531-1.5625 0.57812-0.42969 0.375-0.64062 1.0938-0.64062 2.1562v4.5312z"/>
   </g>
   <g id="use62146" transform="translate(230.09 1834.1)"></g>
   <g id="use62148" transform="translate(234.54 1834.1)">
    <path id="path66565" d="m9.4062-4.0156 1.5156 0.375c-0.3125 1.25-0.88672 2.2031-1.7188 2.8594-0.82422 0.65625-1.8281 0.98438-3.0156 0.98438-1.2422 0-2.2461-0.25-3.0156-0.75-0.77344-0.50781-1.3594-1.2383-1.7656-2.1875-0.40625-0.95703-0.60938-1.9844-0.60938-3.0781 0-1.1953 0.22656-2.2383 0.6875-3.125 0.45703-0.88281 1.1016-1.5547 1.9375-2.0156 0.84375-0.46875 1.7695-0.70312 2.7812-0.70312 1.1445 0 2.1094 0.29297 2.8906 0.875 0.78125 0.58594 1.3281 1.4062 1.6406 2.4688l-1.5 0.34375c-0.26172-0.83203-0.64844-1.4375-1.1562-1.8125-0.5-0.38281-1.1367-0.57812-1.9062-0.57812-0.875 0-1.6094 0.21484-2.2031 0.64062-0.59375 0.41797-1.0117 0.98438-1.25 1.7031-0.24219 0.71094-0.35938 1.4375-0.35938 2.1875 0 0.98047 0.14062 1.8359 0.42188 2.5625 0.28906 0.71875 0.73438 1.2617 1.3281 1.625 0.60156 0.35547 1.2539 0.53125 1.9531 0.53125 0.84375 0 1.5547-0.24219 2.1406-0.73438 0.59375-0.48828 0.99219-1.2109 1.2031-2.1719z"/>
   </g>
  </g>
  <path id="path62152" d="m-40.107 142.94h15.219" style="fill:none;stroke-linecap:square;stroke-miterlimit:10;stroke-width:.35278;stroke:#000"/>
  <g id="g62164" transform="matrix(.35278 0 0 .35278 -62.14 -527.05)">
   <g id="use62154" transform="translate(65.813 1893.2)">
    <path id="path66569" d="m0.95312-2.4375 1.4375-0.20312c-0.03125 0.54297 0.10156 0.96094 0.40625 1.25 0.30078 0.29297 0.76953 0.4375 1.4062 0.4375 0.64453 0 1.1484-0.12891 1.5156-0.39062 0.36328-0.25781 0.57812-0.5625 0.64062-0.90625 0.0625-0.3125-0.027344-0.55469-0.26562-0.73438-0.17969-0.125-0.63281-0.28125-1.3594-0.46875-0.98047-0.25781-1.6523-0.47656-2.0156-0.65625-0.36719-0.1875-0.62109-0.44531-0.76562-0.78125-0.13672-0.33203-0.16797-0.69531-0.09375-1.0938 0.0625-0.36328 0.20312-0.69531 0.42188-1 0.22656-0.3125 0.50781-0.57031 0.84375-0.78125 0.25-0.15625 0.57031-0.28516 0.96875-0.39062 0.40625-0.11328 0.82031-0.17188 1.25-0.17188 0.65625 0 1.207 0.09375 1.6562 0.28125 0.45703 0.17969 0.77344 0.42188 0.95312 0.73438 0.17578 0.3125 0.26562 0.73438 0.26562 1.2656l-1.4219 0.1875c0.019531-0.42578-0.10156-0.75391-0.35938-0.98438-0.26172-0.23828-0.66406-0.35938-1.2031-0.35938-0.64844 0-1.125 0.10938-1.4375 0.32812-0.3125 0.21094-0.49609 0.45312-0.54688 0.73438-0.042969 0.17969-0.015625 0.33594 0.078125 0.46875 0.082031 0.15625 0.23828 0.28125 0.46875 0.375 0.13281 0.054687 0.52344 0.17188 1.1719 0.35938 0.94531 0.26172 1.6016 0.47656 1.9688 0.64062 0.36328 0.16797 0.625 0.41406 0.78125 0.73438 0.16406 0.3125 0.20703 0.70312 0.125 1.1719-0.09375 0.46094-0.32031 0.89062-0.67188 1.2969-0.34375 0.40625-0.79688 0.72656-1.3594 0.95312-0.55469 0.21875-1.1523 0.32812-1.7969 0.32812-1.0859 0-1.8672-0.21875-2.3438-0.65625-0.48047-0.44531-0.71875-1.1016-0.71875-1.9688z"/>
   </g>
   <g id="use62156" transform="translate(73.813 1893.2)">
    <path id="path66573" d="m2.875-9.6562 0.29688-1.5938h1.4062l-0.29688 1.5938zm-1.8125 9.6562 1.5312-8.1562h1.4062l-1.5312 8.1562z"/>
   </g>
   <g id="use62158" transform="translate(77.365 1893.2)">
    <path id="path66577" d="m1.0625 0 1.5312-8.1562h1.2656l-0.21875 1.1719c0.76953-0.89453 1.7344-1.3438 2.8906-1.3438 0.5 0 0.94141 0.089844 1.3281 0.26562 0.38281 0.16797 0.64844 0.39844 0.79688 0.6875 0.15625 0.28125 0.23828 0.62109 0.25 1.0156 0.00781 0.26172-0.046875 0.71094-0.17188 1.3438l-0.9375 5.0156h-1.4062l0.92188-4.9531c0.11328-0.5625 0.14062-0.98438 0.078125-1.2656-0.054687-0.28125-0.20312-0.50391-0.45312-0.67188-0.24219-0.16406-0.54688-0.25-0.92188-0.25-0.60547 0-1.1641 0.1875-1.6719 0.5625-0.5 0.375-0.85156 1.0859-1.0469 2.125l-0.82812 4.4531z"/>
   </g>
   <g id="use62160" transform="translate(86.261 1893.2)"></g>
   <g id="use62162" transform="translate(90.709 1893.2)">
    <path id="path66585" d="m-0.03125 0 6.5156-11.25h1.6406l2.5781 11.25h-1.7344l-0.6875-3.4062h-4.7969l-1.8906 3.4062zm4.1719-4.625h3.8906l-0.60938-3.1094c-0.1875-0.94531-0.3125-1.7227-0.375-2.3281-0.28125 0.71875-0.62109 1.4336-1.0156 2.1406z"/>
   </g>
  </g>
  <g id="g62168" transform="matrix(.35278 0 0 .35278 -62.14 -527.05)">
   <g id="use62166" transform="translate(76.883 1915.2)">
    <path id="path66589" d="m6.4688-1.0312c-0.52344 0.44922-1.0234 0.76562-1.5 0.95312-0.48047 0.17578-0.99609 0.26562-1.5469 0.26562-0.91797 0-1.6211-0.22266-2.1094-0.67188-0.49219-0.44531-0.73438-1.0156-0.73438-1.7031 0-0.40625 0.09375-0.77344 0.28125-1.1094 0.1875-0.34375 0.42578-0.61328 0.71875-0.8125 0.30078-0.20703 0.64062-0.36328 1.0156-0.46875 0.28125-0.070313 0.69531-0.14062 1.25-0.20312 1.1328-0.13281 1.9727-0.29688 2.5156-0.48438v-0.375c0-0.57031-0.13281-0.97266-0.39062-1.2031-0.36719-0.32031-0.90234-0.48438-1.6094-0.48438-0.65625 0-1.1484 0.12109-1.4688 0.35938-0.3125 0.23047-0.54297 0.63672-0.6875 1.2188l-1.375-0.1875c0.125-0.58203 0.32812-1.0547 0.60938-1.4219 0.28906-0.36328 0.70703-0.64062 1.25-0.82812 0.53906-0.19531 1.1641-0.29688 1.875-0.29688 0.70703 0 1.2812 0.085937 1.7188 0.25 0.44531 0.16797 0.77344 0.375 0.98438 0.625 0.20703 0.25 0.35156 0.57031 0.4375 0.95312 0.050781 0.24219 0.078125 0.67188 0.078125 1.2969v1.875c0 1.3125 0.023438 2.1406 0.078125 2.4844 0.0625 0.34375 0.17969 0.67969 0.35938 1h-1.4688c-0.14844-0.28906-0.24219-0.63281-0.28125-1.0312zm-0.10938-3.1406c-0.51172 0.21094-1.2773 0.38672-2.2969 0.53125-0.58594 0.085937-0.99609 0.17969-1.2344 0.28125-0.24219 0.10547-0.42969 0.26172-0.5625 0.46875-0.125 0.19922-0.1875 0.41797-0.1875 0.65625 0 0.375 0.14062 0.6875 0.42188 0.9375 0.28906 0.25 0.70703 0.375 1.25 0.375 0.53906 0 1.0195-0.11328 1.4375-0.34375 0.42578-0.23828 0.73828-0.56641 0.9375-0.98438 0.15625-0.3125 0.23438-0.78125 0.23438-1.4062z"/>
   </g>
  </g>
  <g id="g62172" transform="matrix(.35278 0 0 .35278 -62.14 -527.05)">
   <g id="use62170" transform="translate(116.92 1904.6)">
    <path id="path66593" d="m8.4531-6.7344h-7.5625v-1.3125h7.5625zm0 3.4688h-7.5625v-1.3125h7.5625z"/>
   </g>
  </g>
  <g id="g62176" transform="matrix(.35278 0 0 .35278 -62.14 -527.05)">
   <g id="use62174" transform="translate(188.13 1904.6)">
    <path id="path66597" d="m8.4531-6.7344h-7.5625v-1.3125h7.5625zm0 3.4688h-7.5625v-1.3125h7.5625z"/>
   </g>
  </g>
  <path id="path62178" d="m-13.515 142.94h15.218" style="fill:none;stroke-linecap:square;stroke-miterlimit:10;stroke-width:.35278;stroke:#000"/>
  <g id="g62190" transform="matrix(.35278 0 0 .35278 -62.14 -527.05)">
   <g id="use62180" transform="translate(142.68 1893.2)">
    <path id="path66601" d="m0.95312-2.4375 1.4375-0.20312c-0.03125 0.54297 0.10156 0.96094 0.40625 1.25 0.30078 0.29297 0.76953 0.4375 1.4062 0.4375 0.64453 0 1.1484-0.12891 1.5156-0.39062 0.36328-0.25781 0.57812-0.5625 0.64062-0.90625 0.0625-0.3125-0.027344-0.55469-0.26562-0.73438-0.17969-0.125-0.63281-0.28125-1.3594-0.46875-0.98047-0.25781-1.6523-0.47656-2.0156-0.65625-0.36719-0.1875-0.62109-0.44531-0.76562-0.78125-0.13672-0.33203-0.16797-0.69531-0.09375-1.0938 0.0625-0.36328 0.20312-0.69531 0.42188-1 0.22656-0.3125 0.50781-0.57031 0.84375-0.78125 0.25-0.15625 0.57031-0.28516 0.96875-0.39062 0.40625-0.11328 0.82031-0.17188 1.25-0.17188 0.65625 0 1.207 0.09375 1.6562 0.28125 0.45703 0.17969 0.77344 0.42188 0.95312 0.73438 0.17578 0.3125 0.26562 0.73438 0.26562 1.2656l-1.4219 0.1875c0.019531-0.42578-0.10156-0.75391-0.35938-0.98438-0.26172-0.23828-0.66406-0.35938-1.2031-0.35938-0.64844 0-1.125 0.10938-1.4375 0.32812-0.3125 0.21094-0.49609 0.45312-0.54688 0.73438-0.042969 0.17969-0.015625 0.33594 0.078125 0.46875 0.082031 0.15625 0.23828 0.28125 0.46875 0.375 0.13281 0.054687 0.52344 0.17188 1.1719 0.35938 0.94531 0.26172 1.6016 0.47656 1.9688 0.64062 0.36328 0.16797 0.625 0.41406 0.78125 0.73438 0.16406 0.3125 0.20703 0.70312 0.125 1.1719-0.09375 0.46094-0.32031 0.89062-0.67188 1.2969-0.34375 0.40625-0.79688 0.72656-1.3594 0.95312-0.55469 0.21875-1.1523 0.32812-1.7969 0.32812-1.0859 0-1.8672-0.21875-2.3438-0.65625-0.48047-0.44531-0.71875-1.1016-0.71875-1.9688z"/>
   </g>
   <g id="use62182" transform="translate(150.68 1893.2)">
    <path id="path66605" d="m2.875-9.6562 0.29688-1.5938h1.4062l-0.29688 1.5938zm-1.8125 9.6562 1.5312-8.1562h1.4062l-1.5312 8.1562z"/>
   </g>
   <g id="use62184" transform="translate(154.23 1893.2)">
    <path id="path66609" d="m1.0625 0 1.5312-8.1562h1.2656l-0.21875 1.1719c0.76953-0.89453 1.7344-1.3438 2.8906-1.3438 0.5 0 0.94141 0.089844 1.3281 0.26562 0.38281 0.16797 0.64844 0.39844 0.79688 0.6875 0.15625 0.28125 0.23828 0.62109 0.25 1.0156 0.00781 0.26172-0.046875 0.71094-0.17188 1.3438l-0.9375 5.0156h-1.4062l0.92188-4.9531c0.11328-0.5625 0.14062-0.98438 0.078125-1.2656-0.054687-0.28125-0.20312-0.50391-0.45312-0.67188-0.24219-0.16406-0.54688-0.25-0.92188-0.25-0.60547 0-1.1641 0.1875-1.6719 0.5625-0.5 0.375-0.85156 1.0859-1.0469 2.125l-0.82812 4.4531z"/>
   </g>
   <g id="use62186" transform="translate(163.13 1893.2)"></g>
   <g id="use62188" transform="translate(167.58 1893.2)">
    <path id="path66617" d="m1.1719 0 2.1094-11.25h4.2969c0.875 0 1.5547 0.11719 2.0469 0.34375 0.48828 0.23047 0.83594 0.57812 1.0469 1.0469 0.20703 0.46875 0.25781 0.96484 0.15625 1.4844-0.08594 0.48047-0.30469 0.93359-0.65625 1.3594-0.34375 0.42969-0.80469 0.77344-1.375 1.0312 0.64453 0.19922 1.1094 0.53906 1.3906 1.0156 0.28906 0.48047 0.375 1.0469 0.25 1.7031-0.09375 0.53125-0.30469 1.0273-0.625 1.4844-0.3125 0.44922-0.66406 0.79688-1.0469 1.0469-0.375 0.24219-0.82422 0.42188-1.3438 0.54688-0.52344 0.125-1.1484 0.1875-1.875 0.1875zm2.7344-6.5312h2.4844c0.66406 0 1.1562-0.039063 1.4688-0.125 0.40625-0.11328 0.72656-0.30078 0.96875-0.5625 0.25-0.25781 0.41016-0.58594 0.48438-0.98438 0.070313-0.36328 0.039063-0.6875-0.09375-0.96875-0.125-0.28906-0.35156-0.48828-0.67188-0.59375-0.3125-0.10156-0.88281-0.15625-1.7031-0.15625h-2.2969zm-0.96875 5.2031h2.8594c0.48828 0 0.83203-0.015625 1.0312-0.046875 0.36328-0.0625 0.67578-0.16406 0.9375-0.3125 0.25781-0.14453 0.48828-0.35156 0.6875-0.625 0.20703-0.26953 0.34375-0.58594 0.40625-0.95312 0.082031-0.41406 0.039063-0.77344-0.125-1.0781-0.15625-0.3125-0.41797-0.53125-0.78125-0.65625-0.36719-0.13281-0.91406-0.20312-1.6406-0.20312h-2.6562z"/>
   </g>
  </g>
  <g id="g62194" transform="matrix(.35278 0 0 .35278 -62.14 -527.05)">
   <g id="use62192" transform="translate(155.26 1915.2)">
    <path id="path66621" d="m2.3594 0h-1.3125v-11.453h1.4062v4.0781c0.59375-0.73828 1.3516-1.1094 2.2812-1.1094 0.50781 0 0.98828 0.10547 1.4375 0.3125 0.45703 0.19922 0.83203 0.48438 1.125 0.85938 0.30078 0.375 0.53516 0.82812 0.70312 1.3594 0.16406 0.52344 0.25 1.0781 0.25 1.6719 0 1.4297-0.35547 2.5312-1.0625 3.3125-0.69922 0.77344-1.543 1.1562-2.5312 1.1562-0.98047 0-1.7461-0.41016-2.2969-1.2344zm-0.015625-4.2188c0 1 0.13281 1.7188 0.40625 2.1562 0.4375 0.73047 1.0352 1.0938 1.7969 1.0938 0.61328 0 1.1445-0.26562 1.5938-0.79688 0.44531-0.53906 0.67188-1.3359 0.67188-2.3906 0-1.082-0.21875-1.8789-0.65625-2.3906-0.42969-0.51953-0.94531-0.78125-1.5469-0.78125-0.61719 0-1.1484 0.26562-1.5938 0.79688-0.44922 0.53125-0.67188 1.3047-0.67188 2.3125z"/>
   </g>
  </g>
  <path id="path62196" d="m10.106 142.94h15.219" style="fill:none;stroke-linecap:square;stroke-miterlimit:10;stroke-width:.35278;stroke:#000"/>
  <g id="g62208" transform="matrix(.35278 0 0 .35278 -62.14 -527.05)">
   <g id="use62198" transform="translate(208.12 1893.2)">
    <path id="path66625" d="m0.95312-2.4375 1.4375-0.20312c-0.03125 0.54297 0.10156 0.96094 0.40625 1.25 0.30078 0.29297 0.76953 0.4375 1.4062 0.4375 0.64453 0 1.1484-0.12891 1.5156-0.39062 0.36328-0.25781 0.57812-0.5625 0.64062-0.90625 0.0625-0.3125-0.027344-0.55469-0.26562-0.73438-0.17969-0.125-0.63281-0.28125-1.3594-0.46875-0.98047-0.25781-1.6523-0.47656-2.0156-0.65625-0.36719-0.1875-0.62109-0.44531-0.76562-0.78125-0.13672-0.33203-0.16797-0.69531-0.09375-1.0938 0.0625-0.36328 0.20312-0.69531 0.42188-1 0.22656-0.3125 0.50781-0.57031 0.84375-0.78125 0.25-0.15625 0.57031-0.28516 0.96875-0.39062 0.40625-0.11328 0.82031-0.17188 1.25-0.17188 0.65625 0 1.207 0.09375 1.6562 0.28125 0.45703 0.17969 0.77344 0.42188 0.95312 0.73438 0.17578 0.3125 0.26562 0.73438 0.26562 1.2656l-1.4219 0.1875c0.019531-0.42578-0.10156-0.75391-0.35938-0.98438-0.26172-0.23828-0.66406-0.35938-1.2031-0.35938-0.64844 0-1.125 0.10938-1.4375 0.32812-0.3125 0.21094-0.49609 0.45312-0.54688 0.73438-0.042969 0.17969-0.015625 0.33594 0.078125 0.46875 0.082031 0.15625 0.23828 0.28125 0.46875 0.375 0.13281 0.054687 0.52344 0.17188 1.1719 0.35938 0.94531 0.26172 1.6016 0.47656 1.9688 0.64062 0.36328 0.16797 0.625 0.41406 0.78125 0.73438 0.16406 0.3125 0.20703 0.70312 0.125 1.1719-0.09375 0.46094-0.32031 0.89062-0.67188 1.2969-0.34375 0.40625-0.79688 0.72656-1.3594 0.95312-0.55469 0.21875-1.1523 0.32812-1.7969 0.32812-1.0859 0-1.8672-0.21875-2.3438-0.65625-0.48047-0.44531-0.71875-1.1016-0.71875-1.9688z"/>
   </g>
   <g id="use62200" transform="translate(216.12 1893.2)">
    <path id="path66629" d="m2.875-9.6562 0.29688-1.5938h1.4062l-0.29688 1.5938zm-1.8125 9.6562 1.5312-8.1562h1.4062l-1.5312 8.1562z"/>
   </g>
   <g id="use62202" transform="translate(219.67 1893.2)">
    <path id="path66633" d="m1.0625 0 1.5312-8.1562h1.2656l-0.21875 1.1719c0.76953-0.89453 1.7344-1.3438 2.8906-1.3438 0.5 0 0.94141 0.089844 1.3281 0.26562 0.38281 0.16797 0.64844 0.39844 0.79688 0.6875 0.15625 0.28125 0.23828 0.62109 0.25 1.0156 0.00781 0.26172-0.046875 0.71094-0.17188 1.3438l-0.9375 5.0156h-1.4062l0.92188-4.9531c0.11328-0.5625 0.14062-0.98438 0.078125-1.2656-0.054687-0.28125-0.20312-0.50391-0.45312-0.67188-0.24219-0.16406-0.54688-0.25-0.92188-0.25-0.60547 0-1.1641 0.1875-1.6719 0.5625-0.5 0.375-0.85156 1.0859-1.0469 2.125l-0.82812 4.4531z"/>
   </g>
   <g id="use62204" transform="translate(228.57 1893.2)"></g>
   <g id="use62206" transform="translate(233.02 1893.2)">
    <path id="path66641" d="m10.141-3.9375 1.4531 0.375c-0.54297 1.2188-1.2891 2.1523-2.2344 2.7969-0.94922 0.63672-2.0156 0.95312-3.2031 0.95312-1.2422 0-2.1992-0.24219-2.875-0.73438-0.67969-0.5-1.1367-1.2109-1.375-2.1406-0.23047-0.9375-0.24609-1.9414-0.046875-3.0156 0.22656-1.1758 0.64844-2.1953 1.2656-3.0625 0.625-0.875 1.3945-1.5352 2.3125-1.9844 0.92578-0.45703 1.8945-0.6875 2.9062-0.6875 1.1445 0 2.0547 0.28906 2.7344 0.85938 0.67578 0.57422 1.0703 1.375 1.1875 2.4062l-1.5625 0.34375c-0.10547-0.8125-0.375-1.4062-0.8125-1.7812s-1.043-0.5625-1.8125-0.5625c-0.875 0-1.6523 0.21094-2.3281 0.625-0.66797 0.41797-1.1875 0.97656-1.5625 1.6719-0.36719 0.69922-0.61719 1.418-0.75 2.1562-0.1875 0.96094-0.20312 1.7969-0.046875 2.5156 0.15625 0.71094 0.5 1.2422 1.0312 1.5938 0.53125 0.35547 1.1445 0.53125 1.8438 0.53125 0.84375 0 1.6016-0.23828 2.2812-0.71875 0.67578-0.48828 1.207-1.2031 1.5938-2.1406z"/>
   </g>
  </g>
  <g id="g62212" transform="matrix(.35278 0 0 .35278 -62.14 -527.05)">
   <g id="use62210" transform="translate(222.22 1915.2)">
    <path id="path66645" d="m6.4688-3.0469 1.3906 0.1875c-0.15625 0.94922-0.54688 1.6953-1.1719 2.2344-0.61719 0.54297-1.375 0.8125-2.2812 0.8125-1.1367 0-2.0547-0.36719-2.75-1.1094-0.6875-0.75-1.0312-1.8164-1.0312-3.2031 0-0.89453 0.14453-1.6758 0.4375-2.3438 0.30078-0.67578 0.75391-1.1797 1.3594-1.5156 0.61328-0.33203 1.2734-0.5 1.9844-0.5 0.90625 0 1.6445 0.23047 2.2188 0.6875 0.57031 0.44922 0.9375 1.0938 1.0938 1.9375l-1.3594 0.20312c-0.13672-0.55078-0.37109-0.96875-0.70312-1.25-0.32422-0.28125-0.71875-0.42188-1.1875-0.42188-0.71094 0-1.2891 0.25781-1.7344 0.76562-0.4375 0.5-0.65625 1.3047-0.65625 2.4062 0 1.1172 0.21094 1.9297 0.64062 2.4375 0.42578 0.5 0.98438 0.75 1.6719 0.75 0.55078 0 1.0078-0.16406 1.375-0.5 0.375-0.34375 0.60938-0.86719 0.70312-1.5781z"/>
   </g>
  </g>
 </g>
</svg>
