<svg id="svg51131" version="1.1" viewBox="0 0 211.75 17.768" xmlns="http://www.w3.org/2000/svg">
 <title id="title51235">img_39</title>
 <g id="layer1" transform="translate(25.745 -110.56)">
  <g id="g51209">
   <path id="path47173" d="m-13.064 111.06h12.01m-19.016 16.013-3.0027-6.0055-2.0009 1.0018m12.01-11.009h-1.0018l-6.0041 16.013-3.0027-6.0055" style="fill:none;stroke-linecap:square;stroke-miterlimit:10;stroke-width:1.0008;stroke:#020505"/>
   <g id="g47177" transform="matrix(.35278 0 0 .35278 -49.976 -489.04)" style="fill:#020505">
    <g id="use47175" transform="translate(107.47 1740.8)">
     <path id="path51069" d="m1.8906-8.5156 4.1875-0.34375c0.30078 2.0312 1.0156 3.5625 2.1406 4.5938 1.1328 1.0312 2.5039 1.5469 4.1094 1.5469 1.9141 0 3.5352-0.72266 4.8594-2.1719 1.332-1.4453 2-3.3672 2-5.7656 0-2.2812-0.64062-4.0781-1.9219-5.3906-1.2734-1.3125-2.9453-1.9688-5.0156-1.9688-1.2812 0-2.4453 0.29297-3.4844 0.875-1.0312 0.58594-1.8398 1.3398-2.4219 2.2656l-3.75-0.48438 3.1406-16.688h16.156v3.8125h-12.953l-1.75 8.7344c1.9453-1.3633 3.9883-2.0469 6.125-2.0469 2.8438 0 5.2383 0.98438 7.1875 2.9531 1.9453 1.9688 2.9219 4.4961 2.9219 7.5781 0 2.9375-0.85547 5.4805-2.5625 7.625-2.0859 2.625-4.9297 3.9375-8.5312 3.9375-2.9609 0-5.375-0.82031-7.25-2.4688-1.8672-1.6562-2.9297-3.8516-3.1875-6.5938z"/>
    </g>
   </g>
  </g>
  <g id="g51218">
   <path id="path47179" d="m41.866 111.06h21.016m-28.022 16.014-3.0027-6.0055-2.0009 1.0004m12.01-11.009h-1.0005l-6.0055 16.014-3.0027-6.0055" style="fill:none;stroke-linecap:square;stroke-miterlimit:10;stroke-width:1.0008;stroke:#020505"/>
   <g id="g47183" transform="matrix(.35278 0 0 .35278 -49.976 -489.04)" style="fill:#020505">
    <g id="use47181" transform="translate(263.18 1740.8)">
     <path id="path51073" d="m16.906 0h-3.9844v-25.422c-0.96094 0.91797-2.2188 1.8359-3.7812 2.75-1.5625 0.91797-2.9648 1.6055-4.2031 2.0625v-3.8594c2.2383-1.0508 4.1914-2.3203 5.8594-3.8125 1.6641-1.4883 2.8477-2.9375 3.5469-4.3438h2.5625z"/>
    </g>
   </g>
   <g id="g47187" transform="matrix(.35278 0 0 .35278 -49.976 -489.04)" style="fill:#020505">
    <g id="use47185" transform="translate(288.69 1740.8)">
     <path id="path51077" d="m1.8906-16.031c0-3.832 0.39062-6.9219 1.1719-9.2656 0.78906-2.3438 1.9688-4.1484 3.5312-5.4219 1.5625-1.2695 3.5234-1.9062 5.8906-1.9062 1.7383 0 3.2656 0.35547 4.5781 1.0625 1.3125 0.69922 2.3945 1.7109 3.25 3.0312 0.86328 1.3242 1.5391 2.9336 2.0312 4.8281 0.48828 1.8984 0.73438 4.4531 0.73438 7.6719 0 3.8125-0.39844 6.8906-1.1875 9.2344-0.78125 2.3438-1.9531 4.1562-3.5156 5.4375-1.5547 1.2734-3.5156 1.9062-5.8906 1.9062-3.1367 0-5.6016-1.1172-7.3906-3.3594-2.1367-2.707-3.2031-7.1133-3.2031-13.219zm4.0938 0c0 5.3438 0.625 8.9023 1.875 10.672 1.25 1.7617 2.7891 2.6406 4.625 2.6406 1.8203 0 3.3594-0.88281 4.6094-2.6562 1.25-1.7812 1.875-5.332 1.875-10.656 0-5.3438-0.625-8.8945-1.875-10.656-1.25-1.7578-2.8047-2.6406-4.6562-2.6406-1.8359 0-3.2969 0.77734-4.3906 2.3281-1.375 1.9805-2.0625 5.6367-2.0625 10.969z"/>
    </g>
   </g>
  </g>
  <g id="g51224">
   <path id="path47189" d="m108.98 111.06h12.01m-19.016 16.014-3.0027-6.0055-2.0009 1.0004m12.01-11.009h-1.0018l-6.0041 16.014-3.0027-6.0055" style="fill:none;stroke-linecap:square;stroke-miterlimit:10;stroke-width:1.0008;stroke:#020505"/>
   <g id="g47193" transform="matrix(.35278 0 0 .35278 -49.976 -489.04)" style="fill:#020505">
    <g id="use47191" transform="translate(453.42 1740.8)">
     <path id="path51081" d="m1.9062-8.5781 3.9844-0.53125c0.45703 2.2617 1.2383 3.8906 2.3438 4.8906 1.1016 1 2.4414 1.5 4.0156 1.5 1.8828 0 3.4727-0.64844 4.7656-1.9531 1.2891-1.3008 1.9375-2.9141 1.9375-4.8438 0-1.8203-0.60156-3.3281-1.7969-4.5156-1.1992-1.1953-2.7188-1.7969-4.5625-1.7969-0.76172 0-1.6992 0.15234-2.8125 0.45312l0.4375-3.5156c0.25781 0.03125 0.47266 0.04687 0.64062 0.04687 1.6953 0 3.2227-0.44141 4.5781-1.3281 1.3633-0.88281 2.0469-2.25 2.0469-4.0938 0-1.4688-0.49609-2.6797-1.4844-3.6406-0.99219-0.95703-2.2656-1.4375-3.8281-1.4375-1.5547 0-2.8516 0.49219-3.8906 1.4688-1.0312 0.96876-1.6953 2.4297-1.9844 4.375l-3.9844-0.70312c0.47656-2.6758 1.582-4.75 3.3125-6.2188 1.7266-1.4688 3.8789-2.2031 6.4531-2.2031 1.7695 0 3.3984 0.38281 4.8906 1.1406 1.5 0.76172 2.6445 1.8047 3.4375 3.125 0.78906 1.3125 1.1875 2.7031 1.1875 4.1719 0 1.4062-0.38281 2.6875-1.1406 3.8438-0.75 1.1484-1.8672 2.0625-3.3438 2.75 1.9141 0.4375 3.4062 1.3555 4.4688 2.75 1.0703 1.3984 1.6094 3.1484 1.6094 5.25 0 2.8359-1.0391 5.2422-3.1094 7.2188-2.0625 1.9688-4.6797 2.9531-7.8438 2.9531-2.8555 0-5.2266-0.84766-7.1094-2.5469-1.875-1.6953-2.9492-3.8984-3.2188-6.6094z"/>
    </g>
   </g>
  </g>
  <g id="g51233">
   <path id="path47195" d="m164.49 111.06h21.016m-28.022 16.013-3.0027-6.0055-2.0009 1.0018m12.01-11.009h-1.0018l-6.0041 16.013-3.0027-6.0055" style="fill:none;stroke-linecap:square;stroke-miterlimit:10;stroke-width:1.0008;stroke:#020505"/>
   <g id="g47199" transform="matrix(.35278 0 0 .35278 -49.976 -489.04)" style="fill:#020505">
    <g id="use47197" transform="translate(610.77 1740.8)">
     <path id="path51085" d="m16.906 0h-3.9844v-25.422c-0.96094 0.91797-2.2188 1.8359-3.7812 2.75-1.5625 0.91797-2.9648 1.6055-4.2031 2.0625v-3.8594c2.2383-1.0508 4.1914-2.3203 5.8594-3.8125 1.6641-1.4883 2.8477-2.9375 3.5469-4.3438h2.5625z"/>
    </g>
   </g>
   <g id="g47203" transform="matrix(.35278 0 0 .35278 -49.976 -489.04)" style="fill:#020505">
    <g id="use47201" transform="translate(636.28 1740.8)">
     <path id="path51089" d="m1.8906-8.5156 4.1875-0.34375c0.30078 2.0312 1.0156 3.5625 2.1406 4.5938 1.1328 1.0312 2.5039 1.5469 4.1094 1.5469 1.9141 0 3.5352-0.72266 4.8594-2.1719 1.332-1.4453 2-3.3672 2-5.7656 0-2.2812-0.64062-4.0781-1.9219-5.3906-1.2734-1.3125-2.9453-1.9688-5.0156-1.9688-1.2812 0-2.4453 0.29297-3.4844 0.875-1.0312 0.58594-1.8398 1.3398-2.4219 2.2656l-3.75-0.48438 3.1406-16.688h16.156v3.8125h-12.953l-1.75 8.7344c1.9453-1.3633 3.9883-2.0469 6.125-2.0469 2.8438 0 5.2383 0.98438 7.1875 2.9531 1.9453 1.9688 2.9219 4.4961 2.9219 7.5781 0 2.9375-0.85547 5.4805-2.5625 7.625-2.0859 2.625-4.9297 3.9375-8.5312 3.9375-2.9609 0-5.375-0.82031-7.25-2.4688-1.8672-1.6562-2.9297-3.8516-3.1875-6.5938z"/>
    </g>
   </g>
  </g>
 </g>
</svg>
