<svg id="svg30531" version="1.1" viewBox="0 0 83.462 102.02" xmlns="http://www.w3.org/2000/svg">
 <title id="title30692">img_58</title>
 <g id="layer1" transform="translate(-104.92 -95.647)">
  <path id="path7582" d="m131.89 153.82c0 18.233-5.9986 33.012-13.397 33.012-7.3987 0-13.396-14.779-13.396-33.012 0-18.231 5.9972-33.011 13.396-33.011 7.3987 0 13.397 14.779 13.397 33.011z" style="fill:none;stroke-miterlimit:10;stroke-width:.35278;stroke:#000"/>
  <path id="path7584" d="m186.55 153.82c0 24.114-5.9986 43.663-13.397 43.663s-13.397-19.549-13.397-43.663c0-24.113 5.9986-43.662 13.397-43.662s13.397 19.549 13.397 43.662z" style="fill:none;stroke-miterlimit:10;stroke-width:.35278;stroke:#000"/>
  <g id="g7588" transform="matrix(.35278 0 0 .35278 66.644 -726.47)">
   <g id="use7586" transform="translate(139.03 2451.5)">
    <path id="path30392" d="m12.281 0c-0.1875-0.96875-0.23438-2.1562-0.23438-3.375v-5.2812c0-2.8281-1.0625-5.7812-5.375-5.7812-1.7812 0-3.4688 0.5-4.625 1.2656l0.57812 1.6875c0.98438-0.64062 2.3594-1.0469 3.6719-1.0469 2.8906 0 3.2031 2.0938 3.2031 3.2656v0.28125c-5.4531-0.03125-8.4844 1.8438-8.4844 5.25 0 2.0469 1.4688 4.0625 4.3125 4.0625 2.0156 0 3.5312-1 4.3281-2.1094h0.078125l0.20312 1.7812zm-2.7188-4.75c0 0.26562-0.0625 0.54688-0.14062 0.8125-0.40625 1.2031-1.5781 2.3594-3.4219 2.3594-1.3125 0-2.4062-0.78125-2.4062-2.4531 0-2.7344 3.1719-3.2344 5.9688-3.1719z"/>
   </g>
  </g>
  <g id="g7592" transform="matrix(.35278 0 0 .35278 66.644 -726.47)">
   <g id="use7590" transform="translate(139.03 2505.4)">
    <path id="path30396" d="m4.2344 0 0.10938-2.3281h0.09375c1.0469 1.8594 2.6719 2.6562 4.7188 2.6562 3.1406 0 6.3281-2.5156 6.3281-7.5625 0.03125-4.2812-2.4531-7.2031-5.9531-7.2031-2.2656 0-3.9062 1.0312-4.8125 2.5938h-0.046875v-8.8594h-2.5469v17.062c0 1.25-0.0625 2.6719-0.10938 3.6406zm0.4375-8.1875c0-0.40625 0.078125-0.76562 0.14062-1.0625 0.51562-1.9531 2.1562-3.1406 3.9062-3.1406 2.7344 0 4.2031 2.4219 4.2031 5.25 0 3.2344-1.6094 5.4219-4.2969 5.4219-1.8594 0-3.3438-1.2188-3.8438-3-0.0625-0.29688-0.10938-0.60938-0.10938-0.9375z"/>
   </g>
  </g>
  <g id="g7596" transform="matrix(.35278 0 0 .35278 66.644 -726.47)">
   <g id="use7594" transform="translate(139.03 2559.3)">
    <path id="path30400" d="m11.75-2.4531c-0.73438 0.32812-1.6875 0.70312-3.1562 0.70312-2.7969 0-4.8906-2.0156-4.8906-5.2812 0-2.9375 1.75-5.3281 4.9844-5.3281 1.4062 0 2.3594 0.3125 2.9688 0.67188l0.59375-1.9844c-0.70312-0.35938-2.0469-0.73438-3.5625-0.73438-4.6094 0-7.5781 3.1562-7.5781 7.5 0 4.3125 2.7656 7.2031 7.0312 7.2031 1.8906 0 3.375-0.46875 4.0469-0.82812z"/>
   </g>
  </g>
  <g id="g7608" transform="matrix(.35278 0 0 .35278 66.644 -726.47)">
   <g id="use7598" transform="translate(109 2383.5)">
    <path id="path30404" d="m1.6719 0 4.3594-20.875h2.7812l-4.3594 20.875z"/>
   </g>
   <g id="use7600" transform="translate(117.25 2383.5)">
    <path id="path30408" d="m0.96875 0 3.1562-15.125h2.3438l-0.5625 2.6406c1.0195-1.0312 1.9688-1.7812 2.8438-2.25 0.88281-0.47656 1.7852-0.71875 2.7031-0.71875 1.2266 0 2.1914 0.33594 2.8906 1 0.69531 0.65625 1.0469 1.543 1.0469 2.6562 0 0.55469-0.125 1.4336-0.375 2.6406l-1.9219 9.1562h-2.5781l2.0156-9.5781c0.19531-0.92578 0.29688-1.6133 0.29688-2.0625 0-0.50781-0.17969-0.92188-0.53125-1.2344-0.34375-0.3125-0.83984-0.46875-1.4844-0.46875-1.3242 0-2.5 0.47656-3.5312 1.4219-1.0312 0.94922-1.7891 2.5781-2.2656 4.8906l-1.4688 7.0312z"/>
   </g>
   <g id="use7602" transform="translate(133.61 2383.5)">
    <path id="path30412" d="m-0.29688 5.7969 4.375-20.922h2.375l-0.45312 2.1094c0.88281-0.91406 1.6758-1.5508 2.375-1.9062 0.69531-0.35156 1.4375-0.53125 2.2188-0.53125 1.4375 0 2.6289 0.52734 3.5781 1.5781 0.95703 1.043 1.4375 2.543 1.4375 4.5 0 1.5742-0.26562 3.0117-0.79688 4.3125-0.52344 1.293-1.1641 2.3359-1.9219 3.125-0.75 0.78125-1.5156 1.3594-2.2969 1.7344-0.78125 0.36328-1.5781 0.54688-2.3906 0.54688-1.8125 0-3.2188-0.92188-4.2188-2.7656l-1.7031 8.2188zm5.0938-11.969c0 1.125 0.082031 1.9062 0.25 2.3438 0.22656 0.61719 0.61328 1.1172 1.1562 1.5 0.53906 0.375 1.1719 0.5625 1.8906 0.5625 1.4766 0 2.6719-0.83203 3.5781-2.5 0.91406-1.6641 1.375-3.3672 1.375-5.1094 0-1.2812-0.30859-2.2656-0.92188-2.9531-0.61719-0.69531-1.375-1.0469-2.2812-1.0469-0.65625 0-1.2656 0.17188-1.8281 0.51562s-1.0859 0.85938-1.5625 1.5469c-0.48047 0.6875-0.875 1.5312-1.1875 2.5312-0.3125 0.99219-0.46875 1.8594-0.46875 2.6094z"/>
   </g>
   <g id="use7604" transform="translate(149.96 2383.5)">
    <path id="path30416" d="m11.297-2.7344c-1.8125 2.0547-3.6719 3.0781-5.5781 3.0781-1.168 0-2.1094-0.33594-2.8281-1-0.71094-0.67578-1.0625-1.5-1.0625-2.4688 0-0.63281 0.16016-1.7227 0.48438-3.2656l1.8125-8.7344h2.5781l-2.0156 9.6719c-0.17969 0.80469-0.26562 1.4297-0.26562 1.875 0 0.57422 0.17188 1.0234 0.51562 1.3438 0.35156 0.3125 0.86719 0.46875 1.5469 0.46875 0.71875 0 1.4219-0.17188 2.1094-0.51562 0.6875-0.35156 1.2812-0.82812 1.7812-1.4219 0.5-0.60156 0.90625-1.3164 1.2188-2.1406 0.20703-0.51953 0.44531-1.4297 0.71875-2.7344l1.375-6.5469h2.5781l-3.1719 15.125h-2.375z"/>
   </g>
   <g id="use7606" transform="translate(166.32 2383.5)">
    <path id="path30420" d="m6.9844-2.0938-0.42188 2.1094c-0.61719 0.15625-1.2148 0.23438-1.7969 0.23438-1.0234 0-1.8359-0.25-2.4375-0.75-0.46094-0.375-0.6875-0.89062-0.6875-1.5469 0-0.33203 0.11719-1.0977 0.35938-2.2969l1.8438-8.7812h-2.0312l0.40625-2h2.0312l0.79688-3.7031 2.9375-1.7812-1.1562 5.4844h2.5469l-0.4375 2h-2.5156l-1.75 8.3594c-0.21875 1.0625-0.32812 1.6992-0.32812 1.9062 0 0.30469 0.085938 0.53906 0.26562 0.70312 0.17578 0.15625 0.46094 0.23438 0.85938 0.23438 0.57031 0 1.0781-0.054688 1.5156-0.17188z"/>
   </g>
  </g>
  <g id="g7622" transform="matrix(.35278 0 0 .35278 66.644 -726.47)">
   <g id="use7610" transform="translate(255.57 2351.6)">
    <path id="path30424" d="m2.6562-8.7344c0-3.7266 1.0703-6.7383 3.2188-9.0312 2.1562-2.3008 4.7656-3.4531 7.8281-3.4531 2.6016 0 4.7227 0.85156 6.3594 2.5469 1.6328 1.6875 2.4531 3.9531 2.4531 6.7969 0 2.0312-0.41406 3.918-1.2344 5.6562-0.61719 1.3047-1.3906 2.4297-2.3281 3.375-0.9375 0.9375-1.9453 1.6641-3.0156 2.1719-1.4297 0.6875-2.9375 1.0312-4.5312 1.0312-1.6797 0-3.2031-0.39453-4.5781-1.1875-1.3672-0.80078-2.4023-1.9141-3.1094-3.3438-0.71094-1.4375-1.0625-2.957-1.0625-4.5625zm2.75 0.14062c0 1.2188 0.25391 2.3438 0.76562 3.375 0.50781 1.0234 1.2656 1.8242 2.2656 2.4062 1.0078 0.57422 2.0664 0.85938 3.1719 0.85938 1.0703 0 2.0938-0.25 3.0625-0.75 0.96875-0.50781 1.832-1.2188 2.5938-2.125 0.76953-0.90625 1.375-2.0195 1.8125-3.3438 0.44531-1.332 0.67188-2.6406 0.67188-3.9219 0-2.0703-0.58594-3.7227-1.75-4.9531-1.1562-1.2383-2.5898-1.8594-4.2969-1.8594-2.1875 0-4.1211 0.93359-5.7969 2.7969-1.668 1.8672-2.5 4.3711-2.5 7.5156z"/>
   </g>
   <g id="use7612" transform="translate(278.4 2351.6)">
    <path id="path30428" d="m11.297-2.7344c-1.8125 2.0547-3.6719 3.0781-5.5781 3.0781-1.168 0-2.1094-0.33594-2.8281-1-0.71094-0.67578-1.0625-1.5-1.0625-2.4688 0-0.63281 0.16016-1.7227 0.48438-3.2656l1.8125-8.7344h2.5781l-2.0156 9.6719c-0.17969 0.80469-0.26562 1.4297-0.26562 1.875 0 0.57422 0.17188 1.0234 0.51562 1.3438 0.35156 0.3125 0.86719 0.46875 1.5469 0.46875 0.71875 0 1.4219-0.17188 2.1094-0.51562 0.6875-0.35156 1.2812-0.82812 1.7812-1.4219 0.5-0.60156 0.90625-1.3164 1.2188-2.1406 0.20703-0.51953 0.44531-1.4297 0.71875-2.7344l1.375-6.5469h2.5781l-3.1719 15.125h-2.375z"/>
   </g>
   <g id="use7614" transform="translate(294.75 2351.6)">
    <path id="path30432" d="m6.9844-2.0938-0.42188 2.1094c-0.61719 0.15625-1.2148 0.23438-1.7969 0.23438-1.0234 0-1.8359-0.25-2.4375-0.75-0.46094-0.375-0.6875-0.89062-0.6875-1.5469 0-0.33203 0.11719-1.0977 0.35938-2.2969l1.8438-8.7812h-2.0312l0.40625-2h2.0312l0.79688-3.7031 2.9375-1.7812-1.1562 5.4844h2.5469l-0.4375 2h-2.5156l-1.75 8.3594c-0.21875 1.0625-0.32812 1.6992-0.32812 1.9062 0 0.30469 0.085938 0.53906 0.26562 0.70312 0.17578 0.15625 0.46094 0.23438 0.85938 0.23438 0.57031 0 1.0781-0.054688 1.5156-0.17188z"/>
   </g>
   <g id="use7616" transform="translate(303.01 2351.6)">
    <path id="path30436" d="m-0.29688 5.7969 4.375-20.922h2.375l-0.45312 2.1094c0.88281-0.91406 1.6758-1.5508 2.375-1.9062 0.69531-0.35156 1.4375-0.53125 2.2188-0.53125 1.4375 0 2.6289 0.52734 3.5781 1.5781 0.95703 1.043 1.4375 2.543 1.4375 4.5 0 1.5742-0.26562 3.0117-0.79688 4.3125-0.52344 1.293-1.1641 2.3359-1.9219 3.125-0.75 0.78125-1.5156 1.3594-2.2969 1.7344-0.78125 0.36328-1.5781 0.54688-2.3906 0.54688-1.8125 0-3.2188-0.92188-4.2188-2.7656l-1.7031 8.2188zm5.0938-11.969c0 1.125 0.082031 1.9062 0.25 2.3438 0.22656 0.61719 0.61328 1.1172 1.1562 1.5 0.53906 0.375 1.1719 0.5625 1.8906 0.5625 1.4766 0 2.6719-0.83203 3.5781-2.5 0.91406-1.6641 1.375-3.3672 1.375-5.1094 0-1.2812-0.30859-2.2656-0.92188-2.9531-0.61719-0.69531-1.375-1.0469-2.2812-1.0469-0.65625 0-1.2656 0.17188-1.8281 0.51562s-1.0859 0.85938-1.5625 1.5469c-0.48047 0.6875-0.875 1.5312-1.1875 2.5312-0.3125 0.99219-0.46875 1.8594-0.46875 2.6094z"/>
   </g>
   <g id="use7618" transform="translate(319.36 2351.6)">
    <path id="path30440" d="m11.297-2.7344c-1.8125 2.0547-3.6719 3.0781-5.5781 3.0781-1.168 0-2.1094-0.33594-2.8281-1-0.71094-0.67578-1.0625-1.5-1.0625-2.4688 0-0.63281 0.16016-1.7227 0.48438-3.2656l1.8125-8.7344h2.5781l-2.0156 9.6719c-0.17969 0.80469-0.26562 1.4297-0.26562 1.875 0 0.57422 0.17188 1.0234 0.51562 1.3438 0.35156 0.3125 0.86719 0.46875 1.5469 0.46875 0.71875 0 1.4219-0.17188 2.1094-0.51562 0.6875-0.35156 1.2812-0.82812 1.7812-1.4219 0.5-0.60156 0.90625-1.3164 1.2188-2.1406 0.20703-0.51953 0.44531-1.4297 0.71875-2.7344l1.375-6.5469h2.5781l-3.1719 15.125h-2.375z"/>
   </g>
   <g id="use7620" transform="translate(335.72 2351.6)">
    <path id="path30444" d="m6.9844-2.0938-0.42188 2.1094c-0.61719 0.15625-1.2148 0.23438-1.7969 0.23438-1.0234 0-1.8359-0.25-2.4375-0.75-0.46094-0.375-0.6875-0.89062-0.6875-1.5469 0-0.33203 0.11719-1.0977 0.35938-2.2969l1.8438-8.7812h-2.0312l0.40625-2h2.0312l0.79688-3.7031 2.9375-1.7812-1.1562 5.4844h2.5469l-0.4375 2h-2.5156l-1.75 8.3594c-0.21875 1.0625-0.32812 1.6992-0.32812 1.9062 0 0.30469 0.085938 0.53906 0.26562 0.70312 0.17578 0.15625 0.46094 0.23438 0.85938 0.23438 0.57031 0 1.0781-0.054688 1.5156-0.17188z"/>
   </g>
  </g>
  <g id="g7626" transform="matrix(.35278 0 0 .35278 66.644 -726.47)">
   <g id="use7624" transform="translate(294.7 2425.3)">
    <path id="path30448" d="m6.875 0h2.4844v-18.953h-2.1875l-4.1406 2.2188 0.5 1.9531 3.2969-1.7812h0.046875z"/>
   </g>
  </g>
  <g id="g7630" transform="matrix(.35278 0 0 .35278 66.644 -726.47)">
   <g id="use7628" transform="translate(294.7 2479.2)">
    <path id="path30452" d="m13.406 0v-2.125h-8.5156v-0.0625l1.5312-1.4062c3.9844-3.8438 6.5312-6.6719 6.5312-10.172 0-2.7031-1.7344-5.5-5.8125-5.5-2.1875 0-4.0469 0.8125-5.3594 1.9219l0.8125 1.7969c0.875-0.71875 2.2969-1.5938 4.0312-1.5938 2.8281 0 3.75 1.7812 3.75 3.7031-0.03125 2.8594-2.2188 5.2969-7.0469 9.9062l-2.0156 1.9531v1.5781z"/>
   </g>
  </g>
  <g id="g7634" transform="matrix(.35278 0 0 .35278 66.644 -726.47)">
   <g id="use7632" transform="translate(294.7 2533.2)">
    <path id="path30456" d="m1.2188-0.96875c0.9375 0.625 2.8125 1.2969 4.9375 1.2969 4.5469 0 6.9062-2.6562 6.9062-5.6875 0-2.6562-1.8906-4.4062-4.2344-4.875v-0.0625c2.3438-0.84375 3.5-2.5 3.5-4.4531 0-2.3125-1.6875-4.5156-5.4219-4.5156-2.0312 0-3.9688 0.71875-4.9531 1.4531l0.67188 1.8594c0.8125-0.57812 2.2656-1.25 3.7969-1.25 2.3594 0 3.3125 1.3438 3.3125 2.8594 0 2.25-2.3594 3.2031-4.2188 3.2031h-1.4375v1.9219h1.4375c2.4688 0 4.8594 1.1406 4.8906 3.7969 0.03125 1.5781-0.98438 3.6719-4.2812 3.6719-1.7812 0-3.4688-0.73438-4.2031-1.1875z"/>
   </g>
  </g>
  <g id="g7638" transform="matrix(.35278 0 0 .35278 66.644 -726.47)">
   <g id="use7636" transform="translate(294.7 2587.1)">
    <path id="path30460" d="m11.656 0v-5.1562h2.6562v-2.0156h-2.6562v-11.781h-2.7656l-8.4531 12.094v1.7031h8.8125v5.1562zm-8.625-7.1719v-0.0625l4.6406-6.4375c0.51562-0.875 0.98438-1.6875 1.5781-2.7969h0.078125c-0.0625 0.98438-0.078125 1.9844-0.078125 2.9688v6.3281z"/>
   </g>
  </g>
  <path id="path7640" d="m123.84 136.24 36.722-7.3918" style="fill:none;stroke-miterlimit:10;stroke-width:.70556;stroke:#1c1cbd"/>
  <path id="path7642" d="m159.59 131.14 7.0941-3.5181-7.903-0.50024z" style="fill:#1c1cbd"/>
  <path id="path7644" d="m123.84 173.82 36.722-7.3932" style="fill:none;stroke-miterlimit:10;stroke-width:.70556;stroke:#1c1cbd"/>
  <path id="path7646" d="m159.59 168.71 7.0941-3.5181-7.903-0.50024z" style="fill:#1c1cbd"/>
 </g>
</svg>
