<svg id="svg42247" version="1.1" viewBox="0 0 213.21 58.728" xmlns="http://www.w3.org/2000/svg">
 <title id="title42471">img_32</title>
 <g id="layer1" transform="translate(24.207 -105.2)">
  <path id="path34819" d="m-15.495 107.77v53.807" style="fill:none;stroke-miterlimit:10;stroke-width:.38806;stroke:#1c1c19"/>
  <path id="path34821" d="m-15.495 105.43c-0.40928 1.1024-1.1066 2.4694-1.8466 3.3183l1.8466-0.66834 1.8452 0.66834c-0.73863-0.84886-1.4359-2.2159-1.8452-3.3183" style="fill:#1c1c19"/>
  <path id="path34823" d="m-15.495 163.92c-0.40928-1.1024-1.1066-2.4709-1.8466-3.3183l1.8466 0.66697 1.8452-0.66697c-0.73863 0.84748-1.4359 2.2159-1.8452 3.3183" style="fill:#1c1c19"/>
  <path id="path34825" d="m31.944 153.36h-53.808" style="fill:none;stroke-miterlimit:10;stroke-width:.38806;stroke:#1c1c19"/>
  <path id="path34827" d="m34.287 153.36c-1.1024-0.40926-2.4708-1.1079-3.3183-1.8466l0.66697 1.8466-0.66697 1.8452c0.84749-0.73864 2.2159-1.4373 3.3183-1.8452" style="fill:#1c1c19"/>
  <path id="path34829" d="m-24.207 153.36c1.1024-0.40926 2.4694-1.1079 3.3183-1.8466l-0.66835 1.8466 0.66835 1.8452c-0.84887-0.73864-2.2159-1.4373-3.3183-1.8452" style="fill:#1c1c19"/>
  <path id="path34831" d="m14.698 123.29-30.131 30.131" style="fill:none;stroke-miterlimit:10;stroke-width:.42122;stroke:#1c1c19"/>
  <path id="path34833" d="m16.496 121.49c-1.1603 0.53192-2.7464 1.0459-3.9632 1.13l1.9293 0.904 0.90399 1.9293c0.08268-1.2182 0.59807-2.8043 1.13-3.9632" style="fill:#1c1c19"/>
  <path id="path34835" d="m-5.8969 152.15v2.5122" style="fill:none;stroke-miterlimit:10;stroke-width:.42122;stroke:#1c1c19"/>
  <path id="path34837" d="m3.5385 152.15v2.5122" style="fill:none;stroke-miterlimit:10;stroke-width:.42122;stroke:#1c1c19"/>
  <path id="path34839" d="m12.974 152.15v2.5122" style="fill:none;stroke-miterlimit:10;stroke-width:.42122;stroke:#1c1c19"/>
  <path id="path34841" d="m22.408 152.15v2.5122" style="fill:none;stroke-miterlimit:10;stroke-width:.42122;stroke:#1c1c19"/>
  <path id="path34843" d="m-16.923 143.52h2.5135" style="fill:none;stroke-miterlimit:10;stroke-width:.42122;stroke:#1c1c19"/>
  <path id="path34845" d="m-16.923 134.09h2.5135" style="fill:none;stroke-miterlimit:10;stroke-width:.42122;stroke:#1c1c19"/>
  <path id="path34847" d="m-16.923 124.65h2.5135" style="fill:none;stroke-miterlimit:10;stroke-width:.42122;stroke:#1c1c19"/>
  <path id="path34849" d="m-16.923 115.22h2.5135" style="fill:none;stroke-miterlimit:10;stroke-width:.42122;stroke:#1c1c19"/>
  <g id="use34851" transform="matrix(.35278 0 0 .35278 -13.01 110.93)" style="fill:#1c1c19">
   <path id="path42123" d="m0.10938-6.2344 2.3125 5.75c0.046875 0.14062 0.078125 0.23438 0.078125 0.29688s-0.03125 0.15625-0.09375 0.26562c-0.25 0.57812-0.64062 1.0156-0.95312 1.2656-0.32812 0.28125-0.70312 0.45312-0.98438 0.54688l0.28125 0.95312c0.28125-0.046875 0.82812-0.23438 1.3906-0.73438 0.76562-0.67188 1.3281-1.7656 2.1406-3.9062l1.7031-4.4375h-1.2031l-1.2344 3.6562c-0.15625 0.45312-0.28125 0.92188-0.40625 1.2969h-0.015625c-0.10938-0.375-0.26562-0.85938-0.40625-1.2656l-1.3594-3.6875z"/>
  </g>
  <g id="use34855" transform="matrix(.35278 0 0 .35278 28.06 149.71)" style="fill:#1c1c19">
   <path id="path42127" d="m0.20312-6.2344 2.1094 3.0469-2.2031 3.1875h1.25l0.89062-1.4062c0.23438-0.375 0.45312-0.70312 0.65625-1.0781h0.03125c0.21875 0.375 0.42188 0.71875 0.67188 1.0781l0.92188 1.4062h1.2812l-2.1875-3.2188 2.125-3.0156h-1.2188l-0.89062 1.3281c-0.20312 0.32812-0.40625 0.65625-0.60938 1.0312h-0.046875c-0.20312-0.35938-0.39062-0.67188-0.625-1.0156l-0.89062-1.3438z"/>
  </g>
  <g id="use34859" transform="matrix(.35278 0 0 .35278 -19.704 157.89)" style="fill:#1c1c19">
   <path id="path42131" d="m3.375-8.5156c-1.7031 0-2.9062 1.5469-2.9062 4.3594 0.015625 2.7656 1.125 4.2969 2.7656 4.2969 1.8594 0 2.9219-1.5781 2.9219-4.4219 0-2.6719-1.0156-4.2344-2.7812-4.2344zm-0.0625 0.875c1.1719 0 1.7031 1.3438 1.7031 3.4062 0 2.1406-0.5625 3.5-1.7188 3.5-1.0312 0-1.7031-1.2344-1.7031-3.4219 0-2.2812 0.71875-3.4844 1.7188-3.4844z"/>
  </g>
  <path id="path34863" d="m5.0392 133.83c0 0.46578-0.37621 0.84198-0.8406 0.84198-0.46578 0-0.84198-0.3762-0.84198-0.84198 0-0.46439 0.3762-0.8406 0.84198-0.8406 0.4644 0 0.8406 0.37621 0.8406 0.8406" style="fill:#26338a"/>
  <path id="path34865" d="m-14.342 152.74c0 0.4644-0.37758 0.8406-0.84198 0.8406-0.4644 0-0.84198-0.3762-0.84198-0.8406s0.37758-0.84197 0.84198-0.84197c0.4644 0 0.84198 0.37757 0.84198 0.84197" style="fill:#26338a"/>
  <path id="path34867" d="m61.864 107.54v53.807" style="fill:none;stroke-miterlimit:10;stroke-width:.38806;stroke:#1c1c19"/>
  <path id="path34869" d="m61.864 105.2c-0.40928 1.1024-1.1066 2.4694-1.8452 3.3183l1.8452-0.66834 1.8466 0.66834c-0.74001-0.84886-1.4373-2.2159-1.8466-3.3183" style="fill:#1c1c19"/>
  <path id="path34871" d="m61.864 163.69c-0.40928-1.1024-1.1066-2.4694-1.8452-3.317l1.8452 0.667 1.8466-0.667c-0.74001 0.84752-1.4373 2.2145-1.8466 3.317" style="fill:#1c1c19"/>
  <path id="path34873" d="m109.3 153.12h-53.808" style="fill:none;stroke-miterlimit:10;stroke-width:.38806;stroke:#1c1c19"/>
  <path id="path34875" d="m111.65 153.12c-1.1024-0.40929-2.4708-1.108-3.3183-1.8466l0.66835 1.8466-0.66835 1.8452c0.84749-0.73861 2.2159-1.4373 3.3183-1.8452" style="fill:#1c1c19"/>
  <path id="path34877" d="m53.152 153.12c1.1024-0.40929 2.4708-1.108 3.3183-1.8466l-0.66835 1.8466 0.66835 1.8452c-0.84749-0.73861-2.2159-1.4373-3.3183-1.8452" style="fill:#1c1c19"/>
  <path id="path34879" d="m98.228 143.8-30.521-29.737" style="fill:none;stroke-miterlimit:10;stroke-width:.42122;stroke:#1c1c19"/>
  <path id="path34881" d="m100.05 145.57c-0.54708-1.152-1.0831-2.7313-1.181-3.9481l-0.87919 1.9417-1.9182 0.92879c1.2196 0.0676 2.8112 0.56088 3.9784 1.0776" style="fill:#1c1c19"/>
  <path id="path34883" d="m71.463 151.92v2.5122" style="fill:none;stroke-miterlimit:10;stroke-width:.42122;stroke:#1c1c19"/>
  <path id="path34885" d="m80.897 151.92v2.5122" style="fill:none;stroke-miterlimit:10;stroke-width:.42122;stroke:#1c1c19"/>
  <path id="path34887" d="m90.333 151.92v2.5122" style="fill:none;stroke-miterlimit:10;stroke-width:.42122;stroke:#1c1c19"/>
  <path id="path34889" d="m99.767 151.92v2.5122" style="fill:none;stroke-miterlimit:10;stroke-width:.42122;stroke:#1c1c19"/>
  <path id="path34891" d="m60.438 143.29h2.5122" style="fill:none;stroke-miterlimit:10;stroke-width:.42122;stroke:#1c1c19"/>
  <path id="path34893" d="m60.438 133.85h2.5122" style="fill:none;stroke-miterlimit:10;stroke-width:.42122;stroke:#1c1c19"/>
  <path id="path34895" d="m60.438 124.42h2.5122" style="fill:none;stroke-miterlimit:10;stroke-width:.42122;stroke:#1c1c19"/>
  <path id="path34897" d="m60.438 114.99h2.5122" style="fill:none;stroke-miterlimit:10;stroke-width:.42122;stroke:#1c1c19"/>
  <g id="use34899" transform="matrix(.35278 0 0 .35278 64.349 110.69)" style="fill:#1c1c19">
   <path id="path42135" d="m0.10938-6.2344 2.3125 5.75c0.046875 0.14062 0.078125 0.23438 0.078125 0.29688s-0.03125 0.15625-0.09375 0.26562c-0.25 0.57812-0.64062 1.0156-0.95312 1.2656-0.32812 0.28125-0.70312 0.45312-0.98438 0.54688l0.28125 0.95312c0.28125-0.046875 0.82812-0.23438 1.3906-0.73438 0.76562-0.67188 1.3281-1.7656 2.1406-3.9062l1.7031-4.4375h-1.2031l-1.2344 3.6562c-0.15625 0.45312-0.28125 0.92188-0.40625 1.2969h-0.015625c-0.10938-0.375-0.26562-0.85938-0.40625-1.2656l-1.3594-3.6875z"/>
  </g>
  <g id="use34903" transform="matrix(.35278 0 0 .35278 105.42 149.48)" style="fill:#1c1c19">
   <path id="path42139" d="m0.20312-6.2344 2.1094 3.0469-2.2031 3.1875h1.25l0.89062-1.4062c0.23438-0.375 0.45312-0.70312 0.65625-1.0781h0.03125c0.21875 0.375 0.42188 0.71875 0.67188 1.0781l0.92188 1.4062h1.2812l-2.1875-3.2188 2.125-3.0156h-1.2188l-0.89062 1.3281c-0.20312 0.32812-0.40625 0.65625-0.60938 1.0312h-0.046875c-0.20312-0.35938-0.39062-0.67188-0.625-1.0156l-0.89062-1.3438z"/>
  </g>
  <g id="use34907" transform="matrix(.35278 0 0 .35278 57.655 157.66)" style="fill:#1c1c19">
   <path id="path42143" d="m3.375-8.5156c-1.7031 0-2.9062 1.5469-2.9062 4.3594 0.015625 2.7656 1.125 4.2969 2.7656 4.2969 1.8594 0 2.9219-1.5781 2.9219-4.4219 0-2.6719-1.0156-4.2344-2.7812-4.2344zm-0.0625 0.875c1.1719 0 1.7031 1.3438 1.7031 3.4062 0 2.1406-0.5625 3.5-1.7188 3.5-1.0312 0-1.7031-1.2344-1.7031-3.4219 0-2.2812 0.71875-3.4844 1.7188-3.4844z"/>
  </g>
  <path id="path34911" d="m88.729 133.85c0 0.46439-0.37621 0.84197-0.84198 0.84197-0.4644 0-0.8406-0.37758-0.8406-0.84197 0-0.4644 0.3762-0.84198 0.8406-0.84198 0.46578 0 0.84198 0.37758 0.84198 0.84198" style="fill:#26338a"/>
  <path id="path34913" d="m68.547 114.39c0 0.4644-0.3762 0.84197-0.84061 0.84197-0.46578 0-0.84198-0.37757-0.84198-0.84197s0.3762-0.8406 0.84198-0.8406c0.4644 0 0.84061 0.3762 0.84061 0.8406" style="fill:#26338a"/>
  <path id="path34915" d="m139.22 107.77v53.807" style="fill:none;stroke-miterlimit:10;stroke-width:.38806;stroke:#1c1c19"/>
  <path id="path34917" d="m139.22 105.43c-0.40928 1.1024-1.1079 2.4694-1.8466 3.3183l1.8466-0.66834 1.8452 0.66834c-0.73863-0.84886-1.4373-2.2159-1.8452-3.3183" style="fill:#1c1c19"/>
  <path id="path34919" d="m139.22 163.92c-0.40928-1.1024-1.1079-2.4709-1.8466-3.3183l1.8466 0.66697 1.8452-0.66697c-0.73863 0.84748-1.4373 2.2159-1.8452 3.3183" style="fill:#1c1c19"/>
  <path id="path34921" d="m186.66 153.36h-53.808" style="fill:none;stroke-miterlimit:10;stroke-width:.38806;stroke:#1c1c19"/>
  <path id="path34923" d="m189 153.36c-1.1024-0.40926-2.4694-1.1079-3.3183-1.8466l0.66835 1.8466-0.66835 1.8452c0.84888-0.73864 2.2159-1.4373 3.3183-1.8452" style="fill:#1c1c19"/>
  <path id="path34925" d="m130.51 153.36c1.1024-0.40926 2.4708-1.1079 3.3183-1.8466l-0.66697 1.8466 0.66697 1.8452c-0.84749-0.73864-2.2159-1.4373-3.3183-1.8452" style="fill:#1c1c19"/>
  <path id="path34927" d="m181.84 139.18h-42.613" style="fill:none;stroke-miterlimit:10;stroke-width:.42122;stroke:#1c1c19"/>
  <path id="path34929" d="m184.38 139.18c-1.1961-0.44372-2.6803-1.2016-3.6008-2.0036l0.72485 2.0036-0.72485 2.0037c0.92053-0.802 2.4047-1.5599 3.6008-2.0037" style="fill:#1c1c19"/>
  <path id="path34931" d="m148.82 152.15v2.5122" style="fill:none;stroke-miterlimit:10;stroke-width:.42122;stroke:#1c1c19"/>
  <path id="path34933" d="m158.26 152.15v2.5122" style="fill:none;stroke-miterlimit:10;stroke-width:.42122;stroke:#1c1c19"/>
  <path id="path34935" d="m167.69 152.15v2.5122" style="fill:none;stroke-miterlimit:10;stroke-width:.42122;stroke:#1c1c19"/>
  <path id="path34937" d="m177.13 152.15v2.5122" style="fill:none;stroke-miterlimit:10;stroke-width:.42122;stroke:#1c1c19"/>
  <path id="path34939" d="m137.8 143.52h2.5122" style="fill:none;stroke-miterlimit:10;stroke-width:.42122;stroke:#1c1c19"/>
  <path id="path34941" d="m137.8 134.09h2.5122" style="fill:none;stroke-miterlimit:10;stroke-width:.42122;stroke:#1c1c19"/>
  <path id="path34943" d="m137.8 124.65h2.5122" style="fill:none;stroke-miterlimit:10;stroke-width:.42122;stroke:#1c1c19"/>
  <path id="path34945" d="m137.8 115.22h2.5122" style="fill:none;stroke-miterlimit:10;stroke-width:.42122;stroke:#1c1c19"/>
  <g id="use34947" transform="matrix(.35278 0 0 .35278 141.71 110.93)" style="fill:#1c1c19">
   <path id="path42147" d="m0.10938-6.2344 2.3125 5.75c0.046875 0.14062 0.078125 0.23438 0.078125 0.29688s-0.03125 0.15625-0.09375 0.26562c-0.25 0.57812-0.64062 1.0156-0.95312 1.2656-0.32812 0.28125-0.70312 0.45312-0.98438 0.54688l0.28125 0.95312c0.28125-0.046875 0.82812-0.23438 1.3906-0.73438 0.76562-0.67188 1.3281-1.7656 2.1406-3.9062l1.7031-4.4375h-1.2031l-1.2344 3.6562c-0.15625 0.45312-0.28125 0.92188-0.40625 1.2969h-0.015625c-0.10938-0.375-0.26562-0.85938-0.40625-1.2656l-1.3594-3.6875z"/>
  </g>
  <g id="use34951" transform="matrix(.35278 0 0 .35278 182.78 149.71)" style="fill:#1c1c19">
   <path id="path42151" d="m0.20312-6.2344 2.1094 3.0469-2.2031 3.1875h1.25l0.89062-1.4062c0.23438-0.375 0.45312-0.70312 0.65625-1.0781h0.03125c0.21875 0.375 0.42188 0.71875 0.67188 1.0781l0.92188 1.4062h1.2812l-2.1875-3.2188 2.125-3.0156h-1.2188l-0.89062 1.3281c-0.20312 0.32812-0.40625 0.65625-0.60938 1.0312h-0.046875c-0.20312-0.35938-0.39062-0.67188-0.625-1.0156l-0.89062-1.3438z"/>
  </g>
  <g id="use34955" transform="matrix(.35278 0 0 .35278 135.01 157.89)" style="fill:#1c1c19">
   <path id="path42155" d="m3.375-8.5156c-1.7031 0-2.9062 1.5469-2.9062 4.3594 0.015625 2.7656 1.125 4.2969 2.7656 4.2969 1.8594 0 2.9219-1.5781 2.9219-4.4219 0-2.6719-1.0156-4.2344-2.7812-4.2344zm-0.0625 0.875c1.1719 0 1.7031 1.3438 1.7031 3.4062 0 2.1406-0.5625 3.5-1.7188 3.5-1.0312 0-1.7031-1.2344-1.7031-3.4219 0-2.2812 0.71875-3.4844 1.7188-3.4844z"/>
  </g>
  <path id="path34959" d="m168.11 139.18c0 0.4644-0.37758 0.84063-0.84198 0.84063s-0.84198-0.37623-0.84198-0.84063 0.37758-0.84197 0.84198-0.84197 0.84198 0.37757 0.84198 0.84197" style="fill:#26338a"/>
  <path id="path34961" d="m140.06 139.18c0 0.4644-0.3762 0.84063-0.8406 0.84063-0.46578 0-0.84198-0.37623-0.84198-0.84063s0.3762-0.84197 0.84198-0.84197c0.4644 0 0.8406 0.37757 0.8406 0.84197" style="fill:#26338a"/>
 </g>
</svg>
