<svg id="svg12061" version="1.1" viewBox="0 0 134.99 95.129" xmlns="http://www.w3.org/2000/svg">
 <title id="title12264">img_57</title>
 <g id="layer1" transform="translate(-27.756 -56.001)">
  <g id="g7494" transform="matrix(.35278 0 0 .35278 -41.274 -557.08)" style="fill:#1c1c19">
   <g id="use7492" transform="translate(283.59 1765.9)">
    <path id="path11900" d="m5.8594-3.0625-2.7188 3.0625h-3.6094l5.0469-5.5781-2.7656-5.3125h3.125l1.5781 3.1094 2.7656-3.1094h3.5781l-5.0625 5.6562 2.75 5.2344h-3.125z"/>
   </g>
  </g>
  <path id="path7496" d="m144.73 94.756c0.40101 0 0.514-0.52917 0.0524-0.52917-0.39963 0-0.51401 0.52917-0.0524 0.52917" style="fill:#7d7878"/>
  <path id="path7498" d="m95.249 71.973h-67.317v-15.795h67.317z" style="fill:none;stroke-miterlimit:10;stroke-width:.35278;stroke:#7d7878"/>
  <path id="path7500" d="m162.57 71.973h-67.319v-15.795h67.319z" style="fill:none;stroke-miterlimit:10;stroke-width:.35278;stroke:#7d7878"/>
  <path id="path7502" d="m95.249 87.77h-67.317v-15.796h67.317z" style="fill:none;stroke-miterlimit:10;stroke-width:.35278;stroke:#7d7878"/>
  <path id="path7504" d="m162.57 87.77h-67.319v-15.796h67.319z" style="fill:none;stroke-miterlimit:10;stroke-width:.35278;stroke:#7d7878"/>
  <path id="path7506" d="m95.249 103.56h-67.317v-15.796h67.317z" style="fill:none;stroke-miterlimit:10;stroke-width:.35278;stroke:#7d7878"/>
  <path id="path7508" d="m162.57 103.56h-67.319v-15.796h67.319z" style="fill:none;stroke-miterlimit:10;stroke-width:.35278;stroke:#7d7878"/>
  <path id="path7510" d="m95.249 119.36h-67.317v-15.796h67.317z" style="fill:none;stroke-miterlimit:10;stroke-width:.35278;stroke:#7d7878"/>
  <path id="path7512" d="m162.57 119.36h-67.319v-15.796h67.319z" style="fill:none;stroke-miterlimit:10;stroke-width:.35278;stroke:#7d7878"/>
  <path id="path7514" d="m162.57 135.16h-67.319v-15.795h67.319z" style="fill:none;stroke-miterlimit:10;stroke-width:.35278;stroke:#7d7878"/>
  <path id="path7516" d="m162.57 150.95h-67.319v-15.796h67.319z" style="fill:none;stroke-miterlimit:10;stroke-width:.35278;stroke:#7d7878"/>
  <path id="path7518" d="m95.249 150.95h-67.317v-15.796h67.317z" style="fill:none;stroke-miterlimit:10;stroke-width:.35278;stroke:#7d7878"/>
  <path id="path7520" d="m95.249 135.16h-67.317v-15.795h67.317z" style="fill:none;stroke-miterlimit:10;stroke-width:.35278;stroke:#7d7878"/>
  <g id="g7524" transform="matrix(.35278 0 0 .35278 -41.274 -557.08)" style="fill:#1c1c19">
   <g id="use7522" transform="translate(473.57 1764.4)">
    <path id="path11904" d="m1.75-10.891h2.9375l0.73438 5.4219c0.1875 1.3984 0.28906 2.375 0.3125 2.9375 0.38281-1.1133 0.91016-2.2891 1.5781-3.5312l2.6094-4.8281h3.1094l-6.7188 11.953c-0.5625 0.98828-1.0078 1.6797-1.3281 2.0781-0.3125 0.40625-0.69531 0.71875-1.1406 0.9375-0.44922 0.22656-0.98438 0.34375-1.6094 0.34375s-1.3242-0.10938-2.0938-0.32812l0.25-2.2031c0.35156 0.10156 0.69531 0.15625 1.0312 0.15625 0.90625 0 1.6484-0.68359 2.2344-2.0469z"/>
   </g>
  </g>
  <g id="g7532" transform="matrix(.35278 0 0 .35278 -41.274 -557.08)" style="fill:#7d7878">
   <g id="use7526" transform="translate(278.65 1810.6)">
    <path id="path11908" d="m0.71875-7.2656v1.5469h5.9219v-1.5469z"/>
   </g>
   <g id="use7528" transform="translate(286.14 1810.6)">
    <path id="path11912" d="m1.0156-0.79688c0.76562 0.51562 2.2969 1.0625 4.0469 1.0625 3.75 0 5.6875-2.1875 5.6875-4.6875 0-2.1719-1.5625-3.625-3.4844-4v-0.046875c1.9219-0.70312 2.8906-2.0625 2.8906-3.6719 0-1.9062-1.3906-3.7188-4.4688-3.7188-1.6719 0-3.2656 0.59375-4.0781 1.2031l0.54688 1.5312c0.67188-0.48438 1.875-1.0312 3.125-1.0312 1.9375 0 2.7344 1.0938 2.7344 2.3438 0 1.8594-1.9375 2.6406-3.4844 2.6406h-1.1719v1.5938h1.1719c2.0469 0 4.0156 0.9375 4.0312 3.1094 0.03125 1.2969-0.8125 3.0312-3.5156 3.0312-1.4688 0-2.8594-0.60938-3.4688-0.98438z"/>
   </g>
   <g id="use7530" transform="translate(298.57 1810.6)"></g>
  </g>
  <g id="g7536" transform="matrix(.35278 0 0 .35278 -41.274 -557.08)" style="fill:#7d7878">
   <g id="use7534" transform="translate(469.64 1810.6)">
    <path id="path11920" d="m1.375-15.594v1.75h7.625v0.04687l-6.7656 13.797h2.1875l6.7812-14.203v-1.3906z"/>
   </g>
  </g>
  <g id="g7544" transform="matrix(.35278 0 0 .35278 -41.274 -557.08)" style="fill:#7d7878">
   <g id="use7538" transform="translate(278.65 1856.8)">
    <path id="path11924" d="m0.71875-7.2656v1.5469h5.9219v-1.5469z"/>
   </g>
   <g id="use7540" transform="translate(286.14 1856.8)">
    <path id="path11928" d="m11.047 0v-1.75h-7.0156v-0.046875l1.25-1.1562c3.2812-3.1719 5.375-5.5 5.375-8.375 0-2.2344-1.4219-4.5312-4.7812-4.5312-1.7969 0-3.3281 0.67188-4.4062 1.5781l0.67188 1.4844c0.71875-0.59375 1.8906-1.3125 3.3125-1.3125 2.3281 0 3.0938 1.4688 3.0938 3.0469-0.03125 2.3438-1.8281 4.3594-5.8125 8.1562l-1.6562 1.6094v1.2969z"/>
   </g>
   <g id="use7542" transform="translate(298.57 1856.8)"></g>
  </g>
  <g id="g7548" transform="matrix(.35278 0 0 .35278 -41.274 -557.08)" style="fill:#7d7878">
   <g id="use7546" transform="translate(469.64 1856.8)">
    <path id="path11936" d="m11.047 0v-1.75h-7.0156v-0.046875l1.25-1.1562c3.2812-3.1719 5.375-5.5 5.375-8.375 0-2.2344-1.4219-4.5312-4.7812-4.5312-1.7969 0-3.3281 0.67188-4.4062 1.5781l0.67188 1.4844c0.71875-0.59375 1.8906-1.3125 3.3125-1.3125 2.3281 0 3.0938 1.4688 3.0938 3.0469-0.03125 2.3438-1.8281 4.3594-5.8125 8.1562l-1.6562 1.6094v1.2969z"/>
   </g>
  </g>
  <g id="g7554" transform="matrix(.35278 0 0 .35278 -41.274 -557.08)" style="fill:#7d7878">
   <g id="use7550" transform="translate(278.65 1901.9)">
    <path id="path11940" d="m0.71875-7.2656v1.5469h5.9219v-1.5469z"/>
   </g>
   <g id="use7552" transform="translate(286.14 1901.9)">
    <path id="path11944" d="m5.6562 0h2.0469v-15.594h-1.7969l-3.4062 1.8125 0.40625 1.6094 2.7031-1.4531h0.046875z"/>
   </g>
  </g>
  <g id="g7558" transform="matrix(.35278 0 0 .35278 -41.274 -557.08)" style="fill:#7d7878">
   <g id="use7556" transform="translate(282.85 1944.7)">
    <path id="path11948" d="m6.2812-15.859c-3.1562 0-5.4219 2.875-5.4219 8.1094 0.046875 5.1562 2.1094 8.0156 5.1719 8.0156 3.4531 0 5.4219-2.9219 5.4219-8.2344 0-4.9688-1.875-7.8906-5.1719-7.8906zm-0.10938 1.625c2.1875 0 3.1719 2.5156 3.1719 6.3594 0 3.9844-1.0469 6.5-3.2031 6.5-1.9219 0-3.1719-2.2969-3.1719-6.3594 0-4.2344 1.3438-6.5 3.2031-6.5z"/>
   </g>
  </g>
  <g id="g7562" transform="matrix(.35278 0 0 .35278 -41.274 -557.08)" style="fill:#7d7878">
   <g id="use7560" transform="translate(282.44 1990.5)">
    <path id="path11952" d="m5.6562 0h2.0469v-15.594h-1.7969l-3.4062 1.8125 0.40625 1.6094 2.7031-1.4531h0.046875z"/>
   </g>
  </g>
  <g id="g7568" transform="matrix(.35278 0 0 .35278 -41.274 -557.08)" style="fill:#7d7878">
   <g id="use7564" transform="translate(464.26 1943.7)">
    <path id="path11956" d="m0.71875-7.2656v1.5469h5.9219v-1.5469z"/>
   </g>
   <g id="use7566" transform="translate(471.75 1943.7)">
    <path id="path11960" d="m11.047 0v-1.75h-7.0156v-0.046875l1.25-1.1562c3.2812-3.1719 5.375-5.5 5.375-8.375 0-2.2344-1.4219-4.5312-4.7812-4.5312-1.7969 0-3.3281 0.67188-4.4062 1.5781l0.67188 1.4844c0.71875-0.59375 1.8906-1.3125 3.3125-1.3125 2.3281 0 3.0938 1.4688 3.0938 3.0469-0.03125 2.3438-1.8281 4.3594-5.8125 8.1562l-1.6562 1.6094v1.2969z"/>
   </g>
  </g>
  <g id="g7574" transform="matrix(.35278 0 0 .35278 -41.274 -557.08)" style="fill:#7d7878">
   <g id="use7570" transform="translate(464.79 1990.5)">
    <path id="path11964" d="m0.71875-7.2656v1.5469h5.9219v-1.5469z"/>
   </g>
   <g id="use7572" transform="translate(472.28 1990.5)">
    <path id="path11968" d="m5.6562 0h2.0469v-15.594h-1.7969l-3.4062 1.8125 0.40625 1.6094 2.7031-1.4531h0.046875z"/>
   </g>
  </g>
  <g id="g7580" transform="matrix(.35278 0 0 .35278 -41.274 -557.08)" style="fill:#7d7878">
   <g id="use7576" transform="translate(464.26 1901.9)">
    <path id="path11972" d="m0.71875-7.2656v1.5469h5.9219v-1.5469z"/>
   </g>
   <g id="use7578" transform="translate(471.75 1901.9)">
    <path id="path11976" d="m5.6562 0h2.0469v-15.594h-1.7969l-3.4062 1.8125 0.40625 1.6094 2.7031-1.4531h0.046875z"/>
   </g>
  </g>
 </g>
</svg>
