<?xml version="1.0" encoding="utf-8"?>
<!-- Generator: Adobe Illustrator 23.0.6, SVG Export Plug-In . SVG Version: 6.00 Build 0)  -->
<svg version="1.1" id="Layer_1" xmlns="http://www.w3.org/2000/svg" xmlns:xlink="http://www.w3.org/1999/xlink" x="0px" y="0px"
	 viewBox="0 0 229 34.5" style="enable-background:new 0 0 229 34.5;" xml:space="preserve">
<style type="text/css">
	.st0{fill:none;stroke:#000000;stroke-linecap:square;stroke-miterlimit:10;}
</style>
<title>img_7</title>
<g>
	<g id="Layer_1-2">
		<g id="Formula2">
			<g>
				<g>
					<path d="M15.5,23.5l1.5-8.3h1.3l-0.2,1.3c0.3-0.5,0.7-0.8,1.1-1.2c0.3-0.2,0.6-0.3,1-0.3c0.5,0,1,0.2,1.4,0.5l-0.7,1.3
						c-0.3-0.2-0.6-0.3-1-0.3c-0.3,0-0.6,0.1-0.9,0.3c-0.3,0.2-0.5,0.5-0.7,0.8c-0.3,0.5-0.4,1.1-0.5,1.6l-0.8,4.4H15.5z"/>
					<path d="M24.5,15.1h9.3v1.3h-9.3V15.1z M33.8,19.8h-9.3v-1.3h9.3V19.8z"/>
					<line class="st0" x1="40.5" y1="18.5" x2="106.5" y2="18.5"/>
					<path d="M47.9,11.5l0.2-1.1c-0.6,0.8-1.6,1.2-2.5,1.2c-0.6,0-1.2-0.2-1.7-0.5c-0.5-0.4-0.8-0.9-1-1.5c-0.2-0.7-0.2-1.5,0-2.3
						c0.1-0.8,0.4-1.6,0.8-2.3c0.4-0.6,0.9-1.2,1.5-1.6c0.6-0.4,1.3-0.5,2-0.5c0.4,0,0.9,0.1,1.3,0.3c0.3,0.2,0.6,0.5,0.8,0.8
						L50.1,0h1.4l-2.2,11.5L47.9,11.5z M44.3,7.3C44,8.1,44.1,9,44.5,9.7c0.3,0.5,0.9,0.8,1.4,0.8c0.6,0,1.3-0.3,1.7-0.8
						c0.6-0.6,1-1.4,1.1-2.3c0.2-0.8,0.2-1.7-0.2-2.5c-0.3-0.5-0.9-0.8-1.5-0.8c-0.7,0-1.3,0.3-1.7,0.8C44.7,5.6,44.4,6.4,44.3,7.3
						L44.3,7.3z"/>
					<path d="M51.6,11.5l1.5-8.3h1.4l-1.6,8.3H51.6z M53.4,1.6L53.7,0h1.4l-0.3,1.6H53.4z"/>
					<path d="M62.4,3.4c0.3,0.4,0.2,1.7-0.2,3.9c-0.2,1.1-0.6,2.1-1.3,3c-0.6,0.8-1.6,1.2-2.6,1.2c-0.9,0-1.7-0.4-2.1-1.1
						c-0.5-0.9-0.7-2-0.6-3c0.2-1.3,0.8-2.5,1.8-3.4c0.7-0.7,1.7-1.1,2.7-1.1C61.4,2.8,62.1,3.1,62.4,3.4 M60,4.2
						c-0.7,0-1.4,0.2-1.9,0.7c-0.6,0.7-1.1,1.5-1.2,2.4c-0.2,0.7-0.1,1.4,0.3,2c0.3,0.5,0.7,0.7,1.2,0.8c0.5,0.1,1-0.1,1.4-0.4
						c0.4-0.7,0.7-1.5,0.8-2.4c0.5-1.9,0.6-2.8,0.3-3C60.8,4.2,60.4,4.2,60,4.2 M60.9,7.3h1.4c-0.5,2.5-0.3,3.6,0.5,3.1l-0.2,1.1
						C61.2,12.2,60.6,10.8,60.9,7.3"/>
					<path d="M64.5,11.5l1.6-8.3h1.3l-0.2,1.2c0.3-0.4,0.8-0.8,1.2-1c0.5-0.2,1-0.4,1.5-0.4c0.5,0,1,0.1,1.4,0.4
						C71.7,3.6,71.9,4,72,4.4c0.7-0.9,1.7-1.4,2.8-1.5c0.7-0.1,1.3,0.2,1.8,0.7C77,4.3,77.1,5,76.9,5.7l-1.1,5.7h-1.4l1-5.2
						c0.1-0.4,0.1-0.8,0.1-1.2c0-0.2-0.2-0.5-0.4-0.6c-0.2-0.2-0.5-0.2-0.8-0.2c-0.6,0-1.1,0.2-1.6,0.6c-0.5,0.5-0.8,1.2-0.9,1.9
						l-0.9,4.8h-1.4l1-5.4c0.1-0.5,0.1-1-0.1-1.4c-0.2-0.3-0.6-0.5-1-0.5c-0.4,0-0.8,0.1-1.2,0.3c-0.4,0.2-0.7,0.5-0.9,0.9
						c-0.3,0.5-0.5,1.1-0.5,1.7L66,11.4L64.5,11.5z"/>
					<path d="M83.7,8.8L85.1,9c-0.3,0.8-0.9,1.5-1.7,2c-0.7,0.5-1.6,0.7-2.5,0.7c-1,0.1-2-0.3-2.7-1.1c-0.6-0.9-0.8-2.1-0.5-3.1
						C78,6.2,78.6,5,79.5,4.1c0.8-0.8,1.9-1.2,3-1.2c1-0.1,1.9,0.4,2.5,1.1c0.6,1,0.8,2.1,0.5,3.2c0,0.1,0,0.2-0.1,0.4h-6.2
						c-0.2,0.7,0,1.5,0.4,2.1c0.4,0.5,1,0.8,1.6,0.7c0.5,0,1-0.1,1.4-0.4C83.1,9.8,83.5,9.3,83.7,8.8z M79.5,6.5h4.6
						c0.1-0.5,0-1.1-0.2-1.6c-0.3-0.5-1-0.9-1.6-0.8c-0.6,0-1.3,0.2-1.8,0.6C80.1,5.2,79.7,5.8,79.5,6.5L79.5,6.5z"/>
					<path d="M89.9,10.2v1.2c-0.4,0.1-0.7,0.1-1.1,0.1c-0.4,0-0.8-0.1-1.1-0.3c-0.2-0.1-0.4-0.4-0.5-0.6c-0.1-0.6,0-1.1,0.1-1.7
						l0.9-4.8h-1l0.2-1.1h1l0.4-2.1l1.6-0.8l-0.5,2.9h1.4L91,4.3h-1.4l-0.9,4.9c-0.1,0.3-0.1,0.5-0.1,0.8c0,0.1,0.1,0.2,0.2,0.3
						c0.1,0.1,0.3,0.1,0.5,0.1C89.5,10.2,89.7,10.2,89.9,10.2z"/>
					<path d="M96.7,8.8L98.2,9c-0.3,0.8-0.9,1.5-1.7,2c-0.7,0.5-1.6,0.7-2.5,0.7c-1,0.1-2-0.3-2.7-1.1c-0.6-0.9-0.8-2.1-0.5-3.1
						C91,6.2,91.6,5,92.5,4.1c0.8-0.8,1.9-1.2,3-1.2c1-0.1,1.9,0.4,2.5,1.1c0.6,1,0.8,2.1,0.5,3.2c0,0.1,0,0.2-0.1,0.4h-6.2
						c-0.2,0.7,0,1.5,0.4,2.1c0.4,0.5,1,0.8,1.6,0.7c0.5,0,1-0.1,1.4-0.4C96.1,9.8,96.5,9.3,96.7,8.8z M92.6,6.5h4.6
						c0.1-0.5,0-1.1-0.2-1.6c-0.3-0.5-1-0.9-1.6-0.8c-0.6,0-1.3,0.2-1.8,0.6C93.1,5.2,92.7,5.8,92.6,6.5L92.6,6.5z"/>
					<path d="M99.5,11.5l1.5-8.3h1.3l-0.2,1.3c0.3-0.5,0.7-0.8,1.1-1.2c0.3-0.2,0.6-0.3,1-0.3c0.5,0,1,0.2,1.4,0.5l-0.7,1.3
						c-0.3-0.2-0.6-0.3-1-0.3c-0.3,0-0.6,0.1-0.9,0.3c-0.3,0.2-0.5,0.5-0.7,0.8c-0.3,0.5-0.4,1.1-0.5,1.6l-0.8,4.4H99.5z"/>
				</g>
			</g>
			<path d="M76.6,33.1v1.4H69c0-0.3,0-0.7,0.2-1c0.2-0.6,0.5-1.1,0.9-1.5c0.6-0.6,1.2-1.2,1.8-1.7c0.9-0.7,1.8-1.5,2.5-2.4
				c0.4-0.5,0.6-1.1,0.7-1.7c0-0.5-0.2-1-0.6-1.4c-0.4-0.4-1-0.6-1.6-0.6c-0.6,0-1.2,0.2-1.6,0.6c-0.4,0.5-0.6,1.1-0.6,1.7l-1.4-0.1
				c0-0.9,0.4-1.8,1.1-2.5c0.7-0.6,1.7-0.9,2.6-0.9c1-0.1,1.9,0.3,2.6,0.9c0.6,0.6,1,1.4,1,2.3c0,0.5-0.1,0.9-0.3,1.4
				c-0.2,0.5-0.5,1-0.9,1.4c-0.7,0.7-1.4,1.4-2.2,2c-0.6,0.5-1.1,0.9-1.6,1.4c-0.2,0.2-0.4,0.5-0.6,0.8L76.6,33.1z"/>
			<g>
				<g>
					<path d="M112.5,15.1h9.3v1.3h-9.3V15.1z M121.8,19.8h-9.3v-1.3h9.3V19.8z"/>
					<line class="st0" x1="128.5" y1="18.5" x2="175.5" y2="18.5"/>
				</g>
			</g>
			<path d="M135.5,12.5H134v-9c-0.4,0.4-0.8,0.7-1.3,1c-0.5,0.3-1,0.5-1.5,0.7V3.9c0.7-0.3,1.4-0.8,2.1-1.3c0.5-0.4,0.9-0.9,1.3-1.5
				h0.9L135.5,12.5z"/>
			<path d="M139.1,6.8c0-1.1,0.1-2.2,0.4-3.3c0.2-0.7,0.7-1.4,1.2-1.9c0.6-0.5,1.3-0.7,2.1-0.7c0.6,0,1.1,0.1,1.6,0.4
				c0.5,0.3,0.9,0.6,1.1,1.1c0.3,0.5,0.6,1.1,0.7,1.7c0.2,0.9,0.3,1.8,0.3,2.7c0,1.1-0.1,2.2-0.4,3.3c-0.2,0.7-0.7,1.4-1.2,1.9
				c-0.6,0.5-1.3,0.7-2.1,0.7c-1,0-2-0.4-2.6-1.2C139.4,10.1,139,8.5,139.1,6.8z M140.6,6.8c-0.1,1.3,0.1,2.6,0.7,3.8
				c0.5,0.9,1.7,1.2,2.6,0.7c0.3-0.2,0.5-0.4,0.7-0.7c0.9-2.4,0.9-5.1,0-7.5c-0.4-0.6-1-0.9-1.7-0.9c-0.6,0-1.2,0.3-1.5,0.8
				C140.7,4.1,140.5,5.5,140.6,6.8z"/>
			<g>
				<g>
					<path d="M158.5,9.4l1.3,0.2c-0.3,0.9-0.8,1.7-1.6,2.2c-0.7,0.5-1.6,0.8-2.5,0.8c-1,0.1-1.9-0.4-2.5-1.1c-0.6-1-0.7-2.1-0.4-3.2
						c0.1-0.8,0.4-1.6,0.9-2.4c0.4-0.6,1-1.2,1.6-1.5c0.6-0.3,1.4-0.5,2.1-0.5c0.8,0,1.5,0.2,2.1,0.7c0.5,0.5,0.8,1.2,0.7,1.9
						l-1.4,0.2c0-0.5-0.1-0.9-0.5-1.3c-0.3-0.3-0.7-0.4-1.1-0.4c-0.7,0-1.4,0.3-1.9,0.8c-0.6,0.7-1,1.5-1.1,2.4
						c-0.2,0.8-0.2,1.7,0.2,2.4c0.3,0.5,0.9,0.8,1.5,0.8c0.5,0,1.1-0.2,1.5-0.5C158,10.6,158.4,10,158.5,9.4z"/>
					<path d="M160.5,12.5l1.6-8.3h1.3l-0.2,1.2c0.3-0.4,0.7-0.8,1.2-1c0.5-0.2,1-0.4,1.5-0.4c0.5,0,1,0.1,1.4,0.4
						c0.3,0.3,0.6,0.6,0.6,1.1c0.7-0.9,1.7-1.4,2.8-1.4c0.7-0.1,1.3,0.2,1.8,0.7c0.4,0.6,0.5,1.4,0.3,2.1l-1.1,5.7h-1.4l1-5.2
						c0.1-0.4,0.1-0.8,0.1-1.2c0-0.2-0.2-0.5-0.4-0.6c-0.2-0.2-0.5-0.2-0.8-0.2c-0.6,0-1.1,0.2-1.6,0.6c-0.5,0.5-0.8,1.2-0.9,1.9
						l-0.9,4.8h-1.4l1-5.4c0.1-0.5,0.1-1-0.1-1.4c-0.2-0.3-0.6-0.5-1-0.5c-0.9,0-1.7,0.5-2.1,1.2c-0.3,0.5-0.5,1.1-0.5,1.7l-0.8,4.3
						L160.5,12.5z"/>
				</g>
			</g>
			<path d="M155.6,33.1v1.4H148c0-0.3,0-0.7,0.2-1c0.2-0.6,0.5-1.1,0.9-1.5c0.6-0.6,1.2-1.2,1.8-1.7c0.9-0.7,1.8-1.5,2.5-2.4
				c0.4-0.5,0.6-1.1,0.7-1.7c0-0.5-0.2-1-0.6-1.4c-0.4-0.4-1-0.6-1.6-0.6c-0.6,0-1.2,0.2-1.6,0.6c-0.4,0.5-0.6,1.1-0.6,1.7l-1.4-0.1
				c0-0.9,0.4-1.8,1.1-2.5c0.7-0.6,1.7-0.9,2.6-0.9c1-0.1,1.9,0.3,2.6,0.9c0.6,0.6,1,1.4,1,2.3c0,0.5-0.1,0.9-0.3,1.4
				c-0.2,0.5-0.5,1-0.9,1.4c-0.7,0.7-1.4,1.4-2.2,2c-0.6,0.5-1.1,0.9-1.6,1.4c-0.2,0.2-0.4,0.5-0.6,0.8L155.6,33.1z"/>
			<g>
				<g>
					<path d="M181.5,15.1h9.3v1.3h-9.3V15.1z M190.8,19.8h-9.3v-1.3h9.3V19.8z"/>
				</g>
			</g>
			<path d="M195.2,20.5l1.5-0.1c0.1,0.6,0.3,1.2,0.8,1.6c0.4,0.4,0.9,0.6,1.4,0.5c0.7,0,1.3-0.3,1.7-0.8c0.5-0.6,0.7-1.3,0.7-2
				c0-0.7-0.2-1.4-0.7-1.9c-0.5-0.5-1.1-0.7-1.8-0.7c-0.4,0-0.9,0.1-1.2,0.3c-0.3,0.2-0.6,0.5-0.9,0.8l-1.3-0.2l1.1-5.9h5.7v1.4
				h-4.6l-0.6,3.1c0.6-0.5,1.4-0.7,2.2-0.7c0.9,0,1.9,0.3,2.5,1c0.7,0.7,1,1.7,1,2.7c0,1-0.3,1.9-0.9,2.7c-0.7,0.9-1.8,1.4-3,1.4
				c-0.9,0-1.8-0.3-2.5-0.9C195.6,22.2,195.2,21.4,195.2,20.5z"/>
			<rect x="227" y="21.5" width="2" height="2"/>
			<path d="M210.5,20.4l1.3,0.2c-0.3,0.9-0.8,1.7-1.6,2.2c-0.7,0.5-1.6,0.8-2.5,0.8c-1,0.1-1.9-0.4-2.5-1.1c-0.6-1-0.7-2.1-0.4-3.2
				c0.1-0.8,0.4-1.6,0.9-2.4c0.4-0.6,1-1.2,1.6-1.5c0.6-0.3,1.4-0.5,2.1-0.5c0.8,0,1.5,0.2,2.1,0.7c0.5,0.5,0.8,1.2,0.7,1.9
				l-1.4,0.2c0-0.5-0.2-0.9-0.5-1.3c-0.3-0.3-0.7-0.4-1.1-0.4c-0.7,0-1.4,0.3-1.9,0.8c-0.6,0.7-1,1.5-1.1,2.4
				c-0.2,0.8-0.2,1.7,0.2,2.4c0.3,0.5,0.9,0.8,1.5,0.8c0.5,0,1.1-0.2,1.5-0.5C210,21.6,210.4,21,210.5,20.4z"/>
			<path d="M212.5,23.5l1.6-8.3h1.3l-0.2,1.2c0.3-0.4,0.8-0.8,1.2-1c0.5-0.2,1-0.4,1.5-0.4c0.5,0,1,0.1,1.4,0.4
				c0.3,0.3,0.6,0.7,0.6,1.1c0.7-0.9,1.7-1.4,2.8-1.5c0.7-0.1,1.3,0.2,1.8,0.7c0.4,0.6,0.5,1.4,0.3,2.1l-1.1,5.7h-1.4l1-5.2
				c0.1-0.4,0.1-0.8,0.1-1.2c0-0.2-0.2-0.5-0.4-0.6c-0.2-0.2-0.5-0.2-0.8-0.2c-0.6,0-1.1,0.2-1.6,0.6c-0.5,0.5-0.8,1.2-0.9,1.9
				l-0.9,4.8h-1.4l1-5.4c0.1-0.5,0.1-1-0.1-1.4c-0.2-0.3-0.6-0.5-1-0.5c-0.4,0-0.8,0.1-1.2,0.3c-0.4,0.2-0.7,0.5-0.9,0.9
				c-0.3,0.5-0.5,1.1-0.5,1.7l-0.8,4.3L212.5,23.5z"/>
			<path d="M2.2,9.4l1.4-0.2C3.7,9.9,4,10.5,4.4,11c0.4,0.4,0.9,0.5,1.4,0.5c0.6,0,1.2-0.2,1.7-0.7c0.5-0.4,0.7-1.1,0.7-1.7
				c0-1.2-0.9-2.2-2.1-2.2c0,0-0.1,0-0.1,0c-0.3,0-0.7,0.1-1,0.2l0.2-1.2h0.2c0.6,0,1.1-0.2,1.6-0.5C7.4,5,7.7,4.5,7.7,3.9
				c0-0.5-0.2-0.9-0.5-1.3C6.8,2.3,6.3,2.1,5.8,2.1c-0.5,0-1,0.2-1.4,0.5C4,3,3.8,3.6,3.7,4.2L2.3,3.9c0.1-0.8,0.5-1.6,1.2-2.2
				C4.1,1.2,4.9,0.9,5.7,1c0.6,0,1.2,0.1,1.7,0.4C8,1.6,8.4,2,8.7,2.5c0.3,0.4,0.4,1,0.4,1.5c0,0.5-0.1,1-0.4,1.4
				C8.4,5.7,8,6.1,7.5,6.3c0.6,0.1,1.2,0.5,1.6,1c0.4,0.5,0.6,1.2,0.6,1.8c0,1-0.4,1.9-1.1,2.6c-0.8,0.7-1.7,1-2.8,1
				c-0.9,0-1.8-0.3-2.5-0.9C2.6,11.2,2.2,10.3,2.2,9.4z"/>
			<path d="M6.7,34.5v-2.8h-5v-1.3L6.9,23H8v7.4h1.5v1.3H8v2.8H6.7z M6.7,30.5v-5.2l-3.6,5.2H6.7z"/>
			<g>
				<g>
					<line class="st0" x1="0.5" y1="18.5" x2="12.5" y2="18.5"/>
				</g>
			</g>
		</g>
	</g>
</g>
</svg>
