<svg id="svg66287" version="1.1" viewBox="0 0 32.246 5.1263" xmlns="http://www.w3.org/2000/svg">
 <title id="title66403">img_42</title>
 <g id="layer1" transform="translate(-69.3 -88.907)">
  <g id="g53104" transform="matrix(.35278 0 0 .35278 45.564 -356.99)">
   <g id="use53102" transform="translate(65.815 1278.3)">
    <path id="path66208" d="m1.4688-14.312h5.7188c1.1328 0 1.9766 0.04687 2.5312 0.14062 0.5625 0.09375 1.0625 0.29297 1.5 0.59375 0.4375 0.29297 0.80078 0.6875 1.0938 1.1875 0.28906 0.5 0.4375 1.0586 0.4375 1.6719 0 0.67969-0.18359 1.2969-0.54688 1.8594-0.35547 0.55469-0.83984 0.96875-1.4531 1.25 0.86328 0.25 1.5312 0.68359 2 1.2969 0.46875 0.61719 0.70312 1.3359 0.70312 2.1562 0 0.65625-0.15234 1.293-0.45312 1.9062-0.30469 0.61719-0.71484 1.1094-1.2344 1.4844-0.52344 0.36719-1.168 0.58984-1.9375 0.67188-0.48047 0.054688-1.6406 0.085938-3.4844 0.09375h-4.875zm2.8906 2.375v3.3125h1.8906c1.125 0 1.8203-0.015625 2.0938-0.046875 0.5-0.0625 0.89062-0.23438 1.1719-0.51562s0.42188-0.64844 0.42188-1.1094c0-0.44531-0.125-0.80469-0.375-1.0781-0.24219-0.28125-0.60156-0.45312-1.0781-0.51562-0.28125-0.03125-1.1055-0.04687-2.4688-0.04687zm0 5.7031v3.8281h2.6719c1.0391 0 1.7031-0.03125 1.9844-0.09375 0.42578-0.082031 0.77344-0.27344 1.0469-0.57812 0.26953-0.30078 0.40625-0.70312 0.40625-1.2031 0-0.4375-0.10547-0.80078-0.3125-1.0938-0.21094-0.30078-0.51172-0.51953-0.90625-0.65625-0.39844-0.13281-1.25-0.20312-2.5625-0.20312z"/>
   </g>
  </g>
  <g id="use53106" transform="matrix(.35278 0 0 .35278 73.911 93.956)">
   <path id="path66212" d="m11.125-6.7344v-1.2031h-10.328v1.2031zm0 3.9219v-1.2031h-10.328v1.2031z"/>
  </g>
  <g id="use53108" transform="matrix(.35278 0 0 .35278 78.151 93.956)"></g>
  <g id="g66401">
   <g id="use53110" transform="matrix(.35278 0 0 .35278 79.682 93.956)">
    <path id="path66220" d="m1.5156-0.046875c0.57812 0.09375 1.5 0.17188 2.7031 0.17188 2.2031 0 3.7188-0.40625 4.6562-1.2656 0.6875-0.65625 1.1406-1.5469 1.1406-2.7031 0-2-1.5-3.0625-2.7812-3.375v-0.046875c1.4219-0.51562 2.2812-1.6562 2.2812-2.9531 0-1.0625-0.42188-1.8594-1.1094-2.375-0.84375-0.6875-1.9688-0.98438-3.7031-0.98438-1.2188 0-2.4219 0.125-3.1875 0.28125zm1.75-12.078c0.28125-0.0625 0.73438-0.10938 1.5312-0.10938 1.7656 0 2.9688 0.60938 2.9688 2.1875 0 1.3125-1.0781 2.2656-2.9219 2.2656h-1.5781zm0 5.6719h1.4375c1.8906 0 3.4844 0.75 3.4844 2.5938 0 1.9531-1.6719 2.625-3.4688 2.625-0.625 0-1.125-0.03125-1.4531-0.078125z"/>
   </g>
   <g id="use53112" transform="matrix(.35278 0 0 .35278 83.542 93.956)">
    <path id="path66224" d="m1.4531 0h1.75v-5.1562c0-0.29688 0.03125-0.57812 0.078125-0.82812 0.23438-1.3125 1.125-2.25 2.3594-2.25 0.23438 0 0.42188 0.015625 0.59375 0.046875v-1.6562c-0.15625-0.03125-0.29688-0.0625-0.5-0.0625-1.1719 0-2.2344 0.82812-2.6719 2.125h-0.078125l-0.0625-1.9062h-1.5469c0.0625 0.90625 0.078125 1.8906 0.078125 3.0312z"/>
   </g>
   <g id="g66375">
    <g id="g53126" transform="matrix(.35278 0 0 .35278 45.564 -356.99)">
     <g id="use53116" transform="translate(114.19 1278.3)">
      <path id="path66228" d="m8.4219 0c-0.125-0.65625-0.15625-1.4844-0.15625-2.3125v-3.625c0-1.9375-0.71875-3.9688-3.6875-3.9688-1.2188 0-2.375 0.34375-3.1719 0.85938l0.39062 1.1719c0.6875-0.4375 1.625-0.71875 2.5156-0.71875 1.9844 0 2.2031 1.4375 2.2031 2.2344v0.20312c-3.7344-0.03125-5.8125 1.25-5.8125 3.5938 0 1.4062 1 2.7812 2.9531 2.7812 1.3906 0 2.4219-0.67188 2.9688-1.4375h0.0625l0.125 1.2188zm-1.8594-3.2656c0 0.1875-0.046875 0.39062-0.10938 0.5625-0.26562 0.82812-1.0781 1.625-2.3281 1.625-0.90625 0-1.6719-0.54688-1.6719-1.6875 0-1.875 2.1875-2.2188 4.1094-2.1719z"/>
     </g>
     <g id="use53118" transform="translate(123.93 1278.3)">
      <path id="path66232" d="m8.0625-1.6875c-0.5 0.23438-1.1562 0.48438-2.1562 0.48438-1.9219 0-3.3594-1.375-3.3594-3.6094 0-2.0312 1.1875-3.6719 3.4062-3.6719 0.96875 0 1.625 0.21875 2.0469 0.46875l0.40625-1.3594c-0.48438-0.25-1.4062-0.5-2.4531-0.5-3.1562 0-5.1875 2.1562-5.1875 5.1406 0 2.9531 1.8906 4.9375 4.8125 4.9375 1.2969 0 2.3281-0.32812 2.7812-0.5625z"/>
     </g>
     <g id="use53120" transform="translate(132.99 1278.3)">
      <path id="path66236" d="m3.2031-14.203h-1.75v14.203h1.75v-3.6406l0.89062-1 3.3438 4.6406h2.1406l-4.2656-5.7031 3.75-3.9844h-2.125l-2.8438 3.3438c-0.28125 0.34375-0.60938 0.76562-0.85938 1.1094h-0.03125z"/>
     </g>
     <g id="use53122" transform="translate(142.47 1278.3)">
      <path id="path66240" d="m9.2344-4.5156c0.03125-0.1875 0.0625-0.46875 0.0625-0.82812 0-1.7812-0.84375-4.5625-4-4.5625-2.8125 0-4.5312 2.3125-4.5312 5.2188 0 2.9219 1.7812 4.8906 4.75 4.8906 1.5469 0 2.6094-0.32812 3.2188-0.60938l-0.29688-1.25c-0.65625 0.28125-1.4219 0.5-2.6719 0.5-1.7656 0-3.2812-0.98438-3.3281-3.3594zm-6.7812-1.2656c0.14062-1.2188 0.92188-2.8594 2.7031-2.8594 1.9844 0 2.4688 1.7344 2.4375 2.8594z"/>
     </g>
     <g id="use53124" transform="translate(152.59 1278.3)">
      <path id="path66244" d="m1.8594-12v2.3125h-1.5v1.3438h1.5v5.2812c0 1.1406 0.1875 2 0.6875 2.5156 0.40625 0.48438 1.0781 0.75 1.8906 0.75 0.6875 0 1.2188-0.10938 1.5625-0.25l-0.078125-1.3125c-0.21875 0.0625-0.5625 0.125-1.0156 0.125-0.98438 0-1.3281-0.6875-1.3281-1.8906v-5.2188h2.5156v-1.3438h-2.5156v-2.7656z"/>
     </g>
    </g>
   </g>
  </g>
 </g>
</svg>
