<svg id="svg124609" version="1.1" viewBox="0 0 1.8687 1.8631" xmlns="http://www.w3.org/2000/svg">
 <title id="title124623">img_88</title>
 <g id="layer1" transform="translate(-125.31 -146.48)">
  <g id="use114539" transform="matrix(.35278 0 0 .35278 125.11 151.31)" style="fill:#7d7878">
   <path id="path124587" d="m3.2344-13.703c-1.4688 0-2.6719 1.1562-2.6562 2.7031 0 1.4062 1.0625 2.5781 2.625 2.5781 1.375 0 2.6719-1.0625 2.6719-2.6719 0-1.3594-1-2.6094-2.6406-2.6094zm-0.015625 0.9375c1.1406 0 1.5781 0.95312 1.5781 1.6875 0 0.98438-0.67188 1.7188-1.5781 1.7188-0.875 0-1.5625-0.71875-1.5625-1.6406 0-0.85938 0.53125-1.7656 1.5625-1.7656z"/>
  </g>
 </g>
</svg>
