<svg id="svg66693" version="1.1" viewBox="0 0 32.24 5.1263" xmlns="http://www.w3.org/2000/svg">
 <title id="title66805">img_44</title>
 <g id="layer1" transform="translate(-66.279 -160.72)">
  <g id="use53420" transform="matrix(.35278 0 0 .35278 65.766 165.77)">
   <path id="path66615" d="m1.4531-14.312h5.2812c1.1875 0 2.0938 0.08984 2.7188 0.26562 0.84375 0.25 1.5625 0.69531 2.1562 1.3281 0.60156 0.625 1.0625 1.3984 1.375 2.3125 0.3125 0.91797 0.46875 2.0469 0.46875 3.3906 0 1.1797-0.14844 2.1953-0.4375 3.0469-0.36719 1.043-0.88281 1.8828-1.5469 2.5156-0.5 0.49219-1.1797 0.875-2.0312 1.1562-0.63672 0.19922-1.4844 0.29688-2.5469 0.29688h-5.4375zm2.8906 2.4219v9.4844h2.1562c0.80078 0 1.3828-0.046875 1.75-0.14062 0.46875-0.11328 0.85156-0.3125 1.1562-0.59375 0.3125-0.28125 0.5625-0.73828 0.75-1.375 0.19531-0.64453 0.29688-1.5234 0.29688-2.6406 0-1.1016-0.10156-1.9531-0.29688-2.5469-0.1875-0.59375-0.46094-1.0508-0.8125-1.375-0.35547-0.33203-0.79688-0.5625-1.3281-0.6875-0.40625-0.08203-1.1992-0.125-2.375-0.125z"/>
  </g>
  <g id="use53424" transform="matrix(.35278 0 0 .35278 70.895 165.77)">
   <path id="path66619" d="m11.125-6.7344v-1.2031h-10.328v1.2031zm0 3.9219v-1.2031h-10.328v1.2031z"/>
  </g>
  <g id="g66803">
   <g id="use53426" transform="matrix(.35278 0 0 .35278 75.136 165.77)">
    <path id="path66623" d="m1.5156-0.046875c0.89062 0.10938 1.9219 0.17188 3.1719 0.17188 2.6094 0 4.6875-0.6875 5.9531-1.9375s1.9375-3.0469 1.9375-5.25c0-2.1719-0.70312-3.7344-1.8906-4.8438-1.1875-1.0938-2.9688-1.6719-5.4688-1.6719-1.375 0-2.6406 0.125-3.7031 0.28125zm1.75-11.969c0.45312-0.10938 1.1406-0.1875 2.0312-0.1875 3.6875 0 5.4844 2.0156 5.4688 5.2031 0 3.6406-2.0312 5.7188-5.75 5.7188-0.67188 0-1.3125-0.015625-1.75-0.09375z"/>
   </g>
   <g id="use53428" transform="matrix(.35278 0 0 .35278 79.87 165.77)">
    <path id="path66627" d="m3.2188 0v-9.6875h-1.7656v9.6875zm-0.875-13.5c-0.64062 0-1.1094 0.48438-1.1094 1.0938s0.45312 1.0938 1.0625 1.0938c0.70312 0 1.1406-0.48438 1.125-1.0938 0-0.60938-0.42188-1.0938-1.0781-1.0938z"/>
   </g>
   <g id="use53430" transform="matrix(.35278 0 0 .35278 81.556 165.77)">
    <path id="path66631" d="m0.26562-9.6875 3.6719 9.6875h1.6875l3.7969-9.6875h-1.8438l-1.875 5.4531c-0.32812 0.875-0.60938 1.6719-0.82812 2.4688h-0.0625c-0.1875-0.79688-0.45312-1.5938-0.76562-2.4688l-1.9062-5.4531z"/>
   </g>
   <g id="use53432" transform="matrix(.35278 0 0 .35278 84.985 165.77)">
    <path id="path66635" d="m3.2188 0v-9.6875h-1.7656v9.6875zm-0.875-13.5c-0.64062 0-1.1094 0.48438-1.1094 1.0938s0.45312 1.0938 1.0625 1.0938c0.70312 0 1.1406-0.48438 1.125-1.0938 0-0.60938-0.42188-1.0938-1.0781-1.0938z"/>
   </g>
   <g id="use53434" transform="matrix(.35278 0 0 .35278 86.672 165.77)">
    <path id="path66639" d="m0.78125-0.45312c0.67188 0.39062 1.6562 0.65625 2.7188 0.65625 2.2969 0 3.625-1.2031 3.625-2.9062 0-1.4375-0.85938-2.2812-2.5469-2.9219-1.2656-0.46875-1.8438-0.82812-1.8438-1.6406 0-0.71875 0.57812-1.3125 1.625-1.3125 0.90625 0 1.5938 0.3125 1.9844 0.5625l0.4375-1.2812c-0.54688-0.32812-1.4062-0.60938-2.375-0.60938-2.0938 0-3.3438 1.2812-3.3438 2.8438 0 1.1562 0.8125 2.125 2.5625 2.75 1.2969 0.46875 1.7969 0.9375 1.7969 1.7656 0 0.8125-0.60938 1.4531-1.875 1.4531-0.89062 0-1.8125-0.35938-2.3281-0.70312z"/>
   </g>
   <g id="use53436" transform="matrix(.35278 0 0 .35278 89.501 165.77)">
    <path id="path66643" d="m3.2188 0v-9.6875h-1.7656v9.6875zm-0.875-13.5c-0.64062 0-1.1094 0.48438-1.1094 1.0938s0.45312 1.0938 1.0625 1.0938c0.70312 0 1.1406-0.48438 1.125-1.0938 0-0.60938-0.42188-1.0938-1.0781-1.0938z"/>
   </g>
   <g id="use53438" transform="matrix(.35278 0 0 .35278 91.187 165.77)">
    <path id="path66647" d="m5.5625-9.9062c-2.6875 0-4.7969 1.9062-4.7969 5.1406 0 3.0625 2.0156 4.9844 4.6406 4.9844 2.3281 0 4.8125-1.5625 4.8125-5.1406 0-2.9531-1.875-4.9844-4.6562-4.9844zm-0.046875 1.3281c2.0781 0 2.9062 2.0781 2.9062 3.7188 0 2.1719-1.2656 3.7656-2.9375 3.7656-1.7188 0-2.9375-1.6094-2.9375-3.7188 0-1.8438 0.89062-3.7656 2.9688-3.7656z"/>
   </g>
   <g id="use53440" transform="matrix(.35278 0 0 .35278 95.096 165.77)">
    <path id="path66651" d="m1.4531 0h1.7656v-5.8125c0-0.3125 0.046875-0.60938 0.125-0.82812 0.29688-0.98438 1.2031-1.7969 2.3594-1.7969 1.6562 0 2.2344 1.2969 2.2344 2.8594v5.5781h1.7656v-5.7812c0-3.3125-2.0781-4.125-3.4219-4.125-1.5938 0-2.7188 0.90625-3.2031 1.8281h-0.03125l-0.10938-1.6094h-1.5625c0.0625 0.8125 0.078125 1.625 0.078125 2.625z"/>
   </g>
  </g>
 </g>
</svg>
