<svg xmlns="http://www.w3.org/2000/svg" xmlns:xlink="http://www.w3.org/1999/xlink" viewBox="0 0 746.49 167.45"><defs><clipPath id="clip-path" transform="translate(-88.45 -2106.06)"><rect width="930" height="4943" style="fill:none"/></clipPath></defs><title>img_4</title><g id="Layer_2" data-name="Layer 2"><g id="Layer_1-2" data-name="Layer 1"><g id="Big_img1" data-name="Big img1"><path d="M282,2150.22,276.4,2133h2.4l2.68,8.47c.74,2.32,1.37,4.42,1.83,6.43h.05c.49-2,1.2-4.16,2-6.4l2.91-8.5h2.37l-6.15,17.2Z" transform="translate(-88.45 -2106.06)" style="fill:#231f20"/><path d="M302.85,2143.94c0,4.57-3.16,6.56-6.14,6.56-3.35,0-5.92-2.45-5.92-6.36,0-4.13,2.7-6.55,6.12-6.55S302.85,2140.17,302.85,2143.94Zm-9.79.13c0,2.7,1.55,4.74,3.75,4.74s3.75-2,3.75-4.79c0-2.09-1.05-4.75-3.7-4.75S293.06,2141.72,293.06,2144.07Z" transform="translate(-88.45 -2106.06)" style="fill:#231f20"/><path d="M305.81,2132.1h2.25v18.12h-2.25Z" transform="translate(-88.45 -2106.06)" style="fill:#231f20"/><path d="M322.27,2146.85c0,1.28,0,2.4.1,3.37h-2l-.13-2h-.05a4.63,4.63,0,0,1-4.08,2.3c-1.94,0-4.26-1.07-4.26-5.41v-7.22h2.24v6.84c0,2.34.72,3.92,2.76,3.92a3.14,3.14,0,0,0,3.16-3.18v-7.58h2.25Z" transform="translate(-88.45 -2106.06)" style="fill:#231f20"/><path d="M326.12,2141.21c0-1.27,0-2.32-.1-3.34h2l.1,2h.08a4.27,4.27,0,0,1,3.88-2.27,3.64,3.64,0,0,1,3.49,2.47h.06a5,5,0,0,1,1.37-1.6,4.17,4.17,0,0,1,2.73-.87c1.64,0,4.06,1.07,4.06,5.36v7.27h-2.19v-7c0-2.38-.87-3.81-2.68-3.81a2.92,2.92,0,0,0-2.66,2,3.7,3.7,0,0,0-.18,1.12v7.63h-2.19v-7.4c0-2-.87-3.4-2.58-3.4a3.08,3.08,0,0,0-2.78,2.25,3.25,3.25,0,0,0-.18,1.1v7.45h-2.19Z" transform="translate(-88.45 -2106.06)" style="fill:#231f20"/><path d="M348.75,2144.45c.05,3,2,4.29,4.23,4.29a8.06,8.06,0,0,0,3.42-.64l.39,1.61a10.17,10.17,0,0,1-4.11.76c-3.8,0-6.07-2.5-6.07-6.22s2.19-6.66,5.79-6.66c4,0,5.1,3.54,5.1,5.81a7.61,7.61,0,0,1-.08,1Zm6.58-1.61c0-1.42-.59-3.64-3.11-3.64-2.27,0-3.27,2.09-3.45,3.64Z" transform="translate(-88.45 -2106.06)" style="fill:#231f20"/><path d="M377.12,2143.94c0,4.57-3.16,6.56-6.15,6.56-3.34,0-5.92-2.45-5.92-6.36,0-4.13,2.71-6.55,6.12-6.55S377.12,2140.17,377.12,2143.94Zm-9.8.13c0,2.7,1.56,4.74,3.75,4.74s3.75-2,3.75-4.79c0-2.09-1-4.75-3.7-4.75S367.32,2141.72,367.32,2144.07Z" transform="translate(-88.45 -2106.06)" style="fill:#231f20"/><path d="M380.31,2150.22v-10.64h-1.74v-1.71h1.74v-.59a5.82,5.82,0,0,1,1.43-4.31,4.27,4.27,0,0,1,3-1.15,5.14,5.14,0,0,1,1.91.36l-.31,1.73a3.39,3.39,0,0,0-1.43-.28c-1.91,0-2.39,1.69-2.39,3.58v.66h3v1.71h-3v10.64Z" transform="translate(-88.45 -2106.06)" style="fill:#231f20"/><path d="M393,2147.51a7.81,7.81,0,0,0,4,1.12c2.27,0,3.6-1.19,3.6-2.93s-.92-2.52-3.24-3.42c-2.81-1-4.54-2.45-4.54-4.87,0-2.68,2.22-4.67,5.56-4.67a7.87,7.87,0,0,1,3.8.84l-.61,1.81a6.94,6.94,0,0,0-3.27-.81c-2.35,0-3.24,1.4-3.24,2.57,0,1.61,1.05,2.4,3.42,3.32,2.91,1.12,4.39,2.53,4.39,5.05s-2,4.95-6,4.95a8.92,8.92,0,0,1-4.39-1.09Z" transform="translate(-88.45 -2106.06)" style="fill:#231f20"/><path d="M405.89,2141.9c0-1.58-.05-2.86-.1-4h2l.1,2.12h0a4.85,4.85,0,0,1,4.39-2.4c3,0,5.23,2.52,5.23,6.27,0,4.44-2.7,6.64-5.61,6.64a4.33,4.33,0,0,1-3.8-1.94h-.06v6.71h-2.22Zm2.22,3.29a5.15,5.15,0,0,0,.11.92,3.45,3.45,0,0,0,3.36,2.63c2.38,0,3.75-1.94,3.75-4.77,0-2.48-1.3-4.6-3.67-4.6a3.58,3.58,0,0,0-3.39,2.78,3.62,3.62,0,0,0-.16.92Z" transform="translate(-88.45 -2106.06)" style="fill:#231f20"/><path d="M420.54,2132.1h2.24v7.71h.05a4.15,4.15,0,0,1,1.61-1.58,4.56,4.56,0,0,1,2.3-.64c1.66,0,4.31,1,4.31,5.28v7.35H428.8v-7.1c0-2-.74-3.67-2.85-3.67a3.21,3.21,0,0,0-3,2.25,2.62,2.62,0,0,0-.16,1.07v7.45h-2.24Z" transform="translate(-88.45 -2106.06)" style="fill:#231f20"/><path d="M436.05,2144.45c.05,3,2,4.29,4.23,4.29a8.06,8.06,0,0,0,3.42-.64l.39,1.61a10.21,10.21,0,0,1-4.11.76c-3.8,0-6.07-2.5-6.07-6.22s2.19-6.66,5.79-6.66c4,0,5.1,3.54,5.1,5.81a7.61,7.61,0,0,1-.08,1Zm6.58-1.61c0-1.42-.59-3.64-3.11-3.64-2.27,0-3.27,2.09-3.45,3.64Z" transform="translate(-88.45 -2106.06)" style="fill:#231f20"/><path d="M447.71,2141.72c0-1.45,0-2.7-.1-3.85h2l.08,2.42h.1a3.69,3.69,0,0,1,3.42-2.7,2.56,2.56,0,0,1,.64.07v2.12a3.49,3.49,0,0,0-.77-.07,3.15,3.15,0,0,0-3,2.88,6.33,6.33,0,0,0-.1,1v6.59h-2.22Z" transform="translate(-88.45 -2106.06)" style="fill:#231f20"/><path d="M457.17,2144.45c.05,3,2,4.29,4.24,4.29a8.09,8.09,0,0,0,3.42-.64l.38,1.61a10.13,10.13,0,0,1-4.11.76c-3.8,0-6.07-2.5-6.07-6.22s2.19-6.66,5.79-6.66c4,0,5.1,3.54,5.1,5.81a10.2,10.2,0,0,1-.07,1Zm6.58-1.61c0-1.42-.58-3.64-3.11-3.64-2.27,0-3.26,2.09-3.44,3.64Z" transform="translate(-88.45 -2106.06)" style="fill:#231f20"/><g style="clip-path:url(#clip-path)"><path d="M172.17,2273.5a83.72,83.72,0,1,1,83.72-83.72A83.81,83.81,0,0,1,172.17,2273.5Zm0-165.44a81.72,81.72,0,1,0,81.72,81.72A81.81,81.81,0,0,0,172.17,2108.06Z" transform="translate(-88.45 -2106.06)" style="fill:#144575"/><path d="M172,2273.5a9.65,9.65,0,0,1-6.1-2.39l1.25-1.55a7.78,7.78,0,0,0,4.85,1.94Z" transform="translate(-88.45 -2106.06)" style="fill:#144575"/><path d="M159.24,2261.76a74.47,74.47,0,0,1-4.18-10.59l1.91-.6a72.08,72.08,0,0,0,4.06,10.3Zm-7.08-21.53c-.78-3.51-1.48-7.24-2.08-11.11l2-.31c.59,3.83,1.28,7.52,2.05,11Zm-3.53-22.3c-.38-3.66-.69-7.44-.92-11.25l2-.12c.23,3.78.53,7.54.91,11.16Zm-1.36-22.52c0-1.86-.06-3.74-.06-5.63s0-3.78.06-5.64l2,0c0,1.85-.06,3.72-.06,5.6s0,3.75.06,5.6Zm2.44-22.42-2-.12c.23-3.8.54-7.59.92-11.25l2,.21C150.24,2165.46,149.94,2169.22,149.71,2173Zm2.35-22.25-2-.31c.6-3.87,1.3-7.61,2.08-11.11l2,.44C153.35,2143.21,152.65,2146.91,152.06,2150.74ZM157,2129l-1.9-.6a74.52,74.52,0,0,1,4.17-10.59l1.79.89A73.28,73.28,0,0,0,157,2129Z" transform="translate(-88.45 -2106.06)" style="fill:#144575"/><path d="M167.15,2110l-1.25-1.55a9.65,9.65,0,0,1,6.1-2.39v2A7.78,7.78,0,0,0,167.15,2110Z" transform="translate(-88.45 -2106.06)" style="fill:#144575"/><path d="M172,2273.5v-2c12.44,0,23-37.42,23-81.72s-10.52-81.72-23-81.72v-2c14,0,25,36.77,25,83.72S186,2273.5,172,2273.5Z" transform="translate(-88.45 -2106.06)" style="fill:#144575"/><path d="M90.45,2190h-2a9.67,9.67,0,0,1,2.39-6.1l1.55,1.26A7.74,7.74,0,0,0,90.45,2190Z" transform="translate(-88.45 -2106.06)" style="fill:#144575"/><path d="M243.27,2178.64a73.28,73.28,0,0,0-10.3-4.06l.6-1.9a75,75,0,0,1,10.59,4.17Zm-142.19,0-.89-1.79a74.47,74.47,0,0,1,10.59-4.18l.6,1.91A72.08,72.08,0,0,0,101.08,2178.64Zm121.11-6.92c-3.45-.76-7.15-1.45-11-2l.31-2c3.87.61,7.61,1.31,11.11,2.08Zm-100,0-.43-1.95c3.49-.78,7.23-1.48,11.11-2.08l.31,2C129.3,2170.26,125.61,2171,122.15,2171.72Zm78-3.49c-3.63-.38-7.39-.68-11.16-.91l.12-2c3.8.23,7.59.54,11.24.92Zm-55.89,0-.21-2c3.65-.38,7.44-.69,11.25-.92l.12,2C151.61,2167.55,147.85,2167.85,144.23,2168.23Zm33.54-1.35c-3.7-.07-7.5-.07-11.2,0l0-2c3.73-.07,7.55-.07,11.28,0Z" transform="translate(-88.45 -2106.06)" style="fill:#144575"/><path d="M255.89,2190h-2a7.74,7.74,0,0,0-1.94-4.84l1.55-1.26A9.67,9.67,0,0,1,255.89,2190Z" transform="translate(-88.45 -2106.06)" style="fill:#144575"/><path d="M172.17,2215c-46.95,0-83.72-11-83.72-25h2c0,12.44,37.42,23,81.72,23s81.72-10.52,81.72-23h2C255.89,2204,219.12,2215,172.17,2215Z" transform="translate(-88.45 -2106.06)" style="fill:#144575"/><path d="M172.46,2190.19l-.58-.81,9.71-7.05.59.81Zm19.43-14.1-.59-.81,9.72-7,.58.81ZM211.32,2162l-.59-.81,9.71-7,.59.81Zm19.42-14.09-.58-.81,8.68-6.3.58.81Z" transform="translate(-88.45 -2106.06)" style="fill:#231f20"/><path d="M688.52,2273.5a83.72,83.72,0,1,1,83.72-83.72A83.81,83.81,0,0,1,688.52,2273.5Zm0-165.44a81.72,81.72,0,1,0,81.72,81.72A81.82,81.82,0,0,0,688.52,2108.06Z" transform="translate(-88.45 -2106.06)" style="fill:#144575"/><path d="M607.05,2190h-2.51a19.73,19.73,0,0,1,1.65-7.83l2.31,1A17.3,17.3,0,0,0,607.05,2190Z" transform="translate(-88.45 -2106.06)" style="fill:#144575"/><path d="M616.7,2172.58l-1.61-1.93A61.15,61.15,0,0,1,627,2163l1.12,2.26A58.41,58.41,0,0,0,616.7,2172.58Zm143.62,0a58.31,58.31,0,0,0-11.45-7.31L750,2163a60.69,60.69,0,0,1,12,7.64Zm-119.44-12.46-.78-2.39a129.78,129.78,0,0,1,13.58-3.61l.52,2.46A126.63,126.63,0,0,0,640.88,2160.11Zm95.26,0a127.09,127.09,0,0,0-13.31-3.54l.51-2.46a129.32,129.32,0,0,1,13.59,3.61Zm-68.32-5.77-.29-2.5c4.55-.54,9.26-.9,14-1.09l.1,2.52C677,2153.45,672.31,2153.81,667.82,2154.34Zm41.38,0c-4.5-.53-9.13-.9-13.78-1.07l.1-2.52c4.71.18,9.41.55,14,1.09Z" transform="translate(-88.45 -2106.06)" style="fill:#144575"/><path d="M772.5,2190H770a17.29,17.29,0,0,0-1.44-6.84l2.31-1A19.73,19.73,0,0,1,772.5,2190Z" transform="translate(-88.45 -2106.06)" style="fill:#144575"/><path d="M688.52,2229.16c-22.27,0-43.23-4-59-11.22-16.1-7.37-25-17.3-25-27.94h2.51c0,20.21,36.55,36.64,81.47,36.64S770,2210.21,770,2190h2.52c0,10.64-8.87,20.57-25,27.94C731.75,2225.18,710.79,2229.16,688.52,2229.16Z" transform="translate(-88.45 -2106.06)" style="fill:#144575"/><rect x="590.31" y="2201.47" width="82.73" height="2" transform="translate(-664.51 -1850.7) rotate(-15.81)" style="fill:#231f20"/><polygon points="580.79 91.44 600.07 79.94 577.63 80.26 580.79 91.44" style="fill:#231f20"/><rect x="732.04" y="2146.52" width="2" height="76.57" transform="translate(-1584.31 664.13) rotate(-86.17)" style="fill:#ed1c24"/></g><path d="M294.26,2209.58v-1.53h13.16v1.53Zm0,5v-1.53h13.16v1.53Z" transform="translate(-88.45 -2106.06)" style="fill:#231f20"/><path d="M342.27,2207.59v6.92a13.47,13.47,0,0,0,.36,3.67h-2.17a9.36,9.36,0,0,1-.38-3.44v-7.15H336c-.1,3.24-.84,8.55-1.73,10.59h-2.15a41,41,0,0,0,1.74-10.59,10.09,10.09,0,0,0-2.53.23l-.31-1.32a6.44,6.44,0,0,1,3.55-.67h9.65l-.26,1.76Z" transform="translate(-88.45 -2106.06)" style="fill:#231f20"/><path d="M346.86,2209.69c0-1.46,0-2.71-.1-3.86h2l.08,2.43h.1a3.71,3.71,0,0,1,3.42-2.71,2.43,2.43,0,0,1,.64.08v2.12a2.94,2.94,0,0,0-.77-.08,3.15,3.15,0,0,0-3,2.88,6.57,6.57,0,0,0-.1,1v6.58h-2.22Z" transform="translate(-88.45 -2106.06)" style="fill:#231f20"/><path d="M354.45,2208.17a4.36,4.36,0,0,0,2.14.61c1.68,0,2.21-1.07,2.19-1.87,0-1.36-1.23-1.94-2.5-1.94h-.73v-1h.73c1,0,2.16-.49,2.16-1.64,0-.77-.49-1.45-1.7-1.45a3.51,3.51,0,0,0-1.93.64l-.34-1a4.58,4.58,0,0,1,2.53-.74c1.9,0,2.76,1.13,2.76,2.31a2.39,2.39,0,0,1-1.78,2.27v0a2.52,2.52,0,0,1,2.15,2.49c0,1.54-1.2,2.9-3.52,2.9a5,5,0,0,1-2.52-.66Z" transform="translate(-88.45 -2106.06)" style="fill:#231f20"/><path d="M203,2143.51c0-1.45,0-2.7-.1-3.85h2l.08,2.42h.1a3.69,3.69,0,0,1,3.42-2.7,2.51,2.51,0,0,1,.64.07v2.12a3.44,3.44,0,0,0-.77-.08,3.15,3.15,0,0,0-3,2.89,6.33,6.33,0,0,0-.1,1V2152H203Z" transform="translate(-88.45 -2106.06)" style="fill:#231f20"/><path d="M537.13,2220.81a6.64,6.64,0,0,1-2.91.59,4.81,4.81,0,0,1-5-5.17,5.15,5.15,0,0,1,5.44-5.37,6.15,6.15,0,0,1,2.55.52l-.42,1.42a4.22,4.22,0,0,0-2.13-.48,3.82,3.82,0,0,0-.06,7.62,5.27,5.27,0,0,0,2.26-.51Z" transform="translate(-88.45 -2106.06)" style="fill:#00a651"/><path d="M540.29,2216.46a3.25,3.25,0,0,0,3.47,3.52,6.68,6.68,0,0,0,2.8-.52l.32,1.31a8.09,8.09,0,0,1-3.37.63c-3.12,0-5-2.05-5-5.1s1.8-5.46,4.75-5.46c3.3,0,4.18,2.9,4.18,4.77a7.07,7.07,0,0,1-.06.85Zm5.4-1.31c0-1.18-.48-3-2.56-3-1.86,0-2.67,1.72-2.82,3Z" transform="translate(-88.45 -2106.06)" style="fill:#00a651"/><path d="M549.85,2213.81c0-1,0-1.91-.09-2.74h1.64l.1,1.67h0a3.73,3.73,0,0,1,3.35-1.9c1.4,0,3.58.83,3.58,4.31v6h-1.84v-5.84c0-1.63-.61-3-2.35-3a2.63,2.63,0,0,0-2.47,1.89,2.72,2.72,0,0,0-.12.85v6.09h-1.84Z" transform="translate(-88.45 -2106.06)" style="fill:#00a651"/><path d="M563.67,2208.16v2.91h2.64v1.4h-2.64v5.46c0,1.25.36,2,1.38,2a4.24,4.24,0,0,0,1.07-.12l.09,1.38a4.51,4.51,0,0,1-1.64.25,2.52,2.52,0,0,1-2-.77,3.74,3.74,0,0,1-.72-2.64v-5.52h-1.56v-1.4h1.56v-2.43Z" transform="translate(-88.45 -2106.06)" style="fill:#00a651"/><path d="M569.38,2216.46a3.25,3.25,0,0,0,3.48,3.52,6.72,6.72,0,0,0,2.8-.52l.31,1.31a8.06,8.06,0,0,1-3.37.63c-3.11,0-5-2.05-5-5.1s1.79-5.46,4.75-5.46c3.3,0,4.18,2.9,4.18,4.77a7.07,7.07,0,0,1-.06.85Zm5.4-1.31c0-1.18-.48-3-2.55-3-1.86,0-2.68,1.72-2.83,3Z" transform="translate(-88.45 -2106.06)" style="fill:#00a651"/><path d="M578.94,2214.23c0-1.2,0-2.22-.08-3.16h1.61l.06,2h.09a3,3,0,0,1,2.8-2.21,2.06,2.06,0,0,1,.52.06v1.74a2.38,2.38,0,0,0-.63-.07,2.6,2.6,0,0,0-2.47,2.37,5.34,5.34,0,0,0-.08.85v5.4h-1.82Z" transform="translate(-88.45 -2106.06)" style="fill:#00a651"/><path d="M686.54,2178.5a9,9,0,0,1-3.72.67c-4,0-7-2.51-7-7.13a7,7,0,0,1,7.36-7.41,7.56,7.56,0,0,1,3.35.63l-.44,1.48a6.69,6.69,0,0,0-2.84-.58c-3.31,0-5.51,2.11-5.51,5.81,0,3.46,2,5.67,5.42,5.67a7.37,7.37,0,0,0,3-.58Z" transform="translate(-88.45 -2106.06)" style="fill:#00a651"/><path d="M783.53,2186.07c0-1.19,0-2.22-.09-3.16h1.61l.07,2h.08a3,3,0,0,1,2.8-2.22,1.74,1.74,0,0,1,.53.07v1.73a2.93,2.93,0,0,0-.63-.06,2.58,2.58,0,0,0-2.47,2.36,5.47,5.47,0,0,0-.08.86v5.4h-1.82Z" transform="translate(-88.45 -2106.06)" style="fill:#ed1c24"/><path d="M796,2193l-.14-1.28h-.07a3.75,3.75,0,0,1-3.09,1.51,2.89,2.89,0,0,1-3.1-2.91c0-2.45,2.18-3.79,6.09-3.77v-.2a2.09,2.09,0,0,0-2.3-2.35,5.07,5.07,0,0,0-2.64.76l-.42-1.22a6.33,6.33,0,0,1,3.33-.9c3.1,0,3.85,2.12,3.85,4.14v3.79a13.82,13.82,0,0,0,.17,2.43Zm-.27-5.17c-2,0-4.29.31-4.29,2.28a1.64,1.64,0,0,0,1.74,1.76,2.53,2.53,0,0,0,2.45-1.7,1.91,1.91,0,0,0,.1-.58Z" transform="translate(-88.45 -2106.06)" style="fill:#ed1c24"/><path d="M809.3,2178.19v12.23c0,.9,0,1.93.08,2.62h-1.65l-.08-1.76h0a3.74,3.74,0,0,1-3.45,2c-2.45,0-4.33-2.07-4.33-5.15,0-3.37,2.07-5.44,4.54-5.44a3.41,3.41,0,0,1,3.06,1.55h0v-6Zm-1.84,8.84a2.89,2.89,0,0,0-.09-.77,2.7,2.7,0,0,0-2.65-2.13c-1.91,0-3,1.67-3,3.91,0,2.05,1,3.74,3,3.74a2.76,2.76,0,0,0,2.7-2.19,2.93,2.93,0,0,0,.09-.8Z" transform="translate(-88.45 -2106.06)" style="fill:#ed1c24"/><path d="M814.48,2180.07a1.14,1.14,0,0,1-2.28,0,1.12,1.12,0,0,1,1.15-1.15A1.09,1.09,0,0,1,814.48,2180.07Zm-2.05,13v-10.13h1.84V2193Z" transform="translate(-88.45 -2106.06)" style="fill:#ed1c24"/><path d="M825.88,2190.28q0,1.56.09,2.76h-1.63l-.11-1.65h0a3.82,3.82,0,0,1-3.35,1.88c-1.59,0-3.49-.88-3.49-4.44v-5.92h1.84v5.61c0,1.92.59,3.22,2.26,3.22a2.68,2.68,0,0,0,2.43-1.67,2.81,2.81,0,0,0,.16-.94v-6.22h1.84Z" transform="translate(-88.45 -2106.06)" style="fill:#ed1c24"/><path d="M828.77,2191.16a4.88,4.88,0,0,0,2.43.73c1.34,0,2-.67,2-1.51s-.52-1.36-1.88-1.86c-1.82-.65-2.68-1.65-2.68-2.87,0-1.63,1.32-3,3.5-3a5.06,5.06,0,0,1,2.48.63l-.45,1.34a4,4,0,0,0-2.08-.59c-1.08,0-1.69.63-1.69,1.38s.61,1.22,1.92,1.72c1.76.67,2.66,1.55,2.66,3.05,0,1.78-1.38,3-3.79,3a5.73,5.73,0,0,1-2.84-.69Z" transform="translate(-88.45 -2106.06)" style="fill:#ed1c24"/><g style="clip-path:url(#clip-path)"><path d="M698.09,2182.24a5.12,5.12,0,1,1-5.11-5.12,5.11,5.11,0,0,1,5.11,5.12" transform="translate(-88.45 -2106.06)" style="fill:#00a651"/><path d="M175.79,2189.78a3.62,3.62,0,1,1-3.62-3.62,3.62,3.62,0,0,1,3.62,3.62" transform="translate(-88.45 -2106.06)" style="fill:#231f20"/></g><path d="M322,2207.34v-4.51h-7.7v-1.48l7.4-10.59h2.42v10.31h2.32v1.76h-2.32v4.51Zm0-6.27v-5.54c0-.87,0-1.74.08-2.6H322c-.51,1-.92,1.68-1.38,2.45l-4.05,5.63v.06Z" transform="translate(-88.45 -2106.06)" style="fill:#231f20"/><g style="clip-path:url(#clip-path)"><rect x="225.55" y="102.94" width="13" height="1" style="fill:#231f20"/></g><path d="M315.55,2233.81a7.49,7.49,0,0,0,3.67,1.05c2.88,0,3.78-1.84,3.75-3.21,0-2.33-2.12-3.32-4.28-3.32h-1.25v-1.69h1.25c1.63,0,3.7-.84,3.7-2.8,0-1.33-.85-2.5-2.91-2.5a6,6,0,0,0-3.32,1.1l-.59-1.64a7.9,7.9,0,0,1,4.34-1.27c3.27,0,4.75,1.94,4.75,3.95a4.11,4.11,0,0,1-3.07,3.9v.06a4.3,4.3,0,0,1,3.7,4.26c0,2.65-2.06,5-6,5a8.44,8.44,0,0,1-4.31-1.12Z" transform="translate(-88.45 -2106.06)" style="fill:#231f20"/></g></g></g></svg>