<svg id="svg97485" version="1.1" viewBox="0 0 10.382 13.843" xmlns="http://www.w3.org/2000/svg">
 <title id="title97526">img_78</title>
 <g id="layer1" transform="translate(-113.49 -124.61)">
  <path id="path87531" d="m113.49 131.71h10.382" style="fill:none;stroke-miterlimit:10;stroke-width:.35278;stroke:#7d7878"/>
  <g id="g87539" transform="matrix(.35278 0 0 .35278 -72.502 -1282.6)" style="fill:#7d7878">
   <g id="use87533" transform="translate(528.41 4002.1)"></g>
   <g id="use87535" transform="translate(532.75 4002.1)">
    <path id="path97446" d="m0.59375-6.0625v1.2969h4.9531v-1.2969z"/>
   </g>
   <g id="use87537" transform="translate(538.99 4002.1)">
    <path id="path97450" d="m4.7188 0h1.7031v-13h-1.5l-2.8438 1.5156 0.34375 1.3438 2.2656-1.2188h0.03125z"/>
   </g>
  </g>
  <g id="g87543" transform="matrix(.35278 0 0 .35278 -72.502 -1282.6)" style="fill:#7d7878">
   <g id="use87541" transform="translate(538.43 4028.1)">
    <path id="path97454" d="m8.6562-13h-6.2188l-0.84375 6.2344c0.48438-0.046875 1.0625-0.14062 1.8125-0.14062 2.5938 0 3.7188 1.2031 3.7344 2.8906 0 1.7344-1.4219 2.8125-3.0781 2.8125-1.1875 0-2.25-0.39062-2.7812-0.71875l-0.4375 1.3438c0.60938 0.39062 1.8125 0.79688 3.2344 0.79688 2.8281 0 4.8438-1.9062 4.8438-4.4375 0-1.6406-0.84375-2.7656-1.8594-3.3438-0.79688-0.48438-1.7969-0.70312-2.7969-0.70312-0.48438 0-0.76562 0.046875-1.0625 0.078125l0.5-3.3281h4.9531z"/>
   </g>
  </g>
 </g>
</svg>
