<svg id="svg25152" version="1.1" viewBox="0 0 82.013 58.201" xmlns="http://www.w3.org/2000/svg">
 <title id="title25301">img_26</title>
 <g id="layer1" transform="translate(-35.345 -93.364)">
  <path id="path13503" d="m74.94 144.9v-29.388" style="fill:none;stroke-miterlimit:10;stroke-width:.35278;stroke:#173a6e"/>
  <path id="path13505" d="m74.94 115.51c0 3.5953-8.8236 6.5112-19.71 6.5112-10.885 0-19.709-2.916-19.709-6.5112 0-3.5967 8.8236-6.5112 19.709-6.5112 10.886 0 19.71 2.9145 19.71 6.5112z" style="fill:none;stroke-miterlimit:10;stroke-width:.35278;stroke:#173a6e"/>
  <path id="path13507" d="m74.94 144.88c0 3.5967-8.8236 6.5112-19.71 6.5112-10.885 0-19.709-2.9145-19.709-6.5112" style="fill:none;stroke-miterlimit:10;stroke-width:.35278;stroke:#173a6e"/>
  <path id="path13509" d="m35.521 144.88c0-3.5953 8.8236-6.5112 19.709-6.5112 10.886 0 19.71 2.9159 19.71 6.5112" style="fill:none;stroke-dasharray:2.11667;stroke-miterlimit:10;stroke-width:.35278;stroke:#173a6e"/>
  <path id="path13511" d="m74.94 115.33-19.71 0.17639" style="fill:none;stroke-miterlimit:10;stroke-width:.35278;stroke:#173a6e"/>
  <path id="path13513" d="m35.521 115.51v29.366" style="fill:none;stroke-miterlimit:10;stroke-width:.35278;stroke:#173a6e"/>
  <path id="path13515" d="m55.23 115.51v1.0583" style="fill:none;stroke-miterlimit:10;stroke-width:.35278;stroke:#173a6e"/>
  <path id="path13517" d="m55.23 118.67v24.106" style="fill:none;stroke-dasharray:2.09621, 2.09621;stroke-miterlimit:10;stroke-width:.35278;stroke:#173a6e"/>
  <path id="path13519" d="m55.23 143.82v1.0583" style="fill:none;stroke-miterlimit:10;stroke-width:.35278;stroke:#173a6e"/>
  <path id="path13521" d="m57.698 115.51v2.4708h-2.4681v-1.7308" style="fill:none;stroke-miterlimit:10;stroke-width:.35278;stroke:#173a6e"/>
  <path id="path13523" d="m55.649 144.9c0 0.23153-0.18741 0.41893-0.41892 0.41893-0.23013 0-0.41892-0.1874-0.41892-0.41893 0-0.23149 0.18879-0.41892 0.41892-0.41892 0.23151 0 0.41892 0.18743 0.41892 0.41892" style="fill:#173a6e"/>
  <path id="path13525" d="m55.649 115.51c0 0.23153-0.18741 0.41892-0.41892 0.41892-0.23013 0-0.41892-0.18739-0.41892-0.41892 0-0.23149 0.18879-0.41893 0.41892-0.41893 0.23151 0 0.41892 0.18744 0.41892 0.41893" style="fill:#173a6e"/>
  <g id="g13541" transform="matrix(.35278 0 0 .35278 -70.94 -1421.8)">
   <g id="use13527" transform="translate(386.09 4311.5)">
    <path id="path25025" d="m1.7031 0h2.0312v-6.0156c0-0.35938 0.046875-0.67188 0.09375-0.95312 0.28125-1.5469 1.2969-2.6406 2.75-2.6406 0.28125 0 0.48438 0.015625 0.70312 0.0625v-1.9375c-0.1875-0.04687-0.35938-0.0625-0.59375-0.0625-1.375 0-2.6094 0.95312-3.125 2.4688h-0.09375l-0.0625-2.2188h-1.7969c0.0625 1.0625 0.09375 2.2031 0.09375 3.5312z"/>
   </g>
   <g id="use13529" transform="translate(393.72 4311.5)"></g>
   <g id="use13531" transform="translate(398.67 4311.5)">
    <path id="path25033" d="m12.969-7.8594v-1.4062h-12.031v1.4062zm0 4.5625v-1.3906h-12.031v1.3906z"/>
   </g>
   <g id="use13533" transform="translate(412.57 4311.5)"></g>
   <g id="use13535" transform="translate(417.52 4311.5)">
    <path id="path25041" d="m0.98438-0.76562c0.73438 0.48438 2.2344 1.0156 3.9375 1.0156 3.6406 0 5.5312-2.1094 5.5312-4.5469 0-2.125-1.5156-3.5156-3.3906-3.8906v-0.046875c1.875-0.67188 2.8125-2 2.8125-3.5625 0-1.8438-1.3594-3.625-4.3438-3.625-1.6406 0-3.1719 0.57812-3.9688 1.1719l0.53125 1.4844c0.65625-0.46875 1.8281-1 3.0312-1 1.8906 0 2.6719 1.0781 2.6719 2.2812 0 1.7969-1.8906 2.5781-3.3906 2.5781h-1.1406v1.5312h1.1406c1.9844 0 3.9062 0.90625 3.9219 3.0312 0.015625 1.2656-0.79688 2.9375-3.4219 2.9375-1.4375 0-2.7812-0.57812-3.3594-0.95312z"/>
   </g>
   <g id="use13537" transform="translate(429.48 4311.5)"></g>
   <g id="use13539" transform="translate(434.43 4311.5)">
    <path id="path25049" d="m3.7344-16.562h-2.0312v16.562h2.0312v-4.25l1.0469-1.1562 3.8906 5.4062h2.5l-4.9688-6.6562 4.3594-4.6406h-2.4688l-3.3125 3.9062c-0.32812 0.39062-0.71875 0.875-1 1.2812h-0.046875z"/>
   </g>
  </g>
  <g id="g13545" transform="matrix(.35278 0 0 .35278 -70.94 -1421.8)">
   <g id="use13543" transform="translate(445.76 4311.5)">
    <path id="path25053" d="m1.7031 0h2v-6.8125c0-0.34375 0.046875-0.70312 0.17188-1 0.32812-1.0312 1.25-2.0625 2.5469-2.0625 1.5625 0 2.3438 1.3125 2.3438 3.1094v6.7656h2.0156v-6.9688c0-0.375 0.0625-0.75 0.15625-1.0312 0.35938-1 1.2656-1.875 2.4219-1.875 1.6562 0 2.4531 1.3125 2.4531 3.4844v6.3906h2.0156v-6.6562c0-3.9062-2.2188-4.8906-3.7188-4.8906-1.0625 0-1.8125 0.28125-2.4844 0.79688-0.46875 0.34375-0.92188 0.82812-1.2656 1.4688h-0.046875c-0.48438-1.3281-1.6562-2.2656-3.2031-2.2656-1.8594 0-2.9062 1-3.5469 2.0781h-0.0625l-0.09375-1.8281h-1.7969c0.0625 0.9375 0.09375 1.8906 0.09375 3.0625z"/>
   </g>
  </g>
  <g id="g13563" transform="matrix(.35278 0 0 .35278 -70.94 -1421.8)">
   <g id="use13547" transform="translate(451.83 4418.2)">
    <path id="path25057" d="m1.7031 0h2.0469v-6.8125c0-0.39062 0.03125-0.70312 0.14062-0.98438 0.375-1.1094 1.4219-2.0469 2.7656-2.0469 1.9219 0 2.6094 1.5312 2.6094 3.3594v6.4844h2.0469v-6.7188c0-3.8906-2.4219-4.8281-3.9375-4.8281-0.76562 0-1.5 0.23438-2.1094 0.57812-0.625 0.35938-1.1406 0.875-1.4688 1.4531h-0.046875v-7.0469h-2.0469z"/>
   </g>
   <g id="use13549" transform="translate(464.77 4418.2)"></g>
   <g id="use13551" transform="translate(469.72 4418.2)">
    <path id="path25065" d="m12.969-7.8594v-1.4062h-12.031v1.4062zm0 4.5625v-1.3906h-12.031v1.3906z"/>
   </g>
   <g id="use13553" transform="translate(483.62 4418.2)"></g>
   <g id="use13555" transform="translate(488.57 4418.2)">
    <path id="path25073" d="m0.98438-0.76562c0.73438 0.48438 2.2344 1.0156 3.9375 1.0156 3.6406 0 5.5312-2.1094 5.5312-4.5469 0-2.125-1.5156-3.5156-3.3906-3.8906v-0.046875c1.875-0.67188 2.8125-2 2.8125-3.5625 0-1.8438-1.3594-3.625-4.3438-3.625-1.6406 0-3.1719 0.57812-3.9688 1.1719l0.53125 1.4844c0.65625-0.46875 1.8281-1 3.0312-1 1.8906 0 2.6719 1.0781 2.6719 2.2812 0 1.7969-1.8906 2.5781-3.3906 2.5781h-1.1406v1.5312h1.1406c1.9844 0 3.9062 0.90625 3.9219 3.0312 0.015625 1.2656-0.79688 2.9375-3.4219 2.9375-1.4375 0-2.7812-0.57812-3.3594-0.95312z"/>
   </g>
   <g id="use13557" transform="translate(500.53 4418.2)"></g>
   <g id="use13559" transform="translate(505.48 4418.2)">
    <path id="path25081" d="m9.4062-1.9531c-0.59375 0.25-1.3594 0.54688-2.5312 0.54688-2.2344 0-3.9062-1.6094-3.9062-4.2188 0-2.3594 1.3906-4.2656 3.9844-4.2656 1.125 0 1.8906 0.25 2.375 0.53125l0.46875-1.5781c-0.5625-0.28125-1.625-0.59375-2.8438-0.59375-3.6875 0-6.0625 2.5312-6.0625 6 0 3.4531 2.2188 5.7656 5.625 5.7656 1.5156 0 2.7031-0.375 3.2344-0.65625z"/>
   </g>
   <g id="use13561" transform="translate(515.93 4418.2)">
    <path id="path25085" d="m1.7031 0h2v-6.8125c0-0.34375 0.046875-0.70312 0.17188-1 0.32812-1.0312 1.25-2.0625 2.5469-2.0625 1.5625 0 2.3438 1.3125 2.3438 3.1094v6.7656h2.0156v-6.9688c0-0.375 0.0625-0.75 0.15625-1.0312 0.35938-1 1.2656-1.875 2.4219-1.875 1.6562 0 2.4531 1.3125 2.4531 3.4844v6.3906h2.0156v-6.6562c0-3.9062-2.2188-4.8906-3.7188-4.8906-1.0625 0-1.8125 0.28125-2.4844 0.79688-0.46875 0.34375-0.92188 0.82812-1.2656 1.4688h-0.046875c-0.48438-1.3281-1.6562-2.2656-3.2031-2.2656-1.8594 0-2.9062 1-3.5469 2.0781h-0.0625l-0.09375-1.8281h-1.7969c0.0625 0.9375 0.09375 1.8906 0.09375 3.0625z"/>
   </g>
  </g>
 </g>
</svg>
