<svg id="svg44900" version="1.1" viewBox="0 0 43.214 5.2917" xmlns="http://www.w3.org/2000/svg">
 <title id="title44990">img_37</title>
 <g id="layer1" transform="translate(-60.036 -108.48)">
  <g id="use37281" transform="matrix(.35278 0 0 .35278 59.755 113.49)" style="fill:#1c1c19">
   <path id="path44824" d="m11.125-6.7344v-1.2031h-10.328v1.2031zm0 3.9219v-1.2031h-10.328v1.2031z"/>
  </g>
  <g id="g44972">
   <g id="use37285" transform="matrix(.35278 0 0 .35278 65.526 113.49)" style="fill:#1c1c19">
    <path id="path44828" d="m0.84375-0.65625c0.64062 0.42188 1.9219 0.875 3.375 0.875 3.125 0 4.7344-1.8125 4.7344-3.9062 0-1.8125-1.2969-3.0156-2.8906-3.3281v-0.046875c1.5938-0.57812 2.3906-1.7188 2.3906-3.0625 0-1.5781-1.1562-3.0938-3.7188-3.0938-1.3906 0-2.7188 0.5-3.3906 1l0.45312 1.2812c0.5625-0.40625 1.5625-0.85938 2.6094-0.85938 1.6094 0 2.2812 0.92188 2.2812 1.9531 0 1.5469-1.625 2.2031-2.9062 2.2031h-0.98438v1.3281h0.98438c1.7031 0 3.3438 0.76562 3.3594 2.5938 0.015625 1.0781-0.6875 2.5156-2.9375 2.5156-1.2188 0-2.3906-0.5-2.8906-0.8125z"/>
   </g>
   <g id="use37287" transform="matrix(.35278 0 0 .35278 69.181 113.49)" style="fill:#1c1c19">
    <path id="path44832" d="m5.2344-13.219c-2.6406 0-4.5156 2.4062-4.5156 6.7656 0.046875 4.2969 1.7656 6.6719 4.2969 6.6719 2.8906 0 4.5312-2.4375 4.5312-6.8594 0-4.1406-1.5625-6.5781-4.3125-6.5781zm-0.09375 1.3594c1.8125 0 2.6406 2.0938 2.6406 5.2969 0 3.3281-0.85938 5.4219-2.6562 5.4219-1.6094 0-2.6406-1.9219-2.6406-5.2969 0-3.5469 1.1094-5.4219 2.6562-5.4219z"/>
   </g>
  </g>
  <g id="g44978">
   <g id="use37291" transform="matrix(.35278 0 0 .35278 74.367 113.49)" style="fill:#1c1c19">
    <path id="path44836" d="m3.2031-14.203h-1.75v14.203h1.75v-3.6406l0.89062-1 3.3438 4.6406h2.1406l-4.2656-5.7031 3.75-3.9844h-2.125l-2.8438 3.3438c-0.28125 0.34375-0.60938 0.76562-0.85938 1.1094h-0.03125z"/>
   </g>
   <g id="use37295" transform="matrix(.35278 0 0 .35278 77.831 113.49)" style="fill:#1c1c19">
    <path id="path44840" d="m1.4531 0h1.7344v-5.8438c0-0.29688 0.03125-0.59375 0.125-0.85938 0.28125-0.875 1.0938-1.75 2.1875-1.75 1.3438 0 2.0156 1.1094 2.0156 2.6562v5.7969h1.7188v-5.9844c0-0.3125 0.0625-0.64062 0.14062-0.875 0.3125-0.85938 1.0781-1.5938 2.0781-1.5938 1.4219 0 2.1094 1.1094 2.1094 2.9688v5.4844h1.7188v-5.7031c0-3.3594-1.9062-4.2031-3.1875-4.2031-0.90625 0-1.5469 0.25-2.1406 0.6875-0.39062 0.29688-0.76562 0.71875-1.0781 1.2656h-0.03125c-0.42188-1.1406-1.4219-1.9531-2.75-1.9531-1.5938 0-2.5 0.85938-3.0312 1.7812h-0.0625l-0.078125-1.5625h-1.5469c0.0625 0.8125 0.078125 1.625 0.078125 2.625z"/>
   </g>
  </g>
  <g id="use37299" transform="matrix(.35278 0 0 .35278 85.282 113.49)" style="fill:#1c1c19">
   <path id="path44844" d="m1.3125 0.79688 5.6094-14.5h-1.3594l-5.5781 14.5z"/>
  </g>
  <g id="g44988">
   <g id="use37303" transform="matrix(.35278 0 0 .35278 89.268 113.49)" style="fill:#1c1c19">
    <path id="path44848" d="m1.4531 0h1.7656v-5.8438c0-0.34375 0.015625-0.59375 0.125-0.84375 0.3125-0.95312 1.2188-1.75 2.3594-1.75 1.6562 0 2.2344 1.3125 2.2344 2.875v5.5625h1.7656v-5.7656c0-3.3281-2.0781-4.1406-3.3906-4.1406-0.65625 0-1.2656 0.20312-1.7969 0.5-0.53125 0.3125-0.96875 0.75-1.25 1.25h-0.046875v-6.0469h-1.7656z"/>
   </g>
   <g id="use37305" transform="matrix(.35278 0 0 .35278 93.219 113.49)" style="fill:#1c1c19">
    <path id="path44852" d="m5.5625-9.9062c-2.6875 0-4.7969 1.9062-4.7969 5.1406 0 3.0625 2.0156 4.9844 4.6406 4.9844 2.3281 0 4.8125-1.5625 4.8125-5.1406 0-2.9531-1.875-4.9844-4.6562-4.9844zm-0.046875 1.3281c2.0781 0 2.9062 2.0781 2.9062 3.7188 0 2.1719-1.2656 3.7656-2.9375 3.7656-1.7188 0-2.9375-1.6094-2.9375-3.7188 0-1.8438 0.89062-3.7656 2.9688-3.7656z"/>
   </g>
   <g id="use37307" transform="matrix(.35278 0 0 .35278 97.128 113.49)" style="fill:#1c1c19">
    <path id="path44856" d="m9.5625-9.6875h-1.7656v5.9531c0 0.3125-0.0625 0.64062-0.15625 0.89062-0.32812 0.78125-1.1406 1.6094-2.3281 1.6094-1.5938 0-2.1562-1.25-2.1562-3.0781v-5.375h-1.75v5.6719c0 3.3906 1.8125 4.2344 3.3281 4.2344 1.7188 0 2.75-1.0156 3.2031-1.7969h0.046875l0.09375 1.5781h1.5625c-0.0625-0.76562-0.078125-1.6406-0.078125-2.6406z"/>
   </g>
   <g id="use37309" transform="matrix(.35278 0 0 .35278 101.05 113.49)" style="fill:#1c1c19">
    <path id="path44860" d="m1.4531 0h1.75v-5.1562c0-0.29688 0.03125-0.57812 0.078125-0.82812 0.23438-1.3125 1.125-2.25 2.3594-2.25 0.23438 0 0.42188 0.015625 0.59375 0.046875v-1.6562c-0.15625-0.03125-0.29688-0.0625-0.5-0.0625-1.1719 0-2.2344 0.82812-2.6719 2.125h-0.078125l-0.0625-1.9062h-1.5469c0.0625 0.90625 0.078125 1.8906 0.078125 3.0312z"/>
   </g>
  </g>
 </g>
</svg>
