<svg id="svg67397" version="1.1" viewBox="0 0 43.004 5.2255" xmlns="http://www.w3.org/2000/svg">
 <title id="title67545">img_47</title>
 <g id="layer1" transform="translate(-46.533 -134.21)">
  <g id="use53776" transform="matrix(.35278 0 0 .35278 46.28 139.35)">
   <path id="path67299" d="m0.71875-4.6562 2.8125-0.28125c0.17578 0.94922 0.51953 1.6484 1.0312 2.0938 0.51953 0.4375 1.2188 0.65625 2.0938 0.65625 0.9375 0 1.6406-0.19531 2.1094-0.59375 0.46875-0.39453 0.70312-0.85156 0.70312-1.375 0-0.34375-0.10156-0.62891-0.29688-0.85938-0.19922-0.23828-0.54297-0.44531-1.0312-0.625-0.34375-0.125-1.1172-0.33203-2.3125-0.625-1.5547-0.38281-2.6406-0.85938-3.2656-1.4219-0.88672-0.78906-1.3281-1.75-1.3281-2.875 0-0.72656 0.20703-1.4102 0.625-2.0469 0.41406-0.63281 1.0078-1.1172 1.7812-1.4531 0.78125-0.33203 1.7227-0.5 2.8281-0.5 1.7891 0 3.1406 0.39844 4.0469 1.1875 0.91406 0.78125 1.3945 1.8359 1.4375 3.1562l-2.8906 0.125c-0.125-0.73828-0.39062-1.2695-0.79688-1.5938-0.40625-0.32031-1.0156-0.48438-1.8281-0.48438-0.84375 0-1.5 0.17188-1.9688 0.51562-0.3125 0.23047-0.46875 0.52734-0.46875 0.89062 0 0.34375 0.14453 0.63672 0.4375 0.875 0.36328 0.30469 1.25 0.62109 2.6562 0.95312 1.4062 0.33594 2.4414 0.67969 3.1094 1.0312 0.67578 0.35547 1.2031 0.83984 1.5781 1.4531 0.38281 0.61719 0.57812 1.375 0.57812 2.2812 0 0.82422-0.23047 1.5938-0.6875 2.3125-0.44922 0.71094-1.0898 1.2422-1.9219 1.5938-0.83594 0.34375-1.875 0.51562-3.125 0.51562-1.8047 0-3.1953-0.41406-4.1719-1.25-0.96875-0.83203-1.5469-2.0508-1.7344-3.6562z"/>
  </g>
  <g id="use53780" transform="matrix(.35278 0 0 .35278 51.021 139.35)">
   <path id="path67303" d="m11.125-6.7344v-1.2031h-10.328v1.2031zm0 3.9219v-1.2031h-10.328v1.2031z"/>
  </g>
  <g id="g67543">
   <g id="use53782" transform="matrix(.35278 0 0 .35278 55.262 139.35)">
    <path id="path67307" d="m0.84375-0.65625c0.71875 0.46875 2.1406 0.85938 3.4375 0.85938 3.1719 0 4.7188-1.7969 4.7188-3.8906 0-1.9688-1.1562-3.0781-3.4375-3.9531-1.8594-0.71875-2.6875-1.3438-2.6875-2.5938 0-0.92188 0.70312-2.0312 2.5469-2.0312 1.2188 0 2.125 0.40625 2.5625 0.64062l0.46875-1.4219c-0.59375-0.32812-1.5938-0.65625-2.9688-0.65625-2.625 0-4.3594 1.5625-4.3594 3.6562 0 1.9062 1.3594 3.0469 3.5625 3.8281 1.8125 0.70312 2.5312 1.4219 2.5312 2.6719 0 1.3594-1.0312 2.3125-2.8125 2.3125-1.2031 0-2.3438-0.40625-3.125-0.89062z"/>
   </g>
   <g id="use53784" transform="matrix(.35278 0 0 .35278 58.775 139.35)">
    <path id="path67311" d="m9.5625-9.6875h-1.7656v5.9531c0 0.3125-0.0625 0.64062-0.15625 0.89062-0.32812 0.78125-1.1406 1.6094-2.3281 1.6094-1.5938 0-2.1562-1.25-2.1562-3.0781v-5.375h-1.75v5.6719c0 3.3906 1.8125 4.2344 3.3281 4.2344 1.7188 0 2.75-1.0156 3.2031-1.7969h0.046875l0.09375 1.5781h1.5625c-0.0625-0.76562-0.078125-1.6406-0.078125-2.6406z"/>
   </g>
   <g id="use53786" transform="matrix(.35278 0 0 .35278 62.698 139.35)">
    <path id="path67315" d="m2.9062 0 0.078125-1.5938h0.0625c0.71875 1.2812 1.8281 1.8125 3.2344 1.8125 2.1562 0 4.3438-1.7188 4.3438-5.1719 0.015625-2.9531-1.6875-4.9531-4.0781-4.9531-1.5625 0-2.6875 0.70312-3.3125 1.7812h-0.03125v-6.0781h-1.75v11.703c0 0.85938-0.03125 1.8438-0.078125 2.5zm0.29688-5.625c0-0.28125 0.0625-0.51562 0.09375-0.71875 0.35938-1.3438 1.4844-2.1562 2.6875-2.1562 1.875 0 2.875 1.6562 2.875 3.5938 0 2.2188-1.0938 3.7188-2.9375 3.7188-1.2812 0-2.2969-0.82812-2.6406-2.0469-0.046875-0.20312-0.078125-0.42188-0.078125-0.64062z"/>
   </g>
   <g id="use53788" transform="matrix(.35278 0 0 .35278 66.748 139.35)">
    <path id="path67319" d="m1.8594-12v2.3125h-1.5v1.3438h1.5v5.2812c0 1.1406 0.1875 2 0.6875 2.5156 0.40625 0.48438 1.0781 0.75 1.8906 0.75 0.6875 0 1.2188-0.10938 1.5625-0.25l-0.078125-1.3125c-0.21875 0.0625-0.5625 0.125-1.0156 0.125-0.98438 0-1.3281-0.6875-1.3281-1.8906v-5.2188h2.5156v-1.3438h-2.5156v-2.7656z"/>
   </g>
   <g id="use53790" transform="matrix(.35278 0 0 .35278 69.119 139.35)">
    <path id="path67323" d="m1.4531 0h1.75v-5.1562c0-0.29688 0.03125-0.57812 0.078125-0.82812 0.23438-1.3125 1.125-2.25 2.3594-2.25 0.23438 0 0.42188 0.015625 0.59375 0.046875v-1.6562c-0.15625-0.03125-0.29688-0.0625-0.5-0.0625-1.1719 0-2.2344 0.82812-2.6719 2.125h-0.078125l-0.0625-1.9062h-1.5469c0.0625 0.90625 0.078125 1.8906 0.078125 3.0312z"/>
   </g>
   <g id="use53794" transform="matrix(.35278 0 0 .35278 71.426 139.35)">
    <path id="path67327" d="m8.4219 0c-0.125-0.65625-0.15625-1.4844-0.15625-2.3125v-3.625c0-1.9375-0.71875-3.9688-3.6875-3.9688-1.2188 0-2.375 0.34375-3.1719 0.85938l0.39062 1.1719c0.6875-0.4375 1.625-0.71875 2.5156-0.71875 1.9844 0 2.2031 1.4375 2.2031 2.2344v0.20312c-3.7344-0.03125-5.8125 1.25-5.8125 3.5938 0 1.4062 1 2.7812 2.9531 2.7812 1.3906 0 2.4219-0.67188 2.9688-1.4375h0.0625l0.125 1.2188zm-1.8594-3.2656c0 0.1875-0.046875 0.39062-0.10938 0.5625-0.26562 0.82812-1.0781 1.625-2.3281 1.625-0.90625 0-1.6719-0.54688-1.6719-1.6875 0-1.875 2.1875-2.2188 4.1094-2.1719z"/>
   </g>
   <g id="use53796" transform="matrix(.35278 0 0 .35278 74.862 139.35)">
    <path id="path67331" d="m8.0625-1.6875c-0.5 0.23438-1.1562 0.48438-2.1562 0.48438-1.9219 0-3.3594-1.375-3.3594-3.6094 0-2.0312 1.1875-3.6719 3.4062-3.6719 0.96875 0 1.625 0.21875 2.0469 0.46875l0.40625-1.3594c-0.48438-0.25-1.4062-0.5-2.4531-0.5-3.1562 0-5.1875 2.1562-5.1875 5.1406 0 2.9531 1.8906 4.9375 4.8125 4.9375 1.2969 0 2.3281-0.32812 2.7812-0.5625z"/>
   </g>
   <g id="use53800" transform="matrix(.35278 0 0 .35278 78.149 139.35)">
    <path id="path67335" d="m1.8594-12v2.3125h-1.5v1.3438h1.5v5.2812c0 1.1406 0.1875 2 0.6875 2.5156 0.40625 0.48438 1.0781 0.75 1.8906 0.75 0.6875 0 1.2188-0.10938 1.5625-0.25l-0.078125-1.3125c-0.21875 0.0625-0.5625 0.125-1.0156 0.125-0.98438 0-1.3281-0.6875-1.3281-1.8906v-5.2188h2.5156v-1.3438h-2.5156v-2.7656z"/>
   </g>
   <g id="use53802" transform="matrix(.35278 0 0 .35278 80.52 139.35)">
    <path id="path67339" d="m3.2188 0v-9.6875h-1.7656v9.6875zm-0.875-13.5c-0.64062 0-1.1094 0.48438-1.1094 1.0938s0.45312 1.0938 1.0625 1.0938c0.70312 0 1.1406-0.48438 1.125-1.0938 0-0.60938-0.42188-1.0938-1.0781-1.0938z"/>
   </g>
   <g id="use53804" transform="matrix(.35278 0 0 .35278 82.206 139.35)">
    <path id="path67343" d="m5.5625-9.9062c-2.6875 0-4.7969 1.9062-4.7969 5.1406 0 3.0625 2.0156 4.9844 4.6406 4.9844 2.3281 0 4.8125-1.5625 4.8125-5.1406 0-2.9531-1.875-4.9844-4.6562-4.9844zm-0.046875 1.3281c2.0781 0 2.9062 2.0781 2.9062 3.7188 0 2.1719-1.2656 3.7656-2.9375 3.7656-1.7188 0-2.9375-1.6094-2.9375-3.7188 0-1.8438 0.89062-3.7656 2.9688-3.7656z"/>
   </g>
   <g id="use53806" transform="matrix(.35278 0 0 .35278 86.115 139.35)">
    <path id="path67347" d="m1.4531 0h1.7656v-5.8125c0-0.3125 0.046875-0.60938 0.125-0.82812 0.29688-0.98438 1.2031-1.7969 2.3594-1.7969 1.6562 0 2.2344 1.2969 2.2344 2.8594v5.5781h1.7656v-5.7812c0-3.3125-2.0781-4.125-3.4219-4.125-1.5938 0-2.7188 0.90625-3.2031 1.8281h-0.03125l-0.10938-1.6094h-1.5625c0.0625 0.8125 0.078125 1.625 0.078125 2.625z"/>
   </g>
  </g>
 </g>
</svg>
