<svg id="svg23405" version="1.1" viewBox="0 0 147.9 32.899" xmlns="http://www.w3.org/2000/svg">
 <title id="title23473">img_19</title>
 <g id="layer1" transform="translate(-8.451 -105.26)">
  <g id="g12099" transform="matrix(.35278 0 0 .35278 -38.658 -840.65)" style="fill:#1c1c19">
   <g id="use12097" transform="translate(542.63 2731.1)">
    <path id="path23349" d="m1.5312 0h1.8438v-6.1094c0-0.35938 0.015625-0.625 0.125-0.875 0.32812-1 1.2656-1.8438 2.4688-1.8438 1.7344 0 2.3438 1.375 2.3438 3.0156v5.8125h1.8281v-6.0312c0-3.4844-2.1719-4.3281-3.5312-4.3281-0.6875 0-1.3438 0.21875-1.875 0.53125-0.57812 0.3125-1.0312 0.76562-1.3281 1.2969h-0.03125v-6.3281h-1.8438z"/>
   </g>
  </g>
  <path id="path12101" d="m149.99 138.02h-58.647v-32.617h58.647z" style="fill:none;stroke-miterlimit:10;stroke-width:.28258;stroke:#173a6e"/>
  <path id="path12103" d="m31.975 125.4c0 6.4575-5.2338 11.691-11.691 11.691-6.4575 0-11.691-5.2338-11.691-11.691s5.2338-11.691 11.691-11.691c6.4575 0 11.691 5.2338 11.691 11.691z" style="fill:none;stroke-miterlimit:10;stroke-width:.28258;stroke:#173a6e"/>
  <g id="g12107" transform="matrix(.35278 0 0 .35278 -38.658 -840.65)">
   <g id="use12105" transform="translate(152.51 2695.5)">
    <path id="path23353" d="m8.0625-1.3594v1.3594h-7.5781c-0.011719-0.34375 0.046875-0.67188 0.17188-0.98438 0.1875-0.50781 0.49219-1.0156 0.92188-1.5156 0.42578-0.5 1.0391-1.0781 1.8438-1.7344 1.2383-1.0195 2.0781-1.8281 2.5156-2.4219 0.4375-0.60156 0.65625-1.1719 0.65625-1.7031 0-0.55078-0.19922-1.0195-0.59375-1.4062-0.39844-0.38281-0.91797-0.57812-1.5625-0.57812-0.67969 0-1.2188 0.20312-1.625 0.60938s-0.60938 0.96875-0.60938 1.6875l-1.4531-0.14062c0.10156-1.082 0.47656-1.9062 1.125-2.4688 0.64453-0.5625 1.5078-0.84375 2.5938-0.84375 1.1016 0 1.9727 0.30859 2.6094 0.92188 0.64453 0.60547 0.96875 1.3555 0.96875 2.25 0 0.46094-0.09375 0.91406-0.28125 1.3594-0.1875 0.4375-0.5 0.90234-0.9375 1.3906-0.4375 0.49219-1.1641 1.1641-2.1719 2.0156-0.84375 0.71094-1.3867 1.1953-1.625 1.4531-0.24219 0.25-0.4375 0.5-0.59375 0.75z"/>
   </g>
  </g>
  <path id="path12109" d="m21.717 109.07 0.28112-1.5337h0.71107l0.08819-0.46718h-2.8277c-0.38999 0-0.62839 0.23428-0.71658 0.70555h0.35278c0.02893-0.15847 0.19982-0.23837 0.51263-0.23837-0.09922 0.55259-0.19292 1.0625-0.28112 1.5337-0.10335 0.54708-0.25356 0.93846-0.452 1.1741h0.46853c0.0028 0 0.05374-0.0592 0.15158-0.17639 0.09646-0.1185 0.19706-0.45061 0.30041-0.99769l0.28663-1.5337h0.93707l-0.28112 1.5337c-0.14745 0.78274 0.01379 1.1741 0.48507 1.1741 0.23426 0 0.4203-0.1571 0.55672-0.46853-0.51538 0.23428-0.70556 0-0.57326-0.70555"/>
  <g id="g12113" transform="matrix(.35278 0 0 .35278 -38.658 -840.65)">
   <g id="use12111" transform="translate(173.51 2695.4)">
    <path id="path23357" d="m1.0469 0 1.5625-8.2969h1.2656l-0.23438 1.25c0.42578-0.58203 0.78906-0.96875 1.0938-1.1562 0.3125-0.1875 0.63281-0.28125 0.96875-0.28125 0.46875 0 0.91406 0.15234 1.3438 0.45312l-0.71875 1.2969c-0.3125-0.19531-0.64062-0.29688-0.98438-0.29688-0.30469 0-0.59375 0.09375-0.875 0.28125-0.27344 0.17969-0.49219 0.43359-0.65625 0.76562-0.25 0.5-0.43359 1.0469-0.54688 1.6406l-0.8125 4.3438z"/>
   </g>
  </g>
  <path id="path12115" d="m75.273 125.4c0 6.4575-5.2352 11.691-11.691 11.691-6.4575 0-11.691-5.2338-11.691-11.691s5.2338-11.691 11.691-11.691c6.4561 0 11.691 5.2338 11.691 11.691z" style="fill:none;stroke-miterlimit:10;stroke-width:.28258;stroke:#173a6e"/>
  <g id="g12119" transform="matrix(.35278 0 0 .35278 -38.658 -840.65)">
   <g id="use12117" transform="translate(275.25 2695.5)">
    <path id="path23361" d="m8.0625-1.3594v1.3594h-7.5781c-0.011719-0.34375 0.046875-0.67188 0.17188-0.98438 0.1875-0.50781 0.49219-1.0156 0.92188-1.5156 0.42578-0.5 1.0391-1.0781 1.8438-1.7344 1.2383-1.0195 2.0781-1.8281 2.5156-2.4219 0.4375-0.60156 0.65625-1.1719 0.65625-1.7031 0-0.55078-0.19922-1.0195-0.59375-1.4062-0.39844-0.38281-0.91797-0.57812-1.5625-0.57812-0.67969 0-1.2188 0.20312-1.625 0.60938s-0.60938 0.96875-0.60938 1.6875l-1.4531-0.14062c0.10156-1.082 0.47656-1.9062 1.125-2.4688 0.64453-0.5625 1.5078-0.84375 2.5938-0.84375 1.1016 0 1.9727 0.30859 2.6094 0.92188 0.64453 0.60547 0.96875 1.3555 0.96875 2.25 0 0.46094-0.09375 0.91406-0.28125 1.3594-0.1875 0.4375-0.5 0.90234-0.9375 1.3906-0.4375 0.49219-1.1641 1.1641-2.1719 2.0156-0.84375 0.71094-1.3867 1.1953-1.625 1.4531-0.24219 0.25-0.4375 0.5-0.59375 0.75z"/>
   </g>
  </g>
  <path id="path12121" d="m65.013 109.07 0.2825-1.5337h0.71107l0.08682-0.46718h-2.8264c-0.38998 0-0.62838 0.23428-0.71658 0.70555h0.35278c0.02893-0.15847 0.19982-0.23837 0.51263-0.23837-0.1006 0.55259-0.1943 1.0625-0.2825 1.5337-0.10197 0.54708-0.25218 0.93846-0.45062 1.1741h0.46854c0.0028 0 0.05374-0.0592 0.1502-0.17639 0.09784-0.1185 0.19844-0.45061 0.30041-0.99769l0.28801-1.5337h0.93707l-0.2825 1.5337c-0.14607 0.78274 0.01517 1.1741 0.48644 1.1741 0.23427 0 0.4203-0.1571 0.55535-0.46853-0.51401 0.23428-0.70556 0-0.57326-0.70555"/>
  <g id="g12125" transform="matrix(.35278 0 0 .35278 -38.658 -840.65)">
   <g id="use12123" transform="translate(296.24 2695.4)">
    <path id="path23365" d="m1.0469 0 1.5625-8.2969h1.2656l-0.23438 1.25c0.42578-0.58203 0.78906-0.96875 1.0938-1.1562 0.3125-0.1875 0.63281-0.28125 0.96875-0.28125 0.46875 0 0.91406 0.15234 1.3438 0.45312l-0.71875 1.2969c-0.3125-0.19531-0.64062-0.29688-0.98438-0.29688-0.30469 0-0.59375 0.09375-0.875 0.28125-0.27344 0.17969-0.49219 0.43359-0.65625 0.76562-0.25 0.5-0.43359 1.0469-0.54688 1.6406l-0.8125 4.3438z"/>
   </g>
  </g>
 </g>
</svg>
