<svg id="svg42670" version="1.1" viewBox="0 0 71.87 71.87" xmlns="http://www.w3.org/2000/svg">
 <title id="title42897">img_33</title>
 <g id="layer1" transform="translate(-50.999 -111.48)">
  <path id="path38071" d="m61.704 113.82v67.185" style="fill:none;stroke-miterlimit:10;stroke-width:.38806;stroke:#1c1c19"/>
  <path id="path38073" d="m61.704 111.48c-0.40928 1.1024-1.1066 2.4708-1.8466 3.3183l1.8466-0.66699 1.8452 0.66699c-0.73863-0.84751-1.4359-2.2159-1.8452-3.3183" style="fill:#1c1c19"/>
  <path id="path38075" d="m61.704 183.35c-0.40928-1.1024-1.1066-2.4708-1.8466-3.3183l1.8466 0.66838 1.8452-0.66838c-0.73863 0.84752-1.4359 2.2159-1.8452 3.3183" style="fill:#1c1c19"/>
  <path id="path38077" d="m120.53 170.36h-67.185" style="fill:none;stroke-miterlimit:10;stroke-width:.38806;stroke:#1c1c19"/>
  <path id="path38079" d="m122.87 170.36c-1.1024-0.40792-2.4708-1.1066-3.3183-1.8452l0.66697 1.8452-0.66697 1.8466c0.84749-0.74002 2.2159-1.4373 3.3183-1.8466" style="fill:#1c1c19"/>
  <path id="path38081" d="m50.999 170.36c1.1024-0.40792 2.4708-1.1066 3.3183-1.8452l-0.66835 1.8452 0.66835 1.8466c-0.84749-0.74002-2.2159-1.4373-3.3183-1.8466" style="fill:#1c1c19"/>
  <path id="path38083" d="m108.22 129.25-54.715 33.958" style="fill:none;stroke-miterlimit:10;stroke-width:.42122;stroke:#1c1c19"/>
  <path id="path38085" d="m110.38 127.91c-1.2513 0.25354-2.9118 0.39271-4.1162 0.19706l1.6716 1.3201 0.44097 2.085c0.35829-1.1672 1.2209-2.5935 2.0037-3.6022" style="fill:#1c1c19"/>
  <path id="path38087" d="m73.497 168.88v3.0868" style="fill:none;stroke-miterlimit:10;stroke-width:.42122;stroke:#1c1c19"/>
  <path id="path38089" d="m85.089 168.88v3.0868" style="fill:none;stroke-miterlimit:10;stroke-width:.42122;stroke:#1c1c19"/>
  <path id="path38091" d="m96.683 168.88v3.0868" style="fill:none;stroke-miterlimit:10;stroke-width:.42122;stroke:#1c1c19"/>
  <path id="path38093" d="m108.27 168.88v3.0868" style="fill:none;stroke-miterlimit:10;stroke-width:.42122;stroke:#1c1c19"/>
  <path id="path38095" d="m59.951 158.28h3.0868" style="fill:none;stroke-miterlimit:10;stroke-width:.42122;stroke:#1c1c19"/>
  <path id="path38097" d="m59.951 146.69h3.0868" style="fill:none;stroke-miterlimit:10;stroke-width:.42122;stroke:#1c1c19"/>
  <path id="path38099" d="m59.951 135.1h3.0868" style="fill:none;stroke-miterlimit:10;stroke-width:.42122;stroke:#1c1c19"/>
  <path id="path38101" d="m59.951 123.5h3.0868" style="fill:none;stroke-miterlimit:10;stroke-width:.42122;stroke:#1c1c19"/>
  <g id="use38103" transform="matrix(.35278 0 0 .35278 64.757 118.23)" style="fill:#1c1c19">
   <path id="path42473" d="m0.14062-7.6719 2.8438 7.0625c0.0625 0.1875 0.09375 0.29688 0.09375 0.375s-0.046875 0.1875-0.10938 0.32812c-0.32812 0.71875-0.79688 1.25-1.1719 1.5469-0.42188 0.35938-0.875 0.57812-1.2188 0.6875l0.34375 1.1719c0.34375-0.0625 1.0312-0.29688 1.7031-0.90625 0.95312-0.8125 1.6406-2.1719 2.6406-4.7969l2.0781-5.4688h-1.4688l-1.5156 4.5c-0.1875 0.5625-0.34375 1.1406-0.5 1.6094h-0.03125c-0.125-0.46875-0.3125-1.0625-0.48438-1.5781l-1.6875-4.5312z"/>
  </g>
  <g id="use38107" transform="matrix(.35278 0 0 .35278 115.22 165.89)" style="fill:#1c1c19">
   <path id="path42477" d="m0.25-7.6719 2.6094 3.7656-2.7344 3.9062h1.5312l1.1094-1.7344c0.29688-0.45312 0.5625-0.85938 0.8125-1.3281h0.03125c0.26562 0.46875 0.53125 0.89062 0.82812 1.3281l1.125 1.7344h1.5781l-2.6875-3.9688 2.6094-3.7031h-1.5l-1.0781 1.6406c-0.25 0.40625-0.5 0.79688-0.76562 1.2656h-0.046875c-0.25-0.4375-0.48438-0.82812-0.76562-1.25l-1.0938-1.6562z"/>
  </g>
  <g id="use38111" transform="matrix(.35278 0 0 .35278 56.532 175.94)" style="fill:#1c1c19">
   <path id="path42481" d="m4.1562-10.469c-2.0938 0-3.5781 1.8906-3.5781 5.3438 0.03125 3.4062 1.3906 5.2969 3.4062 5.2969 2.2812 0 3.5781-1.9375 3.5781-5.4375 0-3.2812-1.2344-5.2031-3.4062-5.2031zm-0.078125 1.0781c1.4375 0 2.0781 1.6562 2.0781 4.1875 0 2.6406-0.67188 4.2969-2.0938 4.2969-1.2812 0-2.0938-1.5156-2.0938-4.2031 0-2.7969 0.89062-4.2812 2.1094-4.2812z"/>
  </g>
  <path id="path38115" d="m96.683 136.41v17.509h-28.213" style="fill:none;stroke-miterlimit:10;stroke-width:.42122;stroke:#1c1c19"/>
  <g id="use38117" transform="matrix(.35278 0 0 .35278 66.423 144.02)">
   <path id="path42485" d="m2.4062 2.6094c-0.46094-0.76172-0.80469-1.6484-1.0312-2.6562-0.21875-1.0195-0.22656-2.0781-0.015625-3.1719 0.17578-0.95703 0.50391-1.875 0.98438-2.75 0.55078-1.0195 1.2969-2.0352 2.2344-3.0469h0.78125c-0.63672 0.83594-1.0703 1.4336-1.2969 1.7969-0.34375 0.55469-0.64844 1.1328-0.90625 1.7344-0.3125 0.76172-0.54297 1.5234-0.6875 2.2812-0.35547 1.9375-0.11719 3.875 0.71875 5.8125z"/>
  </g>
  <g id="use38119" transform="matrix(.35278 0 0 .35278 67.88 144.02)">
   <path id="path42489" d="m0.09375 0 2.9688-3.3438-1.5938-3.0781h1.3594l0.70312 1.5c0.13281 0.29297 0.23828 0.53125 0.3125 0.71875 0.22656-0.25781 0.4375-0.49219 0.625-0.70312l1.375-1.5156h1.2969l-2.7812 3.0156 1.75 3.4062h-1.3438l-0.9375-2-0.26562-0.53125-2.1562 2.5312z"/>
  </g>
  <g id="use38123" transform="matrix(.35278 0 0 .35278 69.793 145.48)">
   <path id="path42493" d="m2.6875 0h-0.625l0.76562-4.0469c-0.1875 0.14844-0.42188 0.29297-0.70312 0.4375-0.27344 0.14844-0.51562 0.25781-0.73438 0.32812l0.125-0.625c0.39453-0.16406 0.74219-0.36328 1.0469-0.59375 0.3125-0.23828 0.53906-0.47266 0.6875-0.70312h0.40625z"/>
  </g>
  <g id="use38127" transform="matrix(.35278 0 0 .35278 71.484 144.02)">
   <path id="path42497" d="m1.0938 0 0.23438-1.2344h1.25l-0.23438 1.2344c-0.085937 0.45703-0.23438 0.82812-0.45312 1.1094-0.21094 0.28125-0.50781 0.49219-0.89062 0.64062l-0.20312-0.46875c0.23828-0.09375 0.42969-0.24219 0.57812-0.4375 0.14453-0.19922 0.25781-0.48047 0.34375-0.84375z"/>
  </g>
  <g id="use38131" transform="matrix(.35278 0 0 .35278 73.915 144.02)">
   <path id="path42501" d="m0.29688 2.4688 0.078125-1.0156c0.21875 0.0625 0.41406 0.09375 0.59375 0.09375 0.25 0 0.45312-0.042969 0.60938-0.125 0.15625-0.074219 0.29688-0.18359 0.42188-0.32812 0.09375-0.11719 0.25781-0.38672 0.5-0.8125 0.03125-0.0625 0.078125-0.15234 0.14062-0.26562l-1.2344-6.4375h1.1719l0.625 3.7188c0.09375 0.46875 0.16016 0.96484 0.20312 1.4844 0.21875-0.5 0.45703-0.98828 0.71875-1.4688l2.0781-3.7344h1.0938l-3.6719 6.5312c-0.39844 0.70703-0.69531 1.1914-0.89062 1.4531-0.26172 0.36328-0.53125 0.62891-0.8125 0.79688-0.28125 0.16406-0.59375 0.25-0.9375 0.25-0.21094 0-0.4375-0.046875-0.6875-0.14062z"/>
  </g>
  <g id="use38135" transform="matrix(.35278 0 0 .35278 75.827 145.48)">
   <path id="path42505" d="m2.6875 0h-0.625l0.76562-4.0469c-0.1875 0.14844-0.42188 0.29297-0.70312 0.4375-0.27344 0.14844-0.51562 0.25781-0.73438 0.32812l0.125-0.625c0.39453-0.16406 0.74219-0.36328 1.0469-0.59375 0.3125-0.23828 0.53906-0.47266 0.6875-0.70312h0.40625z"/>
  </g>
  <g id="use38139" transform="matrix(.35278 0 0 .35278 77.518 144.02)">
   <path id="path42509" d="m1.0469 2.6094h-0.78125c1.5703-1.9375 2.5352-3.875 2.8906-5.8125 0.14453-0.75781 0.20312-1.5156 0.17188-2.2656-0.03125-0.60156-0.12109-1.1797-0.26562-1.7344-0.085937-0.36328-0.29297-0.96875-0.625-1.8125h0.78125c0.57031 1.0117 0.94531 2.0273 1.125 3.0469 0.13281 0.875 0.11328 1.793-0.0625 2.75-0.21094 1.0938-0.62109 2.1523-1.2344 3.1719-0.60547 1.0078-1.2734 1.8945-2 2.6562z"/>
  </g>
  <g id="use38143" transform="matrix(.35278 0 0 .35278 85.091 132.63)">
   <path id="path42513" d="m2.4062 2.6094c-0.46094-0.76172-0.80469-1.6484-1.0312-2.6562-0.21875-1.0195-0.22656-2.0781-0.015625-3.1719 0.17578-0.95703 0.50391-1.875 0.98438-2.75 0.55078-1.0195 1.2969-2.0352 2.2344-3.0469h0.78125c-0.63672 0.83594-1.0703 1.4336-1.2969 1.7969-0.34375 0.55469-0.64844 1.1328-0.90625 1.7344-0.3125 0.76172-0.54297 1.5234-0.6875 2.2812-0.35547 1.9375-0.11719 3.875 0.71875 5.8125z"/>
  </g>
  <g id="use38145" transform="matrix(.35278 0 0 .35278 86.547 132.63)">
   <path id="path42517" d="m0.09375 0 2.9688-3.3438-1.5938-3.0781h1.3594l0.70312 1.5c0.13281 0.29297 0.23828 0.53125 0.3125 0.71875 0.22656-0.25781 0.4375-0.49219 0.625-0.70312l1.375-1.5156h1.2969l-2.7812 3.0156 1.75 3.4062h-1.3438l-0.9375-2-0.26562-0.53125-2.1562 2.5312z"/>
  </g>
  <g id="use38149" transform="matrix(.35278 0 0 .35278 88.46 134.09)">
   <path id="path42521" d="m3.75-0.60938-0.10938 0.60938h-3.4219c0.03125-0.15625 0.082031-0.30078 0.15625-0.4375 0.13281-0.23828 0.31641-0.46875 0.54688-0.6875 0.23828-0.22656 0.56641-0.49219 0.98438-0.79688 0.64453-0.45703 1.0938-0.82031 1.3438-1.0938 0.25-0.26953 0.39453-0.52344 0.4375-0.76562 0.050781-0.25 0-0.45703-0.15625-0.625-0.14844-0.17578-0.36719-0.26562-0.65625-0.26562-0.30469 0-0.5625 0.09375-0.78125 0.28125-0.21875 0.17969-0.35547 0.42969-0.40625 0.75l-0.65625-0.0625c0.13281-0.48828 0.36719-0.85938 0.70312-1.1094 0.34375-0.25781 0.75781-0.39062 1.25-0.39062 0.5 0 0.86719 0.14062 1.1094 0.42188 0.23828 0.27344 0.32031 0.60938 0.25 1.0156-0.042969 0.21094-0.125 0.41797-0.25 0.625-0.125 0.19922-0.30859 0.40625-0.54688 0.625-0.23047 0.21875-0.60938 0.52344-1.1406 0.90625-0.44922 0.32422-0.74219 0.54297-0.875 0.65625-0.125 0.11719-0.23047 0.23047-0.3125 0.34375z"/>
  </g>
  <g id="use38153" transform="matrix(.35278 0 0 .35278 90.151 132.63)">
   <path id="path42525" d="m1.0938 0 0.23438-1.2344h1.25l-0.23438 1.2344c-0.085937 0.45703-0.23438 0.82812-0.45312 1.1094-0.21094 0.28125-0.50781 0.49219-0.89062 0.64062l-0.20312-0.46875c0.23828-0.09375 0.42969-0.24219 0.57812-0.4375 0.14453-0.19922 0.25781-0.48047 0.34375-0.84375z"/>
  </g>
  <g id="use38157" transform="matrix(.35278 0 0 .35278 92.582 132.63)">
   <path id="path42529" d="m0.29688 2.4688 0.078125-1.0156c0.21875 0.0625 0.41406 0.09375 0.59375 0.09375 0.25 0 0.45312-0.042969 0.60938-0.125 0.15625-0.074219 0.29688-0.18359 0.42188-0.32812 0.09375-0.11719 0.25781-0.38672 0.5-0.8125 0.03125-0.0625 0.078125-0.15234 0.14062-0.26562l-1.2344-6.4375h1.1719l0.625 3.7188c0.09375 0.46875 0.16016 0.96484 0.20312 1.4844 0.21875-0.5 0.45703-0.98828 0.71875-1.4688l2.0781-3.7344h1.0938l-3.6719 6.5312c-0.39844 0.70703-0.69531 1.1914-0.89062 1.4531-0.26172 0.36328-0.53125 0.62891-0.8125 0.79688-0.28125 0.16406-0.59375 0.25-0.9375 0.25-0.21094 0-0.4375-0.046875-0.6875-0.14062z"/>
  </g>
  <g id="use38161" transform="matrix(.35278 0 0 .35278 94.494 134.09)">
   <path id="path42533" d="m2.6875 0h-0.625l0.76562-4.0469c-0.1875 0.14844-0.42188 0.29297-0.70312 0.4375-0.27344 0.14844-0.51562 0.25781-0.73438 0.32812l0.125-0.625c0.39453-0.16406 0.74219-0.36328 1.0469-0.59375 0.3125-0.23828 0.53906-0.47266 0.6875-0.70312h0.40625z"/>
  </g>
  <g id="use38165" transform="matrix(.35278 0 0 .35278 96.185 132.63)">
   <path id="path42537" d="m1.0469 2.6094h-0.78125c1.5703-1.9375 2.5352-3.875 2.8906-5.8125 0.14453-0.75781 0.20312-1.5156 0.17188-2.2656-0.03125-0.60156-0.12109-1.1797-0.26562-1.7344-0.085937-0.36328-0.29297-0.96875-0.625-1.8125h0.78125c0.57031 1.0117 0.94531 2.0273 1.125 3.0469 0.13281 0.875 0.11328 1.793-0.0625 2.75-0.21094 1.0938-0.62109 2.1523-1.2344 3.1719-0.60547 1.0078-1.2734 1.8945-2 2.6562z"/>
  </g>
  <g id="use38169" transform="matrix(.35278 0 0 .35278 100.17 146.69)">
   <path id="path42541" d="m0.3125 2.5 0.0625-1.0312c0.22656 0.0625 0.42969 0.09375 0.60938 0.09375 0.25 0 0.45312-0.042969 0.60938-0.125 0.16406-0.074219 0.3125-0.1875 0.4375-0.34375 0.09375-0.10547 0.25391-0.375 0.48438-0.8125 0.03125-0.0625 0.082031-0.15234 0.15625-0.26562l-1.25-6.5156h1.1875l0.64062 3.7656c0.082031 0.48047 0.14844 0.98047 0.20312 1.5 0.21875-0.5 0.45703-0.98828 0.71875-1.4688l2.0938-3.7969h1.1094l-3.7031 6.6094c-0.40625 0.71875-0.71094 1.207-0.90625 1.4688-0.27344 0.36328-0.54688 0.62891-0.82812 0.79688-0.28125 0.17578-0.60156 0.26562-0.95312 0.26562-0.21094 0-0.43359-0.046875-0.67188-0.14062z"/>
  </g>
  <g id="use38173" transform="matrix(.35278 0 0 .35278 102.1 148.16)">
   <path id="path42545" d="m3.7812-0.60938-0.10938 0.60938h-3.4531c0.03125-0.15625 0.082031-0.30469 0.15625-0.45312 0.13281-0.22656 0.32031-0.45703 0.5625-0.6875 0.23828-0.22656 0.56641-0.49219 0.98438-0.79688 0.65625-0.45703 1.1016-0.82031 1.3438-1.0938 0.25-0.28125 0.39844-0.53906 0.45312-0.78125 0.039063-0.25-0.011719-0.46094-0.15625-0.64062-0.13672-0.17578-0.35156-0.26562-0.64062-0.26562-0.3125 0-0.58594 0.09375-0.8125 0.28125-0.21875 0.1875-0.35938 0.44531-0.42188 0.76562l-0.64062-0.0625c0.13281-0.48828 0.375-0.86328 0.71875-1.125 0.34375-0.25781 0.75781-0.39062 1.25-0.39062 0.50781 0 0.88281 0.14062 1.125 0.42188 0.23828 0.28125 0.32031 0.625 0.25 1.0312-0.042969 0.21094-0.125 0.41797-0.25 0.625-0.125 0.19922-0.3125 0.41406-0.5625 0.64062-0.24219 0.21875-0.62109 0.52344-1.1406 0.90625-0.44922 0.32422-0.74219 0.54297-0.875 0.65625-0.125 0.11719-0.24219 0.23438-0.34375 0.35938z"/>
  </g>
  <g id="use38177" transform="matrix(.35278 0 0 .35278 103.81 146.69)">
   <path id="path42549" d="m0.89062-2.6875 0.21875-1.1094h3.3906l-0.21875 1.1094z"/>
  </g>
  <g id="use38181" transform="matrix(.35278 0 0 .35278 106.51 146.69)">
   <path id="path42553" d="m0.3125 2.5 0.0625-1.0312c0.22656 0.0625 0.42969 0.09375 0.60938 0.09375 0.25 0 0.45312-0.042969 0.60938-0.125 0.16406-0.074219 0.3125-0.1875 0.4375-0.34375 0.09375-0.10547 0.25391-0.375 0.48438-0.8125 0.03125-0.0625 0.082031-0.15234 0.15625-0.26562l-1.25-6.5156h1.1875l0.64062 3.7656c0.082031 0.48047 0.14844 0.98047 0.20312 1.5 0.21875-0.5 0.45703-0.98828 0.71875-1.4688l2.0938-3.7969h1.1094l-3.7031 6.6094c-0.40625 0.71875-0.71094 1.207-0.90625 1.4688-0.27344 0.36328-0.54688 0.62891-0.82812 0.79688-0.28125 0.17578-0.60156 0.26562-0.95312 0.26562-0.21094 0-0.43359-0.046875-0.67188-0.14062z"/>
  </g>
  <g id="use38185" transform="matrix(.35278 0 0 .35278 108.44 148.16)">
   <path id="path42557" d="m2.7188 0h-0.64062l0.76562-4.0938c-0.1875 0.15625-0.42188 0.30859-0.70312 0.45312-0.27344 0.14844-0.51172 0.25781-0.71875 0.32812l0.10938-0.625c0.38281-0.16406 0.73438-0.36719 1.0469-0.60938 0.32031-0.23828 0.5625-0.47266 0.71875-0.70312h0.40625z"/>
  </g>
  <g id="use38189" transform="matrix(.35278 0 0 .35278 78.559 159.74)">
   <path id="path42561" d="m0.09375 0 3.0156-3.375-1.625-3.125h1.375l0.71875 1.5312c0.13281 0.28125 0.23828 0.52344 0.3125 0.71875 0.22656-0.26953 0.44141-0.50781 0.64062-0.71875l1.375-1.5312h1.3125l-2.8281 3.0625 1.7812 3.4375h-1.3438l-0.96875-2.0156-0.23438-0.54688-2.2031 2.5625z"/>
  </g>
  <g id="use38193" transform="matrix(.35278 0 0 .35278 80.493 161.21)">
   <path id="path42565" d="m3.7812-0.60938-0.10938 0.60938h-3.4531c0.03125-0.15625 0.082031-0.30469 0.15625-0.45312 0.13281-0.22656 0.32031-0.45703 0.5625-0.6875 0.23828-0.22656 0.56641-0.49219 0.98438-0.79688 0.65625-0.45703 1.1016-0.82031 1.3438-1.0938 0.25-0.28125 0.39844-0.53906 0.45312-0.78125 0.039063-0.25-0.011719-0.46094-0.15625-0.64062-0.13672-0.17578-0.35156-0.26562-0.64062-0.26562-0.3125 0-0.58594 0.09375-0.8125 0.28125-0.21875 0.1875-0.35938 0.44531-0.42188 0.76562l-0.64062-0.0625c0.13281-0.48828 0.375-0.86328 0.71875-1.125 0.34375-0.25781 0.75781-0.39062 1.25-0.39062 0.50781 0 0.88281 0.14062 1.125 0.42188 0.23828 0.28125 0.32031 0.625 0.25 1.0312-0.042969 0.21094-0.125 0.41797-0.25 0.625-0.125 0.19922-0.3125 0.41406-0.5625 0.64062-0.24219 0.21875-0.62109 0.52344-1.1406 0.90625-0.44922 0.32422-0.74219 0.54297-0.875 0.65625-0.125 0.11719-0.24219 0.23438-0.34375 0.35938z"/>
  </g>
  <g id="use38197" transform="matrix(.35278 0 0 .35278 82.202 159.74)">
   <path id="path42569" d="m0.89062-2.6875 0.21875-1.1094h3.3906l-0.21875 1.1094z"/>
  </g>
  <g id="use38201" transform="matrix(.35278 0 0 .35278 84.902 159.74)">
   <path id="path42573" d="m0.09375 0 3.0156-3.375-1.625-3.125h1.375l0.71875 1.5312c0.13281 0.28125 0.23828 0.52344 0.3125 0.71875 0.22656-0.26953 0.44141-0.50781 0.64062-0.71875l1.375-1.5312h1.3125l-2.8281 3.0625 1.7812 3.4375h-1.3438l-0.96875-2.0156-0.23438-0.54688-2.2031 2.5625z"/>
  </g>
  <g id="use38205" transform="matrix(.35278 0 0 .35278 86.835 161.21)">
   <path id="path42577" d="m2.7188 0h-0.64062l0.76562-4.0938c-0.1875 0.15625-0.42188 0.30859-0.70312 0.45312-0.27344 0.14844-0.51172 0.25781-0.71875 0.32812l0.10938-0.625c0.38281-0.16406 0.73438-0.36719 1.0469-0.60938 0.32031-0.23828 0.5625-0.47266 0.71875-0.70312h0.40625z"/>
  </g>
  <path id="path38209" d="m97.446 136.57c0 0.45336-0.36794 0.82131-0.82131 0.82131-0.452 0-0.81993-0.36795-0.81993-0.82131 0-0.45201 0.36794-0.81996 0.81993-0.81996 0.45337 0 0.82131 0.36795 0.82131 0.81996"/>
  <path id="path38211" d="m69.29 153.92c0 0.45339-0.36656 0.81992-0.81993 0.81992-0.45337 0-0.81993-0.36653-0.81993-0.81992 0-0.45336 0.36656-0.81993 0.81993-0.81993 0.45338 0 0.81993 0.36657 0.81993 0.81993"/>
 </g>
</svg>
