<svg id="svg24099" version="1.1" viewBox="0 0 54.18 7.8019" xmlns="http://www.w3.org/2000/svg">
 <title id="title24203">img_21</title>
 <g id="g13261" transform="matrix(.35278 0 0 .35278 -47.277 -1020.3)">
  <g id="use13259" transform="translate(132.66,2907.7)">
   <path id="path24019" d="m1.4062-3.6875 1.4688-0.125c-0.054687 0.57422 0.00781 1.0469 0.1875 1.4219 0.1875 0.36719 0.51953 0.66406 1 0.89062 0.47656 0.21875 1.0391 0.32812 1.6875 0.32812 0.58203 0 1.1094-0.082031 1.5781-0.25 0.47656-0.17578 0.85156-0.41016 1.125-0.70312 0.26953-0.30078 0.4375-0.62891 0.5-0.98438 0.070313-0.36328 0.023438-0.67578-0.14062-0.9375-0.15625-0.26953-0.45312-0.5-0.89062-0.6875-0.28125-0.11328-0.92969-0.29688-1.9375-0.54688-1-0.25781-1.6953-0.5-2.0781-0.71875-0.49219-0.28906-0.83594-0.64453-1.0312-1.0625-0.1875-0.42578-0.23047-0.90625-0.125-1.4375 0.10156-0.57031 0.36719-1.1094 0.79688-1.6094 0.42578-0.50781 0.97656-0.89453 1.6562-1.1562 0.67578-0.25781 1.3984-0.39062 2.1719-0.39062 0.85156 0 1.5781 0.14062 2.1719 0.42188 0.59375 0.27344 1.0156 0.67188 1.2656 1.2031s0.32812 1.1328 0.23438 1.7969l-1.4688 0.10938c0.039063-0.71875-0.125-1.2578-0.5-1.625-0.375-0.375-1.0078-0.5625-1.8906-0.5625-0.91797 0-1.6172 0.16797-2.0938 0.5-0.48047 0.33594-0.76562 0.74219-0.85938 1.2188-0.074219 0.40625 0.00781 0.74609 0.25 1.0156 0.23828 0.26172 0.94531 0.53125 2.125 0.8125 1.1875 0.28125 1.9883 0.52734 2.4062 0.73438 0.61328 0.30469 1.0352 0.69531 1.2656 1.1719 0.22656 0.46875 0.28516 1.0117 0.17188 1.625-0.11719 0.60547-0.40234 1.1797-0.85938 1.7188-0.44922 0.54297-1.0273 0.96484-1.7344 1.2656-0.71094 0.30078-1.4688 0.45312-2.2812 0.45312-1.043 0-1.8867-0.15234-2.5312-0.45312-0.63672-0.3125-1.1016-0.76953-1.3906-1.375-0.29297-0.60156-0.375-1.2891-0.25-2.0625z"/>
  </g>
 </g>
 <path id="path13263" d="m8.4621 4.216h-3.2908v-0.46852h3.2908zm-3.2908-1.6426h3.2908v0.46852h-3.2908z"/>
 <path id="path13265" d="m13.152 4.338 0.2825-1.5324h0.70969l0.08819-0.46852h-2.8277c-0.38861 0-0.62838 0.23566-0.71658 0.70556h0.35278c0.0303-0.15709 0.20119-0.23703 0.51401-0.23703-0.1006 0.55122-0.1943 1.0625-0.2825 1.5324-0.10197 0.54846-0.25356 0.9398-0.452 1.1741h0.46853c0.0041 0 0.05375-0.05789 0.15158-0.17639 0.09784-0.11712 0.19844-0.44923 0.30041-0.99769l0.28663-1.5324h0.93844l-0.2825 1.5324c-0.14607 0.78271 0.01517 1.1741 0.48507 1.1741 0.23564 0 0.4203-0.15572 0.55673-0.46852-0.51401 0.23562-0.70556 0-0.57326-0.70556"/>
 <g id="g13269" transform="matrix(.35278 0 0 .35278 -47.277 -1020.3)">
  <g id="use13267" transform="translate(173.66,2907.7)">
   <path id="path24023" d="m1.0469 0 1.5625-8.2969h1.2656l-0.23438 1.25c0.42578-0.58203 0.78906-0.96875 1.0938-1.1562 0.3125-0.1875 0.63281-0.28125 0.96875-0.28125 0.46875 0 0.91406 0.15234 1.3438 0.45312l-0.71875 1.2969c-0.3125-0.19531-0.64062-0.29688-0.98438-0.29688-0.30469 0-0.59375 0.09375-0.875 0.28125-0.27344 0.17969-0.49219 0.43359-0.65625 0.76562-0.25 0.5-0.43359 1.0469-0.54688 1.6406l-0.8125 4.3438z"/>
  </g>
 </g>
 <g id="g13273" transform="matrix(.35278 0 0 .35278 -47.277 -1020.3)">
  <g id="use13271" transform="translate(258.18,2907.7)">
   <path id="path24027" d="m1.0469 0 1.5625-8.2969h1.2656l-0.23438 1.25c0.42578-0.58203 0.78906-0.96875 1.0938-1.1562 0.3125-0.1875 0.63281-0.28125 0.96875-0.28125 0.46875 0 0.91406 0.15234 1.3438 0.45312l-0.71875 1.2969c-0.3125-0.19531-0.64062-0.29688-0.98438-0.29688-0.30469 0-0.59375 0.09375-0.875 0.28125-0.27344 0.17969-0.49219 0.43359-0.65625 0.76562-0.25 0.5-0.43359 1.0469-0.54688 1.6406l-0.8125 4.3438z"/>
  </g>
 </g>
 <g id="g13277" transform="matrix(.35278 0 0 .35278 -47.277 -1020.3)">
  <g id="use13275" transform="translate(179.67,2900.7)">
   <path id="path24031" d="m6.0469-1.0156v1.0156h-5.6875c0-0.25 0.039063-0.49219 0.125-0.73438 0.14453-0.38281 0.375-0.76562 0.6875-1.1406 0.32031-0.375 0.78516-0.80469 1.3906-1.2969 0.9375-0.76953 1.5664-1.3789 1.8906-1.8281 0.33203-0.44531 0.5-0.86719 0.5-1.2656 0-0.41406-0.15234-0.76562-0.45312-1.0469-0.30469-0.28906-0.69531-0.4375-1.1719-0.4375-0.51172 0-0.91797 0.15234-1.2188 0.45312-0.30469 0.30469-0.46094 0.72656-0.46875 1.2656l-1.0781-0.10938c0.070313-0.8125 0.34766-1.4258 0.82812-1.8438 0.48828-0.42578 1.1445-0.64062 1.9688-0.64062 0.82031 0 1.4727 0.23047 1.9531 0.6875 0.47656 0.46094 0.71875 1.0273 0.71875 1.7031 0 0.34375-0.074219 0.68359-0.21875 1.0156-0.13672 0.32422-0.37109 0.67188-0.70312 1.0469-0.32422 0.36719-0.85938 0.86719-1.6094 1.5-0.63672 0.53125-1.0469 0.89844-1.2344 1.0938-0.17969 0.1875-0.32422 0.375-0.4375 0.5625z"/>
  </g>
 </g>
 <path id="path13279" d="m19.635 3.632h1.4111v1.4111h0.47405v-1.4111h1.4111v-0.47406h-1.4111v-1.4111h-0.47405v1.4111h-1.4111z"/>
 <path id="path13281" d="m27.264 4.338 0.2825-1.5324h0.70969l0.08819-0.46852h-2.8277c-0.38861 0-0.62838 0.23566-0.71658 0.70556h0.35278c0.0303-0.15709 0.20119-0.23703 0.51401-0.23703-0.1006 0.55122-0.1943 1.0625-0.2825 1.5324-0.10197 0.54846-0.25356 0.9398-0.452 1.1741h0.46853c0.0041 0 0.05375-0.05789 0.15158-0.17639 0.09784-0.11712 0.19844-0.44923 0.30041-0.99769l0.28663-1.5324h0.93845l-0.2825 1.5324c-0.14607 0.78271 0.01517 1.1741 0.48507 1.1741 0.23564 0 0.4203-0.15572 0.55672-0.46852-0.51401 0.23562-0.70556 0-0.57326-0.70556"/>
 <g id="g13285" transform="matrix(.35278 0 0 .35278 -47.277 -1020.3)">
  <g id="use13283" transform="translate(213.66,2907.7)">
   <path id="path24035" d="m1.0469 0 1.5625-8.2969h1.2656l-0.23438 1.25c0.42578-0.58203 0.78906-0.96875 1.0938-1.1562 0.3125-0.1875 0.63281-0.28125 0.96875-0.28125 0.46875 0 0.91406 0.15234 1.3438 0.45312l-0.71875 1.2969c-0.3125-0.19531-0.64062-0.29688-0.98438-0.29688-0.30469 0-0.59375 0.09375-0.875 0.28125-0.27344 0.17969-0.49219 0.43359-0.65625 0.76562-0.25 0.5-0.43359 1.0469-0.54688 1.6406l-0.8125 4.3438z"/>
  </g>
 </g>
 <g id="g13289" transform="matrix(.35278 0 0 .35278 -47.277 -1020.3)">
  <g id="use13287" transform="translate(219.67,2900.7)">
   <path id="path24039" d="m6.0469-1.0156v1.0156h-5.6875c0-0.25 0.039063-0.49219 0.125-0.73438 0.14453-0.38281 0.375-0.76562 0.6875-1.1406 0.32031-0.375 0.78516-0.80469 1.3906-1.2969 0.9375-0.76953 1.5664-1.3789 1.8906-1.8281 0.33203-0.44531 0.5-0.86719 0.5-1.2656 0-0.41406-0.15234-0.76562-0.45312-1.0469-0.30469-0.28906-0.69531-0.4375-1.1719-0.4375-0.51172 0-0.91797 0.15234-1.2188 0.45312-0.30469 0.30469-0.46094 0.72656-0.46875 1.2656l-1.0781-0.10938c0.070313-0.8125 0.34766-1.4258 0.82812-1.8438 0.48828-0.42578 1.1445-0.64062 1.9688-0.64062 0.82031 0 1.4727 0.23047 1.9531 0.6875 0.47656 0.46094 0.71875 1.0273 0.71875 1.7031 0 0.34375-0.074219 0.68359-0.21875 1.0156-0.13672 0.32422-0.37109 0.67188-0.70312 1.0469-0.32422 0.36719-0.85938 0.86719-1.6094 1.5-0.63672 0.53125-1.0469 0.89844-1.2344 1.0938-0.17969 0.1875-0.32422 0.375-0.4375 0.5625z"/>
  </g>
 </g>
 <path id="path13291" d="m29.843 6.917c0.4079 0.0035 0.74276-0.03997 1.0073-0.12816 0.26458-0.08819 0.45889-0.27975 0.58015-0.57464h0.17777c-0.12127 0.41342-0.31557 0.69451-0.58015 0.84198-0.26458 0.14746-0.6587 0.21911-1.1851 0.21636zm0.35554 0.35966h-1.7653v-0.35553h1.7653zm-1.4097 0h-1.7653v-0.35553h1.7653zm-1.4097 0h-1.7653v-0.35553h1.7653zm-1.4097 0h-1.7653v-0.35553h1.7653zm-1.4097 0h-1.7653v-0.35553h1.7653zm-1.4097 0h-1.7653v-0.35553h1.7653zm-2.1167 0.17364c0.23427-0.35278 0.46991-0.53054 0.70693-0.53329v0.35553c-0.23702 0-0.47267 0.17639-0.70693 0.52917-0.23702-0.35278-0.47129-0.52917-0.7028-0.52917v-0.35553c0.23151 0.0035 0.46578 0.18052 0.7028 0.53329m-0.34727-0.17364h-1.7653v-0.35553h1.7653zm-1.4097 0h-1.7653v-0.35553h1.7653zm-1.4097 0h-1.7653v-0.35553h1.7653zm-1.4097 0h-1.7653v-0.35553h1.7653zm-1.4097 0h-1.7653v-0.35553h1.7653zm-1.4097 0h-1.4138v-0.3514l1.4138-0.00413zm-2.6017-0.22324c0.26321 0.14884 0.6587 0.22324 1.1879 0.22324v-0.3514c-0.41341 0-0.75103-0.0441-1.0142-0.13367-0.2632-0.08957-0.45337-0.2825-0.56913-0.57739h-0.17777c0.11851 0.41063 0.31006 0.69039 0.57326 0.83922"/>
 <path id="path13293" d="m33.746 3.632h1.4111v1.4111h0.47404v-1.4111h1.4111v-0.47406h-1.4111v-1.4111h-0.47404v1.4111h-1.4111z"/>
 <g id="g13297" transform="matrix(.35278 0 0 .35278 -47.277 -1020.3)">
  <g id="use13295" transform="translate(239.67,2907.7)">
   <path id="path24043" d="m8.0625-1.3594v1.3594h-7.5781c-0.011719-0.34375 0.046875-0.67188 0.17188-0.98438 0.1875-0.50781 0.49219-1.0156 0.92188-1.5156 0.42578-0.5 1.0391-1.0781 1.8438-1.7344 1.2383-1.0195 2.0781-1.8281 2.5156-2.4219 0.4375-0.60156 0.65625-1.1719 0.65625-1.7031 0-0.55078-0.19922-1.0195-0.59375-1.4062-0.39844-0.38281-0.91797-0.57812-1.5625-0.57812-0.67969 0-1.2188 0.20312-1.625 0.60938s-0.60938 0.96875-0.60938 1.6875l-1.4531-0.14062c0.10156-1.082 0.47656-1.9062 1.125-2.4688 0.64453-0.5625 1.5078-0.84375 2.5938-0.84375 1.1016 0 1.9727 0.30859 2.6094 0.92188 0.64453 0.60547 0.96875 1.3555 0.96875 2.25 0 0.46094-0.09375 0.91406-0.28125 1.3594-0.1875 0.4375-0.5 0.90234-0.9375 1.3906-0.4375 0.49219-1.1641 1.1641-2.1719 2.0156-0.84375 0.71094-1.3867 1.1953-1.625 1.4531-0.24219 0.25-0.4375 0.5-0.59375 0.75z"/>
  </g>
 </g>
 <path id="path13299" d="m43.139 4.338 0.28112-1.5324h0.71107l0.08819-0.46852h-2.8277c-0.38861 0-0.62839 0.23566-0.71658 0.70556h0.35278c0.0303-0.15709 0.20119-0.23703 0.51401-0.23703-0.1006 0.55122-0.1943 1.0625-0.2825 1.5324-0.10335 0.54846-0.25356 0.9398-0.452 1.1741h0.46853c0.0041 0 0.05375-0.05789 0.15158-0.17639 0.09784-0.11712 0.19706-0.44923 0.30041-0.99769l0.28663-1.5324h0.93844l-0.2825 1.5324c-0.14745 0.78271 0.01517 1.1741 0.48507 1.1741 0.23564 0 0.4203-0.15572 0.55673-0.46852-0.51401 0.23562-0.70556 0-0.57326-0.70556"/>
 <path id="path13301" d="m46.799 5.043h0.47404l2.8167-3.0593h-0.47405zm2.8167 0h0.47405l-2.8167-3.0593h-0.47404z"/>
 <g id="g13305" transform="matrix(.35278 0 0 .35278 -47.277 -1020.3)">
  <g id="use13303" transform="translate(278.66,2907.7)">
   <path id="path24047" d="m1.0625 0 2.1406-11.453h1.4062l-0.76562 4.1094c0.80078-0.75781 1.7031-1.1406 2.7031-1.1406 0.61328 0 1.125 0.12109 1.5312 0.35938 0.40625 0.24219 0.66406 0.57422 0.78125 1 0.11328 0.42969 0.09375 1.0469-0.0625 1.8594l-0.98438 5.2656h-1.4062l0.98438-5.2656c0.13281-0.69531 0.078125-1.207-0.17188-1.5312-0.24219-0.32031-0.64062-0.48438-1.2031-0.48438-0.41797 0-0.82812 0.10938-1.2344 0.32812-0.39844 0.21875-0.71094 0.51562-0.9375 0.89062-0.23047 0.36719-0.40234 0.87109-0.51562 1.5156l-0.85938 4.5469z"/>
  </g>
 </g>
</svg>
