<svg id="svg106543" version="1.1" viewBox="0 0 93.442 100.63" xmlns="http://www.w3.org/2000/svg">
 <title id="title110445">img_55</title>
 <defs id="defs106537">
  <clipPath id="clipPath71364">
   <path id="path71362" d="m259.29 2011.7h202.34v-202.34h-202.34z"/>
  </clipPath>
 </defs>
 <g id="layer1" transform="translate(-51.22,-40.54)">
  <g id="g71358" transform="matrix(.35278 0 0 -.35278 -32.545 757.62)">
   <g id="g71474">
    <g id="g71472" clip-path="url(#clipPath71364)" opacity=".47">
     <path id="path71366" d="m259.42 2011.6h202.08v-202.08h-202.08z" style="fill:none;stroke-miterlimit:10;stroke-width:.25;stroke:#1d1d1b"/>
     <g id="g71370" transform="translate(259.42 1823.9)">
      <path id="path71368" d="m0 0h202.08" style="fill:none;stroke-miterlimit:10;stroke-width:.25;stroke:#1d1d1b"/>
     </g>
     <g id="g71374" transform="translate(259.42 1838.4)">
      <path id="path71372" d="m0 0h202.08" style="fill:none;stroke-miterlimit:10;stroke-width:.25;stroke:#1d1d1b"/>
     </g>
     <g id="g71378" transform="translate(259.42 1852.8)">
      <path id="path71376" d="m0 0h202.08" style="fill:none;stroke-miterlimit:10;stroke-width:.25;stroke:#1d1d1b"/>
     </g>
     <g id="g71382" transform="translate(259.42 1867.2)">
      <path id="path71380" d="m0 0h202.08" style="fill:none;stroke-miterlimit:10;stroke-width:.25;stroke:#1d1d1b"/>
     </g>
     <g id="g71386" transform="translate(259.42 1881.7)">
      <path id="path71384" d="m0 0h202.08" style="fill:none;stroke-miterlimit:10;stroke-width:.25;stroke:#1d1d1b"/>
     </g>
     <g id="g71390" transform="translate(259.42 1896.1)">
      <path id="path71388" d="m0 0h202.08" style="fill:none;stroke-miterlimit:10;stroke-width:.25;stroke:#1d1d1b"/>
     </g>
     <g id="g71394" transform="translate(259.42 1910.6)">
      <path id="path71392" d="m0 0h202.08" style="fill:none;stroke-miterlimit:10;stroke-width:.25;stroke:#1d1d1b"/>
     </g>
     <g id="g71398" transform="translate(259.42 1925)">
      <path id="path71396" d="m0 0h202.08" style="fill:none;stroke-miterlimit:10;stroke-width:.25;stroke:#1d1d1b"/>
     </g>
     <g id="g71402" transform="translate(259.42 1939.4)">
      <path id="path71400" d="m0 0h202.08" style="fill:none;stroke-miterlimit:10;stroke-width:.25;stroke:#1d1d1b"/>
     </g>
     <g id="g71406" transform="translate(259.42 1953.8)">
      <path id="path71404" d="m0 0h202.08" style="fill:none;stroke-miterlimit:10;stroke-width:.25;stroke:#1d1d1b"/>
     </g>
     <g id="g71410" transform="translate(259.42 1968.3)">
      <path id="path71408" d="m0 0h202.08" style="fill:none;stroke-miterlimit:10;stroke-width:.25;stroke:#1d1d1b"/>
     </g>
     <g id="g71414" transform="translate(259.42 1982.7)">
      <path id="path71412" d="m0 0h202.08" style="fill:none;stroke-miterlimit:10;stroke-width:.25;stroke:#1d1d1b"/>
     </g>
     <g id="g71418" transform="translate(259.42 1997.2)">
      <path id="path71416" d="m0 0h202.08" style="fill:none;stroke-miterlimit:10;stroke-width:.25;stroke:#1d1d1b"/>
     </g>
     <g id="g71422" transform="translate(447.07 2011.6)">
      <path id="path71420" d="m0 0v-202.08" style="fill:none;stroke-miterlimit:10;stroke-width:.25;stroke:#1d1d1b"/>
     </g>
     <g id="g71426" transform="translate(432.63 2011.6)">
      <path id="path71424" d="m0 0v-202.08" style="fill:none;stroke-miterlimit:10;stroke-width:.25;stroke:#1d1d1b"/>
     </g>
     <g id="g71430" transform="translate(418.2 2011.6)">
      <path id="path71428" d="m0 0v-202.08" style="fill:none;stroke-miterlimit:10;stroke-width:.25;stroke:#1d1d1b"/>
     </g>
     <g id="g71434" transform="translate(403.76 2011.6)">
      <path id="path71432" d="m0 0v-202.08" style="fill:none;stroke-miterlimit:10;stroke-width:.25;stroke:#1d1d1b"/>
     </g>
     <g id="g71438" transform="translate(389.33 2011.6)">
      <path id="path71436" d="m0 0v-202.08" style="fill:none;stroke-miterlimit:10;stroke-width:.25;stroke:#1d1d1b"/>
     </g>
     <g id="g71442" transform="translate(374.9 2011.6)">
      <path id="path71440" d="m0 0v-202.08" style="fill:none;stroke-miterlimit:10;stroke-width:.25;stroke:#1d1d1b"/>
     </g>
     <g id="g71446" transform="translate(360.46 2011.6)">
      <path id="path71444" d="m0 0v-202.08" style="fill:none;stroke-miterlimit:10;stroke-width:.25;stroke:#1d1d1b"/>
     </g>
     <g id="g71450" transform="translate(346.02 2011.6)">
      <path id="path71448" d="m0 0v-202.08" style="fill:none;stroke-miterlimit:10;stroke-width:.25;stroke:#1d1d1b"/>
     </g>
     <g id="g71454" transform="translate(331.59 2011.6)">
      <path id="path71452" d="m0 0v-202.08" style="fill:none;stroke-miterlimit:10;stroke-width:.25;stroke:#1d1d1b"/>
     </g>
     <g id="g71458" transform="translate(317.16 2011.6)">
      <path id="path71456" d="m0 0v-202.08" style="fill:none;stroke-miterlimit:10;stroke-width:.25;stroke:#1d1d1b"/>
     </g>
     <g id="g71462" transform="translate(302.72 2011.6)">
      <path id="path71460" d="m0 0v-202.08" style="fill:none;stroke-miterlimit:10;stroke-width:.25;stroke:#1d1d1b"/>
     </g>
     <g id="g71466" transform="translate(288.29 2011.6)">
      <path id="path71464" d="m0 0v-202.08" style="fill:none;stroke-miterlimit:10;stroke-width:.25;stroke:#1d1d1b"/>
     </g>
     <g id="g71470" transform="translate(273.85 2011.6)">
      <path id="path71468" d="m0 0v-202.08" style="fill:none;stroke-miterlimit:10;stroke-width:.25;stroke:#1d1d1b"/>
     </g>
    </g>
   </g>
  </g>
  <g id="g87995" transform="matrix(.35278 0 0 .35278 -32.541 -1443.4)" style="fill:#1c1c19">
   <g id="use87981" transform="translate(312.61 4470.1)">
    <path id="path107227" d="m2.8594-10.172c-0.92188 1.2344-1.9062 3.1094-1.9219 6 0 2.8594 1 4.7344 1.9219 5.9375h1.0156c-1.0469-1.4531-1.8594-3.3281-1.8594-5.9375 0-2.6562 0.78125-4.5625 1.8594-6z"/>
   </g>
   <g id="use87983" transform="translate(316.85 4470.1)">
    <path id="path107231" d="m0.4375-4.4375v0.95312h3.625v-0.95312z"/>
   </g>
   <g id="use87985" transform="translate(321.43 4470.1)">
    <path id="path107235" d="m0.60938-0.48438c0.46875 0.3125 1.4062 0.64062 2.4844 0.64062 2.2812 0 3.4688-1.3281 3.4688-2.8594 0-1.3281-0.95312-2.2031-2.125-2.4375v-0.03125c1.1719-0.42188 1.7656-1.2656 1.7656-2.25 0-1.1562-0.85938-2.2656-2.7344-2.2656-1.0156 0-1.9844 0.35938-2.4844 0.73438l0.32812 0.9375c0.42188-0.29688 1.1562-0.625 1.9062-0.625 1.1875 0 1.6719 0.67188 1.6719 1.4375 0 1.125-1.1875 1.6094-2.125 1.6094h-0.71875v0.96875h0.71875c1.25 0 2.4531 0.5625 2.4688 1.9062 0.015625 0.78125-0.5 1.8438-2.1562 1.8438-0.89062 0-1.75-0.375-2.1094-0.60938z"/>
   </g>
   <g id="use87987" transform="translate(329.02 4470.1)">
    <path id="path107239" d="m1.1562 1.7188c0.40625-0.6875 1.0625-2.3125 1.3906-3.5625l-1.4375 0.14062c-0.15625 1.0781-0.54688 2.6406-0.875 3.5z"/>
   </g>
   <g id="use87989" transform="translate(332.13 4470.1)">
    <path id="path107243" d="m0.4375-4.4375v0.95312h3.625v-0.95312z"/>
   </g>
   <g id="use87991" transform="translate(336.71 4470.1)">
    <path id="path107247" d="m5.8594 0v-2.5938h1.3438v-1.0156h-1.3438v-5.9219h-1.3906l-4.25 6.0938v0.84375h4.4219v2.5938zm-4.3281-3.6094v-0.03125l2.3281-3.2344c0.26562-0.4375 0.5-0.84375 0.78125-1.4062h0.046875c-0.03125 0.5-0.046875 1-0.046875 1.5v3.1719z"/>
   </g>
   <g id="use87993" transform="translate(344.3 4470.1)">
    <path id="path107251" d="m1.2969 1.7656c0.9375-1.2344 1.9062-3.0938 1.9062-5.9688 0-2.8906-0.96875-4.7656-1.9062-5.9688h-1c1.0469 1.4531 1.8438 3.3281 1.8438 5.9531 0 2.6406-0.8125 4.5469-1.8438 5.9844z"/>
   </g>
  </g>
  <g id="use87997" transform="matrix(.35278 0 0 .35278 77.742 140.54)" style="fill:#1c1c19">
   <path id="path107255" d="m0.60938-0.48438c0.46875 0.3125 1.4062 0.64062 2.4844 0.64062 2.2812 0 3.4688-1.3281 3.4688-2.8594 0-1.3281-0.95312-2.2031-2.125-2.4375v-0.03125c1.1719-0.42188 1.7656-1.2656 1.7656-2.25 0-1.1562-0.85938-2.2656-2.7344-2.2656-1.0156 0-1.9844 0.35938-2.4844 0.73438l0.32812 0.9375c0.42188-0.29688 1.1562-0.625 1.9062-0.625 1.1875 0 1.6719 0.67188 1.6719 1.4375 0 1.125-1.1875 1.6094-2.125 1.6094h-0.71875v0.96875h0.71875c1.25 0 2.4531 0.5625 2.4688 1.9062 0.015625 0.78125-0.5 1.8438-2.1562 1.8438-0.89062 0-1.75-0.375-2.1094-0.60938z"/>
  </g>
  <g id="use87999" transform="matrix(.35278 0 0 .35278 80.422 140.54)" style="fill:#1c1c19"></g>
  <g id="g110443">
   <g id="use88001" transform="matrix(.35278 0 0 .35278 81.545 140.54)" style="fill:#1c1c19">
    <path id="path107263" d="m7-7.0938h-1.2812v4.3594c0 0.23438-0.046875 0.46875-0.125 0.65625-0.23438 0.5625-0.82812 1.1719-1.6875 1.1719-1.1875 0-1.5938-0.90625-1.5938-2.2656v-3.9219h-1.2812v4.1406c0 2.5 1.3281 3.1094 2.4375 3.1094 1.2656 0 2.0156-0.75 2.3438-1.3125h0.03125l0.078125 1.1562h1.1406c-0.046875-0.5625-0.0625-1.2031-0.0625-1.9375z"/>
   </g>
   <g id="use88003" transform="matrix(.35278 0 0 .35278 84.421 140.54)" style="fill:#1c1c19">
    <path id="path107267" d="m1.0625 0h1.2969v-4.2656c0-0.21875 0.03125-0.4375 0.09375-0.59375 0.21875-0.71875 0.875-1.3281 1.7188-1.3281 1.2188 0 1.6406 0.95312 1.6406 2.0938v4.0938h1.2969v-4.2344c0-2.4375-1.5312-3.0156-2.5-3.0156-1.1875 0-2 0.65625-2.3594 1.3281h-0.015625l-0.078125-1.1719h-1.1406c0.046875 0.59375 0.046875 1.1875 0.046875 1.9219z"/>
   </g>
   <g id="use88005" transform="matrix(.35278 0 0 .35278 87.318 140.54)" style="fill:#1c1c19">
    <path id="path107271" d="m2.3594 0v-7.0938h-1.2969v7.0938zm-0.64062-9.8906c-0.46875 0-0.8125 0.34375-0.8125 0.79688s0.32812 0.79688 0.78125 0.79688c0.51562 0 0.82812-0.34375 0.8125-0.79688 0-0.45312-0.29688-0.79688-0.78125-0.79688z"/>
   </g>
   <g id="use88007" transform="matrix(.35278 0 0 .35278 88.554 140.54)" style="fill:#1c1c19">
    <path id="path107275" d="m1.3594-8.7969v1.7031h-1.0938v0.98438h1.0938v3.8594c0 0.84375 0.14062 1.4688 0.5 1.8594 0.3125 0.34375 0.79688 0.53125 1.3906 0.53125 0.5 0 0.89062-0.0625 1.1406-0.17188l-0.046875-0.96875c-0.17188 0.046875-0.42188 0.09375-0.75 0.09375-0.71875 0-0.96875-0.5-0.96875-1.375v-3.8281h1.8438v-0.98438h-1.8438v-2.0312z"/>
   </g>
   <g id="use88009" transform="matrix(.35278 0 0 .35278 90.292 140.54)" style="fill:#1c1c19">
    <path id="path107279" d="m0.57812-0.34375c0.48438 0.29688 1.2031 0.48438 1.9844 0.48438 1.6875 0 2.6562-0.875 2.6562-2.125 0-1.0469-0.625-1.6719-1.8594-2.1406-0.92188-0.34375-1.3438-0.60938-1.3438-1.1875 0-0.53125 0.42188-0.96875 1.1719-0.96875 0.67188 0 1.1875 0.23438 1.4531 0.40625l0.32812-0.9375c-0.39062-0.23438-1.0312-0.4375-1.75-0.4375-1.5156 0-2.4375 0.9375-2.4375 2.0781 0 0.84375 0.59375 1.5469 1.875 2 0.95312 0.35938 1.3125 0.6875 1.3125 1.3125 0 0.57812-0.4375 1.0469-1.375 1.0469-0.64062 0-1.3125-0.25-1.7031-0.5z"/>
   </g>
  </g>
  <g id="use88011" transform="matrix(.35278 0 0 .35278 92.367 140.54)" style="fill:#1c1c19"></g>
  <g id="g110431">
   <g id="use88013" transform="matrix(.35278 0 0 .35278 93.489 140.54)" style="fill:#1c1c19">
    <path id="path107287" d="m1.0625 0h1.2969v-10.406h-1.2969z"/>
   </g>
   <g id="use88015" transform="matrix(.35278 0 0 .35278 94.736 140.54)" style="fill:#1c1c19">
    <path id="path107291" d="m6.7656-3.3125c0.015625-0.125 0.046875-0.34375 0.046875-0.59375 0-1.3125-0.60938-3.3438-2.9219-3.3438-2.0781 0-3.3281 1.6875-3.3281 3.8281 0 2.125 1.2969 3.5625 3.4844 3.5625 1.125 0 1.9062-0.23438 2.3594-0.4375l-0.21875-0.92188c-0.48438 0.20312-1.0469 0.375-1.9688 0.375-1.2812 0-2.4062-0.71875-2.4375-2.4688zm-4.9688-0.92188c0.10938-0.89062 0.6875-2.0938 1.9844-2.0938 1.4531 0 1.7969 1.2656 1.7812 2.0938z"/>
   </g>
   <g id="use88017" transform="matrix(.35278 0 0 .35278 97.353 140.54)" style="fill:#1c1c19">
    <path id="path107295" d="m2.4844 0v-6.1094h1.7031v-0.98438h-1.7031v-0.375c0-1.0938 0.26562-2.0625 1.375-2.0625 0.35938 0 0.625 0.078125 0.8125 0.17188l0.17188-1c-0.23438-0.10938-0.64062-0.20312-1.0938-0.20312-0.59375 0-1.25 0.1875-1.7344 0.65625-0.59375 0.5625-0.8125 1.4844-0.8125 2.4688v0.34375h-1v0.98438h1v6.1094z"/>
   </g>
   <g id="use88021" transform="matrix(.35278 0 0 .35278 98.946 140.54)" style="fill:#1c1c19">
    <path id="path107299" d="m1.3594-8.7969v1.7031h-1.0938v0.98438h1.0938v3.8594c0 0.84375 0.14062 1.4688 0.5 1.8594 0.3125 0.34375 0.79688 0.53125 1.3906 0.53125 0.5 0 0.89062-0.0625 1.1406-0.17188l-0.046875-0.96875c-0.17188 0.046875-0.42188 0.09375-0.75 0.09375-0.71875 0-0.96875-0.5-0.96875-1.375v-3.8281h1.8438v-0.98438h-1.8438v-2.0312z"/>
   </g>
  </g>
  <g id="use88025" transform="matrix(.35278 0 0 .35278 100.67 140.54)" style="fill:#1c1c19">
   <path id="path107303" d="m1.1562 1.7188c0.40625-0.6875 1.0625-2.3125 1.3906-3.5625l-1.4375 0.14062c-0.15625 1.0781-0.54688 2.6406-0.875 3.5z"/>
  </g>
  <g id="use88027" transform="matrix(.35278 0 0 .35278 101.77 140.54)" style="fill:#1c1c19"></g>
  <g id="use88029" transform="matrix(.35278 0 0 .35278 102.89 140.54)" style="fill:#1c1c19">
   <path id="path107311" d="m5.8594 0v-2.5938h1.3438v-1.0156h-1.3438v-5.9219h-1.3906l-4.25 6.0938v0.84375h4.4219v2.5938zm-4.3281-3.6094v-0.03125l2.3281-3.2344c0.26562-0.4375 0.5-0.84375 0.78125-1.4062h0.046875c-0.03125 0.5-0.046875 1-0.046875 1.5v3.1719z"/>
  </g>
  <g id="use88031" transform="matrix(.35278 0 0 .35278 105.57 140.54)" style="fill:#1c1c19"></g>
  <g id="g110421">
   <g id="use88033" transform="matrix(.35278 0 0 .35278 106.69 140.54)" style="fill:#1c1c19">
    <path id="path107319" d="m7-7.0938h-1.2812v4.3594c0 0.23438-0.046875 0.46875-0.125 0.65625-0.23438 0.5625-0.82812 1.1719-1.6875 1.1719-1.1875 0-1.5938-0.90625-1.5938-2.2656v-3.9219h-1.2812v4.1406c0 2.5 1.3281 3.1094 2.4375 3.1094 1.2656 0 2.0156-0.75 2.3438-1.3125h0.03125l0.078125 1.1562h1.1406c-0.046875-0.5625-0.0625-1.2031-0.0625-1.9375z"/>
   </g>
   <g id="use88035" transform="matrix(.35278 0 0 .35278 109.57 140.54)" style="fill:#1c1c19">
    <path id="path107323" d="m1.0625 0h1.2969v-4.2656c0-0.21875 0.03125-0.4375 0.09375-0.59375 0.21875-0.71875 0.875-1.3281 1.7188-1.3281 1.2188 0 1.6406 0.95312 1.6406 2.0938v4.0938h1.2969v-4.2344c0-2.4375-1.5312-3.0156-2.5-3.0156-1.1875 0-2 0.65625-2.3594 1.3281h-0.015625l-0.078125-1.1719h-1.1406c0.046875 0.59375 0.046875 1.1875 0.046875 1.9219z"/>
   </g>
   <g id="use88037" transform="matrix(.35278 0 0 .35278 112.46 140.54)" style="fill:#1c1c19">
    <path id="path107327" d="m2.3594 0v-7.0938h-1.2969v7.0938zm-0.64062-9.8906c-0.46875 0-0.8125 0.34375-0.8125 0.79688s0.32812 0.79688 0.78125 0.79688c0.51562 0 0.82812-0.34375 0.8125-0.79688 0-0.45312-0.29688-0.79688-0.78125-0.79688z"/>
   </g>
   <g id="use88039" transform="matrix(.35278 0 0 .35278 113.7 140.54)" style="fill:#1c1c19">
    <path id="path107331" d="m1.3594-8.7969v1.7031h-1.0938v0.98438h1.0938v3.8594c0 0.84375 0.14062 1.4688 0.5 1.8594 0.3125 0.34375 0.79688 0.53125 1.3906 0.53125 0.5 0 0.89062-0.0625 1.1406-0.17188l-0.046875-0.96875c-0.17188 0.046875-0.42188 0.09375-0.75 0.09375-0.71875 0-0.96875-0.5-0.96875-1.375v-3.8281h1.8438v-0.98438h-1.8438v-2.0312z"/>
   </g>
   <g id="use88041" transform="matrix(.35278 0 0 .35278 115.44 140.54)" style="fill:#1c1c19">
    <path id="path107335" d="m0.57812-0.34375c0.48438 0.29688 1.2031 0.48438 1.9844 0.48438 1.6875 0 2.6562-0.875 2.6562-2.125 0-1.0469-0.625-1.6719-1.8594-2.1406-0.92188-0.34375-1.3438-0.60938-1.3438-1.1875 0-0.53125 0.42188-0.96875 1.1719-0.96875 0.67188 0 1.1875 0.23438 1.4531 0.40625l0.32812-0.9375c-0.39062-0.23438-1.0312-0.4375-1.75-0.4375-1.5156 0-2.4375 0.9375-2.4375 2.0781 0 0.84375 0.59375 1.5469 1.875 2 0.95312 0.35938 1.3125 0.6875 1.3125 1.3125 0 0.57812-0.4375 1.0469-1.375 1.0469-0.64062 0-1.3125-0.25-1.7031-0.5z"/>
   </g>
  </g>
  <g id="use88043" transform="matrix(.35278 0 0 .35278 117.51 140.54)" style="fill:#1c1c19"></g>
  <g id="g110409">
   <g id="use88045" transform="matrix(.35278 0 0 .35278 118.63 140.54)" style="fill:#1c1c19">
    <path id="path107343" d="m5.9062-10.406v4.2344h-0.03125c-0.3125-0.5625-1.0469-1.0781-2.1406-1.0781-1.7188 0-3.1875 1.4531-3.1719 3.8125 0 2.1406 1.3125 3.5938 3.0312 3.5938 1.1562 0 2.0156-0.59375 2.4219-1.3906h0.015625l0.0625 1.2344h1.1562c-0.046875-0.48438-0.046875-1.2031-0.046875-1.8281v-8.5781zm0 7.4375c0 0.20312-0.015625 0.375-0.0625 0.54688-0.23438 0.96875-1.0156 1.5469-1.8906 1.5469-1.3906 0-2.0938-1.1875-2.0938-2.625 0-1.5781 0.79688-2.75 2.125-2.75 0.96875 0 1.6719 0.6875 1.8594 1.5 0.046875 0.15625 0.0625 0.375 0.0625 0.54688z"/>
   </g>
   <g id="use88047" transform="matrix(.35278 0 0 .35278 121.58 140.54)" style="fill:#1c1c19">
    <path id="path107347" d="m4.0781-7.25c-1.9688 0-3.5156 1.3906-3.5156 3.7656 0 2.2344 1.4688 3.6406 3.3906 3.6406 1.7188 0 3.5312-1.1406 3.5312-3.7656 0-2.1719-1.375-3.6406-3.4062-3.6406zm-0.03125 0.96875c1.5156 0 2.125 1.5156 2.125 2.7188 0 1.5938-0.92188 2.75-2.1562 2.75-1.2656 0-2.1562-1.1719-2.1562-2.7188 0-1.3438 0.65625-2.75 2.1875-2.75z"/>
   </g>
   <g id="use88051" transform="matrix(.35278 0 0 .35278 124.41 140.54)" style="fill:#1c1c19">
    <path id="path107351" d="m0.26562-7.0938 2.1406 7.0938h1.1719l1.1406-3.375c0.25-0.76562 0.46875-1.4844 0.64062-2.3438h0.03125c0.17188 0.84375 0.39062 1.5469 0.64062 2.3281l1.0781 3.3906h1.1719l2.2812-7.0938h-1.2656l-1.0156 3.5625c-0.23438 0.82812-0.42188 1.5781-0.54688 2.2969h-0.046875c-0.15625-0.71875-0.35938-1.4688-0.625-2.3125l-1.0938-3.5469h-1.0938l-1.1562 3.625c-0.23438 0.75-0.46875 1.5156-0.625 2.2344h-0.046875c-0.125-0.73438-0.32812-1.4688-0.53125-2.25l-0.9375-3.6094z"/>
   </g>
   <g id="use88053" transform="matrix(.35278 0 0 .35278 128.24 140.54)" style="fill:#1c1c19">
    <path id="path107355" d="m1.0625 0h1.2969v-4.2656c0-0.21875 0.03125-0.4375 0.09375-0.59375 0.21875-0.71875 0.875-1.3281 1.7188-1.3281 1.2188 0 1.6406 0.95312 1.6406 2.0938v4.0938h1.2969v-4.2344c0-2.4375-1.5312-3.0156-2.5-3.0156-1.1875 0-2 0.65625-2.3594 1.3281h-0.015625l-0.078125-1.1719h-1.1406c0.046875 0.59375 0.046875 1.1875 0.046875 1.9219z"/>
   </g>
  </g>
  <g id="g88059" transform="matrix(.35278 0 0 .35278 -32.541 -1443.4)">
   <g id="use88057" transform="translate(477.18 4304)">
    <path id="path107359" d="m2.5938-1.3594-1.2031 1.3594h-1.5938l2.2344-2.4844-1.2344-2.3594h1.3906l0.70312 1.3906 1.2344-1.3906h1.5938l-2.25 2.5156 1.2188 2.3281h-1.3906z"/>
   </g>
  </g>
  <g id="g88071" transform="matrix(.35278 0 0 .35278 -32.541 -1443.4)">
   <g id="use88061" transform="translate(482.42 4304)">
    <path id="path107363" d="m0.4375-2 0.17188-0.82812h2.5156l-0.17188 0.82812z"/>
   </g>
   <g id="use88063" transform="translate(485.57 4304)">
    <path id="path107367" d="m3.5781-0.59375c-0.29297 0.24219-0.57422 0.41797-0.84375 0.53125-0.26172 0.11328-0.53906 0.17188-0.82812 0.17188-0.44922 0-0.8125-0.12891-1.0938-0.39062-0.27344-0.25781-0.40625-0.59766-0.40625-1.0156 0-0.26953 0.0625-0.50781 0.1875-0.71875 0.125-0.20703 0.28516-0.375 0.48438-0.5 0.20703-0.125 0.45703-0.21094 0.75-0.26562 0.1875-0.039063 0.53516-0.070313 1.0469-0.09375 0.51953-0.019531 0.89453-0.070313 1.125-0.15625 0.0625-0.22656 0.09375-0.41406 0.09375-0.5625 0-0.1875-0.070312-0.33594-0.20312-0.45312-0.19922-0.14453-0.48047-0.21875-0.84375-0.21875-0.34375 0-0.625 0.078125-0.84375 0.23438-0.21875 0.14844-0.38281 0.35938-0.48438 0.64062l-0.82812-0.078125c0.16406-0.47656 0.42969-0.84375 0.79688-1.0938 0.375-0.25781 0.84375-0.39062 1.4062-0.39062 0.59375 0 1.0664 0.14844 1.4219 0.4375 0.25781 0.21094 0.39062 0.48438 0.39062 0.82812 0 0.26172-0.039062 0.55859-0.10938 0.89062l-0.26562 1.2031c-0.085937 0.38672-0.125 0.69922-0.125 0.9375 0 0.15625 0.03125 0.375 0.09375 0.65625h-0.82812c-0.054687-0.15625-0.085937-0.35156-0.09375-0.59375zm0.29688-1.8594c-0.11719 0.054687-0.24219 0.089844-0.375 0.10938-0.125 0.023437-0.34375 0.046875-0.65625 0.078125-0.48047 0.042969-0.82031 0.09375-1.0156 0.15625-0.19922 0.0625-0.35156 0.16797-0.45312 0.3125-0.09375 0.14844-0.14062 0.30469-0.14062 0.46875 0 0.24219 0.078125 0.43359 0.23438 0.57812 0.15625 0.14844 0.38281 0.21875 0.6875 0.21875 0.26953 0 0.53125-0.070313 0.78125-0.21875 0.25-0.14453 0.44531-0.34375 0.59375-0.59375 0.14453-0.25781 0.25781-0.62891 0.34375-1.1094z"/>
   </g>
   <g id="use88065" transform="translate(490.81 4304)">
    <path id="path107371" d="m-0.015625 0 2.1094-2.4531-1.2031-2.3906h0.90625l0.40625 0.875c0.15625 0.3125 0.28906 0.62109 0.40625 0.92188l1.4062-1.7969h1l-2.0312 2.4531 1.2188 2.3906h-0.90625l-0.48438-0.98438c-0.10547-0.20703-0.22656-0.46875-0.35938-0.78125l-1.4375 1.7656z"/>
   </g>
   <g id="use88067" transform="translate(495.52 4304)">
    <path id="path107375" d="m1.4844-5.75 0.1875-0.92188h0.82812l-0.20312 0.92188zm-1.2031 5.75 1-4.8438h0.82812l-1 4.8438z"/>
   </g>
   <g id="use88069" transform="translate(497.64 4304)">
    <path id="path107379" d="m0.39062-1.6562 0.82812-0.046875c0 0.24219 0.035156 0.44531 0.10938 0.60938 0.070313 0.16797 0.20312 0.30469 0.39062 0.40625 0.19531 0.10547 0.42578 0.15625 0.6875 0.15625 0.36328 0 0.63281-0.070313 0.8125-0.21875 0.1875-0.14453 0.28125-0.31641 0.28125-0.51562 0-0.13281-0.054687-0.26953-0.15625-0.40625-0.11719-0.125-0.39062-0.28125-0.82812-0.46875s-0.71484-0.31641-0.82812-0.39062c-0.21094-0.125-0.36719-0.26953-0.46875-0.4375-0.10547-0.16406-0.15625-0.35938-0.15625-0.57812 0-0.38281 0.14844-0.71094 0.45312-0.98438 0.3125-0.28125 0.73828-0.42188 1.2812-0.42188 0.60156 0 1.0625 0.14062 1.375 0.42188 0.32031 0.28125 0.48828 0.65234 0.5 1.1094l-0.79688 0.0625c-0.011719-0.28906-0.11719-0.51953-0.3125-0.6875-0.19922-0.17578-0.47656-0.26562-0.82812-0.26562-0.28125 0-0.50781 0.070312-0.67188 0.20312-0.15625 0.125-0.23438 0.26562-0.23438 0.42188 0 0.14844 0.070313 0.28125 0.21875 0.40625 0.082031 0.074219 0.31641 0.19531 0.70312 0.35938 0.625 0.27344 1.0195 0.48438 1.1875 0.64062 0.25781 0.25 0.39062 0.55859 0.39062 0.92188 0 0.24219-0.074219 0.47656-0.21875 0.70312-0.14844 0.23047-0.37109 0.41797-0.67188 0.5625-0.30469 0.13281-0.65625 0.20312-1.0625 0.20312-0.5625 0-1.043-0.14062-1.4375-0.42188-0.38672-0.26953-0.57031-0.71875-0.54688-1.3438z"/>
   </g>
  </g>
  <g id="g88075" transform="matrix(.35278 0 0 .35278 -32.541 -1443.4)">
   <g id="use88073" transform="translate(389.94 4216.5)">
    <path id="path107383" d="m0.78125-4.8438h1.2969l0.32812 2.4219c0.082031 0.61719 0.12891 1.0469 0.14062 1.2969 0.16406-0.5 0.39844-1.0195 0.70312-1.5625l1.1562-2.1562h1.3906l-3 5.3125c-0.24219 0.44531-0.43359 0.75391-0.57812 0.92188-0.13672 0.17578-0.30859 0.31641-0.51562 0.42188-0.19922 0.10156-0.43359 0.15625-0.70312 0.15625-0.28125 0-0.59375-0.054687-0.9375-0.15625l0.10938-0.96875c0.15625 0.039063 0.3125 0.0625 0.46875 0.0625 0.39453 0 0.72266-0.30469 0.98438-0.90625z"/>
   </g>
  </g>
  <g id="g88087" transform="matrix(.35278 0 0 .35278 -32.541 -1443.4)">
   <g id="use88077" transform="translate(395.18 4216.5)">
    <path id="path107387" d="m0.4375-2 0.17188-0.82812h2.5156l-0.17188 0.82812z"/>
   </g>
   <g id="use88079" transform="translate(398.33 4216.5)">
    <path id="path107391" d="m3.5781-0.59375c-0.29297 0.24219-0.57422 0.41797-0.84375 0.53125-0.26172 0.11328-0.53906 0.17188-0.82812 0.17188-0.44922 0-0.8125-0.12891-1.0938-0.39062-0.27344-0.25781-0.40625-0.59766-0.40625-1.0156 0-0.26953 0.0625-0.50781 0.1875-0.71875 0.125-0.20703 0.28516-0.375 0.48438-0.5 0.20703-0.125 0.45703-0.21094 0.75-0.26562 0.1875-0.039063 0.53516-0.070313 1.0469-0.09375 0.51953-0.019531 0.89453-0.070313 1.125-0.15625 0.0625-0.22656 0.09375-0.41406 0.09375-0.5625 0-0.1875-0.070312-0.33594-0.20312-0.45312-0.19922-0.14453-0.48047-0.21875-0.84375-0.21875-0.34375 0-0.625 0.078125-0.84375 0.23438-0.21875 0.14844-0.38281 0.35938-0.48438 0.64062l-0.82812-0.078125c0.16406-0.47656 0.42969-0.84375 0.79688-1.0938 0.375-0.25781 0.84375-0.39062 1.4062-0.39062 0.59375 0 1.0664 0.14844 1.4219 0.4375 0.25781 0.21094 0.39062 0.48438 0.39062 0.82812 0 0.26172-0.039062 0.55859-0.10938 0.89062l-0.26562 1.2031c-0.085937 0.38672-0.125 0.69922-0.125 0.9375 0 0.15625 0.03125 0.375 0.09375 0.65625h-0.82812c-0.054687-0.15625-0.085937-0.35156-0.09375-0.59375zm0.29688-1.8594c-0.11719 0.054687-0.24219 0.089844-0.375 0.10938-0.125 0.023437-0.34375 0.046875-0.65625 0.078125-0.48047 0.042969-0.82031 0.09375-1.0156 0.15625-0.19922 0.0625-0.35156 0.16797-0.45312 0.3125-0.09375 0.14844-0.14062 0.30469-0.14062 0.46875 0 0.24219 0.078125 0.43359 0.23438 0.57812 0.15625 0.14844 0.38281 0.21875 0.6875 0.21875 0.26953 0 0.53125-0.070313 0.78125-0.21875 0.25-0.14453 0.44531-0.34375 0.59375-0.59375 0.14453-0.25781 0.25781-0.62891 0.34375-1.1094z"/>
   </g>
   <g id="use88081" transform="translate(403.57 4216.5)">
    <path id="path107395" d="m-0.015625 0 2.1094-2.4531-1.2031-2.3906h0.90625l0.40625 0.875c0.15625 0.3125 0.28906 0.62109 0.40625 0.92188l1.4062-1.7969h1l-2.0312 2.4531 1.2188 2.3906h-0.90625l-0.48438-0.98438c-0.10547-0.20703-0.22656-0.46875-0.35938-0.78125l-1.4375 1.7656z"/>
   </g>
   <g id="use88083" transform="translate(408.28 4216.5)">
    <path id="path107399" d="m1.4844-5.75 0.1875-0.92188h0.82812l-0.20312 0.92188zm-1.2031 5.75 1-4.8438h0.82812l-1 4.8438z"/>
   </g>
   <g id="use88085" transform="translate(410.4 4216.5)">
    <path id="path107403" d="m0.39062-1.6562 0.82812-0.046875c0 0.24219 0.035156 0.44531 0.10938 0.60938 0.070313 0.16797 0.20312 0.30469 0.39062 0.40625 0.19531 0.10547 0.42578 0.15625 0.6875 0.15625 0.36328 0 0.63281-0.070313 0.8125-0.21875 0.1875-0.14453 0.28125-0.31641 0.28125-0.51562 0-0.13281-0.054687-0.26953-0.15625-0.40625-0.11719-0.125-0.39062-0.28125-0.82812-0.46875s-0.71484-0.31641-0.82812-0.39062c-0.21094-0.125-0.36719-0.26953-0.46875-0.4375-0.10547-0.16406-0.15625-0.35938-0.15625-0.57812 0-0.38281 0.14844-0.71094 0.45312-0.98438 0.3125-0.28125 0.73828-0.42188 1.2812-0.42188 0.60156 0 1.0625 0.14062 1.375 0.42188 0.32031 0.28125 0.48828 0.65234 0.5 1.1094l-0.79688 0.0625c-0.011719-0.28906-0.11719-0.51953-0.3125-0.6875-0.19922-0.17578-0.47656-0.26562-0.82812-0.26562-0.28125 0-0.50781 0.070312-0.67188 0.20312-0.15625 0.125-0.23438 0.26562-0.23438 0.42188 0 0.14844 0.070313 0.28125 0.21875 0.40625 0.082031 0.074219 0.31641 0.19531 0.70312 0.35938 0.625 0.27344 1.0195 0.48438 1.1875 0.64062 0.25781 0.25 0.39062 0.55859 0.39062 0.92188 0 0.24219-0.074219 0.47656-0.21875 0.70312-0.14844 0.23047-0.37109 0.41797-0.67188 0.5625-0.30469 0.13281-0.65625 0.20312-1.0625 0.20312-0.5625 0-1.043-0.14062-1.4375-0.42188-0.38672-0.26953-0.57031-0.71875-0.54688-1.3438z"/>
   </g>
  </g>
  <path id="path88089" d="m94.645 42.883v80.818" style="fill:none;stroke-miterlimit:10;stroke-width:.38806;stroke:#1c1c19"/>
  <path id="path88091" d="m94.645 40.54c-0.40928 1.1024-1.1066 2.4694-1.8452 3.3183l1.8452-0.66834 1.8466 0.66834c-0.74001-0.84885-1.4373-2.2159-1.8466-3.3183" style="fill:#1c1c19"/>
  <path id="path88093" d="m94.645 126.05c-0.40928-1.1024-1.1066-2.4694-1.8452-3.3183l1.8452 0.66838 1.8466-0.66838c-0.74001 0.84889-1.4373 2.2159-1.8466 3.3183" style="fill:#1c1c19"/>
  <path id="path88095" d="m136.38 83.611h-82.813" style="fill:none;stroke-miterlimit:10;stroke-width:.38806;stroke:#1c1c19"/>
  <path id="path88097" d="m138.72 83.611c-1.1024-0.40926-2.4708-1.1066-3.3183-1.8466l0.66697 1.8466-0.66697 1.8452c0.84749-0.73864 2.2159-1.4359 3.3183-1.8452" style="fill:#1c1c19"/>
  <path id="path88099" d="m51.22 83.611c1.1024-0.40926 2.4708-1.1066 3.3183-1.8466l-0.66835 1.8466 0.66835 1.8452c-0.84749-0.73864-2.2159-1.4359-3.3183-1.8452" style="fill:#1c1c19"/>
  <path id="path88101" d="m99.713 82.799v1.695" style="fill:none;stroke-miterlimit:10;stroke-width:.42122;stroke:#1c1c19"/>
  <path id="path88103" d="m104.81 82.799v1.695" style="fill:none;stroke-miterlimit:10;stroke-width:.42122;stroke:#1c1c19"/>
  <path id="path88105" d="m109.9 82.799v1.695" style="fill:none;stroke-miterlimit:10;stroke-width:.42122;stroke:#1c1c19"/>
  <path id="path88107" d="m114.99 82.799v1.695" style="fill:none;stroke-miterlimit:10;stroke-width:.42122;stroke:#1c1c19"/>
  <path id="path88109" d="m120.08 82.799v1.695" style="fill:none;stroke-miterlimit:10;stroke-width:.42122;stroke:#1c1c19"/>
  <path id="path88111" d="m125.17 82.799v1.695" style="fill:none;stroke-miterlimit:10;stroke-width:.42122;stroke:#1c1c19"/>
  <path id="path88113" d="m130.25 82.799v1.695" style="fill:none;stroke-miterlimit:10;stroke-width:.42122;stroke:#1c1c19"/>
  <path id="path88115" d="m69.159 82.763v1.6964" style="fill:none;stroke-miterlimit:10;stroke-width:.42122;stroke:#1c1c19"/>
  <path id="path88117" d="m64.067 82.763v1.6964" style="fill:none;stroke-miterlimit:10;stroke-width:.42122;stroke:#1c1c19"/>
  <path id="path88119" d="m58.976 82.763v1.6964" style="fill:none;stroke-miterlimit:10;stroke-width:.42122;stroke:#1c1c19"/>
  <path id="path88121" d="m74.253 82.763v1.6964" style="fill:none;stroke-miterlimit:10;stroke-width:.42122;stroke:#1c1c19"/>
  <path id="path88123" d="m79.344 82.763v1.6964" style="fill:none;stroke-miterlimit:10;stroke-width:.42122;stroke:#1c1c19"/>
  <path id="path88125" d="m84.436 82.763v1.6964" style="fill:none;stroke-miterlimit:10;stroke-width:.42122;stroke:#1c1c19"/>
  <path id="path88127" d="m89.528 82.763v1.6964" style="fill:none;stroke-miterlimit:10;stroke-width:.42122;stroke:#1c1c19"/>
  <path id="path88129" d="m93.797 78.559h1.695" style="fill:none;stroke-miterlimit:10;stroke-width:.42122;stroke:#1c1c19"/>
  <path id="path88131" d="m93.797 73.468h1.695" style="fill:none;stroke-miterlimit:10;stroke-width:.42122;stroke:#1c1c19"/>
  <path id="path88133" d="m93.797 68.378h1.695" style="fill:none;stroke-miterlimit:10;stroke-width:.42122;stroke:#1c1c19"/>
  <path id="path88135" d="m93.843 63.283h1.695" style="fill:none;stroke-miterlimit:10;stroke-width:.42122;stroke:#1c1c19"/>
  <path id="path88137" d="m93.821 58.193h1.695" style="fill:none;stroke-miterlimit:10;stroke-width:.42122;stroke:#1c1c19"/>
  <path id="path88139" d="m93.821 53.098h1.695" style="fill:none;stroke-miterlimit:10;stroke-width:.42122;stroke:#1c1c19"/>
  <path id="path88141" d="m93.821 47.969h1.695" style="fill:none;stroke-miterlimit:10;stroke-width:.42122;stroke:#1c1c19"/>
  <path id="path88143" d="m93.797 109.11h1.695" style="fill:none;stroke-miterlimit:10;stroke-width:.42122;stroke:#1c1c19"/>
  <path id="path88145" d="m93.797 114.21h1.695" style="fill:none;stroke-miterlimit:10;stroke-width:.42122;stroke:#1c1c19"/>
  <path id="path88147" d="m93.797 119.3h1.695" style="fill:none;stroke-miterlimit:10;stroke-width:.42122;stroke:#1c1c19"/>
  <path id="path88149" d="m93.797 104.02h1.695" style="fill:none;stroke-miterlimit:10;stroke-width:.42122;stroke:#1c1c19"/>
  <path id="path88151" d="m93.797 98.927h1.695" style="fill:none;stroke-miterlimit:10;stroke-width:.42122;stroke:#1c1c19"/>
  <path id="path88153" d="m93.797 93.837h1.695" style="fill:none;stroke-miterlimit:10;stroke-width:.42122;stroke:#1c1c19"/>
  <path id="path88155" d="m93.797 88.744h1.695" style="fill:none;stroke-miterlimit:10;stroke-width:.42122;stroke:#1c1c19"/>
  <g id="g88159" transform="matrix(.35278 0 0 .35278 -32.541 -1443.4)" style="fill:#1c1c19">
   <g id="use88157" transform="translate(367.52 4216.1)">
    <path id="path107407" d="m0.078125-4.2188 1.5625 3.8906c0.03125 0.09375 0.046875 0.15625 0.046875 0.20312 0 0.03125-0.03125 0.09375-0.0625 0.17188-0.17188 0.39062-0.4375 0.6875-0.64062 0.85938-0.23438 0.1875-0.48438 0.3125-0.67188 0.375l0.1875 0.64062c0.20312-0.03125 0.57812-0.15625 0.9375-0.5 0.53125-0.45312 0.90625-1.1875 1.4531-2.625l1.1406-3.0156h-0.79688l-0.84375 2.4844c-0.10938 0.29688-0.1875 0.625-0.26562 0.875h-0.015625c-0.078125-0.25-0.17188-0.57812-0.26562-0.85938l-0.9375-2.5z"/>
   </g>
  </g>
  <g id="g88163" transform="matrix(.35278 0 0 .35278 -32.541 -1443.4)" style="fill:#1c1c19">
   <g id="use88161" transform="translate(476.68 4320.9)">
    <path id="path107411" d="m0.14062-4.2188 1.4219 2.0625-1.5 2.1562h0.84375l0.60938-0.95312c0.17188-0.25 0.3125-0.46875 0.45312-0.73438h0.015625c0.14062 0.26562 0.28125 0.5 0.45312 0.73438l0.625 0.95312h0.85938l-1.4688-2.1719 1.4219-2.0469h-0.8125l-0.59375 0.90625c-0.14062 0.21875-0.28125 0.4375-0.42188 0.6875h-0.03125c-0.14062-0.23438-0.26562-0.45312-0.42188-0.6875l-0.60938-0.90625z"/>
   </g>
  </g>
  <g id="g88167" transform="matrix(.35278 0 0 .35278 -32.541 -1443.4)" style="fill:#1c1c19">
   <g id="use88165" transform="translate(353.55 4336.9)">
    <path id="path107415" d="m2.2812-5.75c-1.1562 0-1.9688 1.0469-1.9688 2.9375 0.015625 1.875 0.76562 2.9062 1.875 2.9062 1.25 0 1.9688-1.0625 1.9688-2.9844 0-1.7969-0.6875-2.8594-1.875-2.8594zm-0.046875 0.59375c0.79688 0 1.1562 0.90625 1.1562 2.2969 0 1.4531-0.375 2.3594-1.1562 2.3594-0.70312 0-1.1562-0.82812-1.1562-2.2969 0-1.5469 0.48438-2.3594 1.1562-2.3594z"/>
   </g>
  </g>
  <g id="g88171" transform="matrix(.35278 0 0 .35278 -32.541 -1443.4)" style="fill:#1c1c19">
   <g id="use88169" transform="translate(372.46 4340.2)">
    <path id="path107419" d="m2.0469 0h0.75v-5.6562h-0.65625l-1.2344 0.65625 0.14062 0.59375 0.98438-0.53125h0.015625z"/>
   </g>
  </g>
  <g id="g88175" transform="matrix(.35278 0 0 .35278 -32.541 -1443.4)" style="fill:#1c1c19">
   <g id="use88173" transform="translate(349.24 4316.5)">
    <path id="path107423" d="m2.0469 0h0.75v-5.6562h-0.65625l-1.2344 0.65625 0.14062 0.59375 0.98438-0.53125h0.015625z"/>
   </g>
  </g>
  <g id="g88181" transform="matrix(.35278 0 0 .35278 -32.541 -1443.4)" style="fill:#1c1c19">
   <g id="use88177" transform="translate(347.22 4345.6)">
    <path id="path107427" d="m0.26562-2.6406v0.5625h2.1406v-0.5625z"/>
   </g>
   <g id="use88179" transform="translate(349.93 4345.6)">
    <path id="path107431" d="m2.0469 0h0.75v-5.6562h-0.65625l-1.2344 0.65625 0.14062 0.59375 0.98438-0.53125h0.015625z"/>
   </g>
  </g>
  <g id="g88187" transform="matrix(.35278 0 0 .35278 -32.541 -1443.4)" style="fill:#1c1c19">
   <g id="use88183" transform="translate(340.97 4340.2)">
    <path id="path107435" d="m0.26562-2.6406v0.5625h2.1406v-0.5625z"/>
   </g>
   <g id="use88185" transform="translate(343.69 4340.2)">
    <path id="path107439" d="m2.0469 0h0.75v-5.6562h-0.65625l-1.2344 0.65625 0.14062 0.59375 0.98438-0.53125h0.015625z"/>
   </g>
  </g>
  <g id="g88191" transform="matrix(.35278 0 0 .35278 -32.541 -1443.4)" style="fill:#1c1c19">
   <g id="use88189" transform="translate(387.12 4340.2)">
    <path id="path107443" d="m4 0v-0.64062h-2.5312v-0.015625l0.45312-0.42188c1.1875-1.1406 1.9375-1.9844 1.9375-3.0312 0-0.8125-0.51562-1.6406-1.7344-1.6406-0.64062 0-1.2031 0.23438-1.5938 0.57812l0.25 0.53125c0.25-0.21875 0.6875-0.48438 1.1875-0.48438 0.84375 0 1.125 0.53125 1.125 1.1094 0 0.85938-0.65625 1.5938-2.1094 2.9688l-0.59375 0.57812v0.46875z"/>
   </g>
  </g>
  <g id="g88195" transform="matrix(.35278 0 0 .35278 -32.541 -1443.4)" style="fill:#1c1c19">
   <g id="use88193" transform="translate(348.83 4302)">
    <path id="path107447" d="m4 0v-0.64062h-2.5312v-0.015625l0.45312-0.42188c1.1875-1.1406 1.9375-1.9844 1.9375-3.0312 0-0.8125-0.51562-1.6406-1.7344-1.6406-0.64062 0-1.2031 0.23438-1.5938 0.57812l0.25 0.53125c0.25-0.21875 0.6875-0.48438 1.1875-0.48438 0.84375 0 1.125 0.53125 1.125 1.1094 0 0.85938-0.65625 1.5938-2.1094 2.9688l-0.59375 0.57812v0.46875z"/>
   </g>
  </g>
  <g id="g88201" transform="matrix(.35278 0 0 .35278 -32.541 -1443.4)" style="fill:#1c1c19">
   <g id="use88197" transform="translate(347.02 4360)">
    <path id="path107451" d="m0.26562-2.6406v0.5625h2.1406v-0.5625z"/>
   </g>
   <g id="use88199" transform="translate(349.73 4360)">
    <path id="path107455" d="m4 0v-0.64062h-2.5312v-0.015625l0.45312-0.42188c1.1875-1.1406 1.9375-1.9844 1.9375-3.0312 0-0.8125-0.51562-1.6406-1.7344-1.6406-0.64062 0-1.2031 0.23438-1.5938 0.57812l0.25 0.53125c0.25-0.21875 0.6875-0.48438 1.1875-0.48438 0.84375 0 1.125 0.53125 1.125 1.1094 0 0.85938-0.65625 1.5938-2.1094 2.9688l-0.59375 0.57812v0.46875z"/>
   </g>
  </g>
  <g id="g88207" transform="matrix(.35278 0 0 .35278 -32.541 -1443.4)" style="fill:#1c1c19">
   <g id="use88203" transform="translate(326.55 4339.9)">
    <path id="path107459" d="m0.26562-2.6406v0.5625h2.1406v-0.5625z"/>
   </g>
   <g id="use88205" transform="translate(329.27 4339.9)">
    <path id="path107463" d="m4 0v-0.64062h-2.5312v-0.015625l0.45312-0.42188c1.1875-1.1406 1.9375-1.9844 1.9375-3.0312 0-0.8125-0.51562-1.6406-1.7344-1.6406-0.64062 0-1.2031 0.23438-1.5938 0.57812l0.25 0.53125c0.25-0.21875 0.6875-0.48438 1.1875-0.48438 0.84375 0 1.125 0.53125 1.125 1.1094 0 0.85938-0.65625 1.5938-2.1094 2.9688l-0.59375 0.57812v0.46875z"/>
   </g>
  </g>
  <g id="g88211" transform="matrix(.35278 0 0 .35278 -32.541 -1443.4)" style="fill:#1c1c19">
   <g id="use88209" transform="translate(401.42 4340.2)">
    <path id="path107467" d="m0.35938-0.28125c0.28125 0.17188 0.84375 0.375 1.4844 0.375 1.3438 0 2.0625-0.79688 2.0625-1.6875 0-0.79688-0.57812-1.3281-1.2656-1.4688v-0.015625c0.6875-0.25 1.0469-0.75 1.0469-1.3281 0-0.6875-0.51562-1.3438-1.625-1.3438-0.60938 0-1.1875 0.21875-1.4844 0.4375l0.20312 0.54688c0.25-0.17188 0.6875-0.375 1.1406-0.375 0.70312 0 0.98438 0.40625 0.98438 0.85938 0 0.67188-0.70312 0.95312-1.2656 0.95312h-0.42188v0.57812h0.42188c0.75 0 1.4531 0.34375 1.4688 1.125 0 0.46875-0.29688 1.1094-1.2812 1.1094-0.53125 0-1.0312-0.21875-1.25-0.35938z"/>
   </g>
  </g>
  <g id="g88215" transform="matrix(.35278 0 0 .35278 -32.541 -1443.4)" style="fill:#1c1c19">
   <g id="use88213" transform="translate(348.83 4287.5)">
    <path id="path107471" d="m0.35938-0.28125c0.28125 0.17188 0.84375 0.375 1.4844 0.375 1.3438 0 2.0625-0.79688 2.0625-1.6875 0-0.79688-0.57812-1.3281-1.2656-1.4688v-0.015625c0.6875-0.25 1.0469-0.75 1.0469-1.3281 0-0.6875-0.51562-1.3438-1.625-1.3438-0.60938 0-1.1875 0.21875-1.4844 0.4375l0.20312 0.54688c0.25-0.17188 0.6875-0.375 1.1406-0.375 0.70312 0 0.98438 0.40625 0.98438 0.85938 0 0.67188-0.70312 0.95312-1.2656 0.95312h-0.42188v0.57812h0.42188c0.75 0 1.4531 0.34375 1.4688 1.125 0 0.46875-0.29688 1.1094-1.2812 1.1094-0.53125 0-1.0312-0.21875-1.25-0.35938z"/>
   </g>
  </g>
  <g id="g88221" transform="matrix(.35278 0 0 .35278 -32.541 -1443.4)" style="fill:#1c1c19">
   <g id="use88217" transform="translate(347.01 4374.5)">
    <path id="path107475" d="m0.26562-2.6406v0.5625h2.1406v-0.5625z"/>
   </g>
   <g id="use88219" transform="translate(349.72 4374.5)">
    <path id="path107479" d="m0.35938-0.28125c0.28125 0.17188 0.84375 0.375 1.4844 0.375 1.3438 0 2.0625-0.79688 2.0625-1.6875 0-0.79688-0.57812-1.3281-1.2656-1.4688v-0.015625c0.6875-0.25 1.0469-0.75 1.0469-1.3281 0-0.6875-0.51562-1.3438-1.625-1.3438-0.60938 0-1.1875 0.21875-1.4844 0.4375l0.20312 0.54688c0.25-0.17188 0.6875-0.375 1.1406-0.375 0.70312 0 0.98438 0.40625 0.98438 0.85938 0 0.67188-0.70312 0.95312-1.2656 0.95312h-0.42188v0.57812h0.42188c0.75 0 1.4531 0.34375 1.4688 1.125 0 0.46875-0.29688 1.1094-1.2812 1.1094-0.53125 0-1.0312-0.21875-1.25-0.35938z"/>
   </g>
  </g>
  <g id="g88227" transform="matrix(.35278 0 0 .35278 -32.541 -1443.4)" style="fill:#1c1c19">
   <g id="use88223" transform="translate(312.6 4339.9)">
    <path id="path107483" d="m0.26562-2.6406v0.5625h2.1406v-0.5625z"/>
   </g>
   <g id="use88225" transform="translate(315.32 4339.9)">
    <path id="path107487" d="m0.35938-0.28125c0.28125 0.17188 0.84375 0.375 1.4844 0.375 1.3438 0 2.0625-0.79688 2.0625-1.6875 0-0.79688-0.57812-1.3281-1.2656-1.4688v-0.015625c0.6875-0.25 1.0469-0.75 1.0469-1.3281 0-0.6875-0.51562-1.3438-1.625-1.3438-0.60938 0-1.1875 0.21875-1.4844 0.4375l0.20312 0.54688c0.25-0.17188 0.6875-0.375 1.1406-0.375 0.70312 0 0.98438 0.40625 0.98438 0.85938 0 0.67188-0.70312 0.95312-1.2656 0.95312h-0.42188v0.57812h0.42188c0.75 0 1.4531 0.34375 1.4688 1.125 0 0.46875-0.29688 1.1094-1.2812 1.1094-0.53125 0-1.0312-0.21875-1.25-0.35938z"/>
   </g>
  </g>
  <g id="g88231" transform="matrix(.35278 0 0 .35278 -32.541 -1443.4)" style="fill:#1c1c19">
   <g id="use88229" transform="translate(415.36 4340.2)">
    <path id="path107491" d="m3.4844 0v-1.5469h0.78125v-0.59375h-0.78125v-3.5156h-0.82812l-2.5312 3.6094v0.5h2.6406v1.5469zm-2.5781-2.1406v-0.015625l1.375-1.9219c0.17188-0.26562 0.29688-0.51562 0.48438-0.84375h0.015625c-0.015625 0.29688-0.015625 0.59375-0.015625 0.89062v1.8906z"/>
   </g>
  </g>
  <g id="g88235" transform="matrix(.35278 0 0 .35278 -32.541 -1443.4)" style="fill:#1c1c19">
   <g id="use88233" transform="translate(348.82 4273.1)">
    <path id="path107495" d="m3.4844 0v-1.5469h0.78125v-0.59375h-0.78125v-3.5156h-0.82812l-2.5312 3.6094v0.5h2.6406v1.5469zm-2.5781-2.1406v-0.015625l1.375-1.9219c0.17188-0.26562 0.29688-0.51562 0.48438-0.84375h0.015625c-0.015625 0.29688-0.015625 0.59375-0.015625 0.89062v1.8906z"/>
   </g>
  </g>
  <g id="g88241" transform="matrix(.35278 0 0 .35278 -32.541 -1443.4)" style="fill:#1c1c19">
   <g id="use88237" transform="translate(347 4388.9)">
    <path id="path107499" d="m0.26562-2.6406v0.5625h2.1406v-0.5625z"/>
   </g>
   <g id="use88239" transform="translate(349.71 4388.9)">
    <path id="path107503" d="m3.4844 0v-1.5469h0.78125v-0.59375h-0.78125v-3.5156h-0.82812l-2.5312 3.6094v0.5h2.6406v1.5469zm-2.5781-2.1406v-0.015625l1.375-1.9219c0.17188-0.26562 0.29688-0.51562 0.48438-0.84375h0.015625c-0.015625 0.29688-0.015625 0.59375-0.015625 0.89062v1.8906z"/>
   </g>
  </g>
  <g id="g88247" transform="matrix(.35278 0 0 .35278 -32.541 -1443.4)" style="fill:#1c1c19">
   <g id="use88243" transform="translate(296.88 4339.9)">
    <path id="path107507" d="m0.26562-2.6406v0.5625h2.1406v-0.5625z"/>
   </g>
   <g id="use88245" transform="translate(299.59 4339.9)">
    <path id="path107511" d="m3.4844 0v-1.5469h0.78125v-0.59375h-0.78125v-3.5156h-0.82812l-2.5312 3.6094v0.5h2.6406v1.5469zm-2.5781-2.1406v-0.015625l1.375-1.9219c0.17188-0.26562 0.29688-0.51562 0.48438-0.84375h0.015625c-0.015625 0.29688-0.015625 0.59375-0.015625 0.89062v1.8906z"/>
   </g>
  </g>
  <g id="g88251" transform="matrix(.35278 0 0 .35278 -32.541 -1443.4)" style="fill:#1c1c19">
   <g id="use88249" transform="translate(430.43 4340.2)">
    <path id="path107515" d="m3.7656-5.6562h-2.7031l-0.35938 2.7188c0.20312-0.03125 0.45312-0.0625 0.78125-0.0625 1.125 0 1.6094 0.51562 1.625 1.25 0 0.76562-0.625 1.2344-1.3438 1.2344-0.51562 0-0.96875-0.1875-1.2031-0.3125l-0.20312 0.57812c0.28125 0.17188 0.79688 0.34375 1.4219 0.34375 1.2188 0 2.0938-0.82812 2.0938-1.9375 0-0.70312-0.35938-1.1875-0.79688-1.4531-0.35938-0.20312-0.79688-0.29688-1.2188-0.29688-0.21875 0-0.34375 0.015625-0.46875 0.03125l0.21875-1.4531h2.1562z"/>
   </g>
  </g>
  <g id="g88255" transform="matrix(.35278 0 0 .35278 -32.541 -1443.4)" style="fill:#1c1c19">
   <g id="use88253" transform="translate(444.21 4340.2)">
    <path id="path107519" d="m3.625-5.75c-0.14062 0-0.32812 0.015625-0.5625 0.046875-0.71875 0.09375-1.3438 0.375-1.8125 0.84375-0.54688 0.54688-0.95312 1.4375-0.95312 2.5469 0 1.4688 0.79688 2.4062 2 2.4062 1.1719 0 1.875-0.95312 1.875-1.9844 0-1.1094-0.70312-1.8281-1.7031-1.8281-0.625 0-1.0938 0.29688-1.3594 0.64062h-0.03125c0.125-0.92188 0.76562-1.7969 1.9688-2 0.21875-0.046875 0.42188-0.046875 0.57812-0.046875zm-1.3281 5.25c-0.79688 0-1.2188-0.6875-1.25-1.6094 0-0.14062 0.046875-0.26562 0.09375-0.34375 0.20312-0.40625 0.64062-0.70312 1.0938-0.70312 0.70312 0 1.1719 0.5 1.1719 1.2969 0 0.8125-0.45312 1.3594-1.1094 1.3594z"/>
   </g>
  </g>
  <g id="g88259" transform="matrix(.35278 0 0 .35278 -32.541 -1443.4)" style="fill:#1c1c19">
   <g id="use88257" transform="translate(459.44 4340.2)">
    <path id="path107523" d="m0.5-5.6562v0.64062h2.7656v0.015625l-2.4531 5h0.78125l2.4688-5.1562v-0.5z"/>
   </g>
  </g>
  <g id="g88263" transform="matrix(.35278 0 0 .35278 -32.541 -1443.4)" style="fill:#1c1c19">
   <g id="use88261" transform="translate(349.02 4258.7)">
    <path id="path107527" d="m3.7656-5.6562h-2.7031l-0.35938 2.7188c0.20312-0.03125 0.45312-0.0625 0.78125-0.0625 1.125 0 1.6094 0.51562 1.625 1.25 0 0.76562-0.625 1.2344-1.3438 1.2344-0.51562 0-0.96875-0.1875-1.2031-0.3125l-0.20312 0.57812c0.28125 0.17188 0.79688 0.34375 1.4219 0.34375 1.2188 0 2.0938-0.82812 2.0938-1.9375 0-0.70312-0.35938-1.1875-0.79688-1.4531-0.35938-0.20312-0.79688-0.29688-1.2188-0.29688-0.21875 0-0.34375 0.015625-0.46875 0.03125l0.21875-1.4531h2.1562z"/>
   </g>
  </g>
  <g id="g88267" transform="matrix(.35278 0 0 .35278 -32.541 -1443.4)" style="fill:#1c1c19">
   <g id="use88265" transform="translate(349.02 4244.2)">
    <path id="path107531" d="m3.625-5.75c-0.14062 0-0.32812 0.015625-0.5625 0.046875-0.71875 0.09375-1.3438 0.375-1.8125 0.84375-0.54688 0.54688-0.95312 1.4375-0.95312 2.5469 0 1.4688 0.79688 2.4062 2 2.4062 1.1719 0 1.875-0.95312 1.875-1.9844 0-1.1094-0.70312-1.8281-1.7031-1.8281-0.625 0-1.0938 0.29688-1.3594 0.64062h-0.03125c0.125-0.92188 0.76562-1.7969 1.9688-2 0.21875-0.046875 0.42188-0.046875 0.57812-0.046875zm-1.3281 5.25c-0.79688 0-1.2188-0.6875-1.25-1.6094 0-0.14062 0.046875-0.26562 0.09375-0.34375 0.20312-0.40625 0.64062-0.70312 1.0938-0.70312 0.70312 0 1.1719 0.5 1.1719 1.2969 0 0.8125-0.45312 1.3594-1.1094 1.3594z"/>
   </g>
  </g>
  <g id="g88271" transform="matrix(.35278 0 0 .35278 -32.541 -1443.4)" style="fill:#1c1c19">
   <g id="use88269" transform="translate(349.02 4229.8)">
    <path id="path107535" d="m0.5-5.6562v0.64062h2.7656v0.015625l-2.4531 5h0.78125l2.4688-5.1562v-0.5z"/>
   </g>
  </g>
  <g id="g88277" transform="matrix(.35278 0 0 .35278 -32.541 -1443.4)" style="fill:#1c1c19">
   <g id="use88273" transform="translate(346.99 4403.3)">
    <path id="path107539" d="m0.26562-2.6406v0.5625h2.1406v-0.5625z"/>
   </g>
   <g id="use88275" transform="translate(349.7 4403.3)">
    <path id="path107543" d="m3.7656-5.6562h-2.7031l-0.35938 2.7188c0.20312-0.03125 0.45312-0.0625 0.78125-0.0625 1.125 0 1.6094 0.51562 1.625 1.25 0 0.76562-0.625 1.2344-1.3438 1.2344-0.51562 0-0.96875-0.1875-1.2031-0.3125l-0.20312 0.57812c0.28125 0.17188 0.79688 0.34375 1.4219 0.34375 1.2188 0 2.0938-0.82812 2.0938-1.9375 0-0.70312-0.35938-1.1875-0.79688-1.4531-0.35938-0.20312-0.79688-0.29688-1.2188-0.29688-0.21875 0-0.34375 0.015625-0.46875 0.03125l0.21875-1.4531h2.1562z"/>
   </g>
  </g>
  <g id="g88283" transform="matrix(.35278 0 0 .35278 -32.541 -1443.4)" style="fill:#1c1c19">
   <g id="use88279" transform="translate(346.99 4417.7)">
    <path id="path107547" d="m0.26562-2.6406v0.5625h2.1406v-0.5625z"/>
   </g>
   <g id="use88281" transform="translate(349.7 4417.7)">
    <path id="path107551" d="m3.625-5.75c-0.14062 0-0.32812 0.015625-0.5625 0.046875-0.71875 0.09375-1.3438 0.375-1.8125 0.84375-0.54688 0.54688-0.95312 1.4375-0.95312 2.5469 0 1.4688 0.79688 2.4062 2 2.4062 1.1719 0 1.875-0.95312 1.875-1.9844 0-1.1094-0.70312-1.8281-1.7031-1.8281-0.625 0-1.0938 0.29688-1.3594 0.64062h-0.03125c0.125-0.92188 0.76562-1.7969 1.9688-2 0.21875-0.046875 0.42188-0.046875 0.57812-0.046875zm-1.3281 5.25c-0.79688 0-1.2188-0.6875-1.25-1.6094 0-0.14062 0.046875-0.26562 0.09375-0.34375 0.20312-0.40625 0.64062-0.70312 1.0938-0.70312 0.70312 0 1.1719 0.5 1.1719 1.2969 0 0.8125-0.45312 1.3594-1.1094 1.3594z"/>
   </g>
  </g>
  <g id="g88289" transform="matrix(.35278 0 0 .35278 -32.541 -1443.4)" style="fill:#1c1c19">
   <g id="use88285" transform="translate(346.99 4432.2)">
    <path id="path107555" d="m0.26562-2.6406v0.5625h2.1406v-0.5625z"/>
   </g>
   <g id="use88287" transform="translate(349.7 4432.2)">
    <path id="path107559" d="m0.5-5.6562v0.64062h2.7656v0.015625l-2.4531 5h0.78125l2.4688-5.1562v-0.5z"/>
   </g>
  </g>
  <g id="g88295" transform="matrix(.35278 0 0 .35278 -32.541 -1443.4)" style="fill:#1c1c19">
   <g id="use88291" transform="translate(283.72 4339.9)">
    <path id="path107563" d="m0.26562-2.6406v0.5625h2.1406v-0.5625z"/>
   </g>
   <g id="use88293" transform="translate(286.43 4339.9)">
    <path id="path107567" d="m3.7656-5.6562h-2.7031l-0.35938 2.7188c0.20312-0.03125 0.45312-0.0625 0.78125-0.0625 1.125 0 1.6094 0.51562 1.625 1.25 0 0.76562-0.625 1.2344-1.3438 1.2344-0.51562 0-0.96875-0.1875-1.2031-0.3125l-0.20312 0.57812c0.28125 0.17188 0.79688 0.34375 1.4219 0.34375 1.2188 0 2.0938-0.82812 2.0938-1.9375 0-0.70312-0.35938-1.1875-0.79688-1.4531-0.35938-0.20312-0.79688-0.29688-1.2188-0.29688-0.21875 0-0.34375 0.015625-0.46875 0.03125l0.21875-1.4531h2.1562z"/>
   </g>
  </g>
  <g id="g88301" transform="matrix(.35278 0 0 .35278 -32.541 -1443.4)" style="fill:#1c1c19">
   <g id="use88297" transform="translate(269.28 4339.9)">
    <path id="path107571" d="m0.26562-2.6406v0.5625h2.1406v-0.5625z"/>
   </g>
   <g id="use88299" transform="translate(272 4339.9)">
    <path id="path107575" d="m3.625-5.75c-0.14062 0-0.32812 0.015625-0.5625 0.046875-0.71875 0.09375-1.3438 0.375-1.8125 0.84375-0.54688 0.54688-0.95312 1.4375-0.95312 2.5469 0 1.4688 0.79688 2.4062 2 2.4062 1.1719 0 1.875-0.95312 1.875-1.9844 0-1.1094-0.70312-1.8281-1.7031-1.8281-0.625 0-1.0938 0.29688-1.3594 0.64062h-0.03125c0.125-0.92188 0.76562-1.7969 1.9688-2 0.21875-0.046875 0.42188-0.046875 0.57812-0.046875zm-1.3281 5.25c-0.79688 0-1.2188-0.6875-1.25-1.6094 0-0.14062 0.046875-0.26562 0.09375-0.34375 0.20312-0.40625 0.64062-0.70312 1.0938-0.70312 0.70312 0 1.1719 0.5 1.1719 1.2969 0 0.8125-0.45312 1.3594-1.1094 1.3594z"/>
   </g>
  </g>
  <g id="g88307" transform="matrix(.35278 0 0 .35278 -32.541 -1443.4)" style="fill:#1c1c19">
   <g id="use88303" transform="translate(254.85 4339.9)">
    <path id="path107579" d="m0.26562-2.6406v0.5625h2.1406v-0.5625z"/>
   </g>
   <g id="use88305" transform="translate(257.56 4339.9)">
    <path id="path107583" d="m0.5-5.6562v0.64062h2.7656v0.015625l-2.4531 5h0.78125l2.4688-5.1562v-0.5z"/>
   </g>
  </g>
  <path id="path88311" d="m79.344 88.744v15.276h10.185" style="fill:none;stroke-dasharray:1.41111, 1.41111;stroke-miterlimit:10;stroke-width:.26458;stroke:#1c1c19"/>
  <path id="path88313" d="m84.436 104.14v24.193" style="fill:none;stroke-miterlimit:10;stroke-width:.26458;stroke:#1c1c19"/>
  <path id="path88315" d="m96.717 50.262 2.1084-0.09511-0.77584-1.5406z" style="fill:#1c1c19"/>
  <path id="path88317" d="m97.608 49.814 8.2228-4.1396" style="fill:#1c1c19;stroke-miterlimit:10;stroke-width:.35278;stroke:#1c1c19"/>
  <path id="path88319" d="m126.99 80.854 2.107-0.0951-0.77583-1.5406z" style="fill:#1c1c19"/>
  <path id="path88321" d="m127.88 80.407 8.2228-4.1383" style="fill:#1c1c19;stroke-miterlimit:10;stroke-width:.35278;stroke:#1c1c19"/>
  <path id="path88323" d="m79.993 104.02c0 0.35829-0.29077 0.64905-0.64906 0.64905-0.35829 0-0.64906-0.29076-0.64906-0.64905 0-0.35828 0.29076-0.64904 0.64906-0.64904 0.35829 0 0.64906 0.29076 0.64906 0.64904" style="fill:#c21c19"/>
 </g>
</svg>
