<svg id="svg97243" version="1.1" viewBox="0 0 96.492 26.323" xmlns="http://www.w3.org/2000/svg">
 <title id="title97440">img_77</title>
 <g id="layer1" transform="translate(-96.897 -138.03)">
  <path id="path85867" d="m120.92 152.88h72.268" style="fill:none;stroke-linecap:square;stroke-miterlimit:10;stroke-width:.40287;stroke:#000"/>
  <g id="use85869" transform="matrix(.35278 0 0 .35278 121.63 148.63)">
   <path id="path97094" d="m1.0156-6.9062v-2.8438h8.6875v2.8438z"/>
  </g>
  <g id="use85871" transform="matrix(.35278 0 0 .35278 125.4 148.63)">
   <path id="path97098" d="m4.7188 0h-2.6094v-23h2.8125v8.2031c1.1953-1.5 2.7227-2.25 4.5781-2.25 1.0195 0 1.9883 0.21094 2.9062 0.625 0.91406 0.41797 1.6641 1 2.25 1.75 0.59375 0.74219 1.0547 1.6406 1.3906 2.7031 0.34375 1.0547 0.51562 2.1836 0.51562 3.3906 0 2.8555-0.71094 5.0625-2.125 6.625-1.418 1.5547-3.1094 2.3281-5.0781 2.3281s-3.5156-0.82031-4.6406-2.4688zm-0.03125-8.4531c0 1.9922 0.27344 3.4336 0.82812 4.3281 0.88281 1.4492 2.0859 2.1719 3.6094 2.1719 1.2266 0 2.2891-0.53125 3.1875-1.5938 0.90625-1.0703 1.3594-2.6719 1.3594-4.7969 0-2.1758-0.43359-3.7812-1.2969-4.8125-0.86719-1.0391-1.9062-1.5625-3.125-1.5625-1.2422 0-2.3125 0.53906-3.2188 1.6094-0.89844 1.0742-1.3438 2.625-1.3438 4.6562z"/>
  </g>
  <g id="use85873" transform="matrix(.35278 0 0 .35278 131.71 148.63)"></g>
  <g id="use85875" transform="matrix(.35278 0 0 .35278 134.86 148.63)">
   <path id="path97106" d="m7.4844-4.0781v-6.3281h-6.2656v-2.625h6.2656v-6.25h2.6719v6.25h6.2656v2.625h-6.2656v6.3281zm8.9375 4.0781h-15.203v-2.6406h15.203z"/>
  </g>
  <g id="use85877" transform="matrix(.35278 0 0 .35278 141.08 148.63)"></g>
  <g id="use85879" transform="matrix(.35278 0 0 .35278 144.24 148.63)">
   <path id="path97114" d="m16.484-29.328h1.1562l-4.8906 30.547-7.7969-16.016-3.0938 1.4219-0.54688-1 4.7344-2.375 6.3438 12.922z"/>
  </g>
  <g id="use85881" transform="matrix(.35278 0 0 .35278 150.46 148.63)"></g>
  <g id="use85883" transform="matrix(.35278 0 0 .35278 153.61 148.63)">
   <path id="path97122" d="m4.7188 0h-2.6094v-23h2.8125v8.2031c1.1953-1.5 2.7227-2.25 4.5781-2.25 1.0195 0 1.9883 0.21094 2.9062 0.625 0.91406 0.41797 1.6641 1 2.25 1.75 0.59375 0.74219 1.0547 1.6406 1.3906 2.7031 0.34375 1.0547 0.51562 2.1836 0.51562 3.3906 0 2.8555-0.71094 5.0625-2.125 6.625-1.418 1.5547-3.1094 2.3281-5.0781 2.3281s-3.5156-0.82031-4.6406-2.4688zm-0.03125-8.4531c0 1.9922 0.27344 3.4336 0.82812 4.3281 0.88281 1.4492 2.0859 2.1719 3.6094 2.1719 1.2266 0 2.2891-0.53125 3.1875-1.5938 0.90625-1.0703 1.3594-2.6719 1.3594-4.7969 0-2.1758-0.43359-3.7812-1.2969-4.8125-0.86719-1.0391-1.9062-1.5625-3.125-1.5625-1.2422 0-2.3125 0.53906-3.2188 1.6094-0.89844 1.0742-1.3438 2.625-1.3438 4.6562z"/>
  </g>
  <g id="use85887" transform="matrix(.35278 0 0 .35278 159.91 144.85)">
   <path id="path97126" d="m9.4375-1.5781v1.5781h-8.875c-0.011719-0.39453 0.054688-0.77344 0.20312-1.1406 0.21875-0.60156 0.57812-1.1953 1.0781-1.7812 0.5-0.59375 1.2188-1.2695 2.1562-2.0312 1.457-1.1953 2.4414-2.1445 2.9531-2.8438 0.50781-0.69531 0.76562-1.3594 0.76562-1.9844 0-0.64453-0.23438-1.1914-0.70312-1.6406-0.46094-0.45703-1.0625-0.6875-1.8125-0.6875-0.80469 0-1.4453 0.24219-1.9219 0.71875-0.46875 0.48047-0.70312 1.1406-0.70312 1.9844l-1.7031-0.1875c0.11328-1.2578 0.55078-2.2188 1.3125-2.875 0.75781-0.66406 1.7734-1 3.0469-1 1.2812 0 2.2969 0.35938 3.0469 1.0781 0.75 0.71094 1.125 1.5898 1.125 2.6406 0 0.54297-0.10938 1.0742-0.32812 1.5938-0.21875 0.52344-0.58594 1.0703-1.0938 1.6406-0.5 0.57422-1.3438 1.3594-2.5312 2.3594-0.99219 0.82422-1.625 1.3867-1.9062 1.6875-0.28125 0.29297-0.51172 0.58984-0.6875 0.89062z"/>
  </g>
  <g id="use85889" transform="matrix(.35278 0 0 .35278 163.59 144.85)"></g>
  <g id="use85893" transform="matrix(.35278 0 0 .35278 165.42 148.63)">
   <path id="path97134" d="m1.0156-6.9062v-2.8438h8.6875v2.8438z"/>
  </g>
  <g id="use85895" transform="matrix(.35278 0 0 .35278 169.2 148.63)"></g>
  <g id="use85897" transform="matrix(.35278 0 0 .35278 172.35 148.63)">
   <path id="path97142" d="m10.391 0v-5.5156h-9.9844v-2.5781l10.5-14.906h2.3125v14.906h3.1094v2.5781h-3.1094v5.5156zm0-8.0938v-10.375l-7.2031 10.375z"/>
  </g>
  <g id="use85899" transform="matrix(.35278 0 0 .35278 178.65 148.63)">
   <path id="path97146" d="m13-2.0625c-1.0547 0.89844-2.0625 1.5273-3.0312 1.8906s-2.0078 0.54688-3.1094 0.54688c-1.8359 0-3.2461-0.44531-4.2344-1.3438-0.98047-0.89453-1.4688-2.0352-1.4688-3.4219 0-0.82031 0.1875-1.5664 0.5625-2.2344 0.375-0.67578 0.85938-1.2188 1.4531-1.625 0.60156-0.40625 1.2812-0.71875 2.0312-0.9375 0.5625-0.14453 1.3984-0.28516 2.5156-0.42188 2.2812-0.26953 3.9609-0.59375 5.0469-0.96875 0.0078-0.38281 0.01563-0.62891 0.01563-0.73438 0-1.1562-0.27344-1.9688-0.8125-2.4375-0.71875-0.63281-1.793-0.95312-3.2188-0.95312-1.3242 0-2.3047 0.23438-2.9375 0.70312-0.63672 0.46094-1.1055 1.2812-1.4062 2.4688l-2.7656-0.375c0.25781-1.1875 0.67578-2.1406 1.25-2.8594 0.57031-0.72656 1.3984-1.2891 2.4844-1.6875 1.0938-0.39453 2.3594-0.59375 3.7969-0.59375 1.4141 0 2.5664 0.17188 3.4531 0.51562 0.89453 0.33594 1.5508 0.75781 1.9688 1.2656 0.41406 0.5 0.70703 1.1367 0.875 1.9062 0.09375 0.48047 0.14062 1.3516 0.14062 2.6094v3.7656c0 2.625 0.05469 4.2891 0.17188 4.9844 0.125 0.69922 0.36719 1.3672 0.73438 2h-2.9531c-0.29297-0.58203-0.48047-1.2695-0.5625-2.0625zm-0.23438-6.2969c-1.0312 0.41797-2.5742 0.77344-4.625 1.0625-1.1562 0.16797-1.9805 0.35547-2.4688 0.5625-0.48047 0.21094-0.85156 0.51562-1.1094 0.92188-0.26172 0.40625-0.39062 0.85547-0.39062 1.3438 0 0.75 0.28516 1.375 0.85938 1.875 0.57031 0.5 1.4062 0.75 2.5 0.75s2.0625-0.23438 2.9062-0.70312c0.84375-0.47656 1.4609-1.1289 1.8594-1.9531 0.3125-0.64453 0.46875-1.5859 0.46875-2.8281z"/>
  </g>
  <g id="use85901" transform="matrix(.35278 0 0 .35278 184.96 148.63)">
   <path id="path97150" d="m13-6.1094 2.7656 0.35938c-0.30469 1.918-1.0781 3.418-2.3281 4.5-1.25 1.0859-2.7891 1.625-4.6094 1.625-2.2734 0-4.1055-0.74219-5.5-2.2344-1.3867-1.4883-2.0781-3.625-2.0781-6.4062 0-1.8008 0.29688-3.375 0.89062-4.7188 0.60156-1.3516 1.5156-2.3672 2.7344-3.0469 1.2188-0.67578 2.5391-1.0156 3.9688-1.0156 1.8125 0 3.2891 0.46094 4.4375 1.375 1.1562 0.91797 1.8945 2.2188 2.2188 3.9062l-2.7344 0.42188c-0.27344-1.125-0.74219-1.9688-1.4062-2.5312-0.65625-0.5625-1.4531-0.84375-2.3906-0.84375-1.4297 0-2.5898 0.51172-3.4844 1.5312-0.88672 1.0234-1.3281 2.6367-1.3281 4.8438 0 2.2422 0.42578 3.8672 1.2812 4.875 0.86328 1.0117 1.9844 1.5156 3.3594 1.5156 1.1133 0 2.0391-0.33594 2.7812-1.0156 0.75-0.67578 1.2227-1.7227 1.4219-3.1406z"/>
  </g>
  <g id="use85905" transform="matrix(.35278 0 0 .35278 149.7 164.22)">
   <path id="path97154" d="m16.188-2.7188v2.7188h-15.219c-0.023437-0.67578 0.085938-1.332 0.32812-1.9688 0.39453-1.0312 1.0156-2.0469 1.8594-3.0469 0.85156-1.0078 2.0859-2.1719 3.7031-3.4844 2.5-2.0508 4.1875-3.6758 5.0625-4.875 0.88281-1.1953 1.3281-2.332 1.3281-3.4062 0-1.1133-0.40234-2.0547-1.2031-2.8281-0.80469-0.76953-1.8516-1.1562-3.1406-1.1562-1.3555 0-2.4453 0.41406-3.2656 1.2344-0.8125 0.8125-1.2266 1.9375-1.2344 3.375l-2.9062-0.29688c0.20703-2.1641 0.95703-3.8125 2.25-4.9375 1.3008-1.1328 3.0469-1.7031 5.2344-1.7031 2.1953 0 3.9414 0.61719 5.2344 1.8438 1.2891 1.2188 1.9375 2.7305 1.9375 4.5312 0 0.92969-0.19531 1.8359-0.57812 2.7188-0.375 0.88672-1 1.8242-1.875 2.8125-0.875 0.98047-2.3242 2.3281-4.3438 4.0469-1.6992 1.4297-2.7891 2.3984-3.2656 2.9062-0.48047 0.5-0.88281 1.0078-1.2031 1.5156z"/>
  </g>
  <g id="use85907" transform="matrix(.35278 0 0 .35278 156 164.22)">
   <path id="path97158" d="m13-2.0625c-1.0547 0.89844-2.0625 1.5273-3.0312 1.8906s-2.0078 0.54688-3.1094 0.54688c-1.8359 0-3.2461-0.44531-4.2344-1.3438-0.98047-0.89453-1.4688-2.0352-1.4688-3.4219 0-0.82031 0.1875-1.5664 0.5625-2.2344 0.375-0.67578 0.85938-1.2188 1.4531-1.625 0.60156-0.40625 1.2812-0.71875 2.0312-0.9375 0.5625-0.14453 1.3984-0.28516 2.5156-0.42188 2.2812-0.26953 3.9609-0.59375 5.0469-0.96875 0.0078-0.38281 0.01563-0.62891 0.01563-0.73438 0-1.1562-0.27344-1.9688-0.8125-2.4375-0.71875-0.63281-1.793-0.95312-3.2188-0.95312-1.3242 0-2.3047 0.23438-2.9375 0.70312-0.63672 0.46094-1.1055 1.2812-1.4062 2.4688l-2.7656-0.375c0.25781-1.1875 0.67578-2.1406 1.25-2.8594 0.57031-0.72656 1.3984-1.2891 2.4844-1.6875 1.0938-0.39453 2.3594-0.59375 3.7969-0.59375 1.4141 0 2.5664 0.17188 3.4531 0.51562 0.89453 0.33594 1.5508 0.75781 1.9688 1.2656 0.41406 0.5 0.70703 1.1367 0.875 1.9062 0.09375 0.48047 0.14062 1.3516 0.14062 2.6094v3.7656c0 2.625 0.05469 4.2891 0.17188 4.9844 0.125 0.69922 0.36719 1.3672 0.73438 2h-2.9531c-0.29297-0.58203-0.48047-1.2695-0.5625-2.0625zm-0.23438-6.2969c-1.0312 0.41797-2.5742 0.77344-4.625 1.0625-1.1562 0.16797-1.9805 0.35547-2.4688 0.5625-0.48047 0.21094-0.85156 0.51562-1.1094 0.92188-0.26172 0.40625-0.39062 0.85547-0.39062 1.3438 0 0.75 0.28516 1.375 0.85938 1.875 0.57031 0.5 1.4062 0.75 2.5 0.75s2.0625-0.23438 2.9062-0.70312c0.84375-0.47656 1.4609-1.1289 1.8594-1.9531 0.3125-0.64453 0.46875-1.5859 0.46875-2.8281z"/>
  </g>
  <g id="use85911" transform="matrix(.35278 0 0 .35278 96.792 156.43)" style="fill:#1c1c19">
   <path id="path97162" d="m3.875-17.5 4.4219 8.5625-8 8.9375h3.5625l3.3125-3.9375c0.875-1.0469 1.6719-2 2.4531-3.0469h0.078125c0.42188 1.0469 0.82812 2.0312 1.3438 3.0469l1.875 3.9375h3.6875l-4.5625-9.0469 7.6562-8.4531h-3.5l-3.2031 3.7188c-0.76562 0.9375-1.5312 1.8438-2.2969 2.8906h-0.10938c-0.42188-0.96875-0.79688-1.875-1.2812-2.8594l-1.8281-3.75z"/>
  </g>
  <g id="use85913" transform="matrix(.35278 0 0 .35278 102.87 156.43)" style="fill:#1c1c19"></g>
  <g id="use85915" transform="matrix(.35278 0 0 .35278 105.69 156.43)" style="fill:#1c1c19">
   <path id="path97170" d="m22.75-12.188 0.40625-2.1719h-19l-0.40625 2.1719zm-1.3281 7.0938 0.40625-2.1719h-19l-0.40625 2.1719z"/>
  </g>
  <g id="use85917" transform="matrix(.35278 0 0 .35278 113.49 156.43)" style="fill:#1c1c19"></g>
  <path id="path85921" d="m150.07 138.21h41.206" style="fill:none;stroke-miterlimit:10;stroke-width:.35278;stroke:#000"/>
 </g>
</svg>
