<svg xmlns="http://www.w3.org/2000/svg" xmlns:xlink="http://www.w3.org/1999/xlink" viewBox="0 0 67.92 33.66"><defs><clipPath id="clip-path" transform="translate(-452.11 -2887.5)"><rect width="930" height="4943.41" style="fill:none"/></clipPath></defs><title>img_6</title><g id="Layer_2" data-name="Layer 2"><g id="Layer_1-2" data-name="Layer 1"><g style="clip-path:url(#clip-path)"><path d="M454.4,2909.94l-2.29-11.45h1.64l1.42,8.32c.11.67.2,1.29.25,1.88.29-.63.62-1.25,1-1.88l4.65-8.32h1.55L456,2909.94Z" transform="translate(-452.11 -2887.5)"/><path d="M465.9,2901.63h9.33V2903H465.9Zm9.33,4.65H465.9V2905h9.33Z" transform="translate(-452.11 -2887.5)"/><line x1="29.79" y1="17.45" x2="41.79" y2="17.45" style="fill:none;stroke:#000;stroke-linecap:square;stroke-miterlimit:10"/></g><path d="M488.07,2899v-2.75h-5v-1.28l5.22-7.43h1.15v7.43H491v1.28h-1.55V2899Zm0-4v-5.17l-3.58,5.17Z" transform="translate(-452.11 -2887.5)"/><path d="M483.57,2917.93l1.41-.18a3.15,3.15,0,0,0,.82,1.72,2.07,2.07,0,0,0,1.42.53,2.29,2.29,0,0,0,1.68-.69,2.35,2.35,0,0,0,.68-1.7,2.16,2.16,0,0,0-.63-1.6,2.19,2.19,0,0,0-1.61-.63,3.73,3.73,0,0,0-1,.16l.15-1.24.23,0a2.93,2.93,0,0,0,1.62-.47,1.61,1.61,0,0,0,.72-1.45,1.72,1.72,0,0,0-.53-1.28,1.86,1.86,0,0,0-1.35-.51,2,2,0,0,0-1.37.52,2.64,2.64,0,0,0-.7,1.55l-1.41-.25a3.67,3.67,0,0,1,1.18-2.2,3.41,3.41,0,0,1,2.27-.77,3.73,3.73,0,0,1,1.73.4,2.85,2.85,0,0,1,1.2,1.1,2.78,2.78,0,0,1,.42,1.47,2.41,2.41,0,0,1-.4,1.36,2.72,2.72,0,0,1-1.18,1,2.63,2.63,0,0,1,1.58,1,2.9,2.9,0,0,1,.56,1.84,3.4,3.4,0,0,1-1.09,2.55,3.87,3.87,0,0,1-2.77,1,3.6,3.6,0,0,1-2.5-.9A3.51,3.51,0,0,1,483.57,2917.93Z" transform="translate(-452.11 -2887.5)"/><path d="M514.41,2900.69l1.05-.14a2.3,2.3,0,0,0,.62,1.29,1.53,1.53,0,0,0,1.06.4,1.72,1.72,0,0,0,1.26-.52,1.74,1.74,0,0,0,.51-1.28,1.62,1.62,0,0,0-1.68-1.67,2.88,2.88,0,0,0-.74.12l.11-.93.17,0a2.23,2.23,0,0,0,1.22-.35,1.22,1.22,0,0,0,.54-1.09,1.28,1.28,0,0,0-.4-1,1.41,1.41,0,0,0-1-.38,1.45,1.45,0,0,0-1,.39,1.88,1.88,0,0,0-.52,1.16l-1.06-.19a2.66,2.66,0,0,1,.88-1.64,2.56,2.56,0,0,1,1.71-.59,2.81,2.81,0,0,1,1.29.3,2.16,2.16,0,0,1,1.22,1.93,1.82,1.82,0,0,1-.3,1,2,2,0,0,1-.88.72,2.06,2.06,0,0,1,1.18.73,2.25,2.25,0,0,1,.42,1.39,2.53,2.53,0,0,1-.82,1.91,2.89,2.89,0,0,1-2.07.78,2.74,2.74,0,0,1-1.88-.67A2.61,2.61,0,0,1,514.41,2900.69Z" transform="translate(-452.11 -2887.5)"/><g style="clip-path:url(#clip-path)"><path d="M505.53,2906.62l.8-4.34h2l.25-1.33h-8c-1.1,0-1.78.67-2,2h1c.09-.45.57-.67,1.46-.67-.29,1.56-.55,3-.8,4.34a7.31,7.31,0,0,1-1.28,3.33h1.33a6.46,6.46,0,0,0,.43-.5,8,8,0,0,0,.85-2.83l.81-4.34H505l-.8,4.34c-.42,2.22,0,3.33,1.37,3.33.67,0,1.2-.44,1.58-1.33q-2.19,1-1.62-2" transform="translate(-452.11 -2887.5)"/><path d="M508.94,2909.94l1.55-8.29h1.27l-.24,1.26a4.86,4.86,0,0,1,1.11-1.17,1.81,1.81,0,0,1,1-.28,2.35,2.35,0,0,1,1.36.45l-.73,1.31a1.67,1.67,0,0,0-1-.31,1.61,1.61,0,0,0-.88.28,1.94,1.94,0,0,0-.67.77,6.2,6.2,0,0,0-.54,1.64l-.82,4.34Z" transform="translate(-452.11 -2887.5)"/></g></g></g></svg>