<svg id="svg51338" version="1.1" viewBox="0 0 53.914 12.245" xmlns="http://www.w3.org/2000/svg">
 <title id="title51485">img_40</title>
 <g id="layer1" transform="translate(-47.126 -105)">
  <g id="g47211" transform="matrix(.35278 0 0 .35278 19.962 -656.23)" style="fill:#020505">
   <g id="use47209" transform="translate(76.33 2180.3)">
    <path id="path51237" d="m0.875-2.6562 1.3594-0.125c0.11328 0.63672 0.33203 1.1016 0.65625 1.3906 0.32031 0.28125 0.73438 0.42188 1.2344 0.42188 0.4375 0 0.81641-0.097656 1.1406-0.29688 0.32031-0.19531 0.58594-0.45703 0.79688-0.78125 0.20703-0.33203 0.37891-0.78125 0.51562-1.3438 0.14453-0.5625 0.21875-1.1328 0.21875-1.7188v-0.28125c-0.28125 0.44922-0.66797 0.8125-1.1562 1.0938-0.49219 0.27344-1.0156 0.40625-1.5781 0.40625-0.94922 0-1.75-0.34375-2.4062-1.0312s-0.98438-1.5938-0.98438-2.7188c0-1.1562 0.33594-2.0859 1.0156-2.7969 0.6875-0.70703 1.5469-1.0625 2.5781-1.0625 0.75 0 1.4297 0.20312 2.0469 0.60938 0.61328 0.39844 1.082 0.96484 1.4062 1.7031 0.32031 0.74219 0.48438 1.8125 0.48438 3.2188 0 1.4688-0.16406 2.6367-0.48438 3.5-0.3125 0.86719-0.78906 1.5273-1.4219 1.9844-0.625 0.46094-1.3594 0.6875-2.2031 0.6875-0.89844 0-1.6328-0.25-2.2031-0.75-0.5625-0.5-0.90234-1.2031-1.0156-2.1094zm5.7656-5.0469c0-0.8125-0.21875-1.4531-0.65625-1.9219-0.42969-0.47656-0.94531-0.71875-1.5469-0.71875-0.625 0-1.1719 0.25781-1.6406 0.76562-0.46094 0.51172-0.6875 1.1719-0.6875 1.9844 0 0.73047 0.21875 1.3242 0.65625 1.7812 0.44531 0.46094 0.99219 0.6875 1.6406 0.6875 0.64453 0 1.1758-0.22656 1.5938-0.6875 0.42578-0.45703 0.64062-1.0859 0.64062-1.8906z"/>
   </g>
  </g>
  <path id="path47213" d="m50.593 112.94h0.70556v-0.70555h-0.70556z" style="fill:#020505"/>
  <g id="g47217" transform="matrix(.35278 0 0 .35278 19.962 -656.23)" style="fill:#020505">
   <g id="use47215" transform="translate(90.33 2180.3)">
    <path id="path51241" d="m0.67188-5.6562c0-1.3516 0.13281-2.4414 0.40625-3.2656 0.28125-0.82031 0.69531-1.457 1.25-1.9062 0.55078-0.44531 1.2422-0.67188 2.0781-0.67188 0.61328 0 1.1484 0.125 1.6094 0.375 0.46875 0.24219 0.85156 0.59375 1.1562 1.0625 0.30078 0.46875 0.53516 1.0391 0.70312 1.7031 0.17578 0.66797 0.26562 1.5703 0.26562 2.7031 0 1.3438-0.14062 2.4336-0.42188 3.2656-0.27344 0.82422-0.68359 1.4648-1.2344 1.9219-0.55469 0.44922-1.2461 0.67188-2.0781 0.67188-1.1055 0-1.9766-0.39844-2.6094-1.2031-0.75-0.94531-1.125-2.5-1.125-4.6562zm1.4375 0c0 1.8867 0.21875 3.1406 0.65625 3.7656 0.44531 0.61719 0.99219 0.92188 1.6406 0.92188 0.64453 0 1.1875-0.3125 1.625-0.9375s0.65625-1.875 0.65625-3.75c0-1.8828-0.21875-3.1328-0.65625-3.75-0.4375-0.625-0.98438-0.9375-1.6406-0.9375-0.64844 0-1.1641 0.27734-1.5469 0.82812-0.49219 0.69922-0.73438 1.9844-0.73438 3.8594z"/>
   </g>
  </g>
  <path id="path47219" d="m55.846 112.94c-0.0041 0.18052-0.03305 0.31835-0.08819 0.41342-0.05512 0.0965-0.1378 0.16951-0.24804 0.22049l0.14883 0.22736c0.17225-0.0744 0.30179-0.18601 0.3886-0.33485 0.08682-0.14884 0.12954-0.33486 0.12954-0.55947v-0.6725h-0.70556v0.70555z" style="fill:#020505"/>
  <path id="path47221" d="m61.573 111.77 0.2825-1.5324h0.70969l0.08819-0.46853h-2.8277c-0.38861 0-0.62838 0.23566-0.71658 0.70556h0.35278c0.0303-0.15847 0.20119-0.23703 0.51401-0.23703-0.1006 0.55121-0.1943 1.0625-0.2825 1.5324-0.10197 0.54709-0.25356 0.93843-0.452 1.1741h0.46854c0.0041 0 0.05512-0.0593 0.15158-0.17639 0.09784-0.11712 0.19706-0.4506 0.30042-0.99769l0.28663-1.5324h0.93844l-0.2825 1.5324c-0.14607 0.78271 0.01517 1.1741 0.48507 1.1741 0.23564 0 0.4203-0.15709 0.55673-0.46852-0.51401 0.23565-0.70556 0-0.57326-0.70556" style="fill:#020505"/>
  <path id="path47223" d="m63.822 111.06h3.2908v-0.47406h-3.2908z" style="fill:#020505"/>
  <g id="g47227" transform="matrix(.35278 0 0 .35278 19.962 -656.23)" style="fill:#020505">
   <g id="use47225" transform="translate(136.33 2180.3)">
    <path id="path51245" d="m5.9688 0h-1.4062v-8.9688c-0.34375 0.32422-0.79297 0.64844-1.3438 0.96875-0.54297 0.32422-1.0312 0.57031-1.4688 0.73438v-1.3594c0.78125-0.375 1.4609-0.82031 2.0469-1.3438 0.59375-0.53125 1.0156-1.0391 1.2656-1.5312h0.90625z"/>
   </g>
  </g>
  <path id="path47229" d="m75.462 111.06h3.2908v-0.47406h-3.2908zm-3.3886 1.8796c-0.0028 0.18052-0.03305 0.31835-0.08819 0.41342-0.05512 0.0951-0.13781 0.16951-0.24805 0.22187l0.14883 0.22598c0.17363-0.0744 0.30317-0.18739 0.38861-0.33485 0.08682-0.14884 0.12954-0.33486 0.12954-0.5581v-0.67387h-0.70556v0.70555z" style="fill:#020505"/>
  <path id="path47231" d="m80.756 111.18h7.4083" style="fill:none;stroke-linecap:square;stroke-miterlimit:10;stroke-width:.35278;stroke:#020505"/>
  <g id="g51475">
   <g id="g47235" transform="matrix(.35278 0 0 .35278 19.962 -656.23)" style="fill:#020505">
    <g id="use47233" transform="translate(173.33 2169.3)">
     <path id="path51249" d="m5.9688 0h-1.4062v-8.9688c-0.34375 0.32422-0.79297 0.64844-1.3438 0.96875-0.54297 0.32422-1.0312 0.57031-1.4688 0.73438v-1.3594c0.78125-0.375 1.4609-0.82031 2.0469-1.3438 0.59375-0.53125 1.0156-1.0391 1.2656-1.5312h0.90625z"/>
    </g>
   </g>
   <g id="g47239" transform="matrix(.35278 0 0 .35278 19.962 -656.23)" style="fill:#020505">
    <g id="use47237" transform="translate(182.32 2169.3)">
     <path id="path51253" d="m0.67188-3.0312 1.4062-0.1875c0.16406 0.80469 0.44141 1.3828 0.82812 1.7344 0.38281 0.34375 0.85938 0.51562 1.4219 0.51562 0.65625 0 1.2109-0.22656 1.6719-0.6875 0.45703-0.45703 0.6875-1.0234 0.6875-1.7031 0-0.64453-0.21484-1.1758-0.64062-1.5938-0.41797-0.41406-0.95312-0.625-1.6094-0.625-0.26172 0-0.58984 0.054687-0.98438 0.15625l0.15625-1.2344c0.09375 0.011719 0.16406 0.015625 0.21875 0.015625 0.60156 0 1.1445-0.15625 1.625-0.46875 0.47656-0.3125 0.71875-0.79688 0.71875-1.4531 0-0.50781-0.17969-0.92969-0.53125-1.2656-0.34375-0.34375-0.79297-0.51562-1.3438-0.51562-0.55469 0-1.0117 0.17188-1.375 0.51562-0.36719 0.34375-0.60156 0.85938-0.70312 1.5469l-1.4062-0.25c0.17578-0.94531 0.56641-1.6758 1.1719-2.1875 0.61328-0.51953 1.375-0.78125 2.2812-0.78125 0.625 0 1.1953 0.13672 1.7188 0.40625 0.53125 0.26172 0.92969 0.625 1.2031 1.0938 0.28125 0.46094 0.42188 0.94922 0.42188 1.4688 0 0.5-0.13672 0.95312-0.40625 1.3594-0.26172 0.40625-0.65234 0.73047-1.1719 0.96875 0.67578 0.15625 1.2031 0.48047 1.5781 0.96875 0.375 0.49219 0.5625 1.1055 0.5625 1.8438 0 1-0.36719 1.8516-1.0938 2.5469-0.73047 0.69922-1.6523 1.0469-2.7656 1.0469-1 0-1.8359-0.29688-2.5-0.89062-0.66797-0.60156-1.0469-1.3828-1.1406-2.3438z"/>
    </g>
   </g>
  </g>
  <g id="g51483">
   <g id="g47243" transform="matrix(.35278 0 0 .35278 19.962 -656.23)" style="fill:#020505">
    <g id="use47241" transform="translate(173.33 2191.3)">
     <path id="path51257" d="m5.9688 0h-1.4062v-8.9688c-0.34375 0.32422-0.79297 0.64844-1.3438 0.96875-0.54297 0.32422-1.0312 0.57031-1.4688 0.73438v-1.3594c0.78125-0.375 1.4609-0.82031 2.0469-1.3438 0.59375-0.53125 1.0156-1.0391 1.2656-1.5312h0.90625z"/>
    </g>
   </g>
   <g id="g47247" transform="matrix(.35278 0 0 .35278 19.962 -656.23)" style="fill:#020505">
    <g id="use47245" transform="translate(182.32 2191.3)">
     <path id="path51261" d="m8.0625-1.3594v1.3594h-7.5781c-0.011719-0.34375 0.046875-0.67188 0.17188-0.98438 0.1875-0.50781 0.49219-1.0156 0.92188-1.5156 0.42578-0.5 1.0391-1.0781 1.8438-1.7344 1.2383-1.0195 2.0781-1.8281 2.5156-2.4219 0.4375-0.60156 0.65625-1.1719 0.65625-1.7031 0-0.55078-0.19922-1.0195-0.59375-1.4062-0.39844-0.38281-0.91797-0.57812-1.5625-0.57812-0.67969 0-1.2188 0.20312-1.625 0.60938s-0.60938 0.96875-0.60938 1.6875l-1.4531-0.14062c0.10156-1.082 0.47656-1.9062 1.125-2.4688 0.64453-0.5625 1.5078-0.84375 2.5938-0.84375 1.1016 0 1.9727 0.30859 2.6094 0.92188 0.64453 0.60547 0.96875 1.3555 0.96875 2.25 0 0.46094-0.09375 0.91406-0.28125 1.3594-0.1875 0.4375-0.5 0.90234-0.9375 1.3906-0.4375 0.49219-1.1641 1.1641-2.1719 2.0156-0.84375 0.71094-1.3867 1.1953-1.625 1.4531-0.24219 0.25-0.4375 0.5-0.59375 0.75z"/>
    </g>
   </g>
  </g>
  <path id="path47249" d="m89.713 112.94c-0.0041 0.18052-0.03306 0.31835-0.08819 0.41342-0.05512 0.0965-0.1378 0.16951-0.24805 0.22049l0.14883 0.22736c0.17225-0.0744 0.30179-0.18601 0.3886-0.33485 0.08682-0.14884 0.12954-0.33486 0.12954-0.55947v-0.6725h-0.70556v0.70555z" style="fill:#020505"/>
  <path id="path47251" d="m91.692 111.18h9.1722" style="fill:none;stroke-linecap:square;stroke-miterlimit:10;stroke-width:.35278;stroke:#020505"/>
  <g id="g47255" transform="matrix(.35278 0 0 .35278 19.962 -656.23)" style="fill:#020505">
   <g id="use47253" transform="translate(204.33 2169.3)">
    <path id="path51265" d="m0.67188-5.6562c0-1.3516 0.13281-2.4414 0.40625-3.2656 0.28125-0.82031 0.69531-1.457 1.25-1.9062 0.55078-0.44531 1.2422-0.67188 2.0781-0.67188 0.61328 0 1.1484 0.125 1.6094 0.375 0.46875 0.24219 0.85156 0.59375 1.1562 1.0625 0.30078 0.46875 0.53516 1.0391 0.70312 1.7031 0.17578 0.66797 0.26562 1.5703 0.26562 2.7031 0 1.3438-0.14062 2.4336-0.42188 3.2656-0.27344 0.82422-0.68359 1.4648-1.2344 1.9219-0.55469 0.44922-1.2461 0.67188-2.0781 0.67188-1.1055 0-1.9766-0.39844-2.6094-1.2031-0.75-0.94531-1.125-2.5-1.125-4.6562zm1.4375 0c0 1.8867 0.21875 3.1406 0.65625 3.7656 0.44531 0.61719 0.99219 0.92188 1.6406 0.92188 0.64453 0 1.1875-0.3125 1.625-0.9375s0.65625-1.875 0.65625-3.75c0-1.8828-0.21875-3.1328-0.65625-3.75-0.4375-0.625-0.98438-0.9375-1.6406-0.9375-0.64844 0-1.1641 0.27734-1.5469 0.82812-0.49219 0.69922-0.73438 1.9844-0.73438 3.8594z"/>
   </g>
  </g>
  <g id="g47259" transform="matrix(.35278 0 0 .35278 19.962 -656.23)" style="fill:#020505">
   <g id="use47257" transform="translate(218.33 2169.3)">
    <path id="path51269" d="m0.67188-3.0312 1.4062-0.1875c0.16406 0.80469 0.44141 1.3828 0.82812 1.7344 0.38281 0.34375 0.85938 0.51562 1.4219 0.51562 0.65625 0 1.2109-0.22656 1.6719-0.6875 0.45703-0.45703 0.6875-1.0234 0.6875-1.7031 0-0.64453-0.21484-1.1758-0.64062-1.5938-0.41797-0.41406-0.95312-0.625-1.6094-0.625-0.26172 0-0.58984 0.054687-0.98438 0.15625l0.15625-1.2344c0.09375 0.011719 0.16406 0.015625 0.21875 0.015625 0.60156 0 1.1445-0.15625 1.625-0.46875 0.47656-0.3125 0.71875-0.79688 0.71875-1.4531 0-0.50781-0.17969-0.92969-0.53125-1.2656-0.34375-0.34375-0.79297-0.51562-1.3438-0.51562-0.55469 0-1.0117 0.17188-1.375 0.51562-0.36719 0.34375-0.60156 0.85938-0.70312 1.5469l-1.4062-0.25c0.17578-0.94531 0.56641-1.6758 1.1719-2.1875 0.61328-0.51953 1.375-0.78125 2.2812-0.78125 0.625 0 1.1953 0.13672 1.7188 0.40625 0.53125 0.26172 0.92969 0.625 1.2031 1.0938 0.28125 0.46094 0.42188 0.94922 0.42188 1.4688 0 0.5-0.13672 0.95312-0.40625 1.3594-0.26172 0.40625-0.65234 0.73047-1.1719 0.96875 0.67578 0.15625 1.2031 0.48047 1.5781 0.96875 0.375 0.49219 0.5625 1.1055 0.5625 1.8438 0 1-0.36719 1.8516-1.0938 2.5469-0.73047 0.69922-1.6523 1.0469-2.7656 1.0469-1 0-1.8359-0.29688-2.5-0.89062-0.66797-0.60156-1.0469-1.3828-1.1406-2.3438z"/>
   </g>
  </g>
  <g id="g47263" transform="matrix(.35278 0 0 .35278 19.962 -656.23)" style="fill:#020505">
   <g id="use47261" transform="translate(204.33 2192.3)">
    <path id="path51273" d="m0.67188-5.6562c0-1.3516 0.13281-2.4414 0.40625-3.2656 0.28125-0.82031 0.69531-1.457 1.25-1.9062 0.55078-0.44531 1.2422-0.67188 2.0781-0.67188 0.61328 0 1.1484 0.125 1.6094 0.375 0.46875 0.24219 0.85156 0.59375 1.1562 1.0625 0.30078 0.46875 0.53516 1.0391 0.70312 1.7031 0.17578 0.66797 0.26562 1.5703 0.26562 2.7031 0 1.3438-0.14062 2.4336-0.42188 3.2656-0.27344 0.82422-0.68359 1.4648-1.2344 1.9219-0.55469 0.44922-1.2461 0.67188-2.0781 0.67188-1.1055 0-1.9766-0.39844-2.6094-1.2031-0.75-0.94531-1.125-2.5-1.125-4.6562zm1.4375 0c0 1.8867 0.21875 3.1406 0.65625 3.7656 0.44531 0.61719 0.99219 0.92188 1.6406 0.92188 0.64453 0 1.1875-0.3125 1.625-0.9375s0.65625-1.875 0.65625-3.75c0-1.8828-0.21875-3.1328-0.65625-3.75-0.4375-0.625-0.98438-0.9375-1.6406-0.9375-0.64844 0-1.1641 0.27734-1.5469 0.82812-0.49219 0.69922-0.73438 1.9844-0.73438 3.8594z"/>
   </g>
  </g>
  <g id="g47267" transform="matrix(.35278 0 0 .35278 19.962 -656.23)" style="fill:#020505">
   <g id="use47265" transform="translate(218.33 2192.3)">
    <path id="path51277" d="m0.875-2.6562 1.3594-0.125c0.11328 0.63672 0.33203 1.1016 0.65625 1.3906 0.32031 0.28125 0.73438 0.42188 1.2344 0.42188 0.4375 0 0.81641-0.097656 1.1406-0.29688 0.32031-0.19531 0.58594-0.45703 0.79688-0.78125 0.20703-0.33203 0.37891-0.78125 0.51562-1.3438 0.14453-0.5625 0.21875-1.1328 0.21875-1.7188v-0.28125c-0.28125 0.44922-0.66797 0.8125-1.1562 1.0938-0.49219 0.27344-1.0156 0.40625-1.5781 0.40625-0.94922 0-1.75-0.34375-2.4062-1.0312s-0.98438-1.5938-0.98438-2.7188c0-1.1562 0.33594-2.0859 1.0156-2.7969 0.6875-0.70703 1.5469-1.0625 2.5781-1.0625 0.75 0 1.4297 0.20312 2.0469 0.60938 0.61328 0.39844 1.082 0.96484 1.4062 1.7031 0.32031 0.74219 0.48438 1.8125 0.48438 3.2188 0 1.4688-0.16406 2.6367-0.48438 3.5-0.3125 0.86719-0.78906 1.5273-1.4219 1.9844-0.625 0.46094-1.3594 0.6875-2.2031 0.6875-0.89844 0-1.6328-0.25-2.2031-0.75-0.5625-0.5-0.90234-1.2031-1.0156-2.1094zm5.7656-5.0469c0-0.8125-0.21875-1.4531-0.65625-1.9219-0.42969-0.47656-0.94531-0.71875-1.5469-0.71875-0.625 0-1.1719 0.25781-1.6406 0.76562-0.46094 0.51172-0.6875 1.1719-0.6875 1.9844 0 0.73047 0.21875 1.3242 0.65625 1.7812 0.44531 0.46094 0.99219 0.6875 1.6406 0.6875 0.64453 0 1.1758-0.22656 1.5938-0.6875 0.42578-0.45703 0.64062-1.0859 0.64062-1.8906z"/>
   </g>
  </g>
 </g>
</svg>
