<svg id="svg71224" version="1.1" viewBox="0 0 66.317 69.607" xmlns="http://www.w3.org/2000/svg">
 <title id="title71775">img_50</title>
 <g id="layer1" transform="translate(-49.996 -89.172)">
  <g id="g54844" transform="matrix(.35278 0 0 .35278 26.059 -1095.5)">
   <g id="use54840" transform="translate(66.839 3372.7)">
    <path id="path70707" d="m1.0156-3.7344 2.6875-0.32812c0.11328 0.76172 0.3125 1.2891 0.59375 1.5781 0.28906 0.29297 0.67578 0.4375 1.1562 0.4375 0.64453 0 1.1758-0.21094 1.5938-0.64062 0.41406-0.42578 0.625-0.97656 0.625-1.6562 0-0.58203-0.17188-1.0391-0.51562-1.375-0.33594-0.34375-0.78906-0.51562-1.3594-0.51562-0.13672 0-0.28125 0.011719-0.4375 0.03125l0.48438-2.3281c0.09375 0.011719 0.1875 0.015625 0.28125 0.015625 0.75 0 1.3164-0.1875 1.7031-0.5625 0.39453-0.38281 0.59375-0.90625 0.59375-1.5625 0-0.45703-0.13672-0.81641-0.40625-1.0781-0.26172-0.26953-0.60547-0.40625-1.0312-0.40625-0.40625 0-0.77344 0.15234-1.0938 0.45312-0.3125 0.29297-0.5625 0.79297-0.75 1.5l-2.5625-0.5c0.32031-1.0508 0.77344-1.8633 1.3594-2.4375 0.875-0.84375 1.9531-1.2656 3.2344-1.2656 1.3203 0 2.3203 0.37109 3 1.1094 0.6875 0.73047 1.0312 1.6055 1.0312 2.625 0 0.74219-0.21875 1.4141-0.65625 2.0156-0.4375 0.59375-1.0391 1.0312-1.7969 1.3125 0.60156 0.3125 1.0469 0.72656 1.3281 1.2344 0.28906 0.51172 0.4375 1.043 0.4375 1.5938 0 1.0547-0.375 2.0234-1.125 2.9062-1.0234 1.2188-2.3398 1.8281-3.9531 1.8281-1.2109 0-2.2109-0.34766-3-1.0469-0.78125-0.69531-1.2578-1.6758-1.4219-2.9375z"/>
   </g>
   <g id="use54842" transform="translate(78.059 3372.7)">
    <path id="path70711" d="m2.3594-14.562h1.9062c0.53125 1.2422 0.92188 2.5 1.1719 3.7812 0.25781 1.2734 0.39062 2.4336 0.39062 3.4844 0 1.3359-0.21484 2.668-0.64062 4-0.42969 1.3359-1.0781 2.6992-1.9531 4.0938-0.5625 0.88281-1.4531 2.0195-2.6719 3.4062h-2.125c1.2422-1.4609 2.1914-2.8281 2.8594-4.1094 0.67578-1.2695 1.1797-2.6602 1.5156-4.1719 0.33203-1.5078 0.5-2.9922 0.5-4.4531 0-0.97656-0.074219-1.9258-0.21875-2.8438-0.14844-0.92578-0.39062-1.9883-0.73438-3.1875z"/>
   </g>
  </g>
  <g id="g54858" transform="matrix(.35278 0 0 .35278 26.059 -1095.5)">
   <g id="use54846" transform="translate(66.839 3409.7)"></g>
   <g id="use54848" transform="translate(72.499 3409.7)"></g>
   <g id="use54850" transform="translate(78.159 3409.7)"></g>
   <g id="use54852" transform="translate(83.819 3409.7)">
    <path id="path70727" d="m4.6719 4.2031c-0.96875-1.2188-1.7891-2.6484-2.4531-4.2812-0.66797-1.6445-1-3.3477-1-5.1094 0-1.5508 0.25-3.0352 0.75-4.4531 0.58203-1.6445 1.4844-3.2852 2.7031-4.9219h1.2656c-0.79297 1.3555-1.3125 2.3242-1.5625 2.9062-0.39844 0.89844-0.71094 1.8359-0.9375 2.8125-0.28125 1.2188-0.42188 2.4453-0.42188 3.6719 0 3.125 0.97266 6.25 2.9219 9.375z"/>
   </g>
   <g id="use54854" transform="translate(90.579 3409.7)">
    <path id="path70731" d="m0.84375-3.7812 1.75-0.23438c0.20703 1 0.55078 1.7188 1.0312 2.1562 0.48828 0.4375 1.082 0.65625 1.7812 0.65625 0.82031 0 1.5156-0.28516 2.0781-0.85938 0.57031-0.57031 0.85938-1.2812 0.85938-2.125 0-0.8125-0.26562-1.4766-0.79688-2-0.52344-0.51953-1.1875-0.78125-2-0.78125-0.33594 0-0.74609 0.0625-1.2344 0.1875l0.1875-1.5469c0.11328 0.023437 0.20703 0.03125 0.28125 0.03125 0.75 0 1.4219-0.19141 2.0156-0.57812 0.60156-0.39453 0.90625-1 0.90625-1.8125 0-0.64453-0.21875-1.1797-0.65625-1.6094-0.4375-0.42578-1-0.64062-1.6875-0.64062-0.67969 0-1.2461 0.21875-1.7031 0.65625-0.46094 0.42969-0.75 1.0703-0.875 1.9219l-1.7656-0.3125c0.21875-1.1758 0.70703-2.0859 1.4688-2.7344 0.75781-0.64453 1.707-0.96875 2.8438-0.96875 0.78125 0 1.5 0.16797 2.1562 0.5 0.65625 0.33594 1.1562 0.79297 1.5 1.375 0.35156 0.58594 0.53125 1.1992 0.53125 1.8438 0 0.61719-0.16797 1.1797-0.5 1.6875-0.33594 0.51172-0.82422 0.91797-1.4688 1.2188 0.84375 0.1875 1.5 0.59375 1.9688 1.2188 0.46875 0.61719 0.70312 1.3828 0.70312 2.2969 0 1.25-0.46094 2.3125-1.375 3.1875-0.90625 0.86719-2.0586 1.2969-3.4531 1.2969-1.2617 0-2.3086-0.375-3.1406-1.125-0.82422-0.75-1.293-1.7188-1.4062-2.9062z"/>
   </g>
   <g id="use54856" transform="translate(101.8 3409.7)"></g>
  </g>
  <g id="g54862" transform="matrix(.35278 0 0 .35278 26.059 -1095.5)">
   <g id="use54860" transform="translate(107.46 3409.7)">
    <path id="path70739" d="m2.3281-6.2188v-2h2v2z"/>
   </g>
  </g>
  <g id="g54868" transform="matrix(.35278 0 0 .35278 26.059 -1095.5)">
   <g id="use54864" transform="translate(114.22 3409.7)"></g>
   <g id="use54866" transform="translate(119.88 3409.7)">
    <path id="path70747" d="m0.82812-3.75 1.8438-0.15625c0.13281 0.89844 0.45312 1.5742 0.95312 2.0312 0.5 0.44922 1.1016 0.67188 1.8125 0.67188 0.84375 0 1.5547-0.31641 2.1406-0.95312 0.58203-0.63281 0.875-1.4844 0.875-2.5469 0-1-0.28125-1.7852-0.84375-2.3594-0.5625-0.58203-1.2969-0.875-2.2031-0.875-0.57422 0-1.0898 0.13281-1.5469 0.39062-0.44922 0.25-0.80469 0.58594-1.0625 1l-1.6562-0.21875 1.3906-7.3594h7.125v1.6875h-5.7188l-0.76562 3.8438c0.85156-0.60156 1.7539-0.90625 2.7031-0.90625 1.25 0 2.3008 0.4375 3.1562 1.3125 0.86328 0.86719 1.2969 1.9766 1.2969 3.3281 0 1.3047-0.38281 2.4219-1.1406 3.3594-0.91797 1.168-2.168 1.75-3.75 1.75-1.3047 0-2.3711-0.36328-3.2031-1.0938-0.82422-0.72656-1.293-1.6953-1.4062-2.9062z"/>
   </g>
  </g>
  <g id="g54872" transform="matrix(.35278 0 0 .35278 26.059 -1095.5)">
   <g id="use54870" transform="translate(131.09 3403.1)">
    <path id="path70751" d="m5.875-0.98438v0.98438h-5.5156c-0.011719-0.25 0.023438-0.48828 0.10938-0.71875 0.14453-0.375 0.36719-0.74219 0.67188-1.1094 0.3125-0.36328 0.75781-0.78125 1.3438-1.25 0.90625-0.75 1.5156-1.3359 1.8281-1.7656 0.32031-0.4375 0.48438-0.84766 0.48438-1.2344 0-0.40625-0.14844-0.75-0.4375-1.0312-0.28125-0.28125-0.65625-0.42188-1.125-0.42188-0.49219 0-0.88672 0.15234-1.1875 0.45312-0.29297 0.29297-0.44531 0.69922-0.45312 1.2188l-1.0469-0.10938c0.070313-0.78125 0.34375-1.375 0.8125-1.7812 0.46875-0.41406 1.0977-0.625 1.8906-0.625 0.80078 0 1.4375 0.22656 1.9062 0.67188 0.46875 0.4375 0.70312 0.98438 0.70312 1.6406 0 0.33594-0.070312 0.66406-0.20312 0.98438-0.13672 0.32422-0.36719 0.66797-0.6875 1.0312-0.3125 0.35547-0.83984 0.83984-1.5781 1.4531-0.61719 0.52344-1.0117 0.875-1.1875 1.0625-0.16797 0.17969-0.30859 0.35938-0.42188 0.54688z"/>
   </g>
  </g>
  <g id="g54886" transform="matrix(.35278 0 0 .35278 26.059 -1095.5)">
   <g id="use54874" transform="translate(137.63 3409.7)"></g>
   <g id="use54876" transform="translate(143.29 3409.7)">
    <path id="path70759" d="m4.4844-9v-2h2v2zm5.7344 2.7656h-9.4531v-1.6406h9.4531zm-5.7344 3.125v-2.0156h2v2.0156z"/>
   </g>
   <g id="use54878" transform="translate(154.37 3409.7)"></g>
   <g id="use54880" transform="translate(160.03 3409.7)">
    <path id="path70767" d="m0.82812-3.75 1.8438-0.15625c0.13281 0.89844 0.45312 1.5742 0.95312 2.0312 0.5 0.44922 1.1016 0.67188 1.8125 0.67188 0.84375 0 1.5547-0.31641 2.1406-0.95312 0.58203-0.63281 0.875-1.4844 0.875-2.5469 0-1-0.28125-1.7852-0.84375-2.3594-0.5625-0.58203-1.2969-0.875-2.2031-0.875-0.57422 0-1.0898 0.13281-1.5469 0.39062-0.44922 0.25-0.80469 0.58594-1.0625 1l-1.6562-0.21875 1.3906-7.3594h7.125v1.6875h-5.7188l-0.76562 3.8438c0.85156-0.60156 1.7539-0.90625 2.7031-0.90625 1.25 0 2.3008 0.4375 3.1562 1.3125 0.86328 0.86719 1.2969 1.9766 1.2969 3.3281 0 1.3047-0.38281 2.4219-1.1406 3.3594-0.91797 1.168-2.168 1.75-3.75 1.75-1.3047 0-2.3711-0.36328-3.2031-1.0938-0.82422-0.72656-1.293-1.6953-1.4062-2.9062z"/>
   </g>
   <g id="use54882" transform="translate(171.25 3409.7)">
    <path id="path70771" d="m2.4688 4.2031h-1.25c1.9375-3.125 2.9062-6.25 2.9062-9.375 0-1.2266-0.13672-2.4414-0.40625-3.6406-0.23047-0.97656-0.54297-1.9141-0.9375-2.8125-0.25-0.59375-0.77344-1.5703-1.5625-2.9375h1.25c1.2266 1.6367 2.1328 3.2773 2.7188 4.9219 0.5 1.418 0.75 2.9023 0.75 4.4531 0 1.7617-0.33984 3.4648-1.0156 5.1094-0.66797 1.6328-1.4844 3.0625-2.4531 4.2812z"/>
   </g>
   <g id="use54884" transform="translate(178.01 3409.7)"></g>
  </g>
  <g id="g54902" transform="matrix(.35278 0 0 .35278 26.059 -1095.5)">
   <g id="use54888" transform="translate(183.67 3409.7)">
    <path id="path70779" d="m0.64062-4.2969v-1.7656h5.3906v1.7656z"/>
   </g>
   <g id="use54890" transform="translate(190.43 3409.7)"></g>
   <g id="use54892" transform="translate(196.09 3409.7)">
    <path id="path70787" d="m4.6719 4.2031c-0.96875-1.2188-1.7891-2.6484-2.4531-4.2812-0.66797-1.6445-1-3.3477-1-5.1094 0-1.5508 0.25-3.0352 0.75-4.4531 0.58203-1.6445 1.4844-3.2852 2.7031-4.9219h1.2656c-0.79297 1.3555-1.3125 2.3242-1.5625 2.9062-0.39844 0.89844-0.71094 1.8359-0.9375 2.8125-0.28125 1.2188-0.42188 2.4453-0.42188 3.6719 0 3.125 0.97266 6.25 2.9219 9.375z"/>
   </g>
   <g id="use54894" transform="translate(202.85 3409.7)">
    <path id="path70791" d="m0.82812-3.75 1.8438-0.15625c0.13281 0.89844 0.45312 1.5742 0.95312 2.0312 0.5 0.44922 1.1016 0.67188 1.8125 0.67188 0.84375 0 1.5547-0.31641 2.1406-0.95312 0.58203-0.63281 0.875-1.4844 0.875-2.5469 0-1-0.28125-1.7852-0.84375-2.3594-0.5625-0.58203-1.2969-0.875-2.2031-0.875-0.57422 0-1.0898 0.13281-1.5469 0.39062-0.44922 0.25-0.80469 0.58594-1.0625 1l-1.6562-0.21875 1.3906-7.3594h7.125v1.6875h-5.7188l-0.76562 3.8438c0.85156-0.60156 1.7539-0.90625 2.7031-0.90625 1.25 0 2.3008 0.4375 3.1562 1.3125 0.86328 0.86719 1.2969 1.9766 1.2969 3.3281 0 1.3047-0.38281 2.4219-1.1406 3.3594-0.91797 1.168-2.168 1.75-3.75 1.75-1.3047 0-2.3711-0.36328-3.2031-1.0938-0.82422-0.72656-1.293-1.6953-1.4062-2.9062z"/>
   </g>
   <g id="use54896" transform="translate(214.07 3409.7)"></g>
   <g id="use54898" transform="translate(219.73 3409.7)">
    <path id="path70799" d="m0.64062-4.2969v-1.7656h5.3906v1.7656z"/>
   </g>
   <g id="use54900" transform="translate(226.49 3409.7)"></g>
  </g>
  <g id="g54906" transform="matrix(.35278 0 0 .35278 26.059 -1095.5)">
   <g id="use54904" transform="translate(232.15 3409.7)">
    <path id="path70807" d="m10.062-1.6875v1.6875h-9.4531c-0.011719-0.42578 0.054688-0.83203 0.20312-1.2188 0.23828-0.64453 0.625-1.2812 1.1562-1.9062s1.2969-1.3477 2.2969-2.1719c1.5625-1.2695 2.6133-2.2734 3.1562-3.0156 0.55078-0.75 0.82812-1.457 0.82812-2.125 0-0.69531-0.25-1.2852-0.75-1.7656-0.5-0.47656-1.1523-0.71875-1.9531-0.71875-0.84375 0-1.5234 0.25781-2.0312 0.76562-0.51172 0.51172-0.76562 1.2148-0.76562 2.1094l-1.8125-0.1875c0.125-1.3438 0.58594-2.3672 1.3906-3.0781 0.8125-0.70703 1.8984-1.0625 3.2656-1.0625 1.3633 0 2.4453 0.38281 3.25 1.1406 0.80078 0.76172 1.2031 1.7031 1.2031 2.8281 0 0.57422-0.12109 1.1406-0.35938 1.7031-0.23047 0.55469-0.61719 1.1367-1.1562 1.75-0.54297 0.60547-1.4453 1.4453-2.7031 2.5156-1.0625 0.88672-1.7461 1.4844-2.0469 1.7969-0.29297 0.3125-0.53906 0.63281-0.73438 0.95312z"/>
   </g>
  </g>
  <g id="g54910" transform="matrix(.35278 0 0 .35278 26.059 -1095.5)">
   <g id="use54908" transform="translate(243.36 3403.1)">
    <path id="path70811" d="m5.875-0.98438v0.98438h-5.5156c-0.011719-0.25 0.023438-0.48828 0.10938-0.71875 0.14453-0.375 0.36719-0.74219 0.67188-1.1094 0.3125-0.36328 0.75781-0.78125 1.3438-1.25 0.90625-0.75 1.5156-1.3359 1.8281-1.7656 0.32031-0.4375 0.48438-0.84766 0.48438-1.2344 0-0.40625-0.14844-0.75-0.4375-1.0312-0.28125-0.28125-0.65625-0.42188-1.125-0.42188-0.49219 0-0.88672 0.15234-1.1875 0.45312-0.29297 0.29297-0.44531 0.69922-0.45312 1.2188l-1.0469-0.10938c0.070313-0.78125 0.34375-1.375 0.8125-1.7812 0.46875-0.41406 1.0977-0.625 1.8906-0.625 0.80078 0 1.4375 0.22656 1.9062 0.67188 0.46875 0.4375 0.70312 0.98438 0.70312 1.6406 0 0.33594-0.070312 0.66406-0.20312 0.98438-0.13672 0.32422-0.36719 0.66797-0.6875 1.0312-0.3125 0.35547-0.83984 0.83984-1.5781 1.4531-0.61719 0.52344-1.0117 0.875-1.1875 1.0625-0.16797 0.17969-0.30859 0.35938-0.42188 0.54688z"/>
   </g>
  </g>
  <g id="g54914" transform="matrix(.35278 0 0 .35278 26.059 -1095.5)">
   <g id="use54912" transform="translate(249.9 3409.7)">
    <path id="path70815" d="m2.4688 4.2031h-1.25c1.9375-3.125 2.9062-6.25 2.9062-9.375 0-1.2266-0.13672-2.4414-0.40625-3.6406-0.23047-0.97656-0.54297-1.9141-0.9375-2.8125-0.25-0.59375-0.77344-1.5703-1.5625-2.9375h1.25c1.2266 1.6367 2.1328 3.2773 2.7188 4.9219 0.5 1.418 0.75 2.9023 0.75 4.4531 0 1.7617-0.33984 3.4648-1.0156 5.1094-0.66797 1.6328-1.4844 3.0625-2.4531 4.2812z"/>
   </g>
  </g>
  <g id="g54920" transform="matrix(.35278 0 0 .35278 26.059 -1095.5)">
   <g id="use54916" transform="translate(66.841 3446.7)">
    <path id="path70819" d="m10.562-8.4219h-9.4531v-1.6406h9.4531zm0 4.3438h-9.4531v-1.6406h9.4531z"/>
   </g>
   <g id="use54918" transform="translate(78.621 3446.7)"></g>
  </g>
  <g id="g54928" transform="matrix(.35278 0 0 .35278 26.059 -1095.5)">
   <g id="use54922" transform="translate(84.281 3446.7)">
    <path id="path70827" d="m4.6719 4.2031c-0.96875-1.2188-1.7891-2.6484-2.4531-4.2812-0.66797-1.6445-1-3.3477-1-5.1094 0-1.5508 0.25-3.0352 0.75-4.4531 0.58203-1.6445 1.4844-3.2852 2.7031-4.9219h1.2656c-0.79297 1.3555-1.3125 2.3242-1.5625 2.9062-0.39844 0.89844-0.71094 1.8359-0.9375 2.8125-0.28125 1.2188-0.42188 2.4453-0.42188 3.6719 0 3.125 0.97266 6.25 2.9219 9.375z"/>
   </g>
   <g id="use54924" transform="translate(91.041 3446.7)">
    <path id="path70831" d="m0.84375-3.7812 1.75-0.23438c0.20703 1 0.55078 1.7188 1.0312 2.1562 0.48828 0.4375 1.082 0.65625 1.7812 0.65625 0.82031 0 1.5156-0.28516 2.0781-0.85938 0.57031-0.57031 0.85938-1.2812 0.85938-2.125 0-0.8125-0.26562-1.4766-0.79688-2-0.52344-0.51953-1.1875-0.78125-2-0.78125-0.33594 0-0.74609 0.0625-1.2344 0.1875l0.1875-1.5469c0.11328 0.023437 0.20703 0.03125 0.28125 0.03125 0.75 0 1.4219-0.19141 2.0156-0.57812 0.60156-0.39453 0.90625-1 0.90625-1.8125 0-0.64453-0.21875-1.1797-0.65625-1.6094-0.4375-0.42578-1-0.64062-1.6875-0.64062-0.67969 0-1.2461 0.21875-1.7031 0.65625-0.46094 0.42969-0.75 1.0703-0.875 1.9219l-1.7656-0.3125c0.21875-1.1758 0.70703-2.0859 1.4688-2.7344 0.75781-0.64453 1.707-0.96875 2.8438-0.96875 0.78125 0 1.5 0.16797 2.1562 0.5 0.65625 0.33594 1.1562 0.79297 1.5 1.375 0.35156 0.58594 0.53125 1.1992 0.53125 1.8438 0 0.61719-0.16797 1.1797-0.5 1.6875-0.33594 0.51172-0.82422 0.91797-1.4688 1.2188 0.84375 0.1875 1.5 0.59375 1.9688 1.2188 0.46875 0.61719 0.70312 1.3828 0.70312 2.2969 0 1.25-0.46094 2.3125-1.375 3.1875-0.90625 0.86719-2.0586 1.2969-3.4531 1.2969-1.2617 0-2.3086-0.375-3.1406-1.125-0.82422-0.75-1.293-1.7188-1.4062-2.9062z"/>
   </g>
   <g id="use54926" transform="translate(102.26 3446.7)"></g>
  </g>
  <g id="g54932" transform="matrix(.35278 0 0 .35278 26.059 -1095.5)">
   <g id="use54930" transform="translate(107.92 3446.7)">
    <path id="path70839" d="m2.3281-6.2188v-2h2v2z"/>
   </g>
  </g>
  <g id="g54952" transform="matrix(.35278 0 0 .35278 26.059 -1095.5)">
   <g id="use54934" transform="translate(114.68 3446.7)"></g>
   <g id="use54936" transform="translate(120.34 3446.7)">
    <path id="path70847" d="m10.062-1.6875v1.6875h-9.4531c-0.011719-0.42578 0.054688-0.83203 0.20312-1.2188 0.23828-0.64453 0.625-1.2812 1.1562-1.9062s1.2969-1.3477 2.2969-2.1719c1.5625-1.2695 2.6133-2.2734 3.1562-3.0156 0.55078-0.75 0.82812-1.457 0.82812-2.125 0-0.69531-0.25-1.2852-0.75-1.7656-0.5-0.47656-1.1523-0.71875-1.9531-0.71875-0.84375 0-1.5234 0.25781-2.0312 0.76562-0.51172 0.51172-0.76562 1.2148-0.76562 2.1094l-1.8125-0.1875c0.125-1.3438 0.58594-2.3672 1.3906-3.0781 0.8125-0.70703 1.8984-1.0625 3.2656-1.0625 1.3633 0 2.4453 0.38281 3.25 1.1406 0.80078 0.76172 1.2031 1.7031 1.2031 2.8281 0 0.57422-0.12109 1.1406-0.35938 1.7031-0.23047 0.55469-0.61719 1.1367-1.1562 1.75-0.54297 0.60547-1.4453 1.4453-2.7031 2.5156-1.0625 0.88672-1.7461 1.4844-2.0469 1.7969-0.29297 0.3125-0.53906 0.63281-0.73438 0.95312z"/>
   </g>
   <g id="use54938" transform="translate(131.56 3446.7)">
    <path id="path70851" d="m0.82812-3.75 1.8438-0.15625c0.13281 0.89844 0.45312 1.5742 0.95312 2.0312 0.5 0.44922 1.1016 0.67188 1.8125 0.67188 0.84375 0 1.5547-0.31641 2.1406-0.95312 0.58203-0.63281 0.875-1.4844 0.875-2.5469 0-1-0.28125-1.7852-0.84375-2.3594-0.5625-0.58203-1.2969-0.875-2.2031-0.875-0.57422 0-1.0898 0.13281-1.5469 0.39062-0.44922 0.25-0.80469 0.58594-1.0625 1l-1.6562-0.21875 1.3906-7.3594h7.125v1.6875h-5.7188l-0.76562 3.8438c0.85156-0.60156 1.7539-0.90625 2.7031-0.90625 1.25 0 2.3008 0.4375 3.1562 1.3125 0.86328 0.86719 1.2969 1.9766 1.2969 3.3281 0 1.3047-0.38281 2.4219-1.1406 3.3594-0.91797 1.168-2.168 1.75-3.75 1.75-1.3047 0-2.3711-0.36328-3.2031-1.0938-0.82422-0.72656-1.293-1.6953-1.4062-2.9062z"/>
   </g>
   <g id="use54940" transform="translate(142.78 3446.7)"></g>
   <g id="use54942" transform="translate(148.44 3446.7)">
    <path id="path70859" d="m4.4844-9v-2h2v2zm5.7344 2.7656h-9.4531v-1.6406h9.4531zm-5.7344 3.125v-2.0156h2v2.0156z"/>
   </g>
   <g id="use54944" transform="translate(159.52 3446.7)"></g>
   <g id="use54946" transform="translate(165.18 3446.7)">
    <path id="path70867" d="m0.82812-3.75 1.8438-0.15625c0.13281 0.89844 0.45312 1.5742 0.95312 2.0312 0.5 0.44922 1.1016 0.67188 1.8125 0.67188 0.84375 0 1.5547-0.31641 2.1406-0.95312 0.58203-0.63281 0.875-1.4844 0.875-2.5469 0-1-0.28125-1.7852-0.84375-2.3594-0.5625-0.58203-1.2969-0.875-2.2031-0.875-0.57422 0-1.0898 0.13281-1.5469 0.39062-0.44922 0.25-0.80469 0.58594-1.0625 1l-1.6562-0.21875 1.3906-7.3594h7.125v1.6875h-5.7188l-0.76562 3.8438c0.85156-0.60156 1.7539-0.90625 2.7031-0.90625 1.25 0 2.3008 0.4375 3.1562 1.3125 0.86328 0.86719 1.2969 1.9766 1.2969 3.3281 0 1.3047-0.38281 2.4219-1.1406 3.3594-0.91797 1.168-2.168 1.75-3.75 1.75-1.3047 0-2.3711-0.36328-3.2031-1.0938-0.82422-0.72656-1.293-1.6953-1.4062-2.9062z"/>
   </g>
   <g id="use54948" transform="translate(176.4 3446.7)">
    <path id="path70871" d="m2.4688 4.2031h-1.25c1.9375-3.125 2.9062-6.25 2.9062-9.375 0-1.2266-0.13672-2.4414-0.40625-3.6406-0.23047-0.97656-0.54297-1.9141-0.9375-2.8125-0.25-0.59375-0.77344-1.5703-1.5625-2.9375h1.25c1.2266 1.6367 2.1328 3.2773 2.7188 4.9219 0.5 1.418 0.75 2.9023 0.75 4.4531 0 1.7617-0.33984 3.4648-1.0156 5.1094-0.66797 1.6328-1.4844 3.0625-2.4531 4.2812z"/>
   </g>
   <g id="use54950" transform="translate(183.16 3446.7)"></g>
  </g>
  <g id="g54972" transform="matrix(.35278 0 0 .35278 26.059 -1095.5)">
   <g id="use54954" transform="translate(188.82 3446.7)">
    <path id="path70879" d="m0.64062-4.2969v-1.7656h5.3906v1.7656z"/>
   </g>
   <g id="use54956" transform="translate(195.58 3446.7)"></g>
   <g id="use54958" transform="translate(201.24 3446.7)">
    <path id="path70887" d="m4.6719 4.2031c-0.96875-1.2188-1.7891-2.6484-2.4531-4.2812-0.66797-1.6445-1-3.3477-1-5.1094 0-1.5508 0.25-3.0352 0.75-4.4531 0.58203-1.6445 1.4844-3.2852 2.7031-4.9219h1.2656c-0.79297 1.3555-1.3125 2.3242-1.5625 2.9062-0.39844 0.89844-0.71094 1.8359-0.9375 2.8125-0.28125 1.2188-0.42188 2.4453-0.42188 3.6719 0 3.125 0.97266 6.25 2.9219 9.375z"/>
   </g>
   <g id="use54960" transform="translate(208 3446.7)">
    <path id="path70891" d="m0.82812-3.75 1.8438-0.15625c0.13281 0.89844 0.45312 1.5742 0.95312 2.0312 0.5 0.44922 1.1016 0.67188 1.8125 0.67188 0.84375 0 1.5547-0.31641 2.1406-0.95312 0.58203-0.63281 0.875-1.4844 0.875-2.5469 0-1-0.28125-1.7852-0.84375-2.3594-0.5625-0.58203-1.2969-0.875-2.2031-0.875-0.57422 0-1.0898 0.13281-1.5469 0.39062-0.44922 0.25-0.80469 0.58594-1.0625 1l-1.6562-0.21875 1.3906-7.3594h7.125v1.6875h-5.7188l-0.76562 3.8438c0.85156-0.60156 1.7539-0.90625 2.7031-0.90625 1.25 0 2.3008 0.4375 3.1562 1.3125 0.86328 0.86719 1.2969 1.9766 1.2969 3.3281 0 1.3047-0.38281 2.4219-1.1406 3.3594-0.91797 1.168-2.168 1.75-3.75 1.75-1.3047 0-2.3711-0.36328-3.2031-1.0938-0.82422-0.72656-1.293-1.6953-1.4062-2.9062z"/>
   </g>
   <g id="use54962" transform="translate(219.22 3446.7)"></g>
   <g id="use54964" transform="translate(224.88 3446.7)">
    <path id="path70899" d="m0.64062-4.2969v-1.7656h5.3906v1.7656z"/>
   </g>
   <g id="use54966" transform="translate(231.64 3446.7)"></g>
   <g id="use54968" transform="translate(237.3 3446.7)">
    <path id="path70907" d="m6.4688 0v-3.4219h-6.2188v-1.625l6.5312-9.2656h1.4375v9.2656h1.9375v1.625h-1.9375v3.4219zm0-5.0469v-6.4531l-4.4844 6.4531z"/>
   </g>
   <g id="use54970" transform="translate(248.52 3446.7)">
    <path id="path70911" d="m2.4688 4.2031h-1.25c1.9375-3.125 2.9062-6.25 2.9062-9.375 0-1.2266-0.13672-2.4414-0.40625-3.6406-0.23047-0.97656-0.54297-1.9141-0.9375-2.8125-0.25-0.59375-0.77344-1.5703-1.5625-2.9375h1.25c1.2266 1.6367 2.1328 3.2773 2.7188 4.9219 0.5 1.418 0.75 2.9023 0.75 4.4531 0 1.7617-0.33984 3.4648-1.0156 5.1094-0.66797 1.6328-1.4844 3.0625-2.4531 4.2812z"/>
   </g>
  </g>
  <g id="g54978" transform="matrix(.35278 0 0 .35278 26.059 -1095.5)">
   <g id="use54974" transform="translate(66.841 3483.7)">
    <path id="path70915" d="m10.562-8.4219h-9.4531v-1.6406h9.4531zm0 4.3438h-9.4531v-1.6406h9.4531z"/>
   </g>
   <g id="use54976" transform="translate(78.621 3483.7)"></g>
  </g>
  <g id="g54986" transform="matrix(.35278 0 0 .35278 26.059 -1095.5)">
   <g id="use54980" transform="translate(84.281 3483.7)">
    <path id="path70923" d="m4.6719 4.2031c-0.96875-1.2188-1.7891-2.6484-2.4531-4.2812-0.66797-1.6445-1-3.3477-1-5.1094 0-1.5508 0.25-3.0352 0.75-4.4531 0.58203-1.6445 1.4844-3.2852 2.7031-4.9219h1.2656c-0.79297 1.3555-1.3125 2.3242-1.5625 2.9062-0.39844 0.89844-0.71094 1.8359-0.9375 2.8125-0.28125 1.2188-0.42188 2.4453-0.42188 3.6719 0 3.125 0.97266 6.25 2.9219 9.375z"/>
   </g>
   <g id="use54982" transform="translate(91.041 3483.7)">
    <path id="path70927" d="m0.84375-3.7812 1.75-0.23438c0.20703 1 0.55078 1.7188 1.0312 2.1562 0.48828 0.4375 1.082 0.65625 1.7812 0.65625 0.82031 0 1.5156-0.28516 2.0781-0.85938 0.57031-0.57031 0.85938-1.2812 0.85938-2.125 0-0.8125-0.26562-1.4766-0.79688-2-0.52344-0.51953-1.1875-0.78125-2-0.78125-0.33594 0-0.74609 0.0625-1.2344 0.1875l0.1875-1.5469c0.11328 0.023437 0.20703 0.03125 0.28125 0.03125 0.75 0 1.4219-0.19141 2.0156-0.57812 0.60156-0.39453 0.90625-1 0.90625-1.8125 0-0.64453-0.21875-1.1797-0.65625-1.6094-0.4375-0.42578-1-0.64062-1.6875-0.64062-0.67969 0-1.2461 0.21875-1.7031 0.65625-0.46094 0.42969-0.75 1.0703-0.875 1.9219l-1.7656-0.3125c0.21875-1.1758 0.70703-2.0859 1.4688-2.7344 0.75781-0.64453 1.707-0.96875 2.8438-0.96875 0.78125 0 1.5 0.16797 2.1562 0.5 0.65625 0.33594 1.1562 0.79297 1.5 1.375 0.35156 0.58594 0.53125 1.1992 0.53125 1.8438 0 0.61719-0.16797 1.1797-0.5 1.6875-0.33594 0.51172-0.82422 0.91797-1.4688 1.2188 0.84375 0.1875 1.5 0.59375 1.9688 1.2188 0.46875 0.61719 0.70312 1.3828 0.70312 2.2969 0 1.25-0.46094 2.3125-1.375 3.1875-0.90625 0.86719-2.0586 1.2969-3.4531 1.2969-1.2617 0-2.3086-0.375-3.1406-1.125-0.82422-0.75-1.293-1.7188-1.4062-2.9062z"/>
   </g>
   <g id="use54984" transform="translate(102.26 3483.7)"></g>
  </g>
  <g id="g54990" transform="matrix(.35278 0 0 .35278 26.059 -1095.5)">
   <g id="use54988" transform="translate(107.92 3483.7)">
    <path id="path70935" d="m2.3281-6.2188v-2h2v2z"/>
   </g>
  </g>
  <g id="g55010" transform="matrix(.35278 0 0 .35278 26.059 -1095.5)">
   <g id="use54992" transform="translate(114.68 3483.7)"></g>
   <g id="use54994" transform="translate(120.34 3483.7)">
    <path id="path70943" d="m0.82812-3.75 1.8438-0.15625c0.13281 0.89844 0.45312 1.5742 0.95312 2.0312 0.5 0.44922 1.1016 0.67188 1.8125 0.67188 0.84375 0 1.5547-0.31641 2.1406-0.95312 0.58203-0.63281 0.875-1.4844 0.875-2.5469 0-1-0.28125-1.7852-0.84375-2.3594-0.5625-0.58203-1.2969-0.875-2.2031-0.875-0.57422 0-1.0898 0.13281-1.5469 0.39062-0.44922 0.25-0.80469 0.58594-1.0625 1l-1.6562-0.21875 1.3906-7.3594h7.125v1.6875h-5.7188l-0.76562 3.8438c0.85156-0.60156 1.7539-0.90625 2.7031-0.90625 1.25 0 2.3008 0.4375 3.1562 1.3125 0.86328 0.86719 1.2969 1.9766 1.2969 3.3281 0 1.3047-0.38281 2.4219-1.1406 3.3594-0.91797 1.168-2.168 1.75-3.75 1.75-1.3047 0-2.3711-0.36328-3.2031-1.0938-0.82422-0.72656-1.293-1.6953-1.4062-2.9062z"/>
   </g>
   <g id="use54996" transform="translate(131.56 3483.7)">
    <path id="path70947" d="m2.4688 4.2031h-1.25c1.9375-3.125 2.9062-6.25 2.9062-9.375 0-1.2266-0.13672-2.4414-0.40625-3.6406-0.23047-0.97656-0.54297-1.9141-0.9375-2.8125-0.25-0.59375-0.77344-1.5703-1.5625-2.9375h1.25c1.2266 1.6367 2.1328 3.2773 2.7188 4.9219 0.5 1.418 0.75 2.9023 0.75 4.4531 0 1.7617-0.33984 3.4648-1.0156 5.1094-0.66797 1.6328-1.4844 3.0625-2.4531 4.2812z"/>
   </g>
   <g id="use54998" transform="translate(138.32 3483.7)"></g>
   <g id="use55000" transform="translate(143.98 3483.7)">
    <path id="path70955" d="m0.64062-4.2969v-1.7656h5.3906v1.7656z"/>
   </g>
   <g id="use55002" transform="translate(150.74 3483.7)"></g>
   <g id="use55004" transform="translate(156.4 3483.7)">
    <path id="path70963" d="m4.6719 4.2031c-0.96875-1.2188-1.7891-2.6484-2.4531-4.2812-0.66797-1.6445-1-3.3477-1-5.1094 0-1.5508 0.25-3.0352 0.75-4.4531 0.58203-1.6445 1.4844-3.2852 2.7031-4.9219h1.2656c-0.79297 1.3555-1.3125 2.3242-1.5625 2.9062-0.39844 0.89844-0.71094 1.8359-0.9375 2.8125-0.28125 1.2188-0.42188 2.4453-0.42188 3.6719 0 3.125 0.97266 6.25 2.9219 9.375z"/>
   </g>
   <g id="use55006" transform="translate(163.16 3483.7)">
    <path id="path70967" d="m7.4531 0h-1.7656v-11.203c-0.41797 0.40625-0.96875 0.8125-1.6562 1.2188-0.6875 0.39844-1.3086 0.69922-1.8594 0.90625v-1.7031c0.98828-0.45703 1.8477-1.0156 2.5781-1.6719 0.73828-0.66406 1.2578-1.3047 1.5625-1.9219h1.1406z"/>
   </g>
   <g id="use55008" transform="translate(174.38 3483.7)">
    <path id="path70971" d="m2.4688 4.2031h-1.25c1.9375-3.125 2.9062-6.25 2.9062-9.375 0-1.2266-0.13672-2.4414-0.40625-3.6406-0.23047-0.97656-0.54297-1.9141-0.9375-2.8125-0.25-0.59375-0.77344-1.5703-1.5625-2.9375h1.25c1.2266 1.6367 2.1328 3.2773 2.7188 4.9219 0.5 1.418 0.75 2.9023 0.75 4.4531 0 1.7617-0.33984 3.4648-1.0156 5.1094-0.66797 1.6328-1.4844 3.0625-2.4531 4.2812z"/>
   </g>
  </g>
  <g id="g55028" transform="matrix(.35278 0 0 .35278 26.059 -1095.5)">
   <g id="use55012" transform="translate(66.841 3518.5)">
    <path id="path70975" d="m10.562-8.4219h-9.4531v-1.6406h9.4531zm0 4.3438h-9.4531v-1.6406h9.4531z"/>
   </g>
   <g id="use55014" transform="translate(78.621 3518.5)"></g>
   <g id="use55016" transform="translate(84.281 3518.5)">
    <path id="path70983" d="m7.4531 0h-1.7656v-11.203c-0.41797 0.40625-0.96875 0.8125-1.6562 1.2188-0.6875 0.39844-1.3086 0.69922-1.8594 0.90625v-1.7031c0.98828-0.45703 1.8477-1.0156 2.5781-1.6719 0.73828-0.66406 1.2578-1.3047 1.5625-1.9219h1.1406z"/>
   </g>
   <g id="use55018" transform="translate(95.501 3518.5)">
    <path id="path70987" d="m0.82812-3.75 1.8438-0.15625c0.13281 0.89844 0.45312 1.5742 0.95312 2.0312 0.5 0.44922 1.1016 0.67188 1.8125 0.67188 0.84375 0 1.5547-0.31641 2.1406-0.95312 0.58203-0.63281 0.875-1.4844 0.875-2.5469 0-1-0.28125-1.7852-0.84375-2.3594-0.5625-0.58203-1.2969-0.875-2.2031-0.875-0.57422 0-1.0898 0.13281-1.5469 0.39062-0.44922 0.25-0.80469 0.58594-1.0625 1l-1.6562-0.21875 1.3906-7.3594h7.125v1.6875h-5.7188l-0.76562 3.8438c0.85156-0.60156 1.7539-0.90625 2.7031-0.90625 1.25 0 2.3008 0.4375 3.1562 1.3125 0.86328 0.86719 1.2969 1.9766 1.2969 3.3281 0 1.3047-0.38281 2.4219-1.1406 3.3594-0.91797 1.168-2.168 1.75-3.75 1.75-1.3047 0-2.3711-0.36328-3.2031-1.0938-0.82422-0.72656-1.293-1.6953-1.4062-2.9062z"/>
   </g>
   <g id="use55020" transform="translate(106.72 3518.5)"></g>
   <g id="use55022" transform="translate(112.38 3518.5)">
    <path id="path70995" d="m0.64062-4.2969v-1.7656h5.3906v1.7656z"/>
   </g>
   <g id="use55024" transform="translate(119.14 3518.5)"></g>
   <g id="use55026" transform="translate(124.8 3518.5)">
    <path id="path71003" d="m7.4531 0h-1.7656v-11.203c-0.41797 0.40625-0.96875 0.8125-1.6562 1.2188-0.6875 0.39844-1.3086 0.69922-1.8594 0.90625v-1.7031c0.98828-0.45703 1.8477-1.0156 2.5781-1.6719 0.73828-0.66406 1.2578-1.3047 1.5625-1.9219h1.1406z"/>
   </g>
  </g>
  <g id="g55040" transform="matrix(.35278 0 0 .35278 26.059 -1095.5)">
   <g id="use55030" transform="translate(66.841 3555.5)">
    <path id="path71007" d="m10.562-8.4219h-9.4531v-1.6406h9.4531zm0 4.3438h-9.4531v-1.6406h9.4531z"/>
   </g>
   <g id="use55032" transform="translate(78.621 3555.5)"></g>
   <g id="use55034" transform="translate(84.281 3555.5)">
    <path id="path71015" d="m7.4531 0h-1.7656v-11.203c-0.41797 0.40625-0.96875 0.8125-1.6562 1.2188-0.6875 0.39844-1.3086 0.69922-1.8594 0.90625v-1.7031c0.98828-0.45703 1.8477-1.0156 2.5781-1.6719 0.73828-0.66406 1.2578-1.3047 1.5625-1.9219h1.1406z"/>
   </g>
   <g id="use55036" transform="translate(95.501 3555.5)">
    <path id="path71019" d="m6.4688 0v-3.4219h-6.2188v-1.625l6.5312-9.2656h1.4375v9.2656h1.9375v1.625h-1.9375v3.4219zm0-5.0469v-6.4531l-4.4844 6.4531z"/>
   </g>
   <g id="use55038" transform="translate(106.72 3555.5)"></g>
  </g>
 </g>
</svg>
