<svg id="svg101261" version="1.1" viewBox="0 0 119.11 153.14" xmlns="http://www.w3.org/2000/svg">
 <title id="title102271">img_82</title>
 <g id="layer1" transform="translate(-61.399 -61.768)">
  <g id="g87147" transform="matrix(.35278 0 0 .35278 31.89 -1947)">
   <g id="use87115" transform="translate(83.414 5713.1)">
    <path id="path100283" d="m2.2031 0v-11.391h-1.9688v-1.7344h1.9688v-1.3906c0-0.875 0.078125-1.5312 0.23438-1.9688 0.20703-0.57031 0.58203-1.0352 1.125-1.3906 0.53906-0.36328 1.2969-0.54688 2.2656-0.54688 0.625 0 1.3164 0.07813 2.0781 0.23438l-0.32812 1.9375c-0.46875-0.08203-0.90625-0.125-1.3125-0.125-0.67969 0-1.1562 0.14844-1.4375 0.4375-0.28125 0.28125-0.42188 0.82031-0.42188 1.6094v1.2031h2.5625v1.7344h-2.5625v11.391z"/>
   </g>
   <g id="use87117" transform="translate(90.449 5713.1)">
    <path id="path100287" d="m5.9219 5.3281c-1.2305-1.5547-2.2734-3.3672-3.125-5.4375-0.84375-2.0703-1.2656-4.2227-1.2656-6.4531 0-1.957 0.31641-3.832 0.95312-5.625 0.73828-2.082 1.8828-4.1602 3.4375-6.2344h1.5938c-1 1.7188-1.6641 2.9453-1.9844 3.6719-0.5 1.1367-0.89844 2.3242-1.1875 3.5625-0.35547 1.543-0.53125 3.0898-0.53125 4.6406 0 3.9609 1.2344 7.9141 3.7031 11.875z"/>
   </g>
   <g id="use87119" transform="translate(98.875 5713.1)">
    <path id="path100291" d="m0.1875 0 4.7969-6.8125-4.4375-6.3125h2.7812l2.0156 3.0781c0.375 0.58594 0.67578 1.0742 0.90625 1.4688 0.36328-0.53906 0.69531-1.0195 1-1.4375l2.2188-3.1094h2.6562l-4.5469 6.1875 4.8906 6.9375h-2.7344l-2.6875-4.0781-0.71875-1.0938-3.4531 5.1719z"/>
   </g>
   <g id="use87121" transform="translate(111.53 5713.1)">
    <path id="path100295" d="m3.125 5.3281h-1.5938c2.457-3.9609 3.6875-7.9141 3.6875-11.875 0-1.5508-0.17969-3.0859-0.53125-4.6094-0.27344-1.2266-0.66406-2.4141-1.1719-3.5625-0.32422-0.73828-0.98438-1.9727-1.9844-3.7031h1.5938c1.5508 2.0742 2.6953 4.1523 3.4375 6.2344 0.63281 1.793 0.95312 3.668 0.95312 5.625 0 2.2305-0.42969 4.3828-1.2812 6.4531-0.85547 2.0703-1.8906 3.8828-3.1094 5.4375z"/>
   </g>
   <g id="use87123" transform="translate(119.95 5713.1)"></g>
   <g id="use87125" transform="translate(126.99 5713.1)">
    <path id="path100303" d="m13.359-10.641h-11.953v-2.0781h11.953zm0 5.4844h-11.953v-2.0625h11.953z"/>
   </g>
   <g id="use87127" transform="translate(141.77 5713.1)"></g>
   <g id="use87129" transform="translate(148.8 5713.1)">
    <path id="path100311" d="m0.79688-5.4375v-2.2344h6.8438v2.2344z"/>
   </g>
   <g id="use87131" transform="translate(157.23 5713.1)">
    <path id="path100315" d="m12.734-2.1406v2.1406h-11.969c-0.023437-0.53125 0.066406-1.0469 0.26562-1.5469 0.30078-0.8125 0.78516-1.6133 1.4531-2.4062 0.67578-0.78906 1.6445-1.7031 2.9062-2.7344 1.9688-1.6133 3.2969-2.8906 3.9844-3.8281 0.69531-0.94531 1.0469-1.8438 1.0469-2.6875 0-0.88281-0.32031-1.6289-0.95312-2.2344-0.625-0.60156-1.4453-0.90625-2.4531-0.90625-1.0742 0-1.9336 0.32422-2.5781 0.96875-0.63672 0.63672-0.96094 1.5273-0.96875 2.6719l-2.2812-0.23438c0.15625-1.707 0.74219-3.0078 1.7656-3.9062 1.0195-0.89453 2.3906-1.3438 4.1094-1.3438 1.7383 0 3.1133 0.48438 4.125 1.4531 1.0078 0.96094 1.5156 2.1523 1.5156 3.5781 0 0.73047-0.14844 1.4453-0.4375 2.1406-0.29297 0.69922-0.78125 1.4375-1.4688 2.2188-0.6875 0.77344-1.8359 1.8281-3.4375 3.1719-1.3359 1.125-2.1953 1.8906-2.5781 2.2969-0.375 0.39844-0.68359 0.79297-0.92188 1.1875z"/>
   </g>
   <g id="use87133" transform="translate(171.3 5713.1)">
    <path id="path100319" d="m5.9219 5.3281c-1.2305-1.5547-2.2734-3.3672-3.125-5.4375-0.84375-2.0703-1.2656-4.2227-1.2656-6.4531 0-1.957 0.31641-3.832 0.95312-5.625 0.73828-2.082 1.8828-4.1602 3.4375-6.2344h1.5938c-1 1.7188-1.6641 2.9453-1.9844 3.6719-0.5 1.1367-0.89844 2.3242-1.1875 3.5625-0.35547 1.543-0.53125 3.0898-0.53125 4.6406 0 3.9609 1.2344 7.9141 3.7031 11.875z"/>
   </g>
   <g id="use87135" transform="translate(179.72 5713.1)">
    <path id="path100323" d="m0.1875 0 4.7969-6.8125-4.4375-6.3125h2.7812l2.0156 3.0781c0.375 0.58594 0.67578 1.0742 0.90625 1.4688 0.36328-0.53906 0.69531-1.0195 1-1.4375l2.2188-3.1094h2.6562l-4.5469 6.1875 4.8906 6.9375h-2.7344l-2.6875-4.0781-0.71875-1.0938-3.4531 5.1719z"/>
   </g>
   <g id="use87137" transform="translate(192.37 5713.1)"></g>
   <g id="use87139" transform="translate(199.41 5713.1)">
    <path id="path100331" d="m6.3438-2.9219v-4.9688h-4.9375v-2.0781h4.9375v-4.9219h2.0938v4.9219h4.9219v2.0781h-4.9219v4.9688z"/>
   </g>
   <g id="use87141" transform="translate(214.19 5713.1)"></g>
   <g id="use87143" transform="translate(221.22 5713.1)">
    <path id="path100339" d="m12.594-13.672-2.2188 0.17188c-0.19922-0.875-0.48047-1.5078-0.84375-1.9062-0.59375-0.63281-1.3359-0.95312-2.2188-0.95312-0.71094 0-1.3281 0.19922-1.8594 0.59375-0.71094 0.51172-1.2656 1.2578-1.6719 2.2344-0.39844 0.98047-0.60547 2.375-0.625 4.1875 0.53906-0.8125 1.1953-1.4141 1.9688-1.8125 0.76953-0.39453 1.582-0.59375 2.4375-0.59375 1.4766 0 2.7383 0.54688 3.7812 1.6406 1.0391 1.0938 1.5625 2.5078 1.5625 4.2344 0 1.1367-0.24609 2.1953-0.73438 3.1719-0.49219 0.96875-1.1641 1.7148-2.0156 2.2344-0.85547 0.51953-1.8281 0.78125-2.9219 0.78125-1.8555 0-3.3672-0.67969-4.5312-2.0469-1.168-1.3633-1.75-3.6094-1.75-6.7344 0-3.5 0.64453-6.0469 1.9375-7.6406 1.125-1.3828 2.6445-2.0781 4.5625-2.0781 1.4141 0 2.5781 0.40234 3.4844 1.2031 0.91406 0.80469 1.4688 1.9062 1.6562 3.3125zm-9.0781 7.7969c0 0.77344 0.16016 1.5078 0.48438 2.2031 0.32031 0.69922 0.77344 1.2344 1.3594 1.6094 0.58203 0.36719 1.1953 0.54688 1.8438 0.54688 0.9375 0 1.7422-0.37891 2.4219-1.1406 0.67578-0.75781 1.0156-1.7891 1.0156-3.0938 0-1.25-0.33594-2.2344-1-2.9531-0.66797-0.71875-1.5117-1.0781-2.5312-1.0781-1 0-1.8516 0.35938-2.5469 1.0781-0.69922 0.71875-1.0469 1.6641-1.0469 2.8281z"/>
   </g>
   <g id="use87145" transform="translate(235.29 5713.1)">
    <path id="path100343" d="m3.125 5.3281h-1.5938c2.457-3.9609 3.6875-7.9141 3.6875-11.875 0-1.5508-0.17969-3.0859-0.53125-4.6094-0.27344-1.2266-0.66406-2.4141-1.1719-3.5625-0.32422-0.73828-0.98438-1.9727-1.9844-3.7031h1.5938c1.5508 2.0742 2.6953 4.1523 3.4375 6.2344 0.63281 1.793 0.95312 3.668 0.95312 5.625 0 2.2305-0.42969 4.3828-1.2812 6.4531-0.85547 2.0703-1.8906 3.8828-3.1094 5.4375z"/>
   </g>
  </g>
  <g id="g87151" transform="matrix(.35278 0 0 .35278 31.89 -1947)">
   <g id="use87149" transform="translate(243.71 5704.6)">
    <path id="path100347" d="m7.4219-1.25v1.25h-6.9688c-0.011719-0.3125 0.035156-0.61328 0.14062-0.90625 0.17578-0.46875 0.45703-0.92969 0.84375-1.3906 0.39453-0.46875 0.96094-1.0039 1.7031-1.6094 1.1562-0.9375 1.9297-1.6797 2.3281-2.2344 0.40625-0.55078 0.60938-1.0703 0.60938-1.5625 0-0.50781-0.18359-0.94141-0.54688-1.2969-0.36719-0.35156-0.84375-0.53125-1.4375-0.53125-0.625 0-1.125 0.1875-1.5 0.5625s-0.5625 0.89844-0.5625 1.5625l-1.3438-0.14062c0.09375-0.98828 0.4375-1.7422 1.0312-2.2656 0.59375-0.53125 1.3945-0.79688 2.4062-0.79688 1.0078 0 1.8047 0.28125 2.3906 0.84375 0.59375 0.5625 0.89062 1.2617 0.89062 2.0938 0 0.42969-0.089844 0.84375-0.26562 1.25-0.16797 0.40625-0.45312 0.83984-0.85938 1.2969-0.39844 0.44922-1.0586 1.0625-1.9844 1.8438-0.78125 0.65625-1.2812 1.1055-1.5 1.3438-0.21875 0.23047-0.40234 0.46094-0.54688 0.6875z"/>
   </g>
  </g>
  <g id="g87161" transform="matrix(.35278 0 0 .35278 31.89 -1947)">
   <g id="use87153" transform="translate(251.92 5713.1)"></g>
   <g id="use87155" transform="translate(258.95 5713.1)">
    <path id="path100355" d="m6.3438-2.9219v-4.9688h-4.9375v-2.0781h4.9375v-4.9219h2.0938v4.9219h4.9219v2.0781h-4.9219v4.9688z"/>
   </g>
   <g id="use87157" transform="translate(273.73 5713.1)"></g>
   <g id="use87159" transform="translate(280.76 5713.1)">
    <path id="path100363" d="m8.1719 0v-4.3281h-7.8438v-2.0469l8.25-11.734h1.8281v11.734h2.4375v2.0469h-2.4375v4.3281zm0-6.375v-8.1562l-5.6719 8.1562z"/>
   </g>
  </g>
  <g id="g87207" transform="matrix(.35278 0 0 .35278 31.89 -1947)">
   <g id="use87163" transform="translate(129.45 5775.1)">
    <path id="path100367" d="m13.359-10.641h-11.953v-2.0781h11.953zm0 5.4844h-11.953v-2.0625h11.953z"/>
   </g>
   <g id="use87165" transform="translate(144.22 5775.1)"></g>
   <g id="use87167" transform="translate(151.26 5775.1)">
    <path id="path100375" d="m0.79688-5.4375v-2.2344h6.8438v2.2344z"/>
   </g>
   <g id="use87169" transform="translate(159.68 5775.1)">
    <path id="path100379" d="m12.734-2.1406v2.1406h-11.969c-0.023437-0.53125 0.066406-1.0469 0.26562-1.5469 0.30078-0.8125 0.78516-1.6133 1.4531-2.4062 0.67578-0.78906 1.6445-1.7031 2.9062-2.7344 1.9688-1.6133 3.2969-2.8906 3.9844-3.8281 0.69531-0.94531 1.0469-1.8438 1.0469-2.6875 0-0.88281-0.32031-1.6289-0.95312-2.2344-0.625-0.60156-1.4453-0.90625-2.4531-0.90625-1.0742 0-1.9336 0.32422-2.5781 0.96875-0.63672 0.63672-0.96094 1.5273-0.96875 2.6719l-2.2812-0.23438c0.15625-1.707 0.74219-3.0078 1.7656-3.9062 1.0195-0.89453 2.3906-1.3438 4.1094-1.3438 1.7383 0 3.1133 0.48438 4.125 1.4531 1.0078 0.96094 1.5156 2.1523 1.5156 3.5781 0 0.73047-0.14844 1.4453-0.4375 2.1406-0.29297 0.69922-0.78125 1.4375-1.4688 2.2188-0.6875 0.77344-1.8359 1.8281-3.4375 3.1719-1.3359 1.125-2.1953 1.8906-2.5781 2.2969-0.375 0.39844-0.68359 0.79297-0.92188 1.1875z"/>
   </g>
   <g id="use87171" transform="translate(173.75 5775.1)">
    <path id="path100383" d="m5.9219 5.3281c-1.2305-1.5547-2.2734-3.3672-3.125-5.4375-0.84375-2.0703-1.2656-4.2227-1.2656-6.4531 0-1.957 0.31641-3.832 0.95312-5.625 0.73828-2.082 1.8828-4.1602 3.4375-6.2344h1.5938c-1 1.7188-1.6641 2.9453-1.9844 3.6719-0.5 1.1367-0.89844 2.3242-1.1875 3.5625-0.35547 1.543-0.53125 3.0898-0.53125 4.6406 0 3.9609 1.2344 7.9141 3.7031 11.875z"/>
   </g>
   <g id="use87173" transform="translate(182.18 5775.1)">
    <path id="path100387" d="m0.1875 0 4.7969-6.8125-4.4375-6.3125h2.7812l2.0156 3.0781c0.375 0.58594 0.67578 1.0742 0.90625 1.4688 0.36328-0.53906 0.69531-1.0195 1-1.4375l2.2188-3.1094h2.6562l-4.5469 6.1875 4.8906 6.9375h-2.7344l-2.6875-4.0781-0.71875-1.0938-3.4531 5.1719z"/>
   </g>
   <g id="use87175" transform="translate(194.83 5775.1)"></g>
   <g id="use87177" transform="translate(201.87 5775.1)">
    <path id="path100395" d="m6.3438-2.9219v-4.9688h-4.9375v-2.0781h4.9375v-4.9219h2.0938v4.9219h4.9219v2.0781h-4.9219v4.9688z"/>
   </g>
   <g id="use87179" transform="translate(216.64 5775.1)"></g>
   <g id="use87181" transform="translate(223.68 5775.1)">
    <path id="path100403" d="m12.594-13.672-2.2188 0.17188c-0.19922-0.875-0.48047-1.5078-0.84375-1.9062-0.59375-0.63281-1.3359-0.95312-2.2188-0.95312-0.71094 0-1.3281 0.19922-1.8594 0.59375-0.71094 0.51172-1.2656 1.2578-1.6719 2.2344-0.39844 0.98047-0.60547 2.375-0.625 4.1875 0.53906-0.8125 1.1953-1.4141 1.9688-1.8125 0.76953-0.39453 1.582-0.59375 2.4375-0.59375 1.4766 0 2.7383 0.54688 3.7812 1.6406 1.0391 1.0938 1.5625 2.5078 1.5625 4.2344 0 1.1367-0.24609 2.1953-0.73438 3.1719-0.49219 0.96875-1.1641 1.7148-2.0156 2.2344-0.85547 0.51953-1.8281 0.78125-2.9219 0.78125-1.8555 0-3.3672-0.67969-4.5312-2.0469-1.168-1.3633-1.75-3.6094-1.75-6.7344 0-3.5 0.64453-6.0469 1.9375-7.6406 1.125-1.3828 2.6445-2.0781 4.5625-2.0781 1.4141 0 2.5781 0.40234 3.4844 1.2031 0.91406 0.80469 1.4688 1.9062 1.6562 3.3125zm-9.0781 7.7969c0 0.77344 0.16016 1.5078 0.48438 2.2031 0.32031 0.69922 0.77344 1.2344 1.3594 1.6094 0.58203 0.36719 1.1953 0.54688 1.8438 0.54688 0.9375 0 1.7422-0.37891 2.4219-1.1406 0.67578-0.75781 1.0156-1.7891 1.0156-3.0938 0-1.25-0.33594-2.2344-1-2.9531-0.66797-0.71875-1.5117-1.0781-2.5312-1.0781-1 0-1.8516 0.35938-2.5469 1.0781-0.69922 0.71875-1.0469 1.6641-1.0469 2.8281z"/>
   </g>
   <g id="use87183" transform="translate(237.75 5775.1)">
    <path id="path100407" d="m3.125 5.3281h-1.5938c2.457-3.9609 3.6875-7.9141 3.6875-11.875 0-1.5508-0.17969-3.0859-0.53125-4.6094-0.27344-1.2266-0.66406-2.4141-1.1719-3.5625-0.32422-0.73828-0.98438-1.9727-1.9844-3.7031h1.5938c1.5508 2.0742 2.6953 4.1523 3.4375 6.2344 0.63281 1.793 0.95312 3.668 0.95312 5.625 0 2.2305-0.42969 4.3828-1.2812 6.4531-0.85547 2.0703-1.8906 3.8828-3.1094 5.4375z"/>
   </g>
   <g id="use87185" transform="translate(246.17 5775.1)">
    <path id="path100411" d="m5.9219 5.3281c-1.2305-1.5547-2.2734-3.3672-3.125-5.4375-0.84375-2.0703-1.2656-4.2227-1.2656-6.4531 0-1.957 0.31641-3.832 0.95312-5.625 0.73828-2.082 1.8828-4.1602 3.4375-6.2344h1.5938c-1 1.7188-1.6641 2.9453-1.9844 3.6719-0.5 1.1367-0.89844 2.3242-1.1875 3.5625-0.35547 1.543-0.53125 3.0898-0.53125 4.6406 0 3.9609 1.2344 7.9141 3.7031 11.875z"/>
   </g>
   <g id="use87187" transform="translate(254.6 5775.1)">
    <path id="path100415" d="m0.1875 0 4.7969-6.8125-4.4375-6.3125h2.7812l2.0156 3.0781c0.375 0.58594 0.67578 1.0742 0.90625 1.4688 0.36328-0.53906 0.69531-1.0195 1-1.4375l2.2188-3.1094h2.6562l-4.5469 6.1875 4.8906 6.9375h-2.7344l-2.6875-4.0781-0.71875-1.0938-3.4531 5.1719z"/>
   </g>
   <g id="use87189" transform="translate(267.25 5775.1)"></g>
   <g id="use87191" transform="translate(274.29 5775.1)">
    <path id="path100423" d="m6.3438-2.9219v-4.9688h-4.9375v-2.0781h4.9375v-4.9219h2.0938v4.9219h4.9219v2.0781h-4.9219v4.9688z"/>
   </g>
   <g id="use87193" transform="translate(289.06 5775.1)"></g>
   <g id="use87195" transform="translate(296.1 5775.1)">
    <path id="path100431" d="m12.594-13.672-2.2188 0.17188c-0.19922-0.875-0.48047-1.5078-0.84375-1.9062-0.59375-0.63281-1.3359-0.95312-2.2188-0.95312-0.71094 0-1.3281 0.19922-1.8594 0.59375-0.71094 0.51172-1.2656 1.2578-1.6719 2.2344-0.39844 0.98047-0.60547 2.375-0.625 4.1875 0.53906-0.8125 1.1953-1.4141 1.9688-1.8125 0.76953-0.39453 1.582-0.59375 2.4375-0.59375 1.4766 0 2.7383 0.54688 3.7812 1.6406 1.0391 1.0938 1.5625 2.5078 1.5625 4.2344 0 1.1367-0.24609 2.1953-0.73438 3.1719-0.49219 0.96875-1.1641 1.7148-2.0156 2.2344-0.85547 0.51953-1.8281 0.78125-2.9219 0.78125-1.8555 0-3.3672-0.67969-4.5312-2.0469-1.168-1.3633-1.75-3.6094-1.75-6.7344 0-3.5 0.64453-6.0469 1.9375-7.6406 1.125-1.3828 2.6445-2.0781 4.5625-2.0781 1.4141 0 2.5781 0.40234 3.4844 1.2031 0.91406 0.80469 1.4688 1.9062 1.6562 3.3125zm-9.0781 7.7969c0 0.77344 0.16016 1.5078 0.48438 2.2031 0.32031 0.69922 0.77344 1.2344 1.3594 1.6094 0.58203 0.36719 1.1953 0.54688 1.8438 0.54688 0.9375 0 1.7422-0.37891 2.4219-1.1406 0.67578-0.75781 1.0156-1.7891 1.0156-3.0938 0-1.25-0.33594-2.2344-1-2.9531-0.66797-0.71875-1.5117-1.0781-2.5312-1.0781-1 0-1.8516 0.35938-2.5469 1.0781-0.69922 0.71875-1.0469 1.6641-1.0469 2.8281z"/>
   </g>
   <g id="use87197" transform="translate(310.17 5775.1)">
    <path id="path100435" d="m3.125 5.3281h-1.5938c2.457-3.9609 3.6875-7.9141 3.6875-11.875 0-1.5508-0.17969-3.0859-0.53125-4.6094-0.27344-1.2266-0.66406-2.4141-1.1719-3.5625-0.32422-0.73828-0.98438-1.9727-1.9844-3.7031h1.5938c1.5508 2.0742 2.6953 4.1523 3.4375 6.2344 0.63281 1.793 0.95312 3.668 0.95312 5.625 0 2.2305-0.42969 4.3828-1.2812 6.4531-0.85547 2.0703-1.8906 3.8828-3.1094 5.4375z"/>
   </g>
   <g id="use87199" transform="translate(318.59 5775.1)"></g>
   <g id="use87201" transform="translate(325.63 5775.1)">
    <path id="path100443" d="m6.3438-2.9219v-4.9688h-4.9375v-2.0781h4.9375v-4.9219h2.0938v4.9219h4.9219v2.0781h-4.9219v4.9688z"/>
   </g>
   <g id="use87203" transform="translate(340.41 5775.1)"></g>
   <g id="use87205" transform="translate(347.44 5775.1)">
    <path id="path100451" d="m8.1719 0v-4.3281h-7.8438v-2.0469l8.25-11.734h1.8281v11.734h2.4375v2.0469h-2.4375v4.3281zm0-6.375v-8.1562l-5.6719 8.1562z"/>
   </g>
  </g>
  <g id="g87221" transform="matrix(.35278 0 0 .35278 31.89 -1947)">
   <g id="use87209" transform="translate(129.45 5832.6)">
    <path id="path100455" d="m13.359-10.641h-11.953v-2.0781h11.953zm0 5.4844h-11.953v-2.0625h11.953z"/>
   </g>
   <g id="use87211" transform="translate(144.22 5832.6)"></g>
   <g id="use87213" transform="translate(151.26 5832.6)">
    <path id="path100463" d="m0.79688-5.4375v-2.2344h6.8438v2.2344z"/>
   </g>
   <g id="use87215" transform="translate(159.68 5832.6)">
    <path id="path100467" d="m12.734-2.1406v2.1406h-11.969c-0.023437-0.53125 0.066406-1.0469 0.26562-1.5469 0.30078-0.8125 0.78516-1.6133 1.4531-2.4062 0.67578-0.78906 1.6445-1.7031 2.9062-2.7344 1.9688-1.6133 3.2969-2.8906 3.9844-3.8281 0.69531-0.94531 1.0469-1.8438 1.0469-2.6875 0-0.88281-0.32031-1.6289-0.95312-2.2344-0.625-0.60156-1.4453-0.90625-2.4531-0.90625-1.0742 0-1.9336 0.32422-2.5781 0.96875-0.63672 0.63672-0.96094 1.5273-0.96875 2.6719l-2.2812-0.23438c0.15625-1.707 0.74219-3.0078 1.7656-3.9062 1.0195-0.89453 2.3906-1.3438 4.1094-1.3438 1.7383 0 3.1133 0.48438 4.125 1.4531 1.0078 0.96094 1.5156 2.1523 1.5156 3.5781 0 0.73047-0.14844 1.4453-0.4375 2.1406-0.29297 0.69922-0.78125 1.4375-1.4688 2.2188-0.6875 0.77344-1.8359 1.8281-3.4375 3.1719-1.3359 1.125-2.1953 1.8906-2.5781 2.2969-0.375 0.39844-0.68359 0.79297-0.92188 1.1875z"/>
   </g>
   <g id="use87217" transform="translate(173.75 5832.6)">
    <path id="path100471" d="m5.9219 5.3281c-1.2305-1.5547-2.2734-3.3672-3.125-5.4375-0.84375-2.0703-1.2656-4.2227-1.2656-6.4531 0-1.957 0.31641-3.832 0.95312-5.625 0.73828-2.082 1.8828-4.1602 3.4375-6.2344h1.5938c-1 1.7188-1.6641 2.9453-1.9844 3.6719-0.5 1.1367-0.89844 2.3242-1.1875 3.5625-0.35547 1.543-0.53125 3.0898-0.53125 4.6406 0 3.9609 1.2344 7.9141 3.7031 11.875z"/>
   </g>
   <g id="use87219" transform="translate(182.18 5832.6)">
    <path id="path100475" d="m0.1875 0 4.7969-6.8125-4.4375-6.3125h2.7812l2.0156 3.0781c0.375 0.58594 0.67578 1.0742 0.90625 1.4688 0.36328-0.53906 0.69531-1.0195 1-1.4375l2.2188-3.1094h2.6562l-4.5469 6.1875 4.8906 6.9375h-2.7344l-2.6875-4.0781-0.71875-1.0938-3.4531 5.1719z"/>
   </g>
  </g>
  <g id="g87225" transform="matrix(.35278 0 0 .35278 31.89 -1947)">
   <g id="use87223" transform="translate(194.83 5824.2)">
    <path id="path100479" d="m7.4219-1.25v1.25h-6.9688c-0.011719-0.3125 0.035156-0.61328 0.14062-0.90625 0.17578-0.46875 0.45703-0.92969 0.84375-1.3906 0.39453-0.46875 0.96094-1.0039 1.7031-1.6094 1.1562-0.9375 1.9297-1.6797 2.3281-2.2344 0.40625-0.55078 0.60938-1.0703 0.60938-1.5625 0-0.50781-0.18359-0.94141-0.54688-1.2969-0.36719-0.35156-0.84375-0.53125-1.4375-0.53125-0.625 0-1.125 0.1875-1.5 0.5625s-0.5625 0.89844-0.5625 1.5625l-1.3438-0.14062c0.09375-0.98828 0.4375-1.7422 1.0312-2.2656 0.59375-0.53125 1.3945-0.79688 2.4062-0.79688 1.0078 0 1.8047 0.28125 2.3906 0.84375 0.59375 0.5625 0.89062 1.2617 0.89062 2.0938 0 0.42969-0.089844 0.84375-0.26562 1.25-0.16797 0.40625-0.45312 0.83984-0.85938 1.2969-0.39844 0.44922-1.0586 1.0625-1.9844 1.8438-0.78125 0.65625-1.2812 1.1055-1.5 1.3438-0.21875 0.23047-0.40234 0.46094-0.54688 0.6875z"/>
   </g>
  </g>
  <g id="g87267" transform="matrix(.35278 0 0 .35278 31.89 -1947)">
   <g id="use87227" transform="translate(203.04 5832.6)"></g>
   <g id="use87229" transform="translate(210.07 5832.6)">
    <path id="path100487" d="m6.3438-2.9219v-4.9688h-4.9375v-2.0781h4.9375v-4.9219h2.0938v4.9219h4.9219v2.0781h-4.9219v4.9688z"/>
   </g>
   <g id="use87231" transform="translate(224.85 5832.6)"></g>
   <g id="use87233" transform="translate(231.88 5832.6)">
    <path id="path100495" d="m12.594-13.672-2.2188 0.17188c-0.19922-0.875-0.48047-1.5078-0.84375-1.9062-0.59375-0.63281-1.3359-0.95312-2.2188-0.95312-0.71094 0-1.3281 0.19922-1.8594 0.59375-0.71094 0.51172-1.2656 1.2578-1.6719 2.2344-0.39844 0.98047-0.60547 2.375-0.625 4.1875 0.53906-0.8125 1.1953-1.4141 1.9688-1.8125 0.76953-0.39453 1.582-0.59375 2.4375-0.59375 1.4766 0 2.7383 0.54688 3.7812 1.6406 1.0391 1.0938 1.5625 2.5078 1.5625 4.2344 0 1.1367-0.24609 2.1953-0.73438 3.1719-0.49219 0.96875-1.1641 1.7148-2.0156 2.2344-0.85547 0.51953-1.8281 0.78125-2.9219 0.78125-1.8555 0-3.3672-0.67969-4.5312-2.0469-1.168-1.3633-1.75-3.6094-1.75-6.7344 0-3.5 0.64453-6.0469 1.9375-7.6406 1.125-1.3828 2.6445-2.0781 4.5625-2.0781 1.4141 0 2.5781 0.40234 3.4844 1.2031 0.91406 0.80469 1.4688 1.9062 1.6562 3.3125zm-9.0781 7.7969c0 0.77344 0.16016 1.5078 0.48438 2.2031 0.32031 0.69922 0.77344 1.2344 1.3594 1.6094 0.58203 0.36719 1.1953 0.54688 1.8438 0.54688 0.9375 0 1.7422-0.37891 2.4219-1.1406 0.67578-0.75781 1.0156-1.7891 1.0156-3.0938 0-1.25-0.33594-2.2344-1-2.9531-0.66797-0.71875-1.5117-1.0781-2.5312-1.0781-1 0-1.8516 0.35938-2.5469 1.0781-0.69922 0.71875-1.0469 1.6641-1.0469 2.8281z"/>
   </g>
   <g id="use87235" transform="translate(245.95 5832.6)">
    <path id="path100499" d="m0.1875 0 4.7969-6.8125-4.4375-6.3125h2.7812l2.0156 3.0781c0.375 0.58594 0.67578 1.0742 0.90625 1.4688 0.36328-0.53906 0.69531-1.0195 1-1.4375l2.2188-3.1094h2.6562l-4.5469 6.1875 4.8906 6.9375h-2.7344l-2.6875-4.0781-0.71875-1.0938-3.4531 5.1719z"/>
   </g>
   <g id="use87237" transform="translate(258.6 5832.6)"></g>
   <g id="use87239" transform="translate(265.64 5832.6)">
    <path id="path100507" d="m6.3438-2.9219v-4.9688h-4.9375v-2.0781h4.9375v-4.9219h2.0938v4.9219h4.9219v2.0781h-4.9219v4.9688z"/>
   </g>
   <g id="use87241" transform="translate(280.42 5832.6)"></g>
   <g id="use87243" transform="translate(287.45 5832.6)">
    <path id="path100515" d="m12.594-13.672-2.2188 0.17188c-0.19922-0.875-0.48047-1.5078-0.84375-1.9062-0.59375-0.63281-1.3359-0.95312-2.2188-0.95312-0.71094 0-1.3281 0.19922-1.8594 0.59375-0.71094 0.51172-1.2656 1.2578-1.6719 2.2344-0.39844 0.98047-0.60547 2.375-0.625 4.1875 0.53906-0.8125 1.1953-1.4141 1.9688-1.8125 0.76953-0.39453 1.582-0.59375 2.4375-0.59375 1.4766 0 2.7383 0.54688 3.7812 1.6406 1.0391 1.0938 1.5625 2.5078 1.5625 4.2344 0 1.1367-0.24609 2.1953-0.73438 3.1719-0.49219 0.96875-1.1641 1.7148-2.0156 2.2344-0.85547 0.51953-1.8281 0.78125-2.9219 0.78125-1.8555 0-3.3672-0.67969-4.5312-2.0469-1.168-1.3633-1.75-3.6094-1.75-6.7344 0-3.5 0.64453-6.0469 1.9375-7.6406 1.125-1.3828 2.6445-2.0781 4.5625-2.0781 1.4141 0 2.5781 0.40234 3.4844 1.2031 0.91406 0.80469 1.4688 1.9062 1.6562 3.3125zm-9.0781 7.7969c0 0.77344 0.16016 1.5078 0.48438 2.2031 0.32031 0.69922 0.77344 1.2344 1.3594 1.6094 0.58203 0.36719 1.1953 0.54688 1.8438 0.54688 0.9375 0 1.7422-0.37891 2.4219-1.1406 0.67578-0.75781 1.0156-1.7891 1.0156-3.0938 0-1.25-0.33594-2.2344-1-2.9531-0.66797-0.71875-1.5117-1.0781-2.5312-1.0781-1 0-1.8516 0.35938-2.5469 1.0781-0.69922 0.71875-1.0469 1.6641-1.0469 2.8281z"/>
   </g>
   <g id="use87245" transform="translate(301.52 5832.6)">
    <path id="path100519" d="m0.1875 0 4.7969-6.8125-4.4375-6.3125h2.7812l2.0156 3.0781c0.375 0.58594 0.67578 1.0742 0.90625 1.4688 0.36328-0.53906 0.69531-1.0195 1-1.4375l2.2188-3.1094h2.6562l-4.5469 6.1875 4.8906 6.9375h-2.7344l-2.6875-4.0781-0.71875-1.0938-3.4531 5.1719z"/>
   </g>
   <g id="use87247" transform="translate(314.17 5832.6)"></g>
   <g id="use87249" transform="translate(321.21 5832.6)">
    <path id="path100527" d="m6.3438-2.9219v-4.9688h-4.9375v-2.0781h4.9375v-4.9219h2.0938v4.9219h4.9219v2.0781h-4.9219v4.9688z"/>
   </g>
   <g id="use87251" transform="translate(335.98 5832.6)"></g>
   <g id="use87253" transform="translate(343.02 5832.6)">
    <path id="path100535" d="m1.0625-4.7812 2.2188-0.29688c0.25781 1.2617 0.69531 2.1719 1.3125 2.7344 0.61328 0.55469 1.3594 0.82812 2.2344 0.82812 1.0508 0 1.9375-0.35938 2.6562-1.0781 0.71875-0.72656 1.0781-1.6289 1.0781-2.7031 0-1.0195-0.33594-1.8594-1-2.5156-0.66797-0.66406-1.5156-1-2.5469-1-0.41797 0-0.9375 0.078125-1.5625 0.23438l0.23438-1.9531c0.15625 0.02344 0.27344 0.03125 0.35938 0.03125 0.94531 0 1.8008-0.24219 2.5625-0.73438 0.75781-0.5 1.1406-1.2656 1.1406-2.2969 0-0.8125-0.27734-1.4844-0.82812-2.0156-0.55469-0.53906-1.2656-0.8125-2.1406-0.8125-0.86719 0-1.5898 0.27734-2.1719 0.82812-0.57422 0.54297-0.9375 1.3555-1.0938 2.4375l-2.2344-0.39062c0.26953-1.4883 0.88281-2.6445 1.8438-3.4688 0.96875-0.82031 2.1719-1.2344 3.6094-1.2344 0.98828 0 1.8945 0.21484 2.7188 0.64062 0.83203 0.42969 1.4688 1.0078 1.9062 1.7344 0.44531 0.73047 0.67188 1.5117 0.67188 2.3438 0 0.78125-0.21484 1.4961-0.64062 2.1406-0.41797 0.63672-1.0391 1.1406-1.8594 1.5156 1.0703 0.25 1.9062 0.76562 2.5 1.5469 0.59375 0.77344 0.89062 1.7461 0.89062 2.9219 0 1.5742-0.57812 2.9141-1.7344 4.0156-1.1484 1.1055-2.6055 1.6562-4.375 1.6562-1.5859 0-2.9023-0.47266-3.9531-1.4219-1.0547-0.94531-1.6523-2.1758-1.7969-3.6875z"/>
   </g>
   <g id="use87255" transform="translate(357.09 5832.6)">
    <path id="path100539" d="m12.594-13.672-2.2188 0.17188c-0.19922-0.875-0.48047-1.5078-0.84375-1.9062-0.59375-0.63281-1.3359-0.95312-2.2188-0.95312-0.71094 0-1.3281 0.19922-1.8594 0.59375-0.71094 0.51172-1.2656 1.2578-1.6719 2.2344-0.39844 0.98047-0.60547 2.375-0.625 4.1875 0.53906-0.8125 1.1953-1.4141 1.9688-1.8125 0.76953-0.39453 1.582-0.59375 2.4375-0.59375 1.4766 0 2.7383 0.54688 3.7812 1.6406 1.0391 1.0938 1.5625 2.5078 1.5625 4.2344 0 1.1367-0.24609 2.1953-0.73438 3.1719-0.49219 0.96875-1.1641 1.7148-2.0156 2.2344-0.85547 0.51953-1.8281 0.78125-2.9219 0.78125-1.8555 0-3.3672-0.67969-4.5312-2.0469-1.168-1.3633-1.75-3.6094-1.75-6.7344 0-3.5 0.64453-6.0469 1.9375-7.6406 1.125-1.3828 2.6445-2.0781 4.5625-2.0781 1.4141 0 2.5781 0.40234 3.4844 1.2031 0.91406 0.80469 1.4688 1.9062 1.6562 3.3125zm-9.0781 7.7969c0 0.77344 0.16016 1.5078 0.48438 2.2031 0.32031 0.69922 0.77344 1.2344 1.3594 1.6094 0.58203 0.36719 1.1953 0.54688 1.8438 0.54688 0.9375 0 1.7422-0.37891 2.4219-1.1406 0.67578-0.75781 1.0156-1.7891 1.0156-3.0938 0-1.25-0.33594-2.2344-1-2.9531-0.66797-0.71875-1.5117-1.0781-2.5312-1.0781-1 0-1.8516 0.35938-2.5469 1.0781-0.69922 0.71875-1.0469 1.6641-1.0469 2.8281z"/>
   </g>
   <g id="use87257" transform="translate(371.16 5832.6)">
    <path id="path100543" d="m3.125 5.3281h-1.5938c2.457-3.9609 3.6875-7.9141 3.6875-11.875 0-1.5508-0.17969-3.0859-0.53125-4.6094-0.27344-1.2266-0.66406-2.4141-1.1719-3.5625-0.32422-0.73828-0.98438-1.9727-1.9844-3.7031h1.5938c1.5508 2.0742 2.6953 4.1523 3.4375 6.2344 0.63281 1.793 0.95312 3.668 0.95312 5.625 0 2.2305-0.42969 4.3828-1.2812 6.4531-0.85547 2.0703-1.8906 3.8828-3.1094 5.4375z"/>
   </g>
   <g id="use87259" transform="translate(379.58 5832.6)"></g>
   <g id="use87261" transform="translate(386.62 5832.6)">
    <path id="path100551" d="m6.3438-2.9219v-4.9688h-4.9375v-2.0781h4.9375v-4.9219h2.0938v4.9219h4.9219v2.0781h-4.9219v4.9688z"/>
   </g>
   <g id="use87263" transform="translate(401.39 5832.6)"></g>
   <g id="use87265" transform="translate(408.43 5832.6)">
    <path id="path100559" d="m8.1719 0v-4.3281h-7.8438v-2.0469l8.25-11.734h1.8281v11.734h2.4375v2.0469h-2.4375v4.3281zm0-6.375v-8.1562l-5.6719 8.1562z"/>
   </g>
  </g>
  <g id="g87281" transform="matrix(.35278 0 0 .35278 31.89 -1947)">
   <g id="use87269" transform="translate(129.45 5888.4)">
    <path id="path100563" d="m13.359-10.641h-11.953v-2.0781h11.953zm0 5.4844h-11.953v-2.0625h11.953z"/>
   </g>
   <g id="use87271" transform="translate(144.23 5888.4)"></g>
   <g id="use87273" transform="translate(151.26 5888.4)">
    <path id="path100571" d="m0.79688-5.4375v-2.2344h6.8438v2.2344z"/>
   </g>
   <g id="use87275" transform="translate(159.69 5888.4)">
    <path id="path100575" d="m12.734-2.1406v2.1406h-11.969c-0.023437-0.53125 0.066406-1.0469 0.26562-1.5469 0.30078-0.8125 0.78516-1.6133 1.4531-2.4062 0.67578-0.78906 1.6445-1.7031 2.9062-2.7344 1.9688-1.6133 3.2969-2.8906 3.9844-3.8281 0.69531-0.94531 1.0469-1.8438 1.0469-2.6875 0-0.88281-0.32031-1.6289-0.95312-2.2344-0.625-0.60156-1.4453-0.90625-2.4531-0.90625-1.0742 0-1.9336 0.32422-2.5781 0.96875-0.63672 0.63672-0.96094 1.5273-0.96875 2.6719l-2.2812-0.23438c0.15625-1.707 0.74219-3.0078 1.7656-3.9062 1.0195-0.89453 2.3906-1.3438 4.1094-1.3438 1.7383 0 3.1133 0.48438 4.125 1.4531 1.0078 0.96094 1.5156 2.1523 1.5156 3.5781 0 0.73047-0.14844 1.4453-0.4375 2.1406-0.29297 0.69922-0.78125 1.4375-1.4688 2.2188-0.6875 0.77344-1.8359 1.8281-3.4375 3.1719-1.3359 1.125-2.1953 1.8906-2.5781 2.2969-0.375 0.39844-0.68359 0.79297-0.92188 1.1875z"/>
   </g>
   <g id="use87277" transform="translate(173.76 5888.4)">
    <path id="path100579" d="m5.9219 5.3281c-1.2305-1.5547-2.2734-3.3672-3.125-5.4375-0.84375-2.0703-1.2656-4.2227-1.2656-6.4531 0-1.957 0.31641-3.832 0.95312-5.625 0.73828-2.082 1.8828-4.1602 3.4375-6.2344h1.5938c-1 1.7188-1.6641 2.9453-1.9844 3.6719-0.5 1.1367-0.89844 2.3242-1.1875 3.5625-0.35547 1.543-0.53125 3.0898-0.53125 4.6406 0 3.9609 1.2344 7.9141 3.7031 11.875z"/>
   </g>
   <g id="use87279" transform="translate(182.19 5888.4)">
    <path id="path100583" d="m0.1875 0 4.7969-6.8125-4.4375-6.3125h2.7812l2.0156 3.0781c0.375 0.58594 0.67578 1.0742 0.90625 1.4688 0.36328-0.53906 0.69531-1.0195 1-1.4375l2.2188-3.1094h2.6562l-4.5469 6.1875 4.8906 6.9375h-2.7344l-2.6875-4.0781-0.71875-1.0938-3.4531 5.1719z"/>
   </g>
  </g>
  <g id="g87285" transform="matrix(.35278 0 0 .35278 31.89 -1947)">
   <g id="use87283" transform="translate(194.83 5880)">
    <path id="path100587" d="m7.4219-1.25v1.25h-6.9688c-0.011719-0.3125 0.035156-0.61328 0.14062-0.90625 0.17578-0.46875 0.45703-0.92969 0.84375-1.3906 0.39453-0.46875 0.96094-1.0039 1.7031-1.6094 1.1562-0.9375 1.9297-1.6797 2.3281-2.2344 0.40625-0.55078 0.60938-1.0703 0.60938-1.5625 0-0.50781-0.18359-0.94141-0.54688-1.2969-0.36719-0.35156-0.84375-0.53125-1.4375-0.53125-0.625 0-1.125 0.1875-1.5 0.5625s-0.5625 0.89844-0.5625 1.5625l-1.3438-0.14062c0.09375-0.98828 0.4375-1.7422 1.0312-2.2656 0.59375-0.53125 1.3945-0.79688 2.4062-0.79688 1.0078 0 1.8047 0.28125 2.3906 0.84375 0.59375 0.5625 0.89062 1.2617 0.89062 2.0938 0 0.42969-0.089844 0.84375-0.26562 1.25-0.16797 0.40625-0.45312 0.83984-0.85938 1.2969-0.39844 0.44922-1.0586 1.0625-1.9844 1.8438-0.78125 0.65625-1.2812 1.1055-1.5 1.3438-0.21875 0.23047-0.40234 0.46094-0.54688 0.6875z"/>
   </g>
  </g>
  <g id="g87319" transform="matrix(.35278 0 0 .35278 31.89 -1947)">
   <g id="use87287" transform="translate(203.04 5888.4)"></g>
   <g id="use87289" transform="translate(210.07 5888.4)">
    <path id="path100595" d="m6.3438-2.9219v-4.9688h-4.9375v-2.0781h4.9375v-4.9219h2.0938v4.9219h4.9219v2.0781h-4.9219v4.9688z"/>
   </g>
   <g id="use87291" transform="translate(224.85 5888.4)"></g>
   <g id="use87293" transform="translate(231.88 5888.4)">
    <path id="path100603" d="m9.4219 0h-2.2188v-14.172c-0.54297 0.51172-1.2461 1.0234-2.1094 1.5312-0.86719 0.51172-1.6484 0.89844-2.3438 1.1562v-2.1562c1.25-0.58203 2.3359-1.2891 3.2656-2.125 0.92578-0.83203 1.582-1.6406 1.9688-2.4219h1.4375z"/>
   </g>
   <g id="use87295" transform="translate(245.95 5888.4)">
    <path id="path100607" d="m12.734-2.1406v2.1406h-11.969c-0.023437-0.53125 0.066406-1.0469 0.26562-1.5469 0.30078-0.8125 0.78516-1.6133 1.4531-2.4062 0.67578-0.78906 1.6445-1.7031 2.9062-2.7344 1.9688-1.6133 3.2969-2.8906 3.9844-3.8281 0.69531-0.94531 1.0469-1.8438 1.0469-2.6875 0-0.88281-0.32031-1.6289-0.95312-2.2344-0.625-0.60156-1.4453-0.90625-2.4531-0.90625-1.0742 0-1.9336 0.32422-2.5781 0.96875-0.63672 0.63672-0.96094 1.5273-0.96875 2.6719l-2.2812-0.23438c0.15625-1.707 0.74219-3.0078 1.7656-3.9062 1.0195-0.89453 2.3906-1.3438 4.1094-1.3438 1.7383 0 3.1133 0.48438 4.125 1.4531 1.0078 0.96094 1.5156 2.1523 1.5156 3.5781 0 0.73047-0.14844 1.4453-0.4375 2.1406-0.29297 0.69922-0.78125 1.4375-1.4688 2.2188-0.6875 0.77344-1.8359 1.8281-3.4375 3.1719-1.3359 1.125-2.1953 1.8906-2.5781 2.2969-0.375 0.39844-0.68359 0.79297-0.92188 1.1875z"/>
   </g>
   <g id="use87297" transform="translate(260.02 5888.4)">
    <path id="path100611" d="m0.1875 0 4.7969-6.8125-4.4375-6.3125h2.7812l2.0156 3.0781c0.375 0.58594 0.67578 1.0742 0.90625 1.4688 0.36328-0.53906 0.69531-1.0195 1-1.4375l2.2188-3.1094h2.6562l-4.5469 6.1875 4.8906 6.9375h-2.7344l-2.6875-4.0781-0.71875-1.0938-3.4531 5.1719z"/>
   </g>
   <g id="use87299" transform="translate(272.67 5888.4)"></g>
   <g id="use87301" transform="translate(279.71 5888.4)">
    <path id="path100619" d="m6.3438-2.9219v-4.9688h-4.9375v-2.0781h4.9375v-4.9219h2.0938v4.9219h4.9219v2.0781h-4.9219v4.9688z"/>
   </g>
   <g id="use87303" transform="translate(294.49 5888.4)"></g>
   <g id="use87305" transform="translate(301.52 5888.4)">
    <path id="path100627" d="m1.0625-4.7812 2.2188-0.29688c0.25781 1.2617 0.69531 2.1719 1.3125 2.7344 0.61328 0.55469 1.3594 0.82812 2.2344 0.82812 1.0508 0 1.9375-0.35938 2.6562-1.0781 0.71875-0.72656 1.0781-1.6289 1.0781-2.7031 0-1.0195-0.33594-1.8594-1-2.5156-0.66797-0.66406-1.5156-1-2.5469-1-0.41797 0-0.9375 0.078125-1.5625 0.23438l0.23438-1.9531c0.15625 0.02344 0.27344 0.03125 0.35938 0.03125 0.94531 0 1.8008-0.24219 2.5625-0.73438 0.75781-0.5 1.1406-1.2656 1.1406-2.2969 0-0.8125-0.27734-1.4844-0.82812-2.0156-0.55469-0.53906-1.2656-0.8125-2.1406-0.8125-0.86719 0-1.5898 0.27734-2.1719 0.82812-0.57422 0.54297-0.9375 1.3555-1.0938 2.4375l-2.2344-0.39062c0.26953-1.4883 0.88281-2.6445 1.8438-3.4688 0.96875-0.82031 2.1719-1.2344 3.6094-1.2344 0.98828 0 1.8945 0.21484 2.7188 0.64062 0.83203 0.42969 1.4688 1.0078 1.9062 1.7344 0.44531 0.73047 0.67188 1.5117 0.67188 2.3438 0 0.78125-0.21484 1.4961-0.64062 2.1406-0.41797 0.63672-1.0391 1.1406-1.8594 1.5156 1.0703 0.25 1.9062 0.76562 2.5 1.5469 0.59375 0.77344 0.89062 1.7461 0.89062 2.9219 0 1.5742-0.57812 2.9141-1.7344 4.0156-1.1484 1.1055-2.6055 1.6562-4.375 1.6562-1.5859 0-2.9023-0.47266-3.9531-1.4219-1.0547-0.94531-1.6523-2.1758-1.7969-3.6875z"/>
   </g>
   <g id="use87307" transform="translate(315.59 5888.4)">
    <path id="path100631" d="m12.594-13.672-2.2188 0.17188c-0.19922-0.875-0.48047-1.5078-0.84375-1.9062-0.59375-0.63281-1.3359-0.95312-2.2188-0.95312-0.71094 0-1.3281 0.19922-1.8594 0.59375-0.71094 0.51172-1.2656 1.2578-1.6719 2.2344-0.39844 0.98047-0.60547 2.375-0.625 4.1875 0.53906-0.8125 1.1953-1.4141 1.9688-1.8125 0.76953-0.39453 1.582-0.59375 2.4375-0.59375 1.4766 0 2.7383 0.54688 3.7812 1.6406 1.0391 1.0938 1.5625 2.5078 1.5625 4.2344 0 1.1367-0.24609 2.1953-0.73438 3.1719-0.49219 0.96875-1.1641 1.7148-2.0156 2.2344-0.85547 0.51953-1.8281 0.78125-2.9219 0.78125-1.8555 0-3.3672-0.67969-4.5312-2.0469-1.168-1.3633-1.75-3.6094-1.75-6.7344 0-3.5 0.64453-6.0469 1.9375-7.6406 1.125-1.3828 2.6445-2.0781 4.5625-2.0781 1.4141 0 2.5781 0.40234 3.4844 1.2031 0.91406 0.80469 1.4688 1.9062 1.6562 3.3125zm-9.0781 7.7969c0 0.77344 0.16016 1.5078 0.48438 2.2031 0.32031 0.69922 0.77344 1.2344 1.3594 1.6094 0.58203 0.36719 1.1953 0.54688 1.8438 0.54688 0.9375 0 1.7422-0.37891 2.4219-1.1406 0.67578-0.75781 1.0156-1.7891 1.0156-3.0938 0-1.25-0.33594-2.2344-1-2.9531-0.66797-0.71875-1.5117-1.0781-2.5312-1.0781-1 0-1.8516 0.35938-2.5469 1.0781-0.69922 0.71875-1.0469 1.6641-1.0469 2.8281z"/>
   </g>
   <g id="use87309" transform="translate(329.66 5888.4)">
    <path id="path100635" d="m3.125 5.3281h-1.5938c2.457-3.9609 3.6875-7.9141 3.6875-11.875 0-1.5508-0.17969-3.0859-0.53125-4.6094-0.27344-1.2266-0.66406-2.4141-1.1719-3.5625-0.32422-0.73828-0.98438-1.9727-1.9844-3.7031h1.5938c1.5508 2.0742 2.6953 4.1523 3.4375 6.2344 0.63281 1.793 0.95312 3.668 0.95312 5.625 0 2.2305-0.42969 4.3828-1.2812 6.4531-0.85547 2.0703-1.8906 3.8828-3.1094 5.4375z"/>
   </g>
   <g id="use87311" transform="translate(338.08 5888.4)"></g>
   <g id="use87313" transform="translate(345.12 5888.4)">
    <path id="path100643" d="m6.3438-2.9219v-4.9688h-4.9375v-2.0781h4.9375v-4.9219h2.0938v4.9219h4.9219v2.0781h-4.9219v4.9688z"/>
   </g>
   <g id="use87315" transform="translate(359.9 5888.4)"></g>
   <g id="use87317" transform="translate(366.93 5888.4)">
    <path id="path100651" d="m8.1719 0v-4.3281h-7.8438v-2.0469l8.25-11.734h1.8281v11.734h2.4375v2.0469h-2.4375v4.3281zm0-6.375v-8.1562l-5.6719 8.1562z"/>
   </g>
  </g>
  <g id="g87331" transform="matrix(.35278 0 0 .35278 31.89 -1947)">
   <g id="use87321" transform="translate(129.45 5942.1)">
    <path id="path100655" d="m13.359-10.641h-11.953v-2.0781h11.953zm0 5.4844h-11.953v-2.0625h11.953z"/>
   </g>
   <g id="use87323" transform="translate(144.23 5942.1)"></g>
   <g id="use87325" transform="translate(151.26 5942.1)">
    <path id="path100663" d="m0.79688-5.4375v-2.2344h6.8438v2.2344z"/>
   </g>
   <g id="use87327" transform="translate(159.69 5942.1)">
    <path id="path100667" d="m12.734-2.1406v2.1406h-11.969c-0.023437-0.53125 0.066406-1.0469 0.26562-1.5469 0.30078-0.8125 0.78516-1.6133 1.4531-2.4062 0.67578-0.78906 1.6445-1.7031 2.9062-2.7344 1.9688-1.6133 3.2969-2.8906 3.9844-3.8281 0.69531-0.94531 1.0469-1.8438 1.0469-2.6875 0-0.88281-0.32031-1.6289-0.95312-2.2344-0.625-0.60156-1.4453-0.90625-2.4531-0.90625-1.0742 0-1.9336 0.32422-2.5781 0.96875-0.63672 0.63672-0.96094 1.5273-0.96875 2.6719l-2.2812-0.23438c0.15625-1.707 0.74219-3.0078 1.7656-3.9062 1.0195-0.89453 2.3906-1.3438 4.1094-1.3438 1.7383 0 3.1133 0.48438 4.125 1.4531 1.0078 0.96094 1.5156 2.1523 1.5156 3.5781 0 0.73047-0.14844 1.4453-0.4375 2.1406-0.29297 0.69922-0.78125 1.4375-1.4688 2.2188-0.6875 0.77344-1.8359 1.8281-3.4375 3.1719-1.3359 1.125-2.1953 1.8906-2.5781 2.2969-0.375 0.39844-0.68359 0.79297-0.92188 1.1875z"/>
   </g>
   <g id="use87329" transform="translate(173.76 5942.1)">
    <path id="path100671" d="m0.1875 0 4.7969-6.8125-4.4375-6.3125h2.7812l2.0156 3.0781c0.375 0.58594 0.67578 1.0742 0.90625 1.4688 0.36328-0.53906 0.69531-1.0195 1-1.4375l2.2188-3.1094h2.6562l-4.5469 6.1875 4.8906 6.9375h-2.7344l-2.6875-4.0781-0.71875-1.0938-3.4531 5.1719z"/>
   </g>
  </g>
  <g id="g87335" transform="matrix(.35278 0 0 .35278 31.89 -1947)">
   <g id="use87333" transform="translate(186.4 5933.7)">
    <path id="path100675" d="m7.4219-1.25v1.25h-6.9688c-0.011719-0.3125 0.035156-0.61328 0.14062-0.90625 0.17578-0.46875 0.45703-0.92969 0.84375-1.3906 0.39453-0.46875 0.96094-1.0039 1.7031-1.6094 1.1562-0.9375 1.9297-1.6797 2.3281-2.2344 0.40625-0.55078 0.60938-1.0703 0.60938-1.5625 0-0.50781-0.18359-0.94141-0.54688-1.2969-0.36719-0.35156-0.84375-0.53125-1.4375-0.53125-0.625 0-1.125 0.1875-1.5 0.5625s-0.5625 0.89844-0.5625 1.5625l-1.3438-0.14062c0.09375-0.98828 0.4375-1.7422 1.0312-2.2656 0.59375-0.53125 1.3945-0.79688 2.4062-0.79688 1.0078 0 1.8047 0.28125 2.3906 0.84375 0.59375 0.5625 0.89062 1.2617 0.89062 2.0938 0 0.42969-0.089844 0.84375-0.26562 1.25-0.16797 0.40625-0.45312 0.83984-0.85938 1.2969-0.39844 0.44922-1.0586 1.0625-1.9844 1.8438-0.78125 0.65625-1.2812 1.1055-1.5 1.3438-0.21875 0.23047-0.40234 0.46094-0.54688 0.6875z"/>
   </g>
  </g>
  <g id="g87367" transform="matrix(.35278 0 0 .35278 31.89 -1947)">
   <g id="use87337" transform="translate(194.61 5942.1)"></g>
   <g id="use87339" transform="translate(201.64 5942.1)">
    <path id="path100683" d="m0.79688-5.4375v-2.2344h6.8438v2.2344z"/>
   </g>
   <g id="use87341" transform="translate(210.07 5942.1)"></g>
   <g id="use87343" transform="translate(217.11 5942.1)">
    <path id="path100691" d="m12.734-2.1406v2.1406h-11.969c-0.023437-0.53125 0.066406-1.0469 0.26562-1.5469 0.30078-0.8125 0.78516-1.6133 1.4531-2.4062 0.67578-0.78906 1.6445-1.7031 2.9062-2.7344 1.9688-1.6133 3.2969-2.8906 3.9844-3.8281 0.69531-0.94531 1.0469-1.8438 1.0469-2.6875 0-0.88281-0.32031-1.6289-0.95312-2.2344-0.625-0.60156-1.4453-0.90625-2.4531-0.90625-1.0742 0-1.9336 0.32422-2.5781 0.96875-0.63672 0.63672-0.96094 1.5273-0.96875 2.6719l-2.2812-0.23438c0.15625-1.707 0.74219-3.0078 1.7656-3.9062 1.0195-0.89453 2.3906-1.3438 4.1094-1.3438 1.7383 0 3.1133 0.48438 4.125 1.4531 1.0078 0.96094 1.5156 2.1523 1.5156 3.5781 0 0.73047-0.14844 1.4453-0.4375 2.1406-0.29297 0.69922-0.78125 1.4375-1.4688 2.2188-0.6875 0.77344-1.8359 1.8281-3.4375 3.1719-1.3359 1.125-2.1953 1.8906-2.5781 2.2969-0.375 0.39844-0.68359 0.79297-0.92188 1.1875z"/>
   </g>
   <g id="use87345" transform="translate(231.17 5942.1)">
    <path id="path100695" d="m8.1719 0v-4.3281h-7.8438v-2.0469l8.25-11.734h1.8281v11.734h2.4375v2.0469h-2.4375v4.3281zm0-6.375v-8.1562l-5.6719 8.1562z"/>
   </g>
   <g id="use87347" transform="translate(245.24 5942.1)">
    <path id="path100699" d="m0.1875 0 4.7969-6.8125-4.4375-6.3125h2.7812l2.0156 3.0781c0.375 0.58594 0.67578 1.0742 0.90625 1.4688 0.36328-0.53906 0.69531-1.0195 1-1.4375l2.2188-3.1094h2.6562l-4.5469 6.1875 4.8906 6.9375h-2.7344l-2.6875-4.0781-0.71875-1.0938-3.4531 5.1719z"/>
   </g>
   <g id="use87349" transform="translate(257.9 5942.1)"></g>
   <g id="use87351" transform="translate(264.93 5942.1)">
    <path id="path100707" d="m0.79688-5.4375v-2.2344h6.8438v2.2344z"/>
   </g>
   <g id="use87353" transform="translate(273.36 5942.1)"></g>
   <g id="use87355" transform="translate(280.39 5942.1)">
    <path id="path100715" d="m1.2031-15.734v-2.1406h11.719v1.7344c-1.1562 1.2305-2.3047 2.8594-3.4375 4.8906-1.125 2.0312-1.9961 4.1211-2.6094 6.2656-0.44922 1.5234-0.73438 3.1836-0.85938 4.9844h-2.2812c0.019531-1.4258 0.29688-3.1445 0.82812-5.1562 0.53906-2.0195 1.3125-3.9688 2.3125-5.8438s2.0625-3.4531 3.1875-4.7344z"/>
   </g>
   <g id="use87357" transform="translate(294.46 5942.1)">
    <path id="path100719" d="m12.734-2.1406v2.1406h-11.969c-0.023437-0.53125 0.066406-1.0469 0.26562-1.5469 0.30078-0.8125 0.78516-1.6133 1.4531-2.4062 0.67578-0.78906 1.6445-1.7031 2.9062-2.7344 1.9688-1.6133 3.2969-2.8906 3.9844-3.8281 0.69531-0.94531 1.0469-1.8438 1.0469-2.6875 0-0.88281-0.32031-1.6289-0.95312-2.2344-0.625-0.60156-1.4453-0.90625-2.4531-0.90625-1.0742 0-1.9336 0.32422-2.5781 0.96875-0.63672 0.63672-0.96094 1.5273-0.96875 2.6719l-2.2812-0.23438c0.15625-1.707 0.74219-3.0078 1.7656-3.9062 1.0195-0.89453 2.3906-1.3438 4.1094-1.3438 1.7383 0 3.1133 0.48438 4.125 1.4531 1.0078 0.96094 1.5156 2.1523 1.5156 3.5781 0 0.73047-0.14844 1.4453-0.4375 2.1406-0.29297 0.69922-0.78125 1.4375-1.4688 2.2188-0.6875 0.77344-1.8359 1.8281-3.4375 3.1719-1.3359 1.125-2.1953 1.8906-2.5781 2.2969-0.375 0.39844-0.68359 0.79297-0.92188 1.1875z"/>
   </g>
   <g id="use87359" transform="translate(308.53 5942.1)"></g>
   <g id="use87361" transform="translate(315.56 5942.1)">
    <path id="path100727" d="m6.3438-2.9219v-4.9688h-4.9375v-2.0781h4.9375v-4.9219h2.0938v4.9219h4.9219v2.0781h-4.9219v4.9688z"/>
   </g>
   <g id="use87363" transform="translate(330.34 5942.1)"></g>
   <g id="use87365" transform="translate(337.38 5942.1)">
    <path id="path100735" d="m8.1719 0v-4.3281h-7.8438v-2.0469l8.25-11.734h1.8281v11.734h2.4375v2.0469h-2.4375v4.3281zm0-6.375v-8.1562l-5.6719 8.1562z"/>
   </g>
  </g>
  <g id="g87379" transform="matrix(.35278 0 0 .35278 31.89 -1947)">
   <g id="use87369" transform="translate(129.45 5991.8)">
    <path id="path100739" d="m13.359-10.641h-11.953v-2.0781h11.953zm0 5.4844h-11.953v-2.0625h11.953z"/>
   </g>
   <g id="use87371" transform="translate(144.23 5991.8)"></g>
   <g id="use87373" transform="translate(151.26 5991.8)">
    <path id="path100747" d="m0.79688-5.4375v-2.2344h6.8438v2.2344z"/>
   </g>
   <g id="use87375" transform="translate(159.69 5991.8)">
    <path id="path100751" d="m12.734-2.1406v2.1406h-11.969c-0.023437-0.53125 0.066406-1.0469 0.26562-1.5469 0.30078-0.8125 0.78516-1.6133 1.4531-2.4062 0.67578-0.78906 1.6445-1.7031 2.9062-2.7344 1.9688-1.6133 3.2969-2.8906 3.9844-3.8281 0.69531-0.94531 1.0469-1.8438 1.0469-2.6875 0-0.88281-0.32031-1.6289-0.95312-2.2344-0.625-0.60156-1.4453-0.90625-2.4531-0.90625-1.0742 0-1.9336 0.32422-2.5781 0.96875-0.63672 0.63672-0.96094 1.5273-0.96875 2.6719l-2.2812-0.23438c0.15625-1.707 0.74219-3.0078 1.7656-3.9062 1.0195-0.89453 2.3906-1.3438 4.1094-1.3438 1.7383 0 3.1133 0.48438 4.125 1.4531 1.0078 0.96094 1.5156 2.1523 1.5156 3.5781 0 0.73047-0.14844 1.4453-0.4375 2.1406-0.29297 0.69922-0.78125 1.4375-1.4688 2.2188-0.6875 0.77344-1.8359 1.8281-3.4375 3.1719-1.3359 1.125-2.1953 1.8906-2.5781 2.2969-0.375 0.39844-0.68359 0.79297-0.92188 1.1875z"/>
   </g>
   <g id="use87377" transform="translate(173.76 5991.8)">
    <path id="path100755" d="m0.1875 0 4.7969-6.8125-4.4375-6.3125h2.7812l2.0156 3.0781c0.375 0.58594 0.67578 1.0742 0.90625 1.4688 0.36328-0.53906 0.69531-1.0195 1-1.4375l2.2188-3.1094h2.6562l-4.5469 6.1875 4.8906 6.9375h-2.7344l-2.6875-4.0781-0.71875-1.0938-3.4531 5.1719z"/>
   </g>
  </g>
  <g id="g87383" transform="matrix(.35278 0 0 .35278 31.89 -1947)">
   <g id="use87381" transform="translate(186.4 5983.4)">
    <path id="path100759" d="m7.4219-1.25v1.25h-6.9688c-0.011719-0.3125 0.035156-0.61328 0.14062-0.90625 0.17578-0.46875 0.45703-0.92969 0.84375-1.3906 0.39453-0.46875 0.96094-1.0039 1.7031-1.6094 1.1562-0.9375 1.9297-1.6797 2.3281-2.2344 0.40625-0.55078 0.60938-1.0703 0.60938-1.5625 0-0.50781-0.18359-0.94141-0.54688-1.2969-0.36719-0.35156-0.84375-0.53125-1.4375-0.53125-0.625 0-1.125 0.1875-1.5 0.5625s-0.5625 0.89844-0.5625 1.5625l-1.3438-0.14062c0.09375-0.98828 0.4375-1.7422 1.0312-2.2656 0.59375-0.53125 1.3945-0.79688 2.4062-0.79688 1.0078 0 1.8047 0.28125 2.3906 0.84375 0.59375 0.5625 0.89062 1.2617 0.89062 2.0938 0 0.42969-0.089844 0.84375-0.26562 1.25-0.16797 0.40625-0.45312 0.83984-0.85938 1.2969-0.39844 0.44922-1.0586 1.0625-1.9844 1.8438-0.78125 0.65625-1.2812 1.1055-1.5 1.3438-0.21875 0.23047-0.40234 0.46094-0.54688 0.6875z"/>
   </g>
  </g>
  <g id="g87407" transform="matrix(.35278 0 0 .35278 31.89 -1947)">
   <g id="use87385" transform="translate(194.61 5991.8)"></g>
   <g id="use87387" transform="translate(201.64 5991.8)">
    <path id="path100767" d="m0.79688-5.4375v-2.2344h6.8438v2.2344z"/>
   </g>
   <g id="use87389" transform="translate(210.07 5991.8)"></g>
   <g id="use87391" transform="translate(217.11 5991.8)">
    <path id="path100775" d="m12.734-2.1406v2.1406h-11.969c-0.023437-0.53125 0.066406-1.0469 0.26562-1.5469 0.30078-0.8125 0.78516-1.6133 1.4531-2.4062 0.67578-0.78906 1.6445-1.7031 2.9062-2.7344 1.9688-1.6133 3.2969-2.8906 3.9844-3.8281 0.69531-0.94531 1.0469-1.8438 1.0469-2.6875 0-0.88281-0.32031-1.6289-0.95312-2.2344-0.625-0.60156-1.4453-0.90625-2.4531-0.90625-1.0742 0-1.9336 0.32422-2.5781 0.96875-0.63672 0.63672-0.96094 1.5273-0.96875 2.6719l-2.2812-0.23438c0.15625-1.707 0.74219-3.0078 1.7656-3.9062 1.0195-0.89453 2.3906-1.3438 4.1094-1.3438 1.7383 0 3.1133 0.48438 4.125 1.4531 1.0078 0.96094 1.5156 2.1523 1.5156 3.5781 0 0.73047-0.14844 1.4453-0.4375 2.1406-0.29297 0.69922-0.78125 1.4375-1.4688 2.2188-0.6875 0.77344-1.8359 1.8281-3.4375 3.1719-1.3359 1.125-2.1953 1.8906-2.5781 2.2969-0.375 0.39844-0.68359 0.79297-0.92188 1.1875z"/>
   </g>
   <g id="use87393" transform="translate(231.17 5991.8)">
    <path id="path100779" d="m8.1719 0v-4.3281h-7.8438v-2.0469l8.25-11.734h1.8281v11.734h2.4375v2.0469h-2.4375v4.3281zm0-6.375v-8.1562l-5.6719 8.1562z"/>
   </g>
   <g id="use87395" transform="translate(245.24 5991.8)">
    <path id="path100783" d="m0.1875 0 4.7969-6.8125-4.4375-6.3125h2.7812l2.0156 3.0781c0.375 0.58594 0.67578 1.0742 0.90625 1.4688 0.36328-0.53906 0.69531-1.0195 1-1.4375l2.2188-3.1094h2.6562l-4.5469 6.1875 4.8906 6.9375h-2.7344l-2.6875-4.0781-0.71875-1.0938-3.4531 5.1719z"/>
   </g>
   <g id="use87397" transform="translate(257.9 5991.8)"></g>
   <g id="use87399" transform="translate(264.93 5991.8)">
    <path id="path100791" d="m0.79688-5.4375v-2.2344h6.8438v2.2344z"/>
   </g>
   <g id="use87401" transform="translate(273.36 5991.8)"></g>
   <g id="use87403" transform="translate(280.39 5991.8)">
    <path id="path100799" d="m12.594-13.672-2.2188 0.17188c-0.19922-0.875-0.48047-1.5078-0.84375-1.9062-0.59375-0.63281-1.3359-0.95312-2.2188-0.95312-0.71094 0-1.3281 0.19922-1.8594 0.59375-0.71094 0.51172-1.2656 1.2578-1.6719 2.2344-0.39844 0.98047-0.60547 2.375-0.625 4.1875 0.53906-0.8125 1.1953-1.4141 1.9688-1.8125 0.76953-0.39453 1.582-0.59375 2.4375-0.59375 1.4766 0 2.7383 0.54688 3.7812 1.6406 1.0391 1.0938 1.5625 2.5078 1.5625 4.2344 0 1.1367-0.24609 2.1953-0.73438 3.1719-0.49219 0.96875-1.1641 1.7148-2.0156 2.2344-0.85547 0.51953-1.8281 0.78125-2.9219 0.78125-1.8555 0-3.3672-0.67969-4.5312-2.0469-1.168-1.3633-1.75-3.6094-1.75-6.7344 0-3.5 0.64453-6.0469 1.9375-7.6406 1.125-1.3828 2.6445-2.0781 4.5625-2.0781 1.4141 0 2.5781 0.40234 3.4844 1.2031 0.91406 0.80469 1.4688 1.9062 1.6562 3.3125zm-9.0781 7.7969c0 0.77344 0.16016 1.5078 0.48438 2.2031 0.32031 0.69922 0.77344 1.2344 1.3594 1.6094 0.58203 0.36719 1.1953 0.54688 1.8438 0.54688 0.9375 0 1.7422-0.37891 2.4219-1.1406 0.67578-0.75781 1.0156-1.7891 1.0156-3.0938 0-1.25-0.33594-2.2344-1-2.9531-0.66797-0.71875-1.5117-1.0781-2.5312-1.0781-1 0-1.8516 0.35938-2.5469 1.0781-0.69922 0.71875-1.0469 1.6641-1.0469 2.8281z"/>
   </g>
   <g id="use87405" transform="translate(294.46 5991.8)">
    <path id="path100803" d="m4.4688-9.8125c-0.91797-0.34375-1.6016-0.82812-2.0469-1.4531-0.44922-0.625-0.67188-1.375-0.67188-2.25 0-1.3125 0.47266-2.4141 1.4219-3.3125 0.94531-0.90625 2.207-1.3594 3.7812-1.3594 1.582 0 2.8516 0.46484 3.8125 1.3906 0.96875 0.91797 1.4531 2.0312 1.4531 3.3438 0 0.84375-0.22656 1.5781-0.67188 2.2031-0.4375 0.61719-1.1055 1.0938-2 1.4375 1.1133 0.35547 1.957 0.9375 2.5312 1.75 0.58203 0.80469 0.875 1.7656 0.875 2.8906 0 1.543-0.54688 2.8438-1.6406 3.9062-1.0938 1.0547-2.5391 1.5781-4.3281 1.5781-1.7812 0-3.2188-0.52344-4.3125-1.5781-1.0938-1.0625-1.6406-2.3828-1.6406-3.9688 0-1.1758 0.29688-2.1602 0.89062-2.9531 0.59375-0.80078 1.4414-1.3438 2.5469-1.625zm-0.4375-3.7812c0 0.86719 0.27344 1.5703 0.82812 2.1094 0.55078 0.54297 1.2656 0.8125 2.1406 0.8125 0.85156 0 1.5547-0.26953 2.1094-0.8125 0.55078-0.53906 0.82812-1.2031 0.82812-1.9844 0-0.8125-0.28906-1.4922-0.85938-2.0469-0.5625-0.5625-1.2617-0.84375-2.0938-0.84375-0.85547 0-1.5625 0.27734-2.125 0.82812-0.55469 0.54297-0.82812 1.1875-0.82812 1.9375zm-0.71875 8.375c0 0.625 0.14844 1.2344 0.45312 1.8281 0.30078 0.59375 0.74219 1.0586 1.3281 1.3906 0.59375 0.32422 1.2344 0.48438 1.9219 0.48438 1.0625 0 1.9375-0.33594 2.625-1.0156 0.69531-0.6875 1.0469-1.5625 1.0469-2.625s-0.35938-1.9414-1.0781-2.6406c-0.71094-0.70703-1.6016-1.0625-2.6719-1.0625-1.043 0-1.9062 0.35156-2.5938 1.0469-0.6875 0.6875-1.0312 1.5547-1.0312 2.5938z"/>
   </g>
  </g>
  <g id="g87421" transform="matrix(.35278 0 0 .35278 31.89 -1947)">
   <g id="use87409" transform="translate(129.45 6122.8)">
    <path id="path100807" d="m13.359-10.641h-11.953v-2.0781h11.953zm0 5.4844h-11.953v-2.0625h11.953z"/>
   </g>
   <g id="use87411" transform="translate(144.23 6122.8)"></g>
   <g id="use87413" transform="translate(151.26 6122.8)">
    <path id="path100815" d="m0.79688-5.4375v-2.2344h6.8438v2.2344z"/>
   </g>
   <g id="use87415" transform="translate(159.69 6122.8)">
    <path id="path100819" d="m12.734-2.1406v2.1406h-11.969c-0.023437-0.53125 0.066406-1.0469 0.26562-1.5469 0.30078-0.8125 0.78516-1.6133 1.4531-2.4062 0.67578-0.78906 1.6445-1.7031 2.9062-2.7344 1.9688-1.6133 3.2969-2.8906 3.9844-3.8281 0.69531-0.94531 1.0469-1.8438 1.0469-2.6875 0-0.88281-0.32031-1.6289-0.95312-2.2344-0.625-0.60156-1.4453-0.90625-2.4531-0.90625-1.0742 0-1.9336 0.32422-2.5781 0.96875-0.63672 0.63672-0.96094 1.5273-0.96875 2.6719l-2.2812-0.23438c0.15625-1.707 0.74219-3.0078 1.7656-3.9062 1.0195-0.89453 2.3906-1.3438 4.1094-1.3438 1.7383 0 3.1133 0.48438 4.125 1.4531 1.0078 0.96094 1.5156 2.1523 1.5156 3.5781 0 0.73047-0.14844 1.4453-0.4375 2.1406-0.29297 0.69922-0.78125 1.4375-1.4688 2.2188-0.6875 0.77344-1.8359 1.8281-3.4375 3.1719-1.3359 1.125-2.1953 1.8906-2.5781 2.2969-0.375 0.39844-0.68359 0.79297-0.92188 1.1875z"/>
   </g>
   <g id="use87417" transform="translate(173.76 6122.8)">
    <path id="path100823" d="m5.9219 5.3281c-1.2305-1.5547-2.2734-3.3672-3.125-5.4375-0.84375-2.0703-1.2656-4.2227-1.2656-6.4531 0-1.957 0.31641-3.832 0.95312-5.625 0.73828-2.082 1.8828-4.1602 3.4375-6.2344h1.5938c-1 1.7188-1.6641 2.9453-1.9844 3.6719-0.5 1.1367-0.89844 2.3242-1.1875 3.5625-0.35547 1.543-0.53125 3.0898-0.53125 4.6406 0 3.9609 1.2344 7.9141 3.7031 11.875z"/>
   </g>
   <g id="use87419" transform="translate(182.19 6122.8)">
    <path id="path100827" d="m0.1875 0 4.7969-6.8125-4.4375-6.3125h2.7812l2.0156 3.0781c0.375 0.58594 0.67578 1.0742 0.90625 1.4688 0.36328-0.53906 0.69531-1.0195 1-1.4375l2.2188-3.1094h2.6562l-4.5469 6.1875 4.8906 6.9375h-2.7344l-2.6875-4.0781-0.71875-1.0938-3.4531 5.1719z"/>
   </g>
  </g>
  <g id="g87425" transform="matrix(.35278 0 0 .35278 31.89 -1947)">
   <g id="use87423" transform="translate(194.83 6114.4)">
    <path id="path100831" d="m7.4219-1.25v1.25h-6.9688c-0.011719-0.3125 0.035156-0.61328 0.14062-0.90625 0.17578-0.46875 0.45703-0.92969 0.84375-1.3906 0.39453-0.46875 0.96094-1.0039 1.7031-1.6094 1.1562-0.9375 1.9297-1.6797 2.3281-2.2344 0.40625-0.55078 0.60938-1.0703 0.60938-1.5625 0-0.50781-0.18359-0.94141-0.54688-1.2969-0.36719-0.35156-0.84375-0.53125-1.4375-0.53125-0.625 0-1.125 0.1875-1.5 0.5625s-0.5625 0.89844-0.5625 1.5625l-1.3438-0.14062c0.09375-0.98828 0.4375-1.7422 1.0312-2.2656 0.59375-0.53125 1.3945-0.79688 2.4062-0.79688 1.0078 0 1.8047 0.28125 2.3906 0.84375 0.59375 0.5625 0.89062 1.2617 0.89062 2.0938 0 0.42969-0.089844 0.84375-0.26562 1.25-0.16797 0.40625-0.45312 0.83984-0.85938 1.2969-0.39844 0.44922-1.0586 1.0625-1.9844 1.8438-0.78125 0.65625-1.2812 1.1055-1.5 1.3438-0.21875 0.23047-0.40234 0.46094-0.54688 0.6875z"/>
   </g>
  </g>
  <g id="g87451" transform="matrix(.35278 0 0 .35278 31.89 -1947)">
   <g id="use87427" transform="translate(203.04 6122.8)"></g>
   <g id="use87429" transform="translate(210.07 6122.8)">
    <path id="path100839" d="m6.3438-2.9219v-4.9688h-4.9375v-2.0781h4.9375v-4.9219h2.0938v4.9219h4.9219v2.0781h-4.9219v4.9688z"/>
   </g>
   <g id="use87431" transform="translate(224.85 6122.8)"></g>
   <g id="use87433" transform="translate(231.88 6122.8)">
    <path id="path100847" d="m9.4219 0h-2.2188v-14.172c-0.54297 0.51172-1.2461 1.0234-2.1094 1.5312-0.86719 0.51172-1.6484 0.89844-2.3438 1.1562v-2.1562c1.25-0.58203 2.3359-1.2891 3.2656-2.125 0.92578-0.83203 1.582-1.6406 1.9688-2.4219h1.4375z"/>
   </g>
   <g id="use87435" transform="translate(245.95 6122.8)">
    <path id="path100851" d="m12.734-2.1406v2.1406h-11.969c-0.023437-0.53125 0.066406-1.0469 0.26562-1.5469 0.30078-0.8125 0.78516-1.6133 1.4531-2.4062 0.67578-0.78906 1.6445-1.7031 2.9062-2.7344 1.9688-1.6133 3.2969-2.8906 3.9844-3.8281 0.69531-0.94531 1.0469-1.8438 1.0469-2.6875 0-0.88281-0.32031-1.6289-0.95312-2.2344-0.625-0.60156-1.4453-0.90625-2.4531-0.90625-1.0742 0-1.9336 0.32422-2.5781 0.96875-0.63672 0.63672-0.96094 1.5273-0.96875 2.6719l-2.2812-0.23438c0.15625-1.707 0.74219-3.0078 1.7656-3.9062 1.0195-0.89453 2.3906-1.3438 4.1094-1.3438 1.7383 0 3.1133 0.48438 4.125 1.4531 1.0078 0.96094 1.5156 2.1523 1.5156 3.5781 0 0.73047-0.14844 1.4453-0.4375 2.1406-0.29297 0.69922-0.78125 1.4375-1.4688 2.2188-0.6875 0.77344-1.8359 1.8281-3.4375 3.1719-1.3359 1.125-2.1953 1.8906-2.5781 2.2969-0.375 0.39844-0.68359 0.79297-0.92188 1.1875z"/>
   </g>
   <g id="use87437" transform="translate(260.02 6122.8)">
    <path id="path100855" d="m0.1875 0 4.7969-6.8125-4.4375-6.3125h2.7812l2.0156 3.0781c0.375 0.58594 0.67578 1.0742 0.90625 1.4688 0.36328-0.53906 0.69531-1.0195 1-1.4375l2.2188-3.1094h2.6562l-4.5469 6.1875 4.8906 6.9375h-2.7344l-2.6875-4.0781-0.71875-1.0938-3.4531 5.1719z"/>
   </g>
   <g id="use87439" transform="translate(272.67 6122.8)"></g>
   <g id="use87441" transform="translate(279.71 6122.8)">
    <path id="path100863" d="m6.3438-2.9219v-4.9688h-4.9375v-2.0781h4.9375v-4.9219h2.0938v4.9219h4.9219v2.0781h-4.9219v4.9688z"/>
   </g>
   <g id="use87443" transform="translate(294.49 6122.8)"></g>
   <g id="use87445" transform="translate(301.52 6122.8)">
    <path id="path100871" d="m1.0625-4.7812 2.2188-0.29688c0.25781 1.2617 0.69531 2.1719 1.3125 2.7344 0.61328 0.55469 1.3594 0.82812 2.2344 0.82812 1.0508 0 1.9375-0.35938 2.6562-1.0781 0.71875-0.72656 1.0781-1.6289 1.0781-2.7031 0-1.0195-0.33594-1.8594-1-2.5156-0.66797-0.66406-1.5156-1-2.5469-1-0.41797 0-0.9375 0.078125-1.5625 0.23438l0.23438-1.9531c0.15625 0.02344 0.27344 0.03125 0.35938 0.03125 0.94531 0 1.8008-0.24219 2.5625-0.73438 0.75781-0.5 1.1406-1.2656 1.1406-2.2969 0-0.8125-0.27734-1.4844-0.82812-2.0156-0.55469-0.53906-1.2656-0.8125-2.1406-0.8125-0.86719 0-1.5898 0.27734-2.1719 0.82812-0.57422 0.54297-0.9375 1.3555-1.0938 2.4375l-2.2344-0.39062c0.26953-1.4883 0.88281-2.6445 1.8438-3.4688 0.96875-0.82031 2.1719-1.2344 3.6094-1.2344 0.98828 0 1.8945 0.21484 2.7188 0.64062 0.83203 0.42969 1.4688 1.0078 1.9062 1.7344 0.44531 0.73047 0.67188 1.5117 0.67188 2.3438 0 0.78125-0.21484 1.4961-0.64062 2.1406-0.41797 0.63672-1.0391 1.1406-1.8594 1.5156 1.0703 0.25 1.9062 0.76562 2.5 1.5469 0.59375 0.77344 0.89062 1.7461 0.89062 2.9219 0 1.5742-0.57812 2.9141-1.7344 4.0156-1.1484 1.1055-2.6055 1.6562-4.375 1.6562-1.5859 0-2.9023-0.47266-3.9531-1.4219-1.0547-0.94531-1.6523-2.1758-1.7969-3.6875z"/>
   </g>
   <g id="use87447" transform="translate(315.59 6122.8)">
    <path id="path100875" d="m8.1719 0v-4.3281h-7.8438v-2.0469l8.25-11.734h1.8281v11.734h2.4375v2.0469h-2.4375v4.3281zm0-6.375v-8.1562l-5.6719 8.1562z"/>
   </g>
   <g id="use87449" transform="translate(329.66 6122.8)">
    <path id="path100879" d="m3.125 5.3281h-1.5938c2.457-3.9609 3.6875-7.9141 3.6875-11.875 0-1.5508-0.17969-3.0859-0.53125-4.6094-0.27344-1.2266-0.66406-2.4141-1.1719-3.5625-0.32422-0.73828-0.98438-1.9727-1.9844-3.7031h1.5938c1.5508 2.0742 2.6953 4.1523 3.4375 6.2344 0.63281 1.793 0.95312 3.668 0.95312 5.625 0 2.2305-0.42969 4.3828-1.2812 6.4531-0.85547 2.0703-1.8906 3.8828-3.1094 5.4375z"/>
   </g>
  </g>
  <g id="g87467" transform="matrix(.35278 0 0 .35278 31.89 -1947)">
   <g id="use87453" transform="translate(85.043 6061.9)">
    <path id="path100883" d="m10.422-7.1094v-2.125h7.6719v6.7188c-1.1797 0.9375-2.3906 1.6484-3.6406 2.125-1.25 0.46875-2.5391 0.70312-3.8594 0.70312-1.7734 0-3.3867-0.37891-4.8438-1.1406-1.4609-0.75781-2.5586-1.8594-3.2969-3.2969-0.74219-1.4453-1.1094-3.0625-1.1094-4.8438 0-1.7578 0.36719-3.3984 1.1094-4.9219 0.73828-1.5312 1.7969-2.6641 3.1719-3.4062 1.3828-0.75 2.9766-1.125 4.7812-1.125 1.3125 0 2.4922 0.21484 3.5469 0.64062 1.0625 0.42969 1.8945 1.0234 2.5 1.7812 0.60156 0.75 1.0625 1.7344 1.375 2.9531l-2.1719 0.59375c-0.27344-0.91406-0.60938-1.6406-1.0156-2.1719-0.39844-0.53125-0.96875-0.95312-1.7188-1.2656s-1.5859-0.46875-2.5-0.46875c-1.0938 0-2.043 0.16797-2.8438 0.5-0.79297 0.33594-1.4336 0.77344-1.9219 1.3125-0.49219 0.54297-0.87109 1.1367-1.1406 1.7812-0.46875 1.125-0.70312 2.3438-0.70312 3.6562 0 1.6172 0.27344 2.9648 0.82812 4.0469 0.5625 1.0859 1.375 1.8906 2.4375 2.4219 1.0625 0.52344 2.1914 0.78125 3.3906 0.78125 1.0312 0 2.0391-0.19531 3.0312-0.59375 0.98828-0.39453 1.7383-0.82031 2.25-1.2812v-3.375z"/>
   </g>
   <g id="use87455" transform="translate(104.73 6061.9)">
    <path id="path100887" d="m14.875-6.3438 2.3906 0.59375c-0.5 1.9688-1.4062 3.4766-2.7188 4.5156-1.3047 1.0312-2.8984 1.5469-4.7812 1.5469-1.9492 0-3.5391-0.39453-4.7656-1.1875-1.2188-0.80078-2.1484-1.9531-2.7812-3.4531-0.63672-1.5078-0.95312-3.1289-0.95312-4.8594 0-1.8828 0.35938-3.5312 1.0781-4.9375s1.7383-2.4727 3.0625-3.2031c1.332-0.72656 2.8008-1.0938 4.4062-1.0938 1.8125 0 3.332 0.46484 4.5625 1.3906 1.2383 0.91797 2.0977 2.2148 2.5781 3.8906l-2.3594 0.54688c-0.41797-1.3125-1.0273-2.2656-1.8281-2.8594-0.79297-0.60156-1.793-0.90625-3-0.90625-1.3984 0-2.5625 0.33594-3.5 1-0.9375 0.66797-1.5938 1.5625-1.9688 2.6875-0.375 1.1172-0.5625 2.2734-0.5625 3.4688 0 1.543 0.22266 2.8867 0.67188 4.0312 0.44531 1.1484 1.1445 2.0078 2.0938 2.5781 0.94531 0.57422 1.9727 0.85938 3.0781 0.85938 1.3438 0 2.4766-0.38281 3.4062-1.1562 0.92578-0.78125 1.5547-1.9297 1.8906-3.4531z"/>
   </g>
   <g id="use87457" transform="translate(123 6061.9)">
    <path id="path100891" d="m2.0781 0v-18.109h12.219v2.1406h-9.8281v5.6094h8.5v2.1406h-8.5v8.2188z"/>
   </g>
   <g id="use87459" transform="translate(138.46 6061.9)">
    <path id="path100895" d="m2.2812-10.578v-2.5469h2.5312v2.5469zm0 10.578v-2.5312h2.5312v2.5312z"/>
   </g>
   <g id="use87461" transform="translate(145.49 6061.9)"></g>
   <g id="use87463" transform="translate(152.53 6061.9)">
    <path id="path100903" d="m0.79688-5.4375v-2.2344h6.8438v2.2344z"/>
   </g>
   <g id="use87465" transform="translate(160.96 6061.9)">
    <path id="path100907" d="m12.734-2.1406v2.1406h-11.969c-0.023437-0.53125 0.066406-1.0469 0.26562-1.5469 0.30078-0.8125 0.78516-1.6133 1.4531-2.4062 0.67578-0.78906 1.6445-1.7031 2.9062-2.7344 1.9688-1.6133 3.2969-2.8906 3.9844-3.8281 0.69531-0.94531 1.0469-1.8438 1.0469-2.6875 0-0.88281-0.32031-1.6289-0.95312-2.2344-0.625-0.60156-1.4453-0.90625-2.4531-0.90625-1.0742 0-1.9336 0.32422-2.5781 0.96875-0.63672 0.63672-0.96094 1.5273-0.96875 2.6719l-2.2812-0.23438c0.15625-1.707 0.74219-3.0078 1.7656-3.9062 1.0195-0.89453 2.3906-1.3438 4.1094-1.3438 1.7383 0 3.1133 0.48438 4.125 1.4531 1.0078 0.96094 1.5156 2.1523 1.5156 3.5781 0 0.73047-0.14844 1.4453-0.4375 2.1406-0.29297 0.69922-0.78125 1.4375-1.4688 2.2188-0.6875 0.77344-1.8359 1.8281-3.4375 3.1719-1.3359 1.125-2.1953 1.8906-2.5781 2.2969-0.375 0.39844-0.68359 0.79297-0.92188 1.1875z"/>
   </g>
  </g>
 </g>
</svg>
