<svg id="svg32732" version="1.1" viewBox="0 0 216.42 67.04" xmlns="http://www.w3.org/2000/svg">
 <title id="title32956">img_29</title>
 <g id="layer1" transform="translate(-3.6725 -119.18)">
  <path id="path27628" d="m117.24 131.06s2.373 1.4456 5.136-1.3188c2.1497-2.1498 0.36931-4.4814 0.36931-4.4814" style="fill:none;stroke-miterlimit:10;stroke-width:1.1067;stroke:#e10511"/>
  <path id="path27630" d="m132 171.86s3.8888-0.23016 6.9591 2.8401c3.0703 3.0716 3.0703 5.5287 3.0703 5.5287" style="fill:none;stroke-miterlimit:10;stroke-width:1.1067;stroke:#e10511"/>
  <path id="path27632" d="m207.68 173.74s-1.6936 0.73589-2.3992 2.3013c-1.0322 2.2916 0.49885 4.1864 0.49885 4.1864" style="fill:none;stroke-miterlimit:10;stroke-width:1.1067;stroke:#e10511"/>
  <path id="path27634" d="m113.16 119.8 21.864 60.437h84.023z" style="fill:none;stroke-miterlimit:10;stroke-width:.55351;stroke:#173a6e"/>
  <g id="use27636" transform="matrix(.35278 0 0 .35278 123.91 139.77)" style="fill:#1c1c19">
   <path id="path32621" d="m7.7344 0v-3.4219h1.75v-1.3281h-1.75v-7.8125h-1.8438l-5.5938 8.0156v1.125h5.8281v3.4219zm-5.7188-4.75v-0.046875l3.0625-4.2656c0.35938-0.57812 0.65625-1.125 1.0469-1.8594h0.0625c-0.046875 0.65625-0.0625 1.3125-0.0625 1.9688v4.2031z"/>
  </g>
  <g id="use27638" transform="matrix(.35278 0 0 .35278 127.44 139.77)" style="fill:#1c1c19">
   <path id="path32625" d="m5.0625-12.781c-2.5469 0-4.3594 2.3281-4.3594 6.5312 0.03125 4.1562 1.6875 6.4688 4.1406 6.4688 2.7969 0 4.375-2.3594 4.375-6.6406 0-4-1.5-6.3594-4.1562-6.3594zm-0.09375 1.3125c1.75 0 2.5469 2.0312 2.5469 5.125 0 3.2188-0.82812 5.2344-2.5625 5.2344-1.5469 0-2.5625-1.8438-2.5625-5.1094 0-3.4219 1.0938-5.25 2.5781-5.25z"/>
  </g>
  <g id="use27642" transform="matrix(.35278 0 0 .35278 130.98 139.77)" style="fill:#1c1c19">
   <path id="path32629" d="m3.125-13.234c-1.4219 0-2.5781 1.1094-2.5625 2.6094 0 1.3438 1.0156 2.4844 2.5312 2.4844 1.3281 0 2.5938-1.0156 2.5938-2.5938 0-1.3125-0.96875-2.5-2.5625-2.5zm-0.015625 0.90625c1.1094 0 1.5312 0.90625 1.5312 1.625 0 0.9375-0.65625 1.6562-1.5312 1.6562-0.84375 0-1.5-0.6875-1.5-1.5781 0-0.84375 0.5-1.7031 1.5-1.7031z"/>
  </g>
  <g id="use27646" transform="matrix(.35278 0 0 .35278 141.48 173.39)" style="fill:#1c1c19">
   <path id="path32633" d="m4.5625 0h1.6406v-12.562h-1.4531l-2.7344 1.4688 0.32812 1.2969 2.1719-1.1875h0.046875z"/>
  </g>
  <g id="use27648" transform="matrix(.35278 0 0 .35278 145.01 173.39)" style="fill:#1c1c19">
   <path id="path32637" d="m4.5625 0h1.6406v-12.562h-1.4531l-2.7344 1.4688 0.32812 1.2969 2.1719-1.1875h0.046875z"/>
  </g>
  <g id="use27650" transform="matrix(.35278 0 0 .35278 148.54 173.39)" style="fill:#1c1c19">
   <path id="path32641" d="m5.0625-12.781c-2.5469 0-4.3594 2.3281-4.3594 6.5312 0.03125 4.1562 1.6875 6.4688 4.1406 6.4688 2.7969 0 4.375-2.3594 4.375-6.6406 0-4-1.5-6.3594-4.1562-6.3594zm-0.09375 1.3125c1.75 0 2.5469 2.0312 2.5469 5.125 0 3.2188-0.82812 5.2344-2.5625 5.2344-1.5469 0-2.5625-1.8438-2.5625-5.1094 0-3.4219 1.0938-5.25 2.5781-5.25z"/>
  </g>
  <g id="use27654" transform="matrix(.35278 0 0 .35278 152.07 173.39)" style="fill:#1c1c19">
   <path id="path32645" d="m3.125-13.234c-1.4219 0-2.5781 1.1094-2.5625 2.6094 0 1.3438 1.0156 2.4844 2.5312 2.4844 1.3281 0 2.5938-1.0156 2.5938-2.5938 0-1.3125-0.96875-2.5-2.5625-2.5zm-0.015625 0.90625c1.1094 0 1.5312 0.90625 1.5312 1.625 0 0.9375-0.65625 1.6562-1.5312 1.6562-0.84375 0-1.5-0.6875-1.5-1.5781 0-0.84375 0.5-1.7031 1.5-1.7031z"/>
  </g>
  <g id="use27658" transform="matrix(.35278 0 0 .35278 188.28 177.42)" style="fill:#1c1c19">
   <path id="path32649" d="m0.8125-0.64062c0.625 0.40625 1.8594 0.85938 3.2656 0.85938 3.0156 0 4.5781-1.7656 4.5781-3.7812 0-1.75-1.25-2.9062-2.7969-3.2188v-0.046875c1.5469-0.5625 2.3125-1.6562 2.3125-2.9531 0-1.5312-1.1094-3-3.5938-3-1.3438 0-2.625 0.48438-3.2812 0.96875l0.4375 1.2344c0.54688-0.375 1.5156-0.82812 2.5156-0.82812 1.5625 0 2.2031 0.89062 2.2031 1.8906 0 1.5-1.5625 2.125-2.7969 2.125h-0.95312v1.2812h0.95312c1.6406 0 3.2188 0.75 3.25 2.5156 0.015625 1.0469-0.65625 2.4375-2.8438 2.4375-1.1875 0-2.2969-0.48438-2.7812-0.79688z"/>
  </g>
  <g id="use27660" transform="matrix(.35278 0 0 .35278 191.81 177.42)" style="fill:#1c1c19">
   <path id="path32653" d="m5.0625-12.781c-2.5469 0-4.3594 2.3281-4.3594 6.5312 0.03125 4.1562 1.6875 6.4688 4.1406 6.4688 2.7969 0 4.375-2.3594 4.375-6.6406 0-4-1.5-6.3594-4.1562-6.3594zm-0.09375 1.3125c1.75 0 2.5469 2.0312 2.5469 5.125 0 3.2188-0.82812 5.2344-2.5625 5.2344-1.5469 0-2.5625-1.8438-2.5625-5.1094 0-3.4219 1.0938-5.25 2.5781-5.25z"/>
  </g>
  <g id="use27664" transform="matrix(.35278 0 0 .35278 195.34 177.42)" style="fill:#1c1c19">
   <path id="path32657" d="m3.125-13.234c-1.4219 0-2.5781 1.1094-2.5625 2.6094 0 1.3438 1.0156 2.4844 2.5312 2.4844 1.3281 0 2.5938-1.0156 2.5938-2.5938 0-1.3125-0.96875-2.5-2.5625-2.5zm-0.015625 0.90625c1.1094 0 1.5312 0.90625 1.5312 1.625 0 0.9375-0.65625 1.6562-1.5312 1.6562-0.84375 0-1.5-0.6875-1.5-1.5781 0-0.84375 0.5-1.7031 1.5-1.7031z"/>
  </g>
  <path id="path27668" d="m70.346 121.62 26.861 55.524h-92.776z" style="fill:none;stroke-miterlimit:10;stroke-width:.55351;stroke:#173a6e"/>
  <g id="use27670" transform="matrix(.35278 0 0 .35278 86.094 147.29)" style="fill:#1c1c19">
   <path id="path32661" d="m1.8594 0.1875c0.40625 0.03125 0.9375 0 1.5625-0.09375 1.3594-0.15625 2.6875-0.73438 3.6562-1.6719 1.2344-1.2031 2.1562-3.1406 2.1562-5.9062 0-3.2031-1.5781-5.2969-4.1562-5.2969-2.5625 0-4.2812 2.0938-4.2812 4.4688 0 2.1406 1.4375 3.8438 3.7031 3.8438 1.2656 0 2.2656-0.5 2.9531-1.3438h0.0625c-0.23438 1.4844-0.82812 2.5781-1.6562 3.3438-0.71875 0.67188-1.6406 1.0781-2.625 1.2188-0.59375 0.046875-1.0156 0.09375-1.375 0.046875zm3.0938-11.672c1.7656 0 2.5625 1.6406 2.5625 3.7969 0 0.26562-0.0625 0.45312-0.15625 0.60938-0.4375 0.76562-1.3281 1.3125-2.4688 1.3125-1.4688 0-2.4219-1.0938-2.4219-2.6562 0-1.7812 1.0312-3.0625 2.4844-3.0625z"/>
  </g>
  <g id="use27674" transform="matrix(.35278 0 0 .35278 48.699 186.22)" style="fill:#1c1c19">
   <path id="path32665" d="m4.5625 0h1.6406v-12.562h-1.4531l-2.7344 1.4688 0.32812 1.2969 2.1719-1.1875h0.046875z"/>
  </g>
  <g id="use27676" transform="matrix(.35278 0 0 .35278 52.231 186.22)" style="fill:#1c1c19">
   <path id="path32669" d="m7.7344 0v-3.4219h1.75v-1.3281h-1.75v-7.8125h-1.8438l-5.5938 8.0156v1.125h5.8281v3.4219zm-5.7188-4.75v-0.046875l3.0625-4.2656c0.35938-0.57812 0.65625-1.125 1.0469-1.8594h0.0625c-0.046875 0.65625-0.0625 1.3125-0.0625 1.9688v4.2031z"/>
  </g>
  <g id="use27680" transform="matrix(.35278 0 0 .35278 30.505 144.33)" style="fill:#1c1c19">
   <path id="path32673" d="m4.5625 0h1.6406v-12.562h-1.4531l-2.7344 1.4688 0.32812 1.2969 2.1719-1.1875h0.046875z"/>
  </g>
  <g id="use27682" transform="matrix(.35278 0 0 .35278 34.038 144.33)" style="fill:#1c1c19">
   <path id="path32677" d="m0.8125-0.64062c0.625 0.40625 1.8594 0.85938 3.2656 0.85938 3.0156 0 4.5781-1.7656 4.5781-3.7812 0-1.75-1.25-2.9062-2.7969-3.2188v-0.046875c1.5469-0.5625 2.3125-1.6562 2.3125-2.9531 0-1.5312-1.1094-3-3.5938-3-1.3438 0-2.625 0.48438-3.2812 0.96875l0.4375 1.2344c0.54688-0.375 1.5156-0.82812 2.5156-0.82812 1.5625 0 2.2031 0.89062 2.2031 1.8906 0 1.5-1.5625 2.125-2.7969 2.125h-0.95312v1.2812h0.95312c1.6406 0 3.2188 0.75 3.25 2.5156 0.015625 1.0469-0.65625 2.4375-2.8438 2.4375-1.1875 0-2.2969-0.48438-2.7812-0.79688z"/>
  </g>
 </g>
</svg>
