<svg xmlns="http://www.w3.org/2000/svg" xmlns:xlink="http://www.w3.org/1999/xlink" viewBox="0 0 81.92 33.66"><defs><clipPath id="clip-path" transform="translate(-415.25 -3044.71)"><rect width="930" height="4943.41" style="fill:none"/></clipPath></defs><title>img_8</title><g id="Layer_2" data-name="Layer 2"><g id="Layer_1-2" data-name="Layer 1"><g id="Formula_3"><g style="clip-path:url(#clip-path)"><path d="M417.54,3067.15l-2.29-11.46h1.65l1.41,8.32c.12.67.2,1.3.25,1.88.3-.63.62-1.25,1-1.88l4.65-8.32h1.55l-6.63,11.46Z" transform="translate(-415.25 -3044.71)"/><path d="M429,3058.83h9.33v1.33H429Zm9.33,4.65H429v-1.32h9.33Z" transform="translate(-415.25 -3044.71)"/><line x1="29.79" y1="17.45" x2="41.79" y2="17.45" style="fill:none;stroke:#000;stroke-linecap:square;stroke-miterlimit:10"/></g><path d="M451.22,3056.16v-2.74h-5v-1.29l5.22-7.42h1.15v7.42h1.55v1.29h-1.55v2.74Zm0-4V3047l-3.59,5.17Z" transform="translate(-415.25 -3044.71)"/><path d="M446.72,3075.13l1.4-.18a3.09,3.09,0,0,0,.83,1.72,2,2,0,0,0,1.41.53,2.34,2.34,0,0,0,2.36-2.39,2.16,2.16,0,0,0-.63-1.6,2.19,2.19,0,0,0-1.61-.63,3.79,3.79,0,0,0-1,.16l.16-1.24.22,0a2.93,2.93,0,0,0,1.62-.47,1.61,1.61,0,0,0,.72-1.45,1.72,1.72,0,0,0-.53-1.28,1.86,1.86,0,0,0-1.35-.51,1.92,1.92,0,0,0-1.36.52,2.59,2.59,0,0,0-.71,1.55l-1.4-.25a3.55,3.55,0,0,1,1.17-2.19,3.38,3.38,0,0,1,2.27-.78,3.73,3.73,0,0,1,1.73.4,2.85,2.85,0,0,1,1.2,1.1,2.78,2.78,0,0,1,.42,1.47,2.41,2.41,0,0,1-.4,1.36,2.68,2.68,0,0,1-1.18,1,2.62,2.62,0,0,1,1.58,1,2.94,2.94,0,0,1,.57,1.85,3.38,3.38,0,0,1-1.1,2.54,3.86,3.86,0,0,1-2.76,1,3.61,3.61,0,0,1-2.51-.9A3.46,3.46,0,0,1,446.72,3075.13Z" transform="translate(-415.25 -3044.71)"/><g style="clip-path:url(#clip-path)"><path d="M468.67,3063.83l.8-4.35h2l.25-1.33h-8c-1.1,0-1.78.67-2,2h1c.09-.44.57-.67,1.46-.67-.29,1.57-.55,3-.8,4.35a7.31,7.31,0,0,1-1.28,3.32h1.33a6.46,6.46,0,0,0,.43-.5,8,8,0,0,0,.85-2.82l.81-4.35h2.66l-.8,4.35c-.42,2.22,0,3.32,1.37,3.32.67,0,1.2-.44,1.58-1.32-1.46.66-2,0-1.62-2" transform="translate(-415.25 -3044.71)"/><path d="M476.17,3053.53h1.12a11.82,11.82,0,0,0,0,16h-1.12a11.79,11.79,0,0,1,0-16" transform="translate(-415.25 -3044.71)"/></g><path d="M477.71,3064.15l1.47-.12a2.64,2.64,0,0,0,.77,1.62,2.06,2.06,0,0,0,1.44.54,2.26,2.26,0,0,0,1.72-.76,2.88,2.88,0,0,0,.7-2,2.6,2.6,0,0,0-.68-1.9,2.34,2.34,0,0,0-1.77-.7,2.48,2.48,0,0,0-1.22.31,2.37,2.37,0,0,0-.86.8l-1.32-.17,1.11-5.88h5.69v1.34h-4.57l-.61,3.08a3.68,3.68,0,0,1,2.16-.72,3.44,3.44,0,0,1,2.53,1,3.61,3.61,0,0,1,1,2.67,4.2,4.2,0,0,1-.9,2.69,3.63,3.63,0,0,1-3,1.39,3.68,3.68,0,0,1-2.55-.88A3.37,3.37,0,0,1,477.71,3064.15Z" transform="translate(-415.25 -3044.71)"/><g style="clip-path:url(#clip-path)"><path d="M487.17,3053.53H486a11.79,11.79,0,0,1,0,16h1.13a11.82,11.82,0,0,0,0-16" transform="translate(-415.25 -3044.71)"/></g><path d="M491.55,3057.89l1.05-.14a2.3,2.3,0,0,0,.62,1.29,1.51,1.51,0,0,0,1.06.4,1.68,1.68,0,0,0,1.26-.52,1.74,1.74,0,0,0,.51-1.28,1.58,1.58,0,0,0-.47-1.19,1.64,1.64,0,0,0-1.21-.48,2.88,2.88,0,0,0-.74.12l.12-.92h.17a2.22,2.22,0,0,0,1.21-.35,1.22,1.22,0,0,0,.54-1.09,1.28,1.28,0,0,0-.4-1,1.53,1.53,0,0,0-2,0,1.88,1.88,0,0,0-.53,1.16l-1.06-.19a2.71,2.71,0,0,1,.88-1.64,2.56,2.56,0,0,1,1.71-.59,2.79,2.79,0,0,1,1.29.3,2.23,2.23,0,0,1,.91.83,2.12,2.12,0,0,1,.31,1.11,1.81,1.81,0,0,1-.3,1,2.08,2.08,0,0,1-.88.73,1.94,1.94,0,0,1,1.18.73,2.2,2.2,0,0,1,.42,1.38,2.53,2.53,0,0,1-.82,1.91,2.88,2.88,0,0,1-2.07.78,2.69,2.69,0,0,1-1.88-.67A2.59,2.59,0,0,1,491.55,3057.89Z" transform="translate(-415.25 -3044.71)"/></g></g></g></svg>