<svg id="svg99623" version="1.1" viewBox="0 0 96.93 91.477" xmlns="http://www.w3.org/2000/svg">
 <title id="title102525">img_53</title>
 <defs id="defs99617">
  <clipPath id="clipPath71030">
   <path id="path71028" d="M 0,6239.3 H 1117.24 V 0 H 0 Z"/>
  </clipPath>
  <clipPath id="clipPath71038">
   <path id="path71036" d="m250.92 2899h218.95v-218.94h-218.95z"/>
  </clipPath>
 </defs>
 <g id="layer1" transform="translate(-45.08 -5.3)">
  <g id="g71026" transform="matrix(.35278 0 0 -.35278 -36.844 1035.7)" clip-path="url(#clipPath71030)">
   <g id="g71116">
    <g id="g71114" clip-path="url(#clipPath71038)" opacity=".39999">
     <path id="path71040" d="m251.04 2898.9h218.7v-218.7h-218.7z" style="fill:none;stroke-miterlimit:10;stroke-width:.25;stroke:#1d1d1b"/>
     <g id="g71044" transform="translate(251.04 2702.1)">
      <path id="path71042" d="m0 0h218.7" style="fill:none;stroke-miterlimit:10;stroke-width:.25;stroke:#1d1d1b"/>
     </g>
     <g id="g71048" transform="translate(251.04 2724)">
      <path id="path71046" d="m0 0h218.7" style="fill:none;stroke-miterlimit:10;stroke-width:.25;stroke:#1d1d1b"/>
     </g>
     <g id="g71052" transform="translate(251.04 2745.8)">
      <path id="path71050" d="m0 0h218.7" style="fill:none;stroke-miterlimit:10;stroke-width:.25;stroke:#1d1d1b"/>
     </g>
     <g id="g71056" transform="translate(251.04 2767.7)">
      <path id="path71054" d="m0 0h218.7" style="fill:none;stroke-miterlimit:10;stroke-width:.25;stroke:#1d1d1b"/>
     </g>
     <g id="g71060" transform="translate(251.04 2789.6)">
      <path id="path71058" d="m0 0h218.7" style="fill:none;stroke-miterlimit:10;stroke-width:.25;stroke:#1d1d1b"/>
     </g>
     <g id="g71064" transform="translate(251.04 2811.4)">
      <path id="path71062" d="m0 0h218.7" style="fill:none;stroke-miterlimit:10;stroke-width:.25;stroke:#1d1d1b"/>
     </g>
     <g id="g71068" transform="translate(251.04 2833.3)">
      <path id="path71066" d="m0 0h218.7" style="fill:none;stroke-miterlimit:10;stroke-width:.25;stroke:#1d1d1b"/>
     </g>
     <g id="g71072" transform="translate(251.04 2855.2)">
      <path id="path71070" d="m0 0h218.7" style="fill:none;stroke-miterlimit:10;stroke-width:.25;stroke:#1d1d1b"/>
     </g>
     <g id="g71076" transform="translate(251.04 2877)">
      <path id="path71074" d="m0 0h218.7" style="fill:none;stroke-miterlimit:10;stroke-width:.25;stroke:#1d1d1b"/>
     </g>
     <g id="g71080" transform="translate(447.87 2898.9)">
      <path id="path71078" d="m0 0v-218.7" style="fill:none;stroke-miterlimit:10;stroke-width:.25;stroke:#1d1d1b"/>
     </g>
     <g id="g71084" transform="translate(426 2898.9)">
      <path id="path71082" d="m0 0v-218.7" style="fill:none;stroke-miterlimit:10;stroke-width:.25;stroke:#1d1d1b"/>
     </g>
     <g id="g71088" transform="translate(404.13 2898.9)">
      <path id="path71086" d="m0 0v-218.7" style="fill:none;stroke-miterlimit:10;stroke-width:.25;stroke:#1d1d1b"/>
     </g>
     <g id="g71092" transform="translate(382.26 2898.9)">
      <path id="path71090" d="m0 0v-218.7" style="fill:none;stroke-miterlimit:10;stroke-width:.25;stroke:#1d1d1b"/>
     </g>
     <g id="g71096" transform="translate(360.39 2898.9)">
      <path id="path71094" d="m0 0v-218.7" style="fill:none;stroke-miterlimit:10;stroke-width:.25;stroke:#1d1d1b"/>
     </g>
     <g id="g71100" transform="translate(338.52 2898.9)">
      <path id="path71098" d="m0 0v-218.7" style="fill:none;stroke-miterlimit:10;stroke-width:.25;stroke:#1d1d1b"/>
     </g>
     <g id="g71104" transform="translate(316.65 2898.9)">
      <path id="path71102" d="m0 0v-218.7" style="fill:none;stroke-miterlimit:10;stroke-width:.25;stroke:#1d1d1b"/>
     </g>
     <g id="g71108" transform="translate(294.78 2898.9)">
      <path id="path71106" d="m0 0v-218.7" style="fill:none;stroke-miterlimit:10;stroke-width:.25;stroke:#1d1d1b"/>
     </g>
     <g id="g71112" transform="translate(272.92 2898.9)">
      <path id="path71110" d="m0 0v-218.7" style="fill:none;stroke-miterlimit:10;stroke-width:.25;stroke:#1d1d1b"/>
     </g>
    </g>
   </g>
   <g id="use87759" transform="matrix(1 0 0 -1 291.06 2833.3)">
    <path id="path100177" d="m0.8125-2.625c0-0.39453 0.0625-0.80469 0.1875-1.2344 0.14453-0.59375 0.375-1.1016 0.6875-1.5312 0.32031-0.4375 0.72266-0.78125 1.2031-1.0312 0.48828-0.25 1.0391-0.375 1.6562-0.375 0.83203 0 1.5 0.26172 2 0.78125 0.50781 0.51172 0.76562 1.1875 0.76562 2.0312 0 0.71094-0.16797 1.3906-0.5 2.0469-0.32422 0.65625-0.77344 1.168-1.3438 1.5312-0.5625 0.35547-1.2031 0.53125-1.9219 0.53125-0.625 0-1.1523-0.14062-1.5781-0.42188-0.41797-0.28906-0.71484-0.64453-0.89062-1.0625-0.17969-0.41406-0.26562-0.83594-0.26562-1.2656zm1.3594-0.015625c0 0.46094 0.14062 0.84375 0.42188 1.1562 0.28125 0.30469 0.64453 0.45312 1.0938 0.45312 0.375 0 0.73438-0.11719 1.0781-0.35938 0.34375-0.25 0.625-0.61719 0.84375-1.1094 0.21875-0.5 0.32812-0.98438 0.32812-1.4531 0-0.53125-0.14062-0.94141-0.42188-1.2344-0.28125-0.30078-0.64062-0.45312-1.0781-0.45312-0.66797 0-1.2148 0.3125-1.6406 0.9375-0.41797 0.625-0.625 1.3125-0.625 2.0625z"/>
   </g>
   <g id="use87761" transform="matrix(1 0 0 -1 298.36 2833.3)">
    <path id="path100181" d="m1.3125-4.8438h1.2188l-0.1875 0.9375c0.44531-0.69531 0.9375-1.0469 1.4688-1.0469 0.1875 0 0.39062 0.046875 0.60938 0.14062l-0.5 1.0781c-0.11719-0.039063-0.24219-0.0625-0.375-0.0625-0.23047 0-0.46094 0.085937-0.6875 0.25-0.23047 0.16797-0.41406 0.39844-0.54688 0.6875-0.125 0.28125-0.25781 0.73047-0.39062 1.3438l-0.3125 1.5156h-1.3125z"/>
   </g>
   <g id="use87763" transform="matrix(1 0 0 -1 302.04 2833.3)">
    <path id="path100185" d="m1.7656-6.6719h1.3125l-0.25 1.1719h-1.3125zm-0.375 1.8281h1.2969l-1 4.8438h-1.3125z"/>
   </g>
   <g id="use87765" transform="matrix(1 0 0 -1 304.68 2833.3)">
    <path id="path100189" d="m0.3125 0.25 1.375 0.20312c0 0.14453 0.019531 0.25 0.0625 0.3125 0.050781 0.070313 0.125 0.13281 0.21875 0.1875 0.10156 0.050781 0.24219 0.078125 0.42188 0.078125 0.28125 0 0.50391-0.058594 0.67188-0.17188 0.125-0.085937 0.22266-0.21875 0.29688-0.40625 0.050781-0.11719 0.11328-0.37109 0.1875-0.76562l0.046875-0.23438c-0.44922 0.375-0.91797 0.5625-1.4062 0.5625-0.46875 0-0.85938-0.16406-1.1719-0.5-0.30469-0.33203-0.45312-0.82031-0.45312-1.4688 0-0.5625 0.10156-1.0781 0.3125-1.5469 0.20703-0.47656 0.5-0.83594 0.875-1.0781 0.375-0.25 0.75391-0.375 1.1406-0.375 0.32031 0 0.61328 0.089844 0.875 0.26562 0.26953 0.16797 0.48438 0.40234 0.64062 0.70312l0.17188-0.85938h1.2344l-0.84375 4.0312c-0.13672 0.64844-0.25 1.1094-0.34375 1.3906s-0.20312 0.5-0.32812 0.65625c-0.11719 0.16406-0.26562 0.30078-0.45312 0.40625-0.1875 0.11328-0.40625 0.19531-0.65625 0.25-0.25 0.050781-0.52734 0.078125-0.82812 0.078125-0.67969 0-1.1953-0.12109-1.5469-0.35938-0.34375-0.23047-0.51562-0.61719-0.51562-1.1562 0-0.0625 0.003906-0.13281 0.015625-0.20312zm1.5312-2.3281c0 0.36719 0.082031 0.64844 0.25 0.84375 0.16406 0.1875 0.375 0.28125 0.625 0.28125 0.22656 0 0.44531-0.082031 0.65625-0.25 0.21875-0.17578 0.38281-0.42188 0.5-0.73438 0.11328-0.32031 0.17188-0.63281 0.17188-0.9375 0-0.34375-0.09375-0.61719-0.28125-0.82812-0.1875-0.20703-0.40234-0.3125-0.64062-0.3125-0.24219 0-0.46094 0.09375-0.65625 0.28125-0.1875 0.17969-0.35156 0.46094-0.48438 0.84375-0.09375 0.30469-0.14062 0.57422-0.14062 0.8125z"/>
   </g>
   <g id="use87767" transform="matrix(1 0 0 -1 310.43 2833.3)">
    <path id="path100193" d="m1.7656-6.6719h1.3125l-0.25 1.1719h-1.3125zm-0.375 1.8281h1.2969l-1 4.8438h-1.3125z"/>
   </g>
   <g id="use87769" transform="matrix(1 0 0 -1 313.07 2833.3)">
    <path id="path100197" d="m1.4062-4.8438h1.2344l-0.125 0.64062c0.3125-0.26953 0.59766-0.46094 0.85938-0.57812 0.26953-0.11328 0.55469-0.17188 0.85938-0.17188 0.39453 0 0.70703 0.11719 0.9375 0.34375 0.22656 0.23047 0.34375 0.53125 0.34375 0.90625 0 0.16797-0.054687 0.49219-0.15625 0.96875l-0.5625 2.7344h-1.3125l0.57812-2.75c0.082031-0.40625 0.125-0.64844 0.125-0.73438 0-0.16406-0.054687-0.29688-0.15625-0.39062-0.09375-0.09375-0.23047-0.14062-0.40625-0.14062-0.1875 0-0.40234 0.085937-0.64062 0.25-0.23047 0.15625-0.41406 0.36719-0.54688 0.625-0.09375 0.1875-0.20312 0.57422-0.32812 1.1562l-0.40625 1.9844h-1.3125z"/>
   </g>
   <g id="use87773" transform="matrix(1 0 0 -1 291.06 2818.3)">
    <path id="path100201" d="m2.2344 1.9688h-0.89062c-0.25-0.58594-0.4375-1.1719-0.5625-1.7656-0.11719-0.59375-0.17188-1.1406-0.17188-1.6406 0-0.61328 0.097656-1.2344 0.29688-1.8594 0.20703-0.625 0.51562-1.2578 0.92188-1.9062 0.25781-0.41406 0.67188-0.94531 1.2344-1.5938h1c-0.58594 0.6875-1.0312 1.3359-1.3438 1.9375-0.3125 0.59375-0.54688 1.2461-0.70312 1.9531-0.15625 0.69922-0.23438 1.3828-0.23438 2.0469 0 0.46094 0.03125 0.89844 0.09375 1.3281 0.070313 0.4375 0.19141 0.9375 0.35938 1.5z"/>
   </g>
   <g id="use87775" transform="matrix(1 0 0 -1 294.21 2818.3)">
    <path id="path100205" d="m0.59375-2.1719c0-0.66406 0.11328-1.3477 0.34375-2.0469 0.28125-0.83203 0.64062-1.4531 1.0781-1.8594 0.4375-0.41406 0.92188-0.625 1.4531-0.625 0.53906 0 0.98438 0.19922 1.3281 0.59375 0.35156 0.38672 0.53125 0.95312 0.53125 1.7031 0 0.67969-0.13281 1.3984-0.39062 2.1562-0.25 0.76172-0.58984 1.3438-1.0156 1.75-0.42969 0.40625-0.91406 0.60938-1.4531 0.60938-0.54297 0-0.99219-0.19141-1.3438-0.57812-0.35547-0.39453-0.53125-0.96094-0.53125-1.7031zm1.2969 0.26562c0 0.35547 0.054688 0.60547 0.17188 0.75 0.11328 0.14844 0.25781 0.21875 0.4375 0.21875 0.25 0 0.46875-0.10938 0.65625-0.32812 0.25-0.30078 0.47266-0.89453 0.67188-1.7812 0.14453-0.69531 0.21875-1.2539 0.21875-1.6719 0-0.33203-0.058594-0.57031-0.17188-0.71875-0.11719-0.14453-0.26172-0.21875-0.4375-0.21875-0.24219 0-0.44922 0.10938-0.625 0.32812-0.26172 0.32422-0.49219 0.89062-0.6875 1.7031-0.15625 0.69922-0.23438 1.2734-0.23438 1.7188z"/>
   </g>
   <g id="use87777" transform="matrix(1 0 0 -1 299.45 2818.3)">
    <path id="path100209" d="m0.67188-1.2656h1.3125l-0.21875 1.0469c-0.125 0.60156-0.32812 1.0312-0.60938 1.2812-0.27344 0.25-0.625 0.37891-1.0625 0.39062l0.125-0.60938c0.21875-0.054687 0.38281-0.14062 0.5-0.26562 0.125-0.125 0.21875-0.32031 0.28125-0.57812h-0.60938z"/>
   </g>
   <g id="use87779" transform="matrix(1 0 0 -1 302.09 2818.3)">
    <path id="path100213" d="m0.59375-2.1719c0-0.66406 0.11328-1.3477 0.34375-2.0469 0.28125-0.83203 0.64062-1.4531 1.0781-1.8594 0.4375-0.41406 0.92188-0.625 1.4531-0.625 0.53906 0 0.98438 0.19922 1.3281 0.59375 0.35156 0.38672 0.53125 0.95312 0.53125 1.7031 0 0.67969-0.13281 1.3984-0.39062 2.1562-0.25 0.76172-0.58984 1.3438-1.0156 1.75-0.42969 0.40625-0.91406 0.60938-1.4531 0.60938-0.54297 0-0.99219-0.19141-1.3438-0.57812-0.35547-0.39453-0.53125-0.96094-0.53125-1.7031zm1.2969 0.26562c0 0.35547 0.054688 0.60547 0.17188 0.75 0.11328 0.14844 0.25781 0.21875 0.4375 0.21875 0.25 0 0.46875-0.10938 0.65625-0.32812 0.25-0.30078 0.47266-0.89453 0.67188-1.7812 0.14453-0.69531 0.21875-1.2539 0.21875-1.6719 0-0.33203-0.058594-0.57031-0.17188-0.71875-0.11719-0.14453-0.26172-0.21875-0.4375-0.21875-0.24219 0-0.44922 0.10938-0.625 0.32812-0.26172 0.32422-0.49219 0.89062-0.6875 1.7031-0.15625 0.69922-0.23438 1.2734-0.23438 1.7188z"/>
   </g>
   <g id="use87781" transform="matrix(1 0 0 -1 307.32 2818.3)">
    <path id="path100217" d="m1.0938-6.7969h0.89062c0.25 0.58594 0.42969 1.1719 0.54688 1.7656 0.125 0.59375 0.1875 1.1367 0.1875 1.625 0 0.625-0.10156 1.25-0.29688 1.875-0.19922 0.625-0.50781 1.2617-0.92188 1.9062-0.26172 0.41406-0.67188 0.94531-1.2344 1.5938h-1c0.58594-0.6875 1.0312-1.3281 1.3438-1.9219s0.54688-1.2383 0.70312-1.9375c0.15625-0.70703 0.23438-1.3984 0.23438-2.0781 0-0.46875-0.039062-0.91406-0.10938-1.3438-0.0625-0.42578-0.17969-0.92188-0.34375-1.4844z"/>
   </g>
   <g id="use87785" transform="matrix(1 0 0 -1 481.86 2802.5)">
    <path id="path100221" d="m2.5938-1.3594-1.2031 1.3594h-1.5938l2.2344-2.4844-1.2344-2.3594h1.3906l0.70312 1.3906 1.2344-1.3906h1.5938l-2.25 2.5156 1.2188 2.3281h-1.3906z"/>
   </g>
   <g id="use87789" transform="matrix(1 0 0 -1 487.1 2802.5)">
    <path id="path100225" d="m0.4375-2 0.17188-0.82812h2.5156l-0.17188 0.82812z"/>
   </g>
   <g id="use87791" transform="matrix(1 0 0 -1 490.25 2802.5)">
    <path id="path100229" d="m3.5781-0.59375c-0.29297 0.24219-0.57422 0.41797-0.84375 0.53125-0.26172 0.11328-0.53906 0.17188-0.82812 0.17188-0.44922 0-0.8125-0.12891-1.0938-0.39062-0.27344-0.25781-0.40625-0.59766-0.40625-1.0156 0-0.26953 0.0625-0.50781 0.1875-0.71875 0.125-0.20703 0.28516-0.375 0.48438-0.5 0.20703-0.125 0.45703-0.21094 0.75-0.26562 0.1875-0.039063 0.53516-0.070313 1.0469-0.09375 0.51953-0.019531 0.89453-0.070313 1.125-0.15625 0.0625-0.22656 0.09375-0.41406 0.09375-0.5625 0-0.1875-0.070312-0.33594-0.20312-0.45312-0.19922-0.14453-0.48047-0.21875-0.84375-0.21875-0.34375 0-0.625 0.078125-0.84375 0.23438-0.21875 0.14844-0.38281 0.35938-0.48438 0.64062l-0.82812-0.078125c0.16406-0.47656 0.42969-0.84375 0.79688-1.0938 0.375-0.25781 0.84375-0.39062 1.4062-0.39062 0.59375 0 1.0664 0.14844 1.4219 0.4375 0.25781 0.21094 0.39062 0.48438 0.39062 0.82812 0 0.26172-0.039062 0.55859-0.10938 0.89062l-0.26562 1.2031c-0.085937 0.38672-0.125 0.69922-0.125 0.9375 0 0.15625 0.03125 0.375 0.09375 0.65625h-0.82812c-0.054687-0.15625-0.085937-0.35156-0.09375-0.59375zm0.29688-1.8594c-0.11719 0.054687-0.24219 0.089844-0.375 0.10938-0.125 0.023437-0.34375 0.046875-0.65625 0.078125-0.48047 0.042969-0.82031 0.09375-1.0156 0.15625-0.19922 0.0625-0.35156 0.16797-0.45312 0.3125-0.09375 0.14844-0.14062 0.30469-0.14062 0.46875 0 0.24219 0.078125 0.43359 0.23438 0.57812 0.15625 0.14844 0.38281 0.21875 0.6875 0.21875 0.26953 0 0.53125-0.070313 0.78125-0.21875 0.25-0.14453 0.44531-0.34375 0.59375-0.59375 0.14453-0.25781 0.25781-0.62891 0.34375-1.1094z"/>
   </g>
   <g id="use87793" transform="matrix(1 0 0 -1 495.49 2802.5)">
    <path id="path100233" d="m-0.015625 0 2.1094-2.4531-1.2031-2.3906h0.90625l0.40625 0.875c0.15625 0.3125 0.28906 0.62109 0.40625 0.92188l1.4062-1.7969h1l-2.0312 2.4531 1.2188 2.3906h-0.90625l-0.48438-0.98438c-0.10547-0.20703-0.22656-0.46875-0.35938-0.78125l-1.4375 1.7656z"/>
   </g>
   <g id="use87795" transform="matrix(1 0 0 -1 500.2 2802.5)">
    <path id="path100237" d="m1.4844-5.75 0.1875-0.92188h0.82812l-0.20312 0.92188zm-1.2031 5.75 1-4.8438h0.82812l-1 4.8438z"/>
   </g>
   <g id="use87797" transform="matrix(1 0 0 -1 502.32 2802.5)">
    <path id="path100241" d="m0.39062-1.6562 0.82812-0.046875c0 0.24219 0.035156 0.44531 0.10938 0.60938 0.070313 0.16797 0.20312 0.30469 0.39062 0.40625 0.19531 0.10547 0.42578 0.15625 0.6875 0.15625 0.36328 0 0.63281-0.070313 0.8125-0.21875 0.1875-0.14453 0.28125-0.31641 0.28125-0.51562 0-0.13281-0.054687-0.26953-0.15625-0.40625-0.11719-0.125-0.39062-0.28125-0.82812-0.46875s-0.71484-0.31641-0.82812-0.39062c-0.21094-0.125-0.36719-0.26953-0.46875-0.4375-0.10547-0.16406-0.15625-0.35938-0.15625-0.57812 0-0.38281 0.14844-0.71094 0.45312-0.98438 0.3125-0.28125 0.73828-0.42188 1.2812-0.42188 0.60156 0 1.0625 0.14062 1.375 0.42188 0.32031 0.28125 0.48828 0.65234 0.5 1.1094l-0.79688 0.0625c-0.011719-0.28906-0.11719-0.51953-0.3125-0.6875-0.19922-0.17578-0.47656-0.26562-0.82812-0.26562-0.28125 0-0.50781 0.070312-0.67188 0.20312-0.15625 0.125-0.23438 0.26562-0.23438 0.42188 0 0.14844 0.070313 0.28125 0.21875 0.40625 0.082031 0.074219 0.31641 0.19531 0.70312 0.35938 0.625 0.27344 1.0195 0.48438 1.1875 0.64062 0.25781 0.25 0.39062 0.55859 0.39062 0.92188 0 0.24219-0.074219 0.47656-0.21875 0.70312-0.14844 0.23047-0.37109 0.41797-0.67188 0.5625-0.30469 0.13281-0.65625 0.20312-1.0625 0.20312-0.5625 0-1.043-0.14062-1.4375-0.42188-0.38672-0.26953-0.57031-0.71875-0.54688-1.3438z"/>
   </g>
   <g id="use87801" transform="matrix(1 0 0 -1 373.61 2914.2)">
    <path id="path100245" d="m0.78125-4.8438h1.2969l0.32812 2.4219c0.082031 0.61719 0.12891 1.0469 0.14062 1.2969 0.16406-0.5 0.39844-1.0195 0.70312-1.5625l1.1562-2.1562h1.3906l-3 5.3125c-0.24219 0.44531-0.43359 0.75391-0.57812 0.92188-0.13672 0.17578-0.30859 0.31641-0.51562 0.42188-0.19922 0.10156-0.43359 0.15625-0.70312 0.15625-0.28125 0-0.59375-0.054687-0.9375-0.15625l0.10938-0.96875c0.15625 0.039063 0.3125 0.0625 0.46875 0.0625 0.39453 0 0.72266-0.30469 0.98438-0.90625z"/>
   </g>
   <g id="use87805" transform="matrix(1 0 0 -1 378.85 2914.2)">
    <path id="path100249" d="m0.4375-2 0.17188-0.82812h2.5156l-0.17188 0.82812z"/>
   </g>
   <g id="use87807" transform="matrix(1 0 0 -1 382 2914.2)">
    <path id="path100253" d="m3.5781-0.59375c-0.29297 0.24219-0.57422 0.41797-0.84375 0.53125-0.26172 0.11328-0.53906 0.17188-0.82812 0.17188-0.44922 0-0.8125-0.12891-1.0938-0.39062-0.27344-0.25781-0.40625-0.59766-0.40625-1.0156 0-0.26953 0.0625-0.50781 0.1875-0.71875 0.125-0.20703 0.28516-0.375 0.48438-0.5 0.20703-0.125 0.45703-0.21094 0.75-0.26562 0.1875-0.039063 0.53516-0.070313 1.0469-0.09375 0.51953-0.019531 0.89453-0.070313 1.125-0.15625 0.0625-0.22656 0.09375-0.41406 0.09375-0.5625 0-0.1875-0.070312-0.33594-0.20312-0.45312-0.19922-0.14453-0.48047-0.21875-0.84375-0.21875-0.34375 0-0.625 0.078125-0.84375 0.23438-0.21875 0.14844-0.38281 0.35938-0.48438 0.64062l-0.82812-0.078125c0.16406-0.47656 0.42969-0.84375 0.79688-1.0938 0.375-0.25781 0.84375-0.39062 1.4062-0.39062 0.59375 0 1.0664 0.14844 1.4219 0.4375 0.25781 0.21094 0.39062 0.48438 0.39062 0.82812 0 0.26172-0.039062 0.55859-0.10938 0.89062l-0.26562 1.2031c-0.085937 0.38672-0.125 0.69922-0.125 0.9375 0 0.15625 0.03125 0.375 0.09375 0.65625h-0.82812c-0.054687-0.15625-0.085937-0.35156-0.09375-0.59375zm0.29688-1.8594c-0.11719 0.054687-0.24219 0.089844-0.375 0.10938-0.125 0.023437-0.34375 0.046875-0.65625 0.078125-0.48047 0.042969-0.82031 0.09375-1.0156 0.15625-0.19922 0.0625-0.35156 0.16797-0.45312 0.3125-0.09375 0.14844-0.14062 0.30469-0.14062 0.46875 0 0.24219 0.078125 0.43359 0.23438 0.57812 0.15625 0.14844 0.38281 0.21875 0.6875 0.21875 0.26953 0 0.53125-0.070313 0.78125-0.21875 0.25-0.14453 0.44531-0.34375 0.59375-0.59375 0.14453-0.25781 0.25781-0.62891 0.34375-1.1094z"/>
   </g>
   <g id="use87809" transform="matrix(1 0 0 -1 387.24 2914.2)">
    <path id="path100257" d="m-0.015625 0 2.1094-2.4531-1.2031-2.3906h0.90625l0.40625 0.875c0.15625 0.3125 0.28906 0.62109 0.40625 0.92188l1.4062-1.7969h1l-2.0312 2.4531 1.2188 2.3906h-0.90625l-0.48438-0.98438c-0.10547-0.20703-0.22656-0.46875-0.35938-0.78125l-1.4375 1.7656z"/>
   </g>
   <g id="use87811" transform="matrix(1 0 0 -1 391.95 2914.2)">
    <path id="path100261" d="m1.4844-5.75 0.1875-0.92188h0.82812l-0.20312 0.92188zm-1.2031 5.75 1-4.8438h0.82812l-1 4.8438z"/>
   </g>
   <g id="use87813" transform="matrix(1 0 0 -1 394.07 2914.2)">
    <path id="path100265" d="m0.39062-1.6562 0.82812-0.046875c0 0.24219 0.035156 0.44531 0.10938 0.60938 0.070313 0.16797 0.20312 0.30469 0.39062 0.40625 0.19531 0.10547 0.42578 0.15625 0.6875 0.15625 0.36328 0 0.63281-0.070313 0.8125-0.21875 0.1875-0.14453 0.28125-0.31641 0.28125-0.51562 0-0.13281-0.054687-0.26953-0.15625-0.40625-0.11719-0.125-0.39062-0.28125-0.82812-0.46875s-0.71484-0.31641-0.82812-0.39062c-0.21094-0.125-0.36719-0.26953-0.46875-0.4375-0.10547-0.16406-0.15625-0.35938-0.15625-0.57812 0-0.38281 0.14844-0.71094 0.45312-0.98438 0.3125-0.28125 0.73828-0.42188 1.2812-0.42188 0.60156 0 1.0625 0.14062 1.375 0.42188 0.32031 0.28125 0.48828 0.65234 0.5 1.1094l-0.79688 0.0625c-0.011719-0.28906-0.11719-0.51953-0.3125-0.6875-0.19922-0.17578-0.47656-0.26562-0.82812-0.26562-0.28125 0-0.50781 0.070312-0.67188 0.20312-0.15625 0.125-0.23438 0.26562-0.23438 0.42188 0 0.14844 0.070313 0.28125 0.21875 0.40625 0.082031 0.074219 0.31641 0.19531 0.70312 0.35938 0.625 0.27344 1.0195 0.48438 1.1875 0.64062 0.25781 0.25 0.39062 0.55859 0.39062 0.92188 0 0.24219-0.074219 0.47656-0.21875 0.70312-0.14844 0.23047-0.37109 0.41797-0.67188 0.5625-0.30469 0.13281-0.65625 0.20312-1.0625 0.20312-0.5625 0-1.043-0.14062-1.4375-0.42188-0.38672-0.26953-0.57031-0.71875-0.54688-1.3438z"/>
   </g>
   <path id="path87817" d="m360.81 2910.2v-242.04" style="fill:none;stroke-miterlimit:10;stroke-width:1.1;stroke:#1c1c19"/>
   <path id="path87819" d="m360.81 2916.8c-1.1602-3.125-3.1367-7-5.2344-9.4023l5.2344 1.8906 5.2305-1.8906c-2.0938 2.4023-4.0703 6.2773-5.2305 9.4023" style="fill:#1c1c19"/>
   <path id="path87821" d="m360.81 2661.5c-1.1602 3.125-3.1367 7-5.2344 9.4024l5.2344-1.8907 5.2305 1.8907c-2.0938-2.4024-4.0703-6.2774-5.2305-9.4024" style="fill:#1c1c19"/>
   <path id="path87823" d="m482.49 2789.9h-243.62" style="fill:none;stroke-miterlimit:10;stroke-width:1.1;stroke:#1c1c19"/>
   <path id="path87825" d="m489.13 2789.9c-3.125 1.1602-7 3.1368-9.4062 5.2344l1.8945-5.2344-1.8945-5.2304c2.4062 2.0937 6.2812 4.0742 9.4062 5.2304" style="fill:#1c1c19"/>
   <path id="path87827" d="m232.23 2789.9c3.125 1.1602 7 3.1368 9.4062 5.2344l-1.8945-5.2344 1.8945-5.2304c-2.4062 2.0937-6.2812 4.0742-9.4062 5.2304" style="fill:#1c1c19"/>
   <path id="path87829" d="m382.26 2792.8v-6.2031" style="fill:none;stroke-miterlimit:10;stroke-width:1.194;stroke:#1c1c19"/>
   <path id="path87831" d="m404.12 2792.8v-6.2031" style="fill:none;stroke-miterlimit:10;stroke-width:1.194;stroke:#1c1c19"/>
   <path id="path87833" d="m426 2792.8v-6.2031" style="fill:none;stroke-miterlimit:10;stroke-width:1.194;stroke:#1c1c19"/>
   <path id="path87835" d="m447.86 2792.8v-6.2031" style="fill:none;stroke-miterlimit:10;stroke-width:1.194;stroke:#1c1c19"/>
   <path id="path87837" d="m469.93 2792.8v-6.2031" style="fill:none;stroke-miterlimit:10;stroke-width:1.194;stroke:#1c1c19"/>
   <path id="path87839" d="m250.94 2792.8v-6.2031" style="fill:none;stroke-miterlimit:10;stroke-width:1.194;stroke:#1c1c19"/>
   <path id="path87841" d="m272.81 2792.8v-6.2031" style="fill:none;stroke-miterlimit:10;stroke-width:1.194;stroke:#1c1c19"/>
   <path id="path87843" d="m294.68 2792.8v-6.2031" style="fill:none;stroke-miterlimit:10;stroke-width:1.194;stroke:#1c1c19"/>
   <path id="path87845" d="m316.55 2792.8v-6.2031" style="fill:none;stroke-miterlimit:10;stroke-width:1.194;stroke:#1c1c19"/>
   <path id="path87847" d="m338.61 2792.8v-6.2031" style="fill:none;stroke-miterlimit:10;stroke-width:1.194;stroke:#1c1c19"/>
   <path id="path87849" d="m357.71 2811.5h6.2031" style="fill:none;stroke-miterlimit:10;stroke-width:1.194;stroke:#1c1c19"/>
   <path id="path87851" d="m357.71 2833.3h6.2031" style="fill:none;stroke-miterlimit:10;stroke-width:1.194;stroke:#1c1c19"/>
   <path id="path87853" d="m357.71 2855.1h6.2031" style="fill:none;stroke-miterlimit:10;stroke-width:1.194;stroke:#1c1c19"/>
   <path id="path87855" d="m357.71 2877h6.2031" style="fill:none;stroke-miterlimit:10;stroke-width:1.194;stroke:#1c1c19"/>
   <path id="path87857" d="m357.71 2898.9h6.2031" style="fill:none;stroke-miterlimit:10;stroke-width:1.194;stroke:#1c1c19"/>
   <path id="path87859" d="m357.71 2680.2h6.2031" style="fill:none;stroke-miterlimit:10;stroke-width:1.194;stroke:#1c1c19"/>
   <path id="path87861" d="m357.71 2702h6.2031" style="fill:none;stroke-miterlimit:10;stroke-width:1.194;stroke:#1c1c19"/>
   <path id="path87863" d="m357.71 2723.8h6.2031" style="fill:none;stroke-miterlimit:10;stroke-width:1.194;stroke:#1c1c19"/>
   <path id="path87865" d="m357.71 2745.7h6.2031" style="fill:none;stroke-miterlimit:10;stroke-width:1.194;stroke:#1c1c19"/>
   <path id="path87867" d="m357.71 2767.6h6.2031" style="fill:none;stroke-miterlimit:10;stroke-width:1.194;stroke:#1c1c19"/>
   <g id="use87869" transform="matrix(1 0 0 -1 351.11 2778.6)" style="fill:#1c1c19">
    <path id="path100269" d="m2.9375-7.4219c-1.4844 0-2.5312 1.3438-2.5312 3.7969 0.015625 2.4062 0.98438 3.75 2.4062 3.75 1.625 0 2.5469-1.375 2.5469-3.8594 0-2.3281-0.875-3.6875-2.4219-3.6875zm-0.046875 0.76562c1.0156 0 1.4844 1.1719 1.4844 2.9688 0 1.875-0.48438 3.0469-1.5 3.0469-0.89062 0-1.4844-1.0781-1.4844-2.9844 0-1.9844 0.625-3.0312 1.5-3.0312z"/>
   </g>
   <g id="use87873" transform="matrix(1 0 0 -1 379.48 2775)" style="fill:#1c1c19">
    <path id="path100273" d="m2.6562 0h0.95312v-7.2969h-0.84375l-1.5938 0.84375 0.1875 0.75 1.2656-0.67188h0.03125z"/>
   </g>
   <g id="use87877" transform="matrix(1 0 0 -1 346.24 2808.2)" style="fill:#1c1c19">
    <path id="path100277" d="m2.6562 0h0.95312v-7.2969h-0.84375l-1.5938 0.84375 0.1875 0.75 1.2656-0.67188h0.03125z"/>
   </g>
   <g id="use87881" transform="matrix(1 0 0 -1 343.63 2764.6)" style="fill:#1c1c19">
    <path id="path100281" d="m0.34375-3.4062v0.73438h2.7656v-0.73438z"/>
   </g>
   <g id="use87883" transform="matrix(1 0 0 -1 347.13 2764.6)" style="fill:#1c1c19">
    <path id="path100285" d="m2.6562 0h0.95312v-7.2969h-0.84375l-1.5938 0.84375 0.1875 0.75 1.2656-0.67188h0.03125z"/>
   </g>
   <g id="use87887" transform="matrix(1 0 0 -1 332.17 2775)" style="fill:#1c1c19">
    <path id="path100289" d="m0.34375-3.4062v0.73438h2.7656v-0.73438z"/>
   </g>
   <g id="use87889" transform="matrix(1 0 0 -1 335.67 2775)" style="fill:#1c1c19">
    <path id="path100293" d="m2.6562 0h0.95312v-7.2969h-0.84375l-1.5938 0.84375 0.1875 0.75 1.2656-0.67188h0.03125z"/>
   </g>
   <g id="use87893" transform="matrix(1 0 0 -1 400.32 2775)" style="fill:#1c1c19">
    <path id="path100297" d="m5.1719 0v-0.8125h-3.2812v-0.03125l0.57812-0.53125c1.5469-1.4844 2.5156-2.5781 2.5156-3.9219 0-1.0469-0.65625-2.125-2.2344-2.125-0.84375 0-1.5625 0.3125-2.0625 0.73438l0.3125 0.70312c0.34375-0.28125 0.89062-0.625 1.5469-0.625 1.0938 0 1.4531 0.6875 1.4531 1.4375-0.015625 1.0938-0.85938 2.0312-2.7188 3.8125l-0.78125 0.75v0.60938z"/>
   </g>
   <g id="use87897" transform="matrix(1 0 0 -1 345.99 2829.3)" style="fill:#1c1c19">
    <path id="path100301" d="m5.1719 0v-0.8125h-3.2812v-0.03125l0.57812-0.53125c1.5469-1.4844 2.5156-2.5781 2.5156-3.9219 0-1.0469-0.65625-2.125-2.2344-2.125-0.84375 0-1.5625 0.3125-2.0625 0.73438l0.3125 0.70312c0.34375-0.28125 0.89062-0.625 1.5469-0.625 1.0938 0 1.4531 0.6875 1.4531 1.4375-0.015625 1.0938-0.85938 2.0312-2.7188 3.8125l-0.78125 0.75v0.60938z"/>
   </g>
   <g id="use87901" transform="matrix(1 0 0 -1 343.37 2742.8)" style="fill:#1c1c19">
    <path id="path100305" d="m0.34375-3.4062v0.73438h2.7656v-0.73438z"/>
   </g>
   <g id="use87903" transform="matrix(1 0 0 -1 346.87 2742.8)" style="fill:#1c1c19">
    <path id="path100309" d="m5.1719 0v-0.8125h-3.2812v-0.03125l0.57812-0.53125c1.5469-1.4844 2.5156-2.5781 2.5156-3.9219 0-1.0469-0.65625-2.125-2.2344-2.125-0.84375 0-1.5625 0.3125-2.0625 0.73438l0.3125 0.70312c0.34375-0.28125 0.89062-0.625 1.5469-0.625 1.0938 0 1.4531 0.6875 1.4531 1.4375-0.015625 1.0938-0.85938 2.0312-2.7188 3.8125l-0.78125 0.75v0.60938z"/>
   </g>
   <g id="use87907" transform="matrix(1 0 0 -1 310.78 2775.3)" style="fill:#1c1c19">
    <path id="path100313" d="m0.34375-3.4062v0.73438h2.7656v-0.73438z"/>
   </g>
   <g id="use87909" transform="matrix(1 0 0 -1 314.28 2775.3)" style="fill:#1c1c19">
    <path id="path100317" d="m5.1719 0v-0.8125h-3.2812v-0.03125l0.57812-0.53125c1.5469-1.4844 2.5156-2.5781 2.5156-3.9219 0-1.0469-0.65625-2.125-2.2344-2.125-0.84375 0-1.5625 0.3125-2.0625 0.73438l0.3125 0.70312c0.34375-0.28125 0.89062-0.625 1.5469-0.625 1.0938 0 1.4531 0.6875 1.4531 1.4375-0.015625 1.0938-0.85938 2.0312-2.7188 3.8125l-0.78125 0.75v0.60938z"/>
   </g>
   <g id="use87913" transform="matrix(1 0 0 -1 422.19 2775)" style="fill:#1c1c19">
    <path id="path100321" d="m0.46875-0.375c0.35938 0.23438 1.0781 0.5 1.9062 0.5 1.75 0 2.6562-1.0312 2.6562-2.1875 0-1.0312-0.73438-1.7031-1.625-1.875v-0.03125c0.89062-0.32812 1.3438-0.96875 1.3438-1.7188 0-0.89062-0.65625-1.7344-2.0938-1.7344-0.78125 0-1.5156 0.28125-1.9062 0.5625l0.26562 0.71875c0.3125-0.23438 0.875-0.48438 1.4531-0.48438 0.90625 0 1.2812 0.51562 1.2812 1.0938 0 0.875-0.90625 1.2344-1.625 1.2344h-0.54688v0.75h0.54688c0.95312 0 1.875 0.4375 1.8906 1.4531 0 0.60938-0.39062 1.4219-1.6562 1.4219-0.6875 0-1.3438-0.28125-1.625-0.46875z"/>
   </g>
   <g id="use87917" transform="matrix(1 0 0 -1 345.99 2850.4)" style="fill:#1c1c19">
    <path id="path100325" d="m0.46875-0.375c0.35938 0.23438 1.0781 0.5 1.9062 0.5 1.75 0 2.6562-1.0312 2.6562-2.1875 0-1.0312-0.73438-1.7031-1.625-1.875v-0.03125c0.89062-0.32812 1.3438-0.96875 1.3438-1.7188 0-0.89062-0.65625-1.7344-2.0938-1.7344-0.78125 0-1.5156 0.28125-1.9062 0.5625l0.26562 0.71875c0.3125-0.23438 0.875-0.48438 1.4531-0.48438 0.90625 0 1.2812 0.51562 1.2812 1.0938 0 0.875-0.90625 1.2344-1.625 1.2344h-0.54688v0.75h0.54688c0.95312 0 1.875 0.4375 1.8906 1.4531 0 0.60938-0.39062 1.4219-1.6562 1.4219-0.6875 0-1.3438-0.28125-1.625-0.46875z"/>
   </g>
   <g id="use87921" transform="matrix(1 0 0 -1 343.37 2720.7)" style="fill:#1c1c19">
    <path id="path100329" d="m0.34375-3.4062v0.73438h2.7656v-0.73438z"/>
   </g>
   <g id="use87923" transform="matrix(1 0 0 -1 346.87 2720.7)" style="fill:#1c1c19">
    <path id="path100333" d="m0.46875-0.375c0.35938 0.23438 1.0781 0.5 1.9062 0.5 1.75 0 2.6562-1.0312 2.6562-2.1875 0-1.0312-0.73438-1.7031-1.625-1.875v-0.03125c0.89062-0.32812 1.3438-0.96875 1.3438-1.7188 0-0.89062-0.65625-1.7344-2.0938-1.7344-0.78125 0-1.5156 0.28125-1.9062 0.5625l0.26562 0.71875c0.3125-0.23438 0.875-0.48438 1.4531-0.48438 0.90625 0 1.2812 0.51562 1.2812 1.0938 0 0.875-0.90625 1.2344-1.625 1.2344h-0.54688v0.75h0.54688c0.95312 0 1.875 0.4375 1.8906 1.4531 0 0.60938-0.39062 1.4219-1.6562 1.4219-0.6875 0-1.3438-0.28125-1.625-0.46875z"/>
   </g>
   <g id="use87927" transform="matrix(1 0 0 -1 288.78 2775.3)" style="fill:#1c1c19">
    <path id="path100337" d="m0.34375-3.4062v0.73438h2.7656v-0.73438z"/>
   </g>
   <g id="use87929" transform="matrix(1 0 0 -1 292.29 2775.3)" style="fill:#1c1c19">
    <path id="path100341" d="m0.46875-0.375c0.35938 0.23438 1.0781 0.5 1.9062 0.5 1.75 0 2.6562-1.0312 2.6562-2.1875 0-1.0312-0.73438-1.7031-1.625-1.875v-0.03125c0.89062-0.32812 1.3438-0.96875 1.3438-1.7188 0-0.89062-0.65625-1.7344-2.0938-1.7344-0.78125 0-1.5156 0.28125-1.9062 0.5625l0.26562 0.71875c0.3125-0.23438 0.875-0.48438 1.4531-0.48438 0.90625 0 1.2812 0.51562 1.2812 1.0938 0 0.875-0.90625 1.2344-1.625 1.2344h-0.54688v0.75h0.54688c0.95312 0 1.875 0.4375 1.8906 1.4531 0 0.60938-0.39062 1.4219-1.6562 1.4219-0.6875 0-1.3438-0.28125-1.625-0.46875z"/>
   </g>
   <g id="use87933" transform="matrix(1 0 0 -1 444.06 2775)" style="fill:#1c1c19">
    <path id="path100345" d="m4.5 0v-1.9844h1.0156v-0.78125h-1.0156v-4.5312h-1.0781l-3.25 4.6562v0.65625h3.3906v1.9844zm-3.3281-2.7656v-0.015625l1.7812-2.4844c0.20312-0.34375 0.39062-0.65625 0.60938-1.0781h0.03125c-0.015625 0.375-0.03125 0.76562-0.03125 1.1406v2.4375z"/>
   </g>
   <g id="use87937" transform="matrix(1 0 0 -1 345.99 2871.5)" style="fill:#1c1c19">
    <path id="path100349" d="m4.5 0v-1.9844h1.0156v-0.78125h-1.0156v-4.5312h-1.0781l-3.25 4.6562v0.65625h3.3906v1.9844zm-3.3281-2.7656v-0.015625l1.7812-2.4844c0.20312-0.34375 0.39062-0.65625 0.60938-1.0781h0.03125c-0.015625 0.375-0.03125 0.76562-0.03125 1.1406v2.4375z"/>
   </g>
   <g id="use87941" transform="matrix(1 0 0 -1 343.37 2698.9)" style="fill:#1c1c19">
    <path id="path100353" d="m0.34375-3.4062v0.73438h2.7656v-0.73438z"/>
   </g>
   <g id="use87943" transform="matrix(1 0 0 -1 346.87 2698.9)" style="fill:#1c1c19">
    <path id="path100357" d="m4.5 0v-1.9844h1.0156v-0.78125h-1.0156v-4.5312h-1.0781l-3.25 4.6562v0.65625h3.3906v1.9844zm-3.3281-2.7656v-0.015625l1.7812-2.4844c0.20312-0.34375 0.39062-0.65625 0.60938-1.0781h0.03125c-0.015625 0.375-0.03125 0.76562-0.03125 1.1406v2.4375z"/>
   </g>
   <g id="use87947" transform="matrix(1 0 0 -1 266.95 2775.3)" style="fill:#1c1c19">
    <path id="path100361" d="m0.34375-3.4062v0.73438h2.7656v-0.73438z"/>
   </g>
   <g id="use87949" transform="matrix(1 0 0 -1 270.45 2775.3)" style="fill:#1c1c19">
    <path id="path100365" d="m4.5 0v-1.9844h1.0156v-0.78125h-1.0156v-4.5312h-1.0781l-3.25 4.6562v0.65625h3.3906v1.9844zm-3.3281-2.7656v-0.015625l1.7812-2.4844c0.20312-0.34375 0.39062-0.65625 0.60938-1.0781h0.03125c-0.015625 0.375-0.03125 0.76562-0.03125 1.1406v2.4375z"/>
   </g>
   <g id="use87953" transform="matrix(1 0 0 -1 466.12 2775)" style="fill:#1c1c19">
    <path id="path100369" d="m4.8594-7.2969h-3.4844l-0.46875 3.5c0.26562-0.03125 0.59375-0.078125 1-0.078125 1.4688 0 2.0938 0.67188 2.1094 1.6094 0 0.98438-0.79688 1.5938-1.7344 1.5938-0.65625 0-1.2656-0.23438-1.5625-0.40625l-0.25 0.75c0.34375 0.23438 1.0312 0.45312 1.8281 0.45312 1.5781 0 2.7188-1.0625 2.7188-2.5 0-0.92188-0.48438-1.5469-1.0469-1.875-0.45312-0.26562-1.0156-0.39062-1.5781-0.39062-0.26562 0-0.42188 0.015625-0.59375 0.046875l0.28125-1.875h2.7812z"/>
   </g>
   <g id="use87957" transform="matrix(1 0 0 -1 345.98 2892.6)" style="fill:#1c1c19">
    <path id="path100373" d="m4.8594-7.2969h-3.4844l-0.46875 3.5c0.26562-0.03125 0.59375-0.078125 1-0.078125 1.4688 0 2.0938 0.67188 2.1094 1.6094 0 0.98438-0.79688 1.5938-1.7344 1.5938-0.65625 0-1.2656-0.23438-1.5625-0.40625l-0.25 0.75c0.34375 0.23438 1.0312 0.45312 1.8281 0.45312 1.5781 0 2.7188-1.0625 2.7188-2.5 0-0.92188-0.48438-1.5469-1.0469-1.875-0.45312-0.26562-1.0156-0.39062-1.5781-0.39062-0.26562 0-0.42188 0.015625-0.59375 0.046875l0.28125-1.875h2.7812z"/>
   </g>
   <g id="use87961" transform="matrix(1 0 0 -1 343.36 2677.1)" style="fill:#1c1c19">
    <path id="path100377" d="m0.34375-3.4062v0.73438h2.7656v-0.73438z"/>
   </g>
   <g id="use87963" transform="matrix(1 0 0 -1 346.86 2677.1)" style="fill:#1c1c19">
    <path id="path100381" d="m4.8594-7.2969h-3.4844l-0.46875 3.5c0.26562-0.03125 0.59375-0.078125 1-0.078125 1.4688 0 2.0938 0.67188 2.1094 1.6094 0 0.98438-0.79688 1.5938-1.7344 1.5938-0.65625 0-1.2656-0.23438-1.5625-0.40625l-0.25 0.75c0.34375 0.23438 1.0312 0.45312 1.8281 0.45312 1.5781 0 2.7188-1.0625 2.7188-2.5 0-0.92188-0.48438-1.5469-1.0469-1.875-0.45312-0.26562-1.0156-0.39062-1.5781-0.39062-0.26562 0-0.42188 0.015625-0.59375 0.046875l0.28125-1.875h2.7812z"/>
   </g>
   <g id="use87967" transform="matrix(1 0 0 -1 245.1 2775.4)" style="fill:#1c1c19">
    <path id="path100385" d="m0.34375-3.4062v0.73438h2.7656v-0.73438z"/>
   </g>
   <g id="use87969" transform="matrix(1 0 0 -1 248.6 2775.4)" style="fill:#1c1c19">
    <path id="path100389" d="m4.8594-7.2969h-3.4844l-0.46875 3.5c0.26562-0.03125 0.59375-0.078125 1-0.078125 1.4688 0 2.0938 0.67188 2.1094 1.6094 0 0.98438-0.79688 1.5938-1.7344 1.5938-0.65625 0-1.2656-0.23438-1.5625-0.40625l-0.25 0.75c0.34375 0.23438 1.0312 0.45312 1.8281 0.45312 1.5781 0 2.7188-1.0625 2.7188-2.5 0-0.92188-0.48438-1.5469-1.0469-1.875-0.45312-0.26562-1.0156-0.39062-1.5781-0.39062-0.26562 0-0.42188 0.015625-0.59375 0.046875l0.28125-1.875h2.7812z"/>
   </g>
   <path id="path87975" d="m349.45 2798.4-5.6875 1.8398 3.2774 3.6289z" style="fill:#1c1c19"/>
   <path id="path87977" d="m347.35 2800.3-24.852 22.434" style="fill:#1c1c19;stroke-miterlimit:10;stroke:#1c1c19"/>
   <path id="path87979" d="m364.04 2789.9c0-1.7812-1.4453-3.2265-3.2266-3.2265s-3.2266 1.4453-3.2266 3.2265c0 1.7813 1.4453 3.2266 3.2266 3.2266s3.2266-1.4453 3.2266-3.2266" style="fill:#1c1cae"/>
  </g>
 </g>
</svg>
