<svg id="svg2176" version="1.1" viewBox="0 0 130.39 68.749" xmlns="http://www.w3.org/2000/svg">
 <title id="title2309">img_12</title>
 <g id="layer1" transform="translate(-33.833 -90.358)">
  <g id="g1054" transform="matrix(.35278 0 0 -.35278 68.74 137.35)">
   <path id="path1056" d="m0 0v73.398" style="fill:none;stroke-miterlimit:10;stroke-width:.696;stroke:#183d6f"/>
  </g>
  <g id="g1058" transform="matrix(.35278 0 0 -.35278 68.74 111.46)">
   <path id="path1060" d="m0 0c0-8.981-22.039-16.262-49.225-16.262s-49.225 7.281-49.225 16.262 22.039 16.262 49.225 16.262 49.225-7.281 49.225-16.262z" style="fill:none;stroke-miterlimit:10;stroke:#183d6f"/>
  </g>
  <g id="g1062" transform="matrix(.35278 0 0 -.35278 68.74 137.34)">
   <path id="path1064" d="m0 0c0-8.981-22.039-16.262-49.225-16.262s-49.225 7.281-49.225 16.262" style="fill:none;stroke-miterlimit:10;stroke:#183d6f"/>
  </g>
  <g id="g1066" transform="matrix(.35278 0 0 -.35278 34.01 137.34)">
   <path id="path1068" d="m0 0c0 8.981 22.039 16.262 49.225 16.262s49.225-7.281 49.225-16.262" style="fill:none;stroke-dasharray:6;stroke-miterlimit:10;stroke:#183d6f"/>
  </g>
  <g id="g1070" transform="matrix(.35278 0 0 -.35278 68.74 111.31)">
   <path id="path1072" d="m0 0-49.225-0.44" style="fill:none;stroke-miterlimit:10;stroke:#183d6f"/>
  </g>
  <g id="g1074" transform="matrix(.35278 0 0 -.35278 34.01 111.46)">
   <path id="path1076" d="m0 0v-73.342" style="fill:none;stroke-miterlimit:10;stroke:#183d6f"/>
  </g>
  <g id="g1078" transform="matrix(.35278 0 0 -.35278 51.375 111.46)">
   <path id="path1080" d="m0 0v-73.342" style="fill:none;stroke-dasharray:6;stroke-miterlimit:10;stroke:#183d6f"/>
  </g>
  <g id="g1082" transform="matrix(.35278 0 0 -.35278 53.549 111.46)">
   <path id="path1084" d="m0 0v-6.172h-6.654" style="fill:none;stroke-miterlimit:10;stroke:#183d6f"/>
  </g>
  <g id="g1086" transform="matrix(.35278 0 0 -.35278 51.744 137.35)">
   <path id="path1088" d="m0 0c0-0.578-0.469-1.046-1.046-1.046-0.578 0-1.046 0.468-1.046 1.046s0.468 1.046 1.046 1.046c0.577 0 1.046-0.468 1.046-1.046" style="fill:#183d6f"/>
  </g>
  <g id="g1090" transform="matrix(.35278 0 0 -.35278 51.744 111.46)">
   <path id="path1092" d="m0 0c0-0.578-0.469-1.046-1.046-1.046-0.578 0-1.046 0.468-1.046 1.046s0.468 1.046 1.046 1.046c0.577 0 1.046-0.468 1.046-1.046" style="fill:#183d6f"/>
  </g>
  <g id="g1094" transform="matrix(.35278 0 0 -.35278 141.76 101.14)">
   <path id="path1096" d="m0 0c0-16.598-13.455-30.053-30.053-30.053s-30.053 13.455-30.053 30.053 13.455 30.053 30.053 30.053 30.053-13.455 30.053-30.053z" style="fill:none;stroke-miterlimit:10;stroke:#183d6f"/>
  </g>
  <path id="path1098" d="m164.05 137.68h-65.337v-25.893h65.337z" style="fill:none;stroke-miterlimit:10;stroke-width:.35278;stroke:#183d6f"/>
  <g id="g1100" transform="matrix(.35278 0 0 -.35278 131.16 101.14)">
   <path id="path1102" d="m0 0h30.053" style="fill:none;stroke-miterlimit:10;stroke:#183d6f"/>
  </g>
  <g id="g1104" transform="matrix(.35278 0 0 -.35278 131.16 148.33)">
   <path id="path1106" d="m0 0h30.053" style="fill:none;stroke-miterlimit:10;stroke:#183d6f"/>
  </g>
  <g id="g1108" transform="matrix(.35278 0 0 -.35278 131.53 101.14)">
   <path id="path1110" d="m0 0c0-0.578-0.468-1.046-1.046-1.046s-1.046 0.468-1.046 1.046 0.468 1.046 1.046 1.046 1.046-0.468 1.046-1.046" style="fill:#010101"/>
  </g>
  <g id="g1112" transform="matrix(.35278 0 0 -.35278 141.76 148.33)">
   <path id="path1114" d="m0 0c0-16.598-13.455-30.053-30.053-30.053s-30.053 13.455-30.053 30.053 13.455 30.053 30.053 30.053 30.053-13.455 30.053-30.053z" style="fill:none;stroke-miterlimit:10;stroke:#183d6f"/>
  </g>
  <g id="g1116" transform="matrix(.35278 0 0 -.35278 131.53 148.33)">
   <path id="path1118" d="m0 0c0-0.578-0.468-1.046-1.046-1.046s-1.046 0.468-1.046 1.046 0.468 1.046 1.046 1.046 1.046-0.468 1.046-1.046" style="fill:#010101"/>
  </g>
  <g id="text1256" transform="skewX(-10.62)" aria-label="hhrrr">
   <path id="path2298" d="m94.657 127.2v-3.7805h0.46419v1.3564q0.32493-0.37651 0.82006-0.37651 0.3043 0 0.52866 0.12121 0.22436 0.11862 0.31977 0.33009 0.09799 0.21146 0.09799 0.61375v1.7355h-0.46419v-1.7355q0-0.34814-0.15215-0.50544-0.14957-0.15989-0.4255-0.15989-0.2063 0-0.3894 0.10831-0.18052 0.10573-0.25788 0.28883-0.07736 0.18309-0.07736 0.50544v1.4983z" style="stroke-width:.34674"/>
   <path id="path2300" d="m125.88 127.2v-3.7805h0.46419v1.3564q0.32493-0.37651 0.82006-0.37651 0.3043 0 0.52865 0.12121 0.22436 0.11862 0.31978 0.33009 0.098 0.21146 0.098 0.61375v1.7355h-0.46418v-1.7355q0-0.34814-0.15215-0.50544-0.14957-0.15989-0.42551-0.15989-0.2063 0-0.3894 0.10831-0.18051 0.10573-0.25788 0.28883-0.0774 0.18309-0.0774 0.50544v1.4983z" style="stroke-width:.34674"/>
   <path id="path2302" d="m153.9 99.453v-2.7387h0.41777v0.41519q0.15989-0.29141 0.29399-0.38424 0.13667-0.09284 0.29914-0.09284 0.23467 0 0.47708 0.14957l-0.15989 0.43066q-0.1702-0.10057-0.3404-0.10057-0.15215 0-0.27336 0.09284-0.1212 0.09026-0.17278 0.25272-0.0774 0.24756-0.0774 0.54155v1.4338z" style="stroke-width:.34674"/>
   <path id="path2304" d="m161.81 146.81v-2.7387h0.41777v0.41519q0.15989-0.2914 0.29398-0.38424 0.13668-0.0928 0.29915-0.0928 0.23467 0 0.47708 0.14957l-0.15989 0.43066q-0.1702-0.10057-0.3404-0.10057-0.15215 0-0.27336 0.0928-0.1212 0.0903-0.17278 0.25272-0.0774 0.24757-0.0774 0.54155v1.4338z" style="stroke-width:.34674"/>
   <path id="path2306" d="m79.066 110.39v-2.7387h0.41777v0.41519q0.15989-0.2914 0.29398-0.38424 0.13668-0.0928 0.29914-0.0928 0.23467 0 0.47708 0.14957l-0.15989 0.43066q-0.1702-0.10057-0.3404-0.10057-0.15215 0-0.27335 0.0928-0.1212 0.0903-0.17278 0.25272-0.07736 0.24757-0.07736 0.54155v1.4338z" style="stroke-width:.34674"/>
  </g>
 </g>
</svg>
