<svg id="svg48548" version="1.1" viewBox="0 0 72.049 69.722" xmlns="http://www.w3.org/2000/svg">
 <title id="title48727">img_65</title>
 <g id="layer1" transform="translate(-56.202 -97.431)">
  <g id="g8066" transform="matrix(.35278 0 0 .35278 -33.57 -1493.4)" style="fill:#7d7878">
   <g id="use8056" transform="translate(366.85 4535.8)">
    <path id="path48387" d="m3.9062-13.875c-1.2656 1.6719-2.6094 4.2344-2.625 8.1719 0 3.9062 1.3594 6.4688 2.625 8.125h1.375c-1.4219-2-2.5156-4.5625-2.5156-8.125 0-3.6094 1.0469-6.2188 2.5156-8.1719z"/>
   </g>
   <g id="use8058" transform="translate(372.63 4535.8)">
    <path id="path48391" d="m5.2344-13.219c-2.6406 0-4.5156 2.4062-4.5156 6.7656 0.046875 4.2969 1.7656 6.6719 4.2969 6.6719 2.8906 0 4.5312-2.4375 4.5312-6.8594 0-4.1406-1.5625-6.5781-4.3125-6.5781zm-0.09375 1.3594c1.8125 0 2.6406 2.0938 2.6406 5.2969 0 3.3281-0.85938 5.4219-2.6562 5.4219-1.6094 0-2.6406-1.9219-2.6406-5.2969 0-3.5469 1.1094-5.4219 2.6562-5.4219z"/>
   </g>
   <g id="use8060" transform="translate(382.99 4535.8)">
    <path id="path48395" d="m1.5781 2.3438c0.5625-0.9375 1.4375-3.1562 1.9062-4.8594l-1.9688 0.20312c-0.21875 1.4531-0.75 3.5938-1.2031 4.7656z"/>
   </g>
   <g id="use8062" transform="translate(387.23 4535.8)">
    <path id="path48399" d="m4.7188 0h1.7031v-13h-1.5l-2.8438 1.5156 0.34375 1.3438 2.2656-1.2188h0.03125z"/>
   </g>
   <g id="use8064" transform="translate(397.59 4535.8)">
    <path id="path48403" d="m1.7656 2.4219c1.2812-1.7031 2.6094-4.2344 2.6094-8.1562 0-3.9531-1.3281-6.5-2.6094-8.1406h-1.3594c1.4375 1.9688 2.5156 4.5312 2.5156 8.1094 0 3.6094-1.1094 6.2031-2.5156 8.1875z"/>
   </g>
  </g>
  <g id="g8078" transform="matrix(.35278 0 0 .35278 -33.57 -1493.4)" style="fill:#7d7878">
   <g id="use8068" transform="translate(423.59 4628.4)">
    <path id="path48407" d="m3.9062-13.875c-1.2656 1.6719-2.6094 4.2344-2.625 8.1719 0 3.9062 1.3594 6.4688 2.625 8.125h1.375c-1.4219-2-2.5156-4.5625-2.5156-8.125 0-3.6094 1.0469-6.2188 2.5156-8.1719z"/>
   </g>
   <g id="use8070" transform="translate(429.37 4628.4)">
    <path id="path48411" d="m4.7188 0h1.7031v-13h-1.5l-2.8438 1.5156 0.34375 1.3438 2.2656-1.2188h0.03125z"/>
   </g>
   <g id="use8072" transform="translate(439.73 4628.4)">
    <path id="path48415" d="m1.5781 2.3438c0.5625-0.9375 1.4375-3.1562 1.9062-4.8594l-1.9688 0.20312c-0.21875 1.4531-0.75 3.5938-1.2031 4.7656z"/>
   </g>
   <g id="use8074" transform="translate(443.97 4628.4)">
    <path id="path48419" d="m5.2344-13.219c-2.6406 0-4.5156 2.4062-4.5156 6.7656 0.046875 4.2969 1.7656 6.6719 4.2969 6.6719 2.8906 0 4.5312-2.4375 4.5312-6.8594 0-4.1406-1.5625-6.5781-4.3125-6.5781zm-0.09375 1.3594c1.8125 0 2.6406 2.0938 2.6406 5.2969 0 3.3281-0.85938 5.4219-2.6562 5.4219-1.6094 0-2.6406-1.9219-2.6406-5.2969 0-3.5469 1.1094-5.4219 2.6562-5.4219z"/>
   </g>
   <g id="use8076" transform="translate(454.33 4628.4)">
    <path id="path48423" d="m1.7656 2.4219c1.2812-1.7031 2.6094-4.2344 2.6094-8.1562 0-3.9531-1.3281-6.5-2.6094-8.1406h-1.3594c1.4375 1.9688 2.5156 4.5312 2.5156 8.1094 0 3.6094-1.1094 6.2031-2.5156 8.1875z"/>
   </g>
  </g>
  <g id="g8092" transform="matrix(.35278 0 0 .35278 -33.57 -1493.4)" style="fill:#7d7878">
   <g id="use8080" transform="translate(366.85 4697.4)">
    <path id="path48427" d="m3.9062-13.875c-1.2656 1.6719-2.6094 4.2344-2.625 8.1719 0 3.9062 1.3594 6.4688 2.625 8.125h1.375c-1.4219-2-2.5156-4.5625-2.5156-8.125 0-3.6094 1.0469-6.2188 2.5156-8.1719z"/>
   </g>
   <g id="use8082" transform="translate(372.63 4697.4)">
    <path id="path48431" d="m5.2344-13.219c-2.6406 0-4.5156 2.4062-4.5156 6.7656 0.046875 4.2969 1.7656 6.6719 4.2969 6.6719 2.8906 0 4.5312-2.4375 4.5312-6.8594 0-4.1406-1.5625-6.5781-4.3125-6.5781zm-0.09375 1.3594c1.8125 0 2.6406 2.0938 2.6406 5.2969 0 3.3281-0.85938 5.4219-2.6562 5.4219-1.6094 0-2.6406-1.9219-2.6406-5.2969 0-3.5469 1.1094-5.4219 2.6562-5.4219z"/>
   </g>
   <g id="use8084" transform="translate(382.99 4697.4)">
    <path id="path48435" d="m1.5781 2.3438c0.5625-0.9375 1.4375-3.1562 1.9062-4.8594l-1.9688 0.20312c-0.21875 1.4531-0.75 3.5938-1.2031 4.7656z"/>
   </g>
   <g id="use8086" transform="translate(387.23 4697.4)">
    <path id="path48439" d="m0.59375-6.0625v1.2969h4.9531v-1.2969z"/>
   </g>
   <g id="use8088" transform="translate(393.47 4697.4)">
    <path id="path48443" d="m4.7188 0h1.7031v-13h-1.5l-2.8438 1.5156 0.34375 1.3438 2.2656-1.2188h0.03125z"/>
   </g>
   <g id="use8090" transform="translate(403.83 4697.4)">
    <path id="path48447" d="m1.7656 2.4219c1.2812-1.7031 2.6094-4.2344 2.6094-8.1562 0-3.9531-1.3281-6.5-2.6094-8.1406h-1.3594c1.4375 1.9688 2.5156 4.5312 2.5156 8.1094 0 3.6094-1.1094 6.2031-2.5156 8.1875z"/>
   </g>
  </g>
  <g id="g8106" transform="matrix(.35278 0 0 .35278 -33.57 -1493.4)" style="fill:#7d7878">
   <g id="use8094" transform="translate(253.19 4628.4)">
    <path id="path48451" d="m3.9062-13.875c-1.2656 1.6719-2.6094 4.2344-2.625 8.1719 0 3.9062 1.3594 6.4688 2.625 8.125h1.375c-1.4219-2-2.5156-4.5625-2.5156-8.125 0-3.6094 1.0469-6.2188 2.5156-8.1719z"/>
   </g>
   <g id="use8096" transform="translate(258.97 4628.4)">
    <path id="path48455" d="m0.59375-6.0625v1.2969h4.9531v-1.2969z"/>
   </g>
   <g id="use8098" transform="translate(265.21 4628.4)">
    <path id="path48459" d="m4.7188 0h1.7031v-13h-1.5l-2.8438 1.5156 0.34375 1.3438 2.2656-1.2188h0.03125z"/>
   </g>
   <g id="use8100" transform="translate(275.57 4628.4)">
    <path id="path48463" d="m1.5781 2.3438c0.5625-0.9375 1.4375-3.1562 1.9062-4.8594l-1.9688 0.20312c-0.21875 1.4531-0.75 3.5938-1.2031 4.7656z"/>
   </g>
   <g id="use8102" transform="translate(279.81 4628.4)">
    <path id="path48467" d="m5.2344-13.219c-2.6406 0-4.5156 2.4062-4.5156 6.7656 0.046875 4.2969 1.7656 6.6719 4.2969 6.6719 2.8906 0 4.5312-2.4375 4.5312-6.8594 0-4.1406-1.5625-6.5781-4.3125-6.5781zm-0.09375 1.3594c1.8125 0 2.6406 2.0938 2.6406 5.2969 0 3.3281-0.85938 5.4219-2.6562 5.4219-1.6094 0-2.6406-1.9219-2.6406-5.2969 0-3.5469 1.1094-5.4219 2.6562-5.4219z"/>
   </g>
   <g id="use8104" transform="translate(290.17 4628.4)">
    <path id="path48471" d="m1.7656 2.4219c1.2812-1.7031 2.6094-4.2344 2.6094-8.1562 0-3.9531-1.3281-6.5-2.6094-8.1406h-1.3594c1.4375 1.9688 2.5156 4.5312 2.5156 8.1094 0 3.6094-1.1094 6.2031-2.5156 8.1875z"/>
   </g>
  </g>
  <path id="path8108" d="m93.185 100.17v66.981" style="fill:none;stroke-miterlimit:10;stroke-width:.38806;stroke:#1c1c19"/>
  <path id="path8110" d="m93.185 97.431-1.5779 3.8599 1.5779-0.91637 1.5765 0.91637z" style="fill:#1c1c19"/>
  <path id="path8112" d="m58.323 131.73h67.405" style="fill:none;stroke-miterlimit:10;stroke-width:.38806;stroke:#1c1c19"/>
  <path id="path8114" d="m124.64 133.17 0.61047-1.4373-0.61047-1.4359 3.4065 1.4359z" style="fill:#1c1c19"/>
  <path id="path8116" d="m113.69 131.73c0 11.323-9.1791 20.502-20.502 20.502-11.323 0-20.504-9.1791-20.504-20.502 0-11.323 9.1805-20.502 20.504-20.502 11.323 0 20.502 9.1791 20.502 20.502z" style="fill:none;stroke-miterlimit:10;stroke-width:.35278;stroke:#1c1ca1"/>
  <path id="path8442" d="m94.162 111.23c0 0.54021-0.43684 0.97839-0.97703 0.97839s-0.97841-0.43818-0.97841-0.97839c0-0.5388 0.43822-0.97702 0.97841-0.97702s0.97703 0.43822 0.97703 0.97702" style="fill:#1c1ca1"/>
  <path id="path8444" d="m73.659 131.73c0 0.54018-0.43822 0.97702-0.97841 0.97702-0.53881 0-0.97703-0.43684-0.97703-0.97702 0-0.54021 0.43822-0.97702 0.97703-0.97702 0.54019 0 0.97841 0.43681 0.97841 0.97702" style="fill:#1c1ca1"/>
  <path id="path8446" d="m94.162 152.24c0 0.5388-0.43684 0.97702-0.97703 0.97702s-0.97841-0.43822-0.97841-0.97702c0-0.5402 0.43822-0.97839 0.97841-0.97839s0.97703 0.43819 0.97703 0.97839" style="fill:#1c1ca1"/>
  <path id="path8448" d="m114.66 131.73c0 0.54018-0.43684 0.97702-0.97703 0.97702-0.5402 0-0.97703-0.43684-0.97703-0.97702 0-0.54021 0.43683-0.97702 0.97703-0.97702 0.54019 0 0.97703 0.43681 0.97703 0.97702" style="fill:#1c1ca1"/>
 </g>
</svg>
