<svg id="svg110558" version="1.1" viewBox="0 0 207.28 182.67" xmlns="http://www.w3.org/2000/svg">
 <title id="title111569">img_86</title>
 <defs id="defs110552">
  <clipPath id="clipPath95619">
   <path id="path95617" d="m434.02 2209.3h218.95v-218.95h-218.95z"/>
  </clipPath>
 </defs>
 <g id="layer1" transform="translate(9.9519 -36.471)">
  <g id="g95613" transform="matrix(.35278 0 0 -.35278 -39.785 836.79)">
   <g id="g95697">
    <g id="g95695" clip-path="url(#clipPath95619)" opacity=".39999">
     <path id="path95621" d="m434.14 2209.2h218.7v-218.7h-218.7z" style="fill:none;stroke-miterlimit:10;stroke-width:.25;stroke:#1d1d1b"/>
     <g id="g95625" transform="translate(434.14 2012.4)">
      <path id="path95623" d="m0 0h218.7" style="fill:none;stroke-miterlimit:10;stroke-width:.25;stroke:#1d1d1b"/>
     </g>
     <g id="g95629" transform="translate(434.14 2034.2)">
      <path id="path95627" d="m0 0h218.7" style="fill:none;stroke-miterlimit:10;stroke-width:.25;stroke:#1d1d1b"/>
     </g>
     <g id="g95633" transform="translate(434.14 2056.1)">
      <path id="path95631" d="m0 0h218.7" style="fill:none;stroke-miterlimit:10;stroke-width:.25;stroke:#1d1d1b"/>
     </g>
     <g id="g95637" transform="translate(434.14 2078)">
      <path id="path95635" d="m0 0h218.7" style="fill:none;stroke-miterlimit:10;stroke-width:.25;stroke:#1d1d1b"/>
     </g>
     <g id="g95641" transform="translate(434.14 2099.9)">
      <path id="path95639" d="m0 0h218.7" style="fill:none;stroke-miterlimit:10;stroke-width:.25;stroke:#1d1d1b"/>
     </g>
     <g id="g95645" transform="translate(434.14 2121.7)">
      <path id="path95643" d="m0 0h218.7" style="fill:none;stroke-miterlimit:10;stroke-width:.25;stroke:#1d1d1b"/>
     </g>
     <g id="g95649" transform="translate(434.14 2143.6)">
      <path id="path95647" d="m0 0h218.7" style="fill:none;stroke-miterlimit:10;stroke-width:.25;stroke:#1d1d1b"/>
     </g>
     <g id="g95653" transform="translate(434.14 2165.5)">
      <path id="path95651" d="m0 0h218.7" style="fill:none;stroke-miterlimit:10;stroke-width:.25;stroke:#1d1d1b"/>
     </g>
     <g id="g95657" transform="translate(434.14 2187.3)">
      <path id="path95655" d="m0 0h218.7" style="fill:none;stroke-miterlimit:10;stroke-width:.25;stroke:#1d1d1b"/>
     </g>
     <g id="g95661" transform="translate(630.97 2209.2)">
      <path id="path95659" d="m0 0v-218.7" style="fill:none;stroke-miterlimit:10;stroke-width:.25;stroke:#1d1d1b"/>
     </g>
     <g id="g95665" transform="translate(609.1 2209.2)">
      <path id="path95663" d="m0 0v-218.7" style="fill:none;stroke-miterlimit:10;stroke-width:.25;stroke:#1d1d1b"/>
     </g>
     <g id="g95669" transform="translate(587.23 2209.2)">
      <path id="path95667" d="m0 0v-218.7" style="fill:none;stroke-miterlimit:10;stroke-width:.25;stroke:#1d1d1b"/>
     </g>
     <g id="g95673" transform="translate(565.36 2209.2)">
      <path id="path95671" d="m0 0v-218.7" style="fill:none;stroke-miterlimit:10;stroke-width:.25;stroke:#1d1d1b"/>
     </g>
     <g id="g95677" transform="translate(543.49 2209.2)">
      <path id="path95675" d="m0 0v-218.7" style="fill:none;stroke-miterlimit:10;stroke-width:.25;stroke:#1d1d1b"/>
     </g>
     <g id="g95681" transform="translate(521.62 2209.2)">
      <path id="path95679" d="m0 0v-218.7" style="fill:none;stroke-miterlimit:10;stroke-width:.25;stroke:#1d1d1b"/>
     </g>
     <g id="g95685" transform="translate(499.75 2209.2)">
      <path id="path95683" d="m0 0v-218.7" style="fill:none;stroke-miterlimit:10;stroke-width:.25;stroke:#1d1d1b"/>
     </g>
     <g id="g95689" transform="translate(477.88 2209.2)">
      <path id="path95687" d="m0 0v-218.7" style="fill:none;stroke-miterlimit:10;stroke-width:.25;stroke:#1d1d1b"/>
     </g>
     <g id="g95693" transform="translate(456.01 2209.2)">
      <path id="path95691" d="m0 0v-218.7" style="fill:none;stroke-miterlimit:10;stroke-width:.25;stroke:#1d1d1b"/>
     </g>
    </g>
   </g>
  </g>
  <path id="path86133" d="m9.7259 48.296h72.26" style="fill:none;stroke-linecap:square;stroke-miterlimit:10;stroke-width:.40287;stroke:#000"/>
  <g id="use86135" transform="matrix(.35278 0 0 .35278 10.284 44.949)">
   <path id="path109073" d="m0.79688-5.4375v-2.2344h6.8438v2.2344z"/>
  </g>
  <g id="use86137" transform="matrix(.35278 0 0 .35278 13.256 44.949)">
   <path id="path109077" d="m8.1719 0v-4.3281h-7.8438v-2.0469l8.25-11.734h1.8281v11.734h2.4375v2.0469h-2.4375v4.3281zm0-6.375v-8.1562l-5.6719 8.1562z"/>
  </g>
  <g id="use86141" transform="matrix(.35278 0 0 .35278 20.701 44.949)">
   <path id="path109081" d="m5.8906-3.2188v-4.9688h-4.9219v-2.0625h4.9219v-4.9375h2.0938v4.9375h4.9375v2.0625h-4.9375v4.9688zm7.0312 3.2188h-11.953v-2.0781h11.953z"/>
  </g>
  <g id="use86145" transform="matrix(.35278 0 0 .35278 28.084 44.949)">
   <path id="path109085" d="m12.969-23.078h0.92188l-3.8594 24.047-6.125-12.609-2.4531 1.1094-0.42188-0.78125 3.7188-1.8594 5.0156 10.156z"/>
  </g>
  <g id="use86149" transform="matrix(.35278 0 0 .35278 35.466 44.949)">
   <path id="path109089" d="m8.1719 0v-4.3281h-7.8438v-2.0469l8.25-11.734h1.8281v11.734h2.4375v2.0469h-2.4375v4.3281zm0-6.375v-8.1562l-5.6719 8.1562z"/>
  </g>
  <g id="use86153" transform="matrix(.35278 0 0 .35278 40.424 41.975)">
   <path id="path109093" d="m7.4219-1.25v1.25h-6.9688c-0.011719-0.3125 0.035156-0.61328 0.14062-0.90625 0.17578-0.46875 0.45703-0.92969 0.84375-1.3906 0.39453-0.46875 0.96094-1.0039 1.7031-1.6094 1.1562-0.9375 1.9297-1.6797 2.3281-2.2344 0.40625-0.55078 0.60938-1.0703 0.60938-1.5625 0-0.50781-0.18359-0.94141-0.54688-1.2969-0.36719-0.35156-0.84375-0.53125-1.4375-0.53125-0.625 0-1.125 0.1875-1.5 0.5625s-0.5625 0.89844-0.5625 1.5625l-1.3438-0.14062c0.09375-0.98828 0.4375-1.7422 1.0312-2.2656 0.59375-0.53125 1.3945-0.79688 2.4062-0.79688 1.0078 0 1.8047 0.28125 2.3906 0.84375 0.59375 0.5625 0.89062 1.2617 0.89062 2.0938 0 0.42969-0.089844 0.84375-0.26562 1.25-0.16797 0.40625-0.45312 0.83984-0.85938 1.2969-0.39844 0.44922-1.0586 1.0625-1.9844 1.8438-0.78125 0.65625-1.2812 1.1055-1.5 1.3438-0.21875 0.23047-0.40234 0.46094-0.54688 0.6875z"/>
  </g>
  <g id="use86159" transform="matrix(.35278 0 0 .35278 44.765 44.949)">
   <path id="path109097" d="m0.79688-5.4375v-2.2344h6.8438v2.2344z"/>
  </g>
  <g id="use86163" transform="matrix(.35278 0 0 .35278 50.219 44.949)">
   <path id="path109101" d="m8.1719 0v-4.3281h-7.8438v-2.0469l8.25-11.734h1.8281v11.734h2.4375v2.0469h-2.4375v4.3281zm0-6.375v-8.1562l-5.6719 8.1562z"/>
  </g>
  <g id="use86165" transform="matrix(.35278 0 0 .35278 55.182 44.949)">
   <path id="path109105" d="m5.9219 5.3281c-1.2305-1.5547-2.2734-3.3672-3.125-5.4375-0.84375-2.0703-1.2656-4.2227-1.2656-6.4531 0-1.957 0.31641-3.832 0.95312-5.625 0.73828-2.082 1.8828-4.1602 3.4375-6.2344h1.5938c-1 1.7188-1.6641 2.9453-1.9844 3.6719-0.5 1.1367-0.89844 2.3242-1.1875 3.5625-0.35547 1.543-0.53125 3.0898-0.53125 4.6406 0 3.9609 1.2344 7.9141 3.7031 11.875z"/>
  </g>
  <g id="use86167" transform="matrix(.35278 0 0 .35278 58.155 44.949)">
   <path id="path109109" d="m9.4219 0h-2.2188v-14.172c-0.54297 0.51172-1.2461 1.0234-2.1094 1.5312-0.86719 0.51172-1.6484 0.89844-2.3438 1.1562v-2.1562c1.25-0.58203 2.3359-1.2891 3.2656-2.125 0.92578-0.83203 1.582-1.6406 1.9688-2.4219h1.4375z"/>
  </g>
  <g id="use86169" transform="matrix(.35278 0 0 .35278 63.118 44.949)">
   <path id="path109113" d="m3.125 5.3281h-1.5938c2.457-3.9609 3.6875-7.9141 3.6875-11.875 0-1.5508-0.17969-3.0859-0.53125-4.6094-0.27344-1.2266-0.66406-2.4141-1.1719-3.5625-0.32422-0.73828-0.98438-1.9727-1.9844-3.7031h1.5938c1.5508 2.0742 2.6953 4.1523 3.4375 6.2344 0.63281 1.793 0.95312 3.668 0.95312 5.625 0 2.2305-0.42969 4.3828-1.2812 6.4531-0.85547 2.0703-1.8906 3.8828-3.1094 5.4375z"/>
  </g>
  <g id="use86171" transform="matrix(.35278 0 0 .35278 66.091 44.949)">
   <path id="path109117" d="m5.9219 5.3281c-1.2305-1.5547-2.2734-3.3672-3.125-5.4375-0.84375-2.0703-1.2656-4.2227-1.2656-6.4531 0-1.957 0.31641-3.832 0.95312-5.625 0.73828-2.082 1.8828-4.1602 3.4375-6.2344h1.5938c-1 1.7188-1.6641 2.9453-1.9844 3.6719-0.5 1.1367-0.89844 2.3242-1.1875 3.5625-0.35547 1.543-0.53125 3.0898-0.53125 4.6406 0 3.9609 1.2344 7.9141 3.7031 11.875z"/>
  </g>
  <g id="use86173" transform="matrix(.35278 0 0 .35278 69.063 44.949)">
   <path id="path109121" d="m8.1719 0v-4.3281h-7.8438v-2.0469l8.25-11.734h1.8281v11.734h2.4375v2.0469h-2.4375v4.3281zm0-6.375v-8.1562l-5.6719 8.1562z"/>
  </g>
  <g id="use86175" transform="matrix(.35278 0 0 .35278 74.026 44.949)">
   <path id="path109125" d="m3.125 5.3281h-1.5938c2.457-3.9609 3.6875-7.9141 3.6875-11.875 0-1.5508-0.17969-3.0859-0.53125-4.6094-0.27344-1.2266-0.66406-2.4141-1.1719-3.5625-0.32422-0.73828-0.98438-1.9727-1.9844-3.7031h1.5938c1.5508 2.0742 2.6953 4.1523 3.4375 6.2344 0.63281 1.793 0.95312 3.668 0.95312 5.625 0 2.2305-0.42969 4.3828-1.2812 6.4531-0.85547 2.0703-1.8906 3.8828-3.1094 5.4375z"/>
  </g>
  <g id="use86179" transform="matrix(.35278 0 0 .35278 37.766 57.223)">
   <path id="path109129" d="m12.734-2.1406v2.1406h-11.969c-0.023437-0.53125 0.066406-1.0469 0.26562-1.5469 0.30078-0.8125 0.78516-1.6133 1.4531-2.4062 0.67578-0.78906 1.6445-1.7031 2.9062-2.7344 1.9688-1.6133 3.2969-2.8906 3.9844-3.8281 0.69531-0.94531 1.0469-1.8438 1.0469-2.6875 0-0.88281-0.32031-1.6289-0.95312-2.2344-0.625-0.60156-1.4453-0.90625-2.4531-0.90625-1.0742 0-1.9336 0.32422-2.5781 0.96875-0.63672 0.63672-0.96094 1.5273-0.96875 2.6719l-2.2812-0.23438c0.15625-1.707 0.74219-3.0078 1.7656-3.9062 1.0195-0.89453 2.3906-1.3438 4.1094-1.3438 1.7383 0 3.1133 0.48438 4.125 1.4531 1.0078 0.96094 1.5156 2.1523 1.5156 3.5781 0 0.73047-0.14844 1.4453-0.4375 2.1406-0.29297 0.69922-0.78125 1.4375-1.4688 2.2188-0.6875 0.77344-1.8359 1.8281-3.4375 3.1719-1.3359 1.125-2.1953 1.8906-2.5781 2.2969-0.375 0.39844-0.68359 0.79297-0.92188 1.1875z"/>
  </g>
  <g id="use86181" transform="matrix(.35278 0 0 .35278 42.729 57.223)">
   <path id="path109133" d="m5.9219 5.3281c-1.2305-1.5547-2.2734-3.3672-3.125-5.4375-0.84375-2.0703-1.2656-4.2227-1.2656-6.4531 0-1.957 0.31641-3.832 0.95312-5.625 0.73828-2.082 1.8828-4.1602 3.4375-6.2344h1.5938c-1 1.7188-1.6641 2.9453-1.9844 3.6719-0.5 1.1367-0.89844 2.3242-1.1875 3.5625-0.35547 1.543-0.53125 3.0898-0.53125 4.6406 0 3.9609 1.2344 7.9141 3.7031 11.875z"/>
  </g>
  <g id="use86183" transform="matrix(.35278 0 0 .35278 45.702 57.223)">
   <path id="path109137" d="m12.734-2.1406v2.1406h-11.969c-0.023437-0.53125 0.066406-1.0469 0.26562-1.5469 0.30078-0.8125 0.78516-1.6133 1.4531-2.4062 0.67578-0.78906 1.6445-1.7031 2.9062-2.7344 1.9688-1.6133 3.2969-2.8906 3.9844-3.8281 0.69531-0.94531 1.0469-1.8438 1.0469-2.6875 0-0.88281-0.32031-1.6289-0.95312-2.2344-0.625-0.60156-1.4453-0.90625-2.4531-0.90625-1.0742 0-1.9336 0.32422-2.5781 0.96875-0.63672 0.63672-0.96094 1.5273-0.96875 2.6719l-2.2812-0.23438c0.15625-1.707 0.74219-3.0078 1.7656-3.9062 1.0195-0.89453 2.3906-1.3438 4.1094-1.3438 1.7383 0 3.1133 0.48438 4.125 1.4531 1.0078 0.96094 1.5156 2.1523 1.5156 3.5781 0 0.73047-0.14844 1.4453-0.4375 2.1406-0.29297 0.69922-0.78125 1.4375-1.4688 2.2188-0.6875 0.77344-1.8359 1.8281-3.4375 3.1719-1.3359 1.125-2.1953 1.8906-2.5781 2.2969-0.375 0.39844-0.68359 0.79297-0.92188 1.1875z"/>
  </g>
  <g id="use86185" transform="matrix(.35278 0 0 .35278 50.665 57.223)">
   <path id="path109141" d="m3.125 5.3281h-1.5938c2.457-3.9609 3.6875-7.9141 3.6875-11.875 0-1.5508-0.17969-3.0859-0.53125-4.6094-0.27344-1.2266-0.66406-2.4141-1.1719-3.5625-0.32422-0.73828-0.98438-1.9727-1.9844-3.7031h1.5938c1.5508 2.0742 2.6953 4.1523 3.4375 6.2344 0.63281 1.793 0.95312 3.668 0.95312 5.625 0 2.2305-0.42969 4.3828-1.2812 6.4531-0.85547 2.0703-1.8906 3.8828-3.1094 5.4375z"/>
  </g>
  <g id="use86189" transform="matrix(.35278 0 0 .35278 -9.2698 51.087)" style="fill:#1c1c19">
   <path id="path109145" d="m3.0469-13.781 3.4844 6.75-6.2969 7.0312h2.8125l2.6094-3.1094c0.67188-0.82812 1.3125-1.5625 1.9219-2.3906h0.0625c0.32812 0.82812 0.65625 1.5938 1.0469 2.3906l1.4844 3.1094h2.9062l-3.5938-7.125 6.0156-6.6562h-2.75l-2.5156 2.9219c-0.60938 0.75-1.1875 1.4531-1.8125 2.2812h-0.09375c-0.3125-0.76562-0.60938-1.4844-1-2.25l-1.4531-2.9531z"/>
  </g>
  <g id="use86193" transform="matrix(.35278 0 0 .35278 -2.2673 51.087)" style="fill:#1c1c19">
   <path id="path109149" d="m17.906-9.5938 0.32812-1.7188h-14.953l-0.32812 1.7188zm-1.0469 5.5781 0.32812-1.7031h-14.953l-0.32812 1.7031z"/>
  </g>
  <path id="path86199" d="m32.72 36.648h49.266" style="fill:none;stroke-miterlimit:10;stroke-width:.35278;stroke:#000"/>
  <path id="path86413" d="m33.235 80.336h36.834" style="fill:none;stroke-miterlimit:10;stroke-width:.35278;stroke:#000"/>
  <path id="path86415" d="m10.285 91.83h59.783" style="fill:none;stroke-linecap:square;stroke-miterlimit:10;stroke-width:.40287;stroke:#000"/>
  <g id="use86417" transform="matrix(.35278 0 0 .35278 10.844 88.481)">
   <path id="path109153" d="m0.79688-5.4375v-2.2344h6.8438v2.2344z"/>
  </g>
  <g id="use86419" transform="matrix(.35278 0 0 .35278 13.817 88.481)">
   <path id="path109157" d="m8.1719 0v-4.3281h-7.8438v-2.0469l8.25-11.734h1.8281v11.734h2.4375v2.0469h-2.4375v4.3281zm0-6.375v-8.1562l-5.6719 8.1562z"/>
  </g>
  <g id="use86423" transform="matrix(.35278 0 0 .35278 21.262 88.481)">
   <path id="path109161" d="m5.8906-3.2188v-4.9688h-4.9219v-2.0625h4.9219v-4.9375h2.0938v4.9375h4.9375v2.0625h-4.9375v4.9688zm7.0312 3.2188h-11.953v-2.0781h11.953z"/>
  </g>
  <g id="use86427" transform="matrix(.35278 0 0 .35278 28.644 88.481)">
   <path id="path109165" d="m12.969-23.078h0.92188l-3.8594 24.047-6.125-12.609-2.4531 1.1094-0.42188-0.78125 3.7188-1.8594 5.0156 10.156z"/>
  </g>
  <g id="use86431" transform="matrix(.35278 0 0 .35278 36.027 88.481)">
   <path id="path109169" d="m9.4219 0h-2.2188v-14.172c-0.54297 0.51172-1.2461 1.0234-2.1094 1.5312-0.86719 0.51172-1.6484 0.89844-2.3438 1.1562v-2.1562c1.25-0.58203 2.3359-1.2891 3.2656-2.125 0.92578-0.83203 1.582-1.6406 1.9688-2.4219h1.4375z"/>
  </g>
  <g id="use86433" transform="matrix(.35278 0 0 .35278 40.99 88.481)">
   <path id="path109173" d="m12.594-13.672-2.2188 0.17188c-0.19922-0.875-0.48047-1.5078-0.84375-1.9062-0.59375-0.63281-1.3359-0.95312-2.2188-0.95312-0.71094 0-1.3281 0.19922-1.8594 0.59375-0.71094 0.51172-1.2656 1.2578-1.6719 2.2344-0.39844 0.98047-0.60547 2.375-0.625 4.1875 0.53906-0.8125 1.1953-1.4141 1.9688-1.8125 0.76953-0.39453 1.582-0.59375 2.4375-0.59375 1.4766 0 2.7383 0.54688 3.7812 1.6406 1.0391 1.0938 1.5625 2.5078 1.5625 4.2344 0 1.1367-0.24609 2.1953-0.73438 3.1719-0.49219 0.96875-1.1641 1.7148-2.0156 2.2344-0.85547 0.51953-1.8281 0.78125-2.9219 0.78125-1.8555 0-3.3672-0.67969-4.5312-2.0469-1.168-1.3633-1.75-3.6094-1.75-6.7344 0-3.5 0.64453-6.0469 1.9375-7.6406 1.125-1.3828 2.6445-2.0781 4.5625-2.0781 1.4141 0 2.5781 0.40234 3.4844 1.2031 0.91406 0.80469 1.4688 1.9062 1.6562 3.3125zm-9.0781 7.7969c0 0.77344 0.16016 1.5078 0.48438 2.2031 0.32031 0.69922 0.77344 1.2344 1.3594 1.6094 0.58203 0.36719 1.1953 0.54688 1.8438 0.54688 0.9375 0 1.7422-0.37891 2.4219-1.1406 0.67578-0.75781 1.0156-1.7891 1.0156-3.0938 0-1.25-0.33594-2.2344-1-2.9531-0.66797-0.71875-1.5117-1.0781-2.5312-1.0781-1 0-1.8516 0.35938-2.5469 1.0781-0.69922 0.71875-1.0469 1.6641-1.0469 2.8281z"/>
  </g>
  <g id="use86437" transform="matrix(.35278 0 0 .35278 48.435 88.481)">
   <path id="path109177" d="m0.79688-5.4375v-2.2344h6.8438v2.2344z"/>
  </g>
  <g id="use86441" transform="matrix(.35278 0 0 .35278 53.889 88.481)">
   <path id="path109181" d="m9.4219 0h-2.2188v-14.172c-0.54297 0.51172-1.2461 1.0234-2.1094 1.5312-0.86719 0.51172-1.6484 0.89844-2.3438 1.1562v-2.1562c1.25-0.58203 2.3359-1.2891 3.2656-2.125 0.92578-0.83203 1.582-1.6406 1.9688-2.4219h1.4375z"/>
  </g>
  <g id="use86443" transform="matrix(.35278 0 0 .35278 58.852 88.481)">
   <path id="path109185" d="m12.594-13.672-2.2188 0.17188c-0.19922-0.875-0.48047-1.5078-0.84375-1.9062-0.59375-0.63281-1.3359-0.95312-2.2188-0.95312-0.71094 0-1.3281 0.19922-1.8594 0.59375-0.71094 0.51172-1.2656 1.2578-1.6719 2.2344-0.39844 0.98047-0.60547 2.375-0.625 4.1875 0.53906-0.8125 1.1953-1.4141 1.9688-1.8125 0.76953-0.39453 1.582-0.59375 2.4375-0.59375 1.4766 0 2.7383 0.54688 3.7812 1.6406 1.0391 1.0938 1.5625 2.5078 1.5625 4.2344 0 1.1367-0.24609 2.1953-0.73438 3.1719-0.49219 0.96875-1.1641 1.7148-2.0156 2.2344-0.85547 0.51953-1.8281 0.78125-2.9219 0.78125-1.8555 0-3.3672-0.67969-4.5312-2.0469-1.168-1.3633-1.75-3.6094-1.75-6.7344 0-3.5 0.64453-6.0469 1.9375-7.6406 1.125-1.3828 2.6445-2.0781 4.5625-2.0781 1.4141 0 2.5781 0.40234 3.4844 1.2031 0.91406 0.80469 1.4688 1.9062 1.6562 3.3125zm-9.0781 7.7969c0 0.77344 0.16016 1.5078 0.48438 2.2031 0.32031 0.69922 0.77344 1.2344 1.3594 1.6094 0.58203 0.36719 1.1953 0.54688 1.8438 0.54688 0.9375 0 1.7422-0.37891 2.4219-1.1406 0.67578-0.75781 1.0156-1.7891 1.0156-3.0938 0-1.25-0.33594-2.2344-1-2.9531-0.66797-0.71875-1.5117-1.0781-2.5312-1.0781-1 0-1.8516 0.35938-2.5469 1.0781-0.69922 0.71875-1.0469 1.6641-1.0469 2.8281z"/>
  </g>
  <g id="use86447" transform="matrix(.35278 0 0 .35278 37.767 100.76)">
   <path id="path109189" d="m8.1719 0v-4.3281h-7.8438v-2.0469l8.25-11.734h1.8281v11.734h2.4375v2.0469h-2.4375v4.3281zm0-6.375v-8.1562l-5.6719 8.1562z"/>
  </g>
  <g id="use86451" transform="matrix(.35278 0 0 .35278 -8.7091 94.62)" style="fill:#1c1c19">
   <path id="path109193" d="m3.0469-13.781 3.4844 6.75-6.2969 7.0312h2.8125l2.6094-3.1094c0.67188-0.82812 1.3125-1.5625 1.9219-2.3906h0.0625c0.32812 0.82812 0.65625 1.5938 1.0469 2.3906l1.4844 3.1094h2.9062l-3.5938-7.125 6.0156-6.6562h-2.75l-2.5156 2.9219c-0.60938 0.75-1.1875 1.4531-1.8125 2.2812h-0.09375c-0.3125-0.76562-0.60938-1.4844-1-2.25l-1.4531-2.9531z"/>
  </g>
  <g id="use86455" transform="matrix(.35278 0 0 .35278 -1.7066 94.62)" style="fill:#1c1c19">
   <path id="path109197" d="m17.906-9.5938 0.32812-1.7188h-14.953l-0.32812 1.7188zm-1.0469 5.5781 0.32812-1.7031h-14.953l-0.32812 1.7031z"/>
  </g>
  <path id="path86575" d="m11.568 135.42h33.293" style="fill:none;stroke-linecap:square;stroke-miterlimit:10;stroke-width:.40287;stroke:#000"/>
  <g id="use86577" transform="matrix(.35278 0 0 .35278 12.127 132.07)">
   <path id="path109201" d="m0.79688-5.4375v-2.2344h6.8438v2.2344z"/>
  </g>
  <g id="use86579" transform="matrix(.35278 0 0 .35278 15.099 132.07)">
   <path id="path109205" d="m8.1719 0v-4.3281h-7.8438v-2.0469l8.25-11.734h1.8281v11.734h2.4375v2.0469h-2.4375v4.3281zm0-6.375v-8.1562l-5.6719 8.1562z"/>
  </g>
  <g id="use86583" transform="matrix(.35278 0 0 .35278 22.544 132.07)">
   <path id="path109209" d="m5.8906-3.2188v-4.9688h-4.9219v-2.0625h4.9219v-4.9375h2.0938v4.9375h4.9375v2.0625h-4.9375v4.9688zm7.0312 3.2188h-11.953v-2.0781h11.953z"/>
  </g>
  <g id="use86587" transform="matrix(.35278 0 0 .35278 29.927 132.07)">
   <path id="path109213" d="m12.969-23.078h0.92188l-3.8594 24.047-6.125-12.609-2.4531 1.1094-0.42188-0.78125 3.7188-1.8594 5.0156 10.156z"/>
  </g>
  <g id="use86591" transform="matrix(.35278 0 0 .35278 37.309 132.07)">
   <path id="path109217" d="m1.0469-8.9375c0-2.1328 0.21875-3.8516 0.65625-5.1562 0.44531-1.3125 1.1016-2.3203 1.9688-3.0312 0.875-0.70703 1.9688-1.0625 3.2812-1.0625 0.96875 0 1.8164 0.19922 2.5469 0.59375 0.73828 0.38672 1.3477 0.94922 1.8281 1.6875 0.47656 0.74219 0.85156 1.6406 1.125 2.7031 0.26953 1.0547 0.40625 2.4766 0.40625 4.2656 0 2.125-0.21875 3.8438-0.65625 5.1562-0.4375 1.3047-1.0938 2.3125-1.9688 3.0312-0.86719 0.71094-1.9609 1.0625-3.2812 1.0625-1.75 0-3.1211-0.625-4.1094-1.875-1.1992-1.5078-1.7969-3.9688-1.7969-7.375zm2.2812 0c0 2.9805 0.34766 4.9648 1.0469 5.9531 0.69531 0.98047 1.5547 1.4688 2.5781 1.4688 1.0195 0 1.8789-0.49219 2.5781-1.4844 0.69531-0.98828 1.0469-2.9688 1.0469-5.9375 0-2.9766-0.35156-4.957-1.0469-5.9375-0.69922-0.97656-1.5703-1.4688-2.6094-1.4688-1.0234 0-1.8359 0.43359-2.4375 1.2969-0.77344 1.1055-1.1562 3.1406-1.1562 6.1094z"/>
  </g>
  <g id="use86595" transform="matrix(.35278 0 0 .35278 27.963 144.34)">
   <path id="path109221" d="m8.1719 0v-4.3281h-7.8438v-2.0469l8.25-11.734h1.8281v11.734h2.4375v2.0469h-2.4375v4.3281zm0-6.375v-8.1562l-5.6719 8.1562z"/>
  </g>
  <g id="use86599" transform="matrix(.35278 0 0 .35278 -7.427 138.21)" style="fill:#1c1c19">
   <path id="path109225" d="m3.0469-13.781 3.4844 6.75-6.2969 7.0312h2.8125l2.6094-3.1094c0.67188-0.82812 1.3125-1.5625 1.9219-2.3906h0.0625c0.32812 0.82812 0.65625 1.5938 1.0469 2.3906l1.4844 3.1094h2.9062l-3.5938-7.125 6.0156-6.6562h-2.75l-2.5156 2.9219c-0.60938 0.75-1.1875 1.4531-1.8125 2.2812h-0.09375c-0.3125-0.76562-0.60938-1.4844-1-2.25l-1.4531-2.9531z"/>
  </g>
  <g id="use86603" transform="matrix(.35278 0 0 .35278 -.42451 138.21)" style="fill:#1c1c19">
   <path id="path109229" d="m17.906-9.5938 0.32812-1.7188h-14.953l-0.32812 1.7188zm-1.0469 5.5781 0.32812-1.7031h-14.953l-0.32812 1.7031z"/>
  </g>
  <path id="path86609" d="m34.619 123.87h9.3266" style="fill:none;stroke-miterlimit:10;stroke-width:.35278;stroke:#000"/>
  <path id="path86697" d="m11.568 179.01h26.195" style="fill:none;stroke-linecap:square;stroke-miterlimit:10;stroke-width:.40287;stroke:#000"/>
  <g id="use86699" transform="matrix(.35278 0 0 .35278 12.127 175.66)">
   <path id="path109233" d="m0.79688-5.4375v-2.2344h6.8438v2.2344z"/>
  </g>
  <g id="use86701" transform="matrix(.35278 0 0 .35278 15.099 175.66)">
   <path id="path109237" d="m8.1719 0v-4.3281h-7.8438v-2.0469l8.25-11.734h1.8281v11.734h2.4375v2.0469h-2.4375v4.3281zm0-6.375v-8.1562l-5.6719 8.1562z"/>
  </g>
  <g id="use86705" transform="matrix(.35278 0 0 .35278 22.544 175.66)">
   <path id="path109241" d="m6.3438-2.9219v-4.9688h-4.9375v-2.0781h4.9375v-4.9219h2.0938v4.9219h4.9219v2.0781h-4.9219v4.9688z"/>
  </g>
  <g id="use86709" transform="matrix(.35278 0 0 .35278 30.239 175.66)">
   <path id="path109245" d="m1.0469-8.9375c0-2.1328 0.21875-3.8516 0.65625-5.1562 0.44531-1.3125 1.1016-2.3203 1.9688-3.0312 0.875-0.70703 1.9688-1.0625 3.2812-1.0625 0.96875 0 1.8164 0.19922 2.5469 0.59375 0.73828 0.38672 1.3477 0.94922 1.8281 1.6875 0.47656 0.74219 0.85156 1.6406 1.125 2.7031 0.26953 1.0547 0.40625 2.4766 0.40625 4.2656 0 2.125-0.21875 3.8438-0.65625 5.1562-0.4375 1.3047-1.0938 2.3125-1.9688 3.0312-0.86719 0.71094-1.9609 1.0625-3.2812 1.0625-1.75 0-3.1211-0.625-4.1094-1.875-1.1992-1.5078-1.7969-3.9688-1.7969-7.375zm2.2812 0c0 2.9805 0.34766 4.9648 1.0469 5.9531 0.69531 0.98047 1.5547 1.4688 2.5781 1.4688 1.0195 0 1.8789-0.49219 2.5781-1.4844 0.69531-0.98828 1.0469-2.9688 1.0469-5.9375 0-2.9766-0.35156-4.957-1.0469-5.9375-0.69922-0.97656-1.5703-1.4688-2.6094-1.4688-1.0234 0-1.8359 0.43359-2.4375 1.2969-0.77344 1.1055-1.1562 3.1406-1.1562 6.1094z"/>
  </g>
  <g id="use86713" transform="matrix(.35278 0 0 .35278 22.428 187.93)">
   <path id="path109249" d="m8.1719 0v-4.3281h-7.8438v-2.0469l8.25-11.734h1.8281v11.734h2.4375v2.0469h-2.4375v4.3281zm0-6.375v-8.1562l-5.6719 8.1562z"/>
  </g>
  <g id="use86717" transform="matrix(.35278 0 0 .35278 -7.427 181.8)" style="fill:#1c1c19">
   <path id="path109253" d="m3.0469-13.781 3.4844 6.75-6.2969 7.0312h2.8125l2.6094-3.1094c0.67188-0.82812 1.3125-1.5625 1.9219-2.3906h0.0625c0.32812 0.82812 0.65625 1.5938 1.0469 2.3906l1.4844 3.1094h2.9062l-3.5938-7.125 6.0156-6.6562h-2.75l-2.5156 2.9219c-0.60938 0.75-1.1875 1.4531-1.8125 2.2812h-0.09375c-0.3125-0.76562-0.60938-1.4844-1-2.25l-1.4531-2.9531z"/>
  </g>
  <g id="use86721" transform="matrix(.35278 0 0 .35278 -.42451 181.8)" style="fill:#1c1c19">
   <path id="path109257" d="m17.906-9.5938 0.32812-1.7188h-14.953l-0.32812 1.7188zm-1.0469 5.5781 0.32812-1.7031h-14.953l-0.32812 1.7031z"/>
  </g>
  <path id="path86727" d="m128 179.01h26.197" style="fill:none;stroke-linecap:square;stroke-miterlimit:10;stroke-width:.40287;stroke:#000"/>
  <g id="use86729" transform="matrix(.35278 0 0 .35278 128.56 175.66)">
   <path id="path109261" d="m0.79688-5.4375v-2.2344h6.8438v2.2344z"/>
  </g>
  <g id="use86731" transform="matrix(.35278 0 0 .35278 131.54 175.66)">
   <path id="path109265" d="m8.1719 0v-4.3281h-7.8438v-2.0469l8.25-11.734h1.8281v11.734h2.4375v2.0469h-2.4375v4.3281zm0-6.375v-8.1562l-5.6719 8.1562z"/>
  </g>
  <g id="use86735" transform="matrix(.35278 0 0 .35278 138.98 175.66)">
   <path id="path109269" d="m0.79688-5.4375v-2.2344h6.8438v2.2344z"/>
  </g>
  <g id="use86739" transform="matrix(.35278 0 0 .35278 144.43 175.66)">
   <path id="path109273" d="m1.0469-8.9375c0-2.1328 0.21875-3.8516 0.65625-5.1562 0.44531-1.3125 1.1016-2.3203 1.9688-3.0312 0.875-0.70703 1.9688-1.0625 3.2812-1.0625 0.96875 0 1.8164 0.19922 2.5469 0.59375 0.73828 0.38672 1.3477 0.94922 1.8281 1.6875 0.47656 0.74219 0.85156 1.6406 1.125 2.7031 0.26953 1.0547 0.40625 2.4766 0.40625 4.2656 0 2.125-0.21875 3.8438-0.65625 5.1562-0.4375 1.3047-1.0938 2.3125-1.9688 3.0312-0.86719 0.71094-1.9609 1.0625-3.2812 1.0625-1.75 0-3.1211-0.625-4.1094-1.875-1.1992-1.5078-1.7969-3.9688-1.7969-7.375zm2.2812 0c0 2.9805 0.34766 4.9648 1.0469 5.9531 0.69531 0.98047 1.5547 1.4688 2.5781 1.4688 1.0195 0 1.8789-0.49219 2.5781-1.4844 0.69531-0.98828 1.0469-2.9688 1.0469-5.9375 0-2.9766-0.35156-4.957-1.0469-5.9375-0.69922-0.97656-1.5703-1.4688-2.6094-1.4688-1.0234 0-1.8359 0.43359-2.4375 1.2969-0.77344 1.1055-1.1562 3.1406-1.1562 6.1094z"/>
  </g>
  <g id="use86743" transform="matrix(.35278 0 0 .35278 138.86 187.93)">
   <path id="path109277" d="m8.1719 0v-4.3281h-7.8438v-2.0469l8.25-11.734h1.8281v11.734h2.4375v2.0469h-2.4375v4.3281zm0-6.375v-8.1562l-5.6719 8.1562z"/>
  </g>
  <g id="use86747" transform="matrix(.35278 0 0 .35278 109.01 181.8)" style="fill:#1c1c19">
   <path id="path109281" d="m3.0469-13.781 3.4844 6.75-6.2969 7.0312h2.8125l2.6094-3.1094c0.67188-0.82812 1.3125-1.5625 1.9219-2.3906h0.0625c0.32812 0.82812 0.65625 1.5938 1.0469 2.3906l1.4844 3.1094h2.9062l-3.5938-7.125 6.0156-6.6562h-2.75l-2.5156 2.9219c-0.60938 0.75-1.1875 1.4531-1.8125 2.2812h-0.09375c-0.3125-0.76562-0.60938-1.4844-1-2.25l-1.4531-2.9531z"/>
  </g>
  <g id="use86751" transform="matrix(.35278 0 0 .35278 116.01 181.8)" style="fill:#1c1c19">
   <path id="path109285" d="m17.906-9.5938 0.32812-1.7188h-14.953l-0.32812 1.7188zm-1.0469 5.5781 0.32812-1.7031h-14.953l-0.32812 1.7031z"/>
  </g>
  <g id="use86901" transform="matrix(.35278 0 0 .35278 9.1746 219.14)">
   <path id="path109289" d="m0.79688-5.4375v-2.2344h6.8438v2.2344z"/>
  </g>
  <g id="use86903" transform="matrix(.35278 0 0 .35278 12.147 219.14)">
   <path id="path109293" d="m9.4219 0h-2.2188v-14.172c-0.54297 0.51172-1.2461 1.0234-2.1094 1.5312-0.86719 0.51172-1.6484 0.89844-2.3438 1.1562v-2.1562c1.25-0.58203 2.3359-1.2891 3.2656-2.125 0.92578-0.83203 1.582-1.6406 1.9688-2.4219h1.4375z"/>
  </g>
  <g id="use86907" transform="matrix(.35278 0 0 .35278 -10.035 218.8)" style="fill:#1c1c19">
   <path id="path109297" d="m3.0469-13.781 3.4844 6.75-6.2969 7.0312h2.8125l2.6094-3.1094c0.67188-0.82812 1.3125-1.5625 1.9219-2.3906h0.0625c0.32812 0.82812 0.65625 1.5938 1.0469 2.3906l1.4844 3.1094h2.9062l-3.5938-7.125 6.0156-6.6562h-2.75l-2.5156 2.9219c-0.60938 0.75-1.1875 1.4531-1.8125 2.2812h-0.09375c-0.3125-0.76562-0.60938-1.4844-1-2.25l-1.4531-2.9531z"/>
  </g>
  <g id="use86911" transform="matrix(.35278 0 0 .35278 -3.0321 218.8)" style="fill:#1c1c19">
   <path id="path109301" d="m17.906-9.5938 0.32812-1.7188h-14.953l-0.32812 1.7188zm-1.0469 5.5781 0.32812-1.7031h-14.953l-0.32812 1.7031z"/>
  </g>
  <g id="use86917" transform="matrix(.35278 0 0 .35278 128 219.14)">
   <path id="path109305" d="m0.79688-5.4375v-2.2344h6.8438v2.2344z"/>
  </g>
  <g id="use86919" transform="matrix(.35278 0 0 .35278 130.97 219.14)">
   <path id="path109309" d="m9.4219 0h-2.2188v-14.172c-0.54297 0.51172-1.2461 1.0234-2.1094 1.5312-0.86719 0.51172-1.6484 0.89844-2.3438 1.1562v-2.1562c1.25-0.58203 2.3359-1.2891 3.2656-2.125 0.92578-0.83203 1.582-1.6406 1.9688-2.4219h1.4375z"/>
  </g>
  <g id="use86923" transform="matrix(.35278 0 0 .35278 108.79 218.8)" style="fill:#1c1c19">
   <path id="path109313" d="m3.0469-13.781 3.4844 6.75-6.2969 7.0312h2.8125l2.6094-3.1094c0.67188-0.82812 1.3125-1.5625 1.9219-2.3906h0.0625c0.32812 0.82812 0.65625 1.5938 1.0469 2.3906l1.4844 3.1094h2.9062l-3.5938-7.125 6.0156-6.6562h-2.75l-2.5156 2.9219c-0.60938 0.75-1.1875 1.4531-1.8125 2.2812h-0.09375c-0.3125-0.76562-0.60938-1.4844-1-2.25l-1.4531-2.9531z"/>
  </g>
  <g id="use86927" transform="matrix(.35278 0 0 .35278 115.79 218.8)" style="fill:#1c1c19">
   <path id="path109317" d="m17.906-9.5938 0.32812-1.7188h-14.953l-0.32812 1.7188zm-1.0469 5.5781 0.32812-1.7031h-14.953l-0.32812 1.7031z"/>
  </g>
  <path id="path88069" d="m152.06 53.423v85.386" style="fill:none;stroke-miterlimit:10;stroke-width:.38806;stroke:#1c1c19"/>
  <path id="path88071" d="m152.06 51.076c-0.40928 1.1024-1.1079 2.4708-1.8466 3.3183l1.8466-0.66696 1.8452 0.66696c-0.73863-0.84748-1.4373-2.2159-1.8452-3.3183" style="fill:#1c1c19"/>
  <path id="path88073" d="m152.06 141.15c-0.40928-1.1024-1.1079-2.4708-1.8466-3.3183l1.8466 0.66834 1.8452-0.66834c-0.73863 0.84748-1.4373 2.2159-1.8452 3.3183" style="fill:#1c1c19"/>
  <path id="path88075" d="m194.99 95.879h-85.944" style="fill:none;stroke-miterlimit:10;stroke-width:.38806;stroke:#1c1c19"/>
  <path id="path88077" d="m197.33 95.879c-1.1024-0.40929-2.4708-1.1066-3.3183-1.8452l0.66835 1.8452-0.66835 1.8466c0.84749-0.73865 2.2159-1.4373 3.3183-1.8466" style="fill:#1c1c19"/>
  <path id="path88079" d="m106.7 95.879c1.1024-0.40929 2.4694-1.1066 3.3169-1.8452l-0.66697 1.8452 0.66697 1.8466c-0.84749-0.73865-2.2145-1.4373-3.3169-1.8466" style="fill:#1c1c19"/>
  <path id="path88081" d="m159.63 94.831v2.1884" style="fill:none;stroke-miterlimit:10;stroke-width:.42122;stroke:#1c1c19"/>
  <path id="path88083" d="m167.34 94.831v2.1884" style="fill:none;stroke-miterlimit:10;stroke-width:.42122;stroke:#1c1c19"/>
  <path id="path88085" d="m175.06 94.831v2.1884" style="fill:none;stroke-miterlimit:10;stroke-width:.42122;stroke:#1c1c19"/>
  <path id="path88087" d="m182.77 94.831v2.1884" style="fill:none;stroke-miterlimit:10;stroke-width:.42122;stroke:#1c1c19"/>
  <path id="path88089" d="m190.56 94.831v2.1884" style="fill:none;stroke-miterlimit:10;stroke-width:.42122;stroke:#1c1c19"/>
  <path id="path88091" d="m113.3 94.831v2.1884" style="fill:none;stroke-miterlimit:10;stroke-width:.42122;stroke:#1c1c19"/>
  <path id="path88093" d="m121.02 94.831v2.1884" style="fill:none;stroke-miterlimit:10;stroke-width:.42122;stroke:#1c1c19"/>
  <path id="path88095" d="m128.73 94.831v2.1884" style="fill:none;stroke-miterlimit:10;stroke-width:.42122;stroke:#1c1c19"/>
  <path id="path88097" d="m136.45 94.831v2.1884" style="fill:none;stroke-miterlimit:10;stroke-width:.42122;stroke:#1c1c19"/>
  <path id="path88099" d="m144.23 94.831v2.1884" style="fill:none;stroke-miterlimit:10;stroke-width:.42122;stroke:#1c1c19"/>
  <path id="path88101" d="m150.97 88.237h2.1883" style="fill:none;stroke-miterlimit:10;stroke-width:.42122;stroke:#1c1c19"/>
  <path id="path88103" d="m150.97 80.568h2.1883" style="fill:none;stroke-miterlimit:10;stroke-width:.42122;stroke:#1c1c19"/>
  <path id="path88105" d="m150.97 72.853h2.1883" style="fill:none;stroke-miterlimit:10;stroke-width:.42122;stroke:#1c1c19"/>
  <path id="path88107" d="m150.97 65.139h2.1883" style="fill:none;stroke-miterlimit:10;stroke-width:.42122;stroke:#1c1c19"/>
  <path id="path88109" d="m150.97 57.423h2.1883" style="fill:none;stroke-miterlimit:10;stroke-width:.42122;stroke:#1c1c19"/>
  <path id="path88111" d="m150.97 134.55h2.1883" style="fill:none;stroke-miterlimit:10;stroke-width:.42122;stroke:#1c1c19"/>
  <path id="path88113" d="m150.97 126.88h2.1883" style="fill:none;stroke-miterlimit:10;stroke-width:.42122;stroke:#1c1c19"/>
  <path id="path88115" d="m150.97 119.17h2.1883" style="fill:none;stroke-miterlimit:10;stroke-width:.42122;stroke:#1c1c19"/>
  <path id="path88117" d="m150.97 111.45h2.1883" style="fill:none;stroke-miterlimit:10;stroke-width:.42122;stroke:#1c1c19"/>
  <path id="path88119" d="m150.97 103.74h2.1883" style="fill:none;stroke-miterlimit:10;stroke-width:.42122;stroke:#1c1c19"/>
  <path id="path88123" d="m161.6 60.164c-0.7152 19.988-8.2324 35.713-17.402 35.713-9.1695 0-16.687-15.725-17.403-35.712" style="fill:none;stroke-miterlimit:10;stroke-width:.35278;stroke:#1c1cae"/>
  <path id="path88125" d="m160.55 60.842 1.1121-3.8007 0.93707 3.8461z" style="fill:#1c1cae"/>
  <path id="path88127" d="m127.85 60.842-1.1107-3.8007-0.93844 3.8461z" style="fill:#1c1cae"/>
  <path id="path88129" d="m145.1 95.879c0 0.47816-0.38722 0.86678-0.8654 0.86678s-0.86679-0.38862-0.86679-0.86678c0-0.47819 0.38861-0.8654 0.86679-0.8654s0.8654 0.38721 0.8654 0.8654" style="fill:#1c1cae"/>
  <g id="use88131" transform="matrix(.35278 0 0 .35278 142.01 101.16)" style="fill:#1c1c19">
   <path id="path109321" d="m0.34375-3.4062v0.73438h2.7656v-0.73438z"/>
  </g>
  <g id="use88133" transform="matrix(.35278 0 0 .35278 143.25 101.16)" style="fill:#1c1c19">
   <path id="path109325" d="m2.6562 0h0.95312v-7.2969h-0.84375l-1.5938 0.84375 0.1875 0.75 1.2656-0.67188h0.03125z"/>
  </g>
  <g id="use88137" transform="matrix(.35278 0 0 .35278 155.92 53.583)" style="fill:#1c1c19">
   <path id="path109329" d="m0.09375-5.4375 2.0156 5.0156c0.046875 0.125 0.0625 0.20312 0.0625 0.25 0 0.0625-0.03125 0.14062-0.078125 0.23438-0.21875 0.51562-0.54688 0.89062-0.82812 1.1094-0.28125 0.25-0.60938 0.40625-0.85938 0.48438l0.25 0.82812c0.25-0.046875 0.71875-0.21875 1.2031-0.64062 0.67188-0.57812 1.1562-1.5469 1.875-3.4062l1.4844-3.875h-1.0469l-1.0781 3.1875c-0.14062 0.39062-0.25 0.8125-0.35938 1.1406h-0.015625c-0.09375-0.32812-0.21875-0.75-0.34375-1.1094l-1.2031-3.2188z"/>
  </g>
  <g id="use88141" transform="matrix(.35278 0 0 .35278 194.47 91.829)" style="fill:#1c1c19">
   <path id="path109333" d="m0.1875-5.4375 1.8281 2.6562-1.9219 2.7812h1.0781l0.79688-1.2188c0.20312-0.32812 0.39062-0.625 0.5625-0.95312h0.03125c0.1875 0.32812 0.375 0.625 0.57812 0.95312l0.79688 1.2188h1.125l-1.9062-2.8125 1.8594-2.625h-1.0781l-0.76562 1.1562c-0.17188 0.29688-0.35938 0.57812-0.53125 0.90625h-0.03125c-0.1875-0.3125-0.34375-0.59375-0.54688-0.89062l-0.78125-1.1719z"/>
  </g>
 </g>
</svg>
