<svg id="svg111911" version="1.1" viewBox="0 0 158.26 99.944" xmlns="http://www.w3.org/2000/svg">
 <title id="title112255">img_87</title>
 <g id="layer1" transform="translate(.51308 -86.855)">
  <path id="path86201" d="m18.4 98.68h72.26" style="fill:none;stroke-linecap:square;stroke-miterlimit:10;stroke-width:.40287;stroke:#000"/>
  <g id="use86203" transform="matrix(.35278 0 0 .35278 18.958 95.329)">
   <path id="path111571" d="m0.79688-5.4375v-2.2344h6.8438v2.2344z"/>
  </g>
  <g id="use86205" transform="matrix(.35278 0 0 .35278 21.93 95.329)">
   <path id="path111575" d="m8.1719 0v-4.3281h-7.8438v-2.0469l8.25-11.734h1.8281v11.734h2.4375v2.0469h-2.4375v4.3281zm0-6.375v-8.1562l-5.6719 8.1562z"/>
  </g>
  <g id="use86209" transform="matrix(.35278 0 0 .35278 29.375 95.329)">
   <path id="path111579" d="m5.8906-3.2188v-4.9688h-4.9219v-2.0625h4.9219v-4.9375h2.0938v4.9375h4.9375v2.0625h-4.9375v4.9688zm7.0312 3.2188h-11.953v-2.0781h11.953z"/>
  </g>
  <g id="use86213" transform="matrix(.35278 0 0 .35278 36.758 95.329)">
   <path id="path111583" d="m12.969-23.078h0.92188l-3.8594 24.047-6.125-12.609-2.4531 1.1094-0.42188-0.78125 3.7188-1.8594 5.0156 10.156z"/>
  </g>
  <g id="use86217" transform="matrix(.35278 0 0 .35278 44.14 95.329)">
   <path id="path111587" d="m8.1719 0v-4.3281h-7.8438v-2.0469l8.25-11.734h1.8281v11.734h2.4375v2.0469h-2.4375v4.3281zm0-6.375v-8.1562l-5.6719 8.1562z"/>
  </g>
  <g id="use86221" transform="matrix(.35278 0 0 .35278 49.098 92.359)">
   <path id="path111591" d="m7.4219-1.25v1.25h-6.9688c-0.011719-0.3125 0.035156-0.61328 0.14062-0.90625 0.17578-0.46875 0.45703-0.92969 0.84375-1.3906 0.39453-0.46875 0.96094-1.0039 1.7031-1.6094 1.1562-0.9375 1.9297-1.6797 2.3281-2.2344 0.40625-0.55078 0.60938-1.0703 0.60938-1.5625 0-0.50781-0.18359-0.94141-0.54688-1.2969-0.36719-0.35156-0.84375-0.53125-1.4375-0.53125-0.625 0-1.125 0.1875-1.5 0.5625s-0.5625 0.89844-0.5625 1.5625l-1.3438-0.14062c0.09375-0.98828 0.4375-1.7422 1.0312-2.2656 0.59375-0.53125 1.3945-0.79688 2.4062-0.79688 1.0078 0 1.8047 0.28125 2.3906 0.84375 0.59375 0.5625 0.89062 1.2617 0.89062 2.0938 0 0.42969-0.089844 0.84375-0.26562 1.25-0.16797 0.40625-0.45312 0.83984-0.85938 1.2969-0.39844 0.44922-1.0586 1.0625-1.9844 1.8438-0.78125 0.65625-1.2812 1.1055-1.5 1.3438-0.21875 0.23047-0.40234 0.46094-0.54688 0.6875z"/>
  </g>
  <g id="use86227" transform="matrix(.35278 0 0 .35278 53.439 95.329)">
   <path id="path111595" d="m0.79688-5.4375v-2.2344h6.8438v2.2344z"/>
  </g>
  <g id="use86231" transform="matrix(.35278 0 0 .35278 58.893 95.329)">
   <path id="path111599" d="m8.1719 0v-4.3281h-7.8438v-2.0469l8.25-11.734h1.8281v11.734h2.4375v2.0469h-2.4375v4.3281zm0-6.375v-8.1562l-5.6719 8.1562z"/>
  </g>
  <g id="use86233" transform="matrix(.35278 0 0 .35278 63.856 95.329)">
   <path id="path111603" d="m5.9219 5.3281c-1.2305-1.5547-2.2734-3.3672-3.125-5.4375-0.84375-2.0703-1.2656-4.2227-1.2656-6.4531 0-1.957 0.31641-3.832 0.95312-5.625 0.73828-2.082 1.8828-4.1602 3.4375-6.2344h1.5938c-1 1.7188-1.6641 2.9453-1.9844 3.6719-0.5 1.1367-0.89844 2.3242-1.1875 3.5625-0.35547 1.543-0.53125 3.0898-0.53125 4.6406 0 3.9609 1.2344 7.9141 3.7031 11.875z"/>
  </g>
  <g id="use86235" transform="matrix(.35278 0 0 .35278 66.829 95.329)">
   <path id="path111607" d="m1.0625-4.7812 2.2188-0.29688c0.25781 1.2617 0.69531 2.1719 1.3125 2.7344 0.61328 0.55469 1.3594 0.82812 2.2344 0.82812 1.0508 0 1.9375-0.35938 2.6562-1.0781 0.71875-0.72656 1.0781-1.6289 1.0781-2.7031 0-1.0195-0.33594-1.8594-1-2.5156-0.66797-0.66406-1.5156-1-2.5469-1-0.41797 0-0.9375 0.078125-1.5625 0.23438l0.23438-1.9531c0.15625 0.02344 0.27344 0.03125 0.35938 0.03125 0.94531 0 1.8008-0.24219 2.5625-0.73438 0.75781-0.5 1.1406-1.2656 1.1406-2.2969 0-0.8125-0.27734-1.4844-0.82812-2.0156-0.55469-0.53906-1.2656-0.8125-2.1406-0.8125-0.86719 0-1.5898 0.27734-2.1719 0.82812-0.57422 0.54297-0.9375 1.3555-1.0938 2.4375l-2.2344-0.39062c0.26953-1.4883 0.88281-2.6445 1.8438-3.4688 0.96875-0.82031 2.1719-1.2344 3.6094-1.2344 0.98828 0 1.8945 0.21484 2.7188 0.64062 0.83203 0.42969 1.4688 1.0078 1.9062 1.7344 0.44531 0.73047 0.67188 1.5117 0.67188 2.3438 0 0.78125-0.21484 1.4961-0.64062 2.1406-0.41797 0.63672-1.0391 1.1406-1.8594 1.5156 1.0703 0.25 1.9062 0.76562 2.5 1.5469 0.59375 0.77344 0.89062 1.7461 0.89062 2.9219 0 1.5742-0.57812 2.9141-1.7344 4.0156-1.1484 1.1055-2.6055 1.6562-4.375 1.6562-1.5859 0-2.9023-0.47266-3.9531-1.4219-1.0547-0.94531-1.6523-2.1758-1.7969-3.6875z"/>
  </g>
  <g id="use86237" transform="matrix(.35278 0 0 .35278 71.792 95.329)">
   <path id="path111611" d="m3.125 5.3281h-1.5938c2.457-3.9609 3.6875-7.9141 3.6875-11.875 0-1.5508-0.17969-3.0859-0.53125-4.6094-0.27344-1.2266-0.66406-2.4141-1.1719-3.5625-0.32422-0.73828-0.98438-1.9727-1.9844-3.7031h1.5938c1.5508 2.0742 2.6953 4.1523 3.4375 6.2344 0.63281 1.793 0.95312 3.668 0.95312 5.625 0 2.2305-0.42969 4.3828-1.2812 6.4531-0.85547 2.0703-1.8906 3.8828-3.1094 5.4375z"/>
  </g>
  <g id="use86239" transform="matrix(.35278 0 0 .35278 74.765 95.329)">
   <path id="path111615" d="m5.9219 5.3281c-1.2305-1.5547-2.2734-3.3672-3.125-5.4375-0.84375-2.0703-1.2656-4.2227-1.2656-6.4531 0-1.957 0.31641-3.832 0.95312-5.625 0.73828-2.082 1.8828-4.1602 3.4375-6.2344h1.5938c-1 1.7188-1.6641 2.9453-1.9844 3.6719-0.5 1.1367-0.89844 2.3242-1.1875 3.5625-0.35547 1.543-0.53125 3.0898-0.53125 4.6406 0 3.9609 1.2344 7.9141 3.7031 11.875z"/>
  </g>
  <g id="use86241" transform="matrix(.35278 0 0 .35278 77.737 95.329)">
   <path id="path111619" d="m12.734-2.1406v2.1406h-11.969c-0.023437-0.53125 0.066406-1.0469 0.26562-1.5469 0.30078-0.8125 0.78516-1.6133 1.4531-2.4062 0.67578-0.78906 1.6445-1.7031 2.9062-2.7344 1.9688-1.6133 3.2969-2.8906 3.9844-3.8281 0.69531-0.94531 1.0469-1.8438 1.0469-2.6875 0-0.88281-0.32031-1.6289-0.95312-2.2344-0.625-0.60156-1.4453-0.90625-2.4531-0.90625-1.0742 0-1.9336 0.32422-2.5781 0.96875-0.63672 0.63672-0.96094 1.5273-0.96875 2.6719l-2.2812-0.23438c0.15625-1.707 0.74219-3.0078 1.7656-3.9062 1.0195-0.89453 2.3906-1.3438 4.1094-1.3438 1.7383 0 3.1133 0.48438 4.125 1.4531 1.0078 0.96094 1.5156 2.1523 1.5156 3.5781 0 0.73047-0.14844 1.4453-0.4375 2.1406-0.29297 0.69922-0.78125 1.4375-1.4688 2.2188-0.6875 0.77344-1.8359 1.8281-3.4375 3.1719-1.3359 1.125-2.1953 1.8906-2.5781 2.2969-0.375 0.39844-0.68359 0.79297-0.92188 1.1875z"/>
  </g>
  <g id="use86243" transform="matrix(.35278 0 0 .35278 82.701 95.329)">
   <path id="path111623" d="m3.125 5.3281h-1.5938c2.457-3.9609 3.6875-7.9141 3.6875-11.875 0-1.5508-0.17969-3.0859-0.53125-4.6094-0.27344-1.2266-0.66406-2.4141-1.1719-3.5625-0.32422-0.73828-0.98438-1.9727-1.9844-3.7031h1.5938c1.5508 2.0742 2.6953 4.1523 3.4375 6.2344 0.63281 1.793 0.95312 3.668 0.95312 5.625 0 2.2305-0.42969 4.3828-1.2812 6.4531-0.85547 2.0703-1.8906 3.8828-3.1094 5.4375z"/>
  </g>
  <g id="use86247" transform="matrix(.35278 0 0 .35278 46.44 107.6)">
   <path id="path111627" d="m12.734-2.1406v2.1406h-11.969c-0.023437-0.53125 0.066406-1.0469 0.26562-1.5469 0.30078-0.8125 0.78516-1.6133 1.4531-2.4062 0.67578-0.78906 1.6445-1.7031 2.9062-2.7344 1.9688-1.6133 3.2969-2.8906 3.9844-3.8281 0.69531-0.94531 1.0469-1.8438 1.0469-2.6875 0-0.88281-0.32031-1.6289-0.95312-2.2344-0.625-0.60156-1.4453-0.90625-2.4531-0.90625-1.0742 0-1.9336 0.32422-2.5781 0.96875-0.63672 0.63672-0.96094 1.5273-0.96875 2.6719l-2.2812-0.23438c0.15625-1.707 0.74219-3.0078 1.7656-3.9062 1.0195-0.89453 2.3906-1.3438 4.1094-1.3438 1.7383 0 3.1133 0.48438 4.125 1.4531 1.0078 0.96094 1.5156 2.1523 1.5156 3.5781 0 0.73047-0.14844 1.4453-0.4375 2.1406-0.29297 0.69922-0.78125 1.4375-1.4688 2.2188-0.6875 0.77344-1.8359 1.8281-3.4375 3.1719-1.3359 1.125-2.1953 1.8906-2.5781 2.2969-0.375 0.39844-0.68359 0.79297-0.92188 1.1875z"/>
  </g>
  <g id="use86249" transform="matrix(.35278 0 0 .35278 51.403 107.6)">
   <path id="path111631" d="m5.9219 5.3281c-1.2305-1.5547-2.2734-3.3672-3.125-5.4375-0.84375-2.0703-1.2656-4.2227-1.2656-6.4531 0-1.957 0.31641-3.832 0.95312-5.625 0.73828-2.082 1.8828-4.1602 3.4375-6.2344h1.5938c-1 1.7188-1.6641 2.9453-1.9844 3.6719-0.5 1.1367-0.89844 2.3242-1.1875 3.5625-0.35547 1.543-0.53125 3.0898-0.53125 4.6406 0 3.9609 1.2344 7.9141 3.7031 11.875z"/>
  </g>
  <g id="use86251" transform="matrix(.35278 0 0 .35278 54.376 107.6)">
   <path id="path111635" d="m1.0625-4.7812 2.2188-0.29688c0.25781 1.2617 0.69531 2.1719 1.3125 2.7344 0.61328 0.55469 1.3594 0.82812 2.2344 0.82812 1.0508 0 1.9375-0.35938 2.6562-1.0781 0.71875-0.72656 1.0781-1.6289 1.0781-2.7031 0-1.0195-0.33594-1.8594-1-2.5156-0.66797-0.66406-1.5156-1-2.5469-1-0.41797 0-0.9375 0.078125-1.5625 0.23438l0.23438-1.9531c0.15625 0.02344 0.27344 0.03125 0.35938 0.03125 0.94531 0 1.8008-0.24219 2.5625-0.73438 0.75781-0.5 1.1406-1.2656 1.1406-2.2969 0-0.8125-0.27734-1.4844-0.82812-2.0156-0.55469-0.53906-1.2656-0.8125-2.1406-0.8125-0.86719 0-1.5898 0.27734-2.1719 0.82812-0.57422 0.54297-0.9375 1.3555-1.0938 2.4375l-2.2344-0.39062c0.26953-1.4883 0.88281-2.6445 1.8438-3.4688 0.96875-0.82031 2.1719-1.2344 3.6094-1.2344 0.98828 0 1.8945 0.21484 2.7188 0.64062 0.83203 0.42969 1.4688 1.0078 1.9062 1.7344 0.44531 0.73047 0.67188 1.5117 0.67188 2.3438 0 0.78125-0.21484 1.4961-0.64062 2.1406-0.41797 0.63672-1.0391 1.1406-1.8594 1.5156 1.0703 0.25 1.9062 0.76562 2.5 1.5469 0.59375 0.77344 0.89062 1.7461 0.89062 2.9219 0 1.5742-0.57812 2.9141-1.7344 4.0156-1.1484 1.1055-2.6055 1.6562-4.375 1.6562-1.5859 0-2.9023-0.47266-3.9531-1.4219-1.0547-0.94531-1.6523-2.1758-1.7969-3.6875z"/>
  </g>
  <g id="use86253" transform="matrix(.35278 0 0 .35278 59.339 107.6)">
   <path id="path111639" d="m3.125 5.3281h-1.5938c2.457-3.9609 3.6875-7.9141 3.6875-11.875 0-1.5508-0.17969-3.0859-0.53125-4.6094-0.27344-1.2266-0.66406-2.4141-1.1719-3.5625-0.32422-0.73828-0.98438-1.9727-1.9844-3.7031h1.5938c1.5508 2.0742 2.6953 4.1523 3.4375 6.2344 0.63281 1.793 0.95312 3.668 0.95312 5.625 0 2.2305-0.42969 4.3828-1.2812 6.4531-0.85547 2.0703-1.8906 3.8828-3.1094 5.4375z"/>
  </g>
  <g id="use86257" transform="matrix(.35278 0 0 .35278 -.59576 101.47)" style="fill:#1c1c19">
   <path id="path111643" d="m3.0469-13.781 3.4844 6.75-6.2969 7.0312h2.8125l2.6094-3.1094c0.67188-0.82812 1.3125-1.5625 1.9219-2.3906h0.0625c0.32812 0.82812 0.65625 1.5938 1.0469 2.3906l1.4844 3.1094h2.9062l-3.5938-7.125 6.0156-6.6562h-2.75l-2.5156 2.9219c-0.60938 0.75-1.1875 1.4531-1.8125 2.2812h-0.09375c-0.3125-0.76562-0.60938-1.4844-1-2.25l-1.4531-2.9531z"/>
  </g>
  <g id="use86261" transform="matrix(.35278 0 0 .35278 6.4067 101.47)" style="fill:#1c1c19">
   <path id="path111647" d="m17.906-9.5938 0.32812-1.7188h-14.953l-0.32812 1.7188zm-1.0469 5.5781 0.32812-1.7031h-14.953l-0.32812 1.7031z"/>
  </g>
  <path id="path86267" d="m41.394 87.032h49.266" style="fill:none;stroke-miterlimit:10;stroke-width:.35278;stroke:#000"/>
  <path id="path86611" d="m41.909 122.68h36.834" style="fill:none;stroke-miterlimit:10;stroke-width:.35278;stroke:#000"/>
  <path id="path86613" d="m18.961 134.17h59.782" style="fill:none;stroke-linecap:square;stroke-miterlimit:10;stroke-width:.40287;stroke:#000"/>
  <g id="use86615" transform="matrix(.35278 0 0 .35278 19.518 130.83)">
   <path id="path111651" d="m0.79688-5.4375v-2.2344h6.8438v2.2344z"/>
  </g>
  <g id="use86617" transform="matrix(.35278 0 0 .35278 22.491 130.83)">
   <path id="path111655" d="m8.1719 0v-4.3281h-7.8438v-2.0469l8.25-11.734h1.8281v11.734h2.4375v2.0469h-2.4375v4.3281zm0-6.375v-8.1562l-5.6719 8.1562z"/>
  </g>
  <g id="use86621" transform="matrix(.35278 0 0 .35278 29.936 130.83)">
   <path id="path111659" d="m5.8906-3.2188v-4.9688h-4.9219v-2.0625h4.9219v-4.9375h2.0938v4.9375h4.9375v2.0625h-4.9375v4.9688zm7.0312 3.2188h-11.953v-2.0781h11.953z"/>
  </g>
  <g id="use86625" transform="matrix(.35278 0 0 .35278 37.318 130.83)">
   <path id="path111663" d="m12.969-23.078h0.92188l-3.8594 24.047-6.125-12.609-2.4531 1.1094-0.42188-0.78125 3.7188-1.8594 5.0156 10.156z"/>
  </g>
  <g id="use86629" transform="matrix(.35278 0 0 .35278 44.701 130.83)">
   <path id="path111667" d="m9.4219 0h-2.2188v-14.172c-0.54297 0.51172-1.2461 1.0234-2.1094 1.5312-0.86719 0.51172-1.6484 0.89844-2.3438 1.1562v-2.1562c1.25-0.58203 2.3359-1.2891 3.2656-2.125 0.92578-0.83203 1.582-1.6406 1.9688-2.4219h1.4375z"/>
  </g>
  <g id="use86631" transform="matrix(.35278 0 0 .35278 49.664 130.83)">
   <path id="path111671" d="m12.594-13.672-2.2188 0.17188c-0.19922-0.875-0.48047-1.5078-0.84375-1.9062-0.59375-0.63281-1.3359-0.95312-2.2188-0.95312-0.71094 0-1.3281 0.19922-1.8594 0.59375-0.71094 0.51172-1.2656 1.2578-1.6719 2.2344-0.39844 0.98047-0.60547 2.375-0.625 4.1875 0.53906-0.8125 1.1953-1.4141 1.9688-1.8125 0.76953-0.39453 1.582-0.59375 2.4375-0.59375 1.4766 0 2.7383 0.54688 3.7812 1.6406 1.0391 1.0938 1.5625 2.5078 1.5625 4.2344 0 1.1367-0.24609 2.1953-0.73438 3.1719-0.49219 0.96875-1.1641 1.7148-2.0156 2.2344-0.85547 0.51953-1.8281 0.78125-2.9219 0.78125-1.8555 0-3.3672-0.67969-4.5312-2.0469-1.168-1.3633-1.75-3.6094-1.75-6.7344 0-3.5 0.64453-6.0469 1.9375-7.6406 1.125-1.3828 2.6445-2.0781 4.5625-2.0781 1.4141 0 2.5781 0.40234 3.4844 1.2031 0.91406 0.80469 1.4688 1.9062 1.6562 3.3125zm-9.0781 7.7969c0 0.77344 0.16016 1.5078 0.48438 2.2031 0.32031 0.69922 0.77344 1.2344 1.3594 1.6094 0.58203 0.36719 1.1953 0.54688 1.8438 0.54688 0.9375 0 1.7422-0.37891 2.4219-1.1406 0.67578-0.75781 1.0156-1.7891 1.0156-3.0938 0-1.25-0.33594-2.2344-1-2.9531-0.66797-0.71875-1.5117-1.0781-2.5312-1.0781-1 0-1.8516 0.35938-2.5469 1.0781-0.69922 0.71875-1.0469 1.6641-1.0469 2.8281z"/>
  </g>
  <g id="use86635" transform="matrix(.35278 0 0 .35278 57.109 130.83)">
   <path id="path111675" d="m0.79688-5.4375v-2.2344h6.8438v2.2344z"/>
  </g>
  <g id="use86639" transform="matrix(.35278 0 0 .35278 62.563 130.83)">
   <path id="path111679" d="m12.734-2.1406v2.1406h-11.969c-0.023437-0.53125 0.066406-1.0469 0.26562-1.5469 0.30078-0.8125 0.78516-1.6133 1.4531-2.4062 0.67578-0.78906 1.6445-1.7031 2.9062-2.7344 1.9688-1.6133 3.2969-2.8906 3.9844-3.8281 0.69531-0.94531 1.0469-1.8438 1.0469-2.6875 0-0.88281-0.32031-1.6289-0.95312-2.2344-0.625-0.60156-1.4453-0.90625-2.4531-0.90625-1.0742 0-1.9336 0.32422-2.5781 0.96875-0.63672 0.63672-0.96094 1.5273-0.96875 2.6719l-2.2812-0.23438c0.15625-1.707 0.74219-3.0078 1.7656-3.9062 1.0195-0.89453 2.3906-1.3438 4.1094-1.3438 1.7383 0 3.1133 0.48438 4.125 1.4531 1.0078 0.96094 1.5156 2.1523 1.5156 3.5781 0 0.73047-0.14844 1.4453-0.4375 2.1406-0.29297 0.69922-0.78125 1.4375-1.4688 2.2188-0.6875 0.77344-1.8359 1.8281-3.4375 3.1719-1.3359 1.125-2.1953 1.8906-2.5781 2.2969-0.375 0.39844-0.68359 0.79297-0.92188 1.1875z"/>
  </g>
  <g id="use86641" transform="matrix(.35278 0 0 .35278 67.526 130.83)">
   <path id="path111683" d="m8.1719 0v-4.3281h-7.8438v-2.0469l8.25-11.734h1.8281v11.734h2.4375v2.0469h-2.4375v4.3281zm0-6.375v-8.1562l-5.6719 8.1562z"/>
  </g>
  <g id="use86645" transform="matrix(.35278 0 0 .35278 46.441 143.1)">
   <path id="path111687" d="m12.594-13.672-2.2188 0.17188c-0.19922-0.875-0.48047-1.5078-0.84375-1.9062-0.59375-0.63281-1.3359-0.95312-2.2188-0.95312-0.71094 0-1.3281 0.19922-1.8594 0.59375-0.71094 0.51172-1.2656 1.2578-1.6719 2.2344-0.39844 0.98047-0.60547 2.375-0.625 4.1875 0.53906-0.8125 1.1953-1.4141 1.9688-1.8125 0.76953-0.39453 1.582-0.59375 2.4375-0.59375 1.4766 0 2.7383 0.54688 3.7812 1.6406 1.0391 1.0938 1.5625 2.5078 1.5625 4.2344 0 1.1367-0.24609 2.1953-0.73438 3.1719-0.49219 0.96875-1.1641 1.7148-2.0156 2.2344-0.85547 0.51953-1.8281 0.78125-2.9219 0.78125-1.8555 0-3.3672-0.67969-4.5312-2.0469-1.168-1.3633-1.75-3.6094-1.75-6.7344 0-3.5 0.64453-6.0469 1.9375-7.6406 1.125-1.3828 2.6445-2.0781 4.5625-2.0781 1.4141 0 2.5781 0.40234 3.4844 1.2031 0.91406 0.80469 1.4688 1.9062 1.6562 3.3125zm-9.0781 7.7969c0 0.77344 0.16016 1.5078 0.48438 2.2031 0.32031 0.69922 0.77344 1.2344 1.3594 1.6094 0.58203 0.36719 1.1953 0.54688 1.8438 0.54688 0.9375 0 1.7422-0.37891 2.4219-1.1406 0.67578-0.75781 1.0156-1.7891 1.0156-3.0938 0-1.25-0.33594-2.2344-1-2.9531-0.66797-0.71875-1.5117-1.0781-2.5312-1.0781-1 0-1.8516 0.35938-2.5469 1.0781-0.69922 0.71875-1.0469 1.6641-1.0469 2.8281z"/>
  </g>
  <g id="use86649" transform="matrix(.35278 0 0 .35278 -.035093 136.96)" style="fill:#1c1c19">
   <path id="path111691" d="m3.0469-13.781 3.4844 6.75-6.2969 7.0312h2.8125l2.6094-3.1094c0.67188-0.82812 1.3125-1.5625 1.9219-2.3906h0.0625c0.32812 0.82812 0.65625 1.5938 1.0469 2.3906l1.4844 3.1094h2.9062l-3.5938-7.125 6.0156-6.6562h-2.75l-2.5156 2.9219c-0.60938 0.75-1.1875 1.4531-1.8125 2.2812h-0.09375c-0.3125-0.76562-0.60938-1.4844-1-2.25l-1.4531-2.9531z"/>
  </g>
  <g id="use86653" transform="matrix(.35278 0 0 .35278 6.9674 136.96)" style="fill:#1c1c19">
   <path id="path111695" d="m17.906-9.5938 0.32812-1.7188h-14.953l-0.32812 1.7188zm-1.0469 5.5781 0.32812-1.7031h-14.953l-0.32812 1.7031z"/>
  </g>
  <path id="path86659" d="m18.852 177.76h36.638" style="fill:none;stroke-linecap:square;stroke-miterlimit:10;stroke-width:.40287;stroke:#000"/>
  <g id="use86661" transform="matrix(.35278 0 0 .35278 19.411 174.42)">
   <path id="path111699" d="m0.79688-5.4375v-2.2344h6.8438v2.2344z"/>
  </g>
  <g id="use86663" transform="matrix(.35278 0 0 .35278 22.383 174.42)">
   <path id="path111703" d="m8.1719 0v-4.3281h-7.8438v-2.0469l8.25-11.734h1.8281v11.734h2.4375v2.0469h-2.4375v4.3281zm0-6.375v-8.1562l-5.6719 8.1562z"/>
  </g>
  <g id="use86667" transform="matrix(.35278 0 0 .35278 29.828 174.42)">
   <path id="path111707" d="m5.8906-3.2188v-4.9688h-4.9219v-2.0625h4.9219v-4.9375h2.0938v4.9375h4.9375v2.0625h-4.9375v4.9688zm7.0312 3.2188h-11.953v-2.0781h11.953z"/>
  </g>
  <g id="use86671" transform="matrix(.35278 0 0 .35278 37.211 174.42)">
   <path id="path111711" d="m12.969-23.078h0.92188l-3.8594 24.047-6.125-12.609-2.4531 1.1094-0.42188-0.78125 3.7188-1.8594 5.0156 10.156z"/>
  </g>
  <g id="use86675" transform="matrix(.35278 0 0 .35278 44.593 174.42)">
   <path id="path111715" d="m0.79688-5.4375v-2.2344h6.8438v2.2344z"/>
  </g>
  <g id="use86677" transform="matrix(.35278 0 0 .35278 47.566 174.42)">
   <path id="path111719" d="m4.4688-9.8125c-0.91797-0.34375-1.6016-0.82812-2.0469-1.4531-0.44922-0.625-0.67188-1.375-0.67188-2.25 0-1.3125 0.47266-2.4141 1.4219-3.3125 0.94531-0.90625 2.207-1.3594 3.7812-1.3594 1.582 0 2.8516 0.46484 3.8125 1.3906 0.96875 0.91797 1.4531 2.0312 1.4531 3.3438 0 0.84375-0.22656 1.5781-0.67188 2.2031-0.4375 0.61719-1.1055 1.0938-2 1.4375 1.1133 0.35547 1.957 0.9375 2.5312 1.75 0.58203 0.80469 0.875 1.7656 0.875 2.8906 0 1.543-0.54688 2.8438-1.6406 3.9062-1.0938 1.0547-2.5391 1.5781-4.3281 1.5781-1.7812 0-3.2188-0.52344-4.3125-1.5781-1.0938-1.0625-1.6406-2.3828-1.6406-3.9688 0-1.1758 0.29688-2.1602 0.89062-2.9531 0.59375-0.80078 1.4414-1.3438 2.5469-1.625zm-0.4375-3.7812c0 0.86719 0.27344 1.5703 0.82812 2.1094 0.55078 0.54297 1.2656 0.8125 2.1406 0.8125 0.85156 0 1.5547-0.26953 2.1094-0.8125 0.55078-0.53906 0.82812-1.2031 0.82812-1.9844 0-0.8125-0.28906-1.4922-0.85938-2.0469-0.5625-0.5625-1.2617-0.84375-2.0938-0.84375-0.85547 0-1.5625 0.27734-2.125 0.82812-0.55469 0.54297-0.82812 1.1875-0.82812 1.9375zm-0.71875 8.375c0 0.625 0.14844 1.2344 0.45312 1.8281 0.30078 0.59375 0.74219 1.0586 1.3281 1.3906 0.59375 0.32422 1.2344 0.48438 1.9219 0.48438 1.0625 0 1.9375-0.33594 2.625-1.0156 0.69531-0.6875 1.0469-1.5625 1.0469-2.625s-0.35938-1.9414-1.0781-2.6406c-0.71094-0.70703-1.6016-1.0625-2.6719-1.0625-1.043 0-1.9062 0.35156-2.5938 1.0469-0.6875 0.6875-1.0312 1.5547-1.0312 2.5938z"/>
  </g>
  <g id="use86681" transform="matrix(.35278 0 0 .35278 35.247 186.69)">
   <path id="path111723" d="m12.594-13.672-2.2188 0.17188c-0.19922-0.875-0.48047-1.5078-0.84375-1.9062-0.59375-0.63281-1.3359-0.95312-2.2188-0.95312-0.71094 0-1.3281 0.19922-1.8594 0.59375-0.71094 0.51172-1.2656 1.2578-1.6719 2.2344-0.39844 0.98047-0.60547 2.375-0.625 4.1875 0.53906-0.8125 1.1953-1.4141 1.9688-1.8125 0.76953-0.39453 1.582-0.59375 2.4375-0.59375 1.4766 0 2.7383 0.54688 3.7812 1.6406 1.0391 1.0938 1.5625 2.5078 1.5625 4.2344 0 1.1367-0.24609 2.1953-0.73438 3.1719-0.49219 0.96875-1.1641 1.7148-2.0156 2.2344-0.85547 0.51953-1.8281 0.78125-2.9219 0.78125-1.8555 0-3.3672-0.67969-4.5312-2.0469-1.168-1.3633-1.75-3.6094-1.75-6.7344 0-3.5 0.64453-6.0469 1.9375-7.6406 1.125-1.3828 2.6445-2.0781 4.5625-2.0781 1.4141 0 2.5781 0.40234 3.4844 1.2031 0.91406 0.80469 1.4688 1.9062 1.6562 3.3125zm-9.0781 7.7969c0 0.77344 0.16016 1.5078 0.48438 2.2031 0.32031 0.69922 0.77344 1.2344 1.3594 1.6094 0.58203 0.36719 1.1953 0.54688 1.8438 0.54688 0.9375 0 1.7422-0.37891 2.4219-1.1406 0.67578-0.75781 1.0156-1.7891 1.0156-3.0938 0-1.25-0.33594-2.2344-1-2.9531-0.66797-0.71875-1.5117-1.0781-2.5312-1.0781-1 0-1.8516 0.35938-2.5469 1.0781-0.69922 0.71875-1.0469 1.6641-1.0469 2.8281z"/>
  </g>
  <g id="use86685" transform="matrix(.35278 0 0 .35278 -.14273 180.55)" style="fill:#1c1c19">
   <path id="path111727" d="m3.0469-13.781 3.4844 6.75-6.2969 7.0312h2.8125l2.6094-3.1094c0.67188-0.82812 1.3125-1.5625 1.9219-2.3906h0.0625c0.32812 0.82812 0.65625 1.5938 1.0469 2.3906l1.4844 3.1094h2.9062l-3.5938-7.125 6.0156-6.6562h-2.75l-2.5156 2.9219c-0.60938 0.75-1.1875 1.4531-1.8125 2.2812h-0.09375c-0.3125-0.76562-0.60938-1.4844-1-2.25l-1.4531-2.9531z"/>
  </g>
  <g id="use86689" transform="matrix(.35278 0 0 .35278 6.8598 180.55)" style="fill:#1c1c19">
   <path id="path111731" d="m17.906-9.5938 0.32812-1.7188h-14.953l-0.32812 1.7188zm-1.0469 5.5781 0.32812-1.7031h-14.953l-0.32812 1.7031z"/>
  </g>
  <path id="path86695" d="m41.904 166.21h13.586" style="fill:none;stroke-miterlimit:10;stroke-width:.35278;stroke:#000"/>
  <g id="use87951" transform="matrix(.35278 0 0 .35278 103.07 178.47)" style="fill:#c00">
   <path id="path111735" d="m0.8125-8.1719v1.75h6.6562v-1.75z"/>
  </g>
  <g id="use87955" transform="matrix(.35278 0 0 .35278 108.1 178.47)" style="fill:#c00">
   <path id="path111739" d="m4.2656 0v-7.7656c0-3.0156-0.0625-5.2031-0.1875-7.5l0.078125-0.03125c0.90625 1.9688 2.125 4.0469 3.3906 6.0781l5.7812 9.2188h2.375v-18.172h-2.2188v7.5938c0 2.8438 0.04687 5.0469 0.26562 7.4844l-0.04687 0.015625c-0.85938-1.8594-1.9219-3.7656-3.2656-5.9062l-5.8281-9.1875h-2.5625v18.172z"/>
  </g>
  <g id="use87957" transform="matrix(.35278 0 0 .35278 114.41 178.47)" style="fill:#c00">
   <path id="path111743" d="m7.5-13.344c-3.6094 0-6.4688 2.5625-6.4688 6.9219 0 4.125 2.7188 6.7188 6.25 6.7188 3.1562 0 6.5-2.1094 6.5-6.9375 0-3.9844-2.5312-6.7031-6.2812-6.7031zm-0.0625 1.7812c2.8125 0 3.9219 2.7969 3.9219 5.0156 0 2.9375-1.7031 5.0625-3.9688 5.0625-2.3281 0-3.9688-2.1562-3.9688-5.0156 0-2.4844 1.2188-5.0625 4.0156-5.0625z"/>
  </g>
  <g id="use87959" transform="matrix(.35278 0 0 .35278 119.68 178.47)" style="fill:#c00">
   <path id="path111747" d="m2.5156-16.188v3.1406h-2.0312v1.7969h2.0312v7.125c0 1.5312 0.23438 2.7031 0.90625 3.3906 0.5625 0.65625 1.4531 1 2.5625 1 0.92188 0 1.6406-0.125 2.1094-0.3125l-0.10938-1.7812c-0.29688 0.078125-0.75 0.15625-1.375 0.15625-1.3281 0-1.7812-0.92188-1.7812-2.5312v-7.0469h3.3906v-1.7969h-3.3906v-3.75z"/>
  </g>
  <g id="use87963" transform="matrix(.35278 0 0 .35278 124.94 178.47)" style="fill:#c00">
   <path id="path111751" d="m1.9688 5.3438h2.3438v-7.0938h0.0625c0.78125 1.2969 2.2812 2.0469 4.0156 2.0469 3.0781 0 5.9375-2.3125 5.9375-7.0156 0-3.9531-2.375-6.625-5.5312-6.625-2.1406 0-3.6719 0.9375-4.6406 2.5312h-0.0625l-0.10938-2.2344h-2.125c0.0625 1.2344 0.10938 2.5781 0.10938 4.25zm2.3438-12.891c0-0.32812 0.078125-0.67188 0.17188-0.96875 0.45312-1.7812 1.9688-2.9531 3.5781-2.9531 2.5156 0 3.8906 2.25 3.8906 4.8594 0 3-1.4688 5.0469-3.9688 5.0469-1.7031 0-3.125-1.1406-3.5625-2.7812-0.046875-0.29688-0.10938-0.625-0.10938-0.96875z"/>
  </g>
  <g id="use87965" transform="matrix(.35278 0 0 .35278 130.4 178.47)" style="fill:#c00">
   <path id="path111755" d="m7.5-13.344c-3.6094 0-6.4688 2.5625-6.4688 6.9219 0 4.125 2.7188 6.7188 6.25 6.7188 3.1562 0 6.5-2.1094 6.5-6.9375 0-3.9844-2.5312-6.7031-6.2812-6.7031zm-0.0625 1.7812c2.8125 0 3.9219 2.7969 3.9219 5.0156 0 2.9375-1.7031 5.0625-3.9688 5.0625-2.3281 0-3.9688-2.1562-3.9688-5.0156 0-2.4844 1.2188-5.0625 4.0156-5.0625z"/>
  </g>
  <g id="use87967" transform="matrix(.35278 0 0 .35278 135.67 178.47)" style="fill:#c00">
   <path id="path111759" d="m1.0469-0.625c0.92188 0.54688 2.25 0.89062 3.6719 0.89062 3.1094 0 4.875-1.6094 4.875-3.9062 0-1.9375-1.1562-3.0781-3.4219-3.9375-1.6875-0.64062-2.4844-1.125-2.4844-2.2188 0-0.96875 0.79688-1.7656 2.1875-1.7656 1.2188 0 2.1562 0.42188 2.6719 0.75l0.59375-1.7344c-0.71875-0.42188-1.8906-0.79688-3.2031-0.79688-2.8125 0-4.5156 1.7188-4.5156 3.8281 0 1.5625 1.1094 2.8594 3.4531 3.6875 1.7656 0.65625 2.4375 1.2656 2.4375 2.4062 0 1.0781-0.8125 1.9375-2.5312 1.9375-1.1875 0-2.4375-0.48438-3.1406-0.9375z"/>
  </g>
  <g id="use87969" transform="matrix(.35278 0 0 .35278 139.48 178.47)" style="fill:#c00">
   <path id="path111763" d="m1.0469-0.625c0.92188 0.54688 2.25 0.89062 3.6719 0.89062 3.1094 0 4.875-1.6094 4.875-3.9062 0-1.9375-1.1562-3.0781-3.4219-3.9375-1.6875-0.64062-2.4844-1.125-2.4844-2.2188 0-0.96875 0.79688-1.7656 2.1875-1.7656 1.2188 0 2.1562 0.42188 2.6719 0.75l0.59375-1.7344c-0.71875-0.42188-1.8906-0.79688-3.2031-0.79688-2.8125 0-4.5156 1.7188-4.5156 3.8281 0 1.5625 1.1094 2.8594 3.4531 3.6875 1.7656 0.65625 2.4375 1.2656 2.4375 2.4062 0 1.0781-0.8125 1.9375-2.5312 1.9375-1.1875 0-2.4375-0.48438-3.1406-0.9375z"/>
  </g>
  <g id="use87971" transform="matrix(.35278 0 0 .35278 143.3 178.47)" style="fill:#c00">
   <path id="path111767" d="m4.3438 0v-13.047h-2.375v13.047zm-1.1875-18.203c-0.85938 0-1.4844 0.64062-1.4844 1.4844 0 0.8125 0.59375 1.4531 1.4219 1.4531 0.95312 0 1.5469-0.64062 1.5156-1.4531 0-0.84375-0.5625-1.4844-1.4531-1.4844z"/>
  </g>
  <g id="use87973" transform="matrix(.35278 0 0 .35278 145.57 178.47)" style="fill:#c00">
   <path id="path111771" d="m3.9062 0 0.10938-2.1562h0.078125c0.96875 1.7188 2.4844 2.4531 4.375 2.4531 2.9062 0 5.8594-2.3125 5.8594-6.9844 0.01563-3.9688-2.2656-6.6562-5.5156-6.6562-2.0938 0-3.6094 0.9375-4.4375 2.3906h-0.0625v-8.1875h-2.3438v15.766c0 1.1562-0.046875 2.4844-0.10938 3.375zm0.40625-7.5781c0-0.375 0.078125-0.70312 0.14062-0.96875 0.48438-1.8125 2-2.9219 3.6094-2.9219 2.5312 0 3.8906 2.25 3.8906 4.8594 0 3-1.4844 5.0156-3.9688 5.0156-1.7344 0-3.1094-1.125-3.5625-2.7812-0.046875-0.26562-0.10938-0.5625-0.10938-0.85938z"/>
  </g>
  <g id="use87975" transform="matrix(.35278 0 0 .35278 151.03 178.47)" style="fill:#c00">
   <path id="path111775" d="m1.9688 0h2.375v-19.141h-2.375z"/>
  </g>
  <g id="use87977" transform="matrix(.35278 0 0 .35278 153.32 178.47)" style="fill:#c00">
   <path id="path111779" d="m12.453-6.0938c0.03125-0.25 0.09375-0.625 0.09375-1.1094 0-2.3906-1.1406-6.1406-5.4062-6.1406-3.7969 0-6.1094 3.0938-6.1094 7.0312s2.3906 6.5781 6.4062 6.5781c2.0781 0 3.5156-0.42188 4.3438-0.8125l-0.40625-1.6875c-0.89062 0.375-1.9062 0.67188-3.6094 0.67188-2.375 0-4.4219-1.3281-4.4688-4.5312zm-9.1406-1.7031c0.1875-1.6406 1.25-3.8594 3.6406-3.8594 2.6719 0 3.3281 2.3594 3.2969 3.8594z"/>
  </g>
 </g>
</svg>
