<svg id="svg109021" version="1.1" viewBox="0 0 28.916 6.5099" xmlns="http://www.w3.org/2000/svg">
 <title id="title109071">img_85</title>
 <g id="layer1" transform="translate(-112.54 -131.3)">
  <g id="use82531" transform="matrix(.35278 0 0 .35278 112.49 137.14)" style="fill:#7d7878">
   <path id="path108963" d="m0.3125-9.6875 3.2812 4.75-3.4375 4.9375h1.9375l1.4062-2.1875c0.35938-0.57812 0.70312-1.0938 1.0156-1.6719h0.046875c0.34375 0.57812 0.65625 1.125 1.0312 1.6719l1.4219 2.1875h2l-3.3906-5 3.2969-4.6875h-1.9062l-1.3594 2.0625c-0.3125 0.53125-0.64062 1.0312-0.95312 1.6094h-0.0625c-0.32812-0.54688-0.625-1.0469-0.98438-1.5781l-1.375-2.0938z"/>
  </g>
  <g id="use82535" transform="matrix(.35278 0 0 .35278 117.32 137.14)" style="fill:#7d7878">
   <path id="path108967" d="m11.125-6.7344v-1.2031h-10.328v1.2031zm0 3.9219v-1.2031h-10.328v1.2031z"/>
  </g>
  <g id="use82539" transform="matrix(.35278 0 0 .35278 123.09 137.14)" style="fill:#7d7878">
   <path id="path108971" d="m0.59375-6.0625v1.2969h4.9531v-1.2969z"/>
  </g>
  <g id="use82541" transform="matrix(.35278 0 0 .35278 125.29 137.14)" style="fill:#7d7878">
   <path id="path108975" d="m8.3125-13.203c-0.3125 0-0.75 0.01563-1.2656 0.10938-1.6406 0.1875-3.0938 0.85938-4.1719 1.9062-1.2812 1.2812-2.1875 3.3125-2.1875 5.875 0 3.375 1.8125 5.5312 4.5938 5.5312 2.7031 0 4.3125-2.2031 4.3125-4.5781 0-2.5469-1.6094-4.2031-3.9062-4.2031-1.4531 0-2.5312 0.6875-3.1406 1.5h-0.0625c0.29688-2.1406 1.75-4.1562 4.5156-4.625 0.5-0.07813 0.95312-0.09375 1.3125-0.07813zm-3.0312 12.062c-1.8438 0-2.8281-1.5781-2.8594-3.7188 0-0.32812 0.078125-0.57812 0.20312-0.78125 0.46875-0.9375 1.4531-1.5938 2.5156-1.5938 1.625 0 2.6719 1.1094 2.6719 2.9688s-1.0156 3.125-2.5312 3.125z"/>
  </g>
  <g id="use82545" transform="matrix(.35278 0 0 .35278 130.48 137.14)" style="fill:#7d7878">
   <path id="path108979" d="m0.59375-6.0625v1.2969h4.9531v-1.2969z"/>
  </g>
  <g id="use82549" transform="matrix(.35278 0 0 .35278 134.21 137.14)" style="fill:#7d7878">
   <path id="path108983" d="m11.578-16.547h-1.3125l-3.7188 15.328c-0.10938 0.4375-0.20312 0.95312-0.26562 1.2969h-0.046875c-0.078125-0.375-0.21875-0.85938-0.375-1.2812l-2.4531-6.9219-2.7656 1.1719 0.375 0.9375 1.5-0.64062 3.1875 8.5625h1.2812z"/>
  </g>
  <g id="use82551" transform="matrix(.35278 0 0 .35278 138.21 137.14)" style="fill:#7d7878">
   <path id="path108987" d="m9.2031 0v-1.4531h-5.8438v-0.046875l1.0469-0.95312c2.7344-2.6406 4.4688-4.5938 4.4688-6.9844 0-1.8594-1.1719-3.7812-3.9688-3.7812-1.5 0-2.7812 0.5625-3.6875 1.3125l0.5625 1.25c0.59375-0.5 1.5781-1.1094 2.7656-1.1094 1.9375 0 2.5781 1.2188 2.5781 2.5469-0.03125 1.9531-1.5312 3.6406-4.8438 6.7969l-1.375 1.3438v1.0781z"/>
  </g>
 </g>
</svg>
