<svg id="svg44642" version="1.1" viewBox="0 0 46.622 5.1153" xmlns="http://www.w3.org/2000/svg">
 <title id="title44730">img_35</title>
 <g id="layer1" transform="translate(-93.106 -120.66)">
  <g id="use37117" transform="matrix(.35278 0 0 .35278 92.825 125.5)" style="fill:#7d7878">
   <path id="path44560" d="m11.125-6.7344v-1.2031h-10.328v1.2031zm0 3.9219v-1.2031h-10.328v1.2031z"/>
  </g>
  <g id="g44722">
   <g id="use37123" transform="matrix(.35278 0 0 .35278 98.596 125.5)" style="fill:#1c1c19">
    <path id="path44564" d="m4.7188 0h1.7031v-13h-1.5l-2.8438 1.5156 0.34375 1.3438 2.2656-1.2188h0.03125z"/>
   </g>
   <g id="use37125" transform="matrix(.35278 0 0 .35278 102.25 125.5)" style="fill:#1c1c19">
    <path id="path44568" d="m5.0938 0.21875c2.4844 0 4.4219-1.5156 4.4219-3.7812 0-1.5781-1-2.7188-2.6094-3.3594v-0.0625c1.5938-0.75 2.1406-1.9375 2.1406-3.0312 0-1.625-1.2656-3.2031-3.7812-3.2031-2.2812 0-4.0312 1.4062-4.0312 3.4531 0 1.125 0.625 2.25 2.0625 2.9219l0.015625 0.0625c-1.5938 0.6875-2.5781 1.8438-2.5781 3.4844 0 1.8906 1.6406 3.5156 4.3594 3.5156zm0.046875-1.2812c-1.6562 0-2.6562-1.1562-2.5938-2.4844 0-1.2344 0.8125-2.2344 2.3281-2.6719 1.7656 0.5 2.8594 1.2656 2.8594 2.8438 0 1.3281-1.0156 2.3125-2.5938 2.3125zm0.015625-10.891c1.5781 0 2.2031 1.0781 2.2031 2.1094 0 1.1875-0.85938 1.9844-1.9844 2.3594-1.5-0.39062-2.4688-1.0938-2.4688-2.3906 0-1.125 0.79688-2.0781 2.25-2.0781z"/>
   </g>
   <g id="use37127" transform="matrix(.35278 0 0 .35278 105.91 125.5)" style="fill:#1c1c19">
    <path id="path44572" d="m5.2344-13.219c-2.6406 0-4.5156 2.4062-4.5156 6.7656 0.046875 4.2969 1.7656 6.6719 4.2969 6.6719 2.8906 0 4.5312-2.4375 4.5312-6.8594 0-4.1406-1.5625-6.5781-4.3125-6.5781zm-0.09375 1.3594c1.8125 0 2.6406 2.0938 2.6406 5.2969 0 3.3281-0.85938 5.4219-2.6562 5.4219-1.6094 0-2.6406-1.9219-2.6406-5.2969 0-3.5469 1.1094-5.4219 2.6562-5.4219z"/>
   </g>
  </g>
  <g id="use37131" transform="matrix(.35278 0 0 .35278 111.09 125.5)" style="fill:#1c1c19">
   <path id="path44576" d="m0.59375-6.0625v1.2969h4.9531v-1.2969z"/>
  </g>
  <g id="g44728">
   <g id="use37135" transform="matrix(.35278 0 0 .35278 114.82 125.5)" style="fill:#1c1c19">
    <path id="path44580" d="m1.9219 0.20312c0.42188 0.015625 0.98438 0 1.625-0.10938 1.3906-0.15625 2.7656-0.75 3.7656-1.7344 1.2812-1.2344 2.25-3.2344 2.25-6.0938 0-3.3281-1.6406-5.4844-4.2969-5.4844-2.6719 0-4.4531 2.1562-4.4531 4.625 0 2.2188 1.5 3.9688 3.8438 3.9688 1.2969 0 2.3438-0.51562 3.0625-1.3906h0.0625c-0.23438 1.5312-0.85938 2.6719-1.7188 3.4531-0.75 0.70312-1.7031 1.125-2.7188 1.2656-0.60938 0.0625-1.0469 0.09375-1.4219 0.0625zm3.2031-12.078c1.8281 0 2.6562 1.6875 2.6562 3.9219 0 0.26562-0.0625 0.46875-0.15625 0.64062-0.46875 0.76562-1.3906 1.3594-2.5625 1.3594-1.5156 0-2.5-1.1406-2.5-2.7656 0-1.8438 1.0625-3.1562 2.5625-3.1562z"/>
   </g>
   <g id="use37137" transform="matrix(.35278 0 0 .35278 118.48 125.5)" style="fill:#1c1c19">
    <path id="path44584" d="m5.2344-13.219c-2.6406 0-4.5156 2.4062-4.5156 6.7656 0.046875 4.2969 1.7656 6.6719 4.2969 6.6719 2.8906 0 4.5312-2.4375 4.5312-6.8594 0-4.1406-1.5625-6.5781-4.3125-6.5781zm-0.09375 1.3594c1.8125 0 2.6406 2.0938 2.6406 5.2969 0 3.3281-0.85938 5.4219-2.6562 5.4219-1.6094 0-2.6406-1.9219-2.6406-5.2969 0-3.5469 1.1094-5.4219 2.6562-5.4219z"/>
   </g>
  </g>
  <g id="use37141" transform="matrix(.35278 0 0 .35278 123.66 125.5)" style="fill:#1c1c19">
   <path id="path44588" d="m1.3125 0.79688 5.6094-14.5h-1.3594l-5.5781 14.5z"/>
  </g>
  <g id="use37145" transform="matrix(.35278 0 0 .35278 127.65 125.5)" style="fill:#1c1c19">
   <path id="path44592" d="m8.3125-13.203c-0.3125 0-0.75 0.01563-1.2656 0.10938-1.6406 0.1875-3.0938 0.85938-4.1719 1.9062-1.2812 1.2812-2.1875 3.3125-2.1875 5.875 0 3.375 1.8125 5.5312 4.5938 5.5312 2.7031 0 4.3125-2.2031 4.3125-4.5781 0-2.5469-1.6094-4.2031-3.9062-4.2031-1.4531 0-2.5312 0.6875-3.1406 1.5h-0.0625c0.29688-2.1406 1.75-4.1562 4.5156-4.625 0.5-0.07813 0.95312-0.09375 1.3125-0.07813zm-3.0312 12.062c-1.8438 0-2.8281-1.5781-2.8594-3.7188 0-0.32812 0.078125-0.57812 0.20312-0.78125 0.46875-0.9375 1.4531-1.5938 2.5156-1.5938 1.625 0 2.6719 1.1094 2.6719 2.9688s-1.0156 3.125-2.5312 3.125z"/>
  </g>
  <g id="use37149" transform="matrix(.35278 0 0 .35278 132.84 125.5)" style="fill:#1c1c19">
   <path id="path44596" d="m0.59375-6.0625v1.2969h4.9531v-1.2969z"/>
  </g>
  <g id="use37153" transform="matrix(.35278 0 0 .35278 136.57 125.5)" style="fill:#1c1c19">
   <path id="path44600" d="m0.84375-0.65625c0.64062 0.42188 1.9219 0.875 3.375 0.875 3.125 0 4.7344-1.8125 4.7344-3.9062 0-1.8125-1.2969-3.0156-2.8906-3.3281v-0.046875c1.5938-0.57812 2.3906-1.7188 2.3906-3.0625 0-1.5781-1.1562-3.0938-3.7188-3.0938-1.3906 0-2.7188 0.5-3.3906 1l0.45312 1.2812c0.5625-0.40625 1.5625-0.85938 2.6094-0.85938 1.6094 0 2.2812 0.92188 2.2812 1.9531 0 1.5469-1.625 2.2031-2.9062 2.2031h-0.98438v1.3281h0.98438c1.7031 0 3.3438 0.76562 3.3594 2.5938 0.015625 1.0781-0.6875 2.5156-2.9375 2.5156-1.2188 0-2.3906-0.5-2.8906-0.8125z"/>
  </g>
 </g>
</svg>
