<svg id="svg76796" version="1.1" viewBox="0 0 219.69 60.246" xmlns="http://www.w3.org/2000/svg">
 <title id="title76921">img_72</title>
 <g id="layer1" transform="translate(28.96 -139.97)">
  <path id="path61992" d="m102.66 193.55 40.419-44.858 38.041 44.549z" style="fill:none;stroke-miterlimit:10;stroke-width:.55351;stroke:#173a6e"/>
  <g id="g61996" transform="matrix(.35278 0 0 .35278 -52.314 -896.72)">
   <g id="use61994" transform="translate(411.78 3090.5)">
    <path id="path76717" d="m1.4688 0v-14.312h5.375c1.0938 0 1.9688 0.14844 2.625 0.4375 0.65625 0.28125 1.1719 0.72656 1.5469 1.3281 0.375 0.60547 0.5625 1.2344 0.5625 1.8906 0 0.61719-0.16797 1.1953-0.5 1.7344-0.32422 0.54297-0.82422 0.97656-1.5 1.2969 0.86328 0.26172 1.5312 0.69922 2 1.3125 0.46875 0.60547 0.70312 1.3242 0.70312 2.1562 0 0.67969-0.14844 1.3047-0.4375 1.875-0.28125 0.57422-0.63281 1.0156-1.0469 1.3281-0.41797 0.3125-0.9375 0.55469-1.5625 0.71875-0.625 0.15625-1.3984 0.23438-2.3125 0.23438zm1.8906-8.2969h3.0938c0.84375 0 1.4453-0.054688 1.8125-0.17188 0.47656-0.14453 0.83594-0.37891 1.0781-0.70312 0.25-0.33203 0.375-0.75391 0.375-1.2656 0-0.46875-0.11719-0.88281-0.34375-1.25-0.23047-0.36328-0.55859-0.60938-0.98438-0.73438-0.41797-0.13281-1.1406-0.20312-2.1719-0.20312h-2.8594zm0 6.6094h3.5625c0.61328 0 1.0469-0.023438 1.2969-0.078125 0.4375-0.070313 0.80078-0.19531 1.0938-0.375 0.28906-0.1875 0.53125-0.45312 0.71875-0.79688 0.1875-0.35156 0.28125-0.75781 0.28125-1.2188 0-0.53125-0.13672-0.99219-0.40625-1.3906-0.27344-0.39453-0.65234-0.67188-1.1406-0.82812-0.49219-0.15625-1.1875-0.23438-2.0938-0.23438h-3.3125z"/>
   </g>
  </g>
  <g id="g62000" transform="matrix(.35278 0 0 .35278 -52.314 -896.72)">
   <g id="use61998" transform="translate(547.24 2952.9)">
    <path id="path76721" d="m-0.03125 0 5.5-14.312h2.0469l5.8594 14.312h-2.1562l-1.6719-4.3438h-5.9844l-1.5781 4.3438zm4.1406-5.875h4.8438l-1.4844-3.9688c-0.46094-1.207-0.79688-2.1953-1.0156-2.9688-0.1875 0.91797-0.44922 1.8281-0.78125 2.7344z"/>
   </g>
  </g>
  <g id="g62004" transform="matrix(.35278 0 0 .35278 -52.314 -896.72)">
   <g id="use62002" transform="translate(675.3 3090.5)">
    <path id="path76725" d="m11.766-5.0156 1.8906 0.46875c-0.39844 1.5625-1.1094 2.7578-2.1406 3.5781-1.0312 0.8125-2.2969 1.2188-3.7969 1.2188-1.543 0-2.7969-0.3125-3.7656-0.9375-0.96094-0.63281-1.6953-1.5469-2.2031-2.7344-0.5-1.1953-0.75-2.4766-0.75-3.8438 0-1.4883 0.28125-2.7852 0.84375-3.8906 0.57031-1.1133 1.3828-1.957 2.4375-2.5312 1.0508-0.58203 2.207-0.875 3.4688-0.875 1.4375 0 2.6406 0.36719 3.6094 1.0938 0.97656 0.73047 1.6602 1.7578 2.0469 3.0781l-1.8594 0.4375c-0.33594-1.0391-0.82031-1.7969-1.4531-2.2656-0.625-0.47656-1.418-0.71875-2.375-0.71875-1.1055 0-2.0273 0.26562-2.7656 0.79688-0.74219 0.52344-1.2617 1.2305-1.5625 2.125-0.29297 0.88672-0.4375 1.7969-0.4375 2.7344 0 1.2188 0.17578 2.2891 0.53125 3.2031 0.35156 0.90625 0.90625 1.5859 1.6562 2.0312 0.75 0.44922 1.5547 0.67188 2.4219 0.67188 1.0625 0 1.9609-0.30469 2.7031-0.92188 0.73828-0.61328 1.2383-1.5195 1.5-2.7188z"/>
   </g>
  </g>
  <g id="g62008" transform="matrix(.35278 0 0 .35278 -52.314 -896.72)">
   <g id="use62006" transform="translate(550.49 3109.2)">
    <path id="path76729" d="m6.7344-1.0625c-0.54297 0.46094-1.0625 0.78906-1.5625 0.98438-0.5 0.1875-1.0391 0.28125-1.6094 0.28125-0.94922 0-1.6797-0.23438-2.1875-0.70312-0.51172-0.46875-0.76562-1.0625-0.76562-1.7812 0-0.42578 0.09375-0.8125 0.28125-1.1562 0.19531-0.35156 0.44531-0.63281 0.75-0.84375 0.3125-0.20703 0.66406-0.36719 1.0625-0.48438 0.28906-0.070313 0.72266-0.14453 1.2969-0.21875 1.1875-0.13281 2.0625-0.30078 2.625-0.5v-0.39062c0-0.59375-0.13672-1.0078-0.40625-1.25-0.375-0.33203-0.93359-0.5-1.6719-0.5-0.6875 0-1.1992 0.12109-1.5312 0.35938-0.32422 0.24219-0.57031 0.66797-0.73438 1.2812l-1.4219-0.1875c0.125-0.61328 0.33594-1.1094 0.64062-1.4844 0.30078-0.38281 0.73438-0.67578 1.2969-0.875 0.5625-0.20703 1.2109-0.3125 1.9531-0.3125 0.73828 0 1.3359 0.089844 1.7969 0.26562 0.46875 0.17969 0.80469 0.39844 1.0156 0.65625 0.21875 0.26172 0.375 0.59375 0.46875 1 0.039063 0.25 0.0625 0.69922 0.0625 1.3438v1.9531c0 1.3672 0.03125 2.2305 0.09375 2.5938 0.0625 0.35547 0.1875 0.69922 0.375 1.0312h-1.5312c-0.14844-0.30078-0.24609-0.65625-0.29688-1.0625zm-0.10938-3.2812c-0.53125 0.21875-1.3359 0.40625-2.4062 0.5625-0.59375 0.085937-1.0156 0.18359-1.2656 0.29688-0.25 0.10547-0.44531 0.26172-0.57812 0.46875-0.13672 0.21094-0.20312 0.44531-0.20312 0.70312 0 0.38672 0.14453 0.71094 0.4375 0.96875 0.28906 0.26172 0.72266 0.39062 1.2969 0.39062 0.5625 0 1.0625-0.11719 1.5-0.35938 0.44531-0.25 0.76953-0.59375 0.96875-1.0312 0.16406-0.32031 0.25-0.80469 0.25-1.4531z"/>
   </g>
  </g>
  <g id="g62012" transform="matrix(.35278 0 0 .35278 -52.314 -896.72)">
   <g id="use62010" transform="translate(481.36 3024.8)">
    <path id="path76733" d="m6.7344-3.1719 1.4531 0.1875c-0.16797 1-0.57422 1.7812-1.2188 2.3438-0.64844 0.5625-1.4453 0.84375-2.3906 0.84375-1.1797 0-2.125-0.38281-2.8438-1.1562-0.71875-0.78125-1.0781-1.8945-1.0781-3.3438 0-0.92578 0.14844-1.7383 0.45312-2.4375 0.3125-0.70703 0.78125-1.2344 1.4062-1.5781 0.63281-0.35156 1.3281-0.53125 2.0781-0.53125 0.9375 0 1.7031 0.24219 2.2969 0.71875 0.60156 0.46875 0.98828 1.1406 1.1562 2.0156l-1.4219 0.21875c-0.13672-0.57031-0.38281-1.0039-0.73438-1.2969-0.34375-0.30078-0.76172-0.45312-1.25-0.45312-0.73047 0-1.3281 0.26562-1.7969 0.79688-0.46094 0.53125-0.6875 1.3711-0.6875 2.5156 0 1.1562 0.22266 2 0.67188 2.5312 0.44531 0.52344 1.0234 0.78125 1.7344 0.78125 0.58203 0 1.0625-0.17188 1.4375-0.51562 0.38281-0.35156 0.62891-0.89844 0.73438-1.6406z"/>
   </g>
  </g>
  <g id="g62016" transform="matrix(.35278 0 0 .35278 -52.314 -896.72)">
   <g id="use62014" transform="translate(616.88 3024.3)">
    <path id="path76737" d="m2.4531 0h-1.3594v-11.938h1.4688v4.2656c0.61328-0.78125 1.3984-1.1719 2.3594-1.1719 0.53125 0 1.0312 0.10938 1.5 0.32812 0.47656 0.21094 0.86719 0.51172 1.1719 0.90625 0.3125 0.38672 0.55469 0.85547 0.73438 1.4062 0.17578 0.54297 0.26562 1.125 0.26562 1.75 0 1.4805-0.37109 2.625-1.1094 3.4375-0.73047 0.8125-1.6055 1.2188-2.625 1.2188-1.0234 0-1.8242-0.42578-2.4062-1.2812zm-0.015625-4.3906c0 1.043 0.14062 1.793 0.42188 2.25 0.45703 0.75 1.082 1.125 1.875 1.125 0.63281 0 1.1875-0.27344 1.6562-0.82812 0.46875-0.55078 0.70312-1.3789 0.70312-2.4844 0-1.1328-0.22656-1.9688-0.67188-2.5-0.44922-0.53906-0.99219-0.8125-1.625-0.8125-0.64844 0-1.2031 0.28125-1.6719 0.84375-0.46094 0.55469-0.6875 1.3555-0.6875 2.4062z"/>
   </g>
  </g>
  <path id="path62214" d="m-13.388 170.54h-15.572v-0.35278h15.572z" style="fill:#d70000"/>
  <path id="path62216" d="m-27.264 167.38 0.50436-0.0758c-0.0096 0.19431 0.03996 0.34174 0.14607 0.4451 0.10749 0.10199 0.27285 0.15434 0.49885 0.15434 0.22875 0 0.40514-0.0455 0.5333-0.13642 0.12678-0.0923 0.20257-0.19843 0.226-0.32109 0.02067-0.11025-0.0124-0.19707-0.09784-0.26046-0.05926-0.0441-0.21911-0.0992-0.4768-0.16535-0.34589-0.0896-0.58429-0.16813-0.71245-0.23428-0.12816-0.0661-0.21773-0.15709-0.26734-0.27421-0.05099-0.11575-0.06339-0.24391-0.03721-0.38587 0.0248-0.12813 0.07579-0.24666 0.1571-0.35553 0.07993-0.11024 0.17777-0.19981 0.2949-0.27284 0.08682-0.0551 0.20119-0.10336 0.34175-0.14195 0.14056-0.0386 0.28663-0.0579 0.43959-0.0579 0.23013 0 0.42581 0.0317 0.58704 0.0978 0.16123 0.0648 0.27285 0.15296 0.33486 0.2632 0.06201 0.11162 0.09095 0.26046 0.08682 0.44648l-0.49747 0.0648c0.0055-0.1488-0.03583-0.26458-0.12678-0.34724-0.08957-0.0827-0.23013-0.12404-0.42444-0.12404-0.22738 0-0.39688 0.0358-0.5085 0.11025-0.11162 0.0744-0.17639 0.16122-0.1943 0.26045-0.0124 0.0634-0.0028 0.11988 0.02894 0.17089 0.03032 0.0523 0.08544 0.0951 0.16536 0.1295 0.04685 0.018 0.18466 0.0606 0.41479 0.12541 0.33348 0.091 0.56362 0.16676 0.69178 0.22599 0.12816 0.0593 0.22049 0.14334 0.27836 0.25633 0.05788 0.11162 0.07166 0.25079 0.04134 0.41617-0.03032 0.1626-0.10749 0.31556-0.23151 0.46027-0.12264 0.1433-0.2825 0.25354-0.47956 0.33211-0.19706 0.0785-0.40928 0.1185-0.63941 0.1185-0.38034 0-0.65595-0.0785-0.82544-0.23287-0.17088-0.15572-0.25494-0.38587-0.25218-0.6918" style="fill:#d70000"/>
  <path id="path62218" d="m-23.762 164.83 0.10473-0.56088h0.49609l-0.10473 0.56088zm-0.63941 3.4092 0.53881-2.876h0.49609l-0.53881 2.876z" style="fill:#d70000"/>
  <path id="path62220" d="m-23.15 168.24 0.53881-2.8773h0.44648l-0.07579 0.40925c0.27285-0.31556 0.61323-0.47402 1.0197-0.47402 0.17639 0 0.33211 0.0317 0.46853 0.0937s0.23151 0.14471 0.28663 0.24529c0.05374 0.10199 0.08268 0.22186 0.08682 0.35969 0.0014 0.0909-0.01929 0.24942-0.06201 0.47541l-0.33073 1.768h-0.49609l0.32797-1.7501c0.03721-0.19844 0.04547-0.34728 0.0248-0.4451-0.01929-0.0979-0.07304-0.17639-0.16123-0.23566-0.08682-0.0593-0.19568-0.0882-0.32797-0.0882-0.21222 0-0.40652 0.0661-0.58567 0.19706-0.17777 0.13229-0.30041 0.38308-0.36931 0.75103l-0.2949 1.571z" style="fill:#d70000"/>
  <path id="path62222" d="m-17.352 166.61h1.3698l-0.21635-1.0997c-0.06615-0.33486-0.11024-0.60907-0.13229-0.82405-0.09922 0.25495-0.21911 0.50849-0.35967 0.75928zm-1.4717 1.6302 2.2958-3.9701h0.57602l0.9095 3.9701h-0.60909l-0.24667-1.203h-1.6895l-0.66835 1.203z" style="fill:#d70000"/>
  <path id="path62224" d="m-21.453 174.53c-0.18052 0.073-0.45062 0.13642-0.81029 0.1874-0.20395 0.0303-0.34864 0.062-0.4327 0.0992-0.08544 0.0372-0.15021 0.0909-0.19568 0.16122-0.04685 0.0703-0.0689 0.15022-0.0689 0.23566 0 0.13229 0.04961 0.24253 0.15021 0.33073 0.09922 0.0882 0.24667 0.13229 0.43959 0.13229 0.19017 0 0.36105-0.0413 0.50987-0.12541 0.14883-0.0827 0.25769-0.19844 0.32797-0.34311 0.05237-0.11166 0.07993-0.27701 0.07993-0.49612zm0.04134 1.1079c-0.18466 0.15571-0.36105 0.26733-0.53054 0.33073-0.17088 0.0648-0.35278 0.0964-0.54708 0.0964-0.32246 0-0.56913-0.0785-0.74138-0.23562-0.17363-0.15709-0.25907-0.35831-0.25907-0.60222 0-0.1433 0.03169-0.27422 0.09784-0.39271 0.06477-0.11854 0.15021-0.21361 0.25632-0.28526 0.10473-0.0717 0.22462-0.12541 0.35691-0.16263 0.09646-0.0247 0.24391-0.0496 0.44097-0.0744 0.39963-0.0469 0.69453-0.10474 0.8847-0.17089 0.0014-0.0675 0.0028-0.11162 0.0028-0.12954 0-0.20256-0.04685-0.34448-0.14056-0.42718-0.12678-0.11161-0.31557-0.16813-0.565-0.16813-0.23427 0-0.40652 0.0413-0.51676 0.12266-0.11162 0.0813-0.1943 0.22599-0.24667 0.43409l-0.48507-0.0661c0.0441-0.20673 0.11576-0.37483 0.21773-0.50299 0.1006-0.12679 0.24667-0.22603 0.43822-0.29492 0.19017-0.0689 0.41203-0.10333 0.66421-0.10333 0.24942 0 0.452 0.0289 0.60909 0.0882 0.15572 0.0592 0.2701 0.13229 0.34451 0.22186 0.07304 0.0896 0.12402 0.20119 0.15434 0.33761 0.01653 0.0841 0.0248 0.23703 0.0248 0.45752v0.66146c0 0.46164 0.0096 0.75378 0.03169 0.87503 0.02067 0.12266 0.06201 0.23978 0.1254 0.3514h-0.51814c-0.05237-0.10195-0.08544-0.22324-0.09922-0.36103" style="fill:#d70000"/>
  <path id="path62226" d="m-6.5891 171.12h-2.6665v-0.46302h2.6665zm0-1.2251h-2.6665v-0.46302h2.6665z" style="fill:#d70000"/>
  <path id="path62228" d="m18.537 171.12h-2.6679v-0.46302h2.6679zm0-1.2251h-2.6679v-0.46302h2.6679z" style="fill:#d70000"/>
  <path id="path62230" d="m13.204 170.54h-15.572v-0.35278h15.572z" style="fill:#d70000"/>
  <path id="path62232" d="m-0.14813 167.38 0.50574-0.0758c-0.009631 0.19431 0.039963 0.34174 0.14607 0.4451 0.10749 0.10199 0.27285 0.15434 0.49885 0.15434 0.22876 0 0.40514-0.0455 0.5333-0.13642 0.12678-0.0923 0.20257-0.19843 0.226-0.32109 0.020673-0.11025-0.012418-0.19707-0.097843-0.26046-0.059256-0.0441-0.21911-0.0992-0.4768-0.16535-0.34589-0.0896-0.58429-0.16813-0.71245-0.23428-0.12816-0.0661-0.21773-0.15709-0.26734-0.27421-0.05099-0.11575-0.063391-0.24391-0.037208-0.38587 0.0248-0.12813 0.075791-0.24666 0.1571-0.35553 0.079925-0.11024 0.17777-0.19981 0.2949-0.27284 0.086815-0.0551 0.20119-0.10336 0.34175-0.14195 0.14056-0.0386 0.28663-0.0579 0.43959-0.0579 0.23013 0 0.42581 0.0317 0.58704 0.0978 0.16123 0.0648 0.27285 0.15296 0.33486 0.2632 0.062011 0.11162 0.09095 0.26046 0.086819 0.44648l-0.49747 0.0648c0.0055-0.1488-0.035828-0.26458-0.12678-0.34724-0.08957-0.0827-0.23151-0.12404-0.42443-0.12404-0.22738 0-0.39688 0.0358-0.5085 0.11025-0.11162 0.0744-0.17639 0.16122-0.1943 0.26045-0.012418 0.0634-0.002822 0.11988 0.028928 0.17089 0.030304 0.0523 0.085439 0.0951 0.16536 0.1295 0.046856 0.018 0.18466 0.0606 0.41479 0.12541 0.33349 0.091 0.56362 0.16676 0.69178 0.22599 0.12816 0.0593 0.22049 0.14334 0.27836 0.25633 0.05788 0.11162 0.07166 0.25079 0.041342 0.41617-0.030304 0.1626-0.10749 0.31556-0.23151 0.46027-0.12264 0.1433-0.2825 0.25354-0.47956 0.33211-0.19706 0.0785-0.41066 0.1185-0.63941 0.1185-0.38034 0-0.65595-0.0785-0.82545-0.23287-0.17087-0.15572-0.25493-0.38587-0.25356-0.6918" style="fill:#d70000"/>
  <path id="path62234" d="m3.3548 164.83 0.10473-0.56088h0.49609l-0.10611 0.56088zm-0.64079 3.4092 0.54019-2.876h0.49609l-0.54019 2.876z" style="fill:#d70000"/>
  <path id="path62236" d="m3.9653 168.24 0.54019-2.8773h0.44648l-0.07717 0.40925c0.27423-0.31556 0.61461-0.47402 1.0211-0.47402 0.17639 0 0.3321 0.0317 0.46853 0.0937s0.23151 0.14471 0.28663 0.24529c0.053742 0.10199 0.082684 0.22186 0.086815 0.35969 0.00141 0.0909-0.019297 0.24942-0.062011 0.47541l-0.3321 1.768h-0.49609l0.32935-1.7501c0.037208-0.19844 0.045477-0.34728 0.0248-0.4451-0.019297-0.0979-0.074411-0.17639-0.16123-0.23566-0.086815-0.0593-0.19706-0.0882-0.32935-0.0882-0.21084 0-0.40652 0.0661-0.58429 0.19706-0.17777 0.13229-0.30179 0.38308-0.37069 0.75103l-0.2949 1.571z" style="fill:#d70000"/>
  <path id="path62238" d="m9.6814 165.93h0.87368c0.23702 0 0.40928-0.0152 0.51814-0.0455 0.14332-0.04 0.25769-0.10612 0.34451-0.19706 0.08681-0.0923 0.14194-0.20811 0.16812-0.34728 0.0248-0.13229 0.01517-0.24804-0.0303-0.34865-0.04685-0.0992-0.1254-0.1681-0.23702-0.20532-0.113-0.0372-0.31419-0.0551-0.60496-0.0551h-0.80754zm-0.34451 1.8342h1.006c0.17363 0 0.2949-6e-3 0.36794-0.018 0.12678-0.0219 0.23702-0.0579 0.32935-0.10887 0.09233-0.051 0.17363-0.124 0.24529-0.22048 0.07028-0.0965 0.11851-0.20807 0.14194-0.33486 0.02755-0.14746 0.01379-0.27697-0.04272-0.38583-0.0565-0.10887-0.15021-0.18606-0.27836-0.23015-0.12816-0.0441-0.32108-0.0661-0.57878-0.0661h-0.93431zm-0.62287 0.46853 0.74552-3.9701h1.5158c0.30868 0 0.54846 0.04 0.71934 0.11991 0.17225 0.0799 0.2949 0.20394 0.36931 0.37066 0.07442 0.16814 0.09508 0.34177 0.06064 0.52504-0.03168 0.16951-0.10887 0.32936-0.23151 0.47957-0.12127 0.15021-0.28526 0.27009-0.49196 0.36241 0.23151 0.0703 0.39688 0.19018 0.49609 0.36107 0.09922 0.16951 0.12816 0.36932 0.08406 0.60081-0.03447 0.18606-0.10749 0.35828-0.21636 0.51816-0.11024 0.15984-0.23289 0.28385-0.36656 0.37066-0.13367 0.0868-0.29352 0.15159-0.47818 0.19569-0.18603 0.0441-0.4079 0.0662-0.66559 0.0662z" style="fill:#d70000"/>
  <path id="path62240" d="m4.7811 174.52c0 0.3514 0.048232 0.60498 0.14332 0.76069 0.15572 0.25492 0.36794 0.38308 0.6339 0.38308 0.21636 0 0.40377-0.0937 0.56224-0.2825 0.15847-0.18877 0.23702-0.46852 0.23702-0.84197 0-0.38171-0.075791-0.66421-0.22738-0.84611-0.15159-0.18192-0.33486-0.27287-0.54984-0.27287-0.21635 0-0.40376 0.0937-0.56224 0.2825-0.15847 0.18881-0.23702 0.46027-0.23702 0.81718m0.0055 1.4856h-0.46026v-4.0404h0.49609v1.4414c0.20946-0.26321 0.4768-0.39412 0.80202-0.39412 0.18052 0 0.35002 0.0358 0.51125 0.10887 0.16123 0.073 0.29352 0.17501 0.39687 0.30592 0.10335 0.13092 0.18466 0.28939 0.24391 0.47541 0.059256 0.18605 0.088195 0.38449 0.088195 0.59531 0 0.50161-0.12402 0.88882-0.37207 1.1631-0.24805 0.27422-0.5457 0.41067-0.89297 0.41067-0.34589 0-0.61598-0.14471-0.81304-0.43272z" style="fill:#d70000"/>
  <path id="path62242" d="m36.825 170.54h-15.572v-0.35278h15.572z" style="fill:#d70000"/>
  <path id="path62244" d="m22.938 167.38 0.50436-0.0758c-0.0083 0.19431 0.04134 0.34174 0.14745 0.4451 0.10611 0.10199 0.27285 0.15434 0.49885 0.15434 0.22738 0 0.40514-0.0455 0.5333-0.13642 0.12678-0.0923 0.20257-0.19843 0.22462-0.32109 0.02067-0.11025-0.01101-0.19707-0.09646-0.26046-0.06064-0.0441-0.21911-0.0992-0.4768-0.16535-0.34727-0.0896-0.58429-0.16813-0.71245-0.23428-0.12816-0.0661-0.21773-0.15709-0.26872-0.27421-0.05099-0.11575-0.06202-0.24391-0.03583-0.38587 0.02342-0.12813 0.07579-0.24666 0.15572-0.35553 0.07993-0.11024 0.17914-0.19981 0.2949-0.27284 0.08819-0.0551 0.20257-0.10336 0.34313-0.14195 0.13918-0.0386 0.28663-0.0579 0.4396-0.0579 0.22875 0 0.42443 0.0317 0.58566 0.0978 0.16123 0.0648 0.27285 0.15296 0.33486 0.2632 0.06201 0.11162 0.09095 0.26046 0.08819 0.44648l-0.49747 0.0648c0.0055-0.1488-0.03721-0.26458-0.12678-0.34724-0.08957-0.0827-0.23151-0.12404-0.42443-0.12404-0.22738 0-0.39688 0.0358-0.5085 0.11025-0.11162 0.0744-0.17639 0.16122-0.1943 0.26045-0.01242 0.0634-0.0028 0.11988 0.02755 0.17089 0.0303 0.0523 0.08682 0.0951 0.16674 0.1295 0.04548 0.018 0.18466 0.0606 0.41479 0.12541 0.33348 0.091 0.56362 0.16676 0.69178 0.22599 0.12678 0.0593 0.22049 0.14334 0.27836 0.25633 0.05788 0.11162 0.07166 0.25079 0.03996 0.41617-0.0303 0.1626-0.10749 0.31556-0.23013 0.46027-0.12402 0.1433-0.28388 0.25354-0.47956 0.33211-0.19706 0.0785-0.41065 0.1185-0.64078 0.1185-0.38034 0-0.65457-0.0785-0.82545-0.23287-0.1695-0.15572-0.25356-0.38587-0.25218-0.6918" style="fill:#d70000"/>
  <path id="path62246" d="m26.44 164.83 0.10473-0.56088h0.49609l-0.10473 0.56088zm-0.63941 3.4092 0.53881-2.876h0.49747l-0.54019 2.876z" style="fill:#d70000"/>
  <path id="path62248" d="m27.052 168.24 0.54019-2.8773h0.44648l-0.07717 0.40925c0.27423-0.31556 0.61461-0.47402 1.0198-0.47402 0.17639 0 0.33348 0.0317 0.46991 0.0937 0.13505 0.062 0.23151 0.14471 0.28525 0.24529 0.05512 0.10199 0.08406 0.22186 0.08682 0.35969 0.0014 0.0909-0.0193 0.24942-0.06063 0.47541l-0.33211 1.768h-0.49609l0.32797-1.7501c0.03721-0.19844 0.04548-0.34728 0.02618-0.4451-0.02067-0.0979-0.07441-0.17639-0.16123-0.23566-0.08819-0.0593-0.19706-0.0882-0.32935-0.0882-0.21222 0-0.40652 0.0661-0.58429 0.19706-0.17776 0.13229-0.30179 0.38308-0.37069 0.75103l-0.2949 1.571z" style="fill:#d70000"/>
  <path id="path62250" d="m34.967 166.85 0.50987 0.13229c-0.19293 0.43272-0.45751 0.7607-0.791 0.98806-0.33348 0.22599-0.71107 0.34036-1.1314 0.34036-0.43546 0-0.77308-0.0882-1.0129-0.26179-0.24116-0.17502-0.40101-0.42722-0.48094-0.75795-0.0813-0.32935-0.08544-0.68488-0.01379-1.0638 0.07717-0.41342 0.22462-0.77446 0.44373-1.0818 0.21773-0.30868 0.49058-0.54296 0.81718-0.7028 0.32659-0.15847 0.66835-0.23979 1.0253-0.23979 0.40376 0 0.72485 0.10199 0.96325 0.30456 0.23702 0.20256 0.37621 0.48644 0.41479 0.85301l-0.54846 0.12125c-0.03996-0.28801-0.13643-0.49886-0.28939-0.63115-0.15434-0.13088-0.36518-0.19703-0.63528-0.19703-0.31144 0-0.58429 0.073-0.81993 0.21908-0.23702 0.14608-0.4203 0.34314-0.54984 0.58843-0.13092 0.24804-0.22049 0.50161-0.2701 0.76345-0.06339 0.3376-0.0689 0.63249-0.01655 0.88469 0.05374 0.25079 0.17363 0.4396 0.36242 0.5636 0.18741 0.12541 0.40376 0.18743 0.65043 0.18743 0.29904 0 0.56913-0.0841 0.80891-0.25358 0.23978-0.17085 0.42719-0.42305 0.56362-0.75653" style="fill:#d70000"/>
  <path id="path62252" d="m29.861 174.93 0.48782 0.0648c-0.05374 0.33486-0.19017 0.59807-0.40928 0.78825-0.22049 0.19015-0.4892 0.28663-0.80891 0.28663-0.40101 0-0.72347-0.13229-0.966-0.39412-0.24391-0.26183-0.36518-0.63666-0.36518-1.1259 0-0.31559 0.05237-0.59256 0.1571-0.82959 0.10473-0.23703 0.26321-0.41342 0.47818-0.53192 0.2136-0.11853 0.44649-0.17776 0.69729-0.17776 0.31833 0 0.57878 0.0799 0.78135 0.23978 0.20119 0.16122 0.33073 0.38996 0.38861 0.68626l-0.48231 0.0744c-0.04685-0.19706-0.12816-0.3459-0.24391-0.4451-0.11714-0.0978-0.25769-0.14884-0.42306-0.14884-0.2508 0-0.45338 0.0896-0.6091 0.27009-0.1571 0.1778-0.23427 0.46165-0.23427 0.84889 0 0.39412 0.07441 0.67938 0.226 0.85714 0.15021 0.17914 0.34726 0.26734 0.5898 0.26734 0.1943 0 0.35691-0.0593 0.48782-0.17914 0.12954-0.11853 0.21222-0.30318 0.24805-0.55122" style="fill:#d70000"/>
 </g>
</svg>
