<svg id="svg44168" version="1.1" viewBox="0 0 213.62 70.429" xmlns="http://www.w3.org/2000/svg">
 <title id="title44558">img_34</title>
 <g id="layer1" transform="translate(-53.452 -139.41)">
  <g id="g44556">
   <g id="use37775" transform="matrix(.35278 0 0 .35278 75.796 150.35)" style="fill:#1c1c19">
    <path id="path42899" d="m3.9375 0h1.7031v-11.594h3.9844v-1.4375h-9.6406v1.4375h3.9531z"/>
   </g>
   <g id="use37779" transform="matrix(.35278 0 0 .35278 79.138 150.35)" style="fill:#1c1c19">
    <path id="path42903" d="m3.1094 0v-9.3594h-1.7031v9.3594zm-0.84375-13.047c-0.625 0-1.0625 0.46875-1.0625 1.0625 0 0.57812 0.42188 1.0469 1.0156 1.0469 0.6875 0 1.1094-0.46875 1.0938-1.0469 0-0.59375-0.40625-1.0625-1.0469-1.0625z"/>
   </g>
   <g id="use37781" transform="matrix(.35278 0 0 .35278 80.768 150.35)" style="fill:#1c1c19">
    <path id="path42907" d="m1.4062 0h1.6719v-5.6406c0-0.29688 0.03125-0.57812 0.125-0.82812 0.28125-0.85938 1.0469-1.7031 2.1094-1.7031 1.2969 0 1.9531 1.0781 1.9531 2.5625v5.6094h1.6562v-5.7812c0-0.3125 0.0625-0.60938 0.14062-0.84375 0.29688-0.82812 1.0469-1.5469 2.0156-1.5469 1.375 0 2.0312 1.0781 2.0312 2.875v5.2969h1.6562v-5.5156c0-3.2344-1.8281-4.0469-3.0781-4.0469-0.89062 0-1.5 0.23438-2.0625 0.65625-0.39062 0.28125-0.75 0.6875-1.0469 1.2188h-0.03125c-0.40625-1.1094-1.375-1.875-2.6562-1.875-1.5469 0-2.4062 0.82812-2.9375 1.7188h-0.046875l-0.078125-1.5156h-1.5c0.0625 0.78125 0.078125 1.5625 0.078125 2.5312z"/>
   </g>
   <g id="use37783" transform="matrix(.35278 0 0 .35278 86.49 150.35)" style="fill:#1c1c19">
    <path id="path42911" d="m8.9219-4.375c0.03125-0.17188 0.0625-0.4375 0.0625-0.78125 0-1.7188-0.8125-4.4062-3.8594-4.4062-2.7344 0-4.3906 2.2188-4.3906 5.0469 0 2.8125 1.7188 4.7031 4.5938 4.7031 1.5 0 2.5156-0.29688 3.125-0.57812l-0.29688-1.2188c-0.64062 0.28125-1.375 0.48438-2.5938 0.48438-1.7031 0-3.1719-0.9375-3.2031-3.25zm-6.5469-1.2031c0.14062-1.1875 0.89062-2.7656 2.6094-2.7656 1.9219 0 2.375 1.6719 2.3594 2.7656z"/>
   </g>
  </g>
  <g id="g44546">
   <g id="use37787" transform="matrix(.35278 0 0 .35278 91.421 150.35)" style="fill:#1c1c19">
    <path id="path42915" d="m3.7656-13.406c-1.2188 1.6094-2.5156 4.0938-2.5312 7.8906 0 3.7812 1.3125 6.25 2.5312 7.8594h1.3438c-1.375-1.9375-2.4375-4.4062-2.4375-7.8594 0-3.4844 1.0156-6 2.4375-7.8906z"/>
   </g>
   <g id="use37789" transform="matrix(.35278 0 0 .35278 93.392 150.35)" style="fill:#1c1c19">
    <path id="path42919" d="m1.4062 0h1.7031v-5.6406c0-0.32812 0.015625-0.57812 0.125-0.8125 0.29688-0.9375 1.1719-1.7031 2.2812-1.7031 1.5938 0 2.1562 1.2812 2.1562 2.7812v5.375h1.7031v-5.5625c0-3.2344-2.0156-4-3.2656-4-0.64062 0-1.2344 0.1875-1.7344 0.48438-0.53125 0.28125-0.95312 0.70312-1.2188 1.1875h-0.046875v-5.8281h-1.7031z"/>
   </g>
   <g id="use37791" transform="matrix(.35278 0 0 .35278 97.211 150.35)" style="fill:#1c1c19">
    <path id="path42923" d="m5.375-9.5625c-2.5938 0-4.6406 1.8281-4.6406 4.9688 0 2.9531 1.9531 4.8125 4.4844 4.8125 2.2656 0 4.6562-1.5156 4.6562-4.9688 0-2.8594-1.8125-4.8125-4.5-4.8125zm-0.046875 1.2656c2.0156 0 2.8125 2.0156 2.8125 3.5938 0 2.1094-1.2188 3.6406-2.8438 3.6406-1.6562 0-2.8438-1.5469-2.8438-3.5938 0-1.7812 0.875-3.6406 2.875-3.6406z"/>
   </g>
   <g id="use37793" transform="matrix(.35278 0 0 .35278 100.99 150.35)" style="fill:#1c1c19">
    <path id="path42927" d="m9.2344-9.3594h-1.7031v5.75c0 0.29688-0.046875 0.60938-0.14062 0.85938-0.3125 0.76562-1.1094 1.5469-2.25 1.5469-1.5469 0-2.0938-1.1875-2.0938-2.9688v-5.1875h-1.6875v5.4688c0 3.2969 1.75 4.1094 3.2188 4.1094 1.6719 0 2.6562-0.98438 3.0938-1.75h0.046875l0.09375 1.5312h1.5c-0.046875-0.73438-0.078125-1.5781-0.078125-2.5469z"/>
   </g>
   <g id="use37795" transform="matrix(.35278 0 0 .35278 104.78 150.35)" style="fill:#1c1c19">
    <path id="path42931" d="m1.4062 0h1.6875v-4.9844c0-0.29688 0.03125-0.5625 0.078125-0.79688 0.23438-1.2812 1.0781-2.1875 2.2812-2.1875 0.23438 0 0.40625 0.03125 0.57812 0.0625v-1.6094c-0.15625-0.03125-0.29688-0.046875-0.48438-0.046875-1.1406 0-2.1719 0.78125-2.5938 2.0469h-0.078125l-0.046875-1.8438h-1.5c0.0625 0.875 0.078125 1.8281 0.078125 2.9219z"/>
   </g>
   <g id="use37797" transform="matrix(.35278 0 0 .35278 107.04 150.35)" style="fill:#1c1c19">
    <path id="path42935" d="m0.75-0.4375c0.65625 0.375 1.6094 0.625 2.625 0.625 2.2344 0 3.5-1.1562 3.5-2.7969 0-1.3906-0.82812-2.2031-2.4531-2.8281-1.2188-0.45312-1.7812-0.8125-1.7812-1.5781 0-0.70312 0.5625-1.2812 1.5781-1.2812 0.85938 0 1.5469 0.3125 1.9062 0.54688l0.42188-1.2344c-0.51562-0.3125-1.3438-0.57812-2.2969-0.57812-2.0156 0-3.2188 1.2344-3.2188 2.7344 0 1.125 0.78125 2.0469 2.4688 2.6562 1.25 0.45312 1.7344 0.90625 1.7344 1.7188 0 0.76562-0.57812 1.3906-1.8125 1.3906-0.84375 0-1.7344-0.34375-2.25-0.67188z"/>
   </g>
   <g id="use37799" transform="matrix(.35278 0 0 .35278 109.78 150.35)" style="fill:#1c1c19">
    <path id="path42939" d="m1.7031 2.3438c1.2344-1.6406 2.5312-4.1094 2.5312-7.8906 0-3.8125-1.2969-6.2812-2.5312-7.8594h-1.3125c1.3906 1.9062 2.4375 4.375 2.4375 7.8438s-1.0625 5.9844-2.4375 7.9062z"/>
   </g>
  </g>
  <g id="g44530">
   <g id="use37803" transform="matrix(.35278 0 0 .35278 113.23 150.35)" style="fill:#1c1c19">
    <path id="path42943" d="m1.4688-0.03125c0.84375 0.09375 1.8594 0.14062 3.0469 0.14062 2.5469 0 4.5469-0.65625 5.7656-1.875 1.2188-1.1875 1.875-2.9375 1.875-5.0625 0-2.0938-0.67188-3.6094-1.8281-4.6719-1.1406-1.0625-2.875-1.625-5.2812-1.625-1.3281 0-2.5469 0.10938-3.5781 0.26562zm1.6875-11.578c0.4375-0.10938 1.0938-0.1875 1.9688-0.1875 3.5469 0 5.2969 1.9531 5.2812 5.0312 0 3.5156-1.9531 5.5312-5.5625 5.5312-0.65625 0-1.2656-0.015625-1.6875-0.09375z"/>
   </g>
   <g id="use37805" transform="matrix(.35278 0 0 .35278 117.81 150.35)" style="fill:#1c1c19">
    <path id="path42947" d="m3.1094 0v-9.3594h-1.7031v9.3594zm-0.84375-13.047c-0.625 0-1.0625 0.46875-1.0625 1.0625 0 0.57812 0.42188 1.0469 1.0156 1.0469 0.6875 0 1.1094-0.46875 1.0938-1.0469 0-0.59375-0.40625-1.0625-1.0469-1.0625z"/>
   </g>
   <g id="use37807" transform="matrix(.35278 0 0 .35278 119.44 150.35)" style="fill:#1c1c19">
    <path id="path42951" d="m0.75-0.4375c0.65625 0.375 1.6094 0.625 2.625 0.625 2.2344 0 3.5-1.1562 3.5-2.7969 0-1.3906-0.82812-2.2031-2.4531-2.8281-1.2188-0.45312-1.7812-0.8125-1.7812-1.5781 0-0.70312 0.5625-1.2812 1.5781-1.2812 0.85938 0 1.5469 0.3125 1.9062 0.54688l0.42188-1.2344c-0.51562-0.3125-1.3438-0.57812-2.2969-0.57812-2.0156 0-3.2188 1.2344-3.2188 2.7344 0 1.125 0.78125 2.0469 2.4688 2.6562 1.25 0.45312 1.7344 0.90625 1.7344 1.7188 0 0.76562-0.57812 1.3906-1.8125 1.3906-0.84375 0-1.7344-0.34375-2.25-0.67188z"/>
   </g>
   <g id="use37809" transform="matrix(.35278 0 0 .35278 122.17 150.35)" style="fill:#1c1c19">
    <path id="path42955" d="m1.7969-11.594v2.2344h-1.4531v1.2969h1.4531v5.1094c0 1.0938 0.17188 1.9219 0.65625 2.4375 0.40625 0.45312 1.0469 0.70312 1.8438 0.70312 0.65625 0 1.1719-0.09375 1.5-0.21875l-0.078125-1.2812c-0.20312 0.0625-0.53125 0.10938-0.98438 0.10938-0.95312 0-1.2812-0.65625-1.2812-1.8125v-5.0469h2.4375v-1.2969h-2.4375v-2.6875z"/>
   </g>
   <g id="use37811" transform="matrix(.35278 0 0 .35278 124.46 150.35)" style="fill:#1c1c19">
    <path id="path42959" d="m8.1406 0c-0.125-0.64062-0.15625-1.4375-0.15625-2.2344v-3.5c0-1.875-0.70312-3.8281-3.5625-3.8281-1.1719 0-2.2969 0.32812-3.0625 0.82812l0.375 1.125c0.65625-0.4375 1.5781-0.70312 2.4375-0.70312 1.9219 0 2.125 1.3906 2.125 2.1719v0.1875c-3.6094-0.015625-5.625 1.2188-5.625 3.4844 0 1.3438 0.96875 2.6875 2.8594 2.6875 1.3438 0 2.3438-0.65625 2.8594-1.3906h0.0625l0.14062 1.1719zm-1.7969-3.1562c0 0.1875-0.046875 0.375-0.09375 0.54688-0.28125 0.79688-1.0469 1.5625-2.2656 1.5625-0.875 0-1.6094-0.51562-1.6094-1.625 0-1.8125 2.1094-2.1406 3.9688-2.1094z"/>
   </g>
   <g id="use37813" transform="matrix(.35278 0 0 .35278 127.78 150.35)" style="fill:#1c1c19">
    <path id="path42963" d="m1.4062 0h1.7031v-5.625c0-0.29688 0.046875-0.57812 0.125-0.79688 0.28125-0.9375 1.1562-1.7344 2.2812-1.7344 1.5938 0 2.1562 1.25 2.1562 2.7656v5.3906h1.7031v-5.5781c0-3.2188-2.0156-3.9844-3.3125-3.9844-1.5469 0-2.625 0.85938-3.0938 1.75h-0.03125l-0.09375-1.5469h-1.5156c0.0625 0.78125 0.078125 1.5625 0.078125 2.5312z"/>
   </g>
   <g id="use37815" transform="matrix(.35278 0 0 .35278 131.6 150.35)" style="fill:#1c1c19">
    <path id="path42967" d="m7.7969-1.625c-0.48438 0.21875-1.125 0.46875-2.0938 0.46875-1.8594 0-3.25-1.3438-3.25-3.5 0-1.9531 1.1562-3.5312 3.3125-3.5312 0.92188 0 1.5625 0.20312 1.9688 0.4375l0.39062-1.3125c-0.46875-0.23438-1.3594-0.48438-2.3594-0.48438-3.0625 0-5.0312 2.0938-5.0312 4.9688 0 2.8594 1.8438 4.7656 4.6562 4.7656 1.2656 0 2.25-0.29688 2.6875-0.53125z"/>
   </g>
   <g id="use37819" transform="matrix(.35278 0 0 .35278 134.65 150.35)" style="fill:#1c1c19">
    <path id="path42971" d="m8.9219-4.375c0.03125-0.17188 0.0625-0.4375 0.0625-0.78125 0-1.7188-0.8125-4.4062-3.8594-4.4062-2.7344 0-4.3906 2.2188-4.3906 5.0469 0 2.8125 1.7188 4.7031 4.5938 4.7031 1.5 0 2.5156-0.29688 3.125-0.57812l-0.29688-1.2188c-0.64062 0.28125-1.375 0.48438-2.5938 0.48438-1.7031 0-3.1719-0.9375-3.2031-3.25zm-6.5469-1.2031c0.14062-1.1875 0.89062-2.7656 2.6094-2.7656 1.9219 0 2.375 1.6719 2.3594 2.7656z"/>
   </g>
  </g>
  <path id="path37825" d="m160.26 157.11h-106.63v-17.519h106.63z" style="fill:none;stroke-miterlimit:10;stroke-width:.35278;stroke:#7d7878"/>
  <path id="path37827" d="m266.9 157.11h-106.63v-17.519h106.63z" style="fill:none;stroke-miterlimit:10;stroke-width:.35278;stroke:#7d7878"/>
  <path id="path37829" d="m160.26 174.62h-106.63v-17.519h106.63z" style="fill:none;stroke-miterlimit:10;stroke-width:.35278;stroke:#7d7878"/>
  <path id="path37831" d="m266.9 174.62h-106.63v-17.519h106.63z" style="fill:none;stroke-miterlimit:10;stroke-width:.35278;stroke:#7d7878"/>
  <path id="path37833" d="m160.26 192.14h-106.63v-17.519h106.63z" style="fill:none;stroke-miterlimit:10;stroke-width:.35278;stroke:#7d7878"/>
  <path id="path37835" d="m266.9 192.14h-106.63v-17.519h106.63z" style="fill:none;stroke-miterlimit:10;stroke-width:.35278;stroke:#7d7878"/>
  <path id="path37837" d="m160.26 209.66h-106.63v-17.519h106.63z" style="fill:none;stroke-miterlimit:10;stroke-width:.35278;stroke:#7d7878"/>
  <path id="path37839" d="m266.9 209.66h-106.63v-17.519h106.63z" style="fill:none;stroke-miterlimit:10;stroke-width:.35278;stroke:#7d7878"/>
  <g id="g44512">
   <g id="use37841" transform="matrix(.35278 0 0 .35278 193.37 150.35)" style="fill:#1c1c19">
    <path id="path43237" d="m3.9375 0h1.7031v-11.594h3.9844v-1.4375h-9.6406v1.4375h3.9531z"/>
   </g>
   <g id="use37845" transform="matrix(.35278 0 0 .35278 196.49 150.35)" style="fill:#1c1c19">
    <path id="path43241" d="m1.4062 0h1.6875v-4.9844c0-0.29688 0.03125-0.5625 0.078125-0.79688 0.23438-1.2812 1.0781-2.1875 2.2812-2.1875 0.23438 0 0.40625 0.03125 0.57812 0.0625v-1.6094c-0.15625-0.03125-0.29688-0.046875-0.48438-0.046875-1.1406 0-2.1719 0.78125-2.5938 2.0469h-0.078125l-0.046875-1.8438h-1.5c0.0625 0.875 0.078125 1.8281 0.078125 2.9219z"/>
   </g>
   <g id="use37849" transform="matrix(.35278 0 0 .35278 198.72 150.35)" style="fill:#1c1c19">
    <path id="path43245" d="m8.1406 0c-0.125-0.64062-0.15625-1.4375-0.15625-2.2344v-3.5c0-1.875-0.70312-3.8281-3.5625-3.8281-1.1719 0-2.2969 0.32812-3.0625 0.82812l0.375 1.125c0.65625-0.4375 1.5781-0.70312 2.4375-0.70312 1.9219 0 2.125 1.3906 2.125 2.1719v0.1875c-3.6094-0.015625-5.625 1.2188-5.625 3.4844 0 1.3438 0.96875 2.6875 2.8594 2.6875 1.3438 0 2.3438-0.65625 2.8594-1.3906h0.0625l0.14062 1.1719zm-1.7969-3.1562c0 0.1875-0.046875 0.375-0.09375 0.54688-0.28125 0.79688-1.0469 1.5625-2.2656 1.5625-0.875 0-1.6094-0.51562-1.6094-1.625 0-1.8125 2.1094-2.1406 3.9688-2.1094z"/>
   </g>
   <g id="use37853" transform="matrix(.35278 0 0 .35278 201.99 150.35)" style="fill:#1c1c19">
    <path id="path43249" d="m0.25-9.3594 3.5625 9.3594h1.625l3.6719-9.3594h-1.7812l-1.8125 5.2656c-0.3125 0.84375-0.59375 1.625-0.79688 2.3906h-0.0625c-0.1875-0.76562-0.4375-1.5469-0.75-2.3906l-1.8438-5.2656z"/>
   </g>
   <g id="use37857" transform="matrix(.35278 0 0 .35278 205.23 150.35)" style="fill:#1c1c19">
    <path id="path43253" d="m8.9219-4.375c0.03125-0.17188 0.0625-0.4375 0.0625-0.78125 0-1.7188-0.8125-4.4062-3.8594-4.4062-2.7344 0-4.3906 2.2188-4.3906 5.0469 0 2.8125 1.7188 4.7031 4.5938 4.7031 1.5 0 2.5156-0.29688 3.125-0.57812l-0.29688-1.2188c-0.64062 0.28125-1.375 0.48438-2.5938 0.48438-1.7031 0-3.1719-0.9375-3.2031-3.25zm-6.5469-1.2031c0.14062-1.1875 0.89062-2.7656 2.6094-2.7656 1.9219 0 2.375 1.6719 2.3594 2.7656z"/>
   </g>
   <g id="use37859" transform="matrix(.35278 0 0 .35278 208.68 150.35)" style="fill:#1c1c19">
    <path id="path43257" d="m1.4062 0h1.7031v-13.719h-1.7031z"/>
   </g>
   <g id="use37861" transform="matrix(.35278 0 0 .35278 210.33 150.35)" style="fill:#1c1c19">
    <path id="path43261" d="m1.4062 0h1.7031v-13.719h-1.7031z"/>
   </g>
   <g id="use37863" transform="matrix(.35278 0 0 .35278 211.97 150.35)" style="fill:#1c1c19">
    <path id="path43265" d="m8.9219-4.375c0.03125-0.17188 0.0625-0.4375 0.0625-0.78125 0-1.7188-0.8125-4.4062-3.8594-4.4062-2.7344 0-4.3906 2.2188-4.3906 5.0469 0 2.8125 1.7188 4.7031 4.5938 4.7031 1.5 0 2.5156-0.29688 3.125-0.57812l-0.29688-1.2188c-0.64062 0.28125-1.375 0.48438-2.5938 0.48438-1.7031 0-3.1719-0.9375-3.2031-3.25zm-6.5469-1.2031c0.14062-1.1875 0.89062-2.7656 2.6094-2.7656 1.9219 0 2.375 1.6719 2.3594 2.7656z"/>
   </g>
   <g id="use37865" transform="matrix(.35278 0 0 .35278 215.42 150.35)" style="fill:#1c1c19">
    <path id="path43269" d="m7.7969-13.719v5.5781h-0.046875c-0.42188-0.75-1.3906-1.4219-2.8281-1.4219-2.2812 0-4.2031 1.9062-4.1875 5.0156 0 2.8438 1.7344 4.7656 4 4.7656 1.5312 0 2.6719-0.79688 3.1875-1.8438h0.046875l0.078125 1.625h1.5156c-0.046875-0.64062-0.078125-1.5781-0.078125-2.4219v-11.297zm0 9.7969c0 0.26562-0.03125 0.5-0.078125 0.73438-0.3125 1.2812-1.3594 2.0312-2.5 2.0312-1.8438 0-2.7656-1.5625-2.7656-3.4688 0-2.0625 1.0469-3.6094 2.7969-3.6094 1.2812 0 2.2031 0.89062 2.4688 1.9688 0.046875 0.21875 0.078125 0.5 0.078125 0.71875z"/>
   </g>
  </g>
  <g id="g44492">
   <g id="use37869" transform="matrix(.35278 0 0 .35278 220.78 150.35)" style="fill:#1c1c19">
    <path id="path43273" d="m3.7656-13.406c-1.2188 1.6094-2.5156 4.0938-2.5312 7.8906 0 3.7812 1.3125 6.25 2.5312 7.8594h1.3438c-1.375-1.9375-2.4375-4.4062-2.4375-7.8594 0-3.4844 1.0156-6 2.4375-7.8906z"/>
   </g>
   <g id="use37871" transform="matrix(.35278 0 0 .35278 222.75 150.35)" style="fill:#1c1c19">
    <path id="path43277" d="m3.0938-13.719h-1.6875v13.719h1.6875v-3.5156l0.875-0.96875 3.2188 4.4844h2.0781l-4.125-5.5156 3.6094-3.8438h-2.0469l-2.7344 3.2344c-0.28125 0.32812-0.60938 0.73438-0.84375 1.0625h-0.03125z"/>
   </g>
   <g id="use37875" transform="matrix(.35278 0 0 .35278 226.1 150.35)" style="fill:#1c1c19">
    <path id="path43281" d="m1.4062 0h1.6719v-5.6406c0-0.29688 0.03125-0.57812 0.125-0.82812 0.28125-0.85938 1.0469-1.7031 2.1094-1.7031 1.2969 0 1.9531 1.0781 1.9531 2.5625v5.6094h1.6562v-5.7812c0-0.3125 0.0625-0.60938 0.14062-0.84375 0.29688-0.82812 1.0469-1.5469 2.0156-1.5469 1.375 0 2.0312 1.0781 2.0312 2.875v5.2969h1.6562v-5.5156c0-3.2344-1.8281-4.0469-3.0781-4.0469-0.89062 0-1.5 0.23438-2.0625 0.65625-0.39062 0.28125-0.75 0.6875-1.0469 1.2188h-0.03125c-0.40625-1.1094-1.375-1.875-2.6562-1.875-1.5469 0-2.4062 0.82812-2.9375 1.7188h-0.046875l-0.078125-1.5156h-1.5c0.0625 0.78125 0.078125 1.5625 0.078125 2.5312z"/>
   </g>
   <g id="use37877" transform="matrix(.35278 0 0 .35278 231.82 150.35)" style="fill:#1c1c19">
    <path id="path43285" d="m1.7031 2.3438c1.2344-1.6406 2.5312-4.1094 2.5312-7.8906 0-3.8125-1.2969-6.2812-2.5312-7.8594h-1.3125c1.3906 1.9062 2.4375 4.375 2.4375 7.8438s-1.0625 5.9844-2.4375 7.9062z"/>
   </g>
  </g>
  <g id="use37881" transform="matrix(.35278 0 0 .35278 104.44 167.87)" style="fill:#7d7878">
   <path id="path43609" d="m0.8125-0.64062c0.625 0.40625 1.8594 0.85938 3.2656 0.85938 3.0156 0 4.5781-1.7656 4.5781-3.7812 0-1.75-1.25-2.9062-2.7969-3.2188v-0.046875c1.5469-0.5625 2.3125-1.6562 2.3125-2.9531 0-1.5312-1.1094-3-3.5938-3-1.3438 0-2.625 0.48438-3.2812 0.96875l0.4375 1.2344c0.54688-0.375 1.5156-0.82812 2.5156-0.82812 1.5625 0 2.2031 0.89062 2.2031 1.8906 0 1.5-1.5625 2.125-2.7969 2.125h-0.95312v1.2812h0.95312c1.6406 0 3.2188 0.75 3.25 2.5156 0.015625 1.0469-0.65625 2.4375-2.8438 2.4375-1.1875 0-2.2969-0.48438-2.7812-0.79688z"/>
  </g>
  <g id="g44482">
   <g id="use37887" transform="matrix(.35278 0 0 .35278 211.05 167.87)" style="fill:#7d7878">
    <path id="path43613" d="m1.8594 0.1875c0.40625 0.03125 0.9375 0 1.5625-0.09375 1.3594-0.15625 2.6875-0.73438 3.6562-1.6719 1.2344-1.2031 2.1562-3.1406 2.1562-5.9062 0-3.2031-1.5781-5.2969-4.1562-5.2969-2.5625 0-4.2812 2.0938-4.2812 4.4688 0 2.1406 1.4375 3.8438 3.7031 3.8438 1.2656 0 2.2656-0.5 2.9531-1.3438h0.0625c-0.23438 1.4844-0.82812 2.5781-1.6562 3.3438-0.71875 0.67188-1.6406 1.0781-2.625 1.2188-0.59375 0.046875-1.0156 0.09375-1.375 0.046875zm3.0938-11.672c1.7656 0 2.5625 1.6406 2.5625 3.7969 0 0.26562-0.0625 0.45312-0.15625 0.60938-0.4375 0.76562-1.3281 1.3125-2.4688 1.3125-1.4688 0-2.4219-1.0938-2.4219-2.6562 0-1.7812 1.0312-3.0625 2.4844-3.0625z"/>
   </g>
   <g id="use37889" transform="matrix(.35278 0 0 .35278 214.58 167.87)" style="fill:#7d7878">
    <path id="path43617" d="m5.0625-12.781c-2.5469 0-4.3594 2.3281-4.3594 6.5312 0.03125 4.1562 1.6875 6.4688 4.1406 6.4688 2.7969 0 4.375-2.3594 4.375-6.6406 0-4-1.5-6.3594-4.1562-6.3594zm-0.09375 1.3125c1.75 0 2.5469 2.0312 2.5469 5.125 0 3.2188-0.82812 5.2344-2.5625 5.2344-1.5469 0-2.5625-1.8438-2.5625-5.1094 0-3.4219 1.0938-5.25 2.5781-5.25z"/>
   </g>
  </g>
  <g id="use37893" transform="matrix(.35278 0 0 .35278 104.44 185.91)" style="fill:#7d7878">
   <path id="path43621" d="m8.0469-12.75c-0.3125 0-0.73438 0.01563-1.25 0.09375-1.5781 0.1875-2.9688 0.82812-4.0156 1.8594-1.2344 1.2344-2.125 3.1875-2.125 5.6562 0 3.2656 1.7656 5.3594 4.4531 5.3594 2.6094 0 4.1719-2.125 4.1719-4.4375 0-2.4531-1.5625-4.0469-3.7969-4.0469-1.3906 0-2.4375 0.65625-3.0312 1.4375h-0.0625c0.29688-2.0625 1.7031-4.0156 4.375-4.4531 0.48438-0.07813 0.92188-0.10938 1.2812-0.07813zm-2.9375 11.641c-1.7812 0-2.7344-1.5156-2.7656-3.5938 0-0.29688 0.078125-0.54688 0.1875-0.75 0.46875-0.90625 1.4062-1.5469 2.4375-1.5469 1.5625 0 2.5938 1.0781 2.5938 2.8906 0 1.7969-0.98438 3-2.4531 3z"/>
  </g>
  <g id="g44468">
   <path id="path37823" d="m213.55 182.34c0.39963 0 0.51401-0.52916 0.0524-0.52916-0.39963 0-0.514 0.52916-0.0524 0.52916" style="fill:#7d7878"/>
   <g id="use37899" transform="matrix(.35278 0 0 .35278 208.28 185.91)" style="fill:#7d7878">
    <path id="path43625" d="m4.5625 0h1.6406v-12.562h-1.4531l-2.7344 1.4688 0.32812 1.2969 2.1719-1.1875h0.046875z"/>
   </g>
   <g id="use37901" transform="matrix(.35278 0 0 .35278 211.81 185.91)" style="fill:#7d7878">
    <path id="path43629" d="m4.9219 0.21875c2.4062 0 4.2812-1.4688 4.2812-3.6562 0-1.5312-0.96875-2.625-2.5312-3.25v-0.0625c1.5469-0.73438 2.0625-1.875 2.0625-2.9375 0-1.5625-1.2188-3.0938-3.6562-3.0938-2.2031 0-3.875 1.3594-3.875 3.3438 0 1.0938 0.59375 2.1719 1.9844 2.8281l0.015625 0.0625c-1.5469 0.65625-2.4844 1.7656-2.4844 3.3594 0 1.8281 1.5781 3.4062 4.2031 3.4062zm0.046875-1.25c-1.6094 0-2.5781-1.1094-2.5156-2.3906 0-1.2031 0.79688-2.1562 2.2656-2.5938 1.7031 0.48438 2.7656 1.2188 2.7656 2.75 0 1.2969-0.98438 2.2344-2.5156 2.2344zm0.015625-10.531c1.5312 0 2.125 1.0469 2.125 2.0469 0 1.1406-0.82812 1.9219-1.9062 2.2812-1.4531-0.375-2.4062-1.0625-2.4062-2.3125 0-1.0781 0.78125-2.0156 2.1875-2.0156z"/>
   </g>
   <g id="use37903" transform="matrix(.35278 0 0 .35278 215.35 185.91)" style="fill:#7d7878">
    <path id="path43633" d="m5.0625-12.781c-2.5469 0-4.3594 2.3281-4.3594 6.5312 0.03125 4.1562 1.6875 6.4688 4.1406 6.4688 2.7969 0 4.375-2.3594 4.375-6.6406 0-4-1.5-6.3594-4.1562-6.3594zm-0.09375 1.3125c1.75 0 2.5469 2.0312 2.5469 5.125 0 3.2188-0.82812 5.2344-2.5625 5.2344-1.5469 0-2.5625-1.8438-2.5625-5.1094 0-3.4219 1.0938-5.25 2.5781-5.25z"/>
   </g>
  </g>
  <g id="use37907" transform="matrix(.35278 0 0 .35278 104.44 203.57)" style="fill:#7d7878">
   <path id="path43637" d="m1.8594 0.1875c0.40625 0.03125 0.9375 0 1.5625-0.09375 1.3594-0.15625 2.6875-0.73438 3.6562-1.6719 1.2344-1.2031 2.1562-3.1406 2.1562-5.9062 0-3.2031-1.5781-5.2969-4.1562-5.2969-2.5625 0-4.2812 2.0938-4.2812 4.4688 0 2.1406 1.4375 3.8438 3.7031 3.8438 1.2656 0 2.2656-0.5 2.9531-1.3438h0.0625c-0.23438 1.4844-0.82812 2.5781-1.6562 3.3438-0.71875 0.67188-1.6406 1.0781-2.625 1.2188-0.59375 0.046875-1.0156 0.09375-1.375 0.046875zm3.0938-11.672c1.7656 0 2.5625 1.6406 2.5625 3.7969 0 0.26562-0.0625 0.45312-0.15625 0.60938-0.4375 0.76562-1.3281 1.3125-2.4688 1.3125-1.4688 0-2.4219-1.0938-2.4219-2.6562 0-1.7812 1.0312-3.0625 2.4844-3.0625z"/>
  </g>
  <g id="g44476">
   <g id="use37913" transform="matrix(.35278 0 0 .35278 208.28 203.57)" style="fill:#7d7878">
    <path id="path43641" d="m8.8906 0v-1.4062h-5.6406v-0.046875l1-0.92188c2.6562-2.5469 4.3281-4.4219 4.3281-6.75 0-1.7969-1.1406-3.6562-3.8438-3.6562-1.4531 0-2.6875 0.54688-3.5625 1.2812l0.54688 1.2031c0.57812-0.48438 1.5312-1.0625 2.6719-1.0625 1.875 0 2.4844 1.1719 2.4844 2.4531-0.015625 1.8906-1.4688 3.5156-4.6719 6.5625l-1.3281 1.2969v1.0469z"/>
   </g>
   <g id="use37915" transform="matrix(.35278 0 0 .35278 211.81 203.57)" style="fill:#7d7878">
    <path id="path43645" d="m1.1094-12.562v1.4062h6.1406v0.04687l-5.4531 11.109h1.7656l5.4688-11.438v-1.125z"/>
   </g>
   <g id="use37917" transform="matrix(.35278 0 0 .35278 215.35 203.57)" style="fill:#7d7878">
    <path id="path43649" d="m5.0625-12.781c-2.5469 0-4.3594 2.3281-4.3594 6.5312 0.03125 4.1562 1.6875 6.4688 4.1406 6.4688 2.7969 0 4.375-2.3594 4.375-6.6406 0-4-1.5-6.3594-4.1562-6.3594zm-0.09375 1.3125c1.75 0 2.5469 2.0312 2.5469 5.125 0 3.2188-0.82812 5.2344-2.5625 5.2344-1.5469 0-2.5625-1.8438-2.5625-5.1094 0-3.4219 1.0938-5.25 2.5781-5.25z"/>
   </g>
  </g>
 </g>
</svg>
