<svg id="svg33957" version="1.1" viewBox="0 0 123.34 73.779" xmlns="http://www.w3.org/2000/svg">
 <title id="title34004">img_31</title>
 <g id="layer1" transform="translate(-38.115 -139.25)">
  <path id="path29040" d="m43.321 152.82s2.9959 0.74137 5.4295-1.6178c1.571-1.5241 1.6702-3.3982 1.6702-4.6137" style="fill:none;stroke-miterlimit:10;stroke-width:1.1067;stroke:#e10511"/>
  <path id="path29042" d="m42.141 149.56c1.2265-0.0137 2.938-0.32247 4.3091-1.6661 0.92466-0.90812 1.1217-2.0078 1.0501-2.9573" style="fill:none;stroke-miterlimit:10;stroke-width:1.1067;stroke:#e10511"/>
  <path id="path29044" d="m60.297 199.74s4.4621-0.84472 8.2655 2.3937c3.4079 2.9008 3.2687 7.2319 3.2687 7.2319" style="fill:none;stroke-miterlimit:10;stroke-width:1.1067;stroke:#e10511"/>
  <path id="path29046" d="m61.495 203.05s2.5521-0.30868 4.9472 1.5944c2.2118 1.7584 2.1911 4.7033 2.1911 4.7033" style="fill:none;stroke-miterlimit:10;stroke-width:1.1067;stroke:#e10511"/>
  <path id="path29048" d="m59.315 197.03s6.3886-1.3436 10.911 2.3316c4.7088 3.8254 4.4993 9.9908 4.4993 9.9908" style="fill:none;stroke-miterlimit:10;stroke-width:1.1067;stroke:#e10511"/>
  <path id="path29050" d="m147.34 201.91s-1.9486 0.84751-2.7588 2.6472c-1.1879 2.6362 0.57464 4.8149 0.57464 4.8149" style="fill:none;stroke-miterlimit:10;stroke-width:1.1067;stroke:#e10511"/>
  <path id="path29052" d="m38.632 139.86 25.148 69.508h96.634z" style="fill:none;stroke-miterlimit:10;stroke-width:.55351;stroke:#173a6e"/>
  <path id="path29054" d="m107.14 205.21 3.3059 7.7046" style="fill:none;stroke-miterlimit:10;stroke-width:.55351;stroke:#e10511"/>
  <path id="path29056" d="m56.897 179.59-8.3247-0.99356" style="fill:none;stroke-miterlimit:10;stroke-width:.55351;stroke:#e10511"/>
  <path id="path29058" d="m108.79 204.49 3.3059 7.706" style="fill:none;stroke-miterlimit:10;stroke-width:.55351;stroke:#e10511"/>
  <path id="path29060" d="m98.469 178.55 0.452-8.373" style="fill:none;stroke-miterlimit:10;stroke-width:.55351;stroke:#e10511"/>
  <path id="path29062" d="m100.64 179.87 0.45337-8.3716" style="fill:none;stroke-miterlimit:10;stroke-width:.55351;stroke:#e10511"/>
  <path id="path29064" d="m96.417 177.64 0.45338-8.3716" style="fill:none;stroke-miterlimit:10;stroke-width:.55351;stroke:#e10511"/>
 </g>
</svg>
