<svg id="svg24627" version="1.1" viewBox="0 0 96.851 76.948" xmlns="http://www.w3.org/2000/svg">
 <title id="title24761">img_24</title>
 <g id="layer1" transform="translate(-24.902 -81.722)">
  <path id="path11985" d="m77.193 97.235c0 6.0592-11.66 10.971-26.044 10.971-14.383 0-26.044-4.9113-26.044-10.971 0-6.0578 11.661-10.969 26.044-10.969 14.384 0 26.044 4.9113 26.044 10.969z" style="fill:none;stroke-miterlimit:10;stroke-width:.40852;stroke:#173a6e"/>
  <path id="path11987" d="m77.193 147.5c0 6.0579-11.66 10.969-26.044 10.969-14.383 0-26.044-4.9113-26.044-10.969 0-6.0592 11.661-10.971 26.044-10.971 14.384 0 26.044 4.9113 26.044 10.971z" style="fill:none;stroke-miterlimit:10;stroke-width:.40852;stroke:#173a6e"/>
  <path id="path11989" d="m25.106 97.235v50.263" style="fill:none;stroke-miterlimit:10;stroke-width:.40852;stroke:#173a6e"/>
  <path id="path11991" d="m77.193 97.235v50.263" style="fill:none;stroke-miterlimit:10;stroke-width:.40852;stroke:#173a6e"/>
  <path id="path11993" d="m51.15 96.423v1.8314" style="fill:none;stroke-miterlimit:10;stroke-width:.36407;stroke:#1c1c19"/>
  <path id="path11995" d="m51.15 99.784v45.117" style="fill:none;stroke-dasharray:3.5687, 1.52929;stroke-miterlimit:10;stroke-width:.36407;stroke:#1c1c19"/>
  <path id="path11997" d="m51.15 145.67v1.83" style="fill:none;stroke-miterlimit:10;stroke-width:.36407;stroke:#1c1c19"/>
  <path id="path11999" d="m50.749 96.423h1.4166" style="fill:none;stroke-miterlimit:10;stroke-width:.28187;stroke:#1c1c19"/>
  <path id="path12001" d="m53.29 96.423h21.925" style="fill:none;stroke-dasharray:2.62361, 1.1243;stroke-miterlimit:10;stroke-width:.28187;stroke:#1c1c19"/>
  <path id="path12003" d="m75.777 96.423h1.4166" style="fill:none;stroke-miterlimit:10;stroke-width:.28187;stroke:#1c1c19"/>
  <g id="g13483" transform="matrix(.35278 0 0 .35278 -52.389 -1101.8)">
   <g id="use13469" transform="translate(368.83 3370.4)">
    <path id="path24509" d="m1.7031 0h2.0312v-6.0156c0-0.35938 0.046875-0.67188 0.09375-0.95312 0.28125-1.5469 1.2969-2.6406 2.75-2.6406 0.28125 0 0.48438 0.015625 0.70312 0.0625v-1.9375c-0.1875-0.04687-0.35938-0.0625-0.59375-0.0625-1.375 0-2.6094 0.95312-3.125 2.4688h-0.09375l-0.0625-2.2188h-1.7969c0.0625 1.0625 0.09375 2.2031 0.09375 3.5312z"/>
   </g>
   <g id="use13471" transform="translate(376.46 3370.4)"></g>
   <g id="use13473" transform="translate(381.4 3370.4)">
    <path id="path24517" d="m12.969-7.8594v-1.4062h-12.031v1.4062zm0 4.5625v-1.3906h-12.031v1.3906z"/>
   </g>
   <g id="use13475" transform="translate(395.3 3370.4)"></g>
   <g id="use13477" transform="translate(400.25 3370.4)">
    <path id="path24525" d="m0.98438-0.76562c0.73438 0.48438 2.2344 1.0156 3.9375 1.0156 3.6406 0 5.5312-2.1094 5.5312-4.5469 0-2.125-1.5156-3.5156-3.3906-3.8906v-0.046875c1.875-0.67188 2.8125-2 2.8125-3.5625 0-1.8438-1.3594-3.625-4.3438-3.625-1.6406 0-3.1719 0.57812-3.9688 1.1719l0.53125 1.4844c0.65625-0.46875 1.8281-1 3.0312-1 1.8906 0 2.6719 1.0781 2.6719 2.2812 0 1.7969-1.8906 2.5781-3.3906 2.5781h-1.1406v1.5312h1.1406c1.9844 0 3.9062 0.90625 3.9219 3.0312 0.015625 1.2656-0.79688 2.9375-3.4219 2.9375-1.4375 0-2.7812-0.57812-3.3594-0.95312z"/>
   </g>
   <g id="use13479" transform="translate(412.21 3370.4)"></g>
   <g id="use13481" transform="translate(417.16 3370.4)">
    <path id="path24533" d="m1.7031 0h2v-6.8125c0-0.34375 0.046875-0.70312 0.17188-1 0.32812-1.0312 1.25-2.0625 2.5469-2.0625 1.5625 0 2.3438 1.3125 2.3438 3.1094v6.7656h2.0156v-6.9688c0-0.375 0.0625-0.75 0.15625-1.0312 0.35938-1 1.2656-1.875 2.4219-1.875 1.6562 0 2.4531 1.3125 2.4531 3.4844v6.3906h2.0156v-6.6562c0-3.9062-2.2188-4.8906-3.7188-4.8906-1.0625 0-1.8125 0.28125-2.4844 0.79688-0.46875 0.34375-0.92188 0.82812-1.2656 1.4688h-0.046875c-0.48438-1.3281-1.6562-2.2656-3.2031-2.2656-1.8594 0-2.9062 1-3.5469 2.0781h-0.0625l-0.09375-1.8281h-1.7969c0.0625 0.9375 0.09375 1.8906 0.09375 3.0625z"/>
   </g>
  </g>
  <g id="g13501" transform="matrix(.35278 0 0 .35278 -52.389 -1101.8)">
   <g id="use13485" transform="translate(411.7 3477.1)">
    <path id="path24537" d="m1.7031 0h2.0469v-6.8125c0-0.39062 0.03125-0.70312 0.14062-0.98438 0.375-1.1094 1.4219-2.0469 2.7656-2.0469 1.9219 0 2.6094 1.5312 2.6094 3.3594v6.4844h2.0469v-6.7188c0-3.8906-2.4219-4.8281-3.9375-4.8281-0.76562 0-1.5 0.23438-2.1094 0.57812-0.625 0.35938-1.1406 0.875-1.4688 1.4531h-0.046875v-7.0469h-2.0469z"/>
   </g>
   <g id="use13487" transform="translate(424.65 3477.1)"></g>
   <g id="use13489" transform="translate(429.59 3477.1)">
    <path id="path24545" d="m12.969-7.8594v-1.4062h-12.031v1.4062zm0 4.5625v-1.3906h-12.031v1.3906z"/>
   </g>
   <g id="use13491" transform="translate(443.5 3477.1)"></g>
   <g id="use13493" transform="translate(448.44 3477.1)">
    <path id="path24553" d="m10.094-15.156h-7.25l-0.98438 7.2656c0.5625-0.0625 1.25-0.15625 2.1094-0.15625 3.0312 0 4.3438 1.3906 4.3594 3.3594 0 2.0312-1.6562 3.2812-3.5938 3.2812-1.375 0-2.6094-0.45312-3.2344-0.82812l-0.51562 1.5625c0.71875 0.46875 2.125 0.92188 3.7812 0.92188 3.2812 0 5.6406-2.2031 5.6406-5.1719 0-1.9062-0.98438-3.2188-2.1719-3.8906-0.9375-0.5625-2.0938-0.82812-3.2656-0.82812-0.5625 0-0.89062 0.046875-1.2344 0.09375l0.57812-3.8906h5.7812z"/>
   </g>
   <g id="use13495" transform="translate(460.41 3477.1)"></g>
   <g id="use13497" transform="translate(465.35 3477.1)">
    <path id="path24561" d="m9.4062-1.9531c-0.59375 0.25-1.3594 0.54688-2.5312 0.54688-2.2344 0-3.9062-1.6094-3.9062-4.2188 0-2.3594 1.3906-4.2656 3.9844-4.2656 1.125 0 1.8906 0.25 2.375 0.53125l0.46875-1.5781c-0.5625-0.28125-1.625-0.59375-2.8438-0.59375-3.6875 0-6.0625 2.5312-6.0625 6 0 3.4531 2.2188 5.7656 5.625 5.7656 1.5156 0 2.7031-0.375 3.2344-0.65625z"/>
   </g>
   <g id="use13499" transform="translate(475.8 3477.1)">
    <path id="path24565" d="m1.7031 0h2v-6.8125c0-0.34375 0.046875-0.70312 0.17188-1 0.32812-1.0312 1.25-2.0625 2.5469-2.0625 1.5625 0 2.3438 1.3125 2.3438 3.1094v6.7656h2.0156v-6.9688c0-0.375 0.0625-0.75 0.15625-1.0312 0.35938-1 1.2656-1.875 2.4219-1.875 1.6562 0 2.4531 1.3125 2.4531 3.4844v6.3906h2.0156v-6.6562c0-3.9062-2.2188-4.8906-3.7188-4.8906-1.0625 0-1.8125 0.28125-2.4844 0.79688-0.46875 0.34375-0.92188 0.82812-1.2656 1.4688h-0.046875c-0.48438-1.3281-1.6562-2.2656-3.2031-2.2656-1.8594 0-2.9062 1-3.5469 2.0781h-0.0625l-0.09375-1.8281h-1.7969c0.0625 0.9375 0.09375 1.8906 0.09375 3.0625z"/>
   </g>
  </g>
 </g>
</svg>
